<?xml version="1.0" encoding="utf-8"?>
<!-- Generator: Adobe Illustrator 28.3.0, SVG Export Plug-In . SVG Version: 6.00 Build 0)  -->
<svg version="1.1" id="レイヤー_1" xmlns="http://www.w3.org/2000/svg" xmlns:xlink="http://www.w3.org/1999/xlink" x="0px"
	 y="0px" viewBox="0 0 1024 1024" style="enable-background:new 0 0 1024 1024;" xml:space="preserve">
<style type="text/css">
	.st0{fill:#FEFFFE;}
</style>
<g>
	<path class="st0" d="M863.6,619.5c0,70.1,0,140.2,0,210.4c0,2.4,0.1,4.7,0,7.1c-0.6,14.4-11.5,25.7-25.8,26.8
		c-1.6,0.1-3.1,0.1-4.7,0.1c-25.9,0-51.8,0-77.7,0c-3.1,0-6.3-0.3-9.3-0.9c-11.9-2.5-20.8-13.7-21.1-25.2c-0.1-3.4-0.1-6.8-0.1-10.2
		c0-135.3,0-270.5,0-405.8c0-22.7-5.2-44.1-17-63.6c-19.4-31.7-47.6-50.8-84.2-57.2c-6.4-1.1-13-1.5-19.5-1.5
		c-61.5-0.1-123-0.2-184.5,0c-56.6,0.1-104.7,38.6-117.6,93.8c-2.2,9.2-2.8,18.6-2.9,28c0,60.7,0,121.4,0,182.1
		c0,35.7,12.9,65.9,39.1,90.1c21.1,19.5,46.3,30,75.2,31.3c4.2,0.2,8.4,0.2,12.6,0.2c42.4,0,84.8,0,127.2,0c3.4,0,6.8,0.1,10.2,0.6
		c12.4,2.1,21.5,12.3,22.4,24.8c0.2,2.1,0.1,4.2,0.1,6.3c0,25.1,0,50.2,0,75.4c0,1.8,0,3.7-0.1,5.5c-0.8,14.1-11.4,25.1-25.5,26.3
		c-2.1,0.2-4.2,0.1-6.3,0.1c-45.3,0-90.6,0.2-135.8,0c-121.9-0.5-224.8-85-251.7-201.1c-4.4-18.9-6.6-38.1-6.5-57.6
		c0-62,0-124,0-186c0.1-119.7,82.6-224,199-251.7c18.6-4.4,37.6-6.9,56.7-6.9c64.1,0,128.2-0.4,192.4,0.1
		c116.5,0.8,219.4,82.2,247.5,195.1c5.3,21.2,7.9,42.6,7.9,64.5C863.5,486.6,863.6,553.1,863.6,619.5z"/>
</g>
</svg>
