<?xml version="1.0" encoding="utf-8"?>
<!-- Generator: Adobe Illustrator 28.3.0, SVG Export Plug-In . SVG Version: 6.00 Build 0)  -->
<svg version="1.1" id="レイヤー_1" xmlns="http://www.w3.org/2000/svg" xmlns:xlink="http://www.w3.org/1999/xlink" x="0px"
	 y="0px" viewBox="0 0 24 24" style="enable-background:new 0 0 24 24;" xml:space="preserve">
<style type="text/css">
	.st0{fill:none;}
	.st1{fill:#FFFFFF;}
</style>
<path class="st0" d="M0,0h24v24H0V0z"/>
<path class="st1" d="M18,3c2.8,0,5,2.2,5,5v8c0,2.8-2.2,5-5,5H6c-2.8,0-5-2.2-5-5V8c0-2.8,2.2-5,5-5H18z M9,9v6c0,0.6,0.4,1,1,1
	c0.2,0,0.4,0,0.5-0.1l5-3c0.5-0.3,0.6-0.9,0.3-1.4c-0.1-0.1-0.2-0.3-0.3-0.3l-5-3C10,7.9,9.4,8,9.1,8.5C9,8.6,9,8.8,9,9z"/>
</svg>
