<?xml version="1.0" standalone="no"?>
<!DOCTYPE svg PUBLIC "-//W3C//DTD SVG 20010904//EN"
 "http://www.w3.org/TR/2001/REC-SVG-20010904/DTD/svg10.dtd">
<svg version="1.0" xmlns="http://www.w3.org/2000/svg"
 width="1024.000000pt" height="1024.000000pt" viewBox="0 0 1024.000000 1024.000000"
 preserveAspectRatio="xMidYMid meet">
<metadata>
Created by potrace 1.14, written by Peter Selinger 2001-2017
</metadata>
<g transform="translate(0.000000,1024.000000) scale(0.100000,-0.100000)"
fill="#000000" stroke="none">
<path d="M4829 10236 c-2 -2 -50 -7 -106 -10 -55 -4 -112 -9 -125 -11 -12 -2
-50 -6 -83 -9 -33 -3 -69 -8 -80 -10 -11 -2 -42 -7 -70 -10 -44 -6 -85 -13
-190 -32 -86 -15 -231 -47 -315 -70 -52 -13 -102 -26 -110 -28 -100 -25 -392
-121 -485 -161 -16 -7 -66 -27 -110 -45 -182 -74 -432 -197 -597 -295 -9 -5
-36 -21 -59 -33 -106 -58 -426 -279 -545 -375 -192 -155 -300 -252 -454 -407
-446 -445 -797 -952 -1047 -1510 -56 -123 -143 -335 -148 -360 -2 -8 -13 -42
-26 -75 -18 -49 -68 -204 -84 -265 -23 -83 -65 -249 -69 -269 -3 -14 -12 -57
-20 -96 -21 -97 -33 -165 -41 -224 -2 -14 -4 -26 -5 -26 -1 0 -3 -13 -5 -30
-2 -16 -7 -48 -10 -70 -3 -22 -8 -60 -10 -85 -3 -25 -7 -61 -10 -80 -14 -119
-20 -280 -20 -530 0 -368 10 -511 61 -830 5 -30 35 -190 50 -269 7 -36 83
-331 94 -366 174 -547 367 -956 651 -1381 54 -81 224 -312 275 -374 224 -270
444 -494 691 -702 188 -159 514 -391 673 -480 25 -14 70 -40 100 -58 64 -38
309 -162 422 -214 225 -102 671 -258 837 -291 9 -2 54 -12 101 -24 47 -11 99
-23 115 -26 17 -3 53 -10 80 -15 28 -5 59 -11 70 -13 20 -5 131 -22 195 -31
19 -3 62 -8 95 -12 33 -3 71 -7 84 -9 124 -20 740 -28 911 -12 47 4 110 10
140 12 30 3 69 7 85 10 17 2 53 7 80 10 43 6 93 14 300 50 69 12 227 49 330
77 1110 300 2080 955 2769 1872 444 590 765 1289 912 1988 19 91 26 127 30
153 3 17 9 55 14 85 5 30 12 73 15 95 4 22 8 51 10 65 2 14 7 52 10 85 4 33 9
74 11 90 26 215 26 873 -1 1036 -2 13 -6 49 -9 79 -8 78 -15 129 -38 260 -11
63 -22 129 -24 145 -3 17 -7 37 -10 45 -3 8 -8 29 -11 45 -25 161 -182 667
-263 850 -101 228 -137 306 -181 391 -71 136 -145 268 -191 337 -21 32 -38 61
-38 64 0 2 -40 64 -90 136 -183 269 -384 512 -616 742 -177 177 -187 186 -326
304 -254 213 -570 429 -843 576 -49 27 -109 59 -132 71 -184 101 -714 311
-876 349 -12 3 -56 14 -97 26 -41 11 -82 22 -90 24 -8 1 -42 10 -75 18 -33 9
-71 18 -85 21 -14 3 -50 10 -80 15 -30 6 -66 13 -80 16 -65 13 -200 34 -250
40 -30 3 -66 8 -80 10 -14 2 -54 7 -90 10 -36 4 -83 9 -105 11 -47 6 -701 15
-706 10z"/>
</g>
</svg>
