<?xml version="1.0" standalone="no"?>
<!DOCTYPE svg PUBLIC "-//W3C//DTD SVG 20010904//EN"
 "http://www.w3.org/TR/2001/REC-SVG-20010904/DTD/svg10.dtd">
<svg version="1.0" xmlns="http://www.w3.org/2000/svg"
 width="512.000000pt" height="512.000000pt" viewBox="0 0 512.000000 512.000000"
 preserveAspectRatio="xMidYMid meet">
<metadata>
Created by potrace 1.14, written by Peter Selinger 2001-2017
</metadata>
<g transform="translate(0.000000,512.000000) scale(0.100000,-0.100000)"
fill="#000000" stroke="none">
<path d="M2650 4948 c0 -4 -6 -8 -13 -8 -6 0 -34 -16 -61 -35 -27 -19 -55 -35
-62 -35 -7 0 -17 -6 -21 -12 -4 -7 -34 -26 -65 -43 -32 -16 -58 -33 -58 -37 0
-5 -6 -8 -14 -8 -7 0 -19 -6 -26 -14 -6 -8 -18 -12 -26 -9 -8 3 -14 1 -14 -4
0 -6 -18 -18 -40 -28 -22 -10 -40 -23 -40 -28 0 -6 -3 -7 -6 -4 -4 4 -19 -2
-34 -13 -15 -11 -30 -17 -34 -13 -3 3 -6 1 -6 -6 0 -7 -4 -10 -9 -7 -5 4 -11
3 -13 -1 -3 -9 -156 -87 -173 -89 -19 -2 -50 -17 -67 -32 -10 -8 -18 -12 -18
-7 0 4 -7 2 -15 -5 -8 -6 -19 -9 -25 -5 -5 3 -10 2 -10 -2 0 -8 -64 -37 -66
-31 0 2 -8 -3 -17 -10 -9 -8 -20 -11 -26 -8 -5 3 -11 -1 -15 -9 -3 -8 -12 -12
-21 -9 -8 4 -15 1 -15 -6 0 -7 -6 -10 -14 -7 -8 3 -16 1 -18 -5 -4 -10 -14
-13 -65 -20 -7 -1 -13 -5 -13 -10 0 -5 -4 -6 -10 -3 -5 3 -10 2 -10 -2 0 -9
-88 -38 -104 -34 -5 1 -12 -2 -15 -6 -3 -5 -26 -15 -51 -22 -25 -7 -68 -22
-95 -32 l-51 -19 0 -110 c0 -60 3 -110 7 -110 4 0 6 -36 5 -80 -1 -44 2 -80 7
-80 5 0 7 -27 5 -60 -1 -33 1 -61 6 -63 5 -2 10 -21 12 -42 1 -22 5 -58 9 -80
3 -22 7 -48 8 -57 1 -10 5 -18 9 -18 5 0 4 -9 -2 -19 -7 -13 -7 -22 0 -26 5
-3 10 -19 10 -34 0 -15 3 -31 7 -35 4 -4 8 -19 9 -34 0 -14 6 -28 13 -30 9 -3
9 -8 1 -17 -8 -9 -8 -15 0 -20 5 -3 10 -17 10 -30 0 -13 4 -26 9 -30 6 -3 8
-14 6 -25 -2 -11 1 -20 6 -20 5 0 9 -6 8 -12 -2 -13 6 -41 21 -69 4 -8 4 -23
-2 -32 -6 -12 -6 -17 3 -15 11 3 16 -7 21 -47 2 -11 9 -26 16 -33 7 -8 10 -18
7 -23 -4 -5 -2 -9 4 -9 5 0 8 -9 6 -20 -2 -11 0 -18 6 -15 5 4 9 -3 9 -14 0
-11 5 -23 10 -26 6 -4 8 -10 5 -15 -3 -5 0 -14 7 -22 7 -7 15 -22 17 -33 1
-11 8 -29 14 -40 6 -11 10 -23 9 -27 -1 -5 3 -8 8 -8 6 0 10 -6 9 -12 -2 -14
11 -44 51 -118 13 -25 25 -52 26 -60 2 -8 11 -22 22 -30 10 -9 17 -21 14 -28
-2 -6 1 -12 8 -12 6 0 8 -4 5 -10 -3 -5 -1 -10 4 -10 6 0 11 -6 11 -14 0 -7 7
-19 15 -26 8 -7 12 -16 9 -21 -3 -5 0 -9 5 -9 6 0 11 -7 11 -15 0 -8 5 -15 10
-15 6 0 10 -7 10 -15 0 -8 5 -15 10 -15 6 0 10 -9 10 -19 0 -10 7 -22 16 -25
9 -4 14 -9 11 -13 -4 -3 3 -14 14 -24 11 -9 20 -20 20 -23 -2 -10 53 -90 66
-99 7 -4 13 -13 13 -19 0 -6 7 -18 15 -27 9 -9 38 -45 65 -81 60 -78 104 -131
146 -176 17 -18 29 -36 26 -39 -3 -3 1 -5 10 -5 8 0 19 -9 24 -20 9 -20 262
-280 273 -280 3 0 17 -16 30 -35 13 -19 31 -37 40 -40 10 -3 46 -32 79 -65 34
-33 73 -62 87 -66 30 -7 59 2 50 16 -3 5 0 10 8 10 8 0 22 11 31 25 9 14 21
23 26 20 4 -3 17 6 28 20 11 14 25 25 31 25 6 0 11 4 11 9 0 12 88 100 94 94
4 -5 166 157 166 167 0 4 33 41 73 82 99 104 147 157 147 165 0 3 12 18 28 32
15 15 28 29 29 31 1 3 5 13 8 23 4 9 14 17 22 17 8 0 11 4 8 10 -3 5 6 21 21
35 15 14 23 25 19 25 -4 0 4 12 19 26 14 15 26 30 26 34 0 5 17 30 38 57 20
27 43 59 50 71 6 12 18 32 25 44 6 13 18 27 25 33 7 6 14 17 15 26 2 8 13 28
25 43 12 16 22 34 22 40 0 7 14 31 31 54 17 23 28 42 25 42 -3 0 10 27 28 59
19 32 39 76 46 98 7 21 16 43 21 49 5 6 6 14 2 17 -3 4 -1 7 5 7 9 0 30 48 33
75 0 6 5 15 11 22 5 7 7 17 3 23 -3 5 -1 10 4 10 6 0 11 7 11 15 0 8 4 15 8
15 5 0 9 6 10 13 2 28 27 103 37 109 5 4 6 10 2 14 -4 4 -2 13 4 21 6 7 8 13
4 13 -4 0 -2 7 5 15 7 8 10 22 6 30 -3 9 0 15 8 15 7 0 12 10 11 23 -1 12 1
27 5 32 4 6 8 17 8 25 3 34 15 80 21 80 6 0 8 16 13 85 1 19 5 35 9 35 4 0 10
19 13 43 7 52 13 82 16 82 1 0 4 18 6 40 2 22 6 63 9 90 4 28 9 82 12 120 3
39 8 75 12 80 5 8 7 284 2 317 -1 5 -25 17 -51 23 -3 1 -18 5 -35 9 -27 7 -94
29 -135 44 -8 3 -18 4 -22 4 -5 -1 -8 3 -8 8 0 6 -11 10 -25 10 -14 0 -25 4
-25 8 0 7 -16 11 -57 14 -7 1 -13 5 -13 10 0 4 -7 8 -15 8 -8 0 -15 4 -15 9 0
5 -8 7 -18 4 -10 -2 -24 3 -31 11 -8 9 -24 16 -37 16 -13 0 -24 4 -24 8 0 5
-7 9 -15 10 -8 1 -22 3 -30 4 -8 1 -15 5 -15 10 0 4 -7 8 -15 8 -8 0 -15 5
-15 12 0 6 -3 8 -7 5 -3 -4 -17 0 -30 8 -13 9 -27 14 -32 11 -4 -3 -17 3 -28
14 -12 10 -24 16 -27 12 -4 -3 -11 -1 -15 6 -4 8 -14 15 -22 17 -36 8 -59 18
-59 25 0 7 -28 18 -41 16 -4 -1 -16 7 -26 17 -11 9 -23 14 -26 10 -4 -3 -7 -1
-7 6 0 7 -6 11 -12 8 -7 -2 -20 3 -28 12 -8 9 -19 16 -25 17 -20 2 -75 29 -75
37 0 4 -5 5 -10 2 -6 -3 -13 1 -16 9 -3 9 -12 16 -20 16 -8 0 -14 5 -14 10 0
6 -3 9 -7 8 -15 -4 -53 13 -53 23 0 6 -4 8 -9 5 -5 -4 -11 -2 -13 3 -1 5 -10
11 -18 13 -15 3 -29 13 -55 36 -8 7 -15 11 -15 8 0 -7 -77 42 -98 61 -6 6 -21
15 -32 18 -11 3 -20 10 -20 14 0 4 -13 7 -30 7 -16 0 -30 -3 -30 -8z"/>
<path d="M4070 1041 c-5 -11 -10 -26 -10 -33 -1 -24 -46 -124 -77 -171 -41
-60 -30 -78 49 -79 l56 -1 -16 -36 c-21 -47 -93 -161 -116 -183 -22 -22 -17
-62 7 -66 11 -2 31 8 46 22 l28 27 -1 -126 c-1 -149 3 -165 42 -165 31 0 58
22 48 39 -9 14 13 18 112 19 l93 0 -23 -19 c-17 -16 -20 -24 -12 -37 19 -29
44 -25 100 13 88 61 173 181 175 247 0 13 10 -3 23 -38 38 -104 129 -235 159
-230 18 3 70 54 65 65 -1 5 -22 30 -46 55 -57 61 -116 159 -136 226 -9 30 -16
54 -16 55 0 1 11 0 24 -2 27 -6 46 17 95 114 17 34 35 64 41 68 5 3 14 15 20
25 8 15 4 26 -21 55 -35 40 -61 44 -82 15 -13 -18 -24 -21 -92 -19 -73 2 -76
3 -71 23 3 11 6 26 6 33 0 7 11 23 25 37 14 14 25 30 25 35 0 16 -40 38 -82
45 -42 8 -38 15 -73 -146 -9 -43 -20 -78 -24 -78 -3 0 -13 9 -21 20 -19 27
-44 25 -68 -5 -16 -20 -29 -25 -66 -25 -48 0 -51 4 -40 48 6 21 12 22 90 22
74 0 85 2 94 21 9 15 8 24 -2 37 -58 73 -67 76 -97 33 -20 -27 -25 -29 -93
-29 l-73 0 26 22 c14 11 24 27 23 34 -1 6 -2 16 -3 21 -1 11 -56 31 -82 31
-10 0 -23 -9 -29 -19z m45 -190 c-5 -25 -12 -31 -32 -31 -23 0 -24 2 -12 17
49 62 55 63 44 14z m551 -56 c-4 -14 -17 -54 -31 -88 -23 -59 -24 -61 -25 -27
-1 19 -3 59 -6 88 l-4 52 36 0 c34 0 36 -2 30 -25z m-159 -82 c-8 -137 -24
-207 -70 -301 -25 -52 -31 -56 -47 -37 -18 21 -47 19 -60 -5 -6 -12 -21 -20
-35 -20 -21 0 -25 5 -25 28 0 27 1 27 58 26 85 -2 102 20 57 74 l-24 29 24 11
c32 15 32 39 -1 73 l-25 26 28 6 c20 5 34 18 46 44 47 96 72 143 76 143 2 0 1
-44 -2 -97z m-309 7 c-8 -29 -16 -40 -29 -40 -19 0 -19 1 1 40 11 22 24 40 29
40 5 0 4 -18 -1 -40z m182 21 c0 -14 -5 -18 -19 -14 -12 3 -25 -5 -39 -21 -11
-14 -26 -26 -33 -26 -8 1 -1 11 15 24 16 14 27 30 24 38 -4 10 3 15 23 16 23
2 29 -2 29 -17z m-200 -145 c0 -18 -5 -23 -25 -23 -20 0 -25 5 -25 23 0 19 5
24 25 24 20 0 25 -5 25 -24z m133 0 c-20 -26 -43 -24 -43 5 0 15 7 19 30 19
31 0 31 0 13 -24z m-130 -110 c-3 -16 -12 -22 -31 -21 -22 0 -27 5 -27 25 0
22 4 25 31 22 26 -3 30 -8 27 -26z m147 26 c0 -13 -38 -48 -48 -44 -11 3 -17
34 -8 43 5 5 56 5 56 1z m-149 -116 c13 -17 -3 -46 -26 -46 -26 0 -36 17 -24
41 9 17 39 20 50 5z"/>
<path d="M3248 1038 c-3 -7 -4 -33 -4 -58 l1 -45 -80 -5 c-73 -5 -80 -7 -83
-27 -3 -23 29 -49 43 -35 5 4 5 -1 2 -10 -4 -10 -3 -18 2 -18 8 0 29 -40 41
-80 7 -25 7 -26 -44 -25 -57 1 -76 -11 -66 -40 6 -18 17 -20 87 -21 44 0 84
-3 89 -7 8 -5 10 -27 5 -69 -1 -4 -38 -8 -83 -10 -81 -3 -83 -4 -83 -28 0 -24
3 -25 73 -28 39 -2 72 -5 72 -8 0 -15 -75 -115 -119 -159 -68 -68 -71 -89 -14
-101 7 -1 46 28 86 66 l72 68 -2 -89 c-2 -95 6 -110 52 -106 34 3 40 24 40
133 l-1 105 47 -51 c26 -29 52 -49 58 -45 17 10 13 -5 -16 -54 -15 -25 -26
-48 -24 -51 10 -18 26 -30 41 -30 37 0 129 158 145 250 3 16 7 43 10 59 3 16
6 57 7 90 l2 61 37 0 c21 0 39 -5 41 -12 2 -7 3 -103 2 -213 0 -110 2 -207 7
-216 8 -16 62 -20 76 -5 5 4 8 105 8 224 l0 217 53 1 c34 1 59 7 69 17 15 15
14 19 -8 51 -13 19 -34 39 -46 45 -19 9 -26 6 -46 -20 -23 -30 -24 -30 -108
-27 l-84 3 -1 77 -1 76 42 7 c24 3 65 14 91 24 27 10 55 16 61 14 18 -6 53 16
53 32 0 15 -33 50 -61 65 -11 6 -39 -3 -92 -31 -74 -38 -90 -42 -151 -37 -24
2 -31 -2 -35 -20 -6 -23 -6 -23 -29 7 -27 38 -45 39 -74 6 -13 -15 -32 -25
-49 -25 -23 0 -27 4 -24 23 3 12 11 27 19 33 18 12 15 42 -5 55 -21 13 -96 11
-101 -3z m262 -220 l0 -72 -20 22 c-22 23 -45 20 -60 -8 -10 -19 -50 -34 -50
-19 0 5 19 27 42 50 36 35 40 43 30 60 -11 17 -9 19 15 17 14 -2 28 3 31 10 8
26 12 9 12 -60z m-176 43 c10 -15 -39 -126 -56 -127 -10 -1 -14 4 -11 12 8 22
-5 60 -31 91 l-24 28 59 2 c32 1 61 -2 63 -6z m176 -234 l0 -49 -26 31 c-31
38 -56 39 -74 6 -10 -19 -21 -25 -47 -25 -37 0 -41 10 -15 40 9 11 16 24 14
27 -6 12 25 18 88 18 l60 0 0 -48z m-16 -144 c-3 -27 -8 -50 -10 -52 -2 -2
-13 7 -24 22 -11 14 -43 37 -72 51 l-52 26 83 0 82 0 -7 -47z"/>
<path d="M1320 1004 c-78 -23 -147 -106 -174 -210 -15 -58 -17 -258 -3 -312
13 -51 55 -129 86 -160 49 -49 85 -63 156 -63 100 0 165 43 216 143 43 84 58
282 29 388 -32 120 -107 205 -189 215 -25 3 -53 7 -61 9 -9 2 -36 -3 -60 -10z
m113 -122 c41 -45 60 -114 63 -225 4 -192 -47 -304 -130 -283 -46 11 -86 123
-90 256 -4 96 41 249 76 263 28 11 66 6 81 -11z"/>
<path d="M1898 1009 c-50 -8 -87 -29 -129 -76 -36 -40 -47 -71 -44 -127 2 -40
7 -54 29 -73 62 -53 145 -14 141 66 -1 22 -8 47 -15 56 -19 22 -1 36 53 42 39
5 49 2 71 -20 30 -30 35 -81 11 -126 -8 -16 -42 -52 -77 -82 -34 -30 -76 -65
-91 -79 -36 -30 -109 -134 -126 -176 -7 -17 -14 -52 -16 -77 -2 -38 0 -47 15
-52 30 -9 441 -8 450 1 11 12 33 230 25 244 -3 5 -24 10 -45 10 -44 0 -53 -11
-64 -72 -4 -22 -15 -42 -26 -48 -24 -13 -210 -13 -210 0 0 17 77 87 148 133
88 58 157 127 172 173 7 20 10 64 8 98 -3 52 -9 70 -36 103 -53 67 -141 97
-244 82z"/>
<path d="M2475 1010 c-114 -13 -193 -97 -191 -204 1 -39 7 -53 29 -72 34 -29
85 -31 116 -5 27 24 34 80 15 117 -8 14 -12 30 -9 35 8 13 71 22 100 15 37 -9
64 -59 55 -99 -12 -54 -26 -72 -119 -152 -94 -80 -155 -153 -184 -220 -18 -40
-27 -128 -15 -140 9 -10 449 -8 459 2 9 9 23 131 24 203 l0 45 -42 3 c-47 3
-55 -6 -67 -70 -4 -22 -15 -42 -26 -48 -23 -12 -210 -14 -210 -1 0 18 57 69
159 142 60 43 119 94 136 118 27 39 30 50 30 125 0 77 -2 84 -32 123 -52 65
-130 94 -228 83z"/>
<path d="M725 995 c-76 -41 -123 -112 -121 -187 2 -61 30 -93 84 -96 71 -5
111 67 75 135 -17 34 -7 44 50 50 39 5 49 2 71 -20 32 -32 35 -88 7 -133 -11
-17 -57 -63 -103 -102 -45 -39 -90 -79 -98 -89 -71 -87 -101 -149 -103 -215
-1 -26 1 -50 5 -53 7 -8 445 -8 457 -1 10 6 25 134 26 211 0 40 0 40 -42 43
-47 3 -56 -6 -68 -71 -4 -21 -16 -42 -26 -47 -23 -13 -209 -13 -209 0 0 16 80
86 174 152 110 79 148 128 154 202 2 30 2 70 -2 88 -7 40 -58 99 -106 126 -47
25 -182 30 -225 7z"/>
</g>
</svg>
