<?xml version="1.0" encoding="UTF-8"?>
<svg xmlns="http://www.w3.org/2000/svg" width="660" height="490" viewBox="0 0 660 490">
  <g id="_背景" data-name="背景">
    <polyline id="base" points="0 0 660 0 660 490 0 490" fill="#dcdddd"/>
  </g>
  <g id="_男性用トイレ" data-name="男性用トイレ">
    <polyline points="386.47 126.96 404.84 126.96 404.84 37.16 386.47 37.16 386.47 126.96" fill="#54c3f1" stroke="#283331" stroke-miterlimit="10"/>
    <polyline points="378.82 410.63 378.82 434.1 394.13 434.1 394.13 410.63 378.82 410.63" fill="#54c3f1" stroke="#283331" stroke-miterlimit="10"/>
  </g>
  <g id="_女性用トイレ" data-name="女性用トイレ">
    <polyline points="368.81 142.52 386.47 142.52 386.47 37.16 368.81 37.16 368.81 142.52" fill="#f19899" stroke="#283331" stroke-miterlimit="10"/>
    <rect x="394.13" y="410.63" width="13.78" height="23.47" fill="#f19899" stroke="#283331" stroke-miterlimit="10"/>
  </g>
  <g id="_使用不可能教室等" data-name="使用不可能教室等">
    <rect x="305.14" y="65.99" width="63.67" height="76.53" fill="#929292" stroke="#283331" stroke-miterlimit="10"/>
    <polyline points="506.37 393.29 561.79 393.29 561.79 372.27 506.37 372.27 506.37 393.29" fill="#929292" stroke="#283331" stroke-miterlimit="10"/>
    <polyline points="561.79 393.29 616.58 393.29 616.58 372.27 561.79 372.27 561.79 393.29" fill="#929292" stroke="#283331" stroke-miterlimit="10"/>
    <polyline points="516 206.55 616.58 206.55 616.58 176.83 529.33 176.83 516 190.16 516 206.55" fill="#929292" stroke="#283331" stroke-miterlimit="10"/>
    <polyline points="209.64 393.29 401.02 393.29 401.02 320.74 209.64 320.74 209.64 393.29" fill="#929292" stroke="#283331" stroke-miterlimit="10"/>
    <polyline points="401.02 393.29 479.87 393.29 479.87 335.02 401.02 335.02 401.02 393.29" fill="#929292" stroke="#283331" stroke-miterlimit="10"/>
    <polyline points="209.64 411.65 209.64 434.1 264.03 434.1 264.03 411.65 209.64 411.65" fill="#929292" stroke="#283331" stroke-miterlimit="10"/>
    <polyline points="114.13 320.74 15.36 320.74 15.36 452.84 114.13 452.84 114.13 320.74" fill="#929292" stroke="#283331" stroke-miterlimit="10"/>
    <polyline id="_4-6_room120" data-name="4-6_room120" points="506.37 206.55 616.58 206.55 616.58 372.27 506.37 372.27 506.37 206.55" fill="#929292" stroke="#283331" stroke-miterlimit="10"/>
    <rect id="_4-6_room110" data-name="4-6_room110" x="404.84" y="37.16" width="144.16" height="89.8" fill="#929292" stroke="#283331" stroke-miterlimit="10"/>
    <polyline points="407.9 410.63 616.58 410.63 616.58 434.1 407.9 434.1 407.9 410.63" fill="#929292" stroke="#283331" stroke-miterlimit="10"/>
  </g>
  <g id="_廊下" data-name="廊下">
    <polygon points="386.47 142.52 386.47 126.96 565.56 126.96 565.56 111.14 549 111.14 549 37.16 631.37 37.16 631.37 120.84 615.05 120.84 615.05 126.96 582.63 163.18 582.63 176.83 529.33 176.83 516 190.16 516 206.55 506.37 206.55 506.37 393.29 616.58 393.29 616.58 410.63 378.82 410.63 378.82 434.1 264.03 434.1 264.03 411.65 209.64 411.65 209.64 393.29 479.87 393.29 479.87 199.92 494.64 176.83 494.64 151.9 485.87 143.13 386.47 142.52" fill="#b5b5b6" stroke="#283331" stroke-miterlimit="10"/>
    <polygon points="55.69 163.18 55.69 145.02 114.13 145.02 114.13 126.96 241.47 126.96 241.47 142.52 485.87 143.13 490.08 147.34 474.74 163.18 241.47 163.18 241.47 176.83 114.13 176.83 114.13 163.18 55.69 163.18" fill="#b5b5b6" stroke="#283331" stroke-miterlimit="10"/>
    <polygon points="114.13 176.83 114.13 414.73 209.64 414.73 209.64 387.07 145.97 387.07 145.97 176.83 114.13 176.83" fill="#c9caca" stroke="#283331" stroke-miterlimit="10"/>
    <g id="_矢印" data-name="矢印">
      <path d="m607.47,151.64l-.44-5.53-1.91,2.24-11.19-9.55-1.27,1.49,11.19,9.55-1.91,2.24,5.53-.44Z" fill="#040000"/>
      <path d="m591.97,138.41l.44,5.53,1.91-2.24,11.19,9.55,1.27-1.49-11.19-9.55,1.91-2.24-5.53.44Z" fill="#040000"/>
    </g>
    <g id="_矢印-2" data-name="矢印">
      <path d="m413.13,152.71l4-3.84-2.94-.06.29-14.71-1.96-.04-.29,14.71-2.94-.06,3.84,4Z" fill="#040000"/>
      <path d="m413.53,132.33l-4,3.84,2.94.06-.29,14.71,1.96.04.29-14.71,2.94.06-3.84-4Z" fill="#040000"/>
    </g>
    <g id="_矢印-3" data-name="矢印">
      <path d="m483.86,165.35l3.84,4,.06-2.94,14.71.29.04-1.96-14.71-.29.06-2.94-4,3.84Z" fill="#040000"/>
      <path d="m504.23,165.76l-3.84-4-.06,2.94-14.71-.29-.04,1.96,14.71.29-.06,2.94,4-3.84Z" fill="#040000"/>
    </g>
    <g id="_矢印-4" data-name="矢印">
      <path d="m199.45,402.27l3.84,4,.06-2.94,14.71.29.04-1.96-14.71-.29.06-2.94-4,3.84Z" fill="#040000"/>
      <path d="m219.82,402.67l-3.84-4-.06,2.94-14.71-.29-.04,1.96,14.71.29-.06,2.94,4-3.84Z" fill="#040000"/>
    </g>
    <g id="_矢印-5" data-name="矢印">
      <path d="m273.51,423.92l-4,3.84,2.94.06-.29,14.71,1.96.04.29-14.71,2.94.06-3.84-4Z" fill="#040000"/>
      <path d="m273.1,444.29l4-3.84-2.94-.06.29-14.71-1.96-.04-.29,14.71-2.94-.06,3.84,4Z" fill="#040000"/>
    </g>
    <g id="_矢印-6" data-name="矢印">
      <path d="m363.21,423.05l-4,3.84,2.94.06-.29,14.71,1.96.04.29-14.71,2.94.06-3.84-4Z" fill="#040000"/>
      <path d="m362.8,443.43l4-3.84-2.94-.06.29-14.71-1.96-.04-.29,14.71-2.94-.06,3.84,4Z" fill="#040000"/>
    </g>
    <g id="_矢印-7" data-name="矢印">
      <path d="m607.47,402.14l3.84,4,.06-2.94,14.71.29.04-1.96-14.71-.29.06-2.94-4,3.84Z" fill="#040000"/>
      <path d="m627.84,402.55l-3.84-4-.06,2.94-14.71-.29-.04,1.96,14.71.29-.06,2.94,4-3.84Z" fill="#040000"/>
    </g>
  </g>
  <g id="_トイレマーク" data-name="トイレマーク">
    <g>
      <path d="m400.1,417.94c1.77,0,3.21-1.44,3.21-3.21s-1.44-3.21-3.21-3.21-3.21,1.44-3.21,3.21,1.44,3.21,3.21,3.21Z" fill="#fff"/>
      <path d="m388.15,417.94c1.77,0,3.21-1.44,3.21-3.21s-1.44-3.21-3.21-3.21-3.21,1.44-3.21,3.21,1.44,3.21,3.21,3.21Z" fill="#fff"/>
      <path d="m404.97,430.4l-4.4-10.36c-.08-.19-.26-.31-.47-.31s-.39.12-.47.31l-4.4,10.36c-.27.62-.2,1.34.17,1.91.37.57,1.01.91,1.69.91h6.02c.68,0,1.31-.34,1.69-.91.37-.57.44-1.28.17-1.91Z" fill="#fff"/>
      <path d="m391.16,419.73h-6.02c-.68,0-1.31.34-1.69.91-.37.57-.44,1.28-.17,1.91l4.4,10.36c.08.19.26.31.47.31s.39-.12.47-.31l4.4-10.36c.27-.62.2-1.34-.17-1.91-.37-.57-1.01-.91-1.69-.91Z" fill="#fff"/>
    </g>
    <g>
      <path d="m395.89,79.65c1.77,0,3.21-1.44,3.21-3.21s-1.44-3.21-3.21-3.21-3.21,1.44-3.21,3.21,1.44,3.21,3.21,3.21Z" fill="#fff"/>
      <path d="m398.9,81.43h-6.02c-.68,0-1.31.34-1.69.91-.37.57-.44,1.28-.17,1.91l4.4,10.36c.08.19.26.31.47.31s.39-.12.47-.31l4.4-10.36c.27-.62.2-1.34-.17-1.91-.37-.57-1.01-.91-1.69-.91Z" fill="#fff"/>
    </g>
    <g>
      <path d="m377.64,79.65c1.77,0,3.21-1.44,3.21-3.21s-1.44-3.21-3.21-3.21-3.21,1.44-3.21,3.21,1.44,3.21,3.21,3.21Z" fill="#fff"/>
      <path d="m382.51,92.1l-4.4-10.36c-.08-.19-.26-.31-.47-.31s-.39.12-.47.31l-4.4,10.36c-.27.62-.2,1.34.17,1.91.37.57,1.01.91,1.69.91h6.02c.68,0,1.31-.34,1.69-.91.37-.57.44-1.28.17-1.91Z" fill="#fff"/>
    </g>
  </g>
  <g id="_階段" data-name="階段">
    <g>
      <polygon points="549 55.59 562.27 50.39 562.27 37.43 549 37.43 549 55.59" fill="#5c5a5a"/>
      <polyline points="562.27 68.54 562.27 37.43 549 37.43 549 68.98" fill="none" stroke="#283331" stroke-miterlimit="10"/>
      <line x1="549" y1="55.59" x2="562.27" y2="55.59" fill="none" stroke="#283331" stroke-miterlimit="10" stroke-width=".25"/>
      <line x1="549" y1="57.97" x2="562.27" y2="57.97" fill="none" stroke="#283331" stroke-miterlimit="10" stroke-width=".25"/>
      <line x1="549" y1="60.34" x2="562.27" y2="60.34" fill="none" stroke="#283331" stroke-miterlimit="10" stroke-width=".25"/>
      <line x1="549" y1="62.71" x2="562.27" y2="62.71" fill="none" stroke="#283331" stroke-miterlimit="10" stroke-width=".25"/>
      <line x1="549" y1="65.09" x2="562.27" y2="65.09" fill="none" stroke="#283331" stroke-miterlimit="10" stroke-width=".25"/>
      <line x1="549" y1="67.46" x2="562.27" y2="67.46" fill="none" stroke="#283331" stroke-miterlimit="10" stroke-width=".25"/>
    </g>
    <g>
      <polygon points="133.08 432.89 146.34 427.69 146.34 414.73 133.08 414.73 133.08 432.89" fill="#5c5a5a"/>
      <polyline points="146.34 445.84 146.34 414.73 133.08 414.73 133.08 446.28" fill="none" stroke="#283331" stroke-miterlimit="10"/>
      <line x1="133.08" y1="432.89" x2="146.34" y2="432.89" fill="none" stroke="#283331" stroke-miterlimit="10" stroke-width=".25"/>
      <line x1="133.08" y1="435.27" x2="146.34" y2="435.27" fill="none" stroke="#283331" stroke-miterlimit="10" stroke-width=".25"/>
      <line x1="133.08" y1="437.64" x2="146.34" y2="437.64" fill="none" stroke="#283331" stroke-miterlimit="10" stroke-width=".25"/>
      <line x1="133.08" y1="440.01" x2="146.34" y2="440.01" fill="none" stroke="#283331" stroke-miterlimit="10" stroke-width=".25"/>
      <line x1="133.08" y1="442.38" x2="146.34" y2="442.38" fill="none" stroke="#283331" stroke-miterlimit="10" stroke-width=".25"/>
      <line x1="133.08" y1="444.76" x2="146.34" y2="444.76" fill="none" stroke="#283331" stroke-miterlimit="10" stroke-width=".25"/>
    </g>
    <g>
      <polygon points="159.5 154.15 164.7 167.42 177.66 167.42 177.66 154.15 159.5 154.15" fill="#5c5a5a"/>
      <polyline points="146.55 167.42 177.66 167.42 177.66 154.15 146.11 154.15" fill="none" stroke="#283331" stroke-miterlimit="10"/>
      <line x1="159.5" y1="154.15" x2="159.5" y2="167.42" fill="none" stroke="#283331" stroke-miterlimit="10" stroke-width=".25"/>
      <line x1="157.12" y1="154.15" x2="157.12" y2="167.42" fill="none" stroke="#283331" stroke-miterlimit="10" stroke-width=".25"/>
      <line x1="154.75" y1="154.15" x2="154.75" y2="167.42" fill="none" stroke="#283331" stroke-miterlimit="10" stroke-width=".25"/>
      <line x1="152.38" y1="154.15" x2="152.38" y2="167.42" fill="none" stroke="#283331" stroke-miterlimit="10" stroke-width=".25"/>
      <line x1="150.01" y1="154.15" x2="150.01" y2="167.42" fill="none" stroke="#283331" stroke-miterlimit="10" stroke-width=".25"/>
      <line x1="147.63" y1="154.15" x2="147.63" y2="167.42" fill="none" stroke="#283331" stroke-miterlimit="10" stroke-width=".25"/>
    </g>
    <g>
      <polygon points="644.64 408.25 631.37 413.45 631.37 426.41 644.64 426.41 644.64 408.25" fill="#5c5a5a"/>
      <polyline points="631.37 395.3 631.37 426.41 644.64 426.41 644.64 394.86" fill="none" stroke="#283331" stroke-miterlimit="10"/>
      <line x1="644.64" y1="408.25" x2="631.37" y2="408.25" fill="none" stroke="#283331" stroke-miterlimit="10" stroke-width=".25"/>
      <line x1="644.64" y1="405.87" x2="631.37" y2="405.87" fill="none" stroke="#283331" stroke-miterlimit="10" stroke-width=".25"/>
      <line x1="644.64" y1="403.5" x2="631.37" y2="403.5" fill="none" stroke="#283331" stroke-miterlimit="10" stroke-width=".25"/>
      <line x1="644.64" y1="401.13" x2="631.37" y2="401.13" fill="none" stroke="#283331" stroke-miterlimit="10" stroke-width=".25"/>
      <line x1="644.64" y1="398.76" x2="631.37" y2="398.76" fill="none" stroke="#283331" stroke-miterlimit="10" stroke-width=".25"/>
      <line x1="644.64" y1="396.38" x2="631.37" y2="396.38" fill="none" stroke="#283331" stroke-miterlimit="10" stroke-width=".25"/>
    </g>
    <g>
      <polygon points="333.62 424.21 326.68 421.41 321.57 426.55 326.46 431.41 333.62 424.21" fill="#5c5a5a"/>
      <polyline points="333.84 414.21 321.57 426.55 326.46 431.41 338.9 418.9" fill="none" stroke="#283331" stroke-miterlimit="10"/>
      <line x1="333.62" y1="424.21" x2="328.73" y2="419.35" fill="none" stroke="#283331" stroke-miterlimit="10" stroke-width=".25"/>
      <line x1="334.56" y1="423.27" x2="329.67" y2="418.4" fill="none" stroke="#283331" stroke-miterlimit="10" stroke-width=".25"/>
      <line x1="335.49" y1="422.32" x2="330.61" y2="417.46" fill="none" stroke="#283331" stroke-miterlimit="10" stroke-width=".25"/>
      <line x1="336.43" y1="421.38" x2="331.54" y2="416.52" fill="none" stroke="#283331" stroke-miterlimit="10" stroke-width=".25"/>
      <line x1="337.37" y1="420.44" x2="332.48" y2="415.58" fill="none" stroke="#283331" stroke-miterlimit="10" stroke-width=".25"/>
      <line x1="338.3" y1="419.5" x2="333.41" y2="414.64" fill="none" stroke="#283331" stroke-miterlimit="10" stroke-width=".25"/>
    </g>
    <g>
      <polygon points="479.87 316.86 466.61 322.07 466.61 335.02 479.87 335.02 479.87 316.86" fill="#5c5a5a"/>
      <polyline points="466.61 303.92 466.61 335.02 479.87 335.02 479.87 303.48" fill="none" stroke="#283331" stroke-miterlimit="10"/>
      <line x1="479.87" y1="316.86" x2="466.61" y2="316.86" fill="none" stroke="#283331" stroke-miterlimit="10" stroke-width=".25"/>
      <line x1="479.87" y1="314.49" x2="466.61" y2="314.49" fill="none" stroke="#283331" stroke-miterlimit="10" stroke-width=".25"/>
      <line x1="479.87" y1="312.12" x2="466.61" y2="312.12" fill="none" stroke="#283331" stroke-miterlimit="10" stroke-width=".25"/>
      <line x1="479.87" y1="309.75" x2="466.61" y2="309.75" fill="none" stroke="#283331" stroke-miterlimit="10" stroke-width=".25"/>
      <line x1="479.87" y1="307.37" x2="466.61" y2="307.37" fill="none" stroke="#283331" stroke-miterlimit="10" stroke-width=".25"/>
      <line x1="479.87" y1="305" x2="466.61" y2="305" fill="none" stroke="#283331" stroke-miterlimit="10" stroke-width=".25"/>
    </g>
  </g>
  <g id="MLOC-available">
    <rect id="4-6_room107" data-name="4-6_room107" x="241.47" y="163.18" width="82.31" height="56.12" fill="#a8d7ef" stroke="#283331" stroke-miterlimit="10"/>
    <rect id="4-6_room109" data-name="4-6_room109" x="177.8" y="176.83" width="63.67" height="68.45" fill="#a8d7ef" stroke="#283331" stroke-miterlimit="10"/>
    <rect id="4-6_room102" data-name="4-6_room102" x="55.69" y="67.33" width="58.44" height="79.04" fill="#aaddf7" stroke="#283331" stroke-miterlimit="10"/>
    <rect id="4-6_room101" data-name="4-6_room101" x="55.69" y="163.18" width="58.44" height="82.1" fill="#aaddf7" stroke="#283331" stroke-miterlimit="10"/>
    <rect id="4-6_room103" data-name="4-6_room103" x="114.13" y="50.43" width="63.67" height="76.53" fill="#aaddf7" stroke="#283331" stroke-miterlimit="10"/>
    <rect id="4-6_room104" data-name="4-6_room104" x="177.8" y="50.43" width="63.67" height="76.53" fill="#aaddf7" stroke="#283331" stroke-miterlimit="10"/>
    <rect id="4-6_room105" data-name="4-6_room105" x="241.47" y="65.99" width="63.67" height="76.53" fill="#aaddf7" stroke="#283331" stroke-miterlimit="10"/>
  </g>
  <g id="MNOINT-words">
    <g>
      <path d="m409.79,41.04c.34.06.59.07,1.12.07h.96c.53,0,.71-.01,1.13-.06-.07.73-.1,1.3-.1,1.99v5.96c0,.61.02,1.01.1,1.49h-1.55c.07-.46.1-.89.1-1.49v-6.74h-.6c-.41,0-.74.02-1.15.07v-1.29Z" fill="#231815"/>
      <path d="m418.07,41.04c.34.06.59.07,1.12.07h.96c.53,0,.71-.01,1.13-.06-.07.73-.1,1.3-.1,1.99v5.96c0,.61.02,1.01.1,1.49h-1.55c.07-.46.1-.89.1-1.49v-6.74h-.6c-.41,0-.74.02-1.15.07v-1.29Z" fill="#231815"/>
      <path d="m426.2,49.75c-.35-.35-.6-.74-.76-1.16-.31-.85-.47-1.79-.47-2.77,0-1.26.29-2.58.71-3.29.62-1.03,1.64-1.6,2.91-1.6.97,0,1.79.31,2.4.92.35.35.61.74.76,1.16.31.84.47,1.8.47,2.78,0,1.46-.32,2.76-.86,3.51-.65.9-1.58,1.35-2.77,1.35-.97,0-1.78-.31-2.39-.92Zm.98-7.05c-.25.28-.42.59-.52.9-.22.67-.32,1.44-.32,2.24,0,1.06.23,2.17.54,2.7.38.65.96.97,1.71.97.56,0,1.06-.19,1.38-.53.25-.26.44-.6.55-.97.22-.7.32-1.42.32-2.22,0-.97-.2-2.07-.49-2.63-.37-.72-.95-1.08-1.77-1.08-.6,0-1.04.19-1.4.61Z" fill="#231815"/>
    </g>
    <g>
      <path d="m237.97,363.96c0,1.08-.35,1.31-1.98,1.31-.36,0-1.12-.03-1.65-.06-.14-.67-.21-.9-.42-1.33.76.11,1.41.15,1.9.15.67,0,.78-.04.78-.36v-2.54h-4.24c-.75,0-1.29.03-1.73.09v-1.4c.46.06,1.04.09,1.71.09h4.26v-.17c0-.3-.02-.58-.04-.85h.65c.82-.41,1.42-.81,2.16-1.41h-4.71c-.57,0-1.05.03-1.47.08v-1.29c.44.06.9.08,1.5.08h5.15c.55,0,.85-.02,1.12-.06l.72.78c-.21.2-.36.3-.4.34-1.16.99-2.02,1.59-3.3,2.29v.21h4.14c.69,0,1.31-.03,1.74-.09v1.4c-.43-.06-1-.09-1.75-.09h-4.12v2.83Zm-4.58-9.99c-.39-.71-.61-1.04-1.24-1.79l1.27-.39c.55.69.88,1.2,1.42,2.17h1.83c-.23-.66-.54-1.29-.99-2l1.32-.36c.57,1.05.75,1.47,1.06,2.35h1.42c.65-.81.96-1.33,1.35-2.31l1.35.43c-.39.69-.87,1.39-1.24,1.88h.87c.96,0,1.25-.01,1.8-.06-.05.38-.06.69-.06,1.24v1.28c0,.39.03.75.07,1.11h-1.38v-2.42h-10.09v2.42h-1.38c.04-.33.08-.69.08-1.11v-1.28c0-.55-.02-.87-.06-1.24.65.06.84.06,1.75.06h.84Z" fill="#231815"/>
      <path d="m248.53,355.91c-.58,1.21-1.26,2.27-2.04,3.13-.57-.61-.61-.64-1.11-.97,1.15-1.2,2.04-2.75,2.61-4.48.19-.63.29-.98.31-1.4l1.48.38q-.18.5-.28.86c-.08.22-.23.64-.45,1.25h2.7v-1.32c0-.71-.03-1.17-.1-1.71h1.64c-.06.5-.09.97-.09,1.71v1.32h3.35c.73,0,1.3-.03,1.9-.09v1.43c-.63-.06-1.18-.09-1.87-.09h-3.38v2.94h2.76c.75,0,1.27-.03,1.75-.09v1.42c-.47-.06-1.05-.09-1.74-.09h-2.77v3.46h3.84c.79,0,1.38-.03,1.95-.11v1.47c-.67-.07-1.14-.1-1.92-.1h-9.36c-.76,0-1.33.03-1.99.1v-1.47c.6.08,1.19.11,1.95.11h4.09v-3.46h-2.47c-.71,0-1.27.03-1.73.09v-1.42c.45.06.93.09,1.71.09h2.49v-2.94h-3.22Z" fill="#231815"/>
      <path d="m269.3,355.17v-1.35c0-.97,0-1.17-.06-1.53h1.62c-.04.36-.04.45-.06,1v1.88h1.08c.99,0,1.32-.02,1.88-.11v1.56c-.51-.06-.93-.08-1.84-.08h-1.12q-.04,2.02-.11,2.59c-.21,1.86-.85,3.13-2.14,4.21-.78.66-1.49,1.05-2.82,1.51-.24-.54-.4-.76-.94-1.32,1.35-.41,2.11-.78,2.86-1.44,1.02-.9,1.46-1.89,1.59-3.66.03-.4.05-.93.06-1.9h-4.16v1.77c0,.78.03,1.44.08,1.82h-1.68c.04-.48.08-1.07.08-1.77v-1.81h-1.07c-.88,0-1.23.01-1.84.08v-1.56c.62.09.92.11,1.88.11h1.04v-1.38c0-.53-.03-1.2-.08-1.52h1.7c-.06.44-.09.96-.09,1.5v1.4h4.17Z" fill="#231815"/>
      <path d="m279.65,357.69l-.25.97c-.25.99-.63,2.03-1.11,3-.43.9-.75,1.41-1.37,2.24-.58-.45-.79-.57-1.44-.84.97-1.11,1.56-2.15,2.14-3.84.29-.81.41-1.33.47-1.92l1.56.39Zm7.68-2.98c-.67-.23-1.17-.89-1.17-1.65,0-.96.76-1.74,1.72-1.74s1.74.78,1.74,1.74c0,.79-.53,1.46-1.25,1.67v1.47c-.72-.08-.96-.09-1.92-.09h-3.5v7.18c0,.99.02,1.26.08,1.8h-1.72c.06-.48.09-.92.09-1.81v-7.17h-3.41c-.94,0-1.29.01-1.89.09v-1.59c.57.08,1.04.11,1.91.11h3.39v-.9c0-.76-.03-1.16-.09-1.54h1.72c-.06.45-.08.85-.08,1.58v.87h4.37Zm-1.16,2.61c.11.48.23.88.54,1.68.67,1.79,1.26,2.85,2.21,4.02-.64.33-.84.46-1.41.92-1.15-1.74-1.81-3.17-2.56-5.55-.12-.39-.15-.46-.25-.69l1.48-.38Zm.71-4.26c0,.55.45,1.02,1,1.02s1.02-.47,1.02-1.02-.45-1.02-1.02-1.02-1,.46-1,1.02Z" fill="#231815"/>
      <path d="m290.9,357.53c.55.08,1.2.11,2.31.11h8.12c1.29,0,1.65-.02,2.23-.09v1.74c-.66-.06-1.14-.08-2.25-.08h-8.08c-1.26,0-1.71.02-2.33.08v-1.75Z" fill="#231815"/>
      <path d="m308.89,364.74c.07-.64.09-1.02.09-1.92v-8.92c0-1.04-.02-1.38-.09-1.8h1.77c-.06.48-.09.99-.09,1.83v2.54c2.14.75,4.24,1.74,6.75,3.16l-.87,1.49c-.67-.46-1.07-.71-1.86-1.14-1.14-.62-2.77-1.42-3.58-1.77q-.25-.1-.48-.25,0,.21.03.58c0,.13.02.6.02.75v3.54c0,.79.03,1.37.09,1.92h-1.77Z" fill="#231815"/>
      <path d="m324.11,353.82c0-.84-.01-.99-.08-1.48h1.74c-.08.5-.09.78-.09,1.48v1.92l5.71-.72c.51-.06.73-.12,1.03-.24l.96.84c-.17.22-.18.24-.39.69-.88,1.8-1.9,2.99-3.64,4.25-.5-.54-.67-.69-1.26-1,1.12-.65,2.1-1.5,2.73-2.43.21-.28.25-.36.46-.75q-.38.08-.79.14l-4.83.64v3.41c0,1.33.04,1.62.35,1.86.27.24.85.33,2.01.33,1.63,0,3.27-.21,4.48-.57l.08,1.69c-.4.02-.52.03-.9.08-1.66.18-2.64.25-3.66.25-1.96,0-2.85-.21-3.38-.78-.45-.51-.54-.93-.54-2.61v-3.48l-1.42.2c-1.16.17-1.19.17-1.73.3l-.18-1.6c.13.01.24.01.3.01.33,0,.83-.04,1.46-.12l1.58-.21v-2.08Z" fill="#231815"/>
      <path d="m336.65,362.55c1.21-.05,3.03-.51,4.41-1.12,1.88-.83,3.28-1.96,4.47-3.65.67-.99,1.11-1.8,1.57-3.03.5.61.69.79,1.31,1.23-1.25,2.71-2.66,4.46-4.68,5.82-1.52,1.03-3.38,1.77-5.67,2.25-.57.12-.63.14-.95.24l-.46-1.74Zm1.14-9.3c1.71,1.06,2.66,1.78,3.78,2.86l-1.08,1.33c-1.16-1.23-2.37-2.2-3.73-3l1.03-1.2Z" fill="#231815"/>
      <path d="m357.41,352.08q-.17.27-.48.92c-.2.4-.3.6-.41.75.09,0,.3-.02.62-.03l3.57-.04c.51,0,.81-.04,1.14-.15l.87.87c-.18.24-.21.33-.45.99-.51,1.38-1.3,3.09-1.96,4.14-1.51,2.42-3.57,4.12-6.75,5.59-.39-.66-.56-.88-1.04-1.3,1.29-.51,2.05-.92,3-1.54,1.09-.74,1.75-1.31,2.5-2.21-1.07-.93-2.04-1.63-3.2-2.26l.98-1.1c1.26.72,1.96,1.2,3.13,2.15.75-1.17,1.36-2.45,1.81-3.81l-4.88.05c-1.05,1.6-2.07,2.76-3.52,3.96-.42-.46-.6-.61-1.26-1,1.62-1.2,2.85-2.58,3.79-4.29.45-.81.75-1.52.87-2.06l1.65.39Z" fill="#231815"/>
      <path d="m365.9,357.53c.55.08,1.2.11,2.31.11h8.12c1.29,0,1.65-.02,2.23-.09v1.74c-.66-.06-1.14-.08-2.25-.08h-8.08c-1.26,0-1.71.02-2.33.08v-1.75Z" fill="#231815"/>
    </g>
    <g>
      <path d="m556.46,124.36c-.41-.06-.77-.08-1.46-.08h-3.66c-.67,0-.95.01-1.44.04.07-.47.1-.86.1-1.52v-6.45c0-.58-.02-.95-.1-1.48.43.02.77.04,1.44.04h3.54c.59,0,1.08-.02,1.46-.08v1.34c-.43-.06-.8-.08-1.46-.08h-3.55v2.72h3.01c.6,0,1-.02,1.47-.08v1.34c-.44-.06-.77-.08-1.47-.08h-3.02v3.12h3.68c.66,0,.98-.02,1.46-.08v1.36Z" fill="#231815"/>
      <path d="m561.31,122.16c.05.16.14.46.29.89.17-.59.18-.6.28-.89l2.09-6.01c.2-.59.29-.88.34-1.25h1.68c-.18.32-.3.62-.6,1.42l-2.57,6.79c-.2.54-.31.9-.37,1.18h-1.69c-.06-.25-.17-.6-.38-1.18l-2.58-6.79c-.26-.7-.44-1.12-.6-1.42h1.68c.07.38.18.82.34,1.25l2.11,6.01Z" fill="#231815"/>
    </g>
    <g>
      <path d="m510.23,209.92c.34.06.59.07,1.12.07h.96c.53,0,.71-.01,1.13-.06-.07.73-.1,1.3-.1,1.99v5.96c0,.61.02,1.01.1,1.49h-1.55c.07-.46.1-.89.1-1.49v-6.74h-.6c-.41,0-.74.02-1.15.07v-1.29Z" fill="#231815"/>
      <path d="m518.76,219.37c-.88,0-1.06.01-1.46.06.08-.74.17-1.13.34-1.56.31-.82.84-1.55,1.61-2.23.41-.36.78-.64,1.92-1.4,1.14-.77,1.48-1.21,1.48-1.94,0-.83-.68-1.34-1.76-1.34-.74,0-1.3.25-1.63.74-.2.31-.3.58-.38,1.15l-1.43-.19c.16-.85.37-1.34.8-1.85.56-.66,1.46-1.01,2.6-1.01,1.99,0,3.23.97,3.23,2.53,0,.91-.35,1.55-1.21,2.21-.37.28-.54.4-1.61,1.12-1.34.9-1.94,1.58-2.25,2.52h3.57c.7,0,1.22-.02,1.63-.08v1.35c-.53-.05-.98-.07-1.68-.07h-3.75Z" fill="#231815"/>
      <path d="m526.65,218.62c-.35-.35-.6-.74-.76-1.16-.31-.85-.47-1.79-.47-2.77,0-1.26.29-2.58.71-3.29.62-1.03,1.64-1.6,2.91-1.6.97,0,1.79.31,2.4.92.35.35.61.74.76,1.16.31.84.47,1.8.47,2.78,0,1.46-.32,2.76-.86,3.51-.65.9-1.58,1.35-2.77,1.35-.97,0-1.78-.31-2.39-.92Zm.98-7.05c-.25.28-.42.59-.52.9-.22.67-.32,1.44-.32,2.24,0,1.06.23,2.17.54,2.7.38.65.96.97,1.71.97.56,0,1.06-.19,1.38-.53.25-.26.44-.6.55-.97.22-.7.32-1.42.32-2.22,0-.97-.2-2.07-.49-2.63-.37-.72-.95-1.08-1.77-1.08-.6,0-1.04.19-1.4.61Z" fill="#231815"/>
    </g>
    <g>
      <path d="m51.59,393.39c-.14-.68-.36-1.5-.58-2.08l-.9-2.34h-6.64l-.9,2.34c-.34.86-.46,1.32-.6,2.08h-2.8c.34-.6.64-1.26,1.06-2.34l4.44-11.34c.38-.98.54-1.46.64-1.96h2.88c.1.44.2.74.68,1.96l4.46,11.34c.5,1.24.76,1.84,1.04,2.34h-2.78Zm-4.42-12.54q-.08-.2-.4-1.2-.34,1.04-.4,1.2l-2.28,6.2h5.38l-2.3-6.2Z" fill="#231815"/>
      <path d="m61.73,389.85c.08.26.24.76.48,1.48.28-.98.3-1,.46-1.48l3.48-10.02c.34-.98.48-1.46.56-2.08h2.8c-.3.54-.5,1.04-1,2.36l-4.28,11.32c-.34.9-.52,1.5-.62,1.96h-2.82c-.1-.42-.28-1-.64-1.96l-4.3-11.32c-.44-1.16-.74-1.86-1-2.36h2.8c.12.64.3,1.36.56,2.08l3.52,10.02Z" fill="#231815"/>
      <path d="m88.29,381.46h3.02c.8,0,1.26-.02,1.78-.08-.06.5-.08.96-.08,1.84v3.42c0,.88.02,1.42.08,1.92-.46-.08-1.02-.1-1.88-.1h-2.06c.64.78,1.02,1.18,1.62,1.68,1.06.9,2.24,1.6,3.64,2.18-.5.6-.7.9-1.08,1.7-2.3-1.26-3.78-2.6-5.14-4.64.04.34.04.44.06.76,0,.18.02.3.02.38,0,.18.02.32.02.36v2.18c0,.88.02,1.26.12,1.86h-1.88c.1-.58.14-.96.14-1.84v-2.18c0-.18,0-.3.02-.64l.04-.82c-1.36,2.04-2.72,3.34-4.92,4.68-.38-.76-.62-1.1-1.08-1.6,2.04-.94,3.82-2.38,5.02-4.06h-1.72c-.82,0-1.36.02-1.78.1.06-.54.1-1.06.1-1.9v-3.46c0-.82-.04-1.32-.1-1.82.52.06,1.04.08,1.84.08h2.58v-1.32h-3.12c-.74,0-1.28.02-1.76.08v1.66c-.34-.04-.72-.06-1.14-.06h-.54c.54,1.46,1.2,2.6,2.16,3.64-.42.52-.62.84-.92,1.52-.58-.86-.84-1.38-1.46-2.94.06.78.12,2.32.12,2.98v5.52c0,1.06.02,1.8.12,2.4h-1.92c.08-.62.12-1.36.12-2.4v-4.86c0-.62.04-1.86.1-2.94-.62,2.34-1.26,3.82-2.32,5.34-.38-.94-.54-1.24-.9-1.8,1.3-1.66,2.28-3.86,2.92-6.46h-1.06c-.6,0-1.02.02-1.36.08v-1.76c.34.06.68.08,1.36.08h1.24v-1.66c0-1.06-.02-1.58-.1-2.06h1.9c-.08.5-.1,1.1-.1,2.04v1.68h.62c.42,0,.62-.02.94-.04v-1.76c.58.08,1.12.12,2.02.12h3.08v-.34c0-.74-.04-1.14-.14-1.6h1.86c-.08.44-.1.82-.1,1.58v.36h3.62c.86,0,1.38-.04,1.98-.12v1.82c-.44-.06-1.12-.1-1.96-.1h-3.64v1.32Zm-4.3,1.46v1.34h2.68v-1.34h-2.68Zm0,2.72v1.4h2.68v-1.4h-2.68Zm4.3-1.38h3.06v-1.34h-3.06v1.34Zm0,2.78h3.08v-1.4h-3.08v1.4Z" fill="#231815"/>
    </g>
    <g>
      <path d="m243.35,68.25c.34.06.59.07,1.12.07h.96c.53,0,.71-.01,1.13-.06-.07.73-.1,1.3-.1,1.99v5.96c0,.61.02,1.01.1,1.49h-1.55c.07-.46.1-.89.1-1.49v-6.74h-.6c-.41,0-.74.02-1.15.07v-1.29Z" fill="#231815"/>
      <path d="m251.49,76.95c-.35-.35-.6-.74-.76-1.16-.31-.85-.47-1.79-.47-2.77,0-1.26.29-2.58.71-3.29.62-1.03,1.64-1.6,2.91-1.6.97,0,1.79.31,2.4.92.35.35.61.74.76,1.16.31.84.47,1.8.47,2.78,0,1.46-.32,2.76-.86,3.51-.65.9-1.58,1.35-2.77,1.35-.97,0-1.78-.31-2.39-.92Zm.98-7.05c-.25.28-.42.59-.52.9-.22.67-.32,1.44-.32,2.24,0,1.06.23,2.17.54,2.7.38.65.96.97,1.71.97.56,0,1.06-.19,1.38-.53.25-.26.44-.6.55-.97.22-.7.32-1.42.32-2.22,0-.97-.2-2.07-.49-2.63-.37-.72-.95-1.08-1.77-1.08-.6,0-1.04.19-1.4.61Z" fill="#231815"/>
      <path d="m260.44,71.76c-.01.12-.04.3-.07.52.59-.53,1.24-.77,2.1-.77s1.68.3,2.24.86c.55.55.83,1.27.83,2.19,0,2.05-1.33,3.32-3.47,3.32-1.08,0-1.93-.31-2.55-.95-.34-.35-.5-.62-.76-1.25l1.39-.31c.12.35.19.5.36.7.36.42.91.65,1.57.65,1.26,0,2.09-.84,2.09-2.11s-.77-2.03-2.04-2.03c-.59,0-1.16.23-1.56.62-.17.16-.23.26-.34.52l-1.26-.12c.11-.7.13-.83.17-1.24l.26-2.88c.04-.29.05-.55.05-.74v-.22c-.01-.06-.01-.16-.01-.26.36.04.62.05,1.27.05h2.76c.77,0,1.03-.01,1.56-.1v1.33c-.5-.07-.92-.1-1.56-.1h-2.81l-.23,2.3Z" fill="#231815"/>
    </g>
    <g>
      <path d="m179.68,52.82c.34.06.59.07,1.12.07h.96c.53,0,.71-.01,1.13-.06-.07.73-.1,1.3-.1,1.99v5.96c0,.61.02,1.01.1,1.49h-1.55c.07-.46.1-.89.1-1.49v-6.74h-.6c-.41,0-.74.02-1.15.07v-1.29Z" fill="#231815"/>
      <path d="m187.82,61.53c-.35-.35-.6-.74-.76-1.16-.31-.85-.47-1.79-.47-2.77,0-1.26.29-2.58.71-3.29.62-1.03,1.64-1.6,2.91-1.6.97,0,1.79.31,2.4.92.35.35.61.74.76,1.16.31.84.47,1.8.47,2.78,0,1.46-.32,2.76-.86,3.51-.65.9-1.58,1.35-2.77,1.35-.97,0-1.78-.31-2.39-.92Zm.98-7.05c-.25.28-.42.59-.52.9-.22.67-.32,1.44-.32,2.24,0,1.06.23,2.17.54,2.7.38.65.96.97,1.71.97.56,0,1.06-.19,1.38-.53.25-.26.44-.6.55-.97.22-.7.32-1.42.32-2.22,0-.97-.2-2.07-.49-2.63-.37-.72-.95-1.08-1.77-1.08-.6,0-1.04.19-1.4.61Z" fill="#231815"/>
      <path d="m194.66,58.8q.29-.31.89-1.03l2.91-3.6c.48-.59.67-.85.95-1.28h1.34c-.07.7-.08,1.1-.08,2.03v3.93h.44c.49,0,.78-.02,1.22-.08v1.32c-.46-.06-.73-.08-1.22-.08h-.44v.92c0,.6.02.91.1,1.34h-1.46c.08-.41.11-.78.11-1.36v-.91h-3.27c-.7,0-1.04.01-1.48.05v-1.25Zm4.75-2.64c0-.6.01-.98.06-1.51-.24.35-.42.58-.83,1.1l-2.49,3.11h3.26v-2.7Z" fill="#231815"/>
    </g>
    <g>
      <path d="m179.68,179.74c.34.06.59.07,1.12.07h.96c.53,0,.71-.01,1.13-.06-.07.73-.1,1.3-.1,1.99v5.96c0,.61.02,1.01.1,1.49h-1.55c.07-.46.1-.89.1-1.49v-6.74h-.6c-.41,0-.74.02-1.15.07v-1.29Z" fill="#231815"/>
      <path d="m187.82,188.45c-.35-.35-.6-.74-.76-1.16-.31-.85-.47-1.79-.47-2.77,0-1.26.29-2.58.71-3.29.62-1.03,1.64-1.6,2.91-1.6.97,0,1.79.31,2.4.92.35.35.61.74.76,1.16.31.84.47,1.8.47,2.78,0,1.46-.32,2.76-.86,3.51-.65.9-1.58,1.35-2.77,1.35-.97,0-1.78-.31-2.39-.92Zm.98-7.05c-.25.28-.42.59-.52.9-.22.67-.32,1.44-.32,2.24,0,1.06.23,2.17.54,2.7.38.65.96.97,1.71.97.56,0,1.06-.19,1.38-.53.25-.26.44-.6.55-.97.22-.7.32-1.42.32-2.22,0-.97-.2-2.07-.49-2.63-.37-.72-.95-1.08-1.77-1.08-.6,0-1.04.19-1.4.61Z" fill="#231815"/>
      <path d="m196.5,187.01c.13.36.22.52.38.71.31.35.82.53,1.45.53.82,0,1.39-.34,1.82-1.06.23-.38.4-.92.48-1.51.04-.25.06-.56.08-1.08-.2.34-.31.47-.58.68-.56.46-1.16.66-2,.66-.98,0-1.79-.29-2.34-.84-.54-.54-.84-1.34-.84-2.25,0-1.94,1.38-3.24,3.48-3.24,1.25,0,2.31.59,2.89,1.62.4.67.59,1.68.59,2.99,0,1.87-.41,3.32-1.15,4.14-.64.68-1.42,1-2.53,1-.89,0-1.58-.2-2.13-.62-.42-.32-.66-.64-1-1.33l1.39-.38Zm1.86-2.16c1.19,0,2.11-.9,2.11-2.06s-.9-2.06-2.11-2.06c-.59,0-1.12.22-1.5.6-.38.38-.56.88-.56,1.49,0,1.28.76,2.04,2.06,2.04Z" fill="#231815"/>
    </g>
    <g>
      <path d="m57.57,165.3c.34.06.59.07,1.12.07h.96c.53,0,.71-.01,1.13-.06-.07.73-.1,1.3-.1,1.99v5.96c0,.61.02,1.01.1,1.49h-1.55c.07-.46.1-.89.1-1.49v-6.74h-.6c-.41,0-.74.02-1.15.07v-1.29Z" fill="#231815"/>
      <path d="m65.7,174.01c-.35-.35-.6-.74-.76-1.16-.31-.85-.47-1.79-.47-2.77,0-1.26.29-2.58.71-3.29.62-1.03,1.64-1.6,2.91-1.6.97,0,1.79.31,2.4.92.35.35.61.74.76,1.16.31.84.47,1.8.47,2.78,0,1.46-.32,2.76-.86,3.51-.65.9-1.58,1.35-2.77,1.35-.97,0-1.78-.31-2.39-.92Zm.98-7.05c-.25.28-.42.59-.52.9-.22.67-.32,1.44-.32,2.24,0,1.06.23,2.17.54,2.7.38.65.96.97,1.71.97.56,0,1.06-.19,1.38-.53.25-.26.44-.6.55-.97.22-.7.32-1.42.32-2.22,0-.97-.2-2.07-.49-2.63-.37-.72-.95-1.08-1.77-1.08-.6,0-1.04.19-1.4.61Z" fill="#231815"/>
      <path d="m74.13,165.3c.34.06.59.07,1.12.07h.96c.53,0,.71-.01,1.13-.06-.07.73-.1,1.3-.1,1.99v5.96c0,.61.02,1.01.1,1.49h-1.55c.07-.46.1-.89.1-1.49v-6.74h-.6c-.41,0-.74.02-1.15.07v-1.29Z" fill="#231815"/>
    </g>
    <g>
      <path d="m57.57,68.39c.34.06.59.07,1.12.07h.96c.53,0,.71-.01,1.13-.06-.07.73-.1,1.3-.1,1.99v5.96c0,.61.02,1.01.1,1.49h-1.55c.07-.46.1-.89.1-1.49v-6.74h-.6c-.41,0-.74.02-1.15.07v-1.29Z" fill="#231815"/>
      <path d="m65.7,77.1c-.35-.35-.6-.74-.76-1.16-.31-.85-.47-1.79-.47-2.77,0-1.26.29-2.58.71-3.29.62-1.03,1.64-1.6,2.91-1.6.97,0,1.79.31,2.4.92.35.35.61.74.76,1.16.31.84.47,1.8.47,2.78,0,1.46-.32,2.76-.86,3.51-.65.9-1.58,1.35-2.77,1.35-.97,0-1.78-.31-2.39-.92Zm.98-7.05c-.25.28-.42.59-.52.9-.22.67-.32,1.44-.32,2.24,0,1.06.23,2.17.54,2.7.38.65.96.97,1.71.97.56,0,1.06-.19,1.38-.53.25-.26.44-.6.55-.97.22-.7.32-1.42.32-2.22,0-.97-.2-2.07-.49-2.63-.37-.72-.95-1.08-1.77-1.08-.6,0-1.04.19-1.4.61Z" fill="#231815"/>
      <path d="m74.38,77.84c-.88,0-1.06.01-1.46.06.08-.74.17-1.13.34-1.56.31-.82.84-1.55,1.61-2.23.41-.36.78-.64,1.92-1.4,1.14-.77,1.48-1.21,1.48-1.94,0-.83-.68-1.34-1.76-1.34-.74,0-1.3.25-1.63.74-.2.31-.3.58-.38,1.15l-1.43-.19c.16-.85.37-1.34.8-1.85.56-.66,1.46-1.01,2.6-1.01,1.99,0,3.23.97,3.23,2.53,0,.91-.35,1.55-1.21,2.21-.37.28-.54.4-1.61,1.12-1.34.9-1.94,1.58-2.25,2.52h3.57c.7,0,1.22-.02,1.63-.08v1.35c-.53-.05-.98-.07-1.68-.07h-3.75Z" fill="#231815"/>
    </g>
    <g>
      <path d="m116.01,52.96c.34.06.59.07,1.12.07h.96c.53,0,.71-.01,1.13-.06-.07.73-.1,1.3-.1,1.99v5.96c0,.61.02,1.01.1,1.49h-1.55c.07-.46.1-.89.1-1.49v-6.74h-.6c-.41,0-.74.02-1.15.07v-1.29Z" fill="#231815"/>
      <path d="m124.15,61.67c-.35-.35-.6-.74-.76-1.16-.31-.85-.47-1.79-.47-2.77,0-1.26.29-2.58.71-3.29.62-1.03,1.64-1.6,2.91-1.6.97,0,1.79.31,2.4.92.35.35.61.74.76,1.16.31.84.47,1.8.47,2.78,0,1.46-.32,2.76-.86,3.51-.65.9-1.58,1.35-2.77,1.35-.97,0-1.78-.31-2.39-.92Zm.98-7.05c-.25.28-.42.59-.52.9-.22.67-.32,1.44-.32,2.24,0,1.06.23,2.17.54,2.7.38.65.96.97,1.71.97.56,0,1.06-.19,1.38-.53.25-.26.44-.6.55-.97.22-.7.32-1.42.32-2.22,0-.97-.2-2.07-.49-2.63-.37-.72-.95-1.08-1.77-1.08-.6,0-1.04.19-1.4.61Z" fill="#231815"/>
      <path d="m132.63,59.97c.16.55.3.78.63,1.03.41.3.9.46,1.5.46,1.26,0,2.07-.65,2.07-1.67,0-1.08-.78-1.67-2.21-1.67-.46,0-.78.01-1.16.06v-1.27c.29.05.66.07.96.07.61,0,1.16-.12,1.46-.32.44-.29.67-.73.67-1.27,0-.92-.64-1.42-1.81-1.42-.66,0-1.14.2-1.45.6-.17.22-.24.38-.35.78l-1.43-.26c.2-.67.4-1.01.78-1.38.59-.58,1.45-.88,2.53-.88,1.9,0,3.12.97,3.12,2.47,0,.73-.31,1.38-.84,1.76-.29.22-.54.31-1.14.46.83.11,1.28.31,1.7.77.4.43.58.95.58,1.66,0,.65-.26,1.3-.71,1.73-.62.61-1.58.94-2.78.94-1.32,0-2.27-.35-2.92-1.07-.29-.32-.43-.62-.65-1.27l1.43-.3Z" fill="#231815"/>
    </g>
    <g>
      <path d="m244.73,165.3c.34.06.59.07,1.12.07h.96c.53,0,.71-.01,1.13-.06-.07.73-.1,1.3-.1,1.99v5.96c0,.61.02,1.01.1,1.49h-1.55c.07-.46.1-.89.1-1.49v-6.74h-.6c-.41,0-.74.02-1.15.07v-1.29Z" fill="#231815"/>
      <path d="m252.87,174.01c-.35-.35-.6-.74-.76-1.16-.31-.85-.47-1.79-.47-2.77,0-1.26.29-2.58.71-3.29.62-1.03,1.64-1.6,2.91-1.6.97,0,1.79.31,2.4.92.35.35.61.74.76,1.16.31.84.47,1.8.47,2.78,0,1.46-.32,2.76-.86,3.51-.65.9-1.58,1.35-2.77,1.35-.97,0-1.78-.31-2.39-.92Zm.98-7.05c-.25.28-.42.59-.52.9-.22.67-.32,1.44-.32,2.24,0,1.06.23,2.17.54,2.7.38.65.96.97,1.71.97.56,0,1.06-.19,1.38-.53.25-.26.44-.6.55-.97.22-.7.32-1.42.32-2.22,0-.97-.2-2.07-.49-2.63-.37-.72-.95-1.08-1.77-1.08-.6,0-1.04.19-1.4.61Z" fill="#231815"/>
      <path d="m266.93,166.49c-.31.29-.59.66-1.1,1.5-.95,1.54-1.46,2.67-1.89,4.19-.24.86-.36,1.42-.52,2.58h-1.59c.42-2.22.74-3.26,1.45-4.73.6-1.24,1.12-2.07,2.12-3.45h-3.79c-.66,0-1,.02-1.47.08v-1.37c.52.06.88.08,1.54.08h3.73c.83,0,1.12-.01,1.54-.06v1.18Z" fill="#231815"/>
    </g>
    <g>
      <path d="m307.21,68.25c.34.06.59.07,1.12.07h.96c.53,0,.71-.01,1.13-.06-.07.73-.1,1.3-.1,1.99v5.96c0,.61.02,1.01.1,1.49h-1.55c.07-.46.1-.89.1-1.49v-6.74h-.6c-.41,0-.74.02-1.15.07v-1.29Z" fill="#231815"/>
      <path d="m315.35,76.95c-.35-.35-.6-.74-.76-1.16-.31-.85-.47-1.79-.47-2.77,0-1.26.29-2.58.71-3.29.62-1.03,1.64-1.6,2.91-1.6.97,0,1.79.31,2.4.92.35.35.61.74.76,1.16.31.84.47,1.8.47,2.78,0,1.46-.32,2.76-.86,3.51-.65.9-1.58,1.35-2.77,1.35-.97,0-1.78-.31-2.39-.92Zm.98-7.05c-.25.28-.42.59-.52.9-.22.67-.32,1.44-.32,2.24,0,1.06.23,2.17.54,2.7.38.65.96.97,1.71.97.56,0,1.06-.19,1.38-.53.25-.26.44-.6.55-.97.22-.7.32-1.42.32-2.22,0-.97-.2-2.07-.49-2.63-.37-.72-.95-1.08-1.77-1.08-.6,0-1.04.19-1.4.61Z" fill="#231815"/>
      <path d="m327.99,70.51c-.34-.89-.84-1.26-1.71-1.26s-1.55.46-1.96,1.34c-.3.66-.43,1.25-.49,2.3.24-.36.37-.52.65-.72.54-.42,1.12-.6,1.89-.6,1.98,0,3.18,1.19,3.18,3.14s-1.37,3.17-3.35,3.17c-.92,0-1.77-.29-2.33-.78-.85-.74-1.32-2.16-1.32-3.93,0-1.46.36-2.84.95-3.65.7-.94,1.59-1.38,2.79-1.38.96,0,1.74.29,2.29.84.32.32.5.6.74,1.18l-1.34.35Zm-3.93,4.2c0,1.19.9,2.05,2.11,2.05.76,0,1.4-.34,1.76-.9.18-.29.29-.71.29-1.15,0-1.28-.74-2.04-2-2.04s-2.16.88-2.16,2.04Z" fill="#231815"/>
    </g>
    <g>
      <path d="m332.59,244.87c0-1.04-.04-1.48-.14-2.14h2.16c-.1.6-.12,1.14-.12,2.08v1.48h5.6c.78,0,1.2-.02,1.7-.08-.06.56-.08.96-.08,1.68v5.86c0,.78.02,1.3.1,1.9h-1.98v-1.26h-5.34v4.3c0,1.18.02,1.74.14,2.4h-2.18c.1-.7.14-1.28.14-2.4v-4.3h-5.08v1.26h-2c.08-.68.12-1.12.12-1.9v-5.86c0-.7-.02-1.1-.1-1.68.54.06.96.08,1.68.08h5.38v-1.42Zm-5.08,3.16v4.62h5.08v-4.62h-5.08Zm12.32,4.62v-4.62h-5.34v4.62h5.34Z" fill="#231815"/>
      <path d="m353.01,243.87c0-.54-.02-.86-.1-1.2h2c-.08.32-.1.66-.1,1.22v.48h5.4c.98,0,1.68-.04,2.28-.12v1.8c-.56-.08-1.04-.1-1.9-.1h-13.14c-.02,5.82-.16,8.32-.64,10.76-.34,1.68-.72,2.76-1.48,4.28-.6-.78-.64-.8-1.38-1.42.64-1.22.94-2.16,1.26-3.88.28-1.58.48-4.52.48-7.32,0-.06,0-.56-.02-2.4,0-.94,0-1.2-.06-1.7.72.08,1.38.1,2.26.1h5.14v-.5Zm-3.8,9.86c.2.7.64,1.6,1.16,2.3.48-.9.66-1.4,1-2.92h-1.54c-.6,0-.8,0-1.14.04l-.6-1.08c1.18-1.06,1.98-1.98,2.88-3.38h-1.44c-.54,0-.8.02-1.22.08v-1.68c.4.08.7.1,1.34.1h1.38c.78,0,1.08-.02,1.34-.06l.86,1q-.24.32-.52.74c-.6.9-1.18,1.62-2.24,2.78h1.68c.56,0,.82-.02,1.1-.06-.08.48-.14.72-.14.74-.34,1.96-.88,3.6-1.6,4.9,1.58,1.28,3.44,1.74,6.86,1.74,1.48,0,2.82-.06,4.6-.24-.26.64-.4,1.16-.54,1.96-2.04.04-2.16.04-2.9.04-4.8,0-6.72-.48-8.88-2.22-.82,1.02-1.76,1.84-2.94,2.58-.34-.56-.66-.94-1.14-1.42,1.28-.72,1.98-1.28,2.9-2.32-.5-.64-.68-.88-1.24-1.92-.24-.44-.34-.62-.5-.86l1.48-.84Zm7.64-4.72c-.96.16-1.44.24-2.74.4-.18-.66-.28-.9-.64-1.52,2.86-.12,5.84-.72,7.3-1.48l.94,1.44c-1.04.34-2.06.6-3.16.84v2.64h2.22c.7,0,1.2-.02,1.62-.1v1.78c-.46-.06-.84-.08-1.6-.08h-2.24v2.74h1.78c.74,0,1.04-.02,1.46-.08v1.7c-.52-.06-.74-.08-1.48-.08h-5.02c-.68,0-.96.02-1.44.08v-1.68c.52.06.6.06,1.48.06h1.52v-2.74h-1.76c-.78,0-1.08.02-1.54.08v-1.76c.4.06.74.08,1.58.08h1.72v-2.32Z" fill="#231815"/>
    </g>
    <g>
      <path d="m60.65,104.82c.76.43,1.17.72,1.97,1.34l-.69,1c-.71-.65-1.2-1-1.96-1.46l.68-.88Zm1.96,3.76c-.38,1.01-.63,1.6-1.07,2.51q-.2.41-.34.75-.08.18-.13.27l-1.06-.92c.38-.42,1.06-1.78,1.62-3.3l.98.69Zm-1.42-6.45c.77.47,1.2.79,1.89,1.41l-.75.96c-.6-.59-1.14-1.03-1.89-1.52l.75-.85Zm1.4,8.47c.18.01.26.01.37.01.18,0,.44-.01.81-.03.56-.98,1.01-1.98,1.36-3.04h-1.19c-.45,0-.84.02-1.19.07v-1.23c.32.04.68.07,1.2.07h1.72v-1.65h-1.32c-.43,0-.8.02-1.16.06v-1.21c.29.04.66.07,1.17.07h1.31v-.48c0-.59-.01-.87-.07-1.16h1.33c-.05.33-.07.58-.07,1.16v.48h1.76c.47,0,.79-.02,1.12-.07v1.21c-.31-.04-.6-.06-1.11-.06h-1.77v1.65h2.11c.46,0,.81-.02,1.16-.07v1.23c-.32-.04-.71-.07-1.14-.07h-2.59q-.07.2-.22.6c-.22.58-.53,1.27-.97,2.13l-.1.21c1.49-.13,2.21-.22,2.93-.36-.34-.57-.55-.87-1.08-1.56l.98-.51c.92,1.2,1.19,1.61,2.22,3.39l-1.08.65c-.25-.51-.33-.67-.51-1.01-1.62.31-2.01.36-3.98.57-1.2.12-1.43.15-1.78.22l-.24-1.28Z" fill="#231815"/>
      <path d="m72.51,109.2c-.57,0-1,.02-1.34.07v-1.22c.37.05.81.08,1.33.08h2.99v-.08c0-.22-.01-.42-.03-.61h.47c.47-.24.84-.48,1.3-.89h-3.03c-.45,0-.75.01-1.1.04v-1.1c.33.04.64.06,1.11.06h3.64c.43,0,.64-.01.84-.04l.6.67q-.19.15-.4.33c-.78.67-1.34,1.08-2.2,1.61h0s2.87.01,2.87.01c.54,0,1.02-.02,1.35-.08v1.22c-.32-.04-.79-.07-1.36-.07h-2.86v1.93c0,.39-.03.54-.14.69-.19.27-.56.36-1.55.36-.14,0-.51-.01-1.08-.04-.12-.58-.18-.77-.36-1.17.53.08,1.02.11,1.36.11.48,0,.56-.03.56-.25v-1.63h-2.98Zm.56-5.43c-.25-.48-.4-.7-.83-1.24l1.11-.33c.39.47.64.87,1,1.57h1.17c-.19-.52-.36-.9-.67-1.39l1.14-.32c.45.85.52,1,.76,1.71h.94c.33-.44.71-1.13.9-1.65l1.19.33c-.25.47-.57.98-.83,1.32h.5c.75,0,.96-.01,1.35-.04-.03.27-.04.5-.04.91v1.02c0,.3.02.57.06.84h-1.2v-1.71h-7.17v1.71h-1.2c.04-.25.06-.51.06-.85v-1.01c0-.4-.01-.63-.04-.91.5.04.56.04,1.3.04h.52Z" fill="#231815"/>
      <path d="m83.87,103.86c-.45.09-.64.11-1.29.2-.11-.45-.19-.65-.42-1.06,1.78-.19,3.09-.51,3.75-.94l.68,1.01s-.04.01-.18.08c-.3.12-.84.3-1.39.45v1.35h.6c.37,0,.58-.01.81-.06v1.18c-.25-.04-.5-.06-.84-.06h-.53c.31.63.77,1.16,1.52,1.72-.24.31-.42.62-.59,1.08-.54-.58-.76-.9-1.03-1.51.02.27.03.76.06,1.43v2.16c0,.63.01.94.07,1.35h-1.3c.04-.41.07-.78.07-1.35v-1.78c0-.25.01-.57.07-1.4-.35,1.01-.7,1.68-1.33,2.48-.24-.57-.32-.72-.65-1.14.51-.52.86-1.03,1.24-1.78.22-.42.43-.92.53-1.24h-.57c-.4,0-.65.01-.97.07v-1.2c.32.05.56.07.99.07h.69v-1.1Zm5.98-.46c0-.64-.01-.94-.07-1.28h1.33c-.06.36-.07.66-.07,1.27v4.74c.63-.14.69-.17,1.03-.3l.1,1.29c-.3.03-.62.09-1.04.19l-.09.02v1.64c0,.62.01.95.07,1.3h-1.33c.06-.37.07-.64.07-1.31v-1.36l-2.48.55c-.43.1-.79.2-1.07.27l-.14-1.28h.05c.3-.01.55-.06.98-.15l2.65-.59v-4.99Zm-2.68,2.08c.98.69,1.38,1.02,2.08,1.71l-.69.98c-.87-.91-1.28-1.27-2.09-1.8l.7-.88Zm.37-2.75c1.07.73,1.52,1.09,2.12,1.73l-.75.99c-.7-.79-1.18-1.21-2.08-1.81l.7-.9Z" fill="#231815"/>
      <path d="m97.32,111.45c-.86,0-1.03.01-1.42.06.07-.63.14-1.01.29-1.41.3-.8.79-1.51,1.51-2.16.39-.34.72-.59,1.82-1.33,1.01-.69,1.32-1.06,1.32-1.62,0-.75-.58-1.21-1.52-1.21-.64,0-1.12.22-1.4.65-.19.26-.26.51-.34,1.01l-1.57-.19c.15-.84.35-1.29.76-1.76.55-.64,1.42-.98,2.52-.98,1.93,0,3.11.92,3.11,2.43,0,.73-.24,1.25-.78,1.76-.31.29-.42.37-1.85,1.35-.48.34-1.03.8-1.31,1.1-.33.35-.46.57-.63.99h3.08c.69,0,1.24-.03,1.61-.09v1.45c-.52-.04-.96-.07-1.66-.07h-3.53Z" fill="#231815"/>
      <path d="m105.15,111.45c-.86,0-1.03.01-1.42.06.07-.63.14-1.01.29-1.41.3-.8.79-1.51,1.51-2.16.39-.34.72-.59,1.82-1.33,1.01-.69,1.32-1.06,1.32-1.62,0-.75-.58-1.21-1.52-1.21-.64,0-1.12.22-1.4.65-.19.26-.26.51-.34,1.01l-1.57-.19c.15-.84.35-1.29.76-1.76.55-.64,1.42-.98,2.52-.98,1.93,0,3.11.92,3.11,2.43,0,.73-.24,1.25-.78,1.76-.31.29-.42.37-1.85,1.35-.48.34-1.03.8-1.31,1.1-.33.35-.46.57-.63.99h3.08c.69,0,1.24-.03,1.61-.09v1.45c-.52-.04-.96-.07-1.66-.07h-3.53Z" fill="#231815"/>
    </g>
    <g>
      <path d="m60.26,202.28c.76.43,1.17.72,1.97,1.34l-.69,1c-.71-.65-1.2-1-1.96-1.46l.68-.88Zm1.96,3.76c-.38,1.01-.63,1.6-1.07,2.51q-.2.41-.34.75-.08.18-.13.27l-1.06-.92c.38-.42,1.06-1.78,1.62-3.3l.98.69Zm-1.42-6.45c.77.47,1.2.79,1.89,1.41l-.75.96c-.6-.59-1.14-1.03-1.89-1.52l.75-.85Zm1.4,8.47c.18.01.26.01.37.01.18,0,.44-.01.81-.03.56-.98,1.01-1.98,1.36-3.04h-1.19c-.45,0-.84.02-1.19.07v-1.23c.32.04.68.07,1.2.07h1.72v-1.65h-1.32c-.43,0-.8.02-1.16.06v-1.21c.29.04.66.07,1.17.07h1.31v-.48c0-.59-.01-.87-.07-1.16h1.33c-.05.33-.07.58-.07,1.16v.48h1.76c.47,0,.79-.02,1.12-.07v1.21c-.31-.04-.6-.06-1.11-.06h-1.77v1.65h2.11c.46,0,.81-.02,1.16-.07v1.23c-.32-.04-.71-.07-1.14-.07h-2.59q-.07.2-.22.6c-.22.58-.53,1.27-.97,2.13l-.1.21c1.49-.13,2.21-.22,2.93-.36-.34-.57-.55-.87-1.08-1.56l.98-.51c.92,1.2,1.19,1.61,2.22,3.39l-1.08.65c-.25-.51-.33-.67-.51-1.01-1.62.31-2.01.36-3.98.57-1.2.12-1.43.15-1.78.22l-.24-1.28Z" fill="#231815"/>
      <path d="m72.13,206.66c-.57,0-1,.02-1.34.07v-1.22c.37.05.81.08,1.33.08h2.99v-.08c0-.22-.01-.42-.03-.61h.47c.47-.24.84-.48,1.3-.89h-3.03c-.45,0-.75.01-1.1.04v-1.1c.33.04.64.06,1.11.06h3.64c.43,0,.64-.01.84-.04l.6.67q-.19.15-.4.33c-.78.67-1.34,1.08-2.2,1.61h0s2.87.01,2.87.01c.54,0,1.02-.02,1.35-.08v1.22c-.32-.04-.79-.07-1.36-.07h-2.86v1.93c0,.39-.03.54-.14.69-.19.27-.56.36-1.55.36-.14,0-.51-.01-1.08-.04-.12-.58-.18-.77-.36-1.17.53.08,1.02.11,1.36.11.48,0,.56-.03.56-.25v-1.63h-2.98Zm.56-5.43c-.25-.48-.4-.7-.83-1.24l1.11-.33c.39.47.64.87,1,1.57h1.17c-.19-.52-.36-.9-.67-1.39l1.14-.32c.45.85.52,1,.76,1.71h.94c.33-.44.71-1.13.9-1.65l1.19.33c-.25.47-.57.98-.83,1.32h.5c.75,0,.96-.01,1.35-.04-.03.27-.04.5-.04.91v1.02c0,.3.02.57.06.84h-1.2v-1.71h-7.17v1.71h-1.2c.04-.25.06-.51.06-.85v-1.01c0-.4-.01-.63-.04-.91.5.04.56.04,1.3.04h.52Z" fill="#231815"/>
      <path d="m83.48,201.32c-.45.09-.64.11-1.29.2-.11-.45-.19-.65-.42-1.06,1.78-.19,3.09-.51,3.75-.94l.68,1.01s-.04.01-.18.08c-.3.12-.84.3-1.39.45v1.35h.6c.37,0,.58-.01.81-.06v1.18c-.25-.04-.5-.06-.84-.06h-.53c.31.63.77,1.16,1.52,1.72-.24.31-.42.62-.59,1.08-.54-.58-.76-.9-1.03-1.51.02.27.03.76.06,1.43v2.16c0,.63.01.94.07,1.35h-1.3c.04-.41.07-.78.07-1.35v-1.78c0-.25.01-.57.07-1.4-.35,1.01-.7,1.68-1.33,2.48-.24-.57-.32-.72-.65-1.14.51-.52.86-1.03,1.24-1.78.22-.42.43-.92.53-1.24h-.57c-.4,0-.65.01-.97.07v-1.2c.32.05.56.07.99.07h.69v-1.1Zm5.98-.46c0-.64-.01-.94-.07-1.28h1.33c-.06.36-.07.66-.07,1.27v4.74c.63-.14.69-.17,1.03-.3l.1,1.29c-.3.03-.62.09-1.04.19l-.09.02v1.64c0,.62.01.95.07,1.3h-1.33c.06-.37.07-.64.07-1.31v-1.36l-2.48.55c-.43.1-.79.2-1.07.27l-.14-1.28h.05c.3-.01.55-.06.98-.15l2.65-.59v-4.99Zm-2.68,2.08c.98.69,1.38,1.02,2.08,1.71l-.69.98c-.87-.91-1.28-1.27-2.09-1.8l.7-.88Zm.37-2.75c1.07.73,1.52,1.09,2.12,1.73l-.75.99c-.7-.79-1.18-1.21-2.08-1.81l.7-.9Z" fill="#231815"/>
      <path d="m96.93,208.91c-.86,0-1.03.01-1.42.06.07-.63.14-1.01.29-1.41.3-.8.79-1.51,1.51-2.16.39-.34.72-.59,1.82-1.33,1.01-.69,1.32-1.06,1.32-1.62,0-.75-.58-1.21-1.52-1.21-.64,0-1.12.22-1.4.65-.19.26-.26.51-.34,1.01l-1.57-.19c.15-.84.35-1.29.76-1.76.55-.64,1.42-.98,2.52-.98,1.93,0,3.11.92,3.11,2.43,0,.73-.24,1.25-.78,1.76-.31.29-.42.37-1.85,1.35-.48.34-1.03.8-1.31,1.1-.33.35-.46.57-.63.99h3.08c.69,0,1.24-.03,1.61-.09v1.45c-.52-.04-.96-.07-1.66-.07h-3.53Z" fill="#231815"/>
      <path d="m106.02,208.91c.07-.43.09-.86.09-1.43v-6.06h-.53c-.41,0-.73.02-1.13.07v-1.4c.34.06.58.07,1.1.07h1.01c.56,0,.73-.01,1.12-.06-.07.65-.09,1.16-.09,1.81v5.57c0,.58.02.98.09,1.43h-1.66Z" fill="#231815"/>
    </g>
    <g>
      <path d="m120.45,88.28c.76.43,1.17.72,1.97,1.34l-.69,1c-.71-.65-1.2-1-1.96-1.46l.68-.88Zm1.96,3.76c-.38,1.01-.63,1.6-1.07,2.51q-.2.41-.34.75-.08.18-.13.27l-1.06-.92c.38-.42,1.06-1.78,1.62-3.3l.98.69Zm-1.42-6.45c.77.47,1.2.79,1.89,1.41l-.75.96c-.6-.59-1.14-1.03-1.89-1.52l.75-.85Zm1.4,8.47c.18.01.26.01.37.01.18,0,.44-.01.81-.03.56-.98,1.01-1.98,1.36-3.04h-1.19c-.45,0-.84.02-1.19.07v-1.23c.32.04.68.07,1.2.07h1.72v-1.65h-1.32c-.43,0-.8.02-1.16.06v-1.21c.29.04.66.07,1.17.07h1.31v-.48c0-.59-.01-.87-.07-1.16h1.33c-.05.33-.07.58-.07,1.16v.48h1.76c.47,0,.79-.02,1.12-.07v1.21c-.31-.04-.6-.06-1.11-.06h-1.77v1.65h2.11c.46,0,.81-.02,1.16-.07v1.23c-.32-.04-.71-.07-1.14-.07h-2.59q-.07.2-.22.6c-.22.58-.53,1.27-.97,2.13l-.1.21c1.49-.13,2.21-.22,2.93-.36-.34-.57-.55-.87-1.08-1.56l.98-.51c.92,1.2,1.19,1.61,2.22,3.39l-1.08.65c-.25-.51-.33-.67-.51-1.01-1.62.31-2.01.36-3.98.57-1.2.12-1.43.15-1.78.22l-.24-1.28Z" fill="#231815"/>
      <path d="m132.32,92.66c-.57,0-1,.02-1.34.07v-1.22c.37.05.81.08,1.33.08h2.99v-.08c0-.22-.01-.42-.03-.61h.47c.47-.24.84-.48,1.3-.89h-3.03c-.45,0-.75.01-1.1.04v-1.1c.33.04.64.06,1.11.06h3.64c.43,0,.64-.01.84-.04l.6.67q-.19.15-.4.33c-.78.67-1.34,1.08-2.2,1.61h0s2.87.01,2.87.01c.54,0,1.02-.02,1.35-.08v1.22c-.32-.04-.79-.07-1.36-.07h-2.86v1.93c0,.39-.03.54-.14.69-.19.27-.56.36-1.55.36-.14,0-.51-.01-1.08-.04-.12-.58-.18-.77-.36-1.17.53.08,1.02.11,1.36.11.48,0,.56-.03.56-.25v-1.63h-2.98Zm.56-5.43c-.25-.48-.4-.7-.83-1.24l1.11-.33c.39.47.64.87,1,1.57h1.17c-.19-.52-.36-.9-.67-1.39l1.14-.32c.45.85.52,1,.76,1.71h.94c.33-.44.71-1.13.9-1.65l1.19.33c-.25.47-.57.98-.83,1.32h.5c.75,0,.96-.01,1.35-.04-.03.27-.04.5-.04.91v1.02c0,.3.02.57.06.84h-1.2v-1.71h-7.17v1.71h-1.2c.04-.25.06-.51.06-.85v-1.01c0-.4-.01-.63-.04-.91.5.04.56.04,1.3.04h.52Z" fill="#231815"/>
      <path d="m143.67,87.32c-.45.09-.64.11-1.29.2-.11-.45-.19-.65-.42-1.06,1.78-.19,3.09-.51,3.75-.94l.68,1.01s-.04.01-.18.08c-.3.12-.84.3-1.39.45v1.35h.6c.37,0,.58-.01.81-.06v1.18c-.25-.04-.5-.06-.84-.06h-.53c.31.63.77,1.16,1.52,1.72-.24.31-.42.62-.59,1.08-.54-.58-.76-.9-1.03-1.51.02.27.03.76.06,1.43v2.16c0,.63.01.94.07,1.35h-1.3c.04-.41.07-.78.07-1.35v-1.78c0-.25.01-.57.07-1.4-.35,1.01-.7,1.68-1.33,2.48-.24-.57-.32-.72-.65-1.14.51-.52.86-1.03,1.24-1.78.22-.42.43-.92.53-1.24h-.57c-.4,0-.65.01-.97.07v-1.2c.32.05.56.07.99.07h.69v-1.1Zm5.98-.46c0-.64-.01-.94-.07-1.28h1.33c-.06.36-.07.66-.07,1.27v4.74c.63-.14.69-.17,1.03-.3l.1,1.29c-.3.03-.62.09-1.04.19l-.09.02v1.64c0,.62.01.95.07,1.3h-1.33c.06-.37.07-.64.07-1.31v-1.36l-2.48.55c-.43.1-.79.2-1.07.27l-.14-1.28h.05c.3-.01.55-.06.98-.15l2.65-.59v-4.99Zm-2.68,2.08c.98.69,1.38,1.02,2.08,1.71l-.69.98c-.87-.91-1.28-1.27-2.09-1.8l.7-.88Zm.37-2.75c1.07.73,1.52,1.09,2.12,1.73l-.75.99c-.7-.79-1.18-1.21-2.08-1.81l.7-.9Z" fill="#231815"/>
      <path d="m157.12,94.92c-.86,0-1.03.01-1.42.06.07-.63.14-1.01.29-1.41.3-.8.79-1.51,1.51-2.16.39-.34.72-.59,1.82-1.33,1.01-.69,1.32-1.06,1.32-1.62,0-.75-.58-1.21-1.52-1.21-.64,0-1.12.22-1.4.65-.19.26-.26.51-.34,1.01l-1.57-.19c.15-.84.35-1.29.76-1.76.55-.64,1.42-.98,2.52-.98,1.93,0,3.11.92,3.11,2.43,0,.73-.24,1.25-.78,1.76-.31.29-.42.37-1.85,1.35-.48.34-1.03.8-1.31,1.1-.33.35-.46.57-.63.99h3.08c.69,0,1.24-.03,1.61-.09v1.45c-.52-.04-.96-.07-1.66-.07h-3.53Z" fill="#231815"/>
      <path d="m164.97,92.53c.14.51.24.68.52.9.36.29.8.43,1.33.43,1.09,0,1.78-.56,1.78-1.43,0-.51-.22-.92-.62-1.15-.26-.15-.78-.26-1.27-.26s-.8.01-1.18.05v-1.36c.35.04.59.05,1.07.05,1.1,0,1.75-.51,1.75-1.35,0-.76-.52-1.19-1.45-1.19-.54,0-.94.12-1.2.34-.22.21-.33.4-.46.85l-1.57-.26c.27-.81.53-1.2,1.05-1.57.56-.41,1.28-.6,2.16-.6,1.84,0,3.03.92,3.03,2.35,0,.66-.29,1.27-.76,1.62-.24.19-.48.27-1.07.43.78.12,1.19.31,1.57.74.36.41.53.87.53,1.52,0,.59-.25,1.2-.66,1.61-.6.58-1.53.89-2.71.89-1.29,0-2.17-.33-2.79-1.05-.28-.31-.42-.59-.62-1.23l1.57-.31Z" fill="#231815"/>
    </g>
    <g>
      <path d="m184.13,88.33c.76.43,1.17.72,1.97,1.34l-.69,1c-.71-.65-1.2-1-1.96-1.46l.68-.88Zm1.96,3.76c-.38,1.01-.63,1.6-1.07,2.51q-.2.41-.34.75-.08.18-.13.27l-1.06-.92c.38-.42,1.06-1.78,1.62-3.3l.98.69Zm-1.42-6.45c.77.47,1.2.79,1.89,1.41l-.75.96c-.6-.59-1.14-1.03-1.89-1.52l.75-.85Zm1.4,8.47c.18.01.26.01.37.01.18,0,.44-.01.81-.03.56-.98,1.01-1.98,1.36-3.04h-1.19c-.45,0-.84.02-1.19.07v-1.23c.32.04.68.07,1.2.07h1.72v-1.65h-1.32c-.43,0-.8.02-1.16.06v-1.21c.29.04.66.07,1.17.07h1.31v-.48c0-.59-.01-.87-.07-1.16h1.33c-.05.33-.07.58-.07,1.16v.48h1.76c.47,0,.79-.02,1.12-.07v1.21c-.31-.04-.6-.06-1.11-.06h-1.77v1.65h2.11c.46,0,.81-.02,1.16-.07v1.23c-.32-.04-.71-.07-1.14-.07h-2.59q-.07.2-.22.6c-.22.58-.53,1.27-.97,2.13l-.1.21c1.49-.13,2.21-.22,2.93-.36-.34-.57-.55-.87-1.08-1.56l.98-.51c.92,1.2,1.19,1.61,2.22,3.39l-1.08.65c-.25-.51-.33-.67-.51-1.01-1.62.31-2.01.36-3.98.57-1.2.12-1.43.15-1.78.22l-.24-1.28Z" fill="#231815"/>
      <path d="m196,92.71c-.57,0-1,.02-1.34.07v-1.22c.37.05.81.08,1.33.08h2.99v-.08c0-.22-.01-.42-.03-.61h.47c.47-.24.84-.48,1.3-.89h-3.03c-.45,0-.75.01-1.1.04v-1.1c.33.04.64.06,1.11.06h3.64c.43,0,.64-.01.84-.04l.6.67q-.19.15-.4.33c-.78.67-1.34,1.08-2.2,1.61h0s2.87.01,2.87.01c.54,0,1.02-.02,1.35-.08v1.22c-.32-.04-.79-.07-1.36-.07h-2.86v1.93c0,.39-.03.54-.14.69-.19.27-.56.36-1.55.36-.14,0-.51-.01-1.08-.04-.12-.58-.18-.77-.36-1.17.53.08,1.02.11,1.36.11.48,0,.56-.03.56-.25v-1.63h-2.98Zm.56-5.43c-.25-.48-.4-.7-.83-1.24l1.11-.33c.39.47.64.87,1,1.57h1.17c-.19-.52-.36-.9-.67-1.39l1.14-.32c.45.85.52,1,.76,1.71h.94c.33-.44.71-1.13.9-1.65l1.19.33c-.25.47-.57.98-.83,1.32h.5c.75,0,.96-.01,1.35-.04-.03.27-.04.5-.04.91v1.02c0,.3.02.57.06.84h-1.2v-1.71h-7.17v1.71h-1.2c.04-.25.06-.51.06-.85v-1.01c0-.4-.01-.63-.04-.91.5.04.56.04,1.3.04h.52Z" fill="#231815"/>
      <path d="m207.35,87.38c-.45.09-.64.11-1.29.2-.11-.45-.19-.65-.42-1.06,1.78-.19,3.09-.51,3.75-.94l.68,1.01s-.04.01-.18.08c-.3.12-.84.3-1.39.45v1.35h.6c.37,0,.58-.01.81-.06v1.18c-.25-.04-.5-.06-.84-.06h-.53c.31.63.77,1.16,1.52,1.72-.24.31-.42.62-.59,1.08-.54-.58-.76-.9-1.03-1.51.02.27.03.76.06,1.43v2.16c0,.63.01.94.07,1.35h-1.3c.04-.41.07-.78.07-1.35v-1.78c0-.25.01-.57.07-1.4-.35,1.01-.7,1.68-1.33,2.48-.24-.57-.32-.72-.65-1.14.51-.52.86-1.03,1.24-1.78.22-.42.43-.92.53-1.24h-.57c-.4,0-.65.01-.97.07v-1.2c.32.05.56.07.99.07h.69v-1.1Zm5.98-.46c0-.64-.01-.94-.07-1.28h1.33c-.06.36-.07.66-.07,1.27v4.74c.63-.14.69-.17,1.03-.3l.1,1.29c-.3.03-.62.09-1.04.19l-.09.02v1.64c0,.62.01.95.07,1.3h-1.33c.06-.37.07-.64.07-1.31v-1.36l-2.48.55c-.43.1-.79.2-1.07.27l-.14-1.28h.05c.3-.01.55-.06.98-.15l2.65-.59v-4.99Zm-2.68,2.08c.98.69,1.38,1.02,2.08,1.71l-.69.98c-.87-.91-1.28-1.27-2.09-1.8l.7-.88Zm.37-2.75c1.07.73,1.52,1.09,2.12,1.73l-.75.99c-.7-.79-1.18-1.21-2.08-1.81l.7-.9Z" fill="#231815"/>
      <path d="m220.8,94.97c-.86,0-1.03.01-1.42.06.07-.63.14-1.01.29-1.41.3-.8.79-1.51,1.51-2.16.39-.34.72-.59,1.82-1.33,1.01-.69,1.32-1.06,1.32-1.62,0-.75-.58-1.21-1.52-1.21-.64,0-1.12.22-1.4.65-.19.26-.26.51-.34,1.01l-1.57-.19c.15-.84.35-1.29.76-1.76.55-.64,1.42-.98,2.52-.98,1.93,0,3.11.92,3.11,2.43,0,.73-.24,1.25-.78,1.76-.31.29-.42.37-1.85,1.35-.48.34-1.03.8-1.31,1.1-.33.35-.46.57-.63.99h3.08c.69,0,1.24-.03,1.61-.09v1.45c-.52-.04-.96-.07-1.66-.07h-3.53Z" fill="#231815"/>
      <path d="m234.19,93.01c-.41-.06-.64-.07-1.1-.08h-.4v.78c0,.56.02.85.09,1.25h-1.56c.07-.38.09-.73.09-1.28v-.76h-3.05c-.65,0-1,.01-1.38.04v-1.35c.37-.41.5-.55.88-1.01l2.61-3.19c.48-.58.66-.81.91-1.21h1.49c-.07.64-.08,1.02-.08,1.86v3.61h.39c.44,0,.7-.02,1.11-.08v1.41Zm-2.87-3.6c0-.52.01-.87.06-1.32-.22.32-.35.5-.75.98l-2.11,2.62h2.81v-2.28Z" fill="#231815"/>
    </g>
    <g>
      <path d="m247.9,102.97c.76.43,1.17.72,1.97,1.34l-.69,1c-.71-.65-1.2-1-1.96-1.46l.68-.88Zm1.96,3.76c-.38,1.01-.63,1.6-1.07,2.51q-.2.41-.34.75-.08.18-.13.27l-1.06-.92c.38-.42,1.06-1.78,1.62-3.3l.98.69Zm-1.42-6.45c.77.47,1.2.79,1.89,1.41l-.75.96c-.6-.59-1.14-1.03-1.89-1.52l.75-.85Zm1.4,8.47c.18.01.26.01.37.01.18,0,.44-.01.81-.03.56-.98,1.01-1.98,1.36-3.04h-1.19c-.45,0-.84.02-1.19.07v-1.23c.32.04.68.07,1.2.07h1.72v-1.65h-1.32c-.43,0-.8.02-1.16.06v-1.21c.29.04.66.07,1.17.07h1.31v-.48c0-.59-.01-.87-.07-1.16h1.33c-.05.33-.07.58-.07,1.16v.48h1.76c.47,0,.79-.02,1.12-.07v1.21c-.31-.04-.6-.06-1.11-.06h-1.77v1.65h2.11c.46,0,.81-.02,1.16-.07v1.23c-.32-.04-.71-.07-1.14-.07h-2.59q-.07.2-.22.6c-.22.58-.53,1.27-.97,2.13l-.1.21c1.49-.13,2.21-.22,2.93-.36-.34-.57-.55-.87-1.08-1.56l.98-.51c.92,1.2,1.19,1.61,2.22,3.39l-1.08.65c-.25-.51-.33-.67-.51-1.01-1.62.31-2.01.36-3.98.57-1.2.12-1.43.15-1.78.22l-.24-1.28Z" fill="#231815"/>
      <path d="m259.77,107.35c-.57,0-1,.02-1.34.07v-1.22c.37.05.81.08,1.33.08h2.99v-.08c0-.22-.01-.42-.03-.61h.47c.47-.24.84-.48,1.3-.89h-3.03c-.45,0-.75.01-1.1.04v-1.1c.33.04.64.06,1.11.06h3.64c.43,0,.64-.01.84-.04l.6.67q-.19.15-.4.33c-.78.67-1.34,1.08-2.2,1.61h0s2.87.01,2.87.01c.54,0,1.02-.02,1.35-.08v1.22c-.32-.04-.79-.07-1.36-.07h-2.86v1.93c0,.39-.03.54-.14.69-.19.27-.56.36-1.55.36-.14,0-.51-.01-1.08-.04-.12-.58-.18-.77-.36-1.17.53.08,1.02.11,1.36.11.48,0,.56-.03.56-.25v-1.63h-2.98Zm.56-5.43c-.25-.48-.4-.7-.83-1.24l1.11-.33c.39.47.64.87,1,1.57h1.17c-.19-.52-.36-.9-.67-1.39l1.14-.32c.45.85.52,1,.76,1.71h.94c.33-.44.71-1.13.9-1.65l1.19.33c-.25.47-.57.98-.83,1.32h.5c.75,0,.96-.01,1.35-.04-.03.27-.04.5-.04.91v1.02c0,.3.02.57.06.84h-1.2v-1.71h-7.17v1.71h-1.2c.04-.25.06-.51.06-.85v-1.01c0-.4-.01-.63-.04-.91.5.04.56.04,1.3.04h.52Z" fill="#231815"/>
      <path d="m271.12,102.01c-.45.09-.64.11-1.29.2-.11-.45-.19-.65-.42-1.06,1.78-.19,3.09-.51,3.75-.94l.68,1.01s-.04.01-.18.08c-.3.12-.84.3-1.39.45v1.35h.6c.37,0,.58-.01.81-.06v1.18c-.25-.04-.5-.06-.84-.06h-.53c.31.63.77,1.16,1.52,1.72-.24.31-.42.62-.59,1.08-.54-.58-.76-.9-1.03-1.51.02.27.03.76.06,1.43v2.16c0,.63.01.94.07,1.35h-1.3c.04-.41.07-.78.07-1.35v-1.78c0-.25.01-.57.07-1.4-.35,1.01-.7,1.68-1.33,2.48-.24-.57-.32-.72-.65-1.14.51-.52.86-1.03,1.24-1.78.22-.42.43-.92.53-1.24h-.57c-.4,0-.65.01-.97.07v-1.2c.32.05.56.07.99.07h.69v-1.1Zm5.98-.46c0-.64-.01-.94-.07-1.28h1.33c-.06.36-.07.66-.07,1.27v4.74c.63-.14.69-.17,1.03-.3l.1,1.29c-.3.03-.62.09-1.04.19l-.09.02v1.64c0,.62.01.95.07,1.3h-1.33c.06-.37.07-.64.07-1.31v-1.36l-2.48.55c-.43.1-.79.2-1.07.27l-.14-1.28h.05c.3-.01.55-.06.98-.15l2.65-.59v-4.99Zm-2.68,2.08c.98.69,1.38,1.02,2.08,1.71l-.69.98c-.87-.91-1.28-1.27-2.09-1.8l.7-.88Zm.37-2.75c1.07.73,1.52,1.09,2.12,1.73l-.75.99c-.7-.79-1.18-1.21-2.08-1.81l.7-.9Z" fill="#231815"/>
      <path d="m284.57,109.6c-.86,0-1.03.01-1.42.06.07-.63.14-1.01.29-1.41.3-.8.79-1.51,1.51-2.16.39-.34.72-.59,1.82-1.33,1.01-.69,1.32-1.06,1.32-1.62,0-.75-.58-1.21-1.52-1.21-.64,0-1.12.22-1.4.65-.19.26-.26.51-.34,1.01l-1.57-.19c.15-.84.35-1.29.76-1.76.55-.64,1.42-.98,2.52-.98,1.93,0,3.11.92,3.11,2.43,0,.73-.24,1.25-.78,1.76-.31.29-.42.37-1.85,1.35-.48.34-1.03.8-1.31,1.1-.33.35-.46.57-.63.99h3.08c.69,0,1.24-.03,1.61-.09v1.45c-.52-.04-.96-.07-1.66-.07h-3.53Z" fill="#231815"/>
      <path d="m292.56,107.33c.1.32.18.46.33.64.31.37.77.56,1.35.56,1.09,0,1.8-.73,1.8-1.81s-.68-1.77-1.73-1.77c-.54,0-1.02.18-1.36.51-.15.15-.23.25-.33.49l-1.38-.13c.11-.78.12-.84.14-1.14l.25-2.73c.01-.2.03-.57.04-1.12.33.02.58.03,1.17.03h2.71c.76,0,1.03-.01,1.53-.09v1.39c-.48-.07-.91-.09-1.52-.09h-2.59l-.18,1.93c-.01.09-.03.24-.07.46.54-.46,1.12-.67,1.88-.67.89,0,1.61.26,2.15.83.54.53.78,1.19.78,2.07,0,1.94-1.27,3.14-3.31,3.14-1.09,0-1.9-.31-2.51-.96-.3-.32-.45-.58-.69-1.2l1.52-.32Z" fill="#231815"/>
    </g>
    <g>
      <path d="m258.8,189.58c-.04.17-.07.67-.07,1.03,0,1.61.26,2.67.98,3.94.42.75.87,1.28,1.58,1.9.59.52.89.73,1.55,1.08-.38.39-.54.63-.78,1.11-1.22-.85-1.83-1.42-2.54-2.36-.61-.81-.99-1.58-1.33-2.73-.19.8-.37,1.26-.78,2.02-.4.73-.83,1.27-1.54,1.92-.52.48-.85.72-1.55,1.15-.23-.46-.42-.71-.78-1.03,1.02-.54,1.55-.95,2.18-1.67,1.29-1.48,1.83-3.12,1.83-5.52,0-.39-.01-.57-.04-.84h1.29Z" fill="#231815"/>
      <path d="m270.99,191.99c-.26.93-.42,1.34-.78,2.01-.34.63-.71,1.15-1.18,1.69,1.1.86,2.3,1.4,3.91,1.76-.33.39-.47.63-.69,1.17-1.7-.56-2.92-1.21-4.03-2.16-.57.48-1.25.93-1.96,1.3-.61.31-1.18.54-2.13.86-.18-.43-.35-.71-.64-1.07,1.79-.49,2.9-1.01,3.93-1.86-.48-.53-.84-1.02-1.18-1.6-.38-.65-.56-1.08-.9-2.1h-.47c-.47,0-.86.02-1.22.06v-1.13c.38.05.72.07,1.25.07h2.66v-.71c0-.3-.02-.54-.07-.77h1.27c-.05.23-.07.47-.07.76v.72h2.79c.54,0,.89-.02,1.26-.07v1.13c-.36-.04-.7-.06-1.22-.06h-.53Zm-4.5,0c.25.76.41,1.12.76,1.71.31.5.58.85.96,1.25.35-.39.64-.79.91-1.26.3-.54.45-.89.69-1.7h-3.32Z" fill="#231815"/>
      <path d="m274.96,195.91c-.52,0-.91.02-1.22.06v-1.11c.34.05.74.07,1.21.07h2.72v-.07c0-.2,0-.38-.03-.55h.43c.43-.22.76-.44,1.18-.81h-2.75c-.41,0-.68,0-1,.04v-1c.3.04.58.05,1.01.05h3.31c.39,0,.58-.01.76-.04l.55.61q-.17.14-.36.3c-.71.61-1.22.98-2,1.46h0s2.61.01,2.61.01c.49,0,.93-.02,1.23-.07v1.11c-.29-.04-.72-.06-1.24-.06h-2.6v1.75c0,.35-.03.49-.13.63-.17.25-.51.33-1.41.33-.13,0-.46-.01-.98-.04-.11-.53-.16-.7-.33-1.06.48.07.93.1,1.24.1.44,0,.51-.03.51-.23v-1.48h-2.71Zm.51-4.94c-.23-.44-.36-.64-.75-1.13l1.01-.3c.35.43.58.79.91,1.43h1.06c-.17-.47-.33-.82-.61-1.26l1.04-.29c.41.77.47.91.69,1.55h.85c.3-.4.65-1.03.82-1.5l1.08.3c-.23.43-.52.89-.75,1.2h.45c.68,0,.87-.01,1.23-.04-.03.25-.04.45-.04.83v.93c0,.27.02.52.05.76h-1.09v-1.55h-6.52v1.55h-1.09c.04-.23.05-.46.05-.77v-.92c0-.36-.01-.57-.04-.83.45.04.51.04,1.18.04h.47Z" fill="#231815"/>
      <path d="m285.28,191.07c-.41.08-.58.1-1.17.18-.1-.41-.17-.59-.38-.96,1.62-.17,2.81-.46,3.41-.85l.62.92s-.04,0-.16.07c-.27.11-.76.27-1.26.41v1.23h.55c.34,0,.53,0,.74-.05v1.07c-.23-.04-.45-.05-.76-.05h-.48c.28.57.7,1.05,1.38,1.56-.22.28-.38.56-.54.98-.49-.53-.69-.82-.94-1.37.02.25.03.69.05,1.3v1.96c0,.57.01.85.06,1.23h-1.18c.04-.37.06-.71.06-1.23v-1.62c0-.23.01-.52.06-1.27-.32.92-.64,1.53-1.21,2.25-.22-.52-.29-.65-.59-1.04.46-.47.78-.94,1.13-1.62.2-.38.39-.84.48-1.13h-.52c-.36,0-.59,0-.88.06v-1.09c.29.05.51.06.9.06h.63v-1Zm5.44-.42c0-.58,0-.85-.06-1.16h1.21c-.05.33-.06.6-.06,1.15v4.31c.57-.13.63-.15.94-.27l.09,1.17c-.27.03-.56.08-.95.17l-.08.02v1.49c0,.56,0,.86.06,1.18h-1.21c.05-.34.06-.58.06-1.19v-1.24l-2.25.5c-.39.09-.72.18-.97.25l-.13-1.16h.05c.27,0,.5-.05.89-.14l2.41-.54v-4.54Zm-2.44,1.89c.89.63,1.25.93,1.89,1.55l-.63.89c-.79-.83-1.16-1.15-1.9-1.64l.64-.8Zm.34-2.5c.97.66,1.38.99,1.93,1.57l-.68.9c-.64-.72-1.07-1.1-1.89-1.65l.64-.82Z" fill="#231815"/>
      <path d="m298.65,197.96c.06-.39.08-.78.08-1.3v-5.51h-.48c-.37,0-.66.02-1.03.06v-1.27c.31.05.53.06,1,.06h.92c.51,0,.66-.01,1.02-.05-.06.59-.08,1.05-.08,1.65v5.06c0,.53.02.89.08,1.3h-1.51Z" fill="#231815"/>
      <path d="m309.68,196.18c-.37-.05-.58-.06-1-.07h-.36v.71c0,.51.02.77.08,1.14h-1.42c.06-.35.08-.66.08-1.16v-.69h-2.77c-.59,0-.91,0-1.25.04v-1.23c.34-.37.45-.5.8-.92l2.37-2.9c.44-.53.6-.74.83-1.1h1.35c-.06.58-.07.93-.07,1.69v3.28h.35c.4,0,.64-.02,1.01-.07v1.28Zm-2.61-3.27c0-.47.01-.79.05-1.2-.2.29-.32.45-.68.89l-1.92,2.38h2.55v-2.07Z" fill="#231815"/>
    </g>
    <g>
      <path d="m187.1,208.22c-.04.17-.07.67-.07,1.03,0,1.61.26,2.67.98,3.94.42.75.87,1.28,1.58,1.9.59.52.89.73,1.55,1.08-.38.39-.54.63-.78,1.11-1.22-.85-1.83-1.42-2.54-2.36-.61-.81-.99-1.58-1.33-2.73-.19.8-.37,1.26-.78,2.02-.4.73-.83,1.27-1.54,1.92-.52.48-.85.72-1.55,1.15-.23-.46-.42-.71-.78-1.03,1.02-.54,1.55-.95,2.18-1.67,1.29-1.48,1.83-3.12,1.83-5.52,0-.39-.01-.57-.04-.84h1.29Z" fill="#231815"/>
      <path d="m199.29,210.63c-.26.93-.42,1.34-.78,2.01-.34.63-.71,1.15-1.18,1.69,1.1.86,2.3,1.4,3.91,1.76-.33.39-.47.63-.69,1.17-1.7-.56-2.92-1.21-4.03-2.16-.57.48-1.25.93-1.96,1.3-.61.31-1.18.54-2.13.86-.18-.43-.35-.71-.64-1.07,1.79-.49,2.9-1.01,3.93-1.86-.48-.53-.84-1.02-1.18-1.6-.38-.65-.56-1.08-.9-2.1h-.47c-.47,0-.86.02-1.22.06v-1.13c.38.05.72.07,1.25.07h2.66v-.71c0-.3-.02-.54-.07-.77h1.27c-.05.23-.07.47-.07.76v.72h2.79c.54,0,.89-.02,1.26-.07v1.13c-.36-.04-.7-.06-1.22-.06h-.53Zm-4.5,0c.25.76.41,1.12.76,1.71.31.5.58.85.96,1.25.35-.39.64-.79.91-1.26.3-.54.45-.89.69-1.7h-3.32Z" fill="#231815"/>
      <path d="m203.26,214.55c-.52,0-.91.02-1.22.06v-1.11c.34.05.74.07,1.21.07h2.72v-.07c0-.2,0-.38-.03-.55h.43c.43-.22.76-.44,1.18-.81h-2.75c-.41,0-.68,0-1,.04v-1c.3.04.58.05,1.01.05h3.31c.39,0,.58-.01.76-.04l.55.61q-.17.14-.36.3c-.71.61-1.22.98-2,1.46h0s2.61.01,2.61.01c.49,0,.93-.02,1.23-.07v1.11c-.29-.04-.72-.06-1.24-.06h-2.6v1.75c0,.35-.03.49-.13.63-.17.25-.51.33-1.41.33-.13,0-.46-.01-.98-.04-.11-.53-.16-.7-.33-1.06.48.07.93.1,1.24.1.44,0,.51-.03.51-.23v-1.48h-2.71Zm.51-4.94c-.23-.44-.36-.64-.75-1.13l1.01-.3c.35.43.58.79.91,1.43h1.06c-.17-.47-.33-.82-.61-1.26l1.04-.29c.41.77.47.91.69,1.55h.85c.3-.4.65-1.03.82-1.5l1.08.3c-.23.43-.52.89-.75,1.2h.45c.68,0,.87,0,1.23-.04-.03.25-.04.45-.04.83v.93c0,.27.02.52.05.76h-1.09v-1.55h-6.52v1.55h-1.09c.04-.23.05-.46.05-.77v-.92c0-.36-.01-.57-.04-.83.45.04.51.04,1.18.04h.47Z" fill="#231815"/>
      <path d="m213.58,209.71c-.41.08-.58.1-1.17.18-.1-.41-.17-.59-.38-.96,1.62-.17,2.81-.46,3.41-.85l.62.92s-.04,0-.16.07c-.27.11-.76.27-1.26.41v1.23h.55c.34,0,.53,0,.74-.05v1.07c-.23-.04-.45-.05-.76-.05h-.48c.28.57.7,1.05,1.38,1.56-.22.28-.38.56-.54.98-.49-.53-.69-.82-.94-1.37.02.25.03.69.05,1.3v1.96c0,.57.01.85.06,1.23h-1.18c.04-.37.06-.71.06-1.23v-1.62c0-.23.01-.52.06-1.27-.32.92-.64,1.53-1.21,2.25-.22-.52-.29-.65-.59-1.04.46-.47.78-.94,1.13-1.62.2-.38.39-.84.48-1.13h-.52c-.36,0-.59,0-.88.06v-1.09c.29.05.51.06.9.06h.63v-1Zm5.44-.42c0-.58-.01-.85-.06-1.16h1.21c-.05.33-.06.6-.06,1.15v4.31c.57-.13.63-.15.94-.27l.09,1.17c-.27.03-.56.08-.95.17l-.08.02v1.49c0,.56.01.86.06,1.18h-1.21c.05-.34.06-.58.06-1.19v-1.24l-2.25.5c-.39.09-.72.18-.97.25l-.13-1.16h.05c.27,0,.5-.05.89-.14l2.41-.54v-4.54Zm-2.44,1.89c.89.63,1.25.93,1.89,1.55l-.63.89c-.79-.83-1.16-1.15-1.9-1.64l.64-.8Zm.34-2.5c.97.66,1.38.99,1.93,1.57l-.68.9c-.64-.72-1.07-1.1-1.89-1.65l.64-.82Z" fill="#231815"/>
      <path d="m226.95,216.6c.06-.39.08-.78.08-1.3v-5.51h-.48c-.37,0-.66.02-1.03.06v-1.27c.31.05.53.06,1,.06h.92c.51,0,.66,0,1.02-.05-.06.59-.08,1.05-.08,1.65v5.06c0,.53.02.89.08,1.3h-1.51Z" fill="#231815"/>
      <path d="m233.07,214.53c.09.29.16.42.3.58.28.34.7.51,1.23.51.99,0,1.64-.66,1.64-1.65s-.62-1.61-1.57-1.61c-.49,0-.93.16-1.24.46-.14.14-.21.23-.3.45l-1.25-.12c.1-.71.11-.76.13-1.04l.23-2.48c0-.18.03-.52.04-1.02.3.02.53.03,1.06.03h2.46c.69,0,.94,0,1.39-.08v1.26c-.44-.06-.83-.08-1.38-.08h-2.35l-.16,1.75c-.01.08-.03.22-.06.42.49-.42,1.02-.61,1.71-.61.81,0,1.46.24,1.95.75.49.48.71,1.08.71,1.88,0,1.76-1.15,2.85-3.01,2.85-.99,0-1.73-.28-2.28-.87-.27-.29-.41-.53-.63-1.09l1.38-.29Z" fill="#231815"/>
    </g>
  </g>
</svg>