<?xml version="1.0" encoding="UTF-8"?>
<svg xmlns="http://www.w3.org/2000/svg" width="660" height="490" viewBox="0 0 660 490">
  <g id="_背景" data-name="背景">
    <polyline id="base" points="0 0 660 0 660 490 0 490" fill="#dcdddd"/>
  </g>
  <g id="_男性用トイレ" data-name="男性用トイレ">
    <polyline points="386.47 126.96 404.84 126.96 404.84 37.16 386.47 37.16 386.47 126.96" fill="#54c3f1" stroke="#283331" stroke-miterlimit="10"/>
    <polyline points="378.82 410.63 378.82 434.1 394.13 434.1 394.13 410.63 378.82 410.63" fill="#54c3f1" stroke="#283331" stroke-miterlimit="10"/>
  </g>
  <g id="_女性用トイレ" data-name="女性用トイレ">
    <polyline points="368.81 142.52 386.47 142.52 386.47 37.16 368.81 37.16 368.81 142.52" fill="#f19899" stroke="#283331" stroke-miterlimit="10"/>
    <rect x="394.13" y="410.63" width="13.78" height="23.47" fill="#f19899" stroke="#283331" stroke-miterlimit="10"/>
  </g>
  <g id="_使用不可能教室等" data-name="使用不可能教室等">
    <rect x="305.14" y="65.99" width="63.67" height="76.53" fill="#929292" stroke="#283331" stroke-miterlimit="10"/>
    <polyline points="506.37 393.29 561.79 393.29 561.79 372.27 506.37 372.27 506.37 393.29" fill="#929292" stroke="#283331" stroke-miterlimit="10"/>
    <polyline points="561.79 393.29 616.58 393.29 616.58 372.27 561.79 372.27 561.79 393.29" fill="#929292" stroke="#283331" stroke-miterlimit="10"/>
    <polyline points="516 206.55 616.58 206.55 616.58 176.83 529.33 176.83 516 190.16 516 206.55" fill="#929292" stroke="#283331" stroke-miterlimit="10"/>
    <polyline points="209.64 393.29 401.02 393.29 401.02 320.74 209.64 320.74 209.64 393.29" fill="#929292" stroke="#283331" stroke-miterlimit="10"/>
    <polyline points="401.02 393.29 479.87 393.29 479.87 335.02 401.02 335.02 401.02 393.29" fill="#929292" stroke="#283331" stroke-miterlimit="10"/>
    <polyline points="209.64 411.65 209.64 434.1 264.03 434.1 264.03 411.65 209.64 411.65" fill="#929292" stroke="#283331" stroke-miterlimit="10"/>
    <polyline id="_4-7-kenpuku_room120" data-name="4-7-kenpuku_room120" points="506.37 206.55 616.58 206.55 616.58 372.27 506.37 372.27 506.37 206.55" fill="#929292" stroke="#283331" stroke-miterlimit="10"/>
    <rect id="_4-7-kenpuku_room110" data-name="4-7-kenpuku_room110" x="404.84" y="37.16" width="144.16" height="89.8" fill="#929292" stroke="#283331" stroke-miterlimit="10"/>
    <rect id="_4-7-kenpuku_room107" data-name="4-7-kenpuku_room107" x="241.47" y="163.18" width="82.31" height="56.12" fill="#929292" stroke="#283331" stroke-miterlimit="10"/>
    <rect id="_4-7-kenpuku_room109" data-name="4-7-kenpuku_room109" x="177.8" y="176.83" width="63.67" height="68.45" fill="#929292" stroke="#283331" stroke-miterlimit="10"/>
    <polyline points="114.13 320.74 15.36 320.74 15.36 452.84 114.13 452.84 114.13 320.74" fill="#929292" stroke="#283331" stroke-miterlimit="10"/>
    <polyline points="407.9 410.63 616.58 410.63 616.58 434.1 407.9 434.1 407.9 410.63" fill="#929292" stroke="#283331" stroke-miterlimit="10"/>
  </g>
  <g id="_廊下" data-name="廊下">
    <polygon points="386.47 142.52 386.47 126.96 565.56 126.96 565.56 111.14 549 111.14 549 37.16 631.37 37.16 631.37 120.84 615.05 120.84 615.05 126.96 582.63 163.18 582.63 176.83 529.33 176.83 516 190.16 516 206.55 506.37 206.55 506.37 393.29 616.58 393.29 616.58 410.63 378.82 410.63 378.82 434.1 264.03 434.1 264.03 411.65 209.64 411.65 209.64 393.29 479.87 393.29 479.87 199.92 494.64 176.83 494.64 151.9 485.87 143.13 386.47 142.52" fill="#b5b5b6" stroke="#283331" stroke-miterlimit="10"/>
    <polygon points="55.69 163.18 55.69 145.02 114.13 145.02 114.13 126.96 241.47 126.96 241.47 142.52 485.87 143.13 490.08 147.34 474.74 163.18 241.47 163.18 241.47 176.83 114.13 176.83 114.13 163.18 55.69 163.18" fill="#b5b5b6" stroke="#283331" stroke-miterlimit="10"/>
    <polygon points="114.13 176.83 114.13 414.73 209.64 414.73 209.64 387.07 145.97 387.07 145.97 176.83 114.13 176.83" fill="#c9caca" stroke="#283331" stroke-miterlimit="10"/>
    <g id="_矢印" data-name="矢印">
      <path d="m607.47,151.64l-.44-5.53-1.91,2.24-11.19-9.55-1.27,1.49,11.19,9.55-1.91,2.24,5.53-.44Z" fill="#040000"/>
      <path d="m591.97,138.41l.44,5.53,1.91-2.24,11.19,9.55,1.27-1.49-11.19-9.55,1.91-2.24-5.53.44Z" fill="#040000"/>
    </g>
    <g id="_矢印-2" data-name="矢印">
      <path d="m413.13,152.71l4-3.84-2.94-.06.29-14.71-1.96-.04-.29,14.71-2.94-.06,3.84,4Z" fill="#040000"/>
      <path d="m413.53,132.33l-4,3.84,2.94.06-.29,14.71,1.96.04.29-14.71,2.94.06-3.84-4Z" fill="#040000"/>
    </g>
    <g id="_矢印-3" data-name="矢印">
      <path d="m483.86,165.35l3.84,4,.06-2.94,14.71.29.04-1.96-14.71-.29.06-2.94-4,3.84Z" fill="#040000"/>
      <path d="m504.23,165.76l-3.84-4-.06,2.94-14.71-.29-.04,1.96,14.71.29-.06,2.94,4-3.84Z" fill="#040000"/>
    </g>
    <g id="_矢印-4" data-name="矢印">
      <path d="m199.45,402.27l3.84,4,.06-2.94,14.71.29.04-1.96-14.71-.29.06-2.94-4,3.84Z" fill="#040000"/>
      <path d="m219.82,402.67l-3.84-4-.06,2.94-14.71-.29-.04,1.96,14.71.29-.06,2.94,4-3.84Z" fill="#040000"/>
    </g>
    <g id="_矢印-5" data-name="矢印">
      <path d="m273.51,423.92l-4,3.84,2.94.06-.29,14.71,1.96.04.29-14.71,2.94.06-3.84-4Z" fill="#040000"/>
      <path d="m273.1,444.29l4-3.84-2.94-.06.29-14.71-1.96-.04-.29,14.71-2.94-.06,3.84,4Z" fill="#040000"/>
    </g>
    <g id="_矢印-6" data-name="矢印">
      <path d="m363.21,423.05l-4,3.84,2.94.06-.29,14.71,1.96.04.29-14.71,2.94.06-3.84-4Z" fill="#040000"/>
      <path d="m362.8,443.43l4-3.84-2.94-.06.29-14.71-1.96-.04-.29,14.71-2.94-.06,3.84,4Z" fill="#040000"/>
    </g>
    <g id="_矢印-7" data-name="矢印">
      <path d="m607.47,402.14l3.84,4,.06-2.94,14.71.29.04-1.96-14.71-.29.06-2.94-4,3.84Z" fill="#040000"/>
      <path d="m627.84,402.55l-3.84-4-.06,2.94-14.71-.29-.04,1.96,14.71.29-.06,2.94,4-3.84Z" fill="#040000"/>
    </g>
  </g>
  <g id="_トイレマーク" data-name="トイレマーク">
    <g>
      <path d="m400.1,417.94c1.77,0,3.21-1.44,3.21-3.21s-1.44-3.21-3.21-3.21-3.21,1.44-3.21,3.21,1.44,3.21,3.21,3.21Z" fill="#fff"/>
      <path d="m388.15,417.94c1.77,0,3.21-1.44,3.21-3.21s-1.44-3.21-3.21-3.21-3.21,1.44-3.21,3.21,1.44,3.21,3.21,3.21Z" fill="#fff"/>
      <path d="m404.97,430.4l-4.4-10.36c-.08-.19-.26-.31-.47-.31s-.39.12-.47.31l-4.4,10.36c-.27.62-.2,1.34.17,1.91.37.57,1.01.91,1.69.91h6.02c.68,0,1.31-.34,1.69-.91.37-.57.44-1.28.17-1.91Z" fill="#fff"/>
      <path d="m391.16,419.73h-6.02c-.68,0-1.31.34-1.69.91-.37.57-.44,1.28-.17,1.91l4.4,10.36c.08.19.26.31.47.31s.39-.12.47-.31l4.4-10.36c.27-.62.2-1.34-.17-1.91-.37-.57-1.01-.91-1.69-.91Z" fill="#fff"/>
    </g>
    <g>
      <path d="m395.89,79.65c1.77,0,3.21-1.44,3.21-3.21s-1.44-3.21-3.21-3.21-3.21,1.44-3.21,3.21,1.44,3.21,3.21,3.21Z" fill="#fff"/>
      <path d="m398.9,81.43h-6.02c-.68,0-1.31.34-1.69.91-.37.57-.44,1.28-.17,1.91l4.4,10.36c.08.19.26.31.47.31s.39-.12.47-.31l4.4-10.36c.27-.62.2-1.34-.17-1.91-.37-.57-1.01-.91-1.69-.91Z" fill="#fff"/>
    </g>
    <g>
      <path d="m377.64,79.65c1.77,0,3.21-1.44,3.21-3.21s-1.44-3.21-3.21-3.21-3.21,1.44-3.21,3.21,1.44,3.21,3.21,3.21Z" fill="#fff"/>
      <path d="m382.51,92.1l-4.4-10.36c-.08-.19-.26-.31-.47-.31s-.39.12-.47.31l-4.4,10.36c-.27.62-.2,1.34.17,1.91.37.57,1.01.91,1.69.91h6.02c.68,0,1.31-.34,1.69-.91.37-.57.44-1.28.17-1.91Z" fill="#fff"/>
    </g>
  </g>
  <g id="_階段" data-name="階段">
    <g>
      <polygon points="549 55.59 562.27 50.39 562.27 37.43 549 37.43 549 55.59" fill="#5c5a5a"/>
      <polyline points="562.27 68.54 562.27 37.43 549 37.43 549 68.98" fill="none" stroke="#283331" stroke-miterlimit="10"/>
      <line x1="549" y1="55.59" x2="562.27" y2="55.59" fill="none" stroke="#283331" stroke-miterlimit="10" stroke-width=".25"/>
      <line x1="549" y1="57.97" x2="562.27" y2="57.97" fill="none" stroke="#283331" stroke-miterlimit="10" stroke-width=".25"/>
      <line x1="549" y1="60.34" x2="562.27" y2="60.34" fill="none" stroke="#283331" stroke-miterlimit="10" stroke-width=".25"/>
      <line x1="549" y1="62.71" x2="562.27" y2="62.71" fill="none" stroke="#283331" stroke-miterlimit="10" stroke-width=".25"/>
      <line x1="549" y1="65.09" x2="562.27" y2="65.09" fill="none" stroke="#283331" stroke-miterlimit="10" stroke-width=".25"/>
      <line x1="549" y1="67.46" x2="562.27" y2="67.46" fill="none" stroke="#283331" stroke-miterlimit="10" stroke-width=".25"/>
    </g>
    <g>
      <polygon points="133.08 432.89 146.34 427.69 146.34 414.73 133.08 414.73 133.08 432.89" fill="#5c5a5a"/>
      <polyline points="146.34 445.84 146.34 414.73 133.08 414.73 133.08 446.28" fill="none" stroke="#283331" stroke-miterlimit="10"/>
      <line x1="133.08" y1="432.89" x2="146.34" y2="432.89" fill="none" stroke="#283331" stroke-miterlimit="10" stroke-width=".25"/>
      <line x1="133.08" y1="435.27" x2="146.34" y2="435.27" fill="none" stroke="#283331" stroke-miterlimit="10" stroke-width=".25"/>
      <line x1="133.08" y1="437.64" x2="146.34" y2="437.64" fill="none" stroke="#283331" stroke-miterlimit="10" stroke-width=".25"/>
      <line x1="133.08" y1="440.01" x2="146.34" y2="440.01" fill="none" stroke="#283331" stroke-miterlimit="10" stroke-width=".25"/>
      <line x1="133.08" y1="442.38" x2="146.34" y2="442.38" fill="none" stroke="#283331" stroke-miterlimit="10" stroke-width=".25"/>
      <line x1="133.08" y1="444.76" x2="146.34" y2="444.76" fill="none" stroke="#283331" stroke-miterlimit="10" stroke-width=".25"/>
    </g>
    <g>
      <polygon points="159.5 154.15 164.7 167.42 177.66 167.42 177.66 154.15 159.5 154.15" fill="#5c5a5a"/>
      <polyline points="146.55 167.42 177.66 167.42 177.66 154.15 146.11 154.15" fill="none" stroke="#283331" stroke-miterlimit="10"/>
      <line x1="159.5" y1="154.15" x2="159.5" y2="167.42" fill="none" stroke="#283331" stroke-miterlimit="10" stroke-width=".25"/>
      <line x1="157.12" y1="154.15" x2="157.12" y2="167.42" fill="none" stroke="#283331" stroke-miterlimit="10" stroke-width=".25"/>
      <line x1="154.75" y1="154.15" x2="154.75" y2="167.42" fill="none" stroke="#283331" stroke-miterlimit="10" stroke-width=".25"/>
      <line x1="152.38" y1="154.15" x2="152.38" y2="167.42" fill="none" stroke="#283331" stroke-miterlimit="10" stroke-width=".25"/>
      <line x1="150.01" y1="154.15" x2="150.01" y2="167.42" fill="none" stroke="#283331" stroke-miterlimit="10" stroke-width=".25"/>
      <line x1="147.63" y1="154.15" x2="147.63" y2="167.42" fill="none" stroke="#283331" stroke-miterlimit="10" stroke-width=".25"/>
    </g>
    <g>
      <polygon points="644.64 408.25 631.37 413.45 631.37 426.41 644.64 426.41 644.64 408.25" fill="#5c5a5a"/>
      <polyline points="631.37 395.3 631.37 426.41 644.64 426.41 644.64 394.86" fill="none" stroke="#283331" stroke-miterlimit="10"/>
      <line x1="644.64" y1="408.25" x2="631.37" y2="408.25" fill="none" stroke="#283331" stroke-miterlimit="10" stroke-width=".25"/>
      <line x1="644.64" y1="405.87" x2="631.37" y2="405.87" fill="none" stroke="#283331" stroke-miterlimit="10" stroke-width=".25"/>
      <line x1="644.64" y1="403.5" x2="631.37" y2="403.5" fill="none" stroke="#283331" stroke-miterlimit="10" stroke-width=".25"/>
      <line x1="644.64" y1="401.13" x2="631.37" y2="401.13" fill="none" stroke="#283331" stroke-miterlimit="10" stroke-width=".25"/>
      <line x1="644.64" y1="398.76" x2="631.37" y2="398.76" fill="none" stroke="#283331" stroke-miterlimit="10" stroke-width=".25"/>
      <line x1="644.64" y1="396.38" x2="631.37" y2="396.38" fill="none" stroke="#283331" stroke-miterlimit="10" stroke-width=".25"/>
    </g>
    <g>
      <polygon points="333.62 424.21 326.68 421.41 321.57 426.55 326.46 431.41 333.62 424.21" fill="#5c5a5a"/>
      <polyline points="333.84 414.21 321.57 426.55 326.46 431.41 338.9 418.9" fill="none" stroke="#283331" stroke-miterlimit="10"/>
      <line x1="333.62" y1="424.21" x2="328.73" y2="419.35" fill="none" stroke="#283331" stroke-miterlimit="10" stroke-width=".25"/>
      <line x1="334.56" y1="423.27" x2="329.67" y2="418.4" fill="none" stroke="#283331" stroke-miterlimit="10" stroke-width=".25"/>
      <line x1="335.49" y1="422.32" x2="330.61" y2="417.46" fill="none" stroke="#283331" stroke-miterlimit="10" stroke-width=".25"/>
      <line x1="336.43" y1="421.38" x2="331.54" y2="416.52" fill="none" stroke="#283331" stroke-miterlimit="10" stroke-width=".25"/>
      <line x1="337.37" y1="420.44" x2="332.48" y2="415.58" fill="none" stroke="#283331" stroke-miterlimit="10" stroke-width=".25"/>
      <line x1="338.3" y1="419.5" x2="333.41" y2="414.64" fill="none" stroke="#283331" stroke-miterlimit="10" stroke-width=".25"/>
    </g>
    <g>
      <polygon points="479.87 316.86 466.61 322.07 466.61 335.02 479.87 335.02 479.87 316.86" fill="#5c5a5a"/>
      <polyline points="466.61 303.92 466.61 335.02 479.87 335.02 479.87 303.48" fill="none" stroke="#283331" stroke-miterlimit="10"/>
      <line x1="479.87" y1="316.86" x2="466.61" y2="316.86" fill="none" stroke="#283331" stroke-miterlimit="10" stroke-width=".25"/>
      <line x1="479.87" y1="314.49" x2="466.61" y2="314.49" fill="none" stroke="#283331" stroke-miterlimit="10" stroke-width=".25"/>
      <line x1="479.87" y1="312.12" x2="466.61" y2="312.12" fill="none" stroke="#283331" stroke-miterlimit="10" stroke-width=".25"/>
      <line x1="479.87" y1="309.75" x2="466.61" y2="309.75" fill="none" stroke="#283331" stroke-miterlimit="10" stroke-width=".25"/>
      <line x1="479.87" y1="307.37" x2="466.61" y2="307.37" fill="none" stroke="#283331" stroke-miterlimit="10" stroke-width=".25"/>
      <line x1="479.87" y1="305" x2="466.61" y2="305" fill="none" stroke="#283331" stroke-miterlimit="10" stroke-width=".25"/>
    </g>
  </g>
  <g id="MLOC-available">
    <rect id="4-7-kenpuku_room102" data-name="4-7-kenpuku_room102" x="55.69" y="67.33" width="58.44" height="79.04" fill="#aaddf7" stroke="#283331" stroke-miterlimit="10"/>
    <rect id="4-7-kenpuku_room101" data-name="4-7-kenpuku_room101" x="55.69" y="163.18" width="58.44" height="82.1" fill="#aaddf7" stroke="#283331" stroke-miterlimit="10"/>
    <rect id="4-7-kenpuku_room103" data-name="4-7-kenpuku_room103" x="114.13" y="50.43" width="63.67" height="76.53" fill="#aaddf7" stroke="#283331" stroke-miterlimit="10"/>
    <rect id="4-7-kenpuku_room104" data-name="4-7-kenpuku_room104" x="177.8" y="50.43" width="63.67" height="76.53" fill="#aaddf7" stroke="#283331" stroke-miterlimit="10"/>
    <rect id="4-7-kenpuku_room105" data-name="4-7-kenpuku_room105" x="241.47" y="65.99" width="63.67" height="76.53" fill="#aaddf7" stroke="#283331" stroke-miterlimit="10"/>
  </g>
  <g id="MNOINT-words">
    <g>
      <path d="m409.79,41.04c.34.06.59.07,1.12.07h.96c.53,0,.71-.01,1.13-.06-.07.73-.1,1.3-.1,1.99v5.96c0,.61.02,1.01.1,1.49h-1.55c.07-.46.1-.89.1-1.49v-6.74h-.6c-.41,0-.74.02-1.15.07v-1.29Z" fill="#231815"/>
      <path d="m418.07,41.04c.34.06.59.07,1.12.07h.96c.53,0,.71-.01,1.13-.06-.07.73-.1,1.3-.1,1.99v5.96c0,.61.02,1.01.1,1.49h-1.55c.07-.46.1-.89.1-1.49v-6.74h-.6c-.41,0-.74.02-1.15.07v-1.29Z" fill="#231815"/>
      <path d="m426.2,49.75c-.35-.35-.6-.74-.76-1.16-.31-.85-.47-1.79-.47-2.77,0-1.26.29-2.58.71-3.29.62-1.03,1.64-1.6,2.91-1.6.97,0,1.79.31,2.4.92.35.35.61.74.76,1.16.31.84.47,1.8.47,2.78,0,1.46-.32,2.76-.86,3.51-.65.9-1.58,1.35-2.77,1.35-.97,0-1.78-.31-2.39-.92Zm.98-7.05c-.25.28-.42.59-.52.9-.22.67-.32,1.44-.32,2.24,0,1.06.23,2.17.54,2.7.38.65.96.97,1.71.97.56,0,1.06-.19,1.38-.53.25-.26.44-.6.55-.97.22-.7.32-1.42.32-2.22,0-.97-.2-2.07-.49-2.63-.37-.72-.95-1.08-1.77-1.08-.6,0-1.04.19-1.4.61Z" fill="#231815"/>
    </g>
    <g>
      <path d="m237.97,363.96c0,1.08-.35,1.31-1.98,1.31-.36,0-1.12-.03-1.65-.06-.14-.67-.21-.9-.42-1.33.76.11,1.41.15,1.9.15.67,0,.78-.04.78-.36v-2.54h-4.24c-.75,0-1.29.03-1.73.09v-1.4c.46.06,1.04.09,1.71.09h4.26v-.17c0-.3-.02-.58-.04-.85h.65c.82-.41,1.42-.81,2.16-1.41h-4.71c-.57,0-1.05.03-1.47.08v-1.29c.44.06.9.08,1.5.08h5.15c.55,0,.85-.02,1.12-.06l.72.78c-.21.2-.36.3-.4.34-1.16.99-2.02,1.59-3.3,2.29v.21h4.14c.69,0,1.31-.03,1.74-.09v1.4c-.43-.06-1-.09-1.75-.09h-4.12v2.83Zm-4.58-9.99c-.39-.71-.61-1.04-1.24-1.79l1.27-.39c.55.69.88,1.2,1.42,2.17h1.83c-.23-.66-.54-1.29-.99-2l1.32-.36c.57,1.05.75,1.47,1.06,2.35h1.42c.65-.81.96-1.33,1.35-2.31l1.35.43c-.39.69-.87,1.39-1.24,1.88h.87c.96,0,1.25-.01,1.8-.06-.05.38-.06.69-.06,1.24v1.28c0,.39.03.75.07,1.11h-1.38v-2.42h-10.09v2.42h-1.38c.04-.33.08-.69.08-1.11v-1.28c0-.55-.02-.87-.06-1.24.65.06.84.06,1.75.06h.84Z" fill="#231815"/>
      <path d="m248.53,355.91c-.58,1.21-1.26,2.27-2.04,3.13-.57-.61-.61-.64-1.11-.97,1.15-1.2,2.04-2.75,2.61-4.48.19-.63.29-.98.31-1.4l1.48.38q-.18.5-.28.86c-.08.22-.23.64-.45,1.25h2.7v-1.32c0-.71-.03-1.17-.1-1.71h1.64c-.06.5-.09.97-.09,1.71v1.32h3.35c.73,0,1.3-.03,1.9-.09v1.43c-.63-.06-1.18-.09-1.87-.09h-3.38v2.94h2.76c.75,0,1.27-.03,1.75-.09v1.42c-.47-.06-1.05-.09-1.74-.09h-2.77v3.46h3.84c.79,0,1.38-.03,1.95-.11v1.47c-.67-.07-1.14-.1-1.92-.1h-9.36c-.76,0-1.33.03-1.99.1v-1.47c.6.08,1.19.11,1.95.11h4.09v-3.46h-2.47c-.71,0-1.27.03-1.73.09v-1.42c.45.06.93.09,1.71.09h2.49v-2.94h-3.22Z" fill="#231815"/>
      <path d="m269.3,355.17v-1.35c0-.97,0-1.17-.06-1.53h1.62c-.04.36-.04.45-.06,1v1.88h1.08c.99,0,1.32-.02,1.88-.11v1.56c-.51-.06-.93-.08-1.84-.08h-1.12q-.04,2.02-.11,2.59c-.21,1.86-.85,3.13-2.14,4.21-.78.66-1.49,1.05-2.82,1.51-.24-.54-.4-.76-.94-1.32,1.35-.41,2.11-.78,2.86-1.44,1.02-.9,1.46-1.89,1.59-3.66.03-.4.05-.93.06-1.9h-4.16v1.77c0,.78.03,1.44.08,1.82h-1.68c.04-.48.08-1.07.08-1.77v-1.81h-1.07c-.88,0-1.23.01-1.84.08v-1.56c.62.09.92.11,1.88.11h1.04v-1.38c0-.53-.03-1.2-.08-1.52h1.7c-.06.44-.09.96-.09,1.5v1.4h4.17Z" fill="#231815"/>
      <path d="m279.65,357.69l-.25.97c-.25.99-.63,2.03-1.11,3-.43.9-.75,1.41-1.37,2.24-.58-.45-.79-.57-1.44-.84.97-1.11,1.56-2.15,2.14-3.84.29-.81.41-1.33.47-1.92l1.56.39Zm7.68-2.98c-.67-.23-1.17-.89-1.17-1.65,0-.96.76-1.74,1.72-1.74s1.74.78,1.74,1.74c0,.79-.53,1.46-1.25,1.67v1.47c-.72-.08-.96-.09-1.92-.09h-3.5v7.18c0,.99.02,1.26.08,1.8h-1.72c.06-.48.09-.92.09-1.81v-7.17h-3.41c-.94,0-1.29.01-1.89.09v-1.59c.57.08,1.04.11,1.91.11h3.39v-.9c0-.76-.03-1.16-.09-1.54h1.72c-.06.45-.08.85-.08,1.58v.87h4.37Zm-1.16,2.61c.11.48.23.88.54,1.68.67,1.79,1.26,2.85,2.21,4.02-.64.33-.84.46-1.41.92-1.15-1.74-1.81-3.17-2.56-5.55-.12-.39-.15-.46-.25-.69l1.48-.38Zm.71-4.26c0,.55.45,1.02,1,1.02s1.02-.47,1.02-1.02-.45-1.02-1.02-1.02-1,.46-1,1.02Z" fill="#231815"/>
      <path d="m290.9,357.53c.55.08,1.2.11,2.31.11h8.12c1.29,0,1.65-.02,2.23-.09v1.74c-.66-.06-1.14-.08-2.25-.08h-8.08c-1.26,0-1.71.02-2.33.08v-1.75Z" fill="#231815"/>
      <path d="m308.89,364.74c.07-.64.09-1.02.09-1.92v-8.92c0-1.04-.02-1.38-.09-1.8h1.77c-.06.48-.09.99-.09,1.83v2.54c2.14.75,4.24,1.74,6.75,3.16l-.87,1.49c-.67-.46-1.07-.71-1.86-1.14-1.14-.62-2.77-1.42-3.58-1.77q-.25-.1-.48-.25,0,.21.03.58c0,.13.02.6.02.75v3.54c0,.79.03,1.37.09,1.92h-1.77Z" fill="#231815"/>
      <path d="m324.11,353.82c0-.84-.01-.99-.08-1.48h1.74c-.08.5-.09.78-.09,1.48v1.92l5.71-.72c.51-.06.73-.12,1.03-.24l.96.84c-.17.22-.18.24-.39.69-.88,1.8-1.9,2.99-3.64,4.25-.5-.54-.67-.69-1.26-1,1.12-.65,2.1-1.5,2.73-2.43.21-.28.25-.36.46-.75q-.38.08-.79.14l-4.83.64v3.41c0,1.33.04,1.62.35,1.86.27.24.85.33,2.01.33,1.63,0,3.27-.21,4.48-.57l.08,1.69c-.4.02-.52.03-.9.08-1.66.18-2.64.25-3.66.25-1.96,0-2.85-.21-3.38-.78-.45-.51-.54-.93-.54-2.61v-3.48l-1.42.2c-1.16.17-1.19.17-1.73.3l-.18-1.6c.13.01.24.01.3.01.33,0,.83-.04,1.46-.12l1.58-.21v-2.08Z" fill="#231815"/>
      <path d="m336.65,362.55c1.21-.05,3.03-.51,4.41-1.12,1.88-.83,3.28-1.96,4.47-3.65.67-.99,1.11-1.8,1.57-3.03.5.61.69.79,1.31,1.23-1.25,2.71-2.66,4.46-4.68,5.82-1.52,1.03-3.38,1.77-5.67,2.25-.57.12-.63.14-.95.24l-.46-1.74Zm1.14-9.3c1.71,1.06,2.66,1.78,3.78,2.86l-1.08,1.33c-1.16-1.23-2.37-2.2-3.73-3l1.03-1.2Z" fill="#231815"/>
      <path d="m357.41,352.08q-.17.27-.48.92c-.2.4-.3.6-.41.75.09,0,.3-.02.62-.03l3.57-.04c.51,0,.81-.04,1.14-.15l.87.87c-.18.24-.21.33-.45.99-.51,1.38-1.3,3.09-1.96,4.14-1.51,2.42-3.57,4.12-6.75,5.59-.39-.66-.56-.88-1.04-1.3,1.29-.51,2.05-.92,3-1.54,1.09-.74,1.75-1.31,2.5-2.21-1.07-.93-2.04-1.63-3.2-2.26l.98-1.1c1.26.72,1.96,1.2,3.13,2.15.75-1.17,1.36-2.45,1.81-3.81l-4.88.05c-1.05,1.6-2.07,2.76-3.52,3.96-.42-.46-.6-.61-1.26-1,1.62-1.2,2.85-2.58,3.79-4.29.45-.81.75-1.52.87-2.06l1.65.39Z" fill="#231815"/>
      <path d="m365.9,357.53c.55.08,1.2.11,2.31.11h8.12c1.29,0,1.65-.02,2.23-.09v1.74c-.66-.06-1.14-.08-2.25-.08h-8.08c-1.26,0-1.71.02-2.33.08v-1.75Z" fill="#231815"/>
    </g>
    <g>
      <path d="m556.46,124.36c-.41-.06-.77-.08-1.46-.08h-3.66c-.67,0-.95.01-1.44.04.07-.47.1-.86.1-1.52v-6.45c0-.58-.02-.95-.1-1.48.43.02.77.04,1.44.04h3.54c.59,0,1.08-.02,1.46-.08v1.34c-.43-.06-.8-.08-1.46-.08h-3.55v2.72h3.01c.6,0,1-.02,1.47-.08v1.34c-.44-.06-.77-.08-1.47-.08h-3.02v3.12h3.68c.66,0,.98-.02,1.46-.08v1.36Z" fill="#231815"/>
      <path d="m561.31,122.16c.05.16.14.46.29.89.17-.59.18-.6.28-.89l2.09-6.01c.2-.59.29-.88.34-1.25h1.68c-.18.32-.3.62-.6,1.42l-2.57,6.79c-.2.54-.31.9-.37,1.18h-1.69c-.06-.25-.17-.6-.38-1.18l-2.58-6.79c-.26-.7-.44-1.12-.6-1.42h1.68c.07.38.18.82.34,1.25l2.11,6.01Z" fill="#231815"/>
    </g>
    <g>
      <path d="m510.23,209.92c.34.06.59.07,1.12.07h.96c.53,0,.71-.01,1.13-.06-.07.73-.1,1.3-.1,1.99v5.96c0,.61.02,1.01.1,1.49h-1.55c.07-.46.1-.89.1-1.49v-6.74h-.6c-.41,0-.74.02-1.15.07v-1.29Z" fill="#231815"/>
      <path d="m518.76,219.37c-.88,0-1.06.01-1.46.06.08-.74.17-1.13.34-1.56.31-.82.84-1.55,1.61-2.23.41-.36.78-.64,1.92-1.4,1.14-.77,1.48-1.21,1.48-1.94,0-.83-.68-1.34-1.76-1.34-.74,0-1.3.25-1.63.74-.2.31-.3.58-.38,1.15l-1.43-.19c.16-.85.37-1.34.8-1.85.56-.66,1.46-1.01,2.6-1.01,1.99,0,3.23.97,3.23,2.53,0,.91-.35,1.55-1.21,2.21-.37.28-.54.4-1.61,1.12-1.34.9-1.94,1.58-2.25,2.52h3.57c.7,0,1.22-.02,1.63-.08v1.35c-.53-.05-.98-.07-1.68-.07h-3.75Z" fill="#231815"/>
      <path d="m526.65,218.62c-.35-.35-.6-.74-.76-1.16-.31-.85-.47-1.79-.47-2.77,0-1.26.29-2.58.71-3.29.62-1.03,1.64-1.6,2.91-1.6.97,0,1.79.31,2.4.92.35.35.61.74.76,1.16.31.84.47,1.8.47,2.78,0,1.46-.32,2.76-.86,3.51-.65.9-1.58,1.35-2.77,1.35-.97,0-1.78-.31-2.39-.92Zm.98-7.05c-.25.28-.42.59-.52.9-.22.67-.32,1.44-.32,2.24,0,1.06.23,2.17.54,2.7.38.65.96.97,1.71.97.56,0,1.06-.19,1.38-.53.25-.26.44-.6.55-.97.22-.7.32-1.42.32-2.22,0-.97-.2-2.07-.49-2.63-.37-.72-.95-1.08-1.77-1.08-.6,0-1.04.19-1.4.61Z" fill="#231815"/>
    </g>
    <g>
      <path d="m51.59,393.39c-.14-.68-.36-1.5-.58-2.08l-.9-2.34h-6.64l-.9,2.34c-.34.86-.46,1.32-.6,2.08h-2.8c.34-.6.64-1.26,1.06-2.34l4.44-11.34c.38-.98.54-1.46.64-1.96h2.88c.1.44.2.74.68,1.96l4.46,11.34c.5,1.24.76,1.84,1.04,2.34h-2.78Zm-4.42-12.54q-.08-.2-.4-1.2-.34,1.04-.4,1.2l-2.28,6.2h5.38l-2.3-6.2Z" fill="#231815"/>
      <path d="m61.73,389.85c.08.26.24.76.48,1.48.28-.98.3-1,.46-1.48l3.48-10.02c.34-.98.48-1.46.56-2.08h2.8c-.3.54-.5,1.04-1,2.36l-4.28,11.32c-.34.9-.52,1.5-.62,1.96h-2.82c-.1-.42-.28-1-.64-1.96l-4.3-11.32c-.44-1.16-.74-1.86-1-2.36h2.8c.12.64.3,1.36.56,2.08l3.52,10.02Z" fill="#231815"/>
      <path d="m88.29,381.46h3.02c.8,0,1.26-.02,1.78-.08-.06.5-.08.96-.08,1.84v3.42c0,.88.02,1.42.08,1.92-.46-.08-1.02-.1-1.88-.1h-2.06c.64.78,1.02,1.18,1.62,1.68,1.06.9,2.24,1.6,3.64,2.18-.5.6-.7.9-1.08,1.7-2.3-1.26-3.78-2.6-5.14-4.64.04.34.04.44.06.76,0,.18.02.3.02.38,0,.18.02.32.02.36v2.18c0,.88.02,1.26.12,1.86h-1.88c.1-.58.14-.96.14-1.84v-2.18c0-.18,0-.3.02-.64l.04-.82c-1.36,2.04-2.72,3.34-4.92,4.68-.38-.76-.62-1.1-1.08-1.6,2.04-.94,3.82-2.38,5.02-4.06h-1.72c-.82,0-1.36.02-1.78.1.06-.54.1-1.06.1-1.9v-3.46c0-.82-.04-1.32-.1-1.82.52.06,1.04.08,1.84.08h2.58v-1.32h-3.12c-.74,0-1.28.02-1.76.08v1.66c-.34-.04-.72-.06-1.14-.06h-.54c.54,1.46,1.2,2.6,2.16,3.64-.42.52-.62.84-.92,1.52-.58-.86-.84-1.38-1.46-2.94.06.78.12,2.32.12,2.98v5.52c0,1.06.02,1.8.12,2.4h-1.92c.08-.62.12-1.36.12-2.4v-4.86c0-.62.04-1.86.1-2.94-.62,2.34-1.26,3.82-2.32,5.34-.38-.94-.54-1.24-.9-1.8,1.3-1.66,2.28-3.86,2.92-6.46h-1.06c-.6,0-1.02.02-1.36.08v-1.76c.34.06.68.08,1.36.08h1.24v-1.66c0-1.06-.02-1.58-.1-2.06h1.9c-.08.5-.1,1.1-.1,2.04v1.68h.62c.42,0,.62-.02.94-.04v-1.76c.58.08,1.12.12,2.02.12h3.08v-.34c0-.74-.04-1.14-.14-1.6h1.86c-.08.44-.1.82-.1,1.58v.36h3.62c.86,0,1.38-.04,1.98-.12v1.82c-.44-.06-1.12-.1-1.96-.1h-3.64v1.32Zm-4.3,1.46v1.34h2.68v-1.34h-2.68Zm0,2.72v1.4h2.68v-1.4h-2.68Zm4.3-1.38h3.06v-1.34h-3.06v1.34Zm0,2.78h3.08v-1.4h-3.08v1.4Z" fill="#231815"/>
    </g>
    <g>
      <path d="m243.35,68.25c.34.06.59.07,1.12.07h.96c.53,0,.71-.01,1.13-.06-.07.73-.1,1.3-.1,1.99v5.96c0,.61.02,1.01.1,1.49h-1.55c.07-.46.1-.89.1-1.49v-6.74h-.6c-.41,0-.74.02-1.15.07v-1.29Z" fill="#231815"/>
      <path d="m251.49,76.95c-.35-.35-.6-.74-.76-1.16-.31-.85-.47-1.79-.47-2.77,0-1.26.29-2.58.71-3.29.62-1.03,1.64-1.6,2.91-1.6.97,0,1.79.31,2.4.92.35.35.61.74.76,1.16.31.84.47,1.8.47,2.78,0,1.46-.32,2.76-.86,3.51-.65.9-1.58,1.35-2.77,1.35-.97,0-1.78-.31-2.39-.92Zm.98-7.05c-.25.28-.42.59-.52.9-.22.67-.32,1.44-.32,2.24,0,1.06.23,2.17.54,2.7.38.65.96.97,1.71.97.56,0,1.06-.19,1.38-.53.25-.26.44-.6.55-.97.22-.7.32-1.42.32-2.22,0-.97-.2-2.07-.49-2.63-.37-.72-.95-1.08-1.77-1.08-.6,0-1.04.19-1.4.61Z" fill="#231815"/>
      <path d="m260.44,71.76c-.01.12-.04.3-.07.52.59-.53,1.24-.77,2.1-.77s1.68.3,2.24.86c.55.55.83,1.27.83,2.19,0,2.05-1.33,3.32-3.47,3.32-1.08,0-1.93-.31-2.55-.95-.34-.35-.5-.62-.76-1.25l1.39-.31c.12.35.19.5.36.7.36.42.91.65,1.57.65,1.26,0,2.09-.84,2.09-2.11s-.77-2.03-2.04-2.03c-.59,0-1.16.23-1.56.62-.17.16-.23.26-.34.52l-1.26-.12c.11-.7.13-.83.17-1.24l.26-2.88c.04-.29.05-.55.05-.74v-.22c-.01-.06-.01-.16-.01-.26.36.04.62.05,1.27.05h2.76c.77,0,1.03-.01,1.56-.1v1.33c-.5-.07-.92-.1-1.56-.1h-2.81l-.23,2.3Z" fill="#231815"/>
    </g>
    <g>
      <path d="m179.68,52.82c.34.06.59.07,1.12.07h.96c.53,0,.71-.01,1.13-.06-.07.73-.1,1.3-.1,1.99v5.96c0,.61.02,1.01.1,1.49h-1.55c.07-.46.1-.89.1-1.49v-6.74h-.6c-.41,0-.74.02-1.15.07v-1.29Z" fill="#231815"/>
      <path d="m187.82,61.53c-.35-.35-.6-.74-.76-1.16-.31-.85-.47-1.79-.47-2.77,0-1.26.29-2.58.71-3.29.62-1.03,1.64-1.6,2.91-1.6.97,0,1.79.31,2.4.92.35.35.61.74.76,1.16.31.84.47,1.8.47,2.78,0,1.46-.32,2.76-.86,3.51-.65.9-1.58,1.35-2.77,1.35-.97,0-1.78-.31-2.39-.92Zm.98-7.05c-.25.28-.42.59-.52.9-.22.67-.32,1.44-.32,2.24,0,1.06.23,2.17.54,2.7.38.65.96.97,1.71.97.56,0,1.06-.19,1.38-.53.25-.26.44-.6.55-.97.22-.7.32-1.42.32-2.22,0-.97-.2-2.07-.49-2.63-.37-.72-.95-1.08-1.77-1.08-.6,0-1.04.19-1.4.61Z" fill="#231815"/>
      <path d="m194.66,58.8q.29-.31.89-1.03l2.91-3.6c.48-.59.67-.85.95-1.28h1.34c-.07.7-.08,1.1-.08,2.03v3.93h.44c.49,0,.78-.02,1.22-.08v1.32c-.46-.06-.73-.08-1.22-.08h-.44v.92c0,.6.02.91.1,1.34h-1.46c.08-.41.11-.78.11-1.36v-.91h-3.27c-.7,0-1.04.01-1.48.05v-1.25Zm4.75-2.64c0-.6.01-.98.06-1.51-.24.35-.42.58-.83,1.1l-2.49,3.11h3.26v-2.7Z" fill="#231815"/>
    </g>
    <g>
      <path d="m179.68,179.74c.34.06.59.07,1.12.07h.96c.53,0,.71-.01,1.13-.06-.07.73-.1,1.3-.1,1.99v5.96c0,.61.02,1.01.1,1.49h-1.55c.07-.46.1-.89.1-1.49v-6.74h-.6c-.41,0-.74.02-1.15.07v-1.29Z" fill="#231815"/>
      <path d="m187.82,188.45c-.35-.35-.6-.74-.76-1.16-.31-.85-.47-1.79-.47-2.77,0-1.26.29-2.58.71-3.29.62-1.03,1.64-1.6,2.91-1.6.97,0,1.79.31,2.4.92.35.35.61.74.76,1.16.31.84.47,1.8.47,2.78,0,1.46-.32,2.76-.86,3.51-.65.9-1.58,1.35-2.77,1.35-.97,0-1.78-.31-2.39-.92Zm.98-7.05c-.25.28-.42.59-.52.9-.22.67-.32,1.44-.32,2.24,0,1.06.23,2.17.54,2.7.38.65.96.97,1.71.97.56,0,1.06-.19,1.38-.53.25-.26.44-.6.55-.97.22-.7.32-1.42.32-2.22,0-.97-.2-2.07-.49-2.63-.37-.72-.95-1.08-1.77-1.08-.6,0-1.04.19-1.4.61Z" fill="#231815"/>
      <path d="m196.5,187.01c.13.36.22.52.38.71.31.35.82.53,1.45.53.82,0,1.39-.34,1.82-1.06.23-.38.4-.92.48-1.51.04-.25.06-.56.08-1.08-.2.34-.31.47-.58.68-.56.46-1.16.66-2,.66-.98,0-1.79-.29-2.34-.84-.54-.54-.84-1.34-.84-2.25,0-1.94,1.38-3.24,3.48-3.24,1.25,0,2.31.59,2.89,1.62.4.67.59,1.68.59,2.99,0,1.87-.41,3.32-1.15,4.14-.64.68-1.42,1-2.53,1-.89,0-1.58-.2-2.13-.62-.42-.32-.66-.64-1-1.33l1.39-.38Zm1.86-2.16c1.19,0,2.11-.9,2.11-2.06s-.9-2.06-2.11-2.06c-.59,0-1.12.22-1.5.6-.38.38-.56.88-.56,1.49,0,1.28.76,2.04,2.06,2.04Z" fill="#231815"/>
    </g>
    <g>
      <path d="m57.57,165.3c.34.06.59.07,1.12.07h.96c.53,0,.71-.01,1.13-.06-.07.73-.1,1.3-.1,1.99v5.96c0,.61.02,1.01.1,1.49h-1.55c.07-.46.1-.89.1-1.49v-6.74h-.6c-.41,0-.74.02-1.15.07v-1.29Z" fill="#231815"/>
      <path d="m65.7,174.01c-.35-.35-.6-.74-.76-1.16-.31-.85-.47-1.79-.47-2.77,0-1.26.29-2.58.71-3.29.62-1.03,1.64-1.6,2.91-1.6.97,0,1.79.31,2.4.92.35.35.61.74.76,1.16.31.84.47,1.8.47,2.78,0,1.46-.32,2.76-.86,3.51-.65.9-1.58,1.35-2.77,1.35-.97,0-1.78-.31-2.39-.92Zm.98-7.05c-.25.28-.42.59-.52.9-.22.67-.32,1.44-.32,2.24,0,1.06.23,2.17.54,2.7.38.65.96.97,1.71.97.56,0,1.06-.19,1.38-.53.25-.26.44-.6.55-.97.22-.7.32-1.42.32-2.22,0-.97-.2-2.07-.49-2.63-.37-.72-.95-1.08-1.77-1.08-.6,0-1.04.19-1.4.61Z" fill="#231815"/>
      <path d="m74.13,165.3c.34.06.59.07,1.12.07h.96c.53,0,.71-.01,1.13-.06-.07.73-.1,1.3-.1,1.99v5.96c0,.61.02,1.01.1,1.49h-1.55c.07-.46.1-.89.1-1.49v-6.74h-.6c-.41,0-.74.02-1.15.07v-1.29Z" fill="#231815"/>
    </g>
    <g>
      <path d="m57.57,68.39c.34.06.59.07,1.12.07h.96c.53,0,.71-.01,1.13-.06-.07.73-.1,1.3-.1,1.99v5.96c0,.61.02,1.01.1,1.49h-1.55c.07-.46.1-.89.1-1.49v-6.74h-.6c-.41,0-.74.02-1.15.07v-1.29Z" fill="#231815"/>
      <path d="m65.7,77.1c-.35-.35-.6-.74-.76-1.16-.31-.85-.47-1.79-.47-2.77,0-1.26.29-2.58.71-3.29.62-1.03,1.64-1.6,2.91-1.6.97,0,1.79.31,2.4.92.35.35.61.74.76,1.16.31.84.47,1.8.47,2.78,0,1.46-.32,2.76-.86,3.51-.65.9-1.58,1.35-2.77,1.35-.97,0-1.78-.31-2.39-.92Zm.98-7.05c-.25.28-.42.59-.52.9-.22.67-.32,1.44-.32,2.24,0,1.06.23,2.17.54,2.7.38.65.96.97,1.71.97.56,0,1.06-.19,1.38-.53.25-.26.44-.6.55-.97.22-.7.32-1.42.32-2.22,0-.97-.2-2.07-.49-2.63-.37-.72-.95-1.08-1.77-1.08-.6,0-1.04.19-1.4.61Z" fill="#231815"/>
      <path d="m74.38,77.84c-.88,0-1.06.01-1.46.06.08-.74.17-1.13.34-1.56.31-.82.84-1.55,1.61-2.23.41-.36.78-.64,1.92-1.4,1.14-.77,1.48-1.21,1.48-1.94,0-.83-.68-1.34-1.76-1.34-.74,0-1.3.25-1.63.74-.2.31-.3.58-.38,1.15l-1.43-.19c.16-.85.37-1.34.8-1.85.56-.66,1.46-1.01,2.6-1.01,1.99,0,3.23.97,3.23,2.53,0,.91-.35,1.55-1.21,2.21-.37.28-.54.4-1.61,1.12-1.34.9-1.94,1.58-2.25,2.52h3.57c.7,0,1.22-.02,1.63-.08v1.35c-.53-.05-.98-.07-1.68-.07h-3.75Z" fill="#231815"/>
    </g>
    <g>
      <path d="m116.01,52.96c.34.06.59.07,1.12.07h.96c.53,0,.71-.01,1.13-.06-.07.73-.1,1.3-.1,1.99v5.96c0,.61.02,1.01.1,1.49h-1.55c.07-.46.1-.89.1-1.49v-6.74h-.6c-.41,0-.74.02-1.15.07v-1.29Z" fill="#231815"/>
      <path d="m124.15,61.67c-.35-.35-.6-.74-.76-1.16-.31-.85-.47-1.79-.47-2.77,0-1.26.29-2.58.71-3.29.62-1.03,1.64-1.6,2.91-1.6.97,0,1.79.31,2.4.92.35.35.61.74.76,1.16.31.84.47,1.8.47,2.78,0,1.46-.32,2.76-.86,3.51-.65.9-1.58,1.35-2.77,1.35-.97,0-1.78-.31-2.39-.92Zm.98-7.05c-.25.28-.42.59-.52.9-.22.67-.32,1.44-.32,2.24,0,1.06.23,2.17.54,2.7.38.65.96.97,1.71.97.56,0,1.06-.19,1.38-.53.25-.26.44-.6.55-.97.22-.7.32-1.42.32-2.22,0-.97-.2-2.07-.49-2.63-.37-.72-.95-1.08-1.77-1.08-.6,0-1.04.19-1.4.61Z" fill="#231815"/>
      <path d="m132.63,59.97c.16.55.3.78.63,1.03.41.3.9.46,1.5.46,1.26,0,2.07-.65,2.07-1.67,0-1.08-.78-1.67-2.21-1.67-.46,0-.78.01-1.16.06v-1.27c.29.05.66.07.96.07.61,0,1.16-.12,1.46-.32.44-.29.67-.73.67-1.27,0-.92-.64-1.42-1.81-1.42-.66,0-1.14.2-1.45.6-.17.22-.24.38-.35.78l-1.43-.26c.2-.67.4-1.01.78-1.38.59-.58,1.45-.88,2.53-.88,1.9,0,3.12.97,3.12,2.47,0,.73-.31,1.38-.84,1.76-.29.22-.54.31-1.14.46.83.11,1.28.31,1.7.77.4.43.58.95.58,1.66,0,.65-.26,1.3-.71,1.73-.62.61-1.58.94-2.78.94-1.32,0-2.27-.35-2.92-1.07-.29-.32-.43-.62-.65-1.27l1.43-.3Z" fill="#231815"/>
    </g>
    <g>
      <path d="m244.73,165.3c.34.06.59.07,1.12.07h.96c.53,0,.71-.01,1.13-.06-.07.73-.1,1.3-.1,1.99v5.96c0,.61.02,1.01.1,1.49h-1.55c.07-.46.1-.89.1-1.49v-6.74h-.6c-.41,0-.74.02-1.15.07v-1.29Z" fill="#231815"/>
      <path d="m252.87,174.01c-.35-.35-.6-.74-.76-1.16-.31-.85-.47-1.79-.47-2.77,0-1.26.29-2.58.71-3.29.62-1.03,1.64-1.6,2.91-1.6.97,0,1.79.31,2.4.92.35.35.61.74.76,1.16.31.84.47,1.8.47,2.78,0,1.46-.32,2.76-.86,3.51-.65.9-1.58,1.35-2.77,1.35-.97,0-1.78-.31-2.39-.92Zm.98-7.05c-.25.28-.42.59-.52.9-.22.67-.32,1.44-.32,2.24,0,1.06.23,2.17.54,2.7.38.65.96.97,1.71.97.56,0,1.06-.19,1.38-.53.25-.26.44-.6.55-.97.22-.7.32-1.42.32-2.22,0-.97-.2-2.07-.49-2.63-.37-.72-.95-1.08-1.77-1.08-.6,0-1.04.19-1.4.61Z" fill="#231815"/>
      <path d="m266.93,166.49c-.31.29-.59.66-1.1,1.5-.95,1.54-1.46,2.67-1.89,4.19-.24.86-.36,1.42-.52,2.58h-1.59c.42-2.22.74-3.26,1.45-4.73.6-1.24,1.12-2.07,2.12-3.45h-3.79c-.66,0-1,.02-1.47.08v-1.37c.52.06.88.08,1.54.08h3.73c.83,0,1.12-.01,1.54-.06v1.18Z" fill="#231815"/>
    </g>
    <g>
      <path d="m307.21,68.25c.34.06.59.07,1.12.07h.96c.53,0,.71-.01,1.13-.06-.07.73-.1,1.3-.1,1.99v5.96c0,.61.02,1.01.1,1.49h-1.55c.07-.46.1-.89.1-1.49v-6.74h-.6c-.41,0-.74.02-1.15.07v-1.29Z" fill="#231815"/>
      <path d="m315.35,76.95c-.35-.35-.6-.74-.76-1.16-.31-.85-.47-1.79-.47-2.77,0-1.26.29-2.58.71-3.29.62-1.03,1.64-1.6,2.91-1.6.97,0,1.79.31,2.4.92.35.35.61.74.76,1.16.31.84.47,1.8.47,2.78,0,1.46-.32,2.76-.86,3.51-.65.9-1.58,1.35-2.77,1.35-.97,0-1.78-.31-2.39-.92Zm.98-7.05c-.25.28-.42.59-.52.9-.22.67-.32,1.44-.32,2.24,0,1.06.23,2.17.54,2.7.38.65.96.97,1.71.97.56,0,1.06-.19,1.38-.53.25-.26.44-.6.55-.97.22-.7.32-1.42.32-2.22,0-.97-.2-2.07-.49-2.63-.37-.72-.95-1.08-1.77-1.08-.6,0-1.04.19-1.4.61Z" fill="#231815"/>
      <path d="m327.99,70.51c-.34-.89-.84-1.26-1.71-1.26s-1.55.46-1.96,1.34c-.3.66-.43,1.25-.49,2.3.24-.36.37-.52.65-.72.54-.42,1.12-.6,1.89-.6,1.98,0,3.18,1.19,3.18,3.14s-1.37,3.17-3.35,3.17c-.92,0-1.77-.29-2.33-.78-.85-.74-1.32-2.16-1.32-3.93,0-1.46.36-2.84.95-3.65.7-.94,1.59-1.38,2.79-1.38.96,0,1.74.29,2.29.84.32.32.5.6.74,1.18l-1.34.35Zm-3.93,4.2c0,1.19.9,2.05,2.11,2.05.76,0,1.4-.34,1.76-.9.18-.29.29-.71.29-1.15,0-1.28-.74-2.04-2-2.04s-2.16.88-2.16,2.04Z" fill="#231815"/>
    </g>
    <g>
      <path d="m332.59,244.87c0-1.04-.04-1.48-.14-2.14h2.16c-.1.6-.12,1.14-.12,2.08v1.48h5.6c.78,0,1.2-.02,1.7-.08-.06.56-.08.96-.08,1.68v5.86c0,.78.02,1.3.1,1.9h-1.98v-1.26h-5.34v4.3c0,1.18.02,1.74.14,2.4h-2.18c.1-.7.14-1.28.14-2.4v-4.3h-5.08v1.26h-2c.08-.68.12-1.12.12-1.9v-5.86c0-.7-.02-1.1-.1-1.68.54.06.96.08,1.68.08h5.38v-1.42Zm-5.08,3.16v4.62h5.08v-4.62h-5.08Zm12.32,4.62v-4.62h-5.34v4.62h5.34Z" fill="#231815"/>
      <path d="m353.01,243.87c0-.54-.02-.86-.1-1.2h2c-.08.32-.1.66-.1,1.22v.48h5.4c.98,0,1.68-.04,2.28-.12v1.8c-.56-.08-1.04-.1-1.9-.1h-13.14c-.02,5.82-.16,8.32-.64,10.76-.34,1.68-.72,2.76-1.48,4.28-.6-.78-.64-.8-1.38-1.42.64-1.22.94-2.16,1.26-3.88.28-1.58.48-4.52.48-7.32,0-.06,0-.56-.02-2.4,0-.94,0-1.2-.06-1.7.72.08,1.38.1,2.26.1h5.14v-.5Zm-3.8,9.86c.2.7.64,1.6,1.16,2.3.48-.9.66-1.4,1-2.92h-1.54c-.6,0-.8,0-1.14.04l-.6-1.08c1.18-1.06,1.98-1.98,2.88-3.38h-1.44c-.54,0-.8.02-1.22.08v-1.68c.4.08.7.1,1.34.1h1.38c.78,0,1.08-.02,1.34-.06l.86,1q-.24.32-.52.74c-.6.9-1.18,1.62-2.24,2.78h1.68c.56,0,.82-.02,1.1-.06-.08.48-.14.72-.14.74-.34,1.96-.88,3.6-1.6,4.9,1.58,1.28,3.44,1.74,6.86,1.74,1.48,0,2.82-.06,4.6-.24-.26.64-.4,1.16-.54,1.96-2.04.04-2.16.04-2.9.04-4.8,0-6.72-.48-8.88-2.22-.82,1.02-1.76,1.84-2.94,2.58-.34-.56-.66-.94-1.14-1.42,1.28-.72,1.98-1.28,2.9-2.32-.5-.64-.68-.88-1.24-1.92-.24-.44-.34-.62-.5-.86l1.48-.84Zm7.64-4.72c-.96.16-1.44.24-2.74.4-.18-.66-.28-.9-.64-1.52,2.86-.12,5.84-.72,7.3-1.48l.94,1.44c-1.04.34-2.06.6-3.16.84v2.64h2.22c.7,0,1.2-.02,1.62-.1v1.78c-.46-.06-.84-.08-1.6-.08h-2.24v2.74h1.78c.74,0,1.04-.02,1.46-.08v1.7c-.52-.06-.74-.08-1.48-.08h-5.02c-.68,0-.96.02-1.44.08v-1.68c.52.06.6.06,1.48.06h1.52v-2.74h-1.76c-.78,0-1.08.02-1.54.08v-1.76c.4.06.74.08,1.58.08h1.72v-2.32Z" fill="#231815"/>
    </g>
    <g>
      <path d="m69.28,100.46q.05-.23.1-.46c-1.52.05-2.41.07-2.67.07-.1-.42-.12-.45-.31-.86.36.01.6.02.75.02,1.93,0,4.15-.13,5.24-.31.55-.09.81-.15,1.08-.25l.76.89q-.12,0-.4.06c-1.04.15-2.29.28-3.31.33-.05.21-.05.22-.13.51h2.89c.41,0,.75-.02,1.07-.06v.97c-.28-.03-.6-.05-.99-.05h-3.24c-.07.2-.1.28-.18.47h3.88c.45,0,.79-.02,1.11-.06v1c-.31-.04-.62-.06-1.11-.06h-4.28c-.13.26-.16.3-.24.46h3.71c.51,0,.71-.01.94-.03-.03.29-.04.51-.04.99v2.96c0,.51,0,.73.05,1.02h-1.2v-.41h-3.68v.41h-1.18c.03-.28.05-.53.05-1.02v-2.07c-.4.45-.85.87-1.46,1.34-.27-.44-.4-.61-.71-.92,1.14-.74,1.98-1.61,2.61-2.73h-1.34c-.48,0-.77.01-1.09.06v-1c.3.04.69.06,1.09.06h1.78c.08-.2.13-.3.19-.47h-1.52c-.4,0-.69.02-.99.05v-.96c.29.04.58.05.99.05h1.78Zm-.2,3.54v.42h3.69v-.42h-3.69Zm0,1.17v.42h3.69v-.42h-3.69Zm0,1.18v.43h3.69v-.43h-3.69Z" fill="#231815"/>
      <path d="m75.84,100.46c.24.04.43.05.81.05h1.64c.41,0,.6,0,.81-.04v1.02c-.21-.02-.33-.03-.76-.03h-1.69c-.37,0-.56,0-.81.04v-1.04Zm8.66,5.15c-.77.72-.95.86-1.54,1.23.64.16,1.39.25,2.23.27-.17.34-.27.6-.36.98-1.32-.15-2.12-.34-2.93-.69-.7.3-1.48.5-2.76.71-.07-.22-.1-.29-.24-.58-.22,0-.38-.02-.57-.02h-1.25v.49h-.98c.03-.3.05-.66.05-.97v-1.53c0-.31,0-.51-.04-.77.21.02.37.03.67.03h1.54c.35,0,.46,0,.6-.03-.03.16-.03.3-.03.72v1.74c.92-.06,1.47-.14,2.05-.31-.38-.24-.62-.42-1-.74l.7-.23h-.5c-.34,0-.59.01-.82.04v-.85c.2.02.42.03.82.03h3.05c.35,0,.56-.01.75-.04l.56.52Zm-1.62-1.56h1.42c.36,0,.51,0,.68-.03v.83c-.23-.04-.46-.05-.81-.05h-3.93c-.29,0-.47.01-.69.03.03-.26.03-.38.03-.72v-.7c0-.07,0-.32.02-.5-.14.16-.2.23-.42.43-.16-.22-.21-.28-.36-.44-.15-.02-.29-.03-.6-.03h-1.42c-.32,0-.41,0-.63.03v-.94c.21.03.31.03.63.03h1.42c.32,0,.42,0,.61-.03v.4c.55-.54.92-1.14,1.18-1.93l.34.09v-.27h-.4c-.28,0-.5,0-.76.04v-.95c.24.03.5.05.85.05h.31c0-.28,0-.38-.04-.55h1.06c-.03.14-.04.18-.04.55h1.34c0-.32-.01-.39-.04-.55h1.06c-.04.16-.04.24-.05.55h.52c.4,0,.63-.01.86-.05v.95c-.23-.03-.49-.04-.85-.04h-.53c0,.26.01.35.04.5h-.53c-.07.13-.1.18-.15.27h1.15c.4,0,.56,0,.76-.04v.82c-.2-.03-.31-.03-.74-.03h-1.29v.31h1.11c.36,0,.49-.01.64-.03v.72c-.17-.02-.31-.03-.64-.03h-1.11v.32h1.1c.36,0,.51-.01.65-.03v.72c-.14-.02-.31-.03-.65-.03h-1.1v.33Zm-6.71-4.99c.24.04.42.05.81.05h1.11c.39,0,.56,0,.81-.05v.97c-.23-.03-.45-.04-.81-.04h-1.11c-.35,0-.56,0-.81.04v-.97Zm0,4.3c.21.03.31.03.63.03h1.41c.33,0,.43,0,.62-.03v.94c-.22-.03-.3-.03-.63-.03h-1.41c-.3,0-.41,0-.62.03v-.94Zm.88,3.26h.96v-1.04h-.96v1.04Zm4.92-4.85h-1.48v.31h1.48v-.31Zm0,.97h-1.48v.32h1.48v-.32Zm-1.48.98v.33h1.48v-.33h-1.48Zm.5-2.99q-.03.07-.14.29h1.18c.1-.17.17-.34.24-.54l.39.1c.01-.14.01-.19.01-.33h-1.34c0,.28.01.35.03.48h-.37Zm-.11,5.18c.31.23.63.41,1.07.6.35-.16.55-.29.97-.6h-2.04Z" fill="#231815"/>
      <path d="m87.2,105.32c-.52,0-.91.02-1.22.06v-1.11c.34.05.74.07,1.21.07h2.72v-.07c0-.2,0-.38-.03-.55h.43c.43-.22.76-.44,1.18-.81h-2.75c-.41,0-.68,0-1,.04v-1c.3.04.58.05,1.01.05h3.31c.39,0,.58-.01.76-.04l.55.61q-.17.14-.36.3c-.71.61-1.22.98-2,1.46h0s2.61.01,2.61.01c.49,0,.93-.02,1.23-.07v1.11c-.29-.04-.72-.06-1.24-.06h-2.6v1.75c0,.35-.03.49-.13.63-.17.25-.51.33-1.41.33-.13,0-.46-.01-.98-.04-.11-.53-.16-.7-.33-1.06.48.07.93.1,1.24.1.44,0,.51-.03.51-.23v-1.48h-2.71Zm.51-4.94c-.23-.44-.36-.64-.75-1.13l1.01-.3c.35.43.58.79.91,1.43h1.06c-.17-.47-.33-.82-.61-1.26l1.04-.29c.41.77.47.91.69,1.55h.85c.3-.4.65-1.03.82-1.5l1.08.3c-.23.43-.52.89-.75,1.2h.45c.68,0,.87,0,1.23-.04-.03.25-.04.45-.04.83v.93c0,.27.02.52.05.76h-1.09v-1.55h-6.52v1.55h-1.09c.04-.23.05-.46.05-.77v-.92c0-.36-.01-.57-.04-.83.45.04.51.04,1.18.04h.47Z" fill="#231815"/>
      <path d="m97.52,100.47c-.41.08-.58.1-1.17.18-.1-.41-.17-.59-.38-.96,1.62-.17,2.81-.46,3.41-.85l.62.92s-.04,0-.16.07c-.27.11-.76.27-1.26.41v1.23h.55c.34,0,.53,0,.74-.05v1.07c-.23-.04-.45-.05-.76-.05h-.48c.28.57.7,1.05,1.38,1.56-.22.28-.38.56-.54.98-.49-.53-.69-.82-.94-1.37.02.25.03.69.05,1.3v1.96c0,.57.01.85.06,1.23h-1.18c.04-.37.06-.71.06-1.23v-1.62c0-.23.01-.52.06-1.27-.32.92-.64,1.53-1.21,2.25-.22-.52-.29-.65-.59-1.04.46-.47.78-.94,1.13-1.62.2-.38.39-.84.48-1.13h-.52c-.36,0-.59,0-.88.06v-1.09c.29.05.51.06.9.06h.63v-1Zm5.44-.42c0-.58,0-.85-.06-1.16h1.21c-.05.33-.06.6-.06,1.15v4.31c.57-.13.63-.15.94-.27l.09,1.17c-.27.03-.56.08-.95.17l-.08.02v1.49c0,.56,0,.86.06,1.18h-1.21c.05-.34.06-.58.06-1.19v-1.24l-2.25.5c-.39.09-.72.18-.97.25l-.13-1.16h.05c.27,0,.5-.05.89-.14l2.41-.54v-4.54Zm-2.44,1.89c.89.63,1.25.93,1.89,1.55l-.63.89c-.79-.83-1.16-1.15-1.9-1.64l.64-.8Zm.34-2.5c.97.66,1.38.99,1.93,1.57l-.68.9c-.64-.72-1.07-1.1-1.89-1.65l.64-.82Z" fill="#231815"/>
      <path d="m84.8,118.02c-.32.31-.61.72-1.04,1.44-1.06,1.77-1.59,3.3-1.86,5.41h-1.58c.33-1.67.63-2.63,1.21-3.87.46-.99.87-1.67,1.75-2.91h-3.09c-.59,0-.9.02-1.31.07v-1.32c.46.05.78.07,1.37.07h3.18c.75,0,1.01,0,1.37-.05v1.16Z" fill="#231815"/>
      <path d="m87.25,124.87c-.78,0-.94,0-1.29.05.06-.57.13-.92.26-1.28.27-.73.72-1.37,1.37-1.96.35-.31.65-.54,1.65-1.21.92-.63,1.2-.96,1.2-1.47,0-.68-.53-1.1-1.38-1.1-.58,0-1.02.2-1.27.59-.17.24-.24.46-.31.92l-1.43-.17c.14-.76.32-1.17.69-1.6.5-.58,1.29-.89,2.29-.89,1.75,0,2.83.84,2.83,2.21,0,.66-.22,1.14-.71,1.6-.28.26-.38.34-1.68,1.23-.44.31-.94.73-1.19,1-.3.32-.42.52-.57.9h2.8c.63,0,1.13-.03,1.46-.08v1.32c-.47-.04-.87-.06-1.51-.06h-3.21Z" fill="#231815"/>
    </g>
    <g>
      <path d="m69.34,196.21q.05-.23.1-.46c-1.52.05-2.41.07-2.67.07-.1-.42-.12-.45-.31-.86.36.01.6.02.75.02,1.93,0,4.15-.13,5.24-.31.55-.09.81-.15,1.08-.25l.76.89q-.12,0-.4.06c-1.04.15-2.29.28-3.31.33-.05.21-.05.22-.13.51h2.89c.41,0,.75-.02,1.07-.06v.97c-.28-.03-.6-.05-.99-.05h-3.24c-.07.2-.1.28-.18.47h3.88c.45,0,.79-.02,1.11-.06v1c-.31-.04-.62-.06-1.11-.06h-4.28c-.13.26-.16.3-.24.46h3.71c.51,0,.71-.01.94-.03-.03.29-.04.51-.04.99v2.96c0,.51,0,.73.05,1.02h-1.2v-.41h-3.68v.41h-1.18c.03-.28.05-.53.05-1.02v-2.07c-.4.45-.85.87-1.46,1.34-.27-.44-.4-.61-.71-.92,1.14-.74,1.98-1.61,2.61-2.73h-1.34c-.48,0-.77.01-1.09.06v-1c.3.04.69.06,1.09.06h1.78c.08-.2.13-.3.19-.47h-1.52c-.4,0-.69.02-.99.05v-.96c.29.04.58.05.99.05h1.78Zm-.2,3.54v.42h3.69v-.42h-3.69Zm0,1.17v.42h3.69v-.42h-3.69Zm0,1.18v.43h3.69v-.43h-3.69Z" fill="#231815"/>
      <path d="m75.9,196.21c.24.04.43.05.81.05h1.64c.41,0,.6,0,.81-.04v1.02c-.21-.02-.33-.03-.76-.03h-1.69c-.37,0-.56,0-.81.04v-1.04Zm8.66,5.15c-.77.72-.95.86-1.54,1.23.64.16,1.39.25,2.23.27-.17.34-.27.6-.36.98-1.32-.15-2.12-.34-2.93-.69-.7.3-1.48.5-2.76.71-.07-.22-.1-.29-.24-.58-.22,0-.38-.02-.57-.02h-1.25v.49h-.98c.03-.3.05-.66.05-.97v-1.53c0-.31,0-.51-.04-.77.21.02.37.03.67.03h1.54c.35,0,.46,0,.6-.03-.03.16-.03.3-.03.72v1.74c.92-.06,1.47-.14,2.05-.31-.38-.24-.62-.42-1-.74l.7-.23h-.5c-.34,0-.59.01-.82.04v-.85c.2.02.42.03.82.03h3.05c.35,0,.56-.01.75-.04l.56.52Zm-1.62-1.56h1.42c.36,0,.51,0,.68-.03v.83c-.23-.04-.46-.05-.81-.05h-3.93c-.29,0-.47.01-.69.03.03-.26.03-.38.03-.72v-.7c0-.07,0-.32.02-.5-.14.16-.2.23-.42.43-.16-.22-.21-.28-.36-.44-.15-.02-.29-.03-.6-.03h-1.42c-.32,0-.41,0-.63.03v-.94c.21.03.31.03.63.03h1.42c.32,0,.42,0,.61-.03v.4c.55-.54.92-1.14,1.18-1.93l.34.09v-.27h-.4c-.28,0-.5,0-.76.04v-.95c.24.03.5.05.85.05h.31c0-.28,0-.38-.04-.55h1.06c-.03.14-.04.18-.04.55h1.34c0-.32-.01-.39-.04-.55h1.06c-.04.16-.04.24-.05.55h.52c.4,0,.63-.01.86-.05v.95c-.23-.03-.49-.04-.85-.04h-.53c0,.26.01.35.04.5h-.53c-.07.13-.1.18-.15.27h1.15c.4,0,.56-.01.76-.04v.82c-.2-.03-.31-.03-.74-.03h-1.29v.31h1.11c.36,0,.49-.01.64-.03v.72c-.17-.02-.31-.03-.64-.03h-1.11v.32h1.1c.36,0,.51-.01.65-.03v.72c-.14-.02-.31-.03-.65-.03h-1.1v.33Zm-6.71-4.99c.24.04.42.05.81.05h1.11c.39,0,.56,0,.81-.05v.97c-.23-.03-.45-.04-.81-.04h-1.11c-.35,0-.56,0-.81.04v-.97Zm0,4.3c.21.03.31.03.63.03h1.41c.33,0,.43,0,.62-.03v.94c-.22-.03-.3-.03-.63-.03h-1.41c-.3,0-.41,0-.62.03v-.94Zm.88,3.26h.96v-1.04h-.96v1.04Zm4.92-4.85h-1.48v.31h1.48v-.31Zm0,.97h-1.48v.32h1.48v-.32Zm-1.48.98v.33h1.48v-.33h-1.48Zm.5-2.99q-.03.07-.14.29h1.18c.1-.17.17-.34.24-.54l.39.1c.01-.14.01-.19.01-.33h-1.34c0,.28,0,.35.03.48h-.37Zm-.11,5.18c.31.23.63.41,1.07.6.35-.16.55-.29.97-.6h-2.04Z" fill="#231815"/>
      <path d="m87.26,201.07c-.52,0-.91.02-1.22.06v-1.11c.34.05.74.07,1.21.07h2.72v-.07c0-.2,0-.38-.03-.55h.43c.43-.22.76-.44,1.18-.81h-2.75c-.41,0-.68,0-1,.04v-1c.3.04.58.05,1.01.05h3.31c.39,0,.58-.01.76-.04l.55.61q-.17.14-.36.3c-.71.61-1.22.98-2,1.46h0s2.61.01,2.61.01c.49,0,.93-.02,1.23-.07v1.11c-.29-.04-.72-.06-1.24-.06h-2.6v1.75c0,.35-.03.49-.13.63-.17.25-.51.33-1.41.33-.13,0-.46-.01-.98-.04-.11-.53-.16-.7-.33-1.06.48.07.93.1,1.24.1.44,0,.51-.03.51-.23v-1.48h-2.71Zm.51-4.94c-.23-.44-.36-.64-.75-1.13l1.01-.3c.35.43.58.79.91,1.43h1.06c-.17-.47-.33-.82-.61-1.26l1.04-.29c.41.77.47.91.69,1.55h.85c.3-.4.65-1.03.82-1.5l1.08.3c-.23.43-.52.89-.75,1.2h.45c.68,0,.87-.01,1.23-.04-.03.25-.04.45-.04.83v.93c0,.27.02.52.05.76h-1.09v-1.55h-6.52v1.55h-1.09c.04-.23.05-.46.05-.77v-.92c0-.36-.01-.57-.04-.83.45.04.51.04,1.18.04h.47Z" fill="#231815"/>
      <path d="m97.58,196.22c-.41.08-.58.1-1.17.18-.1-.41-.17-.59-.38-.96,1.62-.17,2.81-.46,3.41-.85l.62.92s-.04,0-.16.07c-.27.11-.76.27-1.26.41v1.23h.55c.34,0,.53,0,.74-.05v1.07c-.23-.04-.45-.05-.76-.05h-.48c.28.57.7,1.05,1.38,1.56-.22.28-.38.56-.54.98-.49-.53-.69-.82-.94-1.37.02.25.03.69.05,1.3v1.96c0,.57.01.85.06,1.23h-1.18c.04-.37.06-.71.06-1.23v-1.62c0-.23.01-.52.06-1.27-.32.92-.64,1.53-1.21,2.25-.22-.52-.29-.65-.59-1.04.46-.47.78-.94,1.13-1.62.2-.38.39-.84.48-1.13h-.52c-.36,0-.59,0-.88.06v-1.09c.29.05.51.06.9.06h.63v-1Zm5.44-.42c0-.58,0-.85-.06-1.16h1.21c-.05.33-.06.6-.06,1.15v4.31c.57-.13.63-.15.94-.27l.09,1.17c-.27.03-.56.08-.95.17l-.08.02v1.49c0,.56,0,.86.06,1.18h-1.21c.05-.34.06-.58.06-1.19v-1.24l-2.25.5c-.39.09-.72.18-.97.25l-.13-1.16h.05c.27,0,.5-.05.89-.14l2.41-.54v-4.54Zm-2.44,1.89c.89.63,1.25.93,1.89,1.55l-.63.89c-.79-.83-1.16-1.15-1.9-1.64l.64-.8Zm.34-2.5c.97.66,1.38.99,1.93,1.57l-.68.9c-.64-.72-1.07-1.1-1.89-1.65l.64-.82Z" fill="#231815"/>
      <path d="m84.86,213.77c-.32.31-.61.72-1.04,1.44-1.06,1.77-1.59,3.3-1.86,5.41h-1.58c.33-1.67.63-2.63,1.21-3.87.46-.99.87-1.67,1.75-2.91h-3.09c-.59,0-.9.02-1.31.07v-1.32c.46.05.78.07,1.37.07h3.18c.75,0,1.01-.01,1.37-.05v1.16Z" fill="#231815"/>
      <path d="m88.45,220.62c.06-.39.08-.78.08-1.3v-5.51h-.48c-.37,0-.66.02-1.03.06v-1.27c.31.05.53.06,1,.06h.92c.51,0,.66-.01,1.02-.05-.06.59-.08,1.05-.08,1.65v5.06c0,.53.02.89.08,1.3h-1.51Z" fill="#231815"/>
    </g>
    <g>
      <path d="m117.15,82.79c-.32,0-.5,0-.75.05v-1.08c.24.04.5.06.91.06h1.41c.4,0,.64,0,.89-.06v1.07c-.25-.03-.46-.04-.74-.04h-.3v1.95h.23c.26,0,.41,0,.63-.05v1.02c-.2-.03-.4-.04-.63-.04h-.23v1.97c.42-.18.54-.23.98-.45l.03,1.06c-.87.43-1.26.6-2.81,1.23-.05.02-.1.04-.2.08l-.27-1.13c.34-.07.55-.14,1.23-.38v-2.38h-.33c-.29,0-.45,0-.68.05v-1.03c.24.04.39.05.7.05h.31v-1.95h-.38Zm4.83,5.44h-1.11c-.57,0-.78,0-1.04.04v-1.02c.25.04.45.05,1.03.05h1.12v-.82h-.95c-.67,0-.9,0-1.2.03q.02-.23.04-1.24v-2.26c0-.68,0-1.01-.05-1.34.38.04.7.05,1.35.05h2.76c.74,0,1.04-.01,1.29-.05-.03.29-.04.76-.04,1.37v2.13c0,.7.01,1.05.04,1.34-.33-.03-.49-.03-1.09-.03h-1.15v.82h1.28c.55,0,.77,0,1.06-.05v1.03c-.29-.04-.54-.05-1.05-.05h-1.29v1.03h1.61c.53,0,.79-.01,1.06-.05v1.07c-.32-.04-.59-.05-1.13-.05h-4.21c-.53,0-.79.01-1.13.05v-1.07c.27.04.49.05,1.01.05h1.79v-1.03Zm-1.11-5.54v1h1.11v-1h-1.11Zm0,1.84v1.01h1.11v-1.01h-1.11Zm2.11-.84h1.16v-1h-1.16v1Zm0,1.85h1.16v-1.01h-1.16v1.01Z" fill="#231815"/>
      <path d="m127.76,87.8c-.52,0-.91.02-1.22.06v-1.11c.34.05.74.07,1.21.07h2.72v-.07c0-.2,0-.38-.03-.55h.43c.43-.22.76-.44,1.18-.81h-2.75c-.41,0-.68,0-1,.04v-1c.3.04.58.05,1.01.05h3.31c.39,0,.58-.01.76-.04l.55.61q-.17.14-.36.3c-.71.61-1.22.98-2,1.46h0s2.61.01,2.61.01c.49,0,.93-.02,1.23-.07v1.11c-.29-.04-.72-.06-1.24-.06h-2.6v1.75c0,.35-.03.49-.13.63-.17.25-.51.33-1.41.33-.13,0-.46-.01-.98-.04-.11-.53-.16-.7-.33-1.06.48.07.93.1,1.24.1.44,0,.51-.03.51-.23v-1.48h-2.71Zm.51-4.94c-.23-.44-.36-.64-.75-1.13l1.01-.3c.35.43.58.79.91,1.43h1.06c-.17-.47-.33-.82-.61-1.26l1.04-.29c.41.77.47.91.69,1.55h.85c.3-.4.65-1.03.82-1.5l1.08.3c-.23.43-.52.89-.75,1.2h.45c.68,0,.87-.01,1.23-.04-.03.25-.04.45-.04.83v.93c0,.27.02.52.05.76h-1.09v-1.55h-6.52v1.55h-1.09c.04-.23.05-.46.05-.77v-.92c0-.36-.01-.57-.04-.83.45.04.51.04,1.18.04h.47Z" fill="#231815"/>
      <path d="m144.46,87.49c0,.49,0,.63.03.87-.21-.02-.35-.02-.62-.03.56.61.98.92,1.71,1.27-.22.26-.4.53-.58.87-.87-.51-1.33-.9-2.01-1.68l.65-.46h-1.17v1.42c0,.3-.09.52-.26.63-.18.13-.4.17-.88.17-.36,0-.72,0-1.13-.04-.03-.38-.08-.6-.25-.99.42.07.77.1,1.09.1s.38-.03.38-.24v-1.05h-1.09c-.2,0-.26,0-.45.01l.66.37c-.58.8-.99,1.2-1.8,1.75-.29-.38-.41-.51-.69-.73.8-.47,1.2-.83,1.55-1.38q-.09.01-.15.01c.02-.25.03-.41.03-.86v-.97c-.19.12-.29.18-.61.35-.08-.25-.12-.33-.23-.57-.08,1.03-.22,1.79-.46,2.46-.22.65-.45,1.07-.95,1.73-.3-.38-.44-.53-.8-.81.67-.8.95-1.52,1.12-2.89-.29.18-.68.4-.91.52-.05.02-.12.06-.19.11l-.31-1.06c.36-.07.9-.3,1.5-.63.02-.34.02-.49.03-.95l-.72.48c-.21-.75-.4-1.23-.75-1.86l.76-.46c.32.58.48.93.71,1.59v-.35c0-.17,0-.74,0-1.06,0-.78,0-.89-.05-1.25.34.04.69.05,1.23.05h2v-.07c0-.26-.01-.41-.05-.6h1.23c-.03.18-.05.33-.05.6v.07h2.37c.56,0,.89,0,1.22-.06v1c-.36-.03-.6-.04-1.1-.04h-2.19c-.08.25-.11.35-.17.51h2.29c.46,0,.73,0,1.03-.05v.96c-.29-.04-.52-.05-.99-.05h-1.34c.25.35.39.49.73.77.35-.3.48-.43.68-.74l.8.5c-.39.38-.48.46-.77.7.44.23.7.33,1.21.48-.23.38-.29.51-.43.93-.4-.16-.54-.23-.85-.4v1.05Zm-5.76-3.24c0,.6-.01,1.06-.04,1.66.35-.16.56-.29.86-.5-.24-.25-.38-.37-.71-.6l.62-.52c.36.29.52.43.69.61.24-.25.37-.41.55-.7h-.84c-.44,0-.67,0-.92.04v-.94c.28.03.49.04.96.04h1.23c.07-.17.11-.28.17-.51h-2.57v1.42Zm1.76,2.17h3v-.42h-3v.42Zm0,1.14h3v-.43h-3v.43Zm2.39-2.36c-.32-.33-.44-.49-.76-1h-.38c-.22.4-.41.68-.67,1h1.81Z" fill="#231815"/>
      <path d="m146.97,83.82c.69.39,1.06.65,1.79,1.22l-.63.91c-.65-.59-1.09-.91-1.78-1.33l.62-.8Zm1.78,3.42c-.35.92-.57,1.45-.97,2.28q-.18.37-.31.68t-.12.25l-.96-.84c.35-.38.96-1.62,1.47-3l.89.63Zm-1.29-5.86c.7.43,1.09.72,1.72,1.28l-.68.87c-.55-.54-1.04-.94-1.72-1.38l.68-.77Zm1.27,7.7c.16,0,.24,0,.34,0,.16,0,.4,0,.74-.03.51-.89.92-1.8,1.24-2.76h-1.08c-.41,0-.76.02-1.08.06v-1.12c.29.04.62.06,1.09.06h1.56v-1.5h-1.2c-.39,0-.73.02-1.05.05v-1.1c.26.04.6.06,1.06.06h1.19v-.44c0-.54-.01-.79-.06-1.05h1.21c-.05.3-.06.53-.06,1.05v.44h1.6c.43,0,.72-.02,1.02-.06v1.1c-.28-.04-.55-.05-1.01-.05h-1.61v1.5h1.92c.42,0,.74-.02,1.05-.06v1.12c-.29-.04-.65-.06-1.04-.06h-2.35q-.06.18-.2.55c-.2.53-.48,1.15-.88,1.94l-.09.19c1.35-.12,2.01-.2,2.66-.33-.31-.52-.5-.79-.98-1.42l.89-.46c.84,1.09,1.08,1.46,2.02,3.08l-.98.59c-.23-.46-.3-.61-.46-.92-1.47.28-1.83.33-3.62.52-1.09.11-1.3.14-1.62.2l-.22-1.16Z" fill="#231815"/>
      <path d="m157.76,87.8c-.52,0-.91.02-1.22.06v-1.11c.34.05.74.07,1.21.07h2.72v-.07c0-.2,0-.38-.03-.55h.43c.43-.22.76-.44,1.18-.81h-2.75c-.41,0-.68,0-1,.04v-1c.3.04.58.05,1.01.05h3.31c.39,0,.58-.01.76-.04l.55.61q-.17.14-.36.3c-.71.61-1.22.98-2,1.46h0s2.61.01,2.61.01c.49,0,.93-.02,1.23-.07v1.11c-.29-.04-.72-.06-1.24-.06h-2.6v1.75c0,.35-.03.49-.13.63-.17.25-.51.33-1.41.33-.13,0-.46-.01-.98-.04-.11-.53-.16-.7-.33-1.06.48.07.93.1,1.24.1.44,0,.51-.03.51-.23v-1.48h-2.71Zm.51-4.94c-.23-.44-.36-.64-.75-1.13l1.01-.3c.35.43.58.79.91,1.43h1.06c-.17-.47-.33-.82-.61-1.26l1.04-.29c.41.77.47.91.69,1.55h.85c.3-.4.65-1.03.82-1.5l1.08.3c-.23.43-.52.89-.75,1.2h.45c.68,0,.87-.01,1.23-.04-.03.25-.04.45-.04.83v.93c0,.27.02.52.05.76h-1.09v-1.55h-6.52v1.55h-1.09c.04-.23.05-.46.05-.77v-.92c0-.36-.01-.57-.04-.83.45.04.51.04,1.18.04h.47Z" fill="#231815"/>
      <path d="m168.08,82.95c-.41.08-.58.1-1.17.18-.1-.41-.17-.59-.38-.96,1.62-.17,2.81-.46,3.41-.85l.62.92s-.04,0-.16.07c-.27.11-.76.27-1.26.41v1.23h.55c.34,0,.53,0,.74-.05v1.07c-.23-.04-.45-.05-.76-.05h-.48c.28.57.7,1.05,1.38,1.56-.22.28-.38.56-.54.98-.49-.53-.69-.82-.94-1.37.02.25.03.69.05,1.3v1.96c0,.57.01.85.06,1.23h-1.18c.04-.37.06-.71.06-1.23v-1.62c0-.23.01-.52.06-1.27-.32.92-.64,1.53-1.21,2.25-.22-.52-.29-.65-.59-1.04.46-.47.78-.94,1.13-1.62.2-.38.39-.84.48-1.13h-.52c-.36,0-.59,0-.88.06v-1.09c.29.05.51.06.9.06h.63v-1Zm5.44-.42c0-.58,0-.85-.06-1.16h1.21c-.05.33-.06.6-.06,1.15v4.31c.57-.13.63-.15.94-.27l.09,1.17c-.27.03-.56.08-.95.17l-.08.02v1.49c0,.56,0,.86.06,1.18h-1.21c.05-.34.06-.58.06-1.19v-1.24l-2.25.5c-.39.09-.72.18-.97.25l-.13-1.16h.05c.27,0,.5-.05.89-.14l2.41-.54v-4.54Zm-2.44,1.89c.89.63,1.25.93,1.89,1.55l-.63.89c-.79-.83-1.16-1.15-1.9-1.64l.64-.8Zm.34-2.5c.97.66,1.38.99,1.93,1.57l-.68.9c-.64-.72-1.07-1.1-1.89-1.65l.64-.82Z" fill="#231815"/>
      <path d="m145.36,100.5c-.32.31-.61.72-1.04,1.44-1.06,1.77-1.59,3.3-1.86,5.41h-1.58c.33-1.67.63-2.63,1.21-3.87.46-.99.87-1.67,1.75-2.91h-3.09c-.59,0-.9.02-1.31.07v-1.32c.46.05.78.07,1.37.07h3.18c.75,0,1.01-.01,1.37-.05v1.16Z" fill="#231815"/>
      <path d="m147.82,105.18c.13.46.22.62.47.82.33.26.73.39,1.21.39.99,0,1.62-.51,1.62-1.3,0-.46-.2-.84-.56-1.05-.24-.14-.71-.24-1.15-.24s-.73.01-1.07.05v-1.24c.32.04.54.05.97.05,1,0,1.59-.46,1.59-1.23,0-.69-.47-1.08-1.32-1.08-.49,0-.85.11-1.09.31-.2.19-.3.36-.42.77l-1.43-.24c.25-.74.48-1.09.95-1.43.51-.37,1.16-.55,1.96-.55,1.67,0,2.75.84,2.75,2.14,0,.6-.26,1.15-.69,1.47-.22.17-.44.25-.97.39.71.11,1.08.28,1.43.67.33.37.48.79.48,1.38,0,.54-.23,1.09-.6,1.46-.55.53-1.39.81-2.46.81-1.17,0-1.97-.3-2.54-.95-.25-.28-.38-.54-.56-1.12l1.43-.28Z" fill="#231815"/>
    </g>
    <g>
      <path d="m183.51,81.14c-.11.25-.14.32-.23.56q-.16.43-.68,1.6v5.54c0,.47.02.87.07,1.24h-1.2c.05-.38.07-.72.07-1.24v-2.85c0-.25,0-.3.03-1.14-.35.47-.6.78-.96,1.15-.14-.46-.28-.75-.53-1.17.74-.67,1.39-1.61,1.9-2.76.22-.52.36-.93.42-1.32l1.11.39Zm1.63,2.14c-.44.89-.96,1.67-1.64,2.44-.24-.41-.38-.59-.72-.94.76-.78,1.25-1.54,1.68-2.55.25-.6.4-1.1.45-1.45l1.13.33c-.1.24-.13.33-.2.53-.15.42-.16.45-.25.67h2.72c.49,0,.8-.02,1.08-.06v1.08c-.29-.03-.64-.05-1.08-.05h-1.9v1.28h1.63c.42,0,.69-.02.99-.06v1.08c-.32-.04-.62-.06-1-.06h-1.62v1.28h1.64c.43,0,.7-.01,1-.06v1.09c-.33-.04-.62-.06-1-.06h-1.64v1.15c0,.6.02.92.07,1.2h-1.21c.05-.29.06-.59.06-1.2v-5.64h-.19Z" fill="#231815"/>
      <path d="m191.75,84.88c-.46,0-.72,0-1.03.05v-.95c.28.03.54.04,1.03.04h1.21c-.15-.32-.26-.55-.37-.74h-1.08c-.49,0-.87.02-1.19.05v-1c.31.04.63.06,1.14.06h.32c-.19-.35-.31-.51-.68-.93l1-.38c.34.47.48.71.77,1.31h.57v-.71c0-.3-.02-.58-.05-.78h1.09c-.02.18-.03.4-.03.74v.75h.71v-.75c0-.32-.01-.55-.03-.74h1.09c-.03.19-.05.46-.05.78v.71h.63c.35-.5.54-.85.72-1.34l1.03.38c-.24.4-.4.65-.62.96h.28c.52,0,.83-.02,1.13-.06v1c-.31-.03-.7-.05-1.19-.05h-1c-.19.4-.23.49-.37.74h1.16c.49,0,.74,0,1.03-.04v.95c-.31-.04-.56-.05-1.03-.05h-2.61v.48h2.09c.45,0,.75,0,1.03-.05v.9c-.28-.04-.59-.05-1.03-.05h-2.09v.5h2.79c.57,0,.92-.02,1.21-.06v1c-.37-.04-.74-.06-1.2-.06h-2.01c.34.29.79.56,1.36.8.64.27,1.16.41,2.08.57-.28.38-.4.6-.57,1.02-1.68-.46-2.81-1.07-3.71-1.98.03.38.03.47.03.71v.49c0,.42.02.73.07,1.01h-1.18c.04-.29.06-.62.06-1.02v-.48c0-.23,0-.27.03-.68-.47.48-.84.77-1.44,1.1-.64.35-1.25.61-2.04.84-.16-.35-.35-.65-.61-.96,1.46-.31,2.47-.75,3.27-1.42h-1.86c-.47,0-.83.02-1.21.06v-1c.32.04.66.06,1.2.06h2.65v-.5h-1.98c-.44,0-.74,0-1.02.05v-.9c.28.04.57.05,1.02.05h1.98v-.48h-2.5Zm3.92-.86c.15-.29.23-.47.33-.74h-2.28c.14.3.2.45.3.74h1.65Z" fill="#231815"/>
      <path d="m208.33,87.04c0,.49.01.63.03.87-.21-.02-.35-.02-.62-.03.56.61.98.92,1.71,1.27-.22.26-.4.53-.58.87-.87-.51-1.33-.9-2.01-1.68l.65-.46h-1.17v1.42c0,.3-.09.52-.26.63-.18.13-.4.17-.88.17-.36,0-.72,0-1.13-.04-.03-.38-.08-.6-.25-.99.42.07.77.1,1.09.1s.38-.03.38-.24v-1.05h-1.09c-.2,0-.26,0-.45.01l.66.37c-.58.8-.99,1.2-1.8,1.75-.29-.38-.41-.51-.69-.73.8-.47,1.2-.83,1.55-1.38q-.09.01-.15.01c.02-.25.03-.41.03-.86v-.97c-.19.12-.29.18-.61.35-.08-.25-.12-.33-.23-.57-.08,1.03-.22,1.79-.46,2.46-.22.65-.45,1.07-.95,1.73-.3-.38-.44-.53-.8-.81.67-.8.95-1.52,1.12-2.89-.29.18-.68.4-.91.52-.05.02-.12.06-.19.11l-.31-1.06c.36-.07.9-.3,1.5-.63.02-.34.02-.49.03-.95l-.72.48c-.21-.75-.4-1.23-.75-1.86l.76-.46c.32.58.48.93.71,1.59v-.35c0-.17,0-.74,0-1.06,0-.78,0-.89-.05-1.25.34.04.69.05,1.23.05h2v-.07c0-.26-.01-.41-.05-.6h1.23c-.03.18-.05.33-.05.6v.07h2.37c.56,0,.89,0,1.22-.06v1c-.36-.03-.6-.04-1.1-.04h-2.19c-.08.25-.11.35-.17.51h2.29c.46,0,.73,0,1.03-.05v.96c-.29-.04-.52-.05-.99-.05h-1.34c.25.35.39.49.73.77.35-.3.48-.43.68-.74l.8.5c-.39.38-.48.46-.77.7.44.23.7.33,1.21.48-.23.38-.29.51-.43.93-.4-.16-.54-.23-.85-.4v1.05Zm-5.76-3.24c0,.6,0,1.06-.04,1.66.35-.16.56-.29.86-.5-.24-.25-.38-.37-.71-.6l.62-.52c.36.29.52.43.69.61.24-.25.37-.41.55-.7h-.84c-.44,0-.67,0-.92.04v-.94c.28.03.49.04.96.04h1.23c.07-.17.11-.28.17-.51h-2.57v1.42Zm1.76,2.17h3v-.42h-3v.42Zm0,1.14h3v-.43h-3v.43Zm2.39-2.36c-.32-.33-.44-.49-.76-1h-.38c-.22.4-.41.68-.67,1h1.81Z" fill="#231815"/>
      <path d="m210.84,83.37c.69.39,1.06.65,1.79,1.22l-.63.91c-.65-.59-1.09-.91-1.78-1.33l.62-.8Zm1.78,3.42c-.35.92-.57,1.45-.97,2.28q-.18.37-.31.68t-.12.25l-.96-.84c.35-.38.96-1.62,1.47-3l.89.63Zm-1.29-5.86c.7.43,1.09.72,1.72,1.28l-.68.87c-.55-.54-1.04-.94-1.72-1.38l.68-.77Zm1.27,7.7c.16,0,.24,0,.34,0,.16,0,.4,0,.74-.03.51-.89.92-1.8,1.24-2.76h-1.08c-.41,0-.76.02-1.08.06v-1.12c.29.04.62.06,1.09.06h1.56v-1.5h-1.2c-.39,0-.73.02-1.05.05v-1.1c.26.04.6.06,1.06.06h1.19v-.44c0-.54-.01-.79-.06-1.05h1.21c-.05.3-.06.53-.06,1.05v.44h1.6c.43,0,.72-.02,1.02-.06v1.1c-.28-.04-.55-.05-1.01-.05h-1.61v1.5h1.92c.42,0,.74-.02,1.05-.06v1.12c-.29-.04-.65-.06-1.04-.06h-2.35q-.06.18-.2.55c-.2.53-.48,1.15-.88,1.94l-.09.19c1.35-.12,2.01-.2,2.66-.33-.31-.52-.5-.79-.98-1.42l.89-.46c.84,1.09,1.08,1.46,2.02,3.08l-.98.59c-.23-.46-.3-.61-.46-.92-1.47.28-1.83.33-3.62.52-1.09.11-1.3.14-1.62.2l-.22-1.16Z" fill="#231815"/>
      <path d="m221.63,87.35c-.52,0-.91.02-1.22.06v-1.11c.34.05.74.07,1.21.07h2.72v-.07c0-.2,0-.38-.03-.55h.43c.43-.22.76-.44,1.18-.81h-2.75c-.41,0-.68,0-1,.04v-1c.3.04.58.05,1.01.05h3.31c.39,0,.58-.01.76-.04l.55.61q-.17.14-.36.3c-.71.61-1.22.98-2,1.46h0s2.61.01,2.61.01c.49,0,.93-.02,1.23-.07v1.11c-.29-.04-.72-.06-1.24-.06h-2.6v1.75c0,.35-.03.49-.13.63-.17.25-.51.33-1.41.33-.13,0-.46-.01-.98-.04-.11-.53-.16-.7-.33-1.06.48.07.93.1,1.24.1.44,0,.51-.03.51-.23v-1.48h-2.71Zm.51-4.94c-.23-.44-.36-.64-.75-1.13l1.01-.3c.35.43.58.79.91,1.43h1.06c-.17-.47-.33-.82-.61-1.26l1.04-.29c.41.77.47.91.69,1.55h.85c.3-.4.65-1.03.82-1.5l1.08.3c-.23.43-.52.89-.75,1.2h.45c.68,0,.87,0,1.23-.04-.03.25-.04.45-.04.83v.93c0,.27.02.52.05.76h-1.09v-1.55h-6.52v1.55h-1.09c.04-.23.05-.46.05-.77v-.92c0-.36-.01-.57-.04-.83.45.04.51.04,1.18.04h.47Z" fill="#231815"/>
      <path d="m231.95,82.5c-.41.08-.58.1-1.17.18-.1-.41-.17-.59-.38-.96,1.62-.17,2.81-.46,3.41-.85l.62.92s-.04,0-.16.07c-.27.11-.76.27-1.26.41v1.23h.55c.34,0,.53,0,.74-.05v1.07c-.23-.04-.45-.05-.76-.05h-.48c.28.57.7,1.05,1.38,1.56-.22.28-.38.56-.54.98-.49-.53-.69-.82-.94-1.37.02.25.03.69.05,1.3v1.96c0,.57.01.85.06,1.23h-1.18c.04-.37.06-.71.06-1.23v-1.62c0-.23.01-.52.06-1.27-.32.92-.64,1.53-1.21,2.25-.22-.52-.29-.65-.59-1.04.46-.47.78-.94,1.13-1.62.2-.38.39-.84.48-1.13h-.52c-.36,0-.59,0-.88.06v-1.09c.29.05.51.06.9.06h.63v-1Zm5.44-.42c0-.58,0-.85-.06-1.16h1.21c-.05.33-.06.6-.06,1.15v4.31c.57-.13.63-.15.94-.27l.09,1.17c-.27.03-.56.08-.95.17l-.08.02v1.49c0,.56,0,.86.06,1.18h-1.21c.05-.34.06-.58.06-1.19v-1.24l-2.25.5c-.39.09-.72.18-.97.25l-.13-1.16h.05c.27,0,.5-.05.89-.14l2.41-.54v-4.54Zm-2.44,1.89c.89.63,1.25.93,1.89,1.55l-.63.89c-.79-.83-1.16-1.15-1.9-1.64l.64-.8Zm.34-2.5c.97.66,1.38.99,1.93,1.57l-.68.9c-.64-.72-1.07-1.1-1.89-1.65l.64-.82Z" fill="#231815"/>
      <path d="m209.23,100.05c-.32.31-.61.72-1.04,1.44-1.06,1.77-1.59,3.3-1.86,5.41h-1.58c.33-1.67.63-2.63,1.21-3.87.46-.99.87-1.67,1.75-2.91h-3.09c-.59,0-.9.02-1.31.07v-1.32c.46.05.78.07,1.37.07h3.18c.75,0,1.01,0,1.37-.05v1.16Z" fill="#231815"/>
      <path d="m216.73,105.12c-.37-.05-.58-.06-1-.07h-.36v.71c0,.51.02.77.08,1.14h-1.42c.06-.35.08-.66.08-1.16v-.69h-2.77c-.59,0-.91,0-1.25.04v-1.23c.34-.37.45-.5.8-.92l2.37-2.9c.44-.53.6-.74.83-1.1h1.35c-.06.58-.07.93-.07,1.69v3.28h.35c.4,0,.64-.02,1.01-.07v1.28Zm-2.61-3.27c0-.47.01-.79.05-1.2-.2.29-.32.45-.68.89l-1.92,2.38h2.55v-2.07Z" fill="#231815"/>
    </g>
    <g>
      <path d="m257.32,97.31c-.21-.03-.3-.04-.71-.05-.13,1.75-.43,2.8-1.1,3.92.65.71,1.17,1.12,2.04,1.57-.31.43-.44.68-.61,1.14-.86-.51-1.48-1.03-2.12-1.77-.65.74-1.35,1.29-2.3,1.81-.16-.37-.33-.65-.57-.95-.2.68-.45.84-1.3.84-.15,0-.37,0-.67-.04-.02-.41-.06-.64-.19-1.06.23.06.49.09.68.09.39,0,.47-.05.54-.31.14-.59.19-1.45.19-3.24h-.96c-.2,2.46-.54,3.63-1.39,4.71-.24-.44-.48-.73-.78-.97.61-.79.88-1.53,1.07-2.92.11-.83.15-1.48.17-2.84h-.16c-.46,0-.68.01-.93.04v-1.07c.3.04.56.06,1.03.06h.68v-.61c0-.39-.01-.61-.06-.89h1.2c-.05.28-.06.48-.06.88v.62h.57c.43,0,.66-.01.95-.05v1.05c-.32-.02-.61-.03-.93-.03h-1.24c-.02.49-.04.84-.05,1.05h1.11c.47,0,.6,0,.81-.03v.07c.46-.63.77-1.34,1.07-2.39.14-.5.22-.93.23-1.24l1.14.19q-.04.11-.11.4c-.05.19-.19.74-.27,1h1.95c.44,0,.8-.02,1.08-.05v1.07Zm-3.19,3.88c-.42-.68-.7-1.32-1-2.29-.13.19-.19.29-.4.56-.13-.24-.27-.42-.52-.69-.01.95-.02,1.58-.03,1.88-.03,1.01-.09,1.72-.2,2.19.78-.34,1.48-.88,2.15-1.65Zm-.17-3.93c-.1.26-.12.29-.19.46.19.91.52,1.71,1.03,2.52.44-.8.66-1.65.75-2.98h-1.59Z" fill="#231815"/>
      <path d="m261.56,101.26c-.88.91-1.69,1.53-2.89,2.22-.16-.39-.31-.64-.58-.93.97-.42,1.87-1.03,2.82-1.91q-.45.1-2.02.31c-.09,0-.27.05-.57.12l-.12-1.05c.1.01.18.01.22.01.11,0,.17,0,.46-.03v-3.37c0-.55-.01-.69-.06-1.04.29.04.5.05.89.05h.34c.17-.35.29-.69.35-1.01l1.12.16q-.04.09-.15.31s-.05.11-.11.25c-.05.11-.07.16-.13.29h.65c.34,0,.6,0,.82-.05-.04.26-.05.54-.05.96v1.87l.67.5c-.07.09-.08.1-.17.27-.06.11-.4.66-.5.83v2.86c0,.79-.24.97-1.27.97-.24,0-.49-.01-.77-.03-.03-.45-.09-.67-.25-1.01.44.06.76.08,1.04.08.21,0,.26-.04.26-.18v-1.45Zm0-4.77h-1.71v.55h1.71v-.55Zm-1.71,1.93h1.71v-.6h-1.71v.6Zm0,1.5q.65-.06,1.71-.22v-.5h-1.71v.72Zm5.57-3.82c0-.47-.02-.85-.07-1.24h1.2c-.04.36-.06.72-.06,1.24v.72c.45,0,.68-.02.92-.06v1.09c-.29-.03-.52-.05-.92-.05v4.93c0,.96-.28,1.17-1.53,1.17-.33,0-.59,0-.91-.04-.04-.47-.1-.71-.27-1.08.41.06.82.09,1.07.09.47,0,.57-.04.57-.24v-4.83h-1.51c-.38,0-.84.03-1.06.06v-1.1c.26.04.64.06,1.05.06h1.52v-.72Zm-1.17,5.45c-.34-1.02-.56-1.48-1.08-2.26l.82-.5c.56.79.85,1.32,1.17,2.17l-.91.59Z" fill="#231815"/>
      <path d="m268.21,98.99c.18.02.26.03.47.03h.31c.25-.32.33-.43.55-.75-.54-.68-.79-.96-1.35-1.47l.52-.86.37.39c.41-.65.69-1.26.78-1.67l.97.36c-.06.09-.11.19-.22.42-.25.51-.57,1.07-.91,1.58q.17.21.37.47c.46-.71.81-1.33.94-1.69l.89.48c-.12.19-.19.3-.34.54-.6.94-.98,1.49-1.5,2.16.59-.04.82-.06,1.1-.09-.13-.41-.15-.46-.29-.8l.74-.29c.33.79.43,1.09.63,1.86l-.78.35q-.03-.13-.06-.29-.42.05-.74.08v3.16c0,.52.01.74.06,1.05h-1.08c.04-.34.06-.61.06-1.06v-3.07c-.06,0-.19,0-.4.02q-.76.05-.98.09l-.11-1Zm1.24,1.47c-.11,1.75-.18,2.26-.41,3.05l-.84-.43c.24-.74.31-1.22.39-2.72l.86.1Zm2.13-.18c.2.89.25,1.23.33,1.99l-.79.22c-.05-.85-.1-1.28-.25-2.02l.71-.19Zm.86.53c-.27,0-.39.01-.58.04v-1c.18.03.28.04.61.04h.68c.23,0,.35,0,.47-.03l.36.47c-.04.1-.05.13-.09.27-.25.78-.45,1.22-.82,1.77-.34.49-.56.75-1.15,1.29-.15-.29-.35-.51-.68-.8.8-.57,1.3-1.2,1.64-2.05h-.44Zm2.65-1.6c.11.47.23.77.49,1.24.42-.35.71-.66,1.07-1.12l.71.64c-.5.54-.87.88-1.3,1.23.5.66.91,1.05,1.55,1.47-.27.29-.42.52-.64.99-.48-.39-.73-.64-1.05-1.07-.43-.55-.66-.96-1-1.82.06.61.09,1.04.09,1.35v.87c.02.64-.31.89-1.19.89-.01,0-.04,0-.06,0h-.26c-.17,0-.18,0-.34-.02-.06-.45-.12-.69-.27-1.01.35.06.58.09.82.09s.31-.05.31-.24v-3.48h-.84c-.35,0-.71.01-.99.04.03-.26.04-.59.04-.97v-1.81c0-.37,0-.71-.04-.98.26.03.49.04.97.04h.57c.15-.4.21-.6.27-.88l1.12.16c-.12.32-.19.48-.3.72h1.11c.5,0,.72-.01.97-.04-.03.3-.04.52-.04,1v1.8c0,.45.01.7.04.96-.28-.03-.61-.04-.95-.04h-.86Zm-1.85-2.23h2.6v-.63h-2.6v.63Zm0,1.41h2.6v-.63h-2.6v.63Z" fill="#231815"/>
      <path d="m279.53,101.24c-.52,0-.91.02-1.22.06v-1.11c.34.05.74.07,1.21.07h2.72v-.07c0-.2,0-.38-.03-.55h.43c.43-.22.76-.44,1.18-.81h-2.75c-.41,0-.68,0-1,.04v-1c.3.04.58.05,1.01.05h3.31c.39,0,.58-.01.76-.04l.55.61q-.17.14-.36.3c-.71.61-1.22.98-2,1.46h0s2.61.01,2.61.01c.49,0,.93-.02,1.23-.07v1.11c-.29-.04-.72-.06-1.24-.06h-2.6v1.75c0,.35-.03.49-.13.63-.17.25-.51.33-1.41.33-.13,0-.46-.01-.98-.04-.11-.53-.16-.7-.33-1.06.48.07.93.1,1.24.1.44,0,.51-.03.51-.23v-1.48h-2.71Zm.51-4.94c-.23-.44-.36-.64-.75-1.13l1.01-.3c.35.43.58.79.91,1.43h1.06c-.17-.47-.33-.82-.61-1.26l1.04-.29c.41.77.47.91.69,1.55h.85c.3-.4.65-1.03.82-1.5l1.08.3c-.23.43-.52.89-.75,1.2h.45c.68,0,.87-.01,1.23-.04-.03.25-.04.45-.04.83v.93c0,.27.02.52.05.76h-1.09v-1.55h-6.52v1.55h-1.09c.04-.23.05-.46.05-.77v-.92c0-.36-.01-.57-.04-.83.45.04.51.04,1.18.04h.47Z" fill="#231815"/>
      <path d="m289.85,96.39c-.41.08-.58.1-1.17.18-.1-.41-.17-.59-.38-.96,1.62-.17,2.81-.46,3.41-.85l.62.92s-.04,0-.16.07c-.27.11-.76.27-1.26.41v1.23h.55c.34,0,.53,0,.74-.05v1.07c-.23-.04-.45-.05-.76-.05h-.48c.28.57.7,1.05,1.38,1.56-.22.28-.38.56-.54.98-.49-.53-.69-.82-.94-1.37.02.25.03.69.05,1.3v1.96c0,.57.01.85.06,1.23h-1.18c.04-.37.06-.71.06-1.23v-1.62c0-.23.01-.52.06-1.27-.32.92-.64,1.53-1.21,2.25-.22-.52-.29-.65-.59-1.04.46-.47.78-.94,1.13-1.62.2-.38.39-.84.48-1.13h-.52c-.36,0-.59,0-.88.06v-1.09c.29.05.51.06.9.06h.63v-1Zm5.44-.42c0-.58,0-.85-.06-1.16h1.21c-.05.33-.06.6-.06,1.15v4.31c.57-.13.63-.15.94-.27l.09,1.17c-.27.03-.56.08-.95.17l-.08.02v1.49c0,.56,0,.86.06,1.18h-1.21c.05-.34.06-.58.06-1.19v-1.24l-2.25.5c-.39.09-.72.18-.97.25l-.13-1.16h.05c.27,0,.5-.05.89-.14l2.41-.54v-4.54Zm-2.44,1.89c.89.63,1.25.93,1.89,1.55l-.63.89c-.79-.83-1.16-1.15-1.9-1.64l.64-.8Zm.34-2.5c.97.66,1.38.99,1.93,1.57l-.68.9c-.64-.72-1.07-1.1-1.89-1.65l.64-.82Z" fill="#231815"/>
      <path d="m272.13,113.94c-.32.31-.61.72-1.04,1.44-1.06,1.77-1.59,3.3-1.86,5.41h-1.58c.33-1.67.63-2.63,1.21-3.87.46-.99.87-1.67,1.75-2.91h-3.09c-.59,0-.9.02-1.31.07v-1.32c.46.05.78.07,1.37.07h3.18c.75,0,1.01-.01,1.37-.05v1.16Z" fill="#231815"/>
      <path d="m274.72,118.72c.09.29.16.42.3.58.28.34.7.51,1.23.51.99,0,1.64-.66,1.64-1.65s-.62-1.61-1.57-1.61c-.49,0-.93.16-1.24.46-.14.14-.21.23-.3.45l-1.25-.12c.1-.71.11-.76.13-1.04l.23-2.48c.01-.18.03-.52.04-1.02.3.02.53.03,1.06.03h2.46c.69,0,.94-.01,1.39-.08v1.26c-.44-.06-.83-.08-1.38-.08h-2.35l-.16,1.75c0,.08-.03.22-.06.42.49-.42,1.02-.61,1.71-.61.81,0,1.46.24,1.95.75.49.48.71,1.08.71,1.88,0,1.76-1.15,2.85-3.01,2.85-.99,0-1.73-.28-2.28-.87-.27-.29-.41-.53-.63-1.09l1.38-.29Z" fill="#231815"/>
    </g>
  </g>
</svg>