<?xml version="1.0" encoding="UTF-8"?>
<svg xmlns="http://www.w3.org/2000/svg" width="660" height="490" viewBox="0 0 660 490">
  <g id="_背景" data-name="背景">
    <polyline id="base" points="0 0 660 0 660 490 0 490" fill="#dcdddd"/>
  </g>
  <g id="_男性用トイレ" data-name="男性用トイレ">
    <polyline points="386.47 126.96 404.84 126.96 404.84 37.16 386.47 37.16 386.47 126.96" fill="#54c3f1" stroke="#283331" stroke-miterlimit="10"/>
    <polyline points="378.82 410.63 378.82 434.1 394.13 434.1 394.13 410.63 378.82 410.63" fill="#54c3f1" stroke="#283331" stroke-miterlimit="10"/>
  </g>
  <g id="_女性用トイレ" data-name="女性用トイレ">
    <polyline points="368.81 142.52 386.47 142.52 386.47 37.16 368.81 37.16 368.81 142.52" fill="#f19899" stroke="#283331" stroke-miterlimit="10"/>
    <rect x="394.13" y="410.63" width="13.78" height="23.47" fill="#f19899" stroke="#283331" stroke-miterlimit="10"/>
  </g>
  <g id="_使用不可能教室等" data-name="使用不可能教室等">
    <rect x="305.14" y="65.99" width="63.67" height="76.53" fill="#929292" stroke="#283331" stroke-miterlimit="10"/>
    <polyline points="506.37 393.29 561.79 393.29 561.79 372.27 506.37 372.27 506.37 393.29" fill="#929292" stroke="#283331" stroke-miterlimit="10"/>
    <polyline points="561.79 393.29 616.58 393.29 616.58 372.27 561.79 372.27 561.79 393.29" fill="#929292" stroke="#283331" stroke-miterlimit="10"/>
    <polyline points="516 206.55 616.58 206.55 616.58 176.83 529.33 176.83 516 190.16 516 206.55" fill="#929292" stroke="#283331" stroke-miterlimit="10"/>
    <polyline points="209.64 393.29 401.02 393.29 401.02 320.74 209.64 320.74 209.64 393.29" fill="#929292" stroke="#283331" stroke-miterlimit="10"/>
    <polyline points="401.02 393.29 479.87 393.29 479.87 335.02 401.02 335.02 401.02 393.29" fill="#929292" stroke="#283331" stroke-miterlimit="10"/>
    <rect id="_4-7-SD_room110" data-name="4-7-SD_room110" x="404.84" y="37.16" width="144.16" height="89.8" fill="#929292" stroke="#283331" stroke-miterlimit="10"/>
    <polyline id="_4-7-SD_room120" data-name="4-7-SD_room120" points="506.37 206.55 616.58 206.55 616.58 372.27 506.37 372.27 506.37 206.55" fill="#929292" stroke="#283331" stroke-miterlimit="10"/>
    <polyline points="209.64 411.65 209.64 434.1 264.03 434.1 264.03 411.65 209.64 411.65" fill="#929292" stroke="#283331" stroke-miterlimit="10"/>
    <polyline points="114.13 320.74 15.36 320.74 15.36 452.84 114.13 452.84 114.13 320.74" fill="#929292" stroke="#283331" stroke-miterlimit="10"/>
    <polyline points="407.9 410.63 616.58 410.63 616.58 434.1 407.9 434.1 407.9 410.63" fill="#929292" stroke="#283331" stroke-miterlimit="10"/>
  </g>
  <g id="_廊下" data-name="廊下">
    <polygon points="386.47 142.52 386.47 126.96 565.56 126.96 565.56 111.14 549 111.14 549 37.16 631.37 37.16 631.37 120.84 615.05 120.84 615.05 126.96 582.63 163.18 582.63 176.83 529.33 176.83 516 190.16 516 206.55 506.37 206.55 506.37 393.29 616.58 393.29 616.58 410.63 378.82 410.63 378.82 434.1 264.03 434.1 264.03 411.65 209.64 411.65 209.64 393.29 479.87 393.29 479.87 199.92 494.64 176.83 494.64 151.9 485.87 143.13 386.47 142.52" fill="#b5b5b6" stroke="#283331" stroke-miterlimit="10"/>
    <polygon points="55.69 163.18 55.69 145.02 114.13 145.02 114.13 126.96 241.47 126.96 241.47 142.52 485.87 143.13 490.08 147.34 474.74 163.18 241.47 163.18 241.47 176.83 114.13 176.83 114.13 163.18 55.69 163.18" fill="#b5b5b6" stroke="#283331" stroke-miterlimit="10"/>
    <polygon points="114.13 176.83 114.13 414.73 209.64 414.73 209.64 387.07 145.97 387.07 145.97 176.83 114.13 176.83" fill="#c9caca" stroke="#283331" stroke-miterlimit="10"/>
    <g id="_矢印" data-name="矢印">
      <path d="m607.47,151.64l-.44-5.53-1.91,2.24-11.19-9.55-1.27,1.49,11.19,9.55-1.91,2.24,5.53-.44Z" fill="#040000"/>
      <path d="m591.97,138.41l.44,5.53,1.91-2.24,11.19,9.55,1.27-1.49-11.19-9.55,1.91-2.24-5.53.44Z" fill="#040000"/>
    </g>
    <g id="_矢印-2" data-name="矢印">
      <path d="m413.13,152.71l4-3.84-2.94-.06.29-14.71-1.96-.04-.29,14.71-2.94-.06,3.84,4Z" fill="#040000"/>
      <path d="m413.53,132.33l-4,3.84,2.94.06-.29,14.71,1.96.04.29-14.71,2.94.06-3.84-4Z" fill="#040000"/>
    </g>
    <g id="_矢印-3" data-name="矢印">
      <path d="m483.86,165.35l3.84,4,.06-2.94,14.71.29.04-1.96-14.71-.29.06-2.94-4,3.84Z" fill="#040000"/>
      <path d="m504.23,165.76l-3.84-4-.06,2.94-14.71-.29-.04,1.96,14.71.29-.06,2.94,4-3.84Z" fill="#040000"/>
    </g>
    <g id="_矢印-4" data-name="矢印">
      <path d="m199.45,402.27l3.84,4,.06-2.94,14.71.29.04-1.96-14.71-.29.06-2.94-4,3.84Z" fill="#040000"/>
      <path d="m219.82,402.67l-3.84-4-.06,2.94-14.71-.29-.04,1.96,14.71.29-.06,2.94,4-3.84Z" fill="#040000"/>
    </g>
    <g id="_矢印-5" data-name="矢印">
      <path d="m273.51,423.92l-4,3.84,2.94.06-.29,14.71,1.96.04.29-14.71,2.94.06-3.84-4Z" fill="#040000"/>
      <path d="m273.1,444.29l4-3.84-2.94-.06.29-14.71-1.96-.04-.29,14.71-2.94-.06,3.84,4Z" fill="#040000"/>
    </g>
    <g id="_矢印-6" data-name="矢印">
      <path d="m363.21,423.05l-4,3.84,2.94.06-.29,14.71,1.96.04.29-14.71,2.94.06-3.84-4Z" fill="#040000"/>
      <path d="m362.8,443.43l4-3.84-2.94-.06.29-14.71-1.96-.04-.29,14.71-2.94-.06,3.84,4Z" fill="#040000"/>
    </g>
    <g id="_矢印-7" data-name="矢印">
      <path d="m607.47,402.14l3.84,4,.06-2.94,14.71.29.04-1.96-14.71-.29.06-2.94-4,3.84Z" fill="#040000"/>
      <path d="m627.84,402.55l-3.84-4-.06,2.94-14.71-.29-.04,1.96,14.71.29-.06,2.94,4-3.84Z" fill="#040000"/>
    </g>
  </g>
  <g id="_トイレマーク" data-name="トイレマーク">
    <g>
      <path d="m400.1,417.94c1.77,0,3.21-1.44,3.21-3.21s-1.44-3.21-3.21-3.21-3.21,1.44-3.21,3.21,1.44,3.21,3.21,3.21Z" fill="#fff"/>
      <path d="m388.15,417.94c1.77,0,3.21-1.44,3.21-3.21s-1.44-3.21-3.21-3.21-3.21,1.44-3.21,3.21,1.44,3.21,3.21,3.21Z" fill="#fff"/>
      <path d="m404.97,430.4l-4.4-10.36c-.08-.19-.26-.31-.47-.31s-.39.12-.47.31l-4.4,10.36c-.27.62-.2,1.34.17,1.91.37.57,1.01.91,1.69.91h6.02c.68,0,1.31-.34,1.69-.91.37-.57.44-1.28.17-1.91Z" fill="#fff"/>
      <path d="m391.16,419.73h-6.02c-.68,0-1.31.34-1.69.91-.37.57-.44,1.28-.17,1.91l4.4,10.36c.08.19.26.31.47.31s.39-.12.47-.31l4.4-10.36c.27-.62.2-1.34-.17-1.91-.37-.57-1.01-.91-1.69-.91Z" fill="#fff"/>
    </g>
    <g>
      <path d="m395.89,79.65c1.77,0,3.21-1.44,3.21-3.21s-1.44-3.21-3.21-3.21-3.21,1.44-3.21,3.21,1.44,3.21,3.21,3.21Z" fill="#fff"/>
      <path d="m398.9,81.43h-6.02c-.68,0-1.31.34-1.69.91-.37.57-.44,1.28-.17,1.91l4.4,10.36c.08.19.26.31.47.31s.39-.12.47-.31l4.4-10.36c.27-.62.2-1.34-.17-1.91-.37-.57-1.01-.91-1.69-.91Z" fill="#fff"/>
    </g>
    <g>
      <path d="m377.64,79.65c1.77,0,3.21-1.44,3.21-3.21s-1.44-3.21-3.21-3.21-3.21,1.44-3.21,3.21,1.44,3.21,3.21,3.21Z" fill="#fff"/>
      <path d="m382.51,92.1l-4.4-10.36c-.08-.19-.26-.31-.47-.31s-.39.12-.47.31l-4.4,10.36c-.27.62-.2,1.34.17,1.91.37.57,1.01.91,1.69.91h6.02c.68,0,1.31-.34,1.69-.91.37-.57.44-1.28.17-1.91Z" fill="#fff"/>
    </g>
  </g>
  <g id="_階段" data-name="階段">
    <g>
      <polygon points="549 55.59 562.27 50.39 562.27 37.43 549 37.43 549 55.59" fill="#5c5a5a"/>
      <polyline points="562.27 68.54 562.27 37.43 549 37.43 549 68.98" fill="none" stroke="#283331" stroke-miterlimit="10"/>
      <line x1="549" y1="55.59" x2="562.27" y2="55.59" fill="none" stroke="#283331" stroke-miterlimit="10" stroke-width=".25"/>
      <line x1="549" y1="57.97" x2="562.27" y2="57.97" fill="none" stroke="#283331" stroke-miterlimit="10" stroke-width=".25"/>
      <line x1="549" y1="60.34" x2="562.27" y2="60.34" fill="none" stroke="#283331" stroke-miterlimit="10" stroke-width=".25"/>
      <line x1="549" y1="62.71" x2="562.27" y2="62.71" fill="none" stroke="#283331" stroke-miterlimit="10" stroke-width=".25"/>
      <line x1="549" y1="65.09" x2="562.27" y2="65.09" fill="none" stroke="#283331" stroke-miterlimit="10" stroke-width=".25"/>
      <line x1="549" y1="67.46" x2="562.27" y2="67.46" fill="none" stroke="#283331" stroke-miterlimit="10" stroke-width=".25"/>
    </g>
    <g>
      <polygon points="133.08 432.89 146.34 427.69 146.34 414.73 133.08 414.73 133.08 432.89" fill="#5c5a5a"/>
      <polyline points="146.34 445.84 146.34 414.73 133.08 414.73 133.08 446.28" fill="none" stroke="#283331" stroke-miterlimit="10"/>
      <line x1="133.08" y1="432.89" x2="146.34" y2="432.89" fill="none" stroke="#283331" stroke-miterlimit="10" stroke-width=".25"/>
      <line x1="133.08" y1="435.27" x2="146.34" y2="435.27" fill="none" stroke="#283331" stroke-miterlimit="10" stroke-width=".25"/>
      <line x1="133.08" y1="437.64" x2="146.34" y2="437.64" fill="none" stroke="#283331" stroke-miterlimit="10" stroke-width=".25"/>
      <line x1="133.08" y1="440.01" x2="146.34" y2="440.01" fill="none" stroke="#283331" stroke-miterlimit="10" stroke-width=".25"/>
      <line x1="133.08" y1="442.38" x2="146.34" y2="442.38" fill="none" stroke="#283331" stroke-miterlimit="10" stroke-width=".25"/>
      <line x1="133.08" y1="444.76" x2="146.34" y2="444.76" fill="none" stroke="#283331" stroke-miterlimit="10" stroke-width=".25"/>
    </g>
    <g>
      <polygon points="159.5 154.15 164.7 167.42 177.66 167.42 177.66 154.15 159.5 154.15" fill="#5c5a5a"/>
      <polyline points="146.55 167.42 177.66 167.42 177.66 154.15 146.11 154.15" fill="none" stroke="#283331" stroke-miterlimit="10"/>
      <line x1="159.5" y1="154.15" x2="159.5" y2="167.42" fill="none" stroke="#283331" stroke-miterlimit="10" stroke-width=".25"/>
      <line x1="157.12" y1="154.15" x2="157.12" y2="167.42" fill="none" stroke="#283331" stroke-miterlimit="10" stroke-width=".25"/>
      <line x1="154.75" y1="154.15" x2="154.75" y2="167.42" fill="none" stroke="#283331" stroke-miterlimit="10" stroke-width=".25"/>
      <line x1="152.38" y1="154.15" x2="152.38" y2="167.42" fill="none" stroke="#283331" stroke-miterlimit="10" stroke-width=".25"/>
      <line x1="150.01" y1="154.15" x2="150.01" y2="167.42" fill="none" stroke="#283331" stroke-miterlimit="10" stroke-width=".25"/>
      <line x1="147.63" y1="154.15" x2="147.63" y2="167.42" fill="none" stroke="#283331" stroke-miterlimit="10" stroke-width=".25"/>
    </g>
    <g>
      <polygon points="644.64 408.25 631.37 413.45 631.37 426.41 644.64 426.41 644.64 408.25" fill="#5c5a5a"/>
      <polyline points="631.37 395.3 631.37 426.41 644.64 426.41 644.64 394.86" fill="none" stroke="#283331" stroke-miterlimit="10"/>
      <line x1="644.64" y1="408.25" x2="631.37" y2="408.25" fill="none" stroke="#283331" stroke-miterlimit="10" stroke-width=".25"/>
      <line x1="644.64" y1="405.87" x2="631.37" y2="405.87" fill="none" stroke="#283331" stroke-miterlimit="10" stroke-width=".25"/>
      <line x1="644.64" y1="403.5" x2="631.37" y2="403.5" fill="none" stroke="#283331" stroke-miterlimit="10" stroke-width=".25"/>
      <line x1="644.64" y1="401.13" x2="631.37" y2="401.13" fill="none" stroke="#283331" stroke-miterlimit="10" stroke-width=".25"/>
      <line x1="644.64" y1="398.76" x2="631.37" y2="398.76" fill="none" stroke="#283331" stroke-miterlimit="10" stroke-width=".25"/>
      <line x1="644.64" y1="396.38" x2="631.37" y2="396.38" fill="none" stroke="#283331" stroke-miterlimit="10" stroke-width=".25"/>
    </g>
    <g>
      <polygon points="333.62 424.21 326.68 421.41 321.57 426.55 326.46 431.41 333.62 424.21" fill="#5c5a5a"/>
      <polyline points="333.84 414.21 321.57 426.55 326.46 431.41 338.9 418.9" fill="none" stroke="#283331" stroke-miterlimit="10"/>
      <line x1="333.62" y1="424.21" x2="328.73" y2="419.35" fill="none" stroke="#283331" stroke-miterlimit="10" stroke-width=".25"/>
      <line x1="334.56" y1="423.27" x2="329.67" y2="418.4" fill="none" stroke="#283331" stroke-miterlimit="10" stroke-width=".25"/>
      <line x1="335.49" y1="422.32" x2="330.61" y2="417.46" fill="none" stroke="#283331" stroke-miterlimit="10" stroke-width=".25"/>
      <line x1="336.43" y1="421.38" x2="331.54" y2="416.52" fill="none" stroke="#283331" stroke-miterlimit="10" stroke-width=".25"/>
      <line x1="337.37" y1="420.44" x2="332.48" y2="415.58" fill="none" stroke="#283331" stroke-miterlimit="10" stroke-width=".25"/>
      <line x1="338.3" y1="419.5" x2="333.41" y2="414.64" fill="none" stroke="#283331" stroke-miterlimit="10" stroke-width=".25"/>
    </g>
    <g>
      <polygon points="479.87 316.86 466.61 322.07 466.61 335.02 479.87 335.02 479.87 316.86" fill="#5c5a5a"/>
      <polyline points="466.61 303.92 466.61 335.02 479.87 335.02 479.87 303.48" fill="none" stroke="#283331" stroke-miterlimit="10"/>
      <line x1="479.87" y1="316.86" x2="466.61" y2="316.86" fill="none" stroke="#283331" stroke-miterlimit="10" stroke-width=".25"/>
      <line x1="479.87" y1="314.49" x2="466.61" y2="314.49" fill="none" stroke="#283331" stroke-miterlimit="10" stroke-width=".25"/>
      <line x1="479.87" y1="312.12" x2="466.61" y2="312.12" fill="none" stroke="#283331" stroke-miterlimit="10" stroke-width=".25"/>
      <line x1="479.87" y1="309.75" x2="466.61" y2="309.75" fill="none" stroke="#283331" stroke-miterlimit="10" stroke-width=".25"/>
      <line x1="479.87" y1="307.37" x2="466.61" y2="307.37" fill="none" stroke="#283331" stroke-miterlimit="10" stroke-width=".25"/>
      <line x1="479.87" y1="305" x2="466.61" y2="305" fill="none" stroke="#283331" stroke-miterlimit="10" stroke-width=".25"/>
    </g>
  </g>
  <g id="MLOC-available">
    <rect id="4-7-SD_room107" data-name="4-7-SD_room107" x="241.47" y="163.18" width="82.31" height="56.12" fill="#a8d7ef" stroke="#283331" stroke-miterlimit="10"/>
    <rect id="4-7-SD_room109" data-name="4-7-SD_room109" x="177.8" y="176.83" width="63.67" height="68.45" fill="#a8d7ef" stroke="#283331" stroke-miterlimit="10"/>
    <rect id="4-7-SD_room102" data-name="4-7-SD_room102" x="55.69" y="67.33" width="58.44" height="79.04" fill="#aaddf7" stroke="#283331" stroke-miterlimit="10"/>
    <rect id="4-7-SD_room101" data-name="4-7-SD_room101" x="55.69" y="163.18" width="58.44" height="82.1" fill="#aaddf7" stroke="#283331" stroke-miterlimit="10"/>
    <rect id="4-7-SD_room103" data-name="4-7-SD_room103" x="114.13" y="50.43" width="63.67" height="76.53" fill="#aaddf7" stroke="#283331" stroke-miterlimit="10"/>
    <rect id="4-7-SD_room104" data-name="4-7-SD_room104" x="177.8" y="50.43" width="63.67" height="76.53" fill="#aaddf7" stroke="#283331" stroke-miterlimit="10"/>
    <rect id="4-7-SD_room105" data-name="4-7-SD_room105" x="241.47" y="65.99" width="63.67" height="76.53" fill="#aaddf7" stroke="#283331" stroke-miterlimit="10"/>
  </g>
  <g id="MNOINT-words">
    <g>
      <path d="m409.79,41.04c.34.06.59.07,1.12.07h.96c.53,0,.71-.01,1.13-.06-.07.73-.1,1.3-.1,1.99v5.96c0,.61.02,1.01.1,1.49h-1.55c.07-.46.1-.89.1-1.49v-6.74h-.6c-.41,0-.74.02-1.15.07v-1.29Z" fill="#231815"/>
      <path d="m418.07,41.04c.34.06.59.07,1.12.07h.96c.53,0,.71-.01,1.13-.06-.07.73-.1,1.3-.1,1.99v5.96c0,.61.02,1.01.1,1.49h-1.55c.07-.46.1-.89.1-1.49v-6.74h-.6c-.41,0-.74.02-1.15.07v-1.29Z" fill="#231815"/>
      <path d="m426.2,49.75c-.35-.35-.6-.74-.76-1.16-.31-.85-.47-1.79-.47-2.77,0-1.26.29-2.58.71-3.29.62-1.03,1.64-1.6,2.91-1.6.97,0,1.79.31,2.4.92.35.35.61.74.76,1.16.31.84.47,1.8.47,2.78,0,1.46-.32,2.76-.86,3.51-.65.9-1.58,1.35-2.77,1.35-.97,0-1.78-.31-2.39-.92Zm.98-7.05c-.25.28-.42.59-.52.9-.22.67-.32,1.44-.32,2.24,0,1.06.23,2.17.54,2.7.38.65.96.97,1.71.97.56,0,1.06-.19,1.38-.53.25-.26.44-.6.55-.97.22-.7.32-1.42.32-2.22,0-.97-.2-2.07-.49-2.63-.37-.72-.95-1.08-1.77-1.08-.6,0-1.04.19-1.4.61Z" fill="#231815"/>
    </g>
    <g>
      <path d="m237.97,363.96c0,1.08-.35,1.31-1.98,1.31-.36,0-1.12-.03-1.65-.06-.14-.67-.21-.9-.42-1.33.76.11,1.41.15,1.9.15.67,0,.78-.04.78-.36v-2.54h-4.24c-.75,0-1.29.03-1.73.09v-1.4c.46.06,1.04.09,1.71.09h4.26v-.17c0-.3-.02-.58-.04-.85h.65c.82-.41,1.42-.81,2.16-1.41h-4.71c-.57,0-1.05.03-1.47.08v-1.29c.44.06.9.08,1.5.08h5.15c.55,0,.85-.02,1.12-.06l.72.78c-.21.2-.36.3-.4.34-1.16.99-2.02,1.59-3.3,2.29v.21h4.14c.69,0,1.31-.03,1.74-.09v1.4c-.43-.06-1-.09-1.75-.09h-4.12v2.83Zm-4.58-9.99c-.39-.71-.61-1.04-1.24-1.79l1.27-.39c.55.69.88,1.2,1.42,2.17h1.83c-.23-.66-.54-1.29-.99-2l1.32-.36c.57,1.05.75,1.47,1.06,2.35h1.42c.65-.81.96-1.33,1.35-2.31l1.35.43c-.39.69-.87,1.39-1.24,1.88h.87c.96,0,1.25-.01,1.8-.06-.05.38-.06.69-.06,1.24v1.28c0,.39.03.75.07,1.11h-1.38v-2.42h-10.09v2.42h-1.38c.04-.33.08-.69.08-1.11v-1.28c0-.55-.02-.87-.06-1.24.65.06.84.06,1.75.06h.84Z" fill="#231815"/>
      <path d="m248.53,355.91c-.58,1.21-1.26,2.27-2.04,3.13-.57-.61-.61-.64-1.11-.97,1.15-1.2,2.04-2.75,2.61-4.48.19-.63.29-.98.31-1.4l1.48.38q-.18.5-.28.86c-.08.22-.23.64-.45,1.25h2.7v-1.32c0-.71-.03-1.17-.1-1.71h1.64c-.06.5-.09.97-.09,1.71v1.32h3.35c.73,0,1.3-.03,1.9-.09v1.43c-.63-.06-1.18-.09-1.87-.09h-3.38v2.94h2.76c.75,0,1.27-.03,1.75-.09v1.42c-.47-.06-1.05-.09-1.74-.09h-2.77v3.46h3.84c.79,0,1.38-.03,1.95-.11v1.47c-.67-.07-1.14-.1-1.92-.1h-9.36c-.76,0-1.33.03-1.99.1v-1.47c.6.08,1.19.11,1.95.11h4.09v-3.46h-2.47c-.71,0-1.27.03-1.73.09v-1.42c.45.06.93.09,1.71.09h2.49v-2.94h-3.22Z" fill="#231815"/>
      <path d="m269.3,355.17v-1.35c0-.97,0-1.17-.06-1.53h1.62c-.04.36-.04.45-.06,1v1.88h1.08c.99,0,1.32-.02,1.88-.11v1.56c-.51-.06-.93-.08-1.84-.08h-1.12q-.04,2.02-.11,2.59c-.21,1.86-.85,3.13-2.14,4.21-.78.66-1.49,1.05-2.82,1.51-.24-.54-.4-.76-.94-1.32,1.35-.41,2.11-.78,2.86-1.44,1.02-.9,1.46-1.89,1.59-3.66.03-.4.05-.93.06-1.9h-4.16v1.77c0,.78.03,1.44.08,1.82h-1.68c.04-.48.08-1.07.08-1.77v-1.81h-1.07c-.88,0-1.23.01-1.84.08v-1.56c.62.09.92.11,1.88.11h1.04v-1.38c0-.53-.03-1.2-.08-1.52h1.7c-.06.44-.09.96-.09,1.5v1.4h4.17Z" fill="#231815"/>
      <path d="m279.65,357.69l-.25.97c-.25.99-.63,2.03-1.11,3-.43.9-.75,1.41-1.37,2.24-.58-.45-.79-.57-1.44-.84.97-1.11,1.56-2.15,2.14-3.84.29-.81.41-1.33.47-1.92l1.56.39Zm7.68-2.98c-.67-.23-1.17-.89-1.17-1.65,0-.96.76-1.74,1.72-1.74s1.74.78,1.74,1.74c0,.79-.53,1.46-1.25,1.67v1.47c-.72-.08-.96-.09-1.92-.09h-3.5v7.18c0,.99.02,1.26.08,1.8h-1.72c.06-.48.09-.92.09-1.81v-7.17h-3.41c-.94,0-1.29.01-1.89.09v-1.59c.57.08,1.04.11,1.91.11h3.39v-.9c0-.76-.03-1.16-.09-1.54h1.72c-.06.45-.08.85-.08,1.58v.87h4.37Zm-1.16,2.61c.11.48.23.88.54,1.68.67,1.79,1.26,2.85,2.21,4.02-.64.33-.84.46-1.41.92-1.15-1.74-1.81-3.17-2.56-5.55-.12-.39-.15-.46-.25-.69l1.48-.38Zm.71-4.26c0,.55.45,1.02,1,1.02s1.02-.47,1.02-1.02-.45-1.02-1.02-1.02-1,.46-1,1.02Z" fill="#231815"/>
      <path d="m290.9,357.53c.55.08,1.2.11,2.31.11h8.12c1.29,0,1.65-.02,2.23-.09v1.74c-.66-.06-1.14-.08-2.25-.08h-8.08c-1.26,0-1.71.02-2.33.08v-1.75Z" fill="#231815"/>
      <path d="m308.89,364.74c.07-.64.09-1.02.09-1.92v-8.92c0-1.04-.02-1.38-.09-1.8h1.77c-.06.48-.09.99-.09,1.83v2.54c2.14.75,4.24,1.74,6.75,3.16l-.87,1.49c-.67-.46-1.07-.71-1.86-1.14-1.14-.62-2.77-1.42-3.58-1.77q-.25-.1-.48-.25,0,.21.03.58c0,.13.02.6.02.75v3.54c0,.79.03,1.37.09,1.92h-1.77Z" fill="#231815"/>
      <path d="m324.11,353.82c0-.84-.01-.99-.08-1.48h1.74c-.08.5-.09.78-.09,1.48v1.92l5.71-.72c.51-.06.73-.12,1.03-.24l.96.84c-.17.22-.18.24-.39.69-.88,1.8-1.9,2.99-3.64,4.25-.5-.54-.67-.69-1.26-1,1.12-.65,2.1-1.5,2.73-2.43.21-.28.25-.36.46-.75q-.38.08-.79.14l-4.83.64v3.41c0,1.33.04,1.62.35,1.86.27.24.85.33,2.01.33,1.63,0,3.27-.21,4.48-.57l.08,1.69c-.4.02-.52.03-.9.08-1.66.18-2.64.25-3.66.25-1.96,0-2.85-.21-3.38-.78-.45-.51-.54-.93-.54-2.61v-3.48l-1.42.2c-1.16.17-1.19.17-1.73.3l-.18-1.6c.13.01.24.01.3.01.33,0,.83-.04,1.46-.12l1.58-.21v-2.08Z" fill="#231815"/>
      <path d="m336.65,362.55c1.21-.05,3.03-.51,4.41-1.12,1.88-.83,3.28-1.96,4.47-3.65.67-.99,1.11-1.8,1.57-3.03.5.61.69.79,1.31,1.23-1.25,2.71-2.66,4.46-4.68,5.82-1.52,1.03-3.38,1.77-5.67,2.25-.57.12-.63.14-.95.24l-.46-1.74Zm1.14-9.3c1.71,1.06,2.66,1.78,3.78,2.86l-1.08,1.33c-1.16-1.23-2.37-2.2-3.73-3l1.03-1.2Z" fill="#231815"/>
      <path d="m357.41,352.08q-.17.27-.48.92c-.2.4-.3.6-.41.75.09,0,.3-.02.62-.03l3.57-.04c.51,0,.81-.04,1.14-.15l.87.87c-.18.24-.21.33-.45.99-.51,1.38-1.3,3.09-1.96,4.14-1.51,2.42-3.57,4.12-6.75,5.59-.39-.66-.56-.88-1.04-1.3,1.29-.51,2.05-.92,3-1.54,1.09-.74,1.75-1.31,2.5-2.21-1.07-.93-2.04-1.63-3.2-2.26l.98-1.1c1.26.72,1.96,1.2,3.13,2.15.75-1.17,1.36-2.45,1.81-3.81l-4.88.05c-1.05,1.6-2.07,2.76-3.52,3.96-.42-.46-.6-.61-1.26-1,1.62-1.2,2.85-2.58,3.79-4.29.45-.81.75-1.52.87-2.06l1.65.39Z" fill="#231815"/>
      <path d="m365.9,357.53c.55.08,1.2.11,2.31.11h8.12c1.29,0,1.65-.02,2.23-.09v1.74c-.66-.06-1.14-.08-2.25-.08h-8.08c-1.26,0-1.71.02-2.33.08v-1.75Z" fill="#231815"/>
    </g>
    <g>
      <path d="m556.46,124.36c-.41-.06-.77-.08-1.46-.08h-3.66c-.67,0-.95.01-1.44.04.07-.47.1-.86.1-1.52v-6.45c0-.58-.02-.95-.1-1.48.43.02.77.04,1.44.04h3.54c.59,0,1.08-.02,1.46-.08v1.34c-.43-.06-.8-.08-1.46-.08h-3.55v2.72h3.01c.6,0,1-.02,1.47-.08v1.34c-.44-.06-.77-.08-1.47-.08h-3.02v3.12h3.68c.66,0,.98-.02,1.46-.08v1.36Z" fill="#231815"/>
      <path d="m561.31,122.16c.05.16.14.46.29.89.17-.59.18-.6.28-.89l2.09-6.01c.2-.59.29-.88.34-1.25h1.68c-.18.32-.3.62-.6,1.42l-2.57,6.79c-.2.54-.31.9-.37,1.18h-1.69c-.06-.25-.17-.6-.38-1.18l-2.58-6.79c-.26-.7-.44-1.12-.6-1.42h1.68c.07.38.18.82.34,1.25l2.11,6.01Z" fill="#231815"/>
    </g>
    <g>
      <path d="m510.23,209.92c.34.06.59.07,1.12.07h.96c.53,0,.71-.01,1.13-.06-.07.73-.1,1.3-.1,1.99v5.96c0,.61.02,1.01.1,1.49h-1.55c.07-.46.1-.89.1-1.49v-6.74h-.6c-.41,0-.74.02-1.15.07v-1.29Z" fill="#231815"/>
      <path d="m518.76,219.37c-.88,0-1.06.01-1.46.06.08-.74.17-1.13.34-1.56.31-.82.84-1.55,1.61-2.23.41-.36.78-.64,1.92-1.4,1.14-.77,1.48-1.21,1.48-1.94,0-.83-.68-1.34-1.76-1.34-.74,0-1.3.25-1.63.74-.2.31-.3.58-.38,1.15l-1.43-.19c.16-.85.37-1.34.8-1.85.56-.66,1.46-1.01,2.6-1.01,1.99,0,3.23.97,3.23,2.53,0,.91-.35,1.55-1.21,2.21-.37.28-.54.4-1.61,1.12-1.34.9-1.94,1.58-2.25,2.52h3.57c.7,0,1.22-.02,1.63-.08v1.35c-.53-.05-.98-.07-1.68-.07h-3.75Z" fill="#231815"/>
      <path d="m526.65,218.62c-.35-.35-.6-.74-.76-1.16-.31-.85-.47-1.79-.47-2.77,0-1.26.29-2.58.71-3.29.62-1.03,1.64-1.6,2.91-1.6.97,0,1.79.31,2.4.92.35.35.61.74.76,1.16.31.84.47,1.8.47,2.78,0,1.46-.32,2.76-.86,3.51-.65.9-1.58,1.35-2.77,1.35-.97,0-1.78-.31-2.39-.92Zm.98-7.05c-.25.28-.42.59-.52.9-.22.67-.32,1.44-.32,2.24,0,1.06.23,2.17.54,2.7.38.65.96.97,1.71.97.56,0,1.06-.19,1.38-.53.25-.26.44-.6.55-.97.22-.7.32-1.42.32-2.22,0-.97-.2-2.07-.49-2.63-.37-.72-.95-1.08-1.77-1.08-.6,0-1.04.19-1.4.61Z" fill="#231815"/>
    </g>
    <g>
      <path d="m51.59,393.39c-.14-.68-.36-1.5-.58-2.08l-.9-2.34h-6.64l-.9,2.34c-.34.86-.46,1.32-.6,2.08h-2.8c.34-.6.64-1.26,1.06-2.34l4.44-11.34c.38-.98.54-1.46.64-1.96h2.88c.1.44.2.74.68,1.96l4.46,11.34c.5,1.24.76,1.84,1.04,2.34h-2.78Zm-4.42-12.54q-.08-.2-.4-1.2-.34,1.04-.4,1.2l-2.28,6.2h5.38l-2.3-6.2Z" fill="#231815"/>
      <path d="m61.73,389.85c.08.26.24.76.48,1.48.28-.98.3-1,.46-1.48l3.48-10.02c.34-.98.48-1.46.56-2.08h2.8c-.3.54-.5,1.04-1,2.36l-4.28,11.32c-.34.9-.52,1.5-.62,1.96h-2.82c-.1-.42-.28-1-.64-1.96l-4.3-11.32c-.44-1.16-.74-1.86-1-2.36h2.8c.12.64.3,1.36.56,2.08l3.52,10.02Z" fill="#231815"/>
      <path d="m88.29,381.46h3.02c.8,0,1.26-.02,1.78-.08-.06.5-.08.96-.08,1.84v3.42c0,.88.02,1.42.08,1.92-.46-.08-1.02-.1-1.88-.1h-2.06c.64.78,1.02,1.18,1.62,1.68,1.06.9,2.24,1.6,3.64,2.18-.5.6-.7.9-1.08,1.7-2.3-1.26-3.78-2.6-5.14-4.64.04.34.04.44.06.76,0,.18.02.3.02.38,0,.18.02.32.02.36v2.18c0,.88.02,1.26.12,1.86h-1.88c.1-.58.14-.96.14-1.84v-2.18c0-.18,0-.3.02-.64l.04-.82c-1.36,2.04-2.72,3.34-4.92,4.68-.38-.76-.62-1.1-1.08-1.6,2.04-.94,3.82-2.38,5.02-4.06h-1.72c-.82,0-1.36.02-1.78.1.06-.54.1-1.06.1-1.9v-3.46c0-.82-.04-1.32-.1-1.82.52.06,1.04.08,1.84.08h2.58v-1.32h-3.12c-.74,0-1.28.02-1.76.08v1.66c-.34-.04-.72-.06-1.14-.06h-.54c.54,1.46,1.2,2.6,2.16,3.64-.42.52-.62.84-.92,1.52-.58-.86-.84-1.38-1.46-2.94.06.78.12,2.32.12,2.98v5.52c0,1.06.02,1.8.12,2.4h-1.92c.08-.62.12-1.36.12-2.4v-4.86c0-.62.04-1.86.1-2.94-.62,2.34-1.26,3.82-2.32,5.34-.38-.94-.54-1.24-.9-1.8,1.3-1.66,2.28-3.86,2.92-6.46h-1.06c-.6,0-1.02.02-1.36.08v-1.76c.34.06.68.08,1.36.08h1.24v-1.66c0-1.06-.02-1.58-.1-2.06h1.9c-.08.5-.1,1.1-.1,2.04v1.68h.62c.42,0,.62-.02.94-.04v-1.76c.58.08,1.12.12,2.02.12h3.08v-.34c0-.74-.04-1.14-.14-1.6h1.86c-.08.44-.1.82-.1,1.58v.36h3.62c.86,0,1.38-.04,1.98-.12v1.82c-.44-.06-1.12-.1-1.96-.1h-3.64v1.32Zm-4.3,1.46v1.34h2.68v-1.34h-2.68Zm0,2.72v1.4h2.68v-1.4h-2.68Zm4.3-1.38h3.06v-1.34h-3.06v1.34Zm0,2.78h3.08v-1.4h-3.08v1.4Z" fill="#231815"/>
    </g>
    <g>
      <path d="m243.35,68.25c.34.06.59.07,1.12.07h.96c.53,0,.71-.01,1.13-.06-.07.73-.1,1.3-.1,1.99v5.96c0,.61.02,1.01.1,1.49h-1.55c.07-.46.1-.89.1-1.49v-6.74h-.6c-.41,0-.74.02-1.15.07v-1.29Z" fill="#231815"/>
      <path d="m251.49,76.95c-.35-.35-.6-.74-.76-1.16-.31-.85-.47-1.79-.47-2.77,0-1.26.29-2.58.71-3.29.62-1.03,1.64-1.6,2.91-1.6.97,0,1.79.31,2.4.92.35.35.61.74.76,1.16.31.84.47,1.8.47,2.78,0,1.46-.32,2.76-.86,3.51-.65.9-1.58,1.35-2.77,1.35-.97,0-1.78-.31-2.39-.92Zm.98-7.05c-.25.28-.42.59-.52.9-.22.67-.32,1.44-.32,2.24,0,1.06.23,2.17.54,2.7.38.65.96.97,1.71.97.56,0,1.06-.19,1.38-.53.25-.26.44-.6.55-.97.22-.7.32-1.42.32-2.22,0-.97-.2-2.07-.49-2.63-.37-.72-.95-1.08-1.77-1.08-.6,0-1.04.19-1.4.61Z" fill="#231815"/>
      <path d="m260.44,71.76c-.01.12-.04.3-.07.52.59-.53,1.24-.77,2.1-.77s1.68.3,2.24.86c.55.55.83,1.27.83,2.19,0,2.05-1.33,3.32-3.47,3.32-1.08,0-1.93-.31-2.55-.95-.34-.35-.5-.62-.76-1.25l1.39-.31c.12.35.19.5.36.7.36.42.91.65,1.57.65,1.26,0,2.09-.84,2.09-2.11s-.77-2.03-2.04-2.03c-.59,0-1.16.23-1.56.62-.17.16-.23.26-.34.52l-1.26-.12c.11-.7.13-.83.17-1.24l.26-2.88c.04-.29.05-.55.05-.74v-.22c-.01-.06-.01-.16-.01-.26.36.04.62.05,1.27.05h2.76c.77,0,1.03-.01,1.56-.1v1.33c-.5-.07-.92-.1-1.56-.1h-2.81l-.23,2.3Z" fill="#231815"/>
    </g>
    <g>
      <path d="m179.68,52.82c.34.06.59.07,1.12.07h.96c.53,0,.71-.01,1.13-.06-.07.73-.1,1.3-.1,1.99v5.96c0,.61.02,1.01.1,1.49h-1.55c.07-.46.1-.89.1-1.49v-6.74h-.6c-.41,0-.74.02-1.15.07v-1.29Z" fill="#231815"/>
      <path d="m187.82,61.53c-.35-.35-.6-.74-.76-1.16-.31-.85-.47-1.79-.47-2.77,0-1.26.29-2.58.71-3.29.62-1.03,1.64-1.6,2.91-1.6.97,0,1.79.31,2.4.92.35.35.61.74.76,1.16.31.84.47,1.8.47,2.78,0,1.46-.32,2.76-.86,3.51-.65.9-1.58,1.35-2.77,1.35-.97,0-1.78-.31-2.39-.92Zm.98-7.05c-.25.28-.42.59-.52.9-.22.67-.32,1.44-.32,2.24,0,1.06.23,2.17.54,2.7.38.65.96.97,1.71.97.56,0,1.06-.19,1.38-.53.25-.26.44-.6.55-.97.22-.7.32-1.42.32-2.22,0-.97-.2-2.07-.49-2.63-.37-.72-.95-1.08-1.77-1.08-.6,0-1.04.19-1.4.61Z" fill="#231815"/>
      <path d="m194.66,58.8q.29-.31.89-1.03l2.91-3.6c.48-.59.67-.85.95-1.28h1.34c-.07.7-.08,1.1-.08,2.03v3.93h.44c.49,0,.78-.02,1.22-.08v1.32c-.46-.06-.73-.08-1.22-.08h-.44v.92c0,.6.02.91.1,1.34h-1.46c.08-.41.11-.78.11-1.36v-.91h-3.27c-.7,0-1.04.01-1.48.05v-1.25Zm4.75-2.64c0-.6.01-.98.06-1.51-.24.35-.42.58-.83,1.1l-2.49,3.11h3.26v-2.7Z" fill="#231815"/>
    </g>
    <g>
      <path d="m179.68,179.74c.34.06.59.07,1.12.07h.96c.53,0,.71-.01,1.13-.06-.07.73-.1,1.3-.1,1.99v5.96c0,.61.02,1.01.1,1.49h-1.55c.07-.46.1-.89.1-1.49v-6.74h-.6c-.41,0-.74.02-1.15.07v-1.29Z" fill="#231815"/>
      <path d="m187.82,188.45c-.35-.35-.6-.74-.76-1.16-.31-.85-.47-1.79-.47-2.77,0-1.26.29-2.58.71-3.29.62-1.03,1.64-1.6,2.91-1.6.97,0,1.79.31,2.4.92.35.35.61.74.76,1.16.31.84.47,1.8.47,2.78,0,1.46-.32,2.76-.86,3.51-.65.9-1.58,1.35-2.77,1.35-.97,0-1.78-.31-2.39-.92Zm.98-7.05c-.25.28-.42.59-.52.9-.22.67-.32,1.44-.32,2.24,0,1.06.23,2.17.54,2.7.38.65.96.97,1.71.97.56,0,1.06-.19,1.38-.53.25-.26.44-.6.55-.97.22-.7.32-1.42.32-2.22,0-.97-.2-2.07-.49-2.63-.37-.72-.95-1.08-1.77-1.08-.6,0-1.04.19-1.4.61Z" fill="#231815"/>
      <path d="m196.5,187.01c.13.36.22.52.38.71.31.35.82.53,1.45.53.82,0,1.39-.34,1.82-1.06.23-.38.4-.92.48-1.51.04-.25.06-.56.08-1.08-.2.34-.31.47-.58.68-.56.46-1.16.66-2,.66-.98,0-1.79-.29-2.34-.84-.54-.54-.84-1.34-.84-2.25,0-1.94,1.38-3.24,3.48-3.24,1.25,0,2.31.59,2.89,1.62.4.67.59,1.68.59,2.99,0,1.87-.41,3.32-1.15,4.14-.64.68-1.42,1-2.53,1-.89,0-1.58-.2-2.13-.62-.42-.32-.66-.64-1-1.33l1.39-.38Zm1.86-2.16c1.19,0,2.11-.9,2.11-2.06s-.9-2.06-2.11-2.06c-.59,0-1.12.22-1.5.6-.38.38-.56.88-.56,1.49,0,1.28.76,2.04,2.06,2.04Z" fill="#231815"/>
    </g>
    <g>
      <path d="m57.57,165.3c.34.06.59.07,1.12.07h.96c.53,0,.71-.01,1.13-.06-.07.73-.1,1.3-.1,1.99v5.96c0,.61.02,1.01.1,1.49h-1.55c.07-.46.1-.89.1-1.49v-6.74h-.6c-.41,0-.74.02-1.15.07v-1.29Z" fill="#231815"/>
      <path d="m65.7,174.01c-.35-.35-.6-.74-.76-1.16-.31-.85-.47-1.79-.47-2.77,0-1.26.29-2.58.71-3.29.62-1.03,1.64-1.6,2.91-1.6.97,0,1.79.31,2.4.92.35.35.61.74.76,1.16.31.84.47,1.8.47,2.78,0,1.46-.32,2.76-.86,3.51-.65.9-1.58,1.35-2.77,1.35-.97,0-1.78-.31-2.39-.92Zm.98-7.05c-.25.28-.42.59-.52.9-.22.67-.32,1.44-.32,2.24,0,1.06.23,2.17.54,2.7.38.65.96.97,1.71.97.56,0,1.06-.19,1.38-.53.25-.26.44-.6.55-.97.22-.7.32-1.42.32-2.22,0-.97-.2-2.07-.49-2.63-.37-.72-.95-1.08-1.77-1.08-.6,0-1.04.19-1.4.61Z" fill="#231815"/>
      <path d="m74.13,165.3c.34.06.59.07,1.12.07h.96c.53,0,.71-.01,1.13-.06-.07.73-.1,1.3-.1,1.99v5.96c0,.61.02,1.01.1,1.49h-1.55c.07-.46.1-.89.1-1.49v-6.74h-.6c-.41,0-.74.02-1.15.07v-1.29Z" fill="#231815"/>
    </g>
    <g>
      <path d="m57.57,68.39c.34.06.59.07,1.12.07h.96c.53,0,.71-.01,1.13-.06-.07.73-.1,1.3-.1,1.99v5.96c0,.61.02,1.01.1,1.49h-1.55c.07-.46.1-.89.1-1.49v-6.74h-.6c-.41,0-.74.02-1.15.07v-1.29Z" fill="#231815"/>
      <path d="m65.7,77.1c-.35-.35-.6-.74-.76-1.16-.31-.85-.47-1.79-.47-2.77,0-1.26.29-2.58.71-3.29.62-1.03,1.64-1.6,2.91-1.6.97,0,1.79.31,2.4.92.35.35.61.74.76,1.16.31.84.47,1.8.47,2.78,0,1.46-.32,2.76-.86,3.51-.65.9-1.58,1.35-2.77,1.35-.97,0-1.78-.31-2.39-.92Zm.98-7.05c-.25.28-.42.59-.52.9-.22.67-.32,1.44-.32,2.24,0,1.06.23,2.17.54,2.7.38.65.96.97,1.71.97.56,0,1.06-.19,1.38-.53.25-.26.44-.6.55-.97.22-.7.32-1.42.32-2.22,0-.97-.2-2.07-.49-2.63-.37-.72-.95-1.08-1.77-1.08-.6,0-1.04.19-1.4.61Z" fill="#231815"/>
      <path d="m74.38,77.84c-.88,0-1.06.01-1.46.06.08-.74.17-1.13.34-1.56.31-.82.84-1.55,1.61-2.23.41-.36.78-.64,1.92-1.4,1.14-.77,1.48-1.21,1.48-1.94,0-.83-.68-1.34-1.76-1.34-.74,0-1.3.25-1.63.74-.2.31-.3.58-.38,1.15l-1.43-.19c.16-.85.37-1.34.8-1.85.56-.66,1.46-1.01,2.6-1.01,1.99,0,3.23.97,3.23,2.53,0,.91-.35,1.55-1.21,2.21-.37.28-.54.4-1.61,1.12-1.34.9-1.94,1.58-2.25,2.52h3.57c.7,0,1.22-.02,1.63-.08v1.35c-.53-.05-.98-.07-1.68-.07h-3.75Z" fill="#231815"/>
    </g>
    <g>
      <path d="m116.01,52.96c.34.06.59.07,1.12.07h.96c.53,0,.71-.01,1.13-.06-.07.73-.1,1.3-.1,1.99v5.96c0,.61.02,1.01.1,1.49h-1.55c.07-.46.1-.89.1-1.49v-6.74h-.6c-.41,0-.74.02-1.15.07v-1.29Z" fill="#231815"/>
      <path d="m124.15,61.67c-.35-.35-.6-.74-.76-1.16-.31-.85-.47-1.79-.47-2.77,0-1.26.29-2.58.71-3.29.62-1.03,1.64-1.6,2.91-1.6.97,0,1.79.31,2.4.92.35.35.61.74.76,1.16.31.84.47,1.8.47,2.78,0,1.46-.32,2.76-.86,3.51-.65.9-1.58,1.35-2.77,1.35-.97,0-1.78-.31-2.39-.92Zm.98-7.05c-.25.28-.42.59-.52.9-.22.67-.32,1.44-.32,2.24,0,1.06.23,2.17.54,2.7.38.65.96.97,1.71.97.56,0,1.06-.19,1.38-.53.25-.26.44-.6.55-.97.22-.7.32-1.42.32-2.22,0-.97-.2-2.07-.49-2.63-.37-.72-.95-1.08-1.77-1.08-.6,0-1.04.19-1.4.61Z" fill="#231815"/>
      <path d="m132.63,59.97c.16.55.3.78.63,1.03.41.3.9.46,1.5.46,1.26,0,2.07-.65,2.07-1.67,0-1.08-.78-1.67-2.21-1.67-.46,0-.78.01-1.16.06v-1.27c.29.05.66.07.96.07.61,0,1.16-.12,1.46-.32.44-.29.67-.73.67-1.27,0-.92-.64-1.42-1.81-1.42-.66,0-1.14.2-1.45.6-.17.22-.24.38-.35.78l-1.43-.26c.2-.67.4-1.01.78-1.38.59-.58,1.45-.88,2.53-.88,1.9,0,3.12.97,3.12,2.47,0,.73-.31,1.38-.84,1.76-.29.22-.54.31-1.14.46.83.11,1.28.31,1.7.77.4.43.58.95.58,1.66,0,.65-.26,1.3-.71,1.73-.62.61-1.58.94-2.78.94-1.32,0-2.27-.35-2.92-1.07-.29-.32-.43-.62-.65-1.27l1.43-.3Z" fill="#231815"/>
    </g>
    <g>
      <path d="m244.73,165.3c.34.06.59.07,1.12.07h.96c.53,0,.71-.01,1.13-.06-.07.73-.1,1.3-.1,1.99v5.96c0,.61.02,1.01.1,1.49h-1.55c.07-.46.1-.89.1-1.49v-6.74h-.6c-.41,0-.74.02-1.15.07v-1.29Z" fill="#231815"/>
      <path d="m252.87,174.01c-.35-.35-.6-.74-.76-1.16-.31-.85-.47-1.79-.47-2.77,0-1.26.29-2.58.71-3.29.62-1.03,1.64-1.6,2.91-1.6.97,0,1.79.31,2.4.92.35.35.61.74.76,1.16.31.84.47,1.8.47,2.78,0,1.46-.32,2.76-.86,3.51-.65.9-1.58,1.35-2.77,1.35-.97,0-1.78-.31-2.39-.92Zm.98-7.05c-.25.28-.42.59-.52.9-.22.67-.32,1.44-.32,2.24,0,1.06.23,2.17.54,2.7.38.65.96.97,1.71.97.56,0,1.06-.19,1.38-.53.25-.26.44-.6.55-.97.22-.7.32-1.42.32-2.22,0-.97-.2-2.07-.49-2.63-.37-.72-.95-1.08-1.77-1.08-.6,0-1.04.19-1.4.61Z" fill="#231815"/>
      <path d="m266.93,166.49c-.31.29-.59.66-1.1,1.5-.95,1.54-1.46,2.67-1.89,4.19-.24.86-.36,1.42-.52,2.58h-1.59c.42-2.22.74-3.26,1.45-4.73.6-1.24,1.12-2.07,2.12-3.45h-3.79c-.66,0-1,.02-1.47.08v-1.37c.52.06.88.08,1.54.08h3.73c.83,0,1.12-.01,1.54-.06v1.18Z" fill="#231815"/>
    </g>
    <g>
      <path d="m307.21,68.25c.34.06.59.07,1.12.07h.96c.53,0,.71-.01,1.13-.06-.07.73-.1,1.3-.1,1.99v5.96c0,.61.02,1.01.1,1.49h-1.55c.07-.46.1-.89.1-1.49v-6.74h-.6c-.41,0-.74.02-1.15.07v-1.29Z" fill="#231815"/>
      <path d="m315.35,76.95c-.35-.35-.6-.74-.76-1.16-.31-.85-.47-1.79-.47-2.77,0-1.26.29-2.58.71-3.29.62-1.03,1.64-1.6,2.91-1.6.97,0,1.79.31,2.4.92.35.35.61.74.76,1.16.31.84.47,1.8.47,2.78,0,1.46-.32,2.76-.86,3.51-.65.9-1.58,1.35-2.77,1.35-.97,0-1.78-.31-2.39-.92Zm.98-7.05c-.25.28-.42.59-.52.9-.22.67-.32,1.44-.32,2.24,0,1.06.23,2.17.54,2.7.38.65.96.97,1.71.97.56,0,1.06-.19,1.38-.53.25-.26.44-.6.55-.97.22-.7.32-1.42.32-2.22,0-.97-.2-2.07-.49-2.63-.37-.72-.95-1.08-1.77-1.08-.6,0-1.04.19-1.4.61Z" fill="#231815"/>
      <path d="m327.99,70.51c-.34-.89-.84-1.26-1.71-1.26s-1.55.46-1.96,1.34c-.3.66-.43,1.25-.49,2.3.24-.36.37-.52.65-.72.54-.42,1.12-.6,1.89-.6,1.98,0,3.18,1.19,3.18,3.14s-1.37,3.17-3.35,3.17c-.92,0-1.77-.29-2.33-.78-.85-.74-1.32-2.16-1.32-3.93,0-1.46.36-2.84.95-3.65.7-.94,1.59-1.38,2.79-1.38.96,0,1.74.29,2.29.84.32.32.5.6.74,1.18l-1.34.35Zm-3.93,4.2c0,1.19.9,2.05,2.11,2.05.76,0,1.4-.34,1.76-.9.18-.29.29-.71.29-1.15,0-1.28-.74-2.04-2-2.04s-2.16.88-2.16,2.04Z" fill="#231815"/>
    </g>
    <g>
      <path d="m332.59,244.87c0-1.04-.04-1.48-.14-2.14h2.16c-.1.6-.12,1.14-.12,2.08v1.48h5.6c.78,0,1.2-.02,1.7-.08-.06.56-.08.96-.08,1.68v5.86c0,.78.02,1.3.1,1.9h-1.98v-1.26h-5.34v4.3c0,1.18.02,1.74.14,2.4h-2.18c.1-.7.14-1.28.14-2.4v-4.3h-5.08v1.26h-2c.08-.68.12-1.12.12-1.9v-5.86c0-.7-.02-1.1-.1-1.68.54.06.96.08,1.68.08h5.38v-1.42Zm-5.08,3.16v4.62h5.08v-4.62h-5.08Zm12.32,4.62v-4.62h-5.34v4.62h5.34Z" fill="#231815"/>
      <path d="m353.01,243.87c0-.54-.02-.86-.1-1.2h2c-.08.32-.1.66-.1,1.22v.48h5.4c.98,0,1.68-.04,2.28-.12v1.8c-.56-.08-1.04-.1-1.9-.1h-13.14c-.02,5.82-.16,8.32-.64,10.76-.34,1.68-.72,2.76-1.48,4.28-.6-.78-.64-.8-1.38-1.42.64-1.22.94-2.16,1.26-3.88.28-1.58.48-4.52.48-7.32,0-.06,0-.56-.02-2.4,0-.94,0-1.2-.06-1.7.72.08,1.38.1,2.26.1h5.14v-.5Zm-3.8,9.86c.2.7.64,1.6,1.16,2.3.48-.9.66-1.4,1-2.92h-1.54c-.6,0-.8,0-1.14.04l-.6-1.08c1.18-1.06,1.98-1.98,2.88-3.38h-1.44c-.54,0-.8.02-1.22.08v-1.68c.4.08.7.1,1.34.1h1.38c.78,0,1.08-.02,1.34-.06l.86,1q-.24.32-.52.74c-.6.9-1.18,1.62-2.24,2.78h1.68c.56,0,.82-.02,1.1-.06-.08.48-.14.72-.14.74-.34,1.96-.88,3.6-1.6,4.9,1.58,1.28,3.44,1.74,6.86,1.74,1.48,0,2.82-.06,4.6-.24-.26.64-.4,1.16-.54,1.96-2.04.04-2.16.04-2.9.04-4.8,0-6.72-.48-8.88-2.22-.82,1.02-1.76,1.84-2.94,2.58-.34-.56-.66-.94-1.14-1.42,1.28-.72,1.98-1.28,2.9-2.32-.5-.64-.68-.88-1.24-1.92-.24-.44-.34-.62-.5-.86l1.48-.84Zm7.64-4.72c-.96.16-1.44.24-2.74.4-.18-.66-.28-.9-.64-1.52,2.86-.12,5.84-.72,7.3-1.48l.94,1.44c-1.04.34-2.06.6-3.16.84v2.64h2.22c.7,0,1.2-.02,1.62-.1v1.78c-.46-.06-.84-.08-1.6-.08h-2.24v2.74h1.78c.74,0,1.04-.02,1.46-.08v1.7c-.52-.06-.74-.08-1.48-.08h-5.02c-.68,0-.96.02-1.44.08v-1.68c.52.06.6.06,1.48.06h1.52v-2.74h-1.76c-.78,0-1.08.02-1.54.08v-1.76c.4.06.74.08,1.58.08h1.72v-2.32Z" fill="#231815"/>
    </g>
    <g>
      <path d="m60.67,103.41c.25-.88.32-1.5.33-2.64l.79.18c-.02,1.09-.11,1.92-.32,2.79l-.8-.33Zm2.37,3.43c0,.52.02.87.06,1.24h-1.17c.05-.34.07-.79.07-1.27v-6.92c0-.44-.02-.72-.07-1.07h1.17c-.05.35-.06.6-.06,1.07v.83l.59-.23c.25.5.27.56.51,1.3l-.27.12c.25.02.45.03.84.03h1.48v-.4h-1.14c-.39,0-.56.01-.84.04v-.89c.26.03.44.04.85.04h1.13v-.37h-1.29c-.53,0-.72.01-.99.05v-.96c.29.05.5.06,1.04.06h1.24c0-.3,0-.45-.06-.68h1.15c-.05.24-.06.37-.06.68h1.53c.55,0,.75,0,1.04-.06v.96c-.29-.04-.54-.05-1.02-.05h-1.55v.37h1.41c.43,0,.59,0,.83-.04v.89c-.24-.03-.44-.04-.85-.04h-1.39v.4h1.75c.48,0,.72,0,.99-.05v.98c-.3-.04-.58-.06-.99-.06h-4.26c-.49,0-.73,0-1.01.06v-.88l-.31.14c-.1-.42-.2-.73-.35-1.11v5.82Zm2.17.08c0,.49.02.84.06,1.14h-1.15c.04-.33.05-.56.05-1.14v-2.88c0-.38-.01-.57-.03-.85.24.02.45.03.8.03h3.52c.44,0,.69,0,.9-.04-.03.24-.04.54-.04,1.03v2.82c0,.76-.27.96-1.28.96-.22,0-.41-.01-.9-.04-.06-.43-.1-.6-.23-.96.41.06.73.09.98.09.32,0,.38-.04.38-.24v-.34h-3.06v.42Zm3.06-2.46v-.41h-3.06v.41h3.06Zm0,1.22v-.41h-3.06v.41h3.06Z" fill="#231815"/>
      <path d="m74.43,101.5c.42,0,.6,0,.87-.05v1.06c-.19-.03-.32-.03-.56-.04-.11.48-.16.67-.33,1.11h.12c.36,0,.55,0,.77-.05v1.06c-.27-.03-.48-.04-.87-.04h-.78v.8h.68c.38,0,.58-.01.83-.04v1.05c-.26-.03-.46-.04-.83-.04h-.68v.73c0,.33.02.7.05,1.02h-1.1c.04-.33.06-.63.06-1.02v-.73h-.72c-.38,0-.55.01-.83.04v-1.05c.25.03.45.04.83.04h.72v-.8h-.89c-.38,0-.59.01-.87.04v-1.06c.25.04.41.05.87.05h.11c-.06-.4-.12-.67-.26-1.11-.33,0-.49,0-.72.04v-1.06c.26.04.47.05.87.05h.9v-.77h-.68c-.36,0-.56.01-.83.04v-1.04c.24.03.43.04.83.04h.68v-.18c0-.28-.02-.62-.06-.76h1.08c-.03.23-.04.44-.04.76v.18h.59c.4,0,.59,0,.83-.04v1.04c-.26-.03-.48-.04-.83-.04h-.59v.77h.78Zm-.96,2.08c.13-.34.22-.69.3-1.11h-1.2c.14.48.18.67.25,1.11h.65Zm6.34-.71c-.05.13-.07.19-.12.44-.21.92-.51,1.81-.85,2.48.39.48.72.75,1.38,1.16-.31.48-.41.67-.58,1.06-.58-.46-.92-.78-1.36-1.3-.35.49-.68.85-1.19,1.29-.19-.35-.33-.56-.56-.87.01.4.03.6.07.94h-1.14c.06-.42.07-.67.07-1.19v-6.69c0-.36-.02-.75-.05-1.02.29.04.57.05.94.05h2.46c.45,0,.76-.02.93-.05-.03.29-.04.41-.05.65-.12,1.84-.26,2.05-1.36,2.05-.27,0-.45-.01-.9-.05-.06-.44-.1-.62-.22-.94.4.07.81.12,1.03.12.31,0,.36-.1.4-.84h-2.18v2.19h1.88c.48,0,.74,0,.95-.04l.45.56Zm-3.28,4.12c.46-.36.79-.7,1.11-1.16-.43-.71-.63-1.24-.95-2.53h-.16v3.69Zm1.07-3.69c.17.69.32,1.09.6,1.59.21-.47.34-.87.49-1.59h-1.09Z" fill="#231815"/>
      <path d="m82.52,100.47c-.41.08-.58.1-1.17.18-.1-.41-.17-.59-.38-.96,1.62-.17,2.81-.46,3.41-.85l.62.92s-.04,0-.16.07c-.27.11-.76.27-1.26.41v1.23h.55c.34,0,.53,0,.74-.05v1.07c-.23-.04-.45-.05-.76-.05h-.48c.28.57.7,1.05,1.38,1.56-.22.28-.38.56-.54.98-.49-.53-.69-.82-.94-1.37.02.25.03.69.05,1.3v1.96c0,.57.01.85.06,1.23h-1.18c.04-.37.06-.71.06-1.23v-1.62c0-.23.01-.52.06-1.27-.32.92-.64,1.53-1.21,2.25-.22-.52-.29-.65-.59-1.04.46-.47.78-.94,1.13-1.62.2-.38.39-.84.48-1.13h-.52c-.36,0-.59,0-.88.06v-1.09c.29.05.51.06.9.06h.63v-1Zm5.44-.42c0-.58,0-.85-.06-1.16h1.21c-.05.33-.06.6-.06,1.15v4.31c.57-.13.63-.15.94-.27l.09,1.17c-.27.03-.56.08-.95.17l-.08.02v1.49c0,.56,0,.86.06,1.18h-1.21c.05-.34.06-.58.06-1.19v-1.24l-2.25.5c-.39.09-.72.18-.97.25l-.13-1.16h.05c.27,0,.5-.05.89-.14l2.41-.54v-4.54Zm-2.44,1.89c.89.63,1.25.93,1.89,1.55l-.63.89c-.79-.83-1.16-1.15-1.9-1.64l.64-.8Zm.34-2.5c.97.66,1.38.99,1.93,1.57l-.68.9c-.64-.72-1.07-1.1-1.89-1.65l.64-.82Z" fill="#231815"/>
      <path d="m92.2,105.32c-.52,0-.91.02-1.22.06v-1.11c.34.05.74.07,1.21.07h2.72v-.07c0-.2,0-.38-.03-.55h.43c.43-.22.76-.44,1.18-.81h-2.75c-.41,0-.68,0-1,.04v-1c.3.04.58.05,1.01.05h3.31c.39,0,.58-.01.76-.04l.55.61q-.17.14-.36.3c-.71.61-1.22.98-2,1.46h0s2.61.01,2.61.01c.49,0,.93-.02,1.23-.07v1.11c-.29-.04-.72-.06-1.24-.06h-2.6v1.75c0,.35-.03.49-.13.63-.17.25-.51.33-1.41.33-.13,0-.46-.01-.98-.04-.11-.53-.16-.7-.33-1.06.48.07.93.1,1.24.1.44,0,.51-.03.51-.23v-1.48h-2.71Zm.51-4.94c-.23-.44-.36-.64-.75-1.13l1.01-.3c.35.43.58.79.91,1.43h1.06c-.17-.47-.33-.82-.61-1.26l1.04-.29c.41.77.47.91.69,1.55h.85c.3-.4.65-1.03.82-1.5l1.08.3c-.23.43-.52.89-.75,1.2h.45c.68,0,.87,0,1.23-.04-.03.25-.04.45-.04.83v.93c0,.27.02.52.05.76h-1.09v-1.55h-6.52v1.55h-1.09c.04-.23.05-.46.05-.77v-.92c0-.36-.01-.57-.04-.83.45.04.51.04,1.18.04h.47Z" fill="#231815"/>
      <path d="m102.52,100.47c-.41.08-.58.1-1.17.18-.1-.41-.17-.59-.38-.96,1.62-.17,2.81-.46,3.41-.85l.62.92s-.04,0-.16.07c-.27.11-.76.27-1.26.41v1.23h.55c.34,0,.53,0,.74-.05v1.07c-.23-.04-.45-.05-.76-.05h-.48c.28.57.7,1.05,1.38,1.56-.22.28-.38.56-.54.98-.49-.53-.69-.82-.94-1.37.02.25.03.69.05,1.3v1.96c0,.57.01.85.06,1.23h-1.18c.04-.37.06-.71.06-1.23v-1.62c0-.23.01-.52.06-1.27-.32.92-.64,1.53-1.21,2.25-.22-.52-.29-.65-.59-1.04.46-.47.78-.94,1.13-1.62.2-.38.39-.84.48-1.13h-.52c-.36,0-.59,0-.88.06v-1.09c.29.05.51.06.9.06h.63v-1Zm5.44-.42c0-.58,0-.85-.06-1.16h1.21c-.05.33-.06.6-.06,1.15v4.31c.57-.13.63-.15.94-.27l.09,1.17c-.27.03-.56.08-.95.17l-.08.02v1.49c0,.56,0,.86.06,1.18h-1.21c.05-.34.06-.58.06-1.19v-1.24l-2.25.5c-.39.09-.72.18-.97.25l-.13-1.16h.05c.27,0,.5-.05.89-.14l2.41-.54v-4.54Zm-2.44,1.89c.89.63,1.25.93,1.89,1.55l-.63.89c-.79-.83-1.16-1.15-1.9-1.64l.64-.8Zm.34-2.5c.97.66,1.38.99,1.93,1.57l-.68.9c-.64-.72-1.07-1.1-1.89-1.65l.64-.82Z" fill="#231815"/>
      <path d="m83.43,118.86c-.26-.73-.63-1.01-1.34-1.01s-1.23.35-1.57,1.04c-.25.52-.36,1-.41,1.77.54-.73,1.13-1,2.14-1s1.88.44,2.32,1.19c.24.39.36.91.36,1.5,0,1.58-1.2,2.7-2.9,2.7-.8,0-1.54-.24-2.03-.66-.74-.64-1.16-1.84-1.16-3.35,0-1.23.31-2.41.82-3.09.59-.8,1.39-1.19,2.44-1.19.86,0,1.57.26,2.05.76.26.27.41.5.63,1.02l-1.35.32Zm-3.12,3.49c0,.91.71,1.58,1.69,1.58.58,0,1.09-.26,1.37-.7.15-.23.23-.56.23-.91,0-.99-.59-1.57-1.58-1.57s-1.71.68-1.71,1.6Z" fill="#231815"/>
      <path d="m88.39,124.87c.06-.39.08-.78.08-1.3v-5.51h-.48c-.37,0-.66.02-1.03.06v-1.27c.31.05.53.06,1,.06h.92c.51,0,.66,0,1.02-.05-.06.59-.08,1.05-.08,1.65v5.06c0,.53.02.89.08,1.3h-1.51Z" fill="#231815"/>
    </g>
    <g>
      <path d="m62.37,192.56c-.12.11-.15.13-.26.25-.52.55-1.05,1-1.65,1.44v2.99c0,.39,0,.59.04.78h-.98c.04-.2.04-.34.04-.76v-2.47c-.82.49-1.21.67-2.5,1.13-.15-.36-.22-.48-.47-.8,1.39-.38,2.56-.96,3.68-1.82.62-.48,1.1-.97,1.3-1.31l.81.56Z" fill="#231815"/>
      <path d="m64.06,196.84c.6-.04,1.44-.24,2.07-.52.88-.38,1.53-.92,2.08-1.72.31-.45.5-.83.71-1.4.27.33.39.43.74.69-.6,1.28-1.26,2.11-2.22,2.75-.71.48-1.58.82-2.67,1.05-.28.06-.3.06-.46.12l-.26-.97Zm.6-4.35c.83.52,1.27.84,1.81,1.35l-.6.76c-.56-.6-1.13-1.06-1.79-1.42l.58-.69Z" fill="#231815"/>
      <path d="m76.21,193.27c-.08.11-.11.18-.22.47-.83,2.29-1.92,3.5-4.03,4.48-.21-.36-.34-.52-.58-.73,1.05-.41,1.95-1.01,2.51-1.67-.43-.37-.99-.76-1.44-.99l.53-.62c.55.31.92.55,1.41.94.29-.43.59-1.05.78-1.65l-2.18.02c-.39.66-1,1.36-1.64,1.88-.22-.25-.35-.36-.7-.56.71-.53,1.34-1.24,1.75-2,.24-.44.36-.71.41-.97l.91.2c-.08.13-.08.14-.21.4-.12.25-.13.27-.17.34.07,0,.09,0,.2-.01h1.62c.15-.02.31-.03.39-.04-.16-.31-.29-.51-.5-.79l.54-.16c.29.36.46.64.64,1.09l-.26.08.22.32Zm.44-.48c-.17-.39-.37-.74-.62-1.07l.52-.17c.29.34.46.62.64,1.05l-.54.19Z" fill="#231815"/>
      <path d="m83.08,197.92c-.58-.71-1.39-1.5-2.15-2.08-.79.88-1.6,1.5-2.67,2.02-.2-.36-.28-.48-.57-.78.54-.21.88-.4,1.4-.77,1.06-.74,1.9-1.76,2.35-2.85l.08-.18q-.11,0-2.32.04c-.34,0-.53.02-.76.06l-.03-.9c.2.03.33.04.62.04h.17l2.47-.04c.39,0,.45-.01.62-.08l.46.48c-.09.1-.15.2-.22.38-.32.75-.67,1.36-1.09,1.93.44.29.82.59,1.3,1.02q.17.15,1.02.97l-.67.73Z" fill="#231815"/>
      <path d="m86.07,198c.04-.22.04-.41.04-.78v-4.49c0-.34-.01-.53-.04-.71h.96c-.03.21-.03.3-.03.74v1.3c.96.34,2.06.85,3.18,1.48l-.49.83c-.58-.4-1.31-.8-2.48-1.34-.16-.08-.18-.08-.24-.12.02.2.03.28.03.48v1.85c0,.36,0,.55.03.78h-.96Z" fill="#231815"/>
      <path d="m93.6,192.17c-.03.2-.03.26-.03.63v1.93c0,.35,0,.44.03.62h-.96c.02-.16.03-.38.03-.63v-1.93c0-.36,0-.45-.03-.63h.95Zm3.18,0c-.03.18-.04.25-.04.65v.95c0,1.09-.06,1.68-.18,2.12-.2.7-.65,1.23-1.38,1.63-.37.21-.72.35-1.37.54-.13-.34-.2-.46-.49-.83.69-.13,1.09-.28,1.51-.56.66-.43.89-.86.97-1.79.03-.3.04-.61.04-1.17v-.88c0-.36,0-.5-.04-.67h.97Z" fill="#231815"/>
      <path d="m101.93,193.74c-.02.13-.02.14-.03.57-.03,1.2-.22,1.87-.69,2.48-.42.54-.93.9-1.81,1.26-.18-.38-.27-.5-.55-.8.57-.17.88-.32,1.23-.6.71-.57.94-1.17.94-2.49,0-.21,0-.27-.04-.42h.95Zm2.84-.88c-.1.12-.1.13-.28.49-.25.52-.65,1.04-1.08,1.41-.28.25-.51.4-.84.58-.21-.29-.32-.4-.63-.64.47-.21.74-.37,1.02-.64.29-.27.5-.55.67-.89h-3.68c-.49,0-.67,0-.95.04v-.88c.27.04.48.06.97.06h3.66c.42,0,.48,0,.68-.06l.47.53Z" fill="#231815"/>
      <path d="m107.8,192.26q-.03.2-.07,1.57c-.05,1.37-.2,2.16-.57,2.88-.24.48-.5.84-.97,1.3-.27-.35-.38-.46-.71-.68.34-.28.51-.47.72-.81.5-.81.67-1.71.67-3.67,0-.38,0-.45-.03-.64l.95.05Zm1.86-.08c-.04.2-.04.32-.05.67l-.04,3.99c.49-.23.77-.44,1.07-.8.32-.38.53-.76.69-1.28.25.31.34.41.66.66-.29.69-.65,1.22-1.11,1.63-.4.34-.76.55-1.49.84-.15.06-.21.08-.3.13l-.45-.48c.05-.2.06-.36.06-.74l.04-3.95v-.21c0-.17,0-.33-.03-.46h.95Z" fill="#231815"/>
      <path d="m70.43,205.99c-.02.13-.02.14-.03.57-.03,1.2-.22,1.87-.69,2.48-.42.54-.93.9-1.81,1.26-.18-.38-.27-.5-.55-.8.57-.17.88-.32,1.23-.6.71-.57.94-1.17.94-2.49,0-.21,0-.27-.04-.42h.95Zm2.84-.88c-.1.12-.1.13-.28.49-.25.52-.65,1.04-1.08,1.41-.28.25-.51.4-.84.58-.21-.29-.32-.4-.63-.64.47-.21.74-.37,1.02-.64.29-.27.5-.55.67-.89h-3.68c-.49,0-.67,0-.95.04v-.88c.27.04.48.06.97.06h3.66c.42,0,.48,0,.68-.06l.47.53Z" fill="#231815"/>
      <path d="m74.21,206.76c.31.04.44.05,1.13.05h3.73c.69,0,.83,0,1.13-.05v.97c-.28-.04-.36-.04-1.14-.04h-3.72c-.78,0-.86,0-1.14.04v-.97Z" fill="#231815"/>
      <path d="m82.57,210.25c.04-.22.04-.41.04-.78v-4.49c0-.34-.01-.53-.04-.71h.96c-.03.21-.03.3-.03.74v1.3c.96.34,2.06.85,3.18,1.48l-.49.83c-.58-.4-1.31-.8-2.48-1.34-.16-.08-.18-.08-.24-.12.02.2.03.28.03.48v1.85c0,.36,0,.55.03.78h-.96Z" fill="#231815"/>
      <path d="m88.96,208.58c-.36,0-.64.01-.85.04v-.78c.24.03.52.05.85.05h1.9v-.05c0-.14,0-.27-.02-.39h.3c.3-.15.53-.31.83-.57h-1.93c-.29,0-.48,0-.7.03v-.7c.21.03.41.04.71.04h2.32c.27,0,.41,0,.53-.03l.39.43q-.12.1-.25.21c-.5.43-.85.69-1.4,1.02h0s1.83,0,1.83,0c.34,0,.65-.01.86-.05v.78c-.2-.03-.5-.04-.87-.04h-1.82v1.23c0,.25-.02.34-.09.44-.12.18-.36.23-.99.23-.09,0-.32,0-.69-.03-.08-.37-.11-.49-.23-.74.34.05.65.07.87.07.31,0,.36-.02.36-.16v-1.04h-1.9Zm.36-3.46c-.16-.31-.25-.45-.53-.79l.71-.21c.25.3.41.55.64,1h.74c-.12-.33-.23-.57-.43-.88l.73-.2c.29.54.33.64.48,1.09h.6c.21-.28.46-.72.57-1.05l.76.21c-.16.3-.36.62-.52.84h.31c.48,0,.61,0,.86-.03-.02.18-.03.32-.03.58v.65c0,.19.01.36.04.53h-.76v-1.09h-4.57v1.09h-.76c.03-.16.03-.32.03-.54v-.64c0-.25,0-.4-.03-.58.31.03.36.03.83.03h.33Z" fill="#231815"/>
      <path d="m96.19,205.19c-.29.06-.41.07-.82.13-.07-.29-.12-.41-.27-.67,1.13-.12,1.97-.32,2.39-.6l.43.64s-.03,0-.11.05c-.19.08-.53.19-.88.29v.86h.39c.24,0,.37,0,.52-.03v.75c-.16-.03-.32-.03-.53-.03h-.34c.2.4.49.74.97,1.09-.15.2-.27.39-.38.69-.34-.37-.48-.57-.66-.96.01.17.02.48.04.91v1.37c0,.4,0,.6.04.86h-.83c.03-.26.04-.5.04-.86v-1.13c0-.16,0-.36.04-.89-.22.64-.45,1.07-.85,1.58-.15-.36-.2-.46-.41-.73.32-.33.55-.66.79-1.13.14-.27.27-.59.34-.79h-.36c-.25,0-.41,0-.62.04v-.76c.2.04.36.04.63.04h.44v-.7Zm3.81-.29c0-.41,0-.6-.04-.81h.85c-.04.23-.04.42-.04.81v3.02c.4-.09.44-.1.66-.19l.06.82c-.19.02-.39.06-.67.12h-.06v1.06c0,.39,0,.6.04.83h-.85c.04-.24.04-.41.04-.83v-.87l-1.58.35c-.27.06-.5.13-.68.18l-.09-.81h.04c.19,0,.35-.04.62-.1l1.69-.38v-3.18Zm-1.71,1.32c.62.44.88.65,1.32,1.09l-.44.62c-.55-.58-.81-.81-1.33-1.15l.45-.56Zm.24-1.75c.68.46.97.69,1.35,1.1l-.48.63c-.45-.5-.75-.77-1.32-1.16l.45-.57Z" fill="#231815"/>
      <path d="m82.82,218.06c-.18-.51-.44-.71-.94-.71s-.86.25-1.1.73c-.17.36-.25.7-.29,1.24.38-.51.79-.7,1.5-.7s1.32.31,1.62.83c.17.27.25.64.25,1.05,0,1.11-.84,1.89-2.03,1.89-.56,0-1.08-.17-1.42-.46-.52-.45-.81-1.29-.81-2.35,0-.86.22-1.69.57-2.16.41-.56.97-.83,1.71-.83.6,0,1.1.18,1.44.53.18.19.29.35.44.71l-.95.22Zm-2.19,2.44c0,.64.5,1.11,1.18,1.11.41,0,.76-.18.96-.49.1-.16.16-.39.16-.64,0-.69-.41-1.1-1.11-1.1s-1.2.48-1.2,1.12Z" fill="#231815"/>
      <path d="m85.6,220.82c.06.2.11.29.21.41.2.24.49.36.86.36.69,0,1.15-.46,1.15-1.16s-.43-1.13-1.1-1.13c-.34,0-.65.11-.87.32-.1.1-.15.16-.21.32l-.88-.08c.07-.5.08-.53.09-.73l.16-1.74c0-.13.02-.36.03-.71.21.01.37.02.74.02h1.72c.48,0,.66,0,.97-.06v.88c-.31-.04-.58-.06-.97-.06h-1.65l-.11,1.23c0,.06-.02.15-.04.29.34-.29.71-.43,1.2-.43.57,0,1.02.17,1.37.53.34.34.5.76.5,1.32,0,1.23-.81,2-2.11,2-.69,0-1.21-.2-1.6-.61-.19-.2-.29-.37-.44-.76l.97-.2Z" fill="#231815"/>
    </g>
    <g>
      <path d="m120.01,79.41c-.31,0-.5,0-.74.03v-.68c.25.03.5.04.79.04h3.7c.31,0,.55-.01.79-.04v.68c-.23-.02-.41-.03-.72-.03h-1.6v.27h1.88c.47,0,.67,0,.87-.03-.03.18-.03.31-.03.57v.44c0,.25,0,.36.04.55h-.72v-.99h-2.03v.69c0,.34,0,.47.03.66h-.81c.02-.2.04-.37.04-.66v-.69h-1.93v.99h-.73c.03-.19.04-.31.04-.55v-.44c0-.25,0-.39-.03-.57.2.02.39.03.86.03h1.78v-.27h-1.48Zm4.4,4.07c.25.14.46.22.74.28-.02.61-.1.9-.28,1.06-.2.17-.6.22-1.8.22-1.37,0-1.58-.07-1.58-.54v-.48h-1.34v.36h-.78c.03-.22.04-.44.04-.69v-1.29c0-.27-.01-.46-.03-.67.19.02.36.03.67.03h3.7c.31,0,.5,0,.69-.03-.02.19-.03.36-.03.68v1.07Zm-4.55-3.07c.11.02.17.02.36.02h.62c.15,0,.27,0,.36-.02v.47c-.11-.01-.19-.02-.36-.02h-.62c-.17,0-.25,0-.36.02v-.47Zm0,.66c.11.02.17.02.36.02h.62c.16,0,.27,0,.36-.02v.47c-.1-.01-.18-.02-.36-.02h-.62c-.18,0-.25,0-.36.02v-.47Zm.29,1.23v.32h1.34v-.32h-1.34Zm0,.82v.35h1.34v-.35h-1.34Zm2.07-.5h1.46v-.32h-1.46v.32Zm0,.85h1.46v-.35h-1.46v.35Zm0,.81c0,.06.01.09.05.1.09.05.42.08.99.08.51,0,.88-.04.99-.09.08-.04.11-.1.13-.34h-2.16v.25Zm.33-3.87c.1.02.17.02.36.02h.71c.16,0,.26,0,.36-.02v.47c-.12-.01-.19-.02-.36-.02h-.71c-.17,0-.26,0-.36.02v-.47Zm0,.66c.1.02.17.02.36.02h.71c.16,0,.27,0,.36-.02v.47c-.11-.01-.18-.02-.36-.02h-.71c-.18,0-.25,0-.36.02v-.47Z" fill="#231815"/>
      <path d="m128.61,81.1c0-.22,0-.37-.02-.53h.36c.48-.28.67-.43,1.19-.9h-2.79c-.37,0-.6.01-.85.04v-.83c.25.03.48.04.84.04h3.17c.36,0,.47,0,.61-.04l.46.51q-.18.17-.66.62c-.34.31-.89.72-1.49,1.08v.3h1.72c.46,0,.71-.01.95-.04v.85c-.27-.03-.53-.04-.95-.04h-1.72v2.05c0,.62-.24.77-1.17.77-.14,0-.28,0-.78-.03-.06-.41-.09-.54-.22-.84.42.06.68.08,1.02.08.29,0,.34-.03.34-.18v-1.85h-1.88c-.42,0-.66.01-.95.04v-.85c.26.03.52.04.97.04h1.86v-.31Z" fill="#231815"/>
      <path d="m132.6,81.84c.17-.62.22-1.05.23-1.85l.55.13c-.01.76-.08,1.34-.22,1.95l-.56-.23Zm1.66,2.4c0,.36.01.61.04.87h-.82c.04-.24.05-.55.05-.89v-4.85c0-.31-.01-.5-.05-.75h.82c-.04.25-.04.42-.04.75v.58l.41-.16c.18.35.19.39.36.91l-.19.08c.17.01.31.02.59.02h1.04v-.28h-.8c-.27,0-.39,0-.59.03v-.62c.18.02.31.03.6.03h.79v-.26h-.9c-.37,0-.5,0-.69.04v-.67c.2.04.35.04.73.04h.87c0-.21,0-.32-.04-.48h.81c-.04.17-.04.26-.04.48h1.07c.39,0,.53,0,.73-.04v.67c-.2-.03-.38-.04-.71-.04h-1.09v.26h.99c.3,0,.41,0,.58-.03v.62c-.17-.02-.31-.03-.6-.03h-.97v.28h1.23c.34,0,.5,0,.69-.03v.69c-.21-.03-.41-.04-.69-.04h-2.98c-.34,0-.51,0-.71.04v-.62l-.22.1c-.07-.29-.14-.51-.25-.78v4.08Zm1.52.06c0,.34.01.59.04.8h-.81c.03-.23.04-.39.04-.8v-2.02c0-.27,0-.4-.02-.6.17.01.31.02.56.02h2.47c.31,0,.48,0,.63-.03-.02.17-.03.38-.03.72v1.97c0,.53-.19.67-.9.67-.15,0-.29,0-.63-.03-.04-.3-.07-.42-.16-.67.29.04.51.06.69.06.22,0,.27-.03.27-.17v-.24h-2.14v.29Zm2.14-1.72v-.29h-2.14v.29h2.14Zm0,.85v-.29h-2.14v.29h2.14Z" fill="#231815"/>
      <path d="m142.23,80.51c.29,0,.42,0,.61-.03v.74c-.13-.02-.22-.02-.39-.03-.08.34-.11.47-.23.78h.08c.25,0,.39,0,.54-.04v.74c-.19-.02-.34-.03-.61-.03h-.55v.56h.48c.27,0,.41,0,.58-.03v.74c-.18-.02-.32-.03-.58-.03h-.48v.51c0,.23.01.49.04.71h-.77c.03-.23.04-.44.04-.71v-.51h-.5c-.27,0-.39,0-.58.03v-.74c.17.02.31.03.58.03h.5v-.56h-.62c-.27,0-.41,0-.61.03v-.74c.18.03.29.04.61.04h.08c-.04-.28-.08-.47-.18-.78-.23,0-.34,0-.5.03v-.74c.18.03.33.03.61.03h.63v-.54h-.48c-.25,0-.39,0-.58.03v-.73c.17.02.3.03.58.03h.48v-.13c0-.2-.01-.43-.04-.53h.76c-.02.16-.03.31-.03.53v.13h.41c.28,0,.41,0,.58-.03v.73c-.18-.02-.34-.03-.58-.03h-.41v.54h.55Zm-.67,1.46c.09-.24.15-.48.21-.78h-.84c.1.34.13.47.17.78h.46Zm4.44-.5c-.04.09-.05.13-.08.31-.15.64-.36,1.27-.6,1.74.27.34.5.53.97.81-.22.34-.29.47-.41.74-.41-.32-.64-.55-.95-.91-.25.34-.48.6-.83.9-.13-.25-.23-.39-.39-.61,0,.28.02.42.05.66h-.8c.04-.29.05-.47.05-.83v-4.69c0-.25-.01-.52-.04-.71.2.03.4.04.66.04h1.72c.31,0,.53-.01.65-.04-.02.2-.03.29-.04.46-.08,1.29-.18,1.44-.95,1.44-.19,0-.31,0-.63-.04-.04-.31-.07-.43-.15-.66.28.05.57.08.72.08.22,0,.25-.07.28-.59h-1.53v1.53h1.32c.34,0,.52,0,.67-.03l.32.39Zm-2.3,2.89c.32-.25.55-.49.78-.81-.3-.5-.44-.87-.67-1.77h-.11v2.58Zm.75-2.58c.12.48.22.76.42,1.11.15-.33.24-.61.34-1.11h-.76Z" fill="#231815"/>
      <path d="m147.68,80.67c.72.29,1.26.56,1.86.95l-.43.79c-.56-.41-1.18-.75-1.9-1.03l.47-.71Zm-.32,3.14c.53,0,1.3-.17,2.02-.46.87-.34,1.46-.79,2.02-1.54.38-.5.6-.92.81-1.55.29.3.39.39.73.62-.32.78-.62,1.26-1.05,1.77-.89,1.02-2.08,1.65-3.8,1.99-.25.05-.35.07-.49.11l-.25-.95Zm.85-4.83c.72.28,1.27.55,1.86.9l-.45.77c-.64-.43-1.26-.76-1.87-.97l.46-.71Z" fill="#231815"/>
      <path d="m159.29,84.77c-.58-.71-1.39-1.5-2.15-2.08-.79.88-1.6,1.5-2.67,2.02-.2-.36-.28-.48-.57-.78.54-.21.88-.4,1.4-.77,1.06-.74,1.9-1.76,2.35-2.85l.08-.18q-.11,0-2.32.04c-.34,0-.53.02-.76.06l-.03-.9c.2.03.33.04.62.04h.17l2.47-.04c.39,0,.45-.01.62-.08l.46.48c-.09.1-.15.2-.22.38-.32.75-.67,1.36-1.09,1.93.44.29.82.59,1.3,1.02q.17.15,1.02.97l-.67.73Z" fill="#231815"/>
      <path d="m164.49,81.68c-.03.81-.19,1.39-.49,1.88-.37.62-.88,1-1.83,1.38-.18-.36-.27-.48-.57-.77.84-.26,1.37-.63,1.66-1.17.18-.32.29-.78.31-1.32h-1.71c-.48,0-.64,0-.89.03v-.83c.27.04.42.05.9.05h4.1c.48,0,.64,0,.9-.05v.83c-.25-.03-.41-.03-.89-.03h-1.5Zm-2.81-2.56c.26.04.4.05.9.05h2.69c.5,0,.64,0,.9-.05v.85c-.23-.03-.4-.04-.89-.04h-2.72c-.49,0-.66,0-.89.04v-.85Z" fill="#231815"/>
      <path d="m171.18,79.05c-.08.15-.08.17-.18.5-.53,1.75-.94,2.91-1.39,3.99,1.1-.08,2.31-.23,2.91-.36-.08-.17-.16-.32-.33-.64-.31-.58-.43-.78-.67-1.11l.79-.31c.65.95,1.27,2.13,1.69,3.24l-.85.44q-.09-.29-.34-.87-.09.02-.25.06c-.71.15-1.87.29-3.96.5-.39.04-.5.05-.64.08l-.13-.95h.18c.14,0,.31,0,.6-.02.37-.88.65-1.67,1.02-2.82.33-1.03.46-1.53.51-1.94l1.02.2Z" fill="#231815"/>
      <path d="m137.56,92.27c-.39,0-.63.01-.9.04v-.83c.25.03.48.04.91.04h3.77c.41,0,.64-.01.9-.04v.83c-.29-.03-.52-.04-.9-.04h-1.54v3.75h1.88c.41,0,.67-.01.95-.05v.85c-.26-.03-.57-.05-.95-.05h-4.47c-.36,0-.66.01-.95.05v-.85c.29.04.54.05.97.05h1.75v-3.75h-1.42Z" fill="#231815"/>
      <path d="m144.17,95.43c-.36,0-.64.01-.85.04v-.78c.24.03.52.05.85.05h1.9v-.05c0-.14,0-.27-.02-.39h.3c.3-.15.53-.31.83-.57h-1.93c-.29,0-.48,0-.7.03v-.7c.21.03.41.04.71.04h2.32c.27,0,.41,0,.53-.03l.39.43q-.12.1-.25.21c-.5.43-.85.69-1.4,1.02h0s1.83,0,1.83,0c.34,0,.65-.01.86-.05v.78c-.2-.03-.5-.04-.87-.04h-1.82v1.23c0,.25-.02.34-.09.44-.12.18-.36.23-.99.23-.09,0-.32,0-.69-.03-.08-.37-.11-.49-.23-.74.34.05.65.07.87.07.31,0,.36-.02.36-.16v-1.04h-1.9Zm.36-3.46c-.16-.31-.25-.45-.53-.79l.71-.21c.25.3.41.55.64,1h.74c-.12-.33-.23-.57-.43-.88l.73-.2c.29.54.33.64.48,1.09h.6c.21-.28.46-.72.57-1.05l.76.21c-.16.3-.36.62-.52.84h.31c.48,0,.61,0,.86-.03-.02.18-.03.32-.03.58v.65c0,.19.01.36.04.53h-.76v-1.09h-4.57v1.09h-.76c.03-.16.03-.32.03-.54v-.64c0-.25,0-.4-.03-.58.31.03.36.03.83.03h.33Z" fill="#231815"/>
      <path d="m151.4,92.04c-.29.06-.41.07-.82.13-.07-.29-.12-.41-.27-.67,1.13-.12,1.97-.32,2.39-.6l.43.64s-.03,0-.11.05c-.19.08-.53.19-.88.29v.86h.39c.24,0,.37,0,.52-.03v.75c-.16-.03-.31-.03-.53-.03h-.34c.2.4.49.74.97,1.09-.15.2-.27.39-.38.69-.34-.37-.48-.57-.66-.96.01.17.02.48.04.91v1.37c0,.4,0,.6.04.86h-.83c.03-.26.04-.5.04-.86v-1.13c0-.16,0-.36.04-.89-.22.64-.45,1.07-.85,1.58-.15-.36-.2-.46-.41-.73.32-.33.55-.66.79-1.13.14-.27.27-.59.34-.79h-.36c-.25,0-.41,0-.62.04v-.76c.2.04.36.04.63.04h.44v-.7Zm3.81-.29c0-.41,0-.6-.04-.81h.85c-.04.23-.04.42-.04.81v3.02c.4-.09.44-.1.66-.19l.06.82c-.19.02-.39.06-.67.12h-.06v1.06c0,.39,0,.6.04.83h-.85c.04-.24.04-.41.04-.83v-.87l-1.58.35c-.27.06-.5.13-.68.18l-.09-.81h.04c.19,0,.35-.04.62-.1l1.69-.38v-3.18Zm-1.71,1.32c.62.44.88.65,1.32,1.09l-.44.62c-.55-.58-.81-.81-1.33-1.15l.45-.56Zm.24-1.75c.68.46.97.69,1.35,1.1l-.48.63c-.45-.5-.75-.77-1.32-1.16l.45-.57Z" fill="#231815"/>
      <path d="m145.03,104.91c-.18-.51-.44-.71-.94-.71s-.86.25-1.1.73c-.17.36-.25.7-.29,1.24.38-.51.79-.7,1.5-.7s1.32.31,1.62.83c.17.27.25.64.25,1.05,0,1.11-.84,1.89-2.03,1.89-.56,0-1.08-.17-1.42-.46-.52-.45-.81-1.29-.81-2.35,0-.86.22-1.69.57-2.16.41-.56.97-.83,1.71-.83.6,0,1.1.18,1.44.53.18.19.29.35.44.71l-.95.22Zm-2.19,2.44c0,.64.5,1.11,1.18,1.11.41,0,.76-.18.96-.49.1-.16.16-.39.16-.64,0-.69-.41-1.1-1.11-1.1s-1.2.48-1.2,1.12Z" fill="#231815"/>
      <path d="m150.98,104.32c-.22.22-.43.5-.73,1.01-.74,1.24-1.11,2.31-1.3,3.79h-1.11c.23-1.17.44-1.84.85-2.71.32-.69.61-1.17,1.23-2.04h-2.16c-.41,0-.63.01-.92.05v-.92c.32.04.55.05.96.05h2.23c.53,0,.71,0,.96-.03v.81Z" fill="#231815"/>
    </g>
    <g>
      <path d="m183.14,78.98c-.31,0-.5,0-.74.03v-.68c.25.03.5.04.79.04h3.7c.31,0,.55-.01.79-.04v.68c-.23-.02-.41-.03-.72-.03h-1.6v.27h1.88c.47,0,.67,0,.87-.03-.03.18-.03.31-.03.57v.44c0,.25,0,.36.04.55h-.72v-.99h-2.03v.69c0,.34,0,.47.03.66h-.81c.02-.2.04-.37.04-.66v-.69h-1.93v.99h-.73c.03-.19.04-.31.04-.55v-.44c0-.25,0-.39-.03-.57.2.02.39.03.86.03h1.78v-.27h-1.48Zm4.4,4.07c.25.14.46.22.74.28-.02.61-.1.9-.28,1.06-.2.17-.6.22-1.8.22-1.37,0-1.58-.07-1.58-.54v-.48h-1.34v.36h-.78c.03-.22.04-.44.04-.69v-1.29c0-.27-.01-.46-.03-.67.19.02.36.03.67.03h3.7c.31,0,.5,0,.69-.03-.02.19-.03.36-.03.68v1.07Zm-4.55-3.07c.11.02.17.02.36.02h.62c.15,0,.27,0,.36-.02v.47c-.11-.01-.19-.02-.36-.02h-.62c-.17,0-.25,0-.36.02v-.47Zm0,.66c.11.02.17.02.36.02h.62c.16,0,.27,0,.36-.02v.47c-.1-.01-.18-.02-.36-.02h-.62c-.18,0-.25,0-.36.02v-.47Zm.29,1.23v.32h1.34v-.32h-1.34Zm0,.82v.35h1.34v-.35h-1.34Zm2.07-.5h1.46v-.32h-1.46v.32Zm0,.85h1.46v-.35h-1.46v.35Zm0,.81c0,.06.01.09.05.1.09.05.42.08.99.08.51,0,.88-.04.99-.09.08-.04.11-.1.13-.34h-2.16v.25Zm.33-3.87c.1.02.17.02.36.02h.71c.16,0,.26,0,.36-.02v.47c-.12-.01-.19-.02-.36-.02h-.71c-.17,0-.26,0-.36.02v-.47Zm0,.66c.1.02.17.02.36.02h.71c.16,0,.27,0,.36-.02v.47c-.11-.01-.18-.02-.36-.02h-.71c-.18,0-.25,0-.36.02v-.47Z" fill="#231815"/>
      <path d="m191.74,80.67c0-.22,0-.37-.02-.53h.36c.48-.28.67-.43,1.19-.9h-2.79c-.37,0-.6.01-.85.04v-.83c.25.03.48.04.84.04h3.17c.36,0,.47,0,.61-.04l.46.51q-.18.17-.66.62c-.34.31-.89.72-1.49,1.08v.3h1.72c.46,0,.71-.01.95-.04v.85c-.27-.03-.53-.04-.95-.04h-1.72v2.05c0,.62-.24.77-1.17.77-.14,0-.28,0-.78-.03-.06-.41-.09-.54-.22-.84.42.06.68.08,1.02.08.29,0,.34-.03.34-.18v-1.85h-1.88c-.42,0-.66.01-.95.04v-.85c.26.03.52.04.97.04h1.86v-.31Z" fill="#231815"/>
      <path d="m195.74,81.41c.17-.62.22-1.05.23-1.85l.55.13c-.01.76-.08,1.34-.22,1.95l-.56-.23Zm1.66,2.4c0,.36.01.61.04.87h-.82c.04-.24.05-.55.05-.89v-4.85c0-.31-.01-.5-.05-.75h.82c-.04.25-.04.42-.04.75v.58l.41-.16c.18.35.19.39.36.91l-.19.08c.17.01.31.02.59.02h1.04v-.28h-.8c-.27,0-.39,0-.59.03v-.62c.18.02.31.03.6.03h.79v-.26h-.9c-.37,0-.5,0-.69.04v-.67c.2.04.35.04.73.04h.87c0-.21,0-.32-.04-.48h.81c-.04.17-.04.26-.04.48h1.07c.39,0,.53,0,.73-.04v.67c-.2-.03-.38-.04-.71-.04h-1.09v.26h.99c.3,0,.41,0,.58-.03v.62c-.17-.02-.31-.03-.6-.03h-.97v.28h1.23c.34,0,.5,0,.69-.03v.69c-.21-.03-.41-.04-.69-.04h-2.98c-.34,0-.51,0-.71.04v-.62l-.22.1c-.07-.29-.14-.51-.25-.78v4.08Zm1.52.06c0,.34.01.59.04.8h-.81c.03-.23.04-.39.04-.8v-2.02c0-.27,0-.4-.02-.6.17.01.31.02.56.02h2.47c.31,0,.48,0,.63-.03-.02.17-.03.38-.03.72v1.97c0,.53-.19.67-.9.67-.15,0-.29,0-.63-.03-.04-.3-.07-.42-.16-.67.29.04.51.06.69.06.22,0,.27-.03.27-.17v-.24h-2.14v.29Zm2.14-1.72v-.29h-2.14v.29h2.14Zm0,.85v-.29h-2.14v.29h2.14Z" fill="#231815"/>
      <path d="m205.37,80.08c.29,0,.42,0,.61-.03v.74c-.13-.02-.22-.02-.39-.03-.08.34-.11.47-.23.78h.08c.25,0,.39,0,.54-.04v.74c-.19-.02-.34-.03-.61-.03h-.55v.56h.48c.27,0,.41,0,.58-.03v.74c-.18-.02-.32-.03-.58-.03h-.48v.51c0,.23.01.49.04.71h-.77c.03-.23.04-.44.04-.71v-.51h-.5c-.27,0-.39,0-.58.03v-.74c.17.02.31.03.58.03h.5v-.56h-.62c-.27,0-.41,0-.61.03v-.74c.18.03.29.04.61.04h.08c-.04-.28-.08-.47-.18-.78-.23,0-.34,0-.5.03v-.74c.18.03.33.03.61.03h.63v-.54h-.48c-.25,0-.39,0-.58.03v-.73c.17.02.3.03.58.03h.48v-.13c0-.2-.01-.43-.04-.53h.76c-.02.16-.03.31-.03.53v.13h.41c.28,0,.41,0,.58-.03v.73c-.18-.02-.34-.03-.58-.03h-.41v.54h.55Zm-.67,1.46c.09-.24.15-.48.21-.78h-.84c.1.34.13.47.17.78h.46Zm4.44-.5c-.04.09-.05.13-.08.31-.15.64-.36,1.27-.6,1.74.27.34.5.53.97.81-.22.34-.29.47-.41.74-.41-.32-.64-.55-.95-.91-.25.34-.48.6-.83.9-.13-.25-.23-.39-.39-.61,0,.28.02.42.05.66h-.8c.04-.29.05-.47.05-.83v-4.69c0-.25-.01-.52-.04-.71.2.03.4.04.66.04h1.72c.31,0,.53-.01.65-.04-.02.2-.03.29-.04.46-.08,1.29-.18,1.44-.95,1.44-.19,0-.31,0-.63-.04-.04-.31-.07-.43-.15-.66.28.05.57.08.72.08.22,0,.25-.07.28-.59h-1.53v1.53h1.32c.34,0,.52,0,.67-.03l.32.39Zm-2.3,2.89c.32-.25.55-.49.78-.81-.3-.5-.44-.87-.67-1.77h-.11v2.58Zm.75-2.58c.12.48.22.76.42,1.11.15-.33.24-.61.34-1.11h-.76Z" fill="#231815"/>
      <path d="m210.81,80.24c.72.29,1.26.56,1.86.95l-.43.79c-.56-.41-1.18-.75-1.9-1.03l.47-.71Zm-.32,3.14c.53,0,1.3-.17,2.02-.46.87-.34,1.46-.79,2.02-1.54.38-.5.6-.92.81-1.55.29.3.39.39.73.62-.32.78-.62,1.26-1.05,1.77-.89,1.02-2.08,1.65-3.8,1.99-.25.05-.35.07-.49.11l-.25-.95Zm.85-4.83c.72.28,1.27.55,1.86.9l-.45.77c-.64-.43-1.26-.76-1.87-.97l.46-.71Z" fill="#231815"/>
      <path d="m222.42,84.33c-.58-.71-1.39-1.5-2.15-2.08-.79.88-1.6,1.5-2.67,2.02-.2-.36-.28-.48-.57-.78.54-.21.88-.4,1.4-.77,1.06-.74,1.9-1.76,2.35-2.85l.08-.18q-.11,0-2.32.04c-.34,0-.53.02-.76.06l-.03-.9c.2.03.33.04.62.04h.17l2.47-.04c.39,0,.45-.01.62-.08l.46.48c-.09.1-.15.2-.22.38-.32.75-.67,1.36-1.09,1.93.44.29.82.59,1.3,1.02q.17.15,1.02.97l-.67.73Z" fill="#231815"/>
      <path d="m227.62,81.25c-.03.81-.19,1.39-.49,1.88-.37.62-.88,1-1.83,1.38-.18-.36-.27-.48-.57-.77.84-.26,1.37-.63,1.66-1.17.18-.32.29-.78.31-1.32h-1.71c-.48,0-.64,0-.89.03v-.83c.27.04.42.05.9.05h4.1c.48,0,.64,0,.9-.05v.83c-.25-.03-.41-.03-.89-.03h-1.5Zm-2.81-2.56c.26.04.4.05.9.05h2.69c.5,0,.64,0,.9-.05v.85c-.23-.03-.4-.04-.89-.04h-2.72c-.49,0-.66,0-.89.04v-.85Z" fill="#231815"/>
      <path d="m234.31,78.62c-.08.15-.08.17-.18.5-.53,1.75-.94,2.91-1.39,3.99,1.1-.08,2.31-.23,2.91-.36-.08-.17-.16-.32-.33-.64-.31-.58-.43-.78-.67-1.11l.79-.31c.65.95,1.27,2.13,1.69,3.24l-.85.44q-.09-.29-.34-.87-.09.02-.25.06c-.71.15-1.87.29-3.96.5-.39.04-.5.05-.64.08l-.13-.95h.18c.14,0,.31,0,.6-.02.37-.88.65-1.67,1.02-2.82.33-1.03.46-1.53.51-1.94l1.02.2Z" fill="#231815"/>
      <path d="m200.69,91.84c-.39,0-.63.01-.9.04v-.83c.25.03.48.04.91.04h3.77c.41,0,.64-.01.9-.04v.83c-.29-.03-.52-.04-.9-.04h-1.54v3.75h1.88c.41,0,.67-.01.95-.05v.85c-.26-.03-.57-.05-.95-.05h-4.47c-.36,0-.66.01-.95.05v-.85c.29.04.54.05.97.05h1.75v-3.75h-1.42Z" fill="#231815"/>
      <path d="m207.31,95c-.36,0-.64.01-.85.04v-.78c.24.03.52.05.85.05h1.9v-.05c0-.14,0-.27-.02-.39h.3c.3-.15.53-.31.83-.57h-1.93c-.29,0-.48,0-.7.03v-.7c.21.03.41.04.71.04h2.32c.27,0,.41,0,.53-.03l.39.43q-.12.1-.25.21c-.5.43-.85.69-1.4,1.02h0s1.83,0,1.83,0c.34,0,.65-.01.86-.05v.78c-.2-.03-.5-.04-.87-.04h-1.82v1.23c0,.25-.02.34-.09.44-.12.18-.36.23-.99.23-.09,0-.32,0-.69-.03-.08-.37-.11-.49-.23-.74.34.05.65.07.87.07.31,0,.36-.02.36-.16v-1.04h-1.9Zm.36-3.46c-.16-.31-.25-.45-.53-.79l.71-.21c.25.3.41.55.64,1h.74c-.12-.33-.23-.57-.43-.88l.73-.2c.29.54.33.64.48,1.09h.6c.21-.28.46-.72.57-1.05l.76.21c-.16.3-.36.62-.52.84h.31c.48,0,.61,0,.86-.03-.02.18-.03.32-.03.58v.65c0,.19.01.36.04.53h-.76v-1.09h-4.57v1.09h-.76c.03-.16.03-.32.03-.54v-.64c0-.25,0-.4-.03-.58.31.03.36.03.83.03h.33Z" fill="#231815"/>
      <path d="m214.53,91.61c-.29.06-.41.07-.82.13-.07-.29-.12-.41-.27-.67,1.13-.12,1.97-.32,2.39-.6l.43.64s-.03,0-.11.05c-.19.08-.53.19-.88.29v.86h.39c.24,0,.37,0,.52-.03v.75c-.16-.03-.31-.03-.53-.03h-.34c.2.4.49.74.97,1.09-.15.2-.27.39-.38.69-.34-.37-.48-.57-.66-.96.01.17.02.48.04.91v1.37c0,.4,0,.6.04.86h-.83c.03-.26.04-.5.04-.86v-1.13c0-.16,0-.36.04-.89-.22.64-.45,1.07-.85,1.58-.15-.36-.2-.46-.41-.73.32-.33.55-.66.79-1.13.14-.27.27-.59.34-.79h-.36c-.25,0-.41,0-.62.04v-.76c.2.04.36.04.63.04h.44v-.7Zm3.81-.29c0-.41,0-.6-.04-.81h.85c-.04.23-.04.42-.04.81v3.02c.4-.09.44-.1.66-.19l.06.82c-.19.02-.39.06-.67.12h-.06v1.06c0,.39,0,.6.04.83h-.85c.04-.24.04-.41.04-.83v-.87l-1.58.35c-.27.06-.5.13-.68.18l-.09-.81h.04c.19,0,.35-.04.62-.1l1.69-.38v-3.18Zm-1.71,1.32c.62.44.88.65,1.32,1.09l-.44.62c-.55-.58-.81-.81-1.33-1.15l.45-.56Zm.24-1.75c.68.46.97.69,1.35,1.1l-.48.63c-.45-.5-.75-.77-1.32-1.16l.45-.57Z" fill="#231815"/>
      <path d="m208.17,104.48c-.18-.51-.44-.71-.94-.71s-.86.25-1.1.73c-.17.36-.25.7-.29,1.24.38-.51.79-.7,1.5-.7s1.32.31,1.62.83c.17.27.25.64.25,1.05,0,1.11-.84,1.89-2.03,1.89-.56,0-1.08-.17-1.42-.46-.52-.45-.81-1.29-.81-2.35,0-.86.22-1.69.57-2.16.41-.56.97-.83,1.71-.83.6,0,1.1.18,1.44.53.18.19.29.35.44.71l-.95.22Zm-2.19,2.44c0,.64.5,1.11,1.18,1.11.41,0,.76-.18.96-.49.1-.16.16-.39.16-.64,0-.69-.41-1.1-1.11-1.1s-1.2.48-1.2,1.12Z" fill="#231815"/>
      <path d="m210.84,108.69c-.55,0-.66,0-.9.04.04-.4.09-.64.18-.9.19-.51.5-.96.96-1.37.25-.22.46-.38,1.16-.85.64-.44.84-.67.84-1.03,0-.48-.37-.77-.97-.77-.41,0-.71.14-.89.41-.12.17-.17.32-.22.64l-1-.12c.1-.53.22-.82.48-1.12.35-.41.9-.62,1.6-.62,1.23,0,1.98.59,1.98,1.55,0,.46-.15.8-.5,1.12-.2.18-.27.24-1.18.86-.31.22-.66.51-.83.7-.21.22-.29.36-.4.63h1.96c.44,0,.79-.02,1.02-.06v.92c-.33-.03-.61-.04-1.06-.04h-2.25Z" fill="#231815"/>
    </g>
    <g>
      <path d="m255.85,91.89c-.26.42-.37.59-.68.98.1.1.11.13.22.25.17-.23.24-.35.5-.77l.58.42q-.17.21-.56.72c-.22.27-.39.47-.64.72.24-.02.33-.02.58-.05-.05-.13-.07-.18-.14-.31l.5-.18c.2.42.29.63.47,1.26l-.56.18c-.04-.18-.06-.23-.09-.38-.16.02-.35.05-.58.07.18.12.2.13.42.33l-.3.29h.18c.48,0,.62,0,.84-.05v.84c-.24-.03-.53-.05-.84-.05h-.27l.62.39c-.31.41-.54.66-.87.96.23.32.44.5.56.5.14,0,.22-.22.3-.97.19.2.38.34.61.44-.09.58-.18.9-.33,1.13-.11.18-.27.26-.52.26-.4,0-.77-.26-1.22-.86-.58.41-1.03.65-1.75.9-.14-.3-.22-.44-.46-.71.72-.18,1.23-.39,1.84-.79-.18-.38-.28-.66-.41-1.23h-1.06c0,.13,0,.16-.02.26.26.3.47.45.89.67-.1.14-.15.22-.22.35q-.11.2-.17.3c-.26-.16-.47-.34-.66-.56-.21.7-.47,1.13-.99,1.66-.22-.26-.32-.34-.64-.58.63-.47.96-1.13,1.04-2.11-.3,0-.44.02-.6.03v-.81c.19.02.32.03.66.03h1.65c-.03-.23-.04-.3-.06-.45l-.45.16c-.02-.14-.02-.18-.03-.27-.21.03-.34.06-.56.09-.62.08-1.03.14-1.14.16l-.03-.25c-.12.23-.17.35-.23.56-.15-.24-.26-.46-.38-.74.02.22.03.7.03.98v2.3c0,.5,0,.78.04.98h-.87c.03-.22.05-.57.05-.98v-1.41c0-.36.02-.65.06-1.32-.24.84-.45,1.37-.7,1.79-.1-.37-.22-.66-.38-.88.22-.34.34-.6.6-1.27.08-.21.14-.4.33-1.08h-.19c-.2,0-.4.02-.54.03v-.86c.14.03.26.04.54.04h.27v-.66c0-.38,0-.63-.04-.84h.86c-.02.19-.03.41-.03.83v.67h.14c.17,0,.31,0,.41-.02-.06-.06-.09-.08-.18-.16l.46-.55.18.17c.25-.35.38-.61.51-.95l.66.33c-.26.48-.41.73-.7,1.12.08.1.11.14.19.25.22-.33.27-.42.42-.75l.57.38v-.38c0-.55-.02-.67-.06-.91h.88c-.04.15-.05.29-.05.54,0,.02,0,.13,0,.26v.25l.25-.34c.1.09.15.14.18.17.22-.29.36-.55.49-.87l.66.36Zm-4.4,1.93c-.2-.02-.29-.03-.46-.03h-.11c.12.3.25.5.49.78l-.02-.18c.06,0,.09,0,.12,0h.14c.27-.31.36-.42.5-.62-.24-.31-.41-.5-.66-.74v.78Zm1.91-.03c.11.25.15.34.21.53-.05-.67-.06-1.04-.06-1.4-.1.14-.12.18-.18.26-.3.45-.65.9-.91,1.18q.31-.02.58-.06c-.06-.13-.07-.18-.14-.34l.5-.16Zm.92-.85q0,.73.04,1.3h.11q.31-.33.51-.58c-.21-.28-.4-.49-.66-.72Zm.8,1.9c-.07,0-.12.02-.15.02q-.14.02-.34.04s-.09,0-.2.02c.02.18.02.21.06.5h.9c-.18-.18-.28-.24-.5-.34l.24-.23Zm-.5,1.32c.06.3.12.46.26.75.38-.35.49-.49.61-.75h-.86Z" fill="#231815"/>
      <path d="m259.59,95.18c-.02.06-.04.1-.05.12-.1.21-.12.23-.18.38-.12-.22-.31-.6-.42-.84.02.23.03.54.03,1.06v2.04c0,.42.02.74.05.98h-.9c.03-.25.05-.58.05-.98v-1.61s.02-.4.06-1.07c-.21.8-.42,1.3-.77,1.86-.1-.36-.21-.58-.39-.88.46-.66.84-1.62,1.01-2.5h-.23c-.19,0-.38.02-.54.04v-.85c.15.02.3.03.57.03h.29v-.63c0-.42,0-.62-.04-.82h.9c-.03.22-.04.44-.04.82v.63h.1c.22,0,.32,0,.48-.03v.84c-.15-.02-.28-.03-.46-.03h-.08c.16.43.37.78.74,1.18l-.1.14c.09,0,.19.02.31.02,0-.17,0-.3,0-.47,0-.39,0-.54-.04-.7h.78q-.03.19-.04,1.17h.36v-.59c0-.28,0-.42-.03-.58h.77c-.03.18-.04.34-.04.59v.58c.22,0,.3,0,.44-.03v.82c-.17-.02-.26-.02-.44-.02v.96c0,.3,0,.46.03.64h-.76c.02-.25.03-.39.03-.64v-.96h-.39c-.09,1.18-.28,1.81-.78,2.49-.18-.22-.37-.4-.62-.58.23-.26.37-.49.47-.81.14-.38.18-.6.22-1.1-.16,0-.23.02-.34.03v-.7Zm4.93-.73c-.07.14-.1.22-.21.51-.23.61-.51,1.17-.91,1.78.18.54.44,1.09.52,1.09.02,0,.06-.1.09-.21.04-.18.06-.47.07-.85.3.25.44.35.63.46-.06.61-.13.96-.24,1.2-.11.25-.3.4-.49.4-.4,0-.78-.44-1.14-1.34-.45.54-.78.84-1.49,1.34-.31-.38-.34-.41-.65-.65.82-.46,1.3-.87,1.85-1.6-.18-.78-.26-1.48-.34-2.99h-1.54c-.38,0-.64,0-.88.04v-.88c.24.02.5.04.87.04h1.52q0-.17-.02-.79c0-.18-.02-.33-.04-.48h.89c-.02.14-.03.24-.03.39,0,.16,0,.4.02.88h.88c-.25-.33-.48-.57-.81-.82l.5-.46c.34.24.55.44.85.79l-.54.49c.26,0,.38-.02.57-.05v.9c-.22-.03-.5-.05-.9-.05h-.54q0,.14,0,.48c0,.37.06,1.09.13,1.56.28-.58.47-1.14.52-1.55l.84.36Z" fill="#231815"/>
      <path d="m266.31,93.82c.82.33,1.44.64,2.13,1.09l-.5.9c-.64-.47-1.35-.86-2.17-1.18l.54-.82Zm-.36,3.58c.61,0,1.48-.2,2.31-.52.99-.38,1.67-.9,2.31-1.76.43-.58.68-1.06.93-1.77.33.34.45.45.83.71-.37.89-.7,1.44-1.2,2.02-1.02,1.17-2.37,1.88-4.34,2.27-.29.06-.4.08-.56.13l-.28-1.09Zm.98-5.52c.82.32,1.46.62,2.13,1.03l-.51.88c-.73-.49-1.44-.86-2.13-1.1l.52-.81Z" fill="#231815"/>
      <path d="m279.58,98.5c-.66-.82-1.58-1.71-2.45-2.37-.9,1.01-1.82,1.71-3.05,2.31-.22-.42-.32-.54-.65-.89.62-.24,1-.46,1.6-.88,1.21-.85,2.17-2.01,2.69-3.25l.09-.21q-.13,0-2.65.05c-.38,0-.6.02-.87.06l-.03-1.02c.22.04.38.05.7.05h.19l2.81-.04c.45,0,.51-.02.71-.09l.53.54c-.1.12-.17.23-.26.43-.37.86-.76,1.55-1.25,2.21.5.34.94.67,1.48,1.16q.2.18,1.17,1.11l-.77.83Z" fill="#231815"/>
      <path d="m285.52,94.97c-.04.92-.22,1.58-.56,2.15-.42.7-1.01,1.14-2.09,1.58-.2-.41-.3-.54-.65-.88.96-.3,1.56-.72,1.9-1.34.21-.37.33-.89.35-1.51h-1.95c-.54,0-.73,0-1.02.04v-.95c.3.05.48.06,1.03.06h4.68c.54,0,.73,0,1.03-.06v.95c-.29-.03-.47-.04-1.02-.04h-1.71Zm-3.21-2.93c.3.05.46.06,1.03.06h3.07c.58,0,.74,0,1.03-.06v.98c-.26-.03-.46-.04-1.02-.04h-3.1c-.56,0-.75,0-1.02.04v-.98Z" fill="#231815"/>
      <path d="m293.17,91.97c-.09.18-.1.19-.21.58-.61,2-1.07,3.33-1.58,4.56,1.26-.1,2.64-.26,3.33-.41-.09-.19-.18-.37-.38-.73-.35-.66-.5-.9-.76-1.27l.9-.35c.74,1.09,1.45,2.43,1.94,3.7l-.97.5q-.1-.33-.38-.99-.1.02-.29.06c-.81.17-2.13.34-4.53.57-.45.04-.57.06-.73.1l-.14-1.08h.21c.16,0,.35,0,.69-.02.42-1.01.74-1.91,1.16-3.22.38-1.18.53-1.74.58-2.21l1.16.22Z" fill="#231815"/>
      <path d="m262.75,107.07c-.44,0-.72.02-1.03.05v-.94c.28.03.55.05,1.04.05h4.3c.47,0,.73-.02,1.03-.05v.94c-.33-.03-.59-.05-1.02-.05h-1.76v4.28h2.14c.46,0,.77-.02,1.09-.06v.97c-.3-.04-.66-.06-1.09-.06h-5.1c-.42,0-.75.02-1.09.06v-.97c.33.04.62.06,1.1.06h2v-4.28h-1.62Z" fill="#231815"/>
      <path d="m270.31,110.69c-.42,0-.73.02-.98.05v-.89c.27.04.59.06.97.06h2.17v-.06c0-.16,0-.3-.02-.44h.34c.34-.18.61-.35.94-.65h-2.2c-.33,0-.54,0-.8.03v-.8c.24.03.46.04.81.04h2.65c.31,0,.46,0,.61-.03l.44.49q-.14.11-.29.24c-.57.49-.98.78-1.6,1.17h0s2.09,0,2.09,0c.39,0,.74-.02.98-.06v.89c-.23-.03-.58-.05-.99-.05h-2.08v1.4c0,.28-.02.39-.1.5-.14.2-.41.26-1.13.26-.1,0-.37,0-.78-.03-.09-.42-.13-.56-.26-.85.38.06.74.08.99.08.35,0,.41-.02.41-.18v-1.18h-2.17Zm.41-3.95c-.18-.35-.29-.51-.6-.9l.81-.24c.28.34.46.63.73,1.14h.85c-.14-.38-.26-.66-.49-1.01l.83-.23c.33.62.38.73.55,1.24h.68c.24-.32.52-.82.66-1.2l.86.24c-.18.34-.42.71-.6.96h.36c.54,0,.7,0,.98-.03-.02.2-.03.36-.03.66v.74c0,.22.02.42.04.61h-.87v-1.24h-5.21v1.24h-.87c.03-.18.04-.37.04-.62v-.74c0-.29,0-.46-.03-.66.36.03.41.03.94.03h.38Z" fill="#231815"/>
      <path d="m278.56,106.81c-.33.06-.46.08-.94.14-.08-.33-.14-.47-.3-.77,1.29-.14,2.25-.37,2.73-.68l.5.74s-.03,0-.13.06c-.22.09-.61.22-1.01.33v.98h.44c.27,0,.42,0,.59-.04v.86c-.18-.03-.36-.04-.61-.04h-.38c.22.46.56.84,1.1,1.25-.18.22-.3.45-.43.78-.39-.42-.55-.66-.75-1.1.02.2.02.55.04,1.04v1.57c0,.46,0,.68.05.98h-.94c.03-.3.05-.57.05-.98v-1.3c0-.18,0-.42.05-1.02-.26.74-.51,1.22-.97,1.8-.18-.42-.23-.52-.47-.83.37-.38.62-.75.9-1.3.16-.3.31-.67.38-.9h-.42c-.29,0-.47,0-.7.05v-.87c.23.04.41.05.72.05h.5v-.8Zm4.35-.34c0-.46,0-.68-.05-.93h.97c-.04.26-.05.48-.05.92v3.45c.46-.1.5-.12.75-.22l.07.94c-.22.02-.45.06-.76.14l-.06.02v1.19c0,.45,0,.69.05.94h-.97c.04-.27.05-.46.05-.95v-.99l-1.8.4c-.31.07-.58.14-.78.2l-.1-.93h.04c.22,0,.4-.04.71-.11l1.93-.43v-3.63Zm-1.95,1.51c.71.5,1,.74,1.51,1.24l-.5.71c-.63-.66-.93-.92-1.52-1.31l.51-.64Zm.27-2c.78.53,1.1.79,1.54,1.26l-.54.72c-.51-.58-.86-.88-1.51-1.32l.51-.66Z" fill="#231815"/>
      <path d="m271.29,121.52c-.21-.58-.5-.81-1.07-.81s-.98.28-1.26.83c-.2.42-.29.8-.33,1.42.43-.58.9-.8,1.71-.8s1.5.35,1.85.95c.19.31.29.73.29,1.2,0,1.26-.96,2.16-2.32,2.16-.64,0-1.23-.19-1.62-.53-.59-.51-.93-1.47-.93-2.68,0-.98.25-1.93.66-2.47.47-.64,1.11-.95,1.95-.95.69,0,1.25.21,1.64.61.21.22.33.4.5.82l-1.08.26Zm-2.49,2.79c0,.73.57,1.26,1.35,1.26.46,0,.87-.21,1.1-.56.12-.18.18-.45.18-.73,0-.79-.47-1.26-1.26-1.26s-1.37.54-1.37,1.28Z" fill="#231815"/>
      <path d="m273.89,122.55c-.25-.26-.39-.65-.39-1.06,0-1.02.86-1.67,2.23-1.67.97,0,1.68.31,2.02.87.14.22.22.51.22.8,0,.74-.42,1.29-1.15,1.5.36.05.6.15.86.38.38.3.56.72.56,1.25,0,1.19-.9,1.85-2.53,1.85-.93,0-1.57-.2-2.02-.64-.3-.29-.46-.72-.46-1.2,0-.56.22-1,.66-1.31.26-.18.46-.26.79-.32-.34-.09-.54-.21-.78-.44Zm3.22,1.98c0-.66-.52-1.06-1.38-1.06s-1.39.41-1.39,1.07.51,1.04,1.38,1.04,1.4-.38,1.4-1.05Zm-2.54-2.93c0,.58.45.95,1.18.95s1.14-.36,1.14-.94-.45-.93-1.16-.93-1.16.36-1.16.92Z" fill="#231815"/>
    </g>
    <g>
      <path d="m254.3,185.27c-.26.42-.37.59-.68.98.1.1.11.13.22.25.17-.23.24-.35.5-.77l.58.42q-.17.21-.56.72c-.22.27-.39.47-.64.72.24-.02.33-.02.58-.05-.05-.13-.07-.18-.14-.31l.5-.18c.2.42.29.63.47,1.26l-.56.18c-.04-.18-.06-.23-.09-.38-.16.02-.35.05-.58.07.18.12.2.13.42.33l-.3.29h.18c.48,0,.62,0,.84-.05v.84c-.24-.03-.53-.05-.84-.05h-.27l.62.39c-.31.41-.54.66-.87.96.23.32.44.5.56.5.14,0,.22-.22.3-.97.19.2.38.34.61.44-.09.58-.18.9-.33,1.13-.11.18-.27.26-.52.26-.4,0-.77-.26-1.22-.86-.58.41-1.03.65-1.75.9-.14-.3-.22-.44-.46-.71.72-.18,1.23-.39,1.84-.79-.18-.38-.28-.66-.41-1.23h-1.06c0,.13,0,.16-.02.26.26.3.47.45.89.67-.1.14-.15.22-.22.35q-.11.2-.17.3c-.26-.16-.47-.34-.66-.56-.21.7-.47,1.13-.99,1.66-.22-.26-.32-.34-.64-.58.63-.47.96-1.13,1.04-2.11-.3,0-.44.02-.6.03v-.81c.19.02.32.03.66.03h1.65c-.03-.23-.04-.3-.06-.45l-.45.16c-.02-.14-.02-.18-.03-.27-.21.03-.34.06-.56.09-.62.08-1.03.14-1.14.16l-.03-.25c-.12.23-.17.35-.23.56-.15-.24-.26-.46-.38-.74.02.22.03.7.03.98v2.3c0,.5,0,.78.04.98h-.87c.03-.22.05-.57.05-.98v-1.41c0-.36.02-.65.06-1.32-.24.84-.45,1.37-.7,1.79-.1-.37-.22-.66-.38-.88.22-.34.34-.6.6-1.27.08-.21.14-.4.33-1.08h-.19c-.2,0-.4.02-.54.03v-.86c.14.03.26.04.54.04h.27v-.66c0-.38,0-.63-.04-.84h.86c-.02.19-.03.41-.03.83v.67h.14c.17,0,.31,0,.41-.02-.06-.06-.09-.08-.18-.16l.46-.55.18.17c.25-.35.38-.61.51-.95l.66.33c-.26.48-.41.73-.7,1.12.08.1.11.14.19.25.22-.33.27-.42.42-.75l.57.38v-.38c0-.55-.02-.67-.06-.91h.88c-.04.15-.05.29-.05.54,0,.02,0,.13,0,.26v.25l.25-.34c.1.09.15.14.18.17.22-.29.36-.55.49-.87l.66.36Zm-4.4,1.93c-.2-.02-.29-.03-.46-.03h-.11c.12.3.25.5.49.78l-.02-.18c.06,0,.09,0,.12,0h.14c.27-.31.36-.42.5-.62-.24-.31-.41-.5-.66-.74v.78Zm1.91-.03c.11.25.15.34.21.53-.05-.67-.06-1.04-.06-1.4-.1.14-.12.18-.18.26-.3.45-.65.9-.91,1.18q.31-.02.58-.06c-.06-.13-.07-.18-.14-.34l.5-.16Zm.92-.85q0,.73.04,1.3h.11q.31-.33.51-.58c-.21-.28-.4-.49-.66-.72Zm.8,1.9c-.07,0-.12.02-.15.02q-.14.02-.34.04s-.09,0-.2.02c.02.18.02.21.06.5h.9c-.18-.18-.28-.24-.5-.34l.24-.23Zm-.5,1.32c.06.3.12.46.26.75.38-.35.49-.49.61-.75h-.86Z" fill="#231815"/>
      <path d="m258.04,188.56c-.02.06-.04.1-.05.12-.1.21-.12.23-.18.38-.12-.22-.31-.6-.42-.84.02.23.03.54.03,1.06v2.04c0,.42.02.74.05.98h-.9c.03-.25.05-.58.05-.98v-1.61s.02-.4.06-1.07c-.21.8-.42,1.3-.77,1.86-.1-.36-.21-.58-.39-.88.46-.66.84-1.62,1.01-2.5h-.23c-.19,0-.38.02-.54.04v-.85c.15.02.3.03.57.03h.29v-.63c0-.42,0-.62-.04-.82h.9c-.03.22-.04.44-.04.82v.63h.1c.22,0,.32,0,.48-.03v.84c-.15-.02-.28-.03-.46-.03h-.08c.16.43.37.78.74,1.18l-.1.14c.09,0,.19.02.31.02,0-.17,0-.3,0-.47,0-.39,0-.54-.04-.7h.78q-.03.19-.04,1.17h.36v-.59c0-.28,0-.42-.03-.58h.77c-.03.18-.04.34-.04.59v.58c.22,0,.3,0,.44-.03v.82c-.17-.02-.26-.02-.44-.02v.96c0,.3,0,.46.03.64h-.76c.02-.25.03-.39.03-.64v-.96h-.39c-.09,1.18-.28,1.81-.78,2.49-.18-.22-.37-.4-.62-.58.23-.26.37-.49.47-.81.14-.38.18-.6.22-1.1-.16,0-.23.02-.34.03v-.7Zm4.93-.73c-.07.14-.1.22-.21.51-.23.61-.51,1.17-.91,1.78.18.54.44,1.09.52,1.09.02,0,.06-.1.09-.21.04-.18.06-.47.07-.85.3.25.44.35.63.46-.06.61-.13.96-.24,1.2-.11.25-.3.4-.49.4-.4,0-.78-.44-1.14-1.33-.45.54-.78.84-1.49,1.34-.31-.38-.34-.41-.65-.65.82-.46,1.3-.87,1.85-1.6-.18-.78-.26-1.48-.34-2.99h-1.54c-.38,0-.64,0-.88.04v-.88c.24.02.5.04.87.04h1.52q0-.17-.02-.79c0-.18-.02-.33-.04-.48h.89c-.02.14-.03.24-.03.39,0,.16,0,.4.02.88h.88c-.25-.33-.48-.57-.81-.82l.5-.46c.34.24.55.44.85.79l-.54.49c.26,0,.38-.02.57-.05v.9c-.22-.03-.5-.05-.9-.05h-.54q0,.14,0,.48c0,.37.06,1.09.13,1.56.28-.58.47-1.14.52-1.55l.84.36Z" fill="#231815"/>
      <path d="m264.77,187.2c.82.33,1.44.64,2.13,1.09l-.5.9c-.64-.47-1.35-.86-2.17-1.18l.54-.82Zm-.36,3.58c.61,0,1.48-.2,2.31-.52.99-.38,1.67-.9,2.31-1.76.43-.58.68-1.06.93-1.77.33.34.45.45.83.71-.37.89-.7,1.44-1.2,2.02-1.02,1.17-2.37,1.88-4.34,2.27-.29.06-.4.08-.56.13l-.28-1.09Zm.98-5.52c.82.32,1.46.62,2.13,1.03l-.51.88c-.73-.49-1.44-.86-2.13-1.1l.52-.81Z" fill="#231815"/>
      <path d="m278.03,191.88c-.66-.82-1.58-1.71-2.45-2.37-.9,1.01-1.82,1.71-3.05,2.31-.22-.42-.32-.54-.65-.89.62-.24,1-.46,1.6-.88,1.21-.85,2.17-2.01,2.69-3.25l.09-.21q-.13,0-2.65.05c-.38,0-.6.02-.87.06l-.03-1.02c.22.04.38.05.7.05h.19l2.81-.04c.45,0,.51-.02.71-.09l.53.54c-.1.12-.17.23-.26.43-.37.86-.76,1.55-1.25,2.21.5.34.94.67,1.48,1.16q.2.18,1.17,1.11l-.77.83Z" fill="#231815"/>
      <path d="m283.97,188.35c-.04.92-.22,1.58-.56,2.15-.42.7-1.01,1.14-2.09,1.58-.2-.41-.3-.54-.65-.88.96-.3,1.56-.72,1.9-1.33.21-.37.33-.89.35-1.51h-1.95c-.54,0-.73,0-1.02.04v-.95c.3.05.48.06,1.03.06h4.68c.54,0,.73,0,1.03-.06v.95c-.29-.03-.47-.04-1.02-.04h-1.71Zm-3.21-2.93c.3.05.46.06,1.03.06h3.07c.58,0,.74,0,1.03-.06v.98c-.26-.03-.46-.04-1.02-.04h-3.1c-.56,0-.75,0-1.02.04v-.98Z" fill="#231815"/>
      <path d="m291.62,185.35c-.09.18-.1.19-.21.58-.61,2-1.07,3.33-1.58,4.56,1.26-.1,2.64-.26,3.33-.41-.09-.19-.18-.37-.38-.73-.35-.66-.5-.9-.76-1.27l.9-.35c.74,1.09,1.45,2.43,1.94,3.7l-.97.5q-.1-.33-.38-.99-.1.02-.29.06c-.81.17-2.13.34-4.53.57-.45.04-.57.06-.73.1l-.14-1.08h.21c.16,0,.35,0,.69-.02.42-1.01.74-1.91,1.16-3.22.38-1.18.53-1.74.58-2.21l1.16.22Z" fill="#231815"/>
      <path d="m297.2,186.45c-.44,0-.72.02-1.03.05v-.94c.28.03.55.05,1.04.05h4.3c.47,0,.73-.02,1.03-.05v.94c-.33-.03-.59-.05-1.02-.05h-1.76v4.28h2.14c.46,0,.77-.02,1.09-.06v.97c-.3-.04-.66-.06-1.09-.06h-5.1c-.42,0-.75.02-1.09.06v-.97c.33.04.62.06,1.1.06h2v-4.28h-1.62Z" fill="#231815"/>
      <path d="m304.76,190.07c-.42,0-.73.02-.98.05v-.89c.27.04.59.06.97.06h2.17v-.06c0-.16,0-.3-.02-.44h.34c.34-.18.61-.35.94-.65h-2.2c-.33,0-.54,0-.8.03v-.8c.24.03.46.04.81.04h2.65c.31,0,.46,0,.61-.03l.44.49q-.14.11-.29.24c-.57.49-.98.78-1.6,1.17h0s2.09,0,2.09,0c.39,0,.74-.02.98-.06v.89c-.23-.03-.58-.05-.99-.05h-2.08v1.4c0,.28-.02.39-.1.5-.14.2-.41.26-1.13.26-.1,0-.37,0-.78-.03-.09-.42-.13-.56-.26-.85.38.06.74.08.99.08.35,0,.41-.02.41-.18v-1.18h-2.17Zm.41-3.95c-.18-.35-.29-.51-.6-.9l.81-.24c.28.34.46.63.73,1.14h.85c-.14-.38-.26-.66-.49-1.01l.83-.23c.33.62.38.73.55,1.24h.68c.24-.32.52-.82.66-1.2l.86.24c-.18.34-.42.71-.6.96h.36c.54,0,.7,0,.98-.03-.02.2-.03.36-.03.66v.74c0,.22.02.42.04.61h-.87v-1.24h-5.21v1.24h-.87c.03-.18.04-.37.04-.62v-.74c0-.29,0-.46-.03-.66.36.03.41.03.94.03h.38Z" fill="#231815"/>
      <path d="m313.01,186.19c-.33.06-.46.08-.94.14-.08-.33-.14-.47-.3-.77,1.29-.14,2.25-.37,2.73-.68l.5.74s-.03,0-.13.06c-.22.09-.61.22-1.01.33v.98h.44c.27,0,.42,0,.59-.04v.86c-.18-.03-.36-.04-.61-.04h-.38c.22.46.56.84,1.1,1.25-.18.22-.3.45-.43.78-.39-.42-.55-.66-.75-1.1.02.2.02.55.04,1.04v1.57c0,.46,0,.68.05.98h-.94c.03-.3.05-.57.05-.98v-1.3c0-.18,0-.42.05-1.02-.26.74-.51,1.22-.97,1.8-.18-.42-.23-.52-.47-.83.37-.38.62-.75.9-1.3.16-.3.31-.67.38-.9h-.42c-.29,0-.47,0-.7.05v-.87c.23.04.41.05.72.05h.5v-.8Zm4.35-.34c0-.46,0-.68-.05-.93h.97c-.04.26-.05.48-.05.92v3.45c.46-.1.5-.12.75-.22l.07.94c-.22.02-.45.06-.76.14l-.06.02v1.19c0,.45,0,.69.05.94h-.97c.04-.27.05-.46.05-.95v-.99l-1.8.4c-.31.07-.58.14-.78.2l-.1-.93h.04c.22,0,.4-.04.71-.11l1.93-.43v-3.63Zm-1.95,1.51c.71.5,1,.74,1.51,1.24l-.5.71c-.63-.66-.93-.92-1.52-1.31l.51-.64Zm.27-2c.78.53,1.1.79,1.54,1.26l-.54.72c-.51-.58-.86-.88-1.51-1.32l.51-.66Z" fill="#231815"/>
      <path d="m281.74,200.9c-.21-.58-.5-.81-1.07-.81s-.98.28-1.26.83c-.2.42-.29.8-.33,1.42.43-.58.9-.8,1.71-.8s1.5.35,1.85.95c.19.31.29.73.29,1.2,0,1.26-.96,2.16-2.32,2.16-.64,0-1.23-.19-1.62-.53-.59-.51-.93-1.47-.93-2.68,0-.98.25-1.93.66-2.47.47-.64,1.11-.95,1.95-.95.69,0,1.25.21,1.64.61.21.22.33.4.5.82l-1.08.26Zm-2.49,2.79c0,.73.57,1.26,1.35,1.26.46,0,.87-.21,1.1-.56.12-.18.18-.45.18-.73,0-.79-.47-1.26-1.26-1.26s-1.37.54-1.37,1.28Z" fill="#231815"/>
      <path d="m284.81,203.97c.1.37.18.5.38.66.26.21.58.31.97.31.79,0,1.3-.41,1.3-1.04,0-.37-.16-.67-.45-.84-.19-.11-.57-.19-.92-.19s-.58,0-.86.04v-.99c.26.03.43.04.78.04.8,0,1.27-.37,1.27-.98,0-.55-.38-.86-1.06-.86-.39,0-.68.09-.87.25-.16.15-.24.29-.34.62l-1.14-.19c.2-.59.38-.87.76-1.14.41-.3.93-.44,1.57-.44,1.33,0,2.2.67,2.2,1.71,0,.48-.21.92-.55,1.18-.18.14-.35.2-.78.31.57.09.86.22,1.14.54.26.3.38.63.38,1.1,0,.43-.18.87-.48,1.17-.44.42-1.11.65-1.97.65-.94,0-1.58-.24-2.03-.76-.2-.22-.3-.43-.45-.9l1.14-.22Z" fill="#231815"/>
    </g>
    <g>
      <path d="m181.59,204.01q.06,0,.15.01h.08s.21,0,.31,0c.01-.61.01-.67.01-1.06,0-.67,0-.95-.04-1.23.15.02.34.03.55.03h.24c.1-.3.16-.5.2-.78l.76.1c-.09.27-.15.44-.25.68h.42c.25,0,.4,0,.57-.04-.02.15-.03.32-.03.55v1.51l.33-.05v.67l-.33.05v2.23c0,.1,0,.16-.03.26.53-.48.71-1.26.71-3.07,0-.37,0-.53-.02-.74.13.02.34.03.6.03h.92c.27,0,.51,0,.62-.03-.02.14-.03.35-.03.64v2.73c0,.08.04.1.14.1.06,0,.1-.01.12-.06.04-.07.06-.4.06-.88,0-.11,0-.29,0-.5.27.17.33.2.61.29-.02,1.74-.09,1.91-.89,1.91-.57,0-.75-.13-.75-.53v-3.03h-.71c0,1.4-.04,1.83-.17,2.4-.13.57-.28.84-.71,1.34-.14-.22-.29-.38-.51-.57-.1.27-.29.36-.83.36-.09,0-.17,0-.36-.02-.01-.29-.05-.47-.14-.72.2.05.41.07.6.07.11,0,.15-.04.15-.14v-2.02c-.06,0-.1,0-.13.01q-.13.01-.2.02v1.1c0,.31,0,.47.03.6h-.64c.03-.13.03-.27.03-.6v-1.04h-.12c-.09.03-.11.03-.15.03-.02.68-.1,1.36-.22,1.86-.09.39-.2.67-.39,1.02-.2-.26-.35-.41-.57-.56.34-.55.46-1.12.52-2.26-.33.03-.36.04-.45.05l-.07-.77Zm1.19-1.63c0,1.02,0,1.13-.01,1.6q.71-.06,1.16-.11v-1.48h-1.14Zm.57.15c.21.36.32.6.45.99l-.5.26c-.12-.4-.22-.63-.41-1.01l.46-.25Zm2.59-.89c0-.29,0-.44-.03-.6h.8c-.03.18-.04.34-.04.59v.36h.83c.29,0,.45,0,.64-.03v.75c-.2-.03-.36-.03-.64-.03h-2.12c-.29,0-.44,0-.64.03v-.75c.2.03.36.03.64.03h.57v-.35Z" fill="#231815"/>
      <path d="m190.18,205.52c-.37,0-.6.01-.81.04v-.78c.22.03.4.04.74.04h3.56c.33,0,.62-.01.83-.04v.78c-.22-.03-.47-.04-.82-.04h-1.4v1.03h1.93c.36,0,.68-.01.86-.04v.78c-.24-.03-.51-.04-.86-.04h-4.54c-.36,0-.63.01-.87.04v-.78c.15.02.57.04.87.04h1.83v-1.03h-1.32Zm1.31-4.03c0-.19,0-.29-.04-.46h.86c-.03.13-.04.27-.04.46v.24h1.93c.32,0,.53,0,.77-.03-.02.15-.03.29-.03.52v.39c0,.2,0,.36.03.53h-.77v-.72h-1.34v1.06c0,.13.05.16.27.17.05,0,.13,0,.25,0h.04c.24,0,.52-.02.58-.05.09-.04.12-.13.12-.38.25.11.42.17.71.22-.04.42-.11.6-.26.71-.19.13-.47.17-1.32.17-.94,0-1.13-.09-1.13-.55v-1.35h-.61c-.04.59-.18.99-.48,1.33-.24.27-.56.48-.98.67-.2.08-.38.15-.77.27-.11-.24-.25-.46-.45-.66.7-.14,1.06-.28,1.4-.53.38-.28.49-.5.55-1.07h-1.12v.93h-.78c.03-.19.03-.36.03-.57v-.55c0-.23,0-.36-.03-.52.25.03.44.03.77.03h1.82v-.24Z" fill="#231815"/>
      <path d="m197.57,203.71c-.3,0-.5,0-.72.04v-.76c.2.02.46.04.72.04h2.73c.27,0,.5-.01.74-.04v.76c-.19-.02-.42-.04-.73-.04h-.95v.81h1.79c.34,0,.64-.01.84-.04v.8c-.22-.03-.52-.04-.85-.04h-1.79v1.45c0,.34-.07.5-.26.6-.15.08-.42.13-.79.13-.17,0-.52-.01-.84-.03-.04-.34-.09-.53-.2-.78.42.06.71.08,1.04.08.21,0,.27-.05.27-.22v-1.23h-1.87c-.33,0-.63.01-.85.04v-.8c.22.03.5.04.84.04h1.88v-.81h-1.02Zm.92-2.24c0-.18,0-.29-.04-.45h.87c-.04.15-.04.27-.04.45v.22h1.88c.34,0,.56,0,.78-.03-.02.15-.03.28-.03.52v.56c0,.22,0,.35.03.52h-.76v-.85h-4.48v.85h-.77c.03-.18.04-.3.04-.53v-.55c0-.22,0-.36-.03-.52.22.02.43.03.77.03h1.79v-.22Z" fill="#231815"/>
      <path d="m205.49,201.49c0-.18,0-.29-.04-.44h.87c-.04.15-.04.26-.04.44v.23h1.95c.34,0,.55,0,.77-.03-.02.15-.03.28-.03.52v.57c0,.22,0,.35.03.52h-.78v-.9h-4.56v.9h-.78c.02-.15.03-.29.03-.53v-.56c0-.22,0-.36-.03-.52.22.02.43.03.77.03h1.84v-.23Zm2.37,1.95c.31,0,.48,0,.67-.03-.02.18-.03.35-.03.69v2.7c0,.29.01.49.04.7h-.78v-.33h-3.66v.33h-.78c.03-.22.04-.41.04-.7v-2.7c0-.34,0-.5-.03-.69.18.02.36.03.67.03h1.52v-.25c0-.24-.01-.38-.04-.54h.82c-.03.16-.04.29-.04.54v.25h1.6Zm-3.75.67v.82h1.42v-.82h-1.42Zm0,1.47v.92h1.42v-.92h-1.42Zm2.16-.65h1.5v-.82h-1.5v.82Zm0,1.57h1.5v-.92h-1.5v.92Z" fill="#231815"/>
      <path d="m210.69,203.07c.72.29,1.26.56,1.86.95l-.43.79c-.56-.41-1.18-.75-1.9-1.03l.47-.71Zm-.32,3.14c.53,0,1.3-.17,2.02-.46.87-.34,1.46-.79,2.02-1.54.38-.5.6-.92.81-1.55.29.3.39.39.73.62-.32.78-.62,1.26-1.05,1.77-.89,1.02-2.08,1.65-3.8,1.99-.25.05-.35.07-.49.11l-.25-.95Zm.85-4.83c.72.28,1.27.55,1.86.9l-.45.77c-.64-.43-1.26-.76-1.87-.97l.46-.71Z" fill="#231815"/>
      <path d="m222.29,207.16c-.58-.71-1.39-1.5-2.15-2.08-.79.88-1.6,1.5-2.67,2.02-.2-.36-.28-.48-.57-.78.54-.21.88-.4,1.4-.77,1.06-.74,1.9-1.76,2.35-2.85l.08-.18q-.11,0-2.32.04c-.34,0-.53.02-.76.06l-.03-.9c.2.03.33.04.62.04h.17l2.47-.04c.39,0,.45-.01.62-.08l.46.48c-.09.1-.15.2-.22.38-.32.75-.67,1.36-1.09,1.93.44.29.82.59,1.3,1.02q.17.15,1.02.97l-.67.73Z" fill="#231815"/>
      <path d="m227.49,204.08c-.03.81-.19,1.39-.49,1.88-.37.62-.88,1-1.83,1.38-.18-.36-.27-.48-.57-.77.84-.26,1.37-.63,1.66-1.17.18-.32.29-.78.31-1.32h-1.71c-.48,0-.64,0-.89.03v-.83c.27.04.42.05.9.05h4.1c.48,0,.64,0,.9-.05v.83c-.25-.03-.41-.03-.89-.03h-1.5Zm-2.81-2.56c.26.04.4.05.9.05h2.69c.5,0,.64,0,.9-.05v.85c-.23-.03-.4-.04-.89-.04h-2.72c-.49,0-.66,0-.89.04v-.85Z" fill="#231815"/>
      <path d="m234.19,201.45c-.08.15-.08.17-.18.5-.53,1.75-.94,2.91-1.39,3.99,1.1-.08,2.31-.23,2.91-.36-.08-.17-.16-.32-.33-.64-.31-.58-.43-.78-.67-1.11l.79-.31c.65.95,1.27,2.13,1.69,3.24l-.85.44q-.09-.29-.34-.87-.09.02-.25.06c-.71.15-1.87.29-3.96.5-.39.04-.5.05-.64.08l-.13-.95h.18c.14,0,.31,0,.6-.02.37-.88.65-1.67,1.02-2.82.33-1.03.46-1.53.51-1.94l1.02.2Z" fill="#231815"/>
      <path d="m200.56,214.67c-.39,0-.63.01-.9.04v-.83c.25.03.48.04.91.04h3.77c.41,0,.64-.01.9-.04v.83c-.29-.03-.52-.04-.9-.04h-1.54v3.75h1.88c.41,0,.67-.01.95-.05v.85c-.26-.03-.57-.05-.95-.05h-4.47c-.36,0-.66.01-.95.05v-.85c.29.04.54.05.97.05h1.75v-3.75h-1.42Z" fill="#231815"/>
      <path d="m207.18,217.83c-.36,0-.64.01-.85.04v-.78c.24.03.52.05.85.05h1.9v-.05c0-.14,0-.27-.02-.39h.3c.3-.15.53-.31.83-.57h-1.93c-.29,0-.48,0-.7.03v-.7c.21.03.41.04.71.04h2.32c.27,0,.41,0,.53-.03l.39.43q-.12.1-.25.21c-.5.43-.85.69-1.4,1.02h0s1.83,0,1.83,0c.34,0,.65-.01.86-.05v.78c-.2-.03-.5-.04-.87-.04h-1.82v1.23c0,.25-.02.34-.09.44-.12.18-.36.23-.99.23-.09,0-.32,0-.69-.03-.08-.37-.11-.49-.23-.74.34.05.65.07.87.07.31,0,.36-.02.36-.16v-1.04h-1.9Zm.36-3.46c-.16-.31-.25-.45-.53-.79l.71-.21c.25.3.41.55.64,1h.74c-.12-.33-.23-.57-.43-.88l.73-.2c.29.54.33.64.48,1.09h.6c.21-.28.46-.72.57-1.05l.76.21c-.16.3-.36.62-.52.84h.31c.48,0,.61,0,.86-.03-.02.18-.03.32-.03.58v.65c0,.19.01.36.04.53h-.76v-1.09h-4.57v1.09h-.76c.03-.16.03-.32.03-.54v-.64c0-.25,0-.4-.03-.58.31.03.36.03.83.03h.33Z" fill="#231815"/>
      <path d="m214.4,214.44c-.29.06-.41.07-.82.13-.07-.29-.12-.41-.27-.67,1.13-.12,1.97-.32,2.39-.6l.43.64s-.03,0-.11.05c-.19.08-.53.19-.88.29v.86h.39c.24,0,.37,0,.52-.03v.75c-.16-.03-.31-.03-.53-.03h-.34c.2.4.49.74.97,1.09-.15.2-.27.39-.38.69-.34-.37-.48-.57-.66-.96.01.17.02.48.04.91v1.37c0,.4,0,.6.04.86h-.83c.03-.26.04-.5.04-.86v-1.13c0-.16,0-.36.04-.89-.22.64-.45,1.07-.85,1.58-.15-.36-.2-.46-.41-.73.32-.33.55-.66.79-1.13.14-.27.27-.59.34-.79h-.36c-.25,0-.41,0-.62.04v-.76c.2.04.36.04.63.04h.44v-.7Zm3.81-.29c0-.41,0-.6-.04-.81h.85c-.04.23-.04.42-.04.81v3.02c.4-.09.44-.1.66-.19l.06.82c-.19.02-.39.06-.67.12h-.06v1.06c0,.39,0,.6.04.83h-.85c.04-.24.04-.41.04-.83v-.87l-1.58.35c-.27.06-.5.13-.68.18l-.09-.81h.04c.19,0,.35-.04.62-.1l1.69-.38v-3.18Zm-1.71,1.32c.62.44.88.65,1.32,1.09l-.44.62c-.55-.58-.81-.81-1.33-1.15l.45-.56Zm.24-1.75c.68.46.97.69,1.35,1.1l-.48.63c-.45-.5-.75-.77-1.32-1.16l.45-.57Z" fill="#231815"/>
      <path d="m208.04,227.31c-.18-.51-.44-.71-.94-.71s-.86.25-1.1.73c-.17.36-.25.7-.29,1.24.38-.51.79-.7,1.5-.7s1.32.31,1.62.83c.17.27.25.64.25,1.05,0,1.11-.84,1.89-2.03,1.89-.56,0-1.08-.17-1.42-.46-.52-.45-.81-1.29-.81-2.35,0-.86.22-1.69.57-2.16.41-.56.97-.83,1.71-.83.6,0,1.1.18,1.44.53.18.19.29.35.44.71l-.95.22Zm-2.19,2.44c0,.64.5,1.11,1.18,1.11.41,0,.76-.18.96-.49.1-.16.16-.39.16-.64,0-.69-.41-1.1-1.11-1.1s-1.2.48-1.2,1.12Z" fill="#231815"/>
      <path d="m214.25,230.27c-.26-.04-.41-.04-.7-.05h-.25v.5c0,.36.01.54.06.8h-.99c.04-.25.06-.46.06-.81v-.48h-1.94c-.41,0-.64,0-.88.03v-.86c.24-.26.32-.35.56-.64l1.66-2.03c.31-.37.42-.52.58-.77h.95c-.04.41-.05.65-.05,1.18v2.3h.25c.28,0,.45-.01.71-.05v.9Zm-1.83-2.29c0-.33,0-.55.03-.84-.14.2-.22.32-.48.62l-1.34,1.67h1.79v-1.45Z" fill="#231815"/>
    </g>
  </g>
</svg>