<?xml version="1.0" encoding="UTF-8"?>
<svg xmlns="http://www.w3.org/2000/svg" width="660" height="490" viewBox="0 0 660 490">
  <g id="_背景" data-name="背景">
    <polyline id="base" points="0 0 660 0 660 490 0 490" fill="#dcdddd"/>
  </g>
  <g id="_男性用トイレ" data-name="男性用トイレ">
    <polyline points="386.47 126.96 404.84 126.96 404.84 37.16 386.47 37.16 386.47 126.96" fill="#54c3f1" stroke="#283331" stroke-miterlimit="10"/>
    <polyline points="378.82 410.63 378.82 434.1 394.13 434.1 394.13 410.63 378.82 410.63" fill="#54c3f1" stroke="#283331" stroke-miterlimit="10"/>
  </g>
  <g id="_女性用トイレ" data-name="女性用トイレ">
    <polyline points="368.81 142.52 386.47 142.52 386.47 37.16 368.81 37.16 368.81 142.52" fill="#f19899" stroke="#283331" stroke-miterlimit="10"/>
    <rect x="394.13" y="410.63" width="13.78" height="23.47" fill="#f19899" stroke="#283331" stroke-miterlimit="10"/>
  </g>
  <g id="_使用不可能教室等" data-name="使用不可能教室等">
    <rect x="305.14" y="65.99" width="63.67" height="76.53" fill="#929292" stroke="#283331" stroke-miterlimit="10"/>
    <polyline points="506.37 393.29 561.79 393.29 561.79 372.27 506.37 372.27 506.37 393.29" fill="#929292" stroke="#283331" stroke-miterlimit="10"/>
    <polyline points="561.79 393.29 616.58 393.29 616.58 372.27 561.79 372.27 561.79 393.29" fill="#929292" stroke="#283331" stroke-miterlimit="10"/>
    <polyline points="516 206.55 616.58 206.55 616.58 176.83 529.33 176.83 516 190.16 516 206.55" fill="#929292" stroke="#283331" stroke-miterlimit="10"/>
    <polyline points="209.64 393.29 401.02 393.29 401.02 320.74 209.64 320.74 209.64 393.29" fill="#929292" stroke="#283331" stroke-miterlimit="10"/>
    <polyline points="401.02 393.29 479.87 393.29 479.87 335.02 401.02 335.02 401.02 393.29" fill="#929292" stroke="#283331" stroke-miterlimit="10"/>
    <polyline points="209.64 411.65 209.64 434.1 264.03 434.1 264.03 411.65 209.64 411.65" fill="#929292" stroke="#283331" stroke-miterlimit="10"/>
    <polyline points="114.13 320.74 15.36 320.74 15.36 452.84 114.13 452.84 114.13 320.74" fill="#929292" stroke="#283331" stroke-miterlimit="10"/>
    <rect id="_4-7-toshikan_room109" data-name="4-7-toshikan_room109" x="177.8" y="176.83" width="63.67" height="68.45" fill="#929292" stroke="#283331" stroke-miterlimit="10"/>
    <rect id="_4-7-toshikan_room110" data-name="4-7-toshikan_room110" x="404.84" y="37.16" width="144.16" height="89.8" fill="#929292" stroke="#283331" stroke-miterlimit="10"/>
    <polyline id="_4-7-toshikan_room120" data-name="4-7-toshikan_room120" points="506.37 206.55 616.58 206.55 616.58 372.27 506.37 372.27 506.37 206.55" fill="#929292" stroke="#283331" stroke-miterlimit="10"/>
    <polyline points="407.9 410.63 616.58 410.63 616.58 434.1 407.9 434.1 407.9 410.63" fill="#929292" stroke="#283331" stroke-miterlimit="10"/>
  </g>
  <g id="_廊下" data-name="廊下">
    <polygon points="386.47 142.52 386.47 126.96 565.56 126.96 565.56 111.14 549 111.14 549 37.16 631.37 37.16 631.37 120.84 615.05 120.84 615.05 126.96 582.63 163.18 582.63 176.83 529.33 176.83 516 190.16 516 206.55 506.37 206.55 506.37 393.29 616.58 393.29 616.58 410.63 378.82 410.63 378.82 434.1 264.03 434.1 264.03 411.65 209.64 411.65 209.64 393.29 479.87 393.29 479.87 199.92 494.64 176.83 494.64 151.9 485.87 143.13 386.47 142.52" fill="#b5b5b6" stroke="#283331" stroke-miterlimit="10"/>
    <polygon points="55.69 163.18 55.69 145.02 114.13 145.02 114.13 126.96 241.47 126.96 241.47 142.52 485.87 143.13 490.08 147.34 474.74 163.18 241.47 163.18 241.47 176.83 114.13 176.83 114.13 163.18 55.69 163.18" fill="#b5b5b6" stroke="#283331" stroke-miterlimit="10"/>
    <polygon points="114.13 176.83 114.13 414.73 209.64 414.73 209.64 387.07 145.97 387.07 145.97 176.83 114.13 176.83" fill="#c9caca" stroke="#283331" stroke-miterlimit="10"/>
    <g id="_矢印" data-name="矢印">
      <path d="m607.47,151.64l-.44-5.53-1.91,2.24-11.19-9.55-1.27,1.49,11.19,9.55-1.91,2.24,5.53-.44Z" fill="#040000"/>
      <path d="m591.97,138.41l.44,5.53,1.91-2.24,11.19,9.55,1.27-1.49-11.19-9.55,1.91-2.24-5.53.44Z" fill="#040000"/>
    </g>
    <g id="_矢印-2" data-name="矢印">
      <path d="m413.13,152.71l4-3.84-2.94-.06.29-14.71-1.96-.04-.29,14.71-2.94-.06,3.84,4Z" fill="#040000"/>
      <path d="m413.53,132.33l-4,3.84,2.94.06-.29,14.71,1.96.04.29-14.71,2.94.06-3.84-4Z" fill="#040000"/>
    </g>
    <g id="_矢印-3" data-name="矢印">
      <path d="m483.86,165.35l3.84,4,.06-2.94,14.71.29.04-1.96-14.71-.29.06-2.94-4,3.84Z" fill="#040000"/>
      <path d="m504.23,165.76l-3.84-4-.06,2.94-14.71-.29-.04,1.96,14.71.29-.06,2.94,4-3.84Z" fill="#040000"/>
    </g>
    <g id="_矢印-4" data-name="矢印">
      <path d="m199.45,402.27l3.84,4,.06-2.94,14.71.29.04-1.96-14.71-.29.06-2.94-4,3.84Z" fill="#040000"/>
      <path d="m219.82,402.67l-3.84-4-.06,2.94-14.71-.29-.04,1.96,14.71.29-.06,2.94,4-3.84Z" fill="#040000"/>
    </g>
    <g id="_矢印-5" data-name="矢印">
      <path d="m273.51,423.92l-4,3.84,2.94.06-.29,14.71,1.96.04.29-14.71,2.94.06-3.84-4Z" fill="#040000"/>
      <path d="m273.1,444.29l4-3.84-2.94-.06.29-14.71-1.96-.04-.29,14.71-2.94-.06,3.84,4Z" fill="#040000"/>
    </g>
    <g id="_矢印-6" data-name="矢印">
      <path d="m363.21,423.05l-4,3.84,2.94.06-.29,14.71,1.96.04.29-14.71,2.94.06-3.84-4Z" fill="#040000"/>
      <path d="m362.8,443.43l4-3.84-2.94-.06.29-14.71-1.96-.04-.29,14.71-2.94-.06,3.84,4Z" fill="#040000"/>
    </g>
    <g id="_矢印-7" data-name="矢印">
      <path d="m607.47,402.14l3.84,4,.06-2.94,14.71.29.04-1.96-14.71-.29.06-2.94-4,3.84Z" fill="#040000"/>
      <path d="m627.84,402.55l-3.84-4-.06,2.94-14.71-.29-.04,1.96,14.71.29-.06,2.94,4-3.84Z" fill="#040000"/>
    </g>
  </g>
  <g id="_トイレマーク" data-name="トイレマーク">
    <g>
      <path d="m400.1,417.94c1.77,0,3.21-1.44,3.21-3.21s-1.44-3.21-3.21-3.21-3.21,1.44-3.21,3.21,1.44,3.21,3.21,3.21Z" fill="#fff"/>
      <path d="m388.15,417.94c1.77,0,3.21-1.44,3.21-3.21s-1.44-3.21-3.21-3.21-3.21,1.44-3.21,3.21,1.44,3.21,3.21,3.21Z" fill="#fff"/>
      <path d="m404.97,430.4l-4.4-10.36c-.08-.19-.26-.31-.47-.31s-.39.12-.47.31l-4.4,10.36c-.27.62-.2,1.34.17,1.91.37.57,1.01.91,1.69.91h6.02c.68,0,1.31-.34,1.69-.91.37-.57.44-1.28.17-1.91Z" fill="#fff"/>
      <path d="m391.16,419.73h-6.02c-.68,0-1.31.34-1.69.91-.37.57-.44,1.28-.17,1.91l4.4,10.36c.08.19.26.31.47.31s.39-.12.47-.31l4.4-10.36c.27-.62.2-1.34-.17-1.91-.37-.57-1.01-.91-1.69-.91Z" fill="#fff"/>
    </g>
    <g>
      <path d="m395.89,79.65c1.77,0,3.21-1.44,3.21-3.21s-1.44-3.21-3.21-3.21-3.21,1.44-3.21,3.21,1.44,3.21,3.21,3.21Z" fill="#fff"/>
      <path d="m398.9,81.43h-6.02c-.68,0-1.31.34-1.69.91-.37.57-.44,1.28-.17,1.91l4.4,10.36c.08.19.26.31.47.31s.39-.12.47-.31l4.4-10.36c.27-.62.2-1.34-.17-1.91-.37-.57-1.01-.91-1.69-.91Z" fill="#fff"/>
    </g>
    <g>
      <path d="m377.64,79.65c1.77,0,3.21-1.44,3.21-3.21s-1.44-3.21-3.21-3.21-3.21,1.44-3.21,3.21,1.44,3.21,3.21,3.21Z" fill="#fff"/>
      <path d="m382.51,92.1l-4.4-10.36c-.08-.19-.26-.31-.47-.31s-.39.12-.47.31l-4.4,10.36c-.27.62-.2,1.34.17,1.91.37.57,1.01.91,1.69.91h6.02c.68,0,1.31-.34,1.69-.91.37-.57.44-1.28.17-1.91Z" fill="#fff"/>
    </g>
  </g>
  <g id="_階段" data-name="階段">
    <g>
      <polygon points="549 55.59 562.27 50.39 562.27 37.43 549 37.43 549 55.59" fill="#5c5a5a"/>
      <polyline points="562.27 68.54 562.27 37.43 549 37.43 549 68.98" fill="none" stroke="#283331" stroke-miterlimit="10"/>
      <line x1="549" y1="55.59" x2="562.27" y2="55.59" fill="none" stroke="#283331" stroke-miterlimit="10" stroke-width=".25"/>
      <line x1="549" y1="57.97" x2="562.27" y2="57.97" fill="none" stroke="#283331" stroke-miterlimit="10" stroke-width=".25"/>
      <line x1="549" y1="60.34" x2="562.27" y2="60.34" fill="none" stroke="#283331" stroke-miterlimit="10" stroke-width=".25"/>
      <line x1="549" y1="62.71" x2="562.27" y2="62.71" fill="none" stroke="#283331" stroke-miterlimit="10" stroke-width=".25"/>
      <line x1="549" y1="65.09" x2="562.27" y2="65.09" fill="none" stroke="#283331" stroke-miterlimit="10" stroke-width=".25"/>
      <line x1="549" y1="67.46" x2="562.27" y2="67.46" fill="none" stroke="#283331" stroke-miterlimit="10" stroke-width=".25"/>
    </g>
    <g>
      <polygon points="133.08 432.89 146.34 427.69 146.34 414.73 133.08 414.73 133.08 432.89" fill="#5c5a5a"/>
      <polyline points="146.34 445.84 146.34 414.73 133.08 414.73 133.08 446.28" fill="none" stroke="#283331" stroke-miterlimit="10"/>
      <line x1="133.08" y1="432.89" x2="146.34" y2="432.89" fill="none" stroke="#283331" stroke-miterlimit="10" stroke-width=".25"/>
      <line x1="133.08" y1="435.27" x2="146.34" y2="435.27" fill="none" stroke="#283331" stroke-miterlimit="10" stroke-width=".25"/>
      <line x1="133.08" y1="437.64" x2="146.34" y2="437.64" fill="none" stroke="#283331" stroke-miterlimit="10" stroke-width=".25"/>
      <line x1="133.08" y1="440.01" x2="146.34" y2="440.01" fill="none" stroke="#283331" stroke-miterlimit="10" stroke-width=".25"/>
      <line x1="133.08" y1="442.38" x2="146.34" y2="442.38" fill="none" stroke="#283331" stroke-miterlimit="10" stroke-width=".25"/>
      <line x1="133.08" y1="444.76" x2="146.34" y2="444.76" fill="none" stroke="#283331" stroke-miterlimit="10" stroke-width=".25"/>
    </g>
    <g>
      <polygon points="159.5 154.15 164.7 167.42 177.66 167.42 177.66 154.15 159.5 154.15" fill="#5c5a5a"/>
      <polyline points="146.55 167.42 177.66 167.42 177.66 154.15 146.11 154.15" fill="none" stroke="#283331" stroke-miterlimit="10"/>
      <line x1="159.5" y1="154.15" x2="159.5" y2="167.42" fill="none" stroke="#283331" stroke-miterlimit="10" stroke-width=".25"/>
      <line x1="157.12" y1="154.15" x2="157.12" y2="167.42" fill="none" stroke="#283331" stroke-miterlimit="10" stroke-width=".25"/>
      <line x1="154.75" y1="154.15" x2="154.75" y2="167.42" fill="none" stroke="#283331" stroke-miterlimit="10" stroke-width=".25"/>
      <line x1="152.38" y1="154.15" x2="152.38" y2="167.42" fill="none" stroke="#283331" stroke-miterlimit="10" stroke-width=".25"/>
      <line x1="150.01" y1="154.15" x2="150.01" y2="167.42" fill="none" stroke="#283331" stroke-miterlimit="10" stroke-width=".25"/>
      <line x1="147.63" y1="154.15" x2="147.63" y2="167.42" fill="none" stroke="#283331" stroke-miterlimit="10" stroke-width=".25"/>
    </g>
    <g>
      <polygon points="644.64 408.25 631.37 413.45 631.37 426.41 644.64 426.41 644.64 408.25" fill="#5c5a5a"/>
      <polyline points="631.37 395.3 631.37 426.41 644.64 426.41 644.64 394.86" fill="none" stroke="#283331" stroke-miterlimit="10"/>
      <line x1="644.64" y1="408.25" x2="631.37" y2="408.25" fill="none" stroke="#283331" stroke-miterlimit="10" stroke-width=".25"/>
      <line x1="644.64" y1="405.87" x2="631.37" y2="405.87" fill="none" stroke="#283331" stroke-miterlimit="10" stroke-width=".25"/>
      <line x1="644.64" y1="403.5" x2="631.37" y2="403.5" fill="none" stroke="#283331" stroke-miterlimit="10" stroke-width=".25"/>
      <line x1="644.64" y1="401.13" x2="631.37" y2="401.13" fill="none" stroke="#283331" stroke-miterlimit="10" stroke-width=".25"/>
      <line x1="644.64" y1="398.76" x2="631.37" y2="398.76" fill="none" stroke="#283331" stroke-miterlimit="10" stroke-width=".25"/>
      <line x1="644.64" y1="396.38" x2="631.37" y2="396.38" fill="none" stroke="#283331" stroke-miterlimit="10" stroke-width=".25"/>
    </g>
    <g>
      <polygon points="333.62 424.21 326.68 421.41 321.57 426.55 326.46 431.41 333.62 424.21" fill="#5c5a5a"/>
      <polyline points="333.84 414.21 321.57 426.55 326.46 431.41 338.9 418.9" fill="none" stroke="#283331" stroke-miterlimit="10"/>
      <line x1="333.62" y1="424.21" x2="328.73" y2="419.35" fill="none" stroke="#283331" stroke-miterlimit="10" stroke-width=".25"/>
      <line x1="334.56" y1="423.27" x2="329.67" y2="418.4" fill="none" stroke="#283331" stroke-miterlimit="10" stroke-width=".25"/>
      <line x1="335.49" y1="422.32" x2="330.61" y2="417.46" fill="none" stroke="#283331" stroke-miterlimit="10" stroke-width=".25"/>
      <line x1="336.43" y1="421.38" x2="331.54" y2="416.52" fill="none" stroke="#283331" stroke-miterlimit="10" stroke-width=".25"/>
      <line x1="337.37" y1="420.44" x2="332.48" y2="415.58" fill="none" stroke="#283331" stroke-miterlimit="10" stroke-width=".25"/>
      <line x1="338.3" y1="419.5" x2="333.41" y2="414.64" fill="none" stroke="#283331" stroke-miterlimit="10" stroke-width=".25"/>
    </g>
    <g>
      <polygon points="479.87 316.86 466.61 322.07 466.61 335.02 479.87 335.02 479.87 316.86" fill="#5c5a5a"/>
      <polyline points="466.61 303.92 466.61 335.02 479.87 335.02 479.87 303.48" fill="none" stroke="#283331" stroke-miterlimit="10"/>
      <line x1="479.87" y1="316.86" x2="466.61" y2="316.86" fill="none" stroke="#283331" stroke-miterlimit="10" stroke-width=".25"/>
      <line x1="479.87" y1="314.49" x2="466.61" y2="314.49" fill="none" stroke="#283331" stroke-miterlimit="10" stroke-width=".25"/>
      <line x1="479.87" y1="312.12" x2="466.61" y2="312.12" fill="none" stroke="#283331" stroke-miterlimit="10" stroke-width=".25"/>
      <line x1="479.87" y1="309.75" x2="466.61" y2="309.75" fill="none" stroke="#283331" stroke-miterlimit="10" stroke-width=".25"/>
      <line x1="479.87" y1="307.37" x2="466.61" y2="307.37" fill="none" stroke="#283331" stroke-miterlimit="10" stroke-width=".25"/>
      <line x1="479.87" y1="305" x2="466.61" y2="305" fill="none" stroke="#283331" stroke-miterlimit="10" stroke-width=".25"/>
    </g>
  </g>
  <g id="MLOC-available">
    <rect id="4-7-toshikan_room107" data-name="4-7-toshikan_room107" x="241.47" y="163.18" width="82.31" height="56.12" fill="#a8d7ef" stroke="#283331" stroke-miterlimit="10"/>
    <rect id="4-7-toshikan_room102" data-name="4-7-toshikan_room102" x="55.69" y="67.33" width="58.44" height="79.04" fill="#aaddf7" stroke="#283331" stroke-miterlimit="10"/>
    <rect id="4-7-toshikan_room101" data-name="4-7-toshikan_room101" x="55.69" y="163.18" width="58.44" height="82.1" fill="#aaddf7" stroke="#283331" stroke-miterlimit="10"/>
    <rect id="4-7-toshikan_room103" data-name="4-7-toshikan_room103" x="114.13" y="50.43" width="63.67" height="76.53" fill="#aaddf7" stroke="#283331" stroke-miterlimit="10"/>
    <rect id="4-7-toshikan_room104" data-name="4-7-toshikan_room104" x="177.8" y="50.43" width="63.67" height="76.53" fill="#aaddf7" stroke="#283331" stroke-miterlimit="10"/>
    <rect id="4-7-toshikan_room105" data-name="4-7-toshikan_room105" x="241.47" y="65.99" width="63.67" height="76.53" fill="#aaddf7" stroke="#283331" stroke-miterlimit="10"/>
  </g>
  <g id="MNOINT-words">
    <g>
      <path d="m409.79,41.04c.34.06.59.07,1.12.07h.96c.53,0,.71-.01,1.13-.06-.07.73-.1,1.3-.1,1.99v5.96c0,.61.02,1.01.1,1.49h-1.55c.07-.46.1-.89.1-1.49v-6.74h-.6c-.41,0-.74.02-1.15.07v-1.29Z" fill="#231815"/>
      <path d="m418.07,41.04c.34.06.59.07,1.12.07h.96c.53,0,.71-.01,1.13-.06-.07.73-.1,1.3-.1,1.99v5.96c0,.61.02,1.01.1,1.49h-1.55c.07-.46.1-.89.1-1.49v-6.74h-.6c-.41,0-.74.02-1.15.07v-1.29Z" fill="#231815"/>
      <path d="m426.2,49.75c-.35-.35-.6-.74-.76-1.16-.31-.85-.47-1.79-.47-2.77,0-1.26.29-2.58.71-3.29.62-1.03,1.64-1.6,2.91-1.6.97,0,1.79.31,2.4.92.35.35.61.74.76,1.16.31.84.47,1.8.47,2.78,0,1.46-.32,2.76-.86,3.51-.65.9-1.58,1.35-2.77,1.35-.97,0-1.78-.31-2.39-.92Zm.98-7.05c-.25.28-.42.59-.52.9-.22.67-.32,1.44-.32,2.24,0,1.06.23,2.17.54,2.7.38.65.96.97,1.71.97.56,0,1.06-.19,1.38-.53.25-.26.44-.6.55-.97.22-.7.32-1.42.32-2.22,0-.97-.2-2.07-.49-2.63-.37-.72-.95-1.08-1.77-1.08-.6,0-1.04.19-1.4.61Z" fill="#231815"/>
    </g>
    <g>
      <path d="m237.97,363.96c0,1.08-.35,1.31-1.98,1.31-.36,0-1.12-.03-1.65-.06-.14-.67-.21-.9-.42-1.33.76.11,1.41.15,1.9.15.67,0,.78-.04.78-.36v-2.54h-4.24c-.75,0-1.29.03-1.73.09v-1.4c.46.06,1.04.09,1.71.09h4.26v-.17c0-.3-.02-.58-.04-.85h.65c.82-.41,1.42-.81,2.16-1.41h-4.71c-.57,0-1.05.03-1.47.08v-1.29c.44.06.9.08,1.5.08h5.15c.55,0,.85-.02,1.12-.06l.72.78c-.21.2-.36.3-.4.34-1.16.99-2.02,1.59-3.3,2.29v.21h4.14c.69,0,1.31-.03,1.74-.09v1.4c-.43-.06-1-.09-1.75-.09h-4.12v2.83Zm-4.58-9.99c-.39-.71-.61-1.04-1.24-1.79l1.27-.39c.55.69.88,1.2,1.42,2.17h1.83c-.23-.66-.54-1.29-.99-2l1.32-.36c.57,1.05.75,1.47,1.06,2.35h1.42c.65-.81.96-1.33,1.35-2.31l1.35.43c-.39.69-.87,1.39-1.24,1.88h.87c.96,0,1.25-.01,1.8-.06-.05.38-.06.69-.06,1.24v1.28c0,.39.03.75.07,1.11h-1.38v-2.42h-10.09v2.42h-1.38c.04-.33.08-.69.08-1.11v-1.28c0-.55-.02-.87-.06-1.24.65.06.84.06,1.75.06h.84Z" fill="#231815"/>
      <path d="m248.53,355.91c-.58,1.21-1.26,2.27-2.04,3.13-.57-.61-.61-.64-1.11-.97,1.15-1.2,2.04-2.75,2.61-4.48.19-.63.29-.98.31-1.4l1.48.38q-.18.5-.28.86c-.08.22-.23.64-.45,1.25h2.7v-1.32c0-.71-.03-1.17-.1-1.71h1.64c-.06.5-.09.97-.09,1.71v1.32h3.35c.73,0,1.3-.03,1.9-.09v1.43c-.63-.06-1.18-.09-1.87-.09h-3.38v2.94h2.76c.75,0,1.27-.03,1.75-.09v1.42c-.47-.06-1.05-.09-1.74-.09h-2.77v3.46h3.84c.79,0,1.38-.03,1.95-.11v1.47c-.67-.07-1.14-.1-1.92-.1h-9.36c-.76,0-1.33.03-1.99.1v-1.47c.6.08,1.19.11,1.95.11h4.09v-3.46h-2.47c-.71,0-1.27.03-1.73.09v-1.42c.45.06.93.09,1.71.09h2.49v-2.94h-3.22Z" fill="#231815"/>
      <path d="m269.3,355.17v-1.35c0-.97,0-1.17-.06-1.53h1.62c-.04.36-.04.45-.06,1v1.88h1.08c.99,0,1.32-.02,1.88-.11v1.56c-.51-.06-.93-.08-1.84-.08h-1.12q-.04,2.02-.11,2.59c-.21,1.86-.85,3.13-2.14,4.21-.78.66-1.49,1.05-2.82,1.51-.24-.54-.4-.76-.94-1.32,1.35-.41,2.11-.78,2.86-1.44,1.02-.9,1.46-1.89,1.59-3.66.03-.4.05-.93.06-1.9h-4.16v1.77c0,.78.03,1.44.08,1.82h-1.68c.04-.48.08-1.07.08-1.77v-1.81h-1.07c-.88,0-1.23.01-1.84.08v-1.56c.62.09.92.11,1.88.11h1.04v-1.38c0-.53-.03-1.2-.08-1.52h1.7c-.06.44-.09.96-.09,1.5v1.4h4.17Z" fill="#231815"/>
      <path d="m279.65,357.69l-.25.97c-.25.99-.63,2.03-1.11,3-.43.9-.75,1.41-1.37,2.24-.58-.45-.79-.57-1.44-.84.97-1.11,1.56-2.15,2.14-3.84.29-.81.41-1.33.47-1.92l1.56.39Zm7.68-2.98c-.67-.23-1.17-.89-1.17-1.65,0-.96.76-1.74,1.72-1.74s1.74.78,1.74,1.74c0,.79-.53,1.46-1.25,1.67v1.47c-.72-.08-.96-.09-1.92-.09h-3.5v7.18c0,.99.02,1.26.08,1.8h-1.72c.06-.48.09-.92.09-1.81v-7.17h-3.41c-.94,0-1.29.01-1.89.09v-1.59c.57.08,1.04.11,1.91.11h3.39v-.9c0-.76-.03-1.16-.09-1.54h1.72c-.06.45-.08.85-.08,1.58v.87h4.37Zm-1.16,2.61c.11.48.23.88.54,1.68.67,1.79,1.26,2.85,2.21,4.02-.64.33-.84.46-1.41.92-1.15-1.74-1.81-3.17-2.56-5.55-.12-.39-.15-.46-.25-.69l1.48-.38Zm.71-4.26c0,.55.45,1.02,1,1.02s1.02-.47,1.02-1.02-.45-1.02-1.02-1.02-1,.46-1,1.02Z" fill="#231815"/>
      <path d="m290.9,357.53c.55.08,1.2.11,2.31.11h8.12c1.29,0,1.65-.02,2.23-.09v1.74c-.66-.06-1.14-.08-2.25-.08h-8.08c-1.26,0-1.71.02-2.33.08v-1.75Z" fill="#231815"/>
      <path d="m308.89,364.74c.07-.64.09-1.02.09-1.92v-8.92c0-1.04-.02-1.38-.09-1.8h1.77c-.06.48-.09.99-.09,1.83v2.54c2.14.75,4.24,1.74,6.75,3.16l-.87,1.49c-.67-.46-1.07-.71-1.86-1.14-1.14-.62-2.77-1.42-3.58-1.77q-.25-.1-.48-.25,0,.21.03.58c0,.13.02.6.02.75v3.54c0,.79.03,1.37.09,1.92h-1.77Z" fill="#231815"/>
      <path d="m324.11,353.82c0-.84-.01-.99-.08-1.48h1.74c-.08.5-.09.78-.09,1.48v1.92l5.71-.72c.51-.06.73-.12,1.03-.24l.96.84c-.17.22-.18.24-.39.69-.88,1.8-1.9,2.99-3.64,4.25-.5-.54-.67-.69-1.26-1,1.12-.65,2.1-1.5,2.73-2.43.21-.28.25-.36.46-.75q-.38.08-.79.14l-4.83.64v3.41c0,1.33.04,1.62.35,1.86.27.24.85.33,2.01.33,1.63,0,3.27-.21,4.48-.57l.08,1.69c-.4.02-.52.03-.9.08-1.66.18-2.64.25-3.66.25-1.96,0-2.85-.21-3.38-.78-.45-.51-.54-.93-.54-2.61v-3.48l-1.42.2c-1.16.17-1.19.17-1.73.3l-.18-1.6c.13.01.24.01.3.01.33,0,.83-.04,1.46-.12l1.58-.21v-2.08Z" fill="#231815"/>
      <path d="m336.65,362.55c1.21-.05,3.03-.51,4.41-1.12,1.88-.83,3.28-1.96,4.47-3.65.67-.99,1.11-1.8,1.57-3.03.5.61.69.79,1.31,1.23-1.25,2.71-2.66,4.46-4.68,5.82-1.52,1.03-3.38,1.77-5.67,2.25-.57.12-.63.14-.95.24l-.46-1.74Zm1.14-9.3c1.71,1.06,2.66,1.78,3.78,2.86l-1.08,1.33c-1.16-1.23-2.37-2.2-3.73-3l1.03-1.2Z" fill="#231815"/>
      <path d="m357.41,352.08q-.17.27-.48.92c-.2.4-.3.6-.41.75.09,0,.3-.02.62-.03l3.57-.04c.51,0,.81-.04,1.14-.15l.87.87c-.18.24-.21.33-.45.99-.51,1.38-1.3,3.09-1.96,4.14-1.51,2.42-3.57,4.12-6.75,5.59-.39-.66-.56-.88-1.04-1.3,1.29-.51,2.05-.92,3-1.54,1.09-.74,1.75-1.31,2.5-2.21-1.07-.93-2.04-1.63-3.2-2.26l.98-1.1c1.26.72,1.96,1.2,3.13,2.15.75-1.17,1.36-2.45,1.81-3.81l-4.88.05c-1.05,1.6-2.07,2.76-3.52,3.96-.42-.46-.6-.61-1.26-1,1.62-1.2,2.85-2.58,3.79-4.29.45-.81.75-1.52.87-2.06l1.65.39Z" fill="#231815"/>
      <path d="m365.9,357.53c.55.08,1.2.11,2.31.11h8.12c1.29,0,1.65-.02,2.23-.09v1.74c-.66-.06-1.14-.08-2.25-.08h-8.08c-1.26,0-1.71.02-2.33.08v-1.75Z" fill="#231815"/>
    </g>
    <g>
      <path d="m556.46,124.36c-.41-.06-.77-.08-1.46-.08h-3.66c-.67,0-.95.01-1.44.04.07-.47.1-.86.1-1.52v-6.45c0-.58-.02-.95-.1-1.48.43.02.77.04,1.44.04h3.54c.59,0,1.08-.02,1.46-.08v1.34c-.43-.06-.8-.08-1.46-.08h-3.55v2.72h3.01c.6,0,1-.02,1.47-.08v1.34c-.44-.06-.77-.08-1.47-.08h-3.02v3.12h3.68c.66,0,.98-.02,1.46-.08v1.36Z" fill="#231815"/>
      <path d="m561.31,122.16c.05.16.14.46.29.89.17-.59.18-.6.28-.89l2.09-6.01c.2-.59.29-.88.34-1.25h1.68c-.18.32-.3.62-.6,1.42l-2.57,6.79c-.2.54-.31.9-.37,1.18h-1.69c-.06-.25-.17-.6-.38-1.18l-2.58-6.79c-.26-.7-.44-1.12-.6-1.42h1.68c.07.38.18.82.34,1.25l2.11,6.01Z" fill="#231815"/>
    </g>
    <g>
      <path d="m510.23,209.92c.34.06.59.07,1.12.07h.96c.53,0,.71-.01,1.13-.06-.07.73-.1,1.3-.1,1.99v5.96c0,.61.02,1.01.1,1.49h-1.55c.07-.46.1-.89.1-1.49v-6.74h-.6c-.41,0-.74.02-1.15.07v-1.29Z" fill="#231815"/>
      <path d="m518.76,219.37c-.88,0-1.06.01-1.46.06.08-.74.17-1.13.34-1.56.31-.82.84-1.55,1.61-2.23.41-.36.78-.64,1.92-1.4,1.14-.77,1.48-1.21,1.48-1.94,0-.83-.68-1.34-1.76-1.34-.74,0-1.3.25-1.63.74-.2.31-.3.58-.38,1.15l-1.43-.19c.16-.85.37-1.34.8-1.85.56-.66,1.46-1.01,2.6-1.01,1.99,0,3.23.97,3.23,2.53,0,.91-.35,1.55-1.21,2.21-.37.28-.54.4-1.61,1.12-1.34.9-1.94,1.58-2.25,2.52h3.57c.7,0,1.22-.02,1.63-.08v1.35c-.53-.05-.98-.07-1.68-.07h-3.75Z" fill="#231815"/>
      <path d="m526.65,218.62c-.35-.35-.6-.74-.76-1.16-.31-.85-.47-1.79-.47-2.77,0-1.26.29-2.58.71-3.29.62-1.03,1.64-1.6,2.91-1.6.97,0,1.79.31,2.4.92.35.35.61.74.76,1.16.31.84.47,1.8.47,2.78,0,1.46-.32,2.76-.86,3.51-.65.9-1.58,1.35-2.77,1.35-.97,0-1.78-.31-2.39-.92Zm.98-7.05c-.25.28-.42.59-.52.9-.22.67-.32,1.44-.32,2.24,0,1.06.23,2.17.54,2.7.38.65.96.97,1.71.97.56,0,1.06-.19,1.38-.53.25-.26.44-.6.55-.97.22-.7.32-1.42.32-2.22,0-.97-.2-2.07-.49-2.63-.37-.72-.95-1.08-1.77-1.08-.6,0-1.04.19-1.4.61Z" fill="#231815"/>
    </g>
    <g>
      <path d="m51.59,393.39c-.14-.68-.36-1.5-.58-2.08l-.9-2.34h-6.64l-.9,2.34c-.34.86-.46,1.32-.6,2.08h-2.8c.34-.6.64-1.26,1.06-2.34l4.44-11.34c.38-.98.54-1.46.64-1.96h2.88c.1.44.2.74.68,1.96l4.46,11.34c.5,1.24.76,1.84,1.04,2.34h-2.78Zm-4.42-12.54q-.08-.2-.4-1.2-.34,1.04-.4,1.2l-2.28,6.2h5.38l-2.3-6.2Z" fill="#231815"/>
      <path d="m61.73,389.85c.08.26.24.76.48,1.48.28-.98.3-1,.46-1.48l3.48-10.02c.34-.98.48-1.46.56-2.08h2.8c-.3.54-.5,1.04-1,2.36l-4.28,11.32c-.34.9-.52,1.5-.62,1.96h-2.82c-.1-.42-.28-1-.64-1.96l-4.3-11.32c-.44-1.16-.74-1.86-1-2.36h2.8c.12.64.3,1.36.56,2.08l3.52,10.02Z" fill="#231815"/>
      <path d="m88.29,381.46h3.02c.8,0,1.26-.02,1.78-.08-.06.5-.08.96-.08,1.84v3.42c0,.88.02,1.42.08,1.92-.46-.08-1.02-.1-1.88-.1h-2.06c.64.78,1.02,1.18,1.62,1.68,1.06.9,2.24,1.6,3.64,2.18-.5.6-.7.9-1.08,1.7-2.3-1.26-3.78-2.6-5.14-4.64.04.34.04.44.06.76,0,.18.02.3.02.38,0,.18.02.32.02.36v2.18c0,.88.02,1.26.12,1.86h-1.88c.1-.58.14-.96.14-1.84v-2.18c0-.18,0-.3.02-.64l.04-.82c-1.36,2.04-2.72,3.34-4.92,4.68-.38-.76-.62-1.1-1.08-1.6,2.04-.94,3.82-2.38,5.02-4.06h-1.72c-.82,0-1.36.02-1.78.1.06-.54.1-1.06.1-1.9v-3.46c0-.82-.04-1.32-.1-1.82.52.06,1.04.08,1.84.08h2.58v-1.32h-3.12c-.74,0-1.28.02-1.76.08v1.66c-.34-.04-.72-.06-1.14-.06h-.54c.54,1.46,1.2,2.6,2.16,3.64-.42.52-.62.84-.92,1.52-.58-.86-.84-1.38-1.46-2.94.06.78.12,2.32.12,2.98v5.52c0,1.06.02,1.8.12,2.4h-1.92c.08-.62.12-1.36.12-2.4v-4.86c0-.62.04-1.86.1-2.94-.62,2.34-1.26,3.82-2.32,5.34-.38-.94-.54-1.24-.9-1.8,1.3-1.66,2.28-3.86,2.92-6.46h-1.06c-.6,0-1.02.02-1.36.08v-1.76c.34.06.68.08,1.36.08h1.24v-1.66c0-1.06-.02-1.58-.1-2.06h1.9c-.08.5-.1,1.1-.1,2.04v1.68h.62c.42,0,.62-.02.94-.04v-1.76c.58.08,1.12.12,2.02.12h3.08v-.34c0-.74-.04-1.14-.14-1.6h1.86c-.08.44-.1.82-.1,1.58v.36h3.62c.86,0,1.38-.04,1.98-.12v1.82c-.44-.06-1.12-.1-1.96-.1h-3.64v1.32Zm-4.3,1.46v1.34h2.68v-1.34h-2.68Zm0,2.72v1.4h2.68v-1.4h-2.68Zm4.3-1.38h3.06v-1.34h-3.06v1.34Zm0,2.78h3.08v-1.4h-3.08v1.4Z" fill="#231815"/>
    </g>
    <g>
      <path d="m243.35,68.25c.34.06.59.07,1.12.07h.96c.53,0,.71-.01,1.13-.06-.07.73-.1,1.3-.1,1.99v5.96c0,.61.02,1.01.1,1.49h-1.55c.07-.46.1-.89.1-1.49v-6.74h-.6c-.41,0-.74.02-1.15.07v-1.29Z" fill="#231815"/>
      <path d="m251.49,76.95c-.35-.35-.6-.74-.76-1.16-.31-.85-.47-1.79-.47-2.77,0-1.26.29-2.58.71-3.29.62-1.03,1.64-1.6,2.91-1.6.97,0,1.79.31,2.4.92.35.35.61.74.76,1.16.31.84.47,1.8.47,2.78,0,1.46-.32,2.76-.86,3.51-.65.9-1.58,1.35-2.77,1.35-.97,0-1.78-.31-2.39-.92Zm.98-7.05c-.25.28-.42.59-.52.9-.22.67-.32,1.44-.32,2.24,0,1.06.23,2.17.54,2.7.38.65.96.97,1.71.97.56,0,1.06-.19,1.38-.53.25-.26.44-.6.55-.97.22-.7.32-1.42.32-2.22,0-.97-.2-2.07-.49-2.63-.37-.72-.95-1.08-1.77-1.08-.6,0-1.04.19-1.4.61Z" fill="#231815"/>
      <path d="m260.44,71.76c-.01.12-.04.3-.07.52.59-.53,1.24-.77,2.1-.77s1.68.3,2.24.86c.55.55.83,1.27.83,2.19,0,2.05-1.33,3.32-3.47,3.32-1.08,0-1.93-.31-2.55-.95-.34-.35-.5-.62-.76-1.25l1.39-.31c.12.35.19.5.36.7.36.42.91.65,1.57.65,1.26,0,2.09-.84,2.09-2.11s-.77-2.03-2.04-2.03c-.59,0-1.16.23-1.56.62-.17.16-.23.26-.34.52l-1.26-.12c.11-.7.13-.83.17-1.24l.26-2.88c.04-.29.05-.55.05-.74v-.22c-.01-.06-.01-.16-.01-.26.36.04.62.05,1.27.05h2.76c.77,0,1.03-.01,1.56-.1v1.33c-.5-.07-.92-.1-1.56-.1h-2.81l-.23,2.3Z" fill="#231815"/>
    </g>
    <g>
      <path d="m179.68,52.82c.34.06.59.07,1.12.07h.96c.53,0,.71-.01,1.13-.06-.07.73-.1,1.3-.1,1.99v5.96c0,.61.02,1.01.1,1.49h-1.55c.07-.46.1-.89.1-1.49v-6.74h-.6c-.41,0-.74.02-1.15.07v-1.29Z" fill="#231815"/>
      <path d="m187.82,61.53c-.35-.35-.6-.74-.76-1.16-.31-.85-.47-1.79-.47-2.77,0-1.26.29-2.58.71-3.29.62-1.03,1.64-1.6,2.91-1.6.97,0,1.79.31,2.4.92.35.35.61.74.76,1.16.31.84.47,1.8.47,2.78,0,1.46-.32,2.76-.86,3.51-.65.9-1.58,1.35-2.77,1.35-.97,0-1.78-.31-2.39-.92Zm.98-7.05c-.25.28-.42.59-.52.9-.22.67-.32,1.44-.32,2.24,0,1.06.23,2.17.54,2.7.38.65.96.97,1.71.97.56,0,1.06-.19,1.38-.53.25-.26.44-.6.55-.97.22-.7.32-1.42.32-2.22,0-.97-.2-2.07-.49-2.63-.37-.72-.95-1.08-1.77-1.08-.6,0-1.04.19-1.4.61Z" fill="#231815"/>
      <path d="m194.66,58.8q.29-.31.89-1.03l2.91-3.6c.48-.59.67-.85.95-1.28h1.34c-.07.7-.08,1.1-.08,2.03v3.93h.44c.49,0,.78-.02,1.22-.08v1.32c-.46-.06-.73-.08-1.22-.08h-.44v.92c0,.6.02.91.1,1.34h-1.46c.08-.41.11-.78.11-1.36v-.91h-3.27c-.7,0-1.04.01-1.48.05v-1.25Zm4.75-2.64c0-.6.01-.98.06-1.51-.24.35-.42.58-.83,1.1l-2.49,3.11h3.26v-2.7Z" fill="#231815"/>
    </g>
    <g>
      <path d="m179.68,179.74c.34.06.59.07,1.12.07h.96c.53,0,.71-.01,1.13-.06-.07.73-.1,1.3-.1,1.99v5.96c0,.61.02,1.01.1,1.49h-1.55c.07-.46.1-.89.1-1.49v-6.74h-.6c-.41,0-.74.02-1.15.07v-1.29Z" fill="#231815"/>
      <path d="m187.82,188.45c-.35-.35-.6-.74-.76-1.16-.31-.85-.47-1.79-.47-2.77,0-1.26.29-2.58.71-3.29.62-1.03,1.64-1.6,2.91-1.6.97,0,1.79.31,2.4.92.35.35.61.74.76,1.16.31.84.47,1.8.47,2.78,0,1.46-.32,2.76-.86,3.51-.65.9-1.58,1.35-2.77,1.35-.97,0-1.78-.31-2.39-.92Zm.98-7.05c-.25.28-.42.59-.52.9-.22.67-.32,1.44-.32,2.24,0,1.06.23,2.17.54,2.7.38.65.96.97,1.71.97.56,0,1.06-.19,1.38-.53.25-.26.44-.6.55-.97.22-.7.32-1.42.32-2.22,0-.97-.2-2.07-.49-2.63-.37-.72-.95-1.08-1.77-1.08-.6,0-1.04.19-1.4.61Z" fill="#231815"/>
      <path d="m196.5,187.01c.13.36.22.52.38.71.31.35.82.53,1.45.53.82,0,1.39-.34,1.82-1.06.23-.38.4-.92.48-1.51.04-.25.06-.56.08-1.08-.2.34-.31.47-.58.68-.56.46-1.16.66-2,.66-.98,0-1.79-.29-2.34-.84-.54-.54-.84-1.34-.84-2.25,0-1.94,1.38-3.24,3.48-3.24,1.25,0,2.31.59,2.89,1.62.4.67.59,1.68.59,2.99,0,1.87-.41,3.32-1.15,4.14-.64.68-1.42,1-2.53,1-.89,0-1.58-.2-2.13-.62-.42-.32-.66-.64-1-1.33l1.39-.38Zm1.86-2.16c1.19,0,2.11-.9,2.11-2.06s-.9-2.06-2.11-2.06c-.59,0-1.12.22-1.5.6-.38.38-.56.88-.56,1.49,0,1.28.76,2.04,2.06,2.04Z" fill="#231815"/>
    </g>
    <g>
      <path d="m57.57,165.3c.34.06.59.07,1.12.07h.96c.53,0,.71-.01,1.13-.06-.07.73-.1,1.3-.1,1.99v5.96c0,.61.02,1.01.1,1.49h-1.55c.07-.46.1-.89.1-1.49v-6.74h-.6c-.41,0-.74.02-1.15.07v-1.29Z" fill="#231815"/>
      <path d="m65.7,174.01c-.35-.35-.6-.74-.76-1.16-.31-.85-.47-1.79-.47-2.77,0-1.26.29-2.58.71-3.29.62-1.03,1.64-1.6,2.91-1.6.97,0,1.79.31,2.4.92.35.35.61.74.76,1.16.31.84.47,1.8.47,2.78,0,1.46-.32,2.76-.86,3.51-.65.9-1.58,1.35-2.77,1.35-.97,0-1.78-.31-2.39-.92Zm.98-7.05c-.25.28-.42.59-.52.9-.22.67-.32,1.44-.32,2.24,0,1.06.23,2.17.54,2.7.38.65.96.97,1.71.97.56,0,1.06-.19,1.38-.53.25-.26.44-.6.55-.97.22-.7.32-1.42.32-2.22,0-.97-.2-2.07-.49-2.63-.37-.72-.95-1.08-1.77-1.08-.6,0-1.04.19-1.4.61Z" fill="#231815"/>
      <path d="m74.13,165.3c.34.06.59.07,1.12.07h.96c.53,0,.71-.01,1.13-.06-.07.73-.1,1.3-.1,1.99v5.96c0,.61.02,1.01.1,1.49h-1.55c.07-.46.1-.89.1-1.49v-6.74h-.6c-.41,0-.74.02-1.15.07v-1.29Z" fill="#231815"/>
    </g>
    <g>
      <path d="m57.57,68.39c.34.06.59.07,1.12.07h.96c.53,0,.71-.01,1.13-.06-.07.73-.1,1.3-.1,1.99v5.96c0,.61.02,1.01.1,1.49h-1.55c.07-.46.1-.89.1-1.49v-6.74h-.6c-.41,0-.74.02-1.15.07v-1.29Z" fill="#231815"/>
      <path d="m65.7,77.1c-.35-.35-.6-.74-.76-1.16-.31-.85-.47-1.79-.47-2.77,0-1.26.29-2.58.71-3.29.62-1.03,1.64-1.6,2.91-1.6.97,0,1.79.31,2.4.92.35.35.61.74.76,1.16.31.84.47,1.8.47,2.78,0,1.46-.32,2.76-.86,3.51-.65.9-1.58,1.35-2.77,1.35-.97,0-1.78-.31-2.39-.92Zm.98-7.05c-.25.28-.42.59-.52.9-.22.67-.32,1.44-.32,2.24,0,1.06.23,2.17.54,2.7.38.65.96.97,1.71.97.56,0,1.06-.19,1.38-.53.25-.26.44-.6.55-.97.22-.7.32-1.42.32-2.22,0-.97-.2-2.07-.49-2.63-.37-.72-.95-1.08-1.77-1.08-.6,0-1.04.19-1.4.61Z" fill="#231815"/>
      <path d="m74.38,77.84c-.88,0-1.06.01-1.46.06.08-.74.17-1.13.34-1.56.31-.82.84-1.55,1.61-2.23.41-.36.78-.64,1.92-1.4,1.14-.77,1.48-1.21,1.48-1.94,0-.83-.68-1.34-1.76-1.34-.74,0-1.3.25-1.63.74-.2.31-.3.58-.38,1.15l-1.43-.19c.16-.85.37-1.34.8-1.85.56-.66,1.46-1.01,2.6-1.01,1.99,0,3.23.97,3.23,2.53,0,.91-.35,1.55-1.21,2.21-.37.28-.54.4-1.61,1.12-1.34.9-1.94,1.58-2.25,2.52h3.57c.7,0,1.22-.02,1.63-.08v1.35c-.53-.05-.98-.07-1.68-.07h-3.75Z" fill="#231815"/>
    </g>
    <g>
      <path d="m116.01,52.96c.34.06.59.07,1.12.07h.96c.53,0,.71-.01,1.13-.06-.07.73-.1,1.3-.1,1.99v5.96c0,.61.02,1.01.1,1.49h-1.55c.07-.46.1-.89.1-1.49v-6.74h-.6c-.41,0-.74.02-1.15.07v-1.29Z" fill="#231815"/>
      <path d="m124.15,61.67c-.35-.35-.6-.74-.76-1.16-.31-.85-.47-1.79-.47-2.77,0-1.26.29-2.58.71-3.29.62-1.03,1.64-1.6,2.91-1.6.97,0,1.79.31,2.4.92.35.35.61.74.76,1.16.31.84.47,1.8.47,2.78,0,1.46-.32,2.76-.86,3.51-.65.9-1.58,1.35-2.77,1.35-.97,0-1.78-.31-2.39-.92Zm.98-7.05c-.25.28-.42.59-.52.9-.22.67-.32,1.44-.32,2.24,0,1.06.23,2.17.54,2.7.38.65.96.97,1.71.97.56,0,1.06-.19,1.38-.53.25-.26.44-.6.55-.97.22-.7.32-1.42.32-2.22,0-.97-.2-2.07-.49-2.63-.37-.72-.95-1.08-1.77-1.08-.6,0-1.04.19-1.4.61Z" fill="#231815"/>
      <path d="m132.63,59.97c.16.55.3.78.63,1.03.41.3.9.46,1.5.46,1.26,0,2.07-.65,2.07-1.67,0-1.08-.78-1.67-2.21-1.67-.46,0-.78.01-1.16.06v-1.27c.29.05.66.07.96.07.61,0,1.16-.12,1.46-.32.44-.29.67-.73.67-1.27,0-.92-.64-1.42-1.81-1.42-.66,0-1.14.2-1.45.6-.17.22-.24.38-.35.78l-1.43-.26c.2-.67.4-1.01.78-1.38.59-.58,1.45-.88,2.53-.88,1.9,0,3.12.97,3.12,2.47,0,.73-.31,1.38-.84,1.76-.29.22-.54.31-1.14.46.83.11,1.28.31,1.7.77.4.43.58.95.58,1.66,0,.65-.26,1.3-.71,1.73-.62.61-1.58.94-2.78.94-1.32,0-2.27-.35-2.92-1.07-.29-.32-.43-.62-.65-1.27l1.43-.3Z" fill="#231815"/>
    </g>
    <g>
      <path d="m244.73,165.3c.34.06.59.07,1.12.07h.96c.53,0,.71-.01,1.13-.06-.07.73-.1,1.3-.1,1.99v5.96c0,.61.02,1.01.1,1.49h-1.55c.07-.46.1-.89.1-1.49v-6.74h-.6c-.41,0-.74.02-1.15.07v-1.29Z" fill="#231815"/>
      <path d="m252.87,174.01c-.35-.35-.6-.74-.76-1.16-.31-.85-.47-1.79-.47-2.77,0-1.26.29-2.58.71-3.29.62-1.03,1.64-1.6,2.91-1.6.97,0,1.79.31,2.4.92.35.35.61.74.76,1.16.31.84.47,1.8.47,2.78,0,1.46-.32,2.76-.86,3.51-.65.9-1.58,1.35-2.77,1.35-.97,0-1.78-.31-2.39-.92Zm.98-7.05c-.25.28-.42.59-.52.9-.22.67-.32,1.44-.32,2.24,0,1.06.23,2.17.54,2.7.38.65.96.97,1.71.97.56,0,1.06-.19,1.38-.53.25-.26.44-.6.55-.97.22-.7.32-1.42.32-2.22,0-.97-.2-2.07-.49-2.63-.37-.72-.95-1.08-1.77-1.08-.6,0-1.04.19-1.4.61Z" fill="#231815"/>
      <path d="m266.93,166.49c-.31.29-.59.66-1.1,1.5-.95,1.54-1.46,2.67-1.89,4.19-.24.86-.36,1.42-.52,2.58h-1.59c.42-2.22.74-3.26,1.45-4.73.6-1.24,1.12-2.07,2.12-3.45h-3.79c-.66,0-1,.02-1.47.08v-1.37c.52.06.88.08,1.54.08h3.73c.83,0,1.12-.01,1.54-.06v1.18Z" fill="#231815"/>
    </g>
    <g>
      <path d="m307.21,68.25c.34.06.59.07,1.12.07h.96c.53,0,.71-.01,1.13-.06-.07.73-.1,1.3-.1,1.99v5.96c0,.61.02,1.01.1,1.49h-1.55c.07-.46.1-.89.1-1.49v-6.74h-.6c-.41,0-.74.02-1.15.07v-1.29Z" fill="#231815"/>
      <path d="m315.35,76.95c-.35-.35-.6-.74-.76-1.16-.31-.85-.47-1.79-.47-2.77,0-1.26.29-2.58.71-3.29.62-1.03,1.64-1.6,2.91-1.6.97,0,1.79.31,2.4.92.35.35.61.74.76,1.16.31.84.47,1.8.47,2.78,0,1.46-.32,2.76-.86,3.51-.65.9-1.58,1.35-2.77,1.35-.97,0-1.78-.31-2.39-.92Zm.98-7.05c-.25.28-.42.59-.52.9-.22.67-.32,1.44-.32,2.24,0,1.06.23,2.17.54,2.7.38.65.96.97,1.71.97.56,0,1.06-.19,1.38-.53.25-.26.44-.6.55-.97.22-.7.32-1.42.32-2.22,0-.97-.2-2.07-.49-2.63-.37-.72-.95-1.08-1.77-1.08-.6,0-1.04.19-1.4.61Z" fill="#231815"/>
      <path d="m327.99,70.51c-.34-.89-.84-1.26-1.71-1.26s-1.55.46-1.96,1.34c-.3.66-.43,1.25-.49,2.3.24-.36.37-.52.65-.72.54-.42,1.12-.6,1.89-.6,1.98,0,3.18,1.19,3.18,3.14s-1.37,3.17-3.35,3.17c-.92,0-1.77-.29-2.33-.78-.85-.74-1.32-2.16-1.32-3.93,0-1.46.36-2.84.95-3.65.7-.94,1.59-1.38,2.79-1.38.96,0,1.74.29,2.29.84.32.32.5.6.74,1.18l-1.34.35Zm-3.93,4.2c0,1.19.9,2.05,2.11,2.05.76,0,1.4-.34,1.76-.9.18-.29.29-.71.29-1.15,0-1.28-.74-2.04-2-2.04s-2.16.88-2.16,2.04Z" fill="#231815"/>
    </g>
    <g>
      <path d="m332.59,244.87c0-1.04-.04-1.48-.14-2.14h2.16c-.1.6-.12,1.14-.12,2.08v1.48h5.6c.78,0,1.2-.02,1.7-.08-.06.56-.08.96-.08,1.68v5.86c0,.78.02,1.3.1,1.9h-1.98v-1.26h-5.34v4.3c0,1.18.02,1.74.14,2.4h-2.18c.1-.7.14-1.28.14-2.4v-4.3h-5.08v1.26h-2c.08-.68.12-1.12.12-1.9v-5.86c0-.7-.02-1.1-.1-1.68.54.06.96.08,1.68.08h5.38v-1.42Zm-5.08,3.16v4.62h5.08v-4.62h-5.08Zm12.32,4.62v-4.62h-5.34v4.62h5.34Z" fill="#231815"/>
      <path d="m353.01,243.87c0-.54-.02-.86-.1-1.2h2c-.08.32-.1.66-.1,1.22v.48h5.4c.98,0,1.68-.04,2.28-.12v1.8c-.56-.08-1.04-.1-1.9-.1h-13.14c-.02,5.82-.16,8.32-.64,10.76-.34,1.68-.72,2.76-1.48,4.28-.6-.78-.64-.8-1.38-1.42.64-1.22.94-2.16,1.26-3.88.28-1.58.48-4.52.48-7.32,0-.06,0-.56-.02-2.4,0-.94,0-1.2-.06-1.7.72.08,1.38.1,2.26.1h5.14v-.5Zm-3.8,9.86c.2.7.64,1.6,1.16,2.3.48-.9.66-1.4,1-2.92h-1.54c-.6,0-.8,0-1.14.04l-.6-1.08c1.18-1.06,1.98-1.98,2.88-3.38h-1.44c-.54,0-.8.02-1.22.08v-1.68c.4.08.7.1,1.34.1h1.38c.78,0,1.08-.02,1.34-.06l.86,1q-.24.32-.52.74c-.6.9-1.18,1.62-2.24,2.78h1.68c.56,0,.82-.02,1.1-.06-.08.48-.14.72-.14.74-.34,1.96-.88,3.6-1.6,4.9,1.58,1.28,3.44,1.74,6.86,1.74,1.48,0,2.82-.06,4.6-.24-.26.64-.4,1.16-.54,1.96-2.04.04-2.16.04-2.9.04-4.8,0-6.72-.48-8.88-2.22-.82,1.02-1.76,1.84-2.94,2.58-.34-.56-.66-.94-1.14-1.42,1.28-.72,1.98-1.28,2.9-2.32-.5-.64-.68-.88-1.24-1.92-.24-.44-.34-.62-.5-.86l1.48-.84Zm7.64-4.72c-.96.16-1.44.24-2.74.4-.18-.66-.28-.9-.64-1.52,2.86-.12,5.84-.72,7.3-1.48l.94,1.44c-1.04.34-2.06.6-3.16.84v2.64h2.22c.7,0,1.2-.02,1.62-.1v1.78c-.46-.06-.84-.08-1.6-.08h-2.24v2.74h1.78c.74,0,1.04-.02,1.46-.08v1.7c-.52-.06-.74-.08-1.48-.08h-5.02c-.68,0-.96.02-1.44.08v-1.68c.52.06.6.06,1.48.06h1.52v-2.74h-1.76c-.78,0-1.08.02-1.54.08v-1.76c.4.06.74.08,1.58.08h1.72v-2.32Z" fill="#231815"/>
    </g>
    <g>
      <path d="m59.81,95.32c-.46,0-.69,0-.95.05v-.95c.25.04.47.05.95.05h.73v-.86h-.47c-.37,0-.58,0-.85.04v-.93c.24.04.42.05.85.05h.47v-.22c0-.28-.02-.49-.04-.73h1.04c-.04.21-.05.4-.05.73v.22h.19c.32,0,.46,0,.65-.05v.69c.31-.53.49-.92.58-1.23l.8.48c0-.27,0-.35-.04-.58.24.02.42.03.79.03h1.44c.38,0,.55,0,.74-.05l.42.62c-.08.18-.09.2-.14.36-.05.13-.31.74-.4.98-.02.04-.11.24-.25.56-.05.13-.14.32-.25.58.41.52.58.78.77,1.23.17.41.25.78.25,1.13,0,.68-.24,1.13-.73,1.31-.28.12-.53.14-1.22.14-.04-.5-.08-.69-.24-1,.28.02.37.03.48.03.51,0,.72-.14.72-.5,0-.3-.04-.61-.13-.87-.17-.53-.41-.91-.9-1.4.4-.77.68-1.49.93-2.28h-1.27v5.96c0,.49.02.9.05,1.22h-1.06c.04-.25.05-.63.05-1.24v-6.13c-.07.12-.08.14-.15.27-.29.53-.61,1.03-.92,1.42h.08c.28,0,.52-.02.73-.04v.91c-.23-.03-.48-.04-.87-.04h-.65c-.27.3-.42.45-.67.68h1.06c.35,0,.55,0,.74-.04-.02.24-.03.42-.03.96v2.14c0,.41,0,.68.04.93h-.95v-.31h-1.52v.47h-.97c.04-.22.05-.55.05-1v-1.86c-.22.16-.33.23-.62.42-.15-.41-.26-.59-.5-.87.78-.38,1.49-.86,2.2-1.51h-.95Zm.78,2.12h1.53v-.7h-1.53v.7Zm0,1.47h1.53v-.74h-1.53v.74Zm.97-4.42c.27-.31.49-.6.64-.85-.16-.02-.26-.02-.42-.02h-.29v.86h.07Z" fill="#231815"/>
      <path d="m71.33,92.51c0-.26-.03-.52-.05-.67h1.13c-.04.2-.06.41-.06.66v.45h2.55c.49,0,.81-.02,1.13-.06v1.03c-.3-.04-.55-.05-1.11-.05h-5.97c-.42,0-.77.02-1.11.05v-1.03c.35.04.67.06,1.13.06h2.35v-.44Zm0,2.21c0-.23,0-.46-.04-.66h1.08c-.03.11-.04.32-.04.66v.11h2.09c.41,0,.61,0,.88-.04-.03.24-.04.45-.04.77v2.66c0,.81-.26,1.02-1.31,1.02-.21,0-.38,0-.75-.04-.05-.41-.08-.54-.24-.96.4.06.69.09.88.09.37,0,.45-.04.45-.28v-2.34h-1.96v3.34c0,.44.02.75.06,1.11h-1.13c.04-.37.06-.68.06-1.1v-3.35h-1.78v2.58c0,.5,0,.77.05,1.06h-1.11c.04-.34.05-.64.05-1.05v-2.74c0-.28,0-.51-.04-.77.29.03.54.04.93.04h1.89v-.11Z" fill="#231815"/>
      <path d="m78.55,92.57c0-.34,0-.49-.04-.67h1.04c-.03.2-.04.36-.04.67h2.83c0-.35-.02-.5-.04-.67h1.04c-.03.19-.04.36-.04.67h.59c.42,0,.71-.02.98-.05v.91c-.32-.04-.61-.05-.98-.05h-.59v2.53h.72c.37,0,.7-.02,1-.05v.91c-.27-.04-.58-.05-.97-.05h-.92c.55.46,1.22.77,2.14.99-.2.33-.32.58-.44.95-.64-.24-1.06-.45-1.61-.81v.6c-.25-.03-.43-.04-.82-.04h-1.04v.63h2.2c.43,0,.7-.02,1-.05v.97c-.29-.04-.62-.05-1.07-.05h-5.01c-.44,0-.77.02-1.08.05v-.96c.26.03.56.04,1.03.04h2.01v-.63h-.9c-.38,0-.57,0-.82.04v-.61c-.54.38-.93.58-1.61.84-.1-.34-.2-.55-.44-.94.88-.2,1.56-.53,2.09-1.02h-.88c-.4,0-.68.02-.97.05v-.91c.27.04.57.05.97.05h.73v-2.53h-.5c-.38,0-.68.02-.99.05v-.91c.28.04.58.05.99.05h.5Zm1.31,4.14c-.27.34-.47.54-.86.86.16,0,.26,0,.48,0h.9c0-.31,0-.45-.04-.63h1.03c-.04.2-.05.33-.05.63h1.04c.22,0,.31,0,.45,0-.41-.31-.62-.51-.9-.86h-2.05Zm2.46-2.96v-.37h-2.83v.37h2.83Zm0,1.07v-.36h-2.83v.36h2.83Zm0,1.09v-.38h-2.83v.38h2.83Z" fill="#231815"/>
      <path d="m93.75,94.75s-.05.07-.08.1c-.06.09-.07.1-.09.13-.31.4-.62.68-1.1,1.04.53.22,1.01.33,1.61.4-.2.28-.27.42-.41.82-1-.26-1.32-.39-1.95-.75-.5.26-.93.41-1.64.59-.16-.28-.21-.34-.5-.67,0,.21-.07.34-.2.45-.13.12-.35.16-.79.16-.05,0-.12,0-.52,0-.04-.32-.06-.43-.17-.7.12.02.54.05.65.05.09,0,.16-.02.19-.06.03-.03.03-.04.03-.14v-1.2l-.41.05v.6c0,.23,0,.4.03.56h-.75c.03-.16.04-.33.04-.56v-.53c-.23.02-.38.04-.42.04-.11.99-.31,1.58-.76,2.21-.24-.28-.41-.42-.7-.61.4-.5.52-.81.63-1.52-.31.03-.49.04-.54.05l-.09-.86c.14.02.3.03.44.03t.27,0c.02-.41.03-.61.03-1.21,0-.31-.02-.59-.04-.85.2.03.53.04.93.04h.1c.14-.27.19-.43.23-.66l.95.13q-.19.38-.27.52h.32c.34,0,.74-.02.87-.04-.02.15-.03.52-.03.8v.98l.32-.05v.71l-.32.04v1.53c.53-.09.94-.21,1.4-.39-.25-.2-.38-.32-.68-.64l.72-.3h-.23c-.31,0-.5,0-.72.03v-.79c.1.02.14.02.26.03-.17-.27-.3-.4-.58-.59.23-.11.42-.25.53-.4.13-.17.2-.5.2-.9,0-.19,0-.3-.02-.37.17.02.34.03.59.03h1.13c.27,0,.45,0,.6-.03-.02.16-.03.3-.03.49v.68c0,.12.03.14.2.14.23,0,.31-.03.32-.14.03-.13.04-.29.04-.58.28.14.46.2.74.23-.02.61-.06.82-.2.97-.14.16-.42.23-.94.23-.8,0-.95-.08-.95-.49v-.73h-.75c-.07.65-.15.85-.45,1.15-.13.14-.22.2-.41.31.15,0,.24,0,.43,0h1.81c.32,0,.48,0,.6-.04l.52.45Zm-7,3.15c0-.29,0-.48-.04-.72.32.02.61.03.88.03h4.67c.29,0,.51,0,.86-.03-.03.21-.04.39-.04.68v1.22h.29c.31,0,.49,0,.68-.04v.91c-.32-.03-.68-.04-1.04-.04h-6.18c-.37,0-.76.02-1.06.04v-.91c.19.03.4.04.66.04h.3v-1.17Zm.57-4.8c0,.64,0,.86-.03,1.28.75-.05,1.13-.08,1.47-.13v-1.15h-1.44Zm.74,1.13c-.25-.41-.33-.5-.59-.76l.51-.33c.27.24.39.39.61.71l-.53.38Zm-.38,4.83h.93v-1.04h-.93v1.04Zm1.75,0h.95v-1.04h-.95v1.04Zm1.65-4.01c.23.26.36.37.64.56.32-.21.48-.33.68-.56h-1.31Zm.12,4.01h.97v-1.04h-.97v1.04Z" fill="#231815"/>
      <path d="m95.46,93.14c-.29,0-.44,0-.65.04v-.96c.23.04.45.05.77.05h.88c.34,0,.56-.02.79-.05v.96c-.21-.04-.35-.04-.57-.04h-.1v1.77c.25,0,.32,0,.53-.04v.9c-.19-.02-.34-.03-.53-.03v1.67c.25-.1.41-.16.87-.37v.93c-.82.39-1.38.62-2.11.88-.14.05-.36.14-.47.2l-.23-1.04c.16,0,.43-.08,1-.26v-2.02h-.1c-.25,0-.42,0-.61.04v-.92c.2.04.34.04.63.04h.08v-1.77h-.2Zm7.35,4.71c-.07.06-.1.09-.25.22-.23.2-.41.34-.67.52.5.28.84.41,1.36.55-.17.25-.33.56-.49.9-.7-.28-1.09-.49-1.55-.83-.42-.31-.64-.53-.91-.89.03.28.04.43.04.67v.5c0,.32,0,.51.04.73h-1.04c.04-.23.04-.4.04-.77v-.49c0-.16,0-.45.03-.63-.58.68-1.13,1.07-2.3,1.65-.15-.32-.32-.55-.59-.82,1.17-.4,1.96-.9,2.59-1.63h-.72c-.29,0-.59,0-.72.03.03-.13.04-.29.04-.57v-.75c0-.25,0-.39-.03-.56.22.02.45.03.76.03h3.27c.36,0,.61,0,.81-.03-.02.16-.03.32-.03.57v.77c0,.24,0,.39.03.54-.11-.02-.14-.02-.31-.02l.59.31Zm-5.49-3.4c.26.04.49.05.86.05h3.98c.37,0,.59,0,.86-.04v.91c-.28-.04-.5-.04-.86-.04h-4c-.35,0-.6,0-.86.04v-.92Zm.18-1.75c0-.32,0-.48-.04-.65.21.03.43.04.72.04h3.87c.22,0,.5-.02.72-.04-.03.24-.04.42-.04.64v.86c0,.2,0,.43.03.62-.21,0-.36-.02-.69-.02h-3.89c-.33,0-.45,0-.71.02.02-.15.03-.29.03-.63v-.85Zm1.5.13h-.66v.68h.66v-.68Zm-.37,3.99h2.93v-.44h-2.93v.44Zm1.82-3.99h-.67v.68h.67v-.68Zm.13,4.7c.2.25.33.39.63.6.32-.22.43-.31.71-.6h-1.34Zm1.33-4.7h-.68v.68h.68v-.68Z" fill="#231815"/>
      <path d="m104.69,92.95c0-.44-.02-.73-.05-1h1.04c-.04.28-.05.53-.05,1.01v1.2c.31,0,.42,0,.62-.03v.94c-.19-.03-.34-.04-.62-.04v2.21c.23-.1.35-.15.79-.36l.04.96c-.61.3-1.18.53-2.17.94-.15.06-.29.12-.41.18l-.2-1.04c.23-.04.48-.11,1.02-.31v-2.58h-.2c-.26,0-.49.02-.71.04v-.96c.23.04.45.05.72.05h.19v-1.21Zm2.8,5.06c-.28,0-.41,0-.77.03.02-.18.03-.31.03-.66v-1.62c0-.31,0-.53-.04-.71.23.02.43.03.85.03h3.14c.41,0,.61,0,.85-.03-.03.21-.04.4-.04.71v1.57c0,.3,0,.51.04.71-.23-.02-.39-.03-.76-.03h-.7v1.03c0,.19.04.21.54.21.38,0,.5-.03.56-.12.05-.1.07-.35.07-.88.3.15.53.23.89.31-.09,1.37-.27,1.53-1.6,1.53-.56,0-.86-.04-1.08-.14-.23-.1-.3-.23-.3-.58v-1.37h-.63c-.08.6-.24.96-.58,1.32-.42.44-.95.68-2.01.93-.16-.39-.28-.58-.51-.85,1.51-.19,2.08-.54,2.2-1.4h-.15Zm3.34-5.44c.4,0,.71-.02.97-.04v.84c-.31-.03-.46-.04-.92-.04-.13.31-.17.4-.29.62h.52c.47,0,.65,0,.91-.04v.9c-.31-.04-.51-.04-.95-.04h-3.82c-.45,0-.56,0-.83.03v-.87c.29.03.43.04.8.04h.37c-.08-.24-.13-.38-.24-.62-.42,0-.54,0-.78.04v-.84c.28.04.57.04.96.04h1.08v-.2c0-.22-.02-.37-.04-.54h1.05c-.04.19-.04.31-.04.53v.21h1.24Zm-3.17,3.59h2.91v-.36h-2.91v.36Zm0,1.08h2.91v-.4h-2.91v.4Zm1.98-3.3c.12-.24.18-.37.27-.62h-1.6c.09.21.17.41.24.62h1.09Z" fill="#231815"/>
      <path d="m78.02,113.43c-.47,0-.82.02-1.1.05v-1c.31.04.67.06,1.09.06h2.45v-.06c0-.18,0-.34-.03-.5h.39c.39-.2.68-.4,1.06-.73h-2.48c-.37,0-.61,0-.9.04v-.9c.27.04.52.04.91.04h2.98c.35,0,.52,0,.68-.04l.5.55q-.15.13-.32.27c-.64.55-1.1.88-1.8,1.31h0s2.35,0,2.35,0c.44,0,.84-.02,1.11-.06v1c-.26-.04-.65-.05-1.12-.05h-2.34v1.58c0,.31-.03.44-.12.57-.15.23-.46.3-1.27.3-.12,0-.41,0-.88-.04-.1-.48-.14-.63-.3-.95.43.06.84.09,1.12.09.4,0,.46-.03.46-.21v-1.33h-2.44Zm.46-4.45c-.21-.4-.32-.58-.68-1.02l.91-.27c.31.39.52.71.82,1.29h.95c-.15-.42-.3-.74-.55-1.13l.94-.26c.37.69.42.82.62,1.4h.77c.27-.36.58-.93.74-1.35l.97.27c-.21.39-.47.8-.68,1.08h.41c.61,0,.78,0,1.11-.04-.03.23-.04.4-.04.75v.84c0,.24.02.47.04.68h-.98v-1.4h-5.87v1.4h-.98c.04-.21.04-.41.04-.69v-.83c0-.32,0-.51-.04-.75.41.04.46.04,1.06.04h.42Z" fill="#231815"/>
      <path d="m87.31,109.06c-.37.07-.52.09-1.05.16-.09-.37-.15-.53-.34-.86,1.46-.15,2.53-.41,3.07-.77l.56.83s-.04,0-.14.06c-.24.1-.68.24-1.13.37v1.11h.5c.31,0,.48,0,.67-.04v.96c-.21-.04-.41-.04-.68-.04h-.43c.25.51.63.94,1.24,1.4-.2.25-.34.5-.49.88-.44-.48-.62-.74-.85-1.23.02.23.03.62.04,1.17v1.76c0,.51,0,.77.05,1.11h-1.06c.04-.33.05-.64.05-1.11v-1.46c0-.21,0-.47.05-1.14-.29.83-.58,1.38-1.09,2.03-.2-.47-.26-.58-.53-.94.41-.42.7-.85,1.02-1.46.18-.34.35-.76.43-1.02h-.47c-.32,0-.53,0-.79.05v-.98c.26.04.46.05.81.05h.57v-.9Zm4.9-.38c0-.52,0-.77-.05-1.04h1.09c-.04.3-.05.54-.05,1.04v3.88c.51-.12.57-.13.85-.24l.08,1.05c-.24.03-.5.07-.86.15l-.07.02v1.34c0,.5,0,.77.05,1.06h-1.09c.04-.31.05-.52.05-1.07v-1.12l-2.03.45c-.35.08-.65.16-.87.23l-.12-1.04h.05c.24,0,.45-.04.8-.13l2.17-.49v-4.09Zm-2.2,1.7c.8.57,1.13.84,1.7,1.4l-.57.8c-.71-.75-1.04-1.04-1.71-1.48l.58-.72Zm.31-2.25c.87.59,1.24.89,1.74,1.41l-.61.81c-.58-.65-.96-.99-1.7-1.49l.58-.74Z" fill="#231815"/>
      <path d="m80.78,129.16c.08.26.14.38.27.52.25.31.63.46,1.11.46.89,0,1.48-.59,1.48-1.49s-.56-1.45-1.41-1.45c-.44,0-.84.14-1.12.41-.13.13-.19.21-.27.41l-1.13-.11c.09-.64.1-.68.12-.94l.21-2.23c0-.16.03-.47.04-.92.27.02.48.03.95.03h2.21c.62,0,.85,0,1.25-.07v1.13c-.4-.05-.75-.07-1.24-.07h-2.12l-.14,1.58c0,.07-.03.2-.05.38.44-.38.92-.55,1.54-.55.73,0,1.31.22,1.76.68.44.43.64.97.64,1.69,0,1.58-1.04,2.57-2.71,2.57-.89,0-1.56-.25-2.05-.78-.24-.26-.37-.48-.57-.98l1.24-.26Z" fill="#231815"/>
      <path d="m87.07,131.03c-.7,0-.85,0-1.16.04.05-.51.12-.83.23-1.15.24-.66.65-1.23,1.23-1.76.31-.28.58-.49,1.49-1.09.83-.57,1.08-.86,1.08-1.32,0-.61-.48-.99-1.24-.99-.52,0-.92.18-1.14.53-.15.22-.22.41-.28.83l-1.29-.15c.13-.68.29-1.05.62-1.44.45-.52,1.16-.8,2.06-.8,1.58,0,2.55.76,2.55,1.99,0,.59-.2,1.03-.64,1.44-.25.23-.34.31-1.51,1.11-.4.28-.85.66-1.07.9-.27.29-.38.47-.51.81h2.52c.57,0,1.02-.03,1.31-.07v1.19c-.42-.04-.78-.05-1.36-.05h-2.89Z" fill="#231815"/>
    </g>
    <g>
      <path d="m58.98,193.55c0-.47-.02-.76-.05-1.04h1.04c-.04.29-.05.54-.05,1.04v1.15h.2c.33,0,.46,0,.6-.04v.95c-.19-.03-.35-.04-.63-.04h-.17v2.45c.35-.16.45-.21.86-.41l.03.95c-.82.44-1.31.66-2.22,1-.25.1-.33.14-.47.2l-.19-1.04c.27-.04.53-.12,1.07-.32v-2.83h-.21c-.34,0-.49,0-.7.04v-.96c.2.04.35.04.7.04h.21v-1.16Zm3.23,5.73c0,.18.06.24.26.28.23.04.57.06,1.22.06,1.07,0,1.36-.04,1.49-.23.11-.15.16-.46.16-1.07.29.13.68.24.98.3-.11,1.8-.3,1.93-2.86,1.93-1.82,0-2.21-.17-2.21-.96v-3.1c-.08.03-.14.05-.18.05-.27.09-.37.13-.55.21l-.23-.98c.25-.04.57-.1.87-.2l.08-.03v-1.23c0-.43,0-.66-.05-.95h1.06c-.04.29-.05.55-.05.92v.98l.87-.28v-1.57c0-.41,0-.6-.05-.9h1.04c-.04.3-.05.58-.05.92v1.26l1.3-.41c.35-.11.5-.16.74-.27-.02.4-.03.46-.04.95-.04,1.27-.11,2.09-.2,2.48-.12.51-.36.67-1.02.67-.12,0-.2,0-.42-.02-.05-.39-.11-.65-.24-.93.21.04.37.07.5.07.23,0,.28-.04.32-.23.04-.3.08-.85.11-1.73l-1.04.32v2.24c0,.37.02.62.05.9h-1.04c.04-.31.05-.5.05-.93v-1.91l-.87.28v3.11Z" fill="#231815"/>
      <path d="m67.68,193.75c-.29,0-.45,0-.68.05v-.97c.22.04.45.05.82.05h1.27c.36,0,.58,0,.8-.05v.96c-.23-.03-.41-.04-.67-.04h-.27v1.76h.21c.23,0,.37,0,.57-.04v.92c-.18-.03-.36-.04-.57-.04h-.21v1.77c.38-.16.49-.21.88-.41l.03.95c-.78.39-1.13.54-2.53,1.11-.05.02-.09.04-.18.07l-.24-1.02c.31-.06.5-.13,1.11-.34v-2.14h-.3c-.26,0-.4,0-.61.05v-.93c.22.04.35.04.63.04h.28v-1.76h-.34Zm4.35,4.9h-1c-.51,0-.7,0-.94.04v-.92c.23.04.41.04.93.04h1.01v-.74h-.85c-.6,0-.81,0-1.08.03q.02-.21.04-1.12v-2.03c0-.61,0-.91-.04-1.21.34.04.63.05,1.22.05h2.48c.67,0,.94,0,1.16-.05-.03.26-.04.68-.04,1.23v1.92c0,.63,0,.95.04,1.21-.3-.03-.44-.03-.98-.03h-1.04v.74h1.15c.5,0,.69,0,.95-.04v.93c-.26-.04-.49-.05-.95-.05h-1.16v.93h1.45c.48,0,.71,0,.95-.04v.96c-.29-.04-.53-.04-1.02-.04h-3.79c-.48,0-.71,0-1.02.04v-.96c.24.04.44.04.91.04h1.61v-.93Zm-1-4.99v.9h1v-.9h-1Zm0,1.66v.91h1v-.91h-1Zm1.9-.76h1.04v-.9h-1.04v.9Zm0,1.67h1.04v-.91h-1.04v.91Z" fill="#231815"/>
      <path d="m76.67,193.72c-.29,0-.44,0-.65.04v-.96c.23.04.45.05.77.05h.88c.34,0,.56-.02.79-.05v.96c-.21-.04-.35-.04-.57-.04h-.1v1.77c.25,0,.32,0,.53-.04v.9c-.19-.02-.34-.03-.53-.03v1.67c.25-.1.41-.16.87-.37v.93c-.82.39-1.38.62-2.11.88-.14.05-.36.14-.47.2l-.23-1.04c.16,0,.43-.08,1-.26v-2.02h-.1c-.25,0-.42,0-.61.04v-.92c.2.04.34.04.63.04h.08v-1.77h-.2Zm7.35,4.71c-.07.06-.1.09-.25.22-.23.2-.41.34-.67.52.5.28.84.41,1.36.55-.17.25-.33.56-.49.9-.7-.28-1.09-.49-1.55-.83-.42-.31-.64-.53-.91-.89.03.28.04.43.04.67v.5c0,.32,0,.51.04.73h-1.04c.04-.23.04-.4.04-.77v-.49c0-.16,0-.45.03-.63-.58.68-1.13,1.07-2.3,1.65-.15-.32-.32-.55-.59-.82,1.17-.4,1.96-.9,2.59-1.63h-.72c-.29,0-.59,0-.72.03.03-.13.04-.29.04-.57v-.75c0-.25,0-.39-.03-.56.22.02.45.03.76.03h3.27c.36,0,.61,0,.81-.03-.02.16-.03.32-.03.57v.77c0,.24,0,.39.03.54-.11-.02-.14-.02-.31-.02l.59.31Zm-5.49-3.4c.26.05.49.05.86.05h3.98c.37,0,.59,0,.86-.04v.91c-.28-.04-.5-.04-.86-.04h-4c-.35,0-.6,0-.86.04v-.92Zm.18-1.75c0-.32,0-.48-.04-.65.21.03.43.04.72.04h3.87c.22,0,.5-.02.72-.04-.03.24-.04.42-.04.64v.86c0,.2,0,.43.03.62-.21,0-.36-.02-.69-.02h-3.89c-.33,0-.45,0-.71.02.02-.15.03-.29.03-.63v-.85Zm1.5.13h-.66v.68h.66v-.68Zm-.37,3.99h2.93v-.44h-2.93v.44Zm1.82-3.99h-.67v.68h.67v-.68Zm.13,4.7c.2.25.33.39.63.6.32-.22.43-.31.71-.6h-1.34Zm1.33-4.7h-.68v.68h.68v-.68Z" fill="#231815"/>
      <path d="m85.89,193.54c0-.44-.02-.73-.05-1h1.04c-.04.28-.05.53-.05,1.01v1.2c.31,0,.42,0,.62-.03v.94c-.19-.03-.34-.04-.62-.04v2.21c.23-.1.35-.15.79-.36l.04.96c-.61.3-1.18.53-2.17.94-.15.06-.29.12-.41.18l-.2-1.04c.23-.04.48-.11,1.02-.31v-2.58h-.2c-.26,0-.49.02-.71.04v-.96c.23.04.45.04.72.04h.19v-1.21Zm2.8,5.06c-.28,0-.41,0-.77.03.02-.18.03-.31.03-.66v-1.62c0-.31,0-.53-.04-.71.23.02.43.03.85.03h3.14c.41,0,.61,0,.85-.03-.03.21-.04.4-.04.71v1.57c0,.3,0,.51.04.71-.23-.02-.39-.03-.76-.03h-.7v1.03c0,.19.04.21.54.21.38,0,.5-.03.56-.12.05-.1.07-.35.07-.88.3.15.53.23.89.31-.09,1.37-.27,1.53-1.6,1.53-.56,0-.86-.04-1.08-.14-.23-.1-.3-.23-.3-.58v-1.37h-.63c-.08.6-.24.96-.58,1.32-.42.44-.95.68-2.01.93-.16-.39-.28-.58-.51-.85,1.51-.19,2.08-.54,2.2-1.4h-.15Zm3.34-5.44c.4,0,.71-.02.97-.05v.84c-.31-.03-.46-.04-.92-.04-.13.31-.17.4-.29.62h.52c.47,0,.65,0,.91-.04v.9c-.31-.04-.51-.04-.95-.04h-3.82c-.45,0-.56,0-.83.03v-.87c.29.03.43.04.8.04h.37c-.08-.24-.13-.38-.24-.62-.42,0-.54,0-.78.04v-.84c.28.04.57.05.96.05h1.08v-.2c0-.22-.02-.37-.04-.54h1.05c-.04.19-.04.31-.04.53v.21h1.24Zm-3.17,3.59h2.91v-.36h-2.91v.36Zm0,1.08h2.91v-.4h-2.91v.4Zm1.98-3.3c.12-.24.18-.37.27-.62h-1.6c.09.21.17.41.24.62h1.09Z" fill="#231815"/>
      <path d="m95.23,198.26c-.47,0-.82.02-1.1.05v-1c.31.04.67.06,1.09.06h2.45v-.06c0-.18,0-.34-.03-.5h.39c.39-.2.68-.4,1.06-.73h-2.48c-.37,0-.61,0-.9.04v-.9c.27.04.52.04.91.04h2.98c.35,0,.52,0,.68-.04l.5.55q-.15.13-.32.27c-.64.55-1.1.88-1.8,1.31h0s2.35,0,2.35,0c.44,0,.84-.02,1.11-.06v1c-.26-.04-.65-.05-1.12-.05h-2.34v1.58c0,.31-.03.44-.12.57-.15.23-.46.3-1.27.3-.12,0-.41,0-.88-.04-.1-.48-.14-.63-.3-.95.43.06.84.09,1.12.09.4,0,.46-.03.46-.21v-1.33h-2.44Zm.46-4.45c-.21-.4-.32-.58-.68-1.02l.91-.27c.31.39.52.71.82,1.29h.95c-.15-.42-.3-.74-.55-1.13l.94-.26c.37.69.42.82.62,1.4h.77c.27-.36.58-.93.74-1.35l.97.27c-.21.39-.47.8-.68,1.08h.41c.61,0,.78,0,1.11-.04-.03.23-.04.4-.04.75v.84c0,.24.02.47.04.68h-.98v-1.4h-5.87v1.4h-.98c.04-.21.04-.41.04-.69v-.83c0-.32,0-.51-.04-.75.41.04.46.04,1.06.04h.42Z" fill="#231815"/>
      <path d="m104.51,193.9c-.37.07-.52.09-1.05.16-.09-.37-.15-.53-.34-.86,1.46-.15,2.53-.41,3.07-.77l.56.83s-.04,0-.14.06c-.24.1-.68.24-1.13.37v1.11h.5c.31,0,.48,0,.67-.04v.96c-.21-.04-.41-.04-.68-.04h-.43c.25.51.63.95,1.24,1.4-.2.25-.34.5-.49.88-.44-.48-.62-.74-.85-1.23.02.23.03.62.04,1.17v1.76c0,.51,0,.77.05,1.11h-1.06c.04-.33.05-.64.05-1.11v-1.46c0-.21,0-.47.05-1.14-.29.83-.58,1.38-1.09,2.03-.2-.47-.26-.58-.53-.94.41-.42.7-.85,1.02-1.46.18-.34.35-.76.43-1.02h-.47c-.32,0-.53,0-.79.05v-.98c.26.05.46.05.81.05h.57v-.9Zm4.9-.38c0-.52,0-.77-.05-1.04h1.09c-.04.3-.05.54-.05,1.04v3.88c.51-.12.57-.13.85-.24l.08,1.05c-.24.03-.5.07-.86.15l-.07.02v1.34c0,.5,0,.77.05,1.06h-1.09c.04-.31.05-.52.05-1.07v-1.12l-2.03.45c-.35.08-.65.16-.87.23l-.12-1.04h.05c.24,0,.45-.04.8-.13l2.17-.49v-4.09Zm-2.2,1.7c.8.57,1.13.84,1.7,1.4l-.57.8c-.71-.75-1.04-1.04-1.71-1.48l.58-.72Zm.31-2.25c.87.59,1.24.89,1.74,1.41l-.61.81c-.58-.65-.96-.99-1.7-1.49l.58-.74Z" fill="#231815"/>
      <path d="m79.99,213.99c.08.26.14.38.27.52.25.31.63.46,1.11.46.89,0,1.48-.59,1.48-1.49s-.56-1.45-1.41-1.45c-.44,0-.84.14-1.12.41-.13.13-.19.21-.27.41l-1.13-.11c.09-.64.1-.68.12-.94l.21-2.23c0-.16.03-.47.04-.92.27.02.48.03.95.03h2.21c.62,0,.85,0,1.25-.07v1.13c-.4-.05-.75-.07-1.24-.07h-2.12l-.14,1.58c0,.07-.03.2-.05.38.44-.38.92-.55,1.54-.55.73,0,1.31.22,1.76.68.44.43.64.97.64,1.69,0,1.58-1.04,2.57-2.71,2.57-.89,0-1.56-.25-2.05-.78-.24-.26-.37-.48-.57-.98l1.24-.26Z" fill="#231815"/>
      <path d="m87.3,215.86c.05-.35.07-.7.07-1.17v-4.96h-.43c-.33,0-.59.02-.93.05v-1.14c.28.05.48.05.9.05h.83c.46,0,.59,0,.92-.04-.05.53-.07.95-.07,1.49v4.56c0,.48.02.8.07,1.17h-1.36Z" fill="#231815"/>
    </g>
    <g>
      <path d="m130.98,81.67c.41,0,.48,0,.65-.03-.02.16-.03.23-.04.4-.1,1.25-.29,2.02-.69,2.88.31.31.61.51.96.66.4.17.8.24,1.59.3.23.02.55.03.68.03,1.1,0,2.21-.04,3.07-.12-.15.41-.18.52-.24,1-.85.02-1.71.03-2.69.03-1.98,0-2.91-.28-3.81-1.13-.4.59-.64.88-1.15,1.34-.19-.32-.34-.52-.64-.83.56-.48.83-.77,1.16-1.27-.16-.23-.28-.44-.43-.75-.02-.04-.1-.18-.21-.41-.04-.08-.11-.23-.2-.4l.8-.42c.19.56.28.78.48,1.13.21-.51.3-.85.4-1.57h-.86c-.25,0-.51,0-.73.03q.56-.91.77-1.32c.33-.63.4-.8.57-1.24h-.9c-.24,0-.4,0-.61.04v-.95c.21.04.38.04.64.04h.95c.34,0,.5,0,.65-.04l.43.59c-.07.1-.08.12-.23.46-.18.42-.59,1.21-.79,1.55h.41Zm2.61-1.67h-1.05c-.24,0-.45,0-.64.04v-.8c.23.03.38.04.69.04h1c0-.29,0-.39-.04-.59h.99c-.03.17-.04.29-.04.59h1.32c.28,0,.49,0,.68-.03-.02.17-.03.34-.03.57v.66c.29,0,.44,0,.64-.05v.84c-.2-.04-.35-.05-.64-.05v.68c0,.21,0,.4.03.54-.23,0-.4-.02-.63-.02h-1.38v.51h1.4c.31,0,.5,0,.76-.04v.78c-.22-.03-.44-.04-.77-.04h-1.39v.53h1.71c.38,0,.58,0,.8-.04v.85c-.22-.03-.47-.04-.8-.04h-1.71c0,.4,0,.54.04.76h-.99c.04-.23.04-.4.04-.76h-1.3c-.38,0-.55,0-.77.04v-.85c.21.04.45.04.78.04h1.29v-.53h-1.07c-.27,0-.5,0-.72.05v-.79c.23.03.42.04.72.04h1.07v-.51h-1.1c-.24,0-.38,0-.58.03v-.78c.19.03.32.04.63.04h1.04v-.49h-1.39c-.39,0-.55,0-.77.04v-.82c.23.04.35.04.81.04h1.35v-.47Zm2,.47v-.47h-1.1v.47h1.1Zm-1.1,1.22h1.1v-.49h-1.1v.49Z" fill="#231815"/>
      <path d="m144.1,80.93c.29,0,.51,0,.71-.04-.03.23-.04.46-.04.83v.92c0,.14.03.16.21.16.17,0,.22-.02.25-.09.03-.08.06-.43.06-.75v-.1q0-.07,0-.14c.28.15.5.25.77.33-.04,1.36-.17,1.55-1.1,1.55-.43,0-.66-.03-.81-.11-.19-.1-.24-.23-.24-.54v-1.25h-1.36c0,.24,0,.33-.04.5l.52-.37c.37.44.52.64.79,1.05l-.64.48c-.25-.48-.43-.74-.7-1.04-.11.5-.26.79-.61,1.16h.49c-.03.17-.04.29-.04.56h2.58c.47,0,.78-.02,1.08-.05v.93c-.31-.04-.65-.05-1.08-.05h-1.78c.85.58,1.79.93,3.03,1.14-.27.38-.35.53-.52.95-1.47-.42-2.51-.97-3.33-1.75,0,.13.02.32.03.58v.44c0,.41,0,.6.05.81h-1.09c.04-.24.05-.44.05-.81v-.43c0-.14,0-.23.03-.58-.47.43-.86.7-1.46,1.02-.57.3-.97.45-1.75.68-.18-.41-.27-.56-.55-.92,1.23-.24,2.06-.56,3-1.14h-1.66c-.43,0-.75.02-1.07.05v-.93c.24.04.62.05,1.06.05h2.4v-.21c-.14-.19-.4-.42-.65-.61.24-.13.34-.19.5-.32-.54.19-.84.28-1.52.45-.42.11-.67.16-1.12.25q-.31.06-.48.1l-.2-.9c.42-.02.72-.06,1.41-.18v-.84h-.38c-.36,0-.5,0-.74.04v-.85c.13.02.16.02.25.03-.18-.19-.23-.23-.68-.54.76-.61,1.14-1.13,1.38-1.85l.97.18s-.11.19-.28.51h1.16c.43,0,.67,0,.88-.05v.73c.35-.41.62-.94.72-1.38l.95.18c-.04.06-.12.24-.24.53h1.74c.48,0,.68,0,.98-.05v.92c-.28-.04-.54-.04-.94-.04h-.67c.11.15.12.17.31.49l-.7.29h.08Zm-2.87,1.97c.37-.33.5-.73.5-1.49,0-.23,0-.36-.03-.51.14.02.2.02.43.03-.16-.18-.41-.39-.66-.55.12-.1.16-.14.23-.21-.16-.02-.33-.03-.5-.03h-.5c.14.22.18.29.33.58l-.86.23c-.12-.32-.17-.43-.4-.81h-.46c-.28.38-.47.6-.77.88.15,0,.2,0,.37,0h1.6c.42,0,.52,0,.74-.04v.85c-.23-.03-.4-.04-.67-.04h-.41v.66c.39-.09.54-.13.99-.26l.05.69Zm1.16-1.97h1.47c-.09-.23-.2-.45-.4-.77h-.61c-.21.3-.39.51-.64.77h.18Z" fill="#231815"/>
      <path d="m148.03,84.56c-.47,0-.82.02-1.1.05v-1c.31.04.67.06,1.09.06h2.45v-.06c0-.18,0-.34-.03-.5h.39c.39-.2.68-.4,1.06-.73h-2.48c-.37,0-.61,0-.9.04v-.9c.27.04.52.04.91.04h2.98c.35,0,.52,0,.68-.04l.5.55q-.15.13-.32.27c-.64.55-1.1.88-1.8,1.31h0s2.35,0,2.35,0c.44,0,.84-.02,1.11-.06v1c-.26-.04-.65-.05-1.12-.05h-2.34v1.58c0,.31-.03.44-.12.57-.15.23-.46.3-1.27.3-.12,0-.41,0-.88-.04-.1-.48-.14-.63-.3-.95.43.06.84.09,1.12.09.4,0,.46-.03.46-.21v-1.33h-2.44Zm.46-4.45c-.21-.4-.32-.58-.68-1.02l.91-.27c.31.39.52.71.82,1.29h.95c-.15-.42-.3-.74-.55-1.13l.94-.26c.37.69.42.82.62,1.4h.77c.27-.36.58-.93.74-1.35l.97.27c-.21.39-.47.8-.68,1.08h.41c.61,0,.78,0,1.11-.04-.03.23-.04.4-.04.75v.84c0,.24.02.47.04.68h-.98v-1.4h-5.87v1.4h-.98c.04-.21.04-.41.04-.69v-.83c0-.32,0-.51-.04-.75.41.04.46.04,1.06.04h.42Z" fill="#231815"/>
      <path d="m157.32,80.19c-.37.07-.52.09-1.05.16-.09-.37-.15-.53-.34-.86,1.46-.15,2.53-.41,3.07-.77l.56.83s-.04,0-.14.06c-.24.1-.68.24-1.13.37v1.11h.5c.31,0,.48,0,.67-.04v.96c-.21-.04-.41-.04-.68-.04h-.43c.25.51.63.95,1.24,1.4-.2.25-.34.5-.49.88-.44-.48-.62-.74-.85-1.23.02.23.03.62.04,1.17v1.76c0,.51,0,.77.05,1.11h-1.06c.04-.33.05-.64.05-1.11v-1.46c0-.21,0-.47.05-1.14-.29.83-.58,1.38-1.09,2.03-.2-.47-.26-.58-.53-.94.41-.42.7-.85,1.02-1.46.18-.34.35-.76.43-1.02h-.47c-.32,0-.53,0-.79.05v-.98c.26.05.46.05.81.05h.57v-.9Zm4.9-.38c0-.52,0-.77-.05-1.04h1.09c-.04.3-.05.54-.05,1.04v3.88c.51-.12.57-.13.85-.24l.08,1.05c-.24.03-.5.07-.86.15l-.07.02v1.34c0,.5,0,.77.05,1.06h-1.09c.04-.31.05-.52.05-1.07v-1.12l-2.03.45c-.35.08-.65.16-.87.23l-.12-1.04h.05c.24,0,.45-.04.8-.13l2.17-.49v-4.09Zm-2.2,1.7c.8.57,1.13.84,1.7,1.4l-.57.8c-.71-.75-1.04-1.04-1.71-1.48l.58-.72Zm.31-2.25c.87.59,1.24.89,1.74,1.41l-.61.81c-.58-.65-.96-.99-1.7-1.49l.58-.74Z" fill="#231815"/>
      <path d="m141.79,100.29c.08.26.14.38.27.52.25.31.63.46,1.11.46.89,0,1.48-.59,1.48-1.49s-.56-1.45-1.41-1.45c-.44,0-.84.14-1.12.41-.13.13-.19.21-.27.41l-1.13-.11c.09-.64.1-.68.12-.94l.21-2.23c0-.16.03-.47.04-.92.27.02.48.03.95.03h2.21c.62,0,.85,0,1.25-.07v1.13c-.4-.05-.75-.07-1.24-.07h-2.12l-.14,1.58c0,.07-.03.2-.05.38.44-.38.92-.55,1.54-.55.73,0,1.31.22,1.76.68.44.43.64.97.64,1.69,0,1.58-1.04,2.57-2.71,2.57-.89,0-1.56-.25-2.05-.78-.24-.26-.37-.48-.57-.98l1.24-.26Z" fill="#231815"/>
      <path d="m148.08,100.2c.12.41.2.56.42.74.3.23.66.35,1.09.35.89,0,1.46-.46,1.46-1.17,0-.41-.18-.76-.5-.95-.22-.13-.64-.22-1.04-.22s-.66,0-.96.04v-1.12c.29.04.49.04.87.04.9,0,1.43-.41,1.43-1.11,0-.62-.42-.97-1.19-.97-.44,0-.77.1-.98.28-.18.17-.27.32-.38.69l-1.29-.22c.23-.67.43-.98.85-1.29.46-.33,1.04-.5,1.76-.5,1.5,0,2.48.76,2.48,1.93,0,.54-.23,1.04-.62,1.32-.2.15-.4.23-.87.35.64.1.97.25,1.29.6.3.33.43.71.43,1.24,0,.49-.21.98-.54,1.31-.5.48-1.25.73-2.21.73-1.05,0-1.77-.27-2.29-.85-.22-.25-.34-.49-.5-1.01l1.29-.25Z" fill="#231815"/>
    </g>
    <g>
      <path d="m182.49,81.29c-.26,0-.39,0-.58.04v-.86c.21.03.4.05.69.05h.78c.3,0,.5-.02.7-.05v.86c-.18-.03-.31-.04-.5-.04h-.09v1.57c.22,0,.29,0,.47-.03v.8c-.17-.02-.3-.02-.47-.02v1.49c.22-.09.36-.14.78-.33v.82c-.73.34-1.22.55-1.87.78-.13.05-.32.13-.42.18l-.21-.92c.14,0,.38-.07.89-.23v-1.79h-.09c-.22,0-.38,0-.54.03v-.82c.18.03.3.04.56.04h.07v-1.57h-.18Zm6.53,4.18c-.06.06-.09.08-.22.19-.2.18-.37.3-.59.46.45.25.74.37,1.21.49-.15.22-.3.5-.43.8-.62-.25-.97-.43-1.38-.74-.38-.28-.57-.47-.81-.79.02.25.03.38.03.6v.44c0,.29,0,.46.04.65h-.92c.03-.2.04-.35.04-.69v-.43c0-.14,0-.4.02-.56-.51.6-1,.95-2.05,1.46-.14-.29-.29-.49-.53-.73,1.04-.36,1.74-.8,2.3-1.45h-.64c-.26,0-.53,0-.64.02.02-.12.03-.26.03-.5v-.66c0-.22,0-.34-.02-.5.19.02.4.02.67.02h2.9c.32,0,.54,0,.72-.02-.02.14-.02.29-.02.5v.68c0,.22,0,.34.02.48-.1-.02-.13-.02-.27-.02l.53.28Zm-4.88-3.02c.23.04.43.05.77.05h3.53c.33,0,.53,0,.77-.04v.81c-.25-.03-.45-.04-.76-.04h-3.55c-.31,0-.54,0-.76.04v-.82Zm.16-1.55c0-.29,0-.42-.03-.58.18.02.38.03.64.03h3.44c.19,0,.45-.02.64-.03-.02.22-.03.38-.03.57v.77c0,.18,0,.38.02.55-.18,0-.32-.02-.62-.02h-3.45c-.3,0-.4,0-.63.02.02-.14.02-.26.02-.56v-.75Zm1.33.11h-.58v.6h.58v-.6Zm-.33,3.54h2.6v-.39h-2.6v.39Zm1.62-3.54h-.59v.6h.59v-.6Zm.11,4.17c.18.22.3.34.56.54.28-.19.38-.28.63-.54h-1.19Zm1.18-4.17h-.61v.6h.61v-.6Z" fill="#231815"/>
      <path d="m190.69,81.12c0-.39-.02-.65-.05-.89h.93c-.04.25-.05.47-.05.9v1.06c.27,0,.38,0,.55-.02v.83c-.17-.02-.3-.03-.55-.03v1.97c.2-.09.31-.14.7-.32l.03.86c-.54.26-1.05.47-1.93.83-.14.06-.26.1-.37.16l-.18-.93c.21-.03.42-.1.9-.27v-2.29h-.18c-.23,0-.43.02-.63.04v-.86c.21.03.4.04.64.04h.17v-1.07Zm2.49,4.49c-.25,0-.37,0-.69.02.02-.16.02-.28.02-.58v-1.44c0-.28,0-.47-.03-.63.21.02.38.02.76.02h2.79c.37,0,.54,0,.75-.02-.02.18-.03.35-.03.63v1.39c0,.26,0,.46.03.63-.2-.02-.34-.02-.67-.02h-.62v.91c0,.17.04.18.48.18.34,0,.45-.02.5-.1.05-.09.06-.31.06-.78.26.14.47.21.79.28-.08,1.22-.24,1.36-1.42,1.36-.5,0-.77-.03-.96-.12-.21-.09-.26-.21-.26-.51v-1.21h-.56c-.07.54-.22.86-.51,1.18-.38.39-.84.61-1.78.82-.14-.34-.25-.51-.46-.76,1.34-.17,1.85-.48,1.95-1.24h-.14Zm2.97-4.83c.35,0,.63-.02.86-.04v.74c-.27-.02-.41-.03-.82-.03-.11.27-.15.35-.26.55h.46c.42,0,.58,0,.81-.04v.8c-.27-.03-.46-.04-.84-.04h-3.39c-.4,0-.5,0-.74.02v-.78c.26.02.38.03.71.03h.33c-.07-.22-.11-.34-.22-.55-.38,0-.48,0-.7.03v-.74c.25.03.5.04.86.04h.96v-.18c0-.19-.02-.33-.04-.48h.94c-.03.17-.04.27-.04.47v.18h1.1Zm-2.81,3.19h2.58v-.32h-2.58v.32Zm0,.96h2.58v-.35h-2.58v.35Zm1.76-2.93c.1-.22.16-.33.24-.55h-1.42c.08.18.15.37.22.55h.97Z" fill="#231815"/>
      <path d="m199.29,81.7c0,3.48-.15,4.49-.82,5.74-.26-.32-.42-.47-.72-.69.3-.52.42-.84.52-1.39.11-.6.17-1.77.17-3.38,0-.58,0-.85-.03-1.12.26.03.49.04.83.04h2.04v-.35c0-.18,0-.3-.04-.46h.97c-.03.13-.04.25-.04.46v.34h2.07c.44,0,.71-.02.94-.05v.89c-.28-.03-.53-.04-.94-.04h-2.65c1.07.6,1.23.7,2,1.33l-.62.68c-.6-.6-1.06-.93-2.03-1.46l.62-.54h-2.27Zm-.06,4.69c.25-.54.33-.78.43-1.31.1-.5.14-.83.18-1.54l.83.22c-.13,1.48-.25,2.09-.63,3.16l-.81-.52Zm2.74-3.33c-.02.18-.04.42-.04.75v2.51c0,.22.06.25.54.25.63,0,.64-.03.64-1.47.32.14.58.23.85.28-.06,1.1-.14,1.5-.31,1.72-.18.22-.5.31-1.18.31-1.11,0-1.39-.12-1.39-.6v-3.01c0-.36,0-.55-.05-.74h.94Zm2.48,3.7c-.22-1.23-.42-1.87-.92-2.89l.76-.38c.53,1.17.74,1.78,1.02,2.86l-.86.41Z" fill="#231815"/>
      <path d="m207.38,85c-.11,1.06-.35,1.81-.82,2.53-.34-.32-.45-.41-.78-.63.29-.42.47-.84.58-1.35.08-.38.14-.79.16-1.22.04-.67.07-1.81.07-2.75,0-.58,0-.83-.04-1.16.28.02.49.03.92.03h4.49c.45,0,.67,0,.92-.03-.02.27-.03.47-.03.9v5.25c0,.66-.24.83-1.15.83-.25,0-.66-.02-.9-.03-.04-.3-.1-.5-.22-.83.4.04.75.06,1.01.06.33,0,.4-.03.4-.2v-1.4h-1.92v1.31c0,.46,0,.72.04.95h-.94c.03-.24.05-.47.05-.94v-1.32h-1.84Zm1.84-1.89h-1.77c0,.23,0,.39,0,.5,0,.38,0,.43,0,.59h1.78v-1.1Zm0-1.83h-1.74v1.05s1.74,0,1.74,0v-1.05Zm2.77,1.05v-1.05h-1.92v1.05h1.92Zm0,1.88v-1.1h-1.92v1.1h1.92Z" fill="#231815"/>
      <path d="m215.24,81.44c-.33.06-.46.08-.94.14-.08-.33-.14-.47-.3-.77,1.29-.14,2.25-.37,2.73-.68l.5.74s-.03,0-.13.06c-.22.09-.61.22-1.01.33v.98h.44c.27,0,.42,0,.59-.04v.86c-.18-.03-.36-.04-.61-.04h-.38c.22.46.56.84,1.1,1.25-.18.22-.3.45-.43.78-.39-.42-.55-.66-.75-1.1.02.2.02.55.04,1.04v1.57c0,.46,0,.68.05.98h-.94c.03-.3.05-.57.05-.98v-1.3c0-.18,0-.42.05-1.02-.26.74-.51,1.22-.97,1.8-.18-.42-.23-.52-.47-.83.37-.38.62-.75.9-1.3.16-.3.31-.67.38-.9h-.42c-.29,0-.47,0-.7.05v-.87c.23.04.41.05.72.05h.5v-.8Zm4.35-.34c0-.46,0-.68-.05-.93h.97c-.04.26-.05.48-.05.92v3.45c.46-.1.5-.12.75-.22l.07.94c-.22.02-.45.06-.76.14l-.06.02v1.19c0,.45,0,.69.05.94h-.97c.04-.27.05-.46.05-.95v-.99l-1.8.4c-.31.07-.58.14-.78.2l-.1-.93h.04c.22,0,.4-.04.71-.11l1.93-.43v-3.63Zm-1.95,1.51c.71.5,1,.74,1.51,1.24l-.5.71c-.63-.66-.93-.92-1.52-1.31l.51-.64Zm.27-2c.78.53,1.1.79,1.54,1.26l-.54.72c-.51-.58-.86-.88-1.51-1.32l.51-.66Z" fill="#231815"/>
      <path d="m222.98,85.32c-.42,0-.73.02-.98.05v-.89c.27.04.59.06.97.06h2.17v-.06c0-.16,0-.3-.02-.44h.34c.34-.18.61-.35.94-.65h-2.2c-.33,0-.54,0-.8.03v-.8c.24.03.46.04.81.04h2.65c.31,0,.46,0,.61-.03l.44.49q-.14.11-.29.24c-.57.49-.98.78-1.6,1.17h0s2.09,0,2.09,0c.39,0,.74-.02.98-.06v.89c-.23-.03-.58-.05-.99-.05h-2.08v1.4c0,.28-.02.39-.1.5-.14.2-.41.26-1.13.26-.1,0-.37,0-.78-.03-.09-.42-.13-.56-.26-.85.38.06.74.08.99.08.35,0,.41-.02.41-.18v-1.18h-2.17Zm.41-3.95c-.18-.35-.29-.51-.6-.9l.81-.24c.28.34.46.63.73,1.14h.85c-.14-.38-.26-.66-.49-1.01l.83-.23c.33.62.38.73.55,1.24h.68c.24-.32.52-.82.66-1.2l.86.24c-.18.34-.42.71-.6.96h.36c.54,0,.7,0,.98-.03-.02.2-.03.36-.03.66v.74c0,.22.02.42.04.61h-.87v-1.24h-5.21v1.24h-.87c.03-.18.04-.37.04-.62v-.74c0-.29,0-.46-.03-.66.36.03.41.03.94.03h.38Z" fill="#231815"/>
      <path d="m231.24,81.44c-.33.06-.46.08-.94.14-.08-.33-.14-.47-.3-.77,1.29-.14,2.25-.37,2.73-.68l.5.74s-.03,0-.13.06c-.22.09-.61.22-1.01.33v.98h.44c.27,0,.42,0,.59-.04v.86c-.18-.03-.36-.04-.61-.04h-.38c.22.46.56.84,1.1,1.25-.18.22-.3.45-.43.78-.39-.42-.55-.66-.75-1.1.02.2.02.55.04,1.04v1.57c0,.46,0,.68.05.98h-.94c.03-.3.05-.57.05-.98v-1.3c0-.18,0-.42.05-1.02-.26.74-.51,1.22-.97,1.8-.18-.42-.23-.52-.47-.83.37-.38.62-.75.9-1.3.16-.3.31-.67.38-.9h-.42c-.29,0-.47,0-.7.05v-.87c.23.04.41.05.72.05h.5v-.8Zm4.35-.34c0-.46,0-.68-.05-.93h.97c-.04.26-.05.48-.05.92v3.45c.46-.1.5-.12.75-.22l.07.94c-.22.02-.45.06-.76.14l-.06.02v1.19c0,.45,0,.69.05.94h-.97c.04-.27.05-.46.05-.95v-.99l-1.8.4c-.31.07-.58.14-.78.2l-.1-.93h.04c.22,0,.4-.04.71-.11l1.93-.43v-3.63Zm-1.95,1.51c.71.5,1,.74,1.51,1.24l-.5.71c-.63-.66-.93-.92-1.52-1.31l.51-.64Zm.27-2c.78.53,1.1.79,1.54,1.26l-.54.72c-.51-.58-.86-.88-1.51-1.32l.51-.66Z" fill="#231815"/>
      <path d="m205.44,99.3c.07.23.13.34.24.46.22.27.56.41.98.41.79,0,1.31-.53,1.31-1.32s-.5-1.29-1.26-1.29c-.39,0-.74.13-.99.37-.11.11-.17.18-.24.36l-1-.1c.08-.57.09-.61.1-.83l.18-1.98c0-.14.02-.42.03-.82.24.02.42.02.85.02h1.97c.55,0,.75,0,1.11-.06v1.01c-.35-.05-.66-.06-1.1-.06h-1.88l-.13,1.4c0,.06-.02.18-.05.34.39-.34.82-.49,1.37-.49.65,0,1.17.19,1.56.6.39.38.57.86.57,1.5,0,1.41-.92,2.28-2.41,2.28-.79,0-1.38-.22-1.82-.7-.22-.23-.33-.42-.5-.87l1.1-.23Z" fill="#231815"/>
      <path d="m215.06,99.53c-.3-.04-.46-.05-.8-.06h-.29v.57c0,.41.02.62.06.91h-1.14c.05-.28.06-.53.06-.93v-.55h-2.21c-.47,0-.73,0-1,.03v-.98c.27-.3.36-.4.64-.74l1.9-2.32c.35-.42.48-.59.66-.88h1.08c-.05.46-.06.74-.06,1.35v2.62h.28c.32,0,.51-.02.81-.06v1.02Zm-2.09-2.61c0-.38,0-.63.04-.96-.16.23-.26.36-.54.71l-1.54,1.9h2.04v-1.66Z" fill="#231815"/>
    </g>
    <g>
      <path d="m258.26,98.03c-.06.69-.13.96-.29,1.38-.28.67-.63,1.12-1.29,1.61-.21-.31-.31-.42-.5-.58-.18,0-.29,0-.49,0h-1.72v.45h-.93c.04-.27.05-.51.05-.95v-1.78c0-.24,0-.34,0-.73-.25.29-.3.34-.54.54-.12-.31-.22-.52-.41-.79.64-.48,1.11-1,1.49-1.66h-.47c-.35,0-.57.02-.77.04v-.86c.21.04.38.04.66.04h.07c-.14-.13-.43-.3-.74-.41.53-.58.81-1.06,1.01-1.72l.88.2c-.1.23-.13.28-.24.51h1.49c.42,0,.65,0,.87-.05v.86c-.24-.03-.45-.04-.83-.04h-.45c-.09.3-.12.4-.21.65h.92c.32,0,.5,0,.69-.04v.85c-.22-.03-.42-.04-.71-.04h-1.23c-.14.27-.21.4-.43.73h.61c.15-.25.22-.38.31-.65l.78.2c-.1.16-.1.17-.28.45h.25c.35,0,.5,0,.66-.04v.78c-.2-.02-.4-.03-.67-.03h-.35v.46h.25c.37,0,.5,0,.64-.03v.7c-.16-.02-.38-.03-.64-.03h-.25v.46h.24c.37,0,.5,0,.64-.03v.71c-.16-.02-.29-.03-.64-.03h-.24v.51h.26c.44,0,.54,0,.69-.03v.29c.57-.49.87-1.12.94-1.94h-.1c-.22,0-.38,0-.55.03.03-.25.04-.43.04-.94v-3.33c0-.45,0-.63-.04-.89.25.04.49.04.88.04h1.88c.41,0,.64,0,.87-.04-.03.28-.04.54-.04.99v3.23c0,.47,0,.69.04.95-.26-.04-.44-.04-.83-.04h-.09v1.73c0,.13.05.16.27.16.23,0,.31-.03.34-.13s.06-.5.07-1.15c.28.18.54.3.79.36-.07,1.63-.2,1.82-1.3,1.82-.86,0-1.05-.12-1.05-.67v-2.12h-.32Zm-4.23-3.28c.1-.26.14-.39.22-.65h-.59c-.14.25-.23.38-.44.65h.82Zm.69,2.67v-.46h-.77v.46h.77Zm-.77,1.11h.77v-.46h-.77v.46Zm0,1.17h.77v-.51h-.77v.51Zm3.73-5.31h1.76v-.67h-1.76v.67Zm0,1.39h1.76v-.66h-1.76v.66Zm0,1.46h1.76v-.73h-1.76v.73Z" fill="#231815"/>
      <path d="m265.01,93.63c0-.35-.02-.64-.05-.91h1.11c-.04.25-.05.53-.05.91v2.21h2.51c.37,0,.7-.02,1.04-.05v1.01c-.28-.04-.58-.05-1.02-.05h-1.65v2.9c0,.23.06.25.81.25.6,0,.81-.04.88-.2.1-.19.14-.49.16-1.31.4.22.52.26.95.37-.08,1.11-.22,1.56-.53,1.81-.24.2-.58.25-1.65.25-1.39,0-1.59-.11-1.59-.85v-3.22h-1.03c-.03.77-.08,1.13-.25,1.66-.23.78-.62,1.33-1.25,1.81-.42.32-.8.51-1.44.73-.21-.39-.34-.59-.61-.9.92-.24,1.5-.58,1.93-1.13.29-.37.5-.94.59-1.53.03-.18.04-.29.04-.63h-1.29c-.37,0-.68.02-1.01.05v-1.01c.31.04.64.05,1.03.05h2.37v-2.21Zm-2.11-.51c.57.7.85,1.13,1.33,2.05l-.88.51c-.49-.99-.73-1.39-1.32-2.12l.87-.44Zm6.11.41c-.48.95-.89,1.58-1.42,2.23l-.86-.5c.56-.65.93-1.24,1.34-2.16l.94.42Z" fill="#231815"/>
      <path d="m271.97,94.09c-.37.07-.52.09-1.05.16-.09-.37-.15-.53-.34-.86,1.46-.15,2.53-.41,3.07-.77l.56.83s-.04,0-.14.06c-.24.1-.68.24-1.13.37v1.11h.5c.31,0,.48,0,.67-.04v.96c-.21-.04-.41-.04-.68-.04h-.43c.25.51.63.94,1.24,1.4-.2.25-.34.5-.49.88-.44-.48-.62-.74-.85-1.23.02.23.03.62.04,1.17v1.76c0,.51,0,.77.05,1.11h-1.06c.04-.33.05-.64.05-1.11v-1.46c0-.21,0-.47.05-1.14-.29.83-.58,1.38-1.09,2.03-.2-.47-.26-.58-.53-.94.41-.42.7-.85,1.02-1.46.18-.34.35-.76.43-1.02h-.47c-.32,0-.53,0-.79.05v-.98c.26.04.46.05.81.05h.57v-.9Zm4.9-.38c0-.52,0-.77-.05-1.04h1.09c-.04.3-.05.54-.05,1.04v3.88c.51-.12.57-.13.85-.24l.08,1.05c-.24.03-.5.07-.86.15l-.07.02v1.34c0,.5,0,.77.05,1.06h-1.09c.04-.31.05-.52.05-1.07v-1.12l-2.03.45c-.35.08-.65.16-.87.23l-.12-1.04h.05c.24,0,.45-.04.8-.13l2.17-.49v-4.09Zm-2.2,1.7c.8.57,1.13.84,1.7,1.4l-.57.8c-.71-.75-1.04-1.04-1.71-1.48l.58-.72Zm.31-2.25c.87.59,1.24.89,1.74,1.41l-.61.81c-.58-.65-.96-.99-1.7-1.49l.58-.74Z" fill="#231815"/>
      <path d="m280.68,98.46c-.47,0-.82.02-1.1.05v-1c.31.04.67.06,1.09.06h2.45v-.06c0-.18,0-.34-.03-.5h.39c.39-.2.68-.4,1.06-.73h-2.48c-.37,0-.61,0-.9.04v-.9c.27.04.52.04.91.04h2.98c.35,0,.52,0,.68-.04l.5.55q-.15.13-.32.27c-.64.55-1.1.88-1.8,1.31h0s2.35,0,2.35,0c.44,0,.84-.02,1.11-.06v1c-.26-.04-.65-.05-1.12-.05h-2.34v1.58c0,.31-.03.44-.12.57-.15.23-.46.3-1.27.3-.12,0-.41,0-.88-.04-.1-.48-.14-.63-.3-.95.43.06.84.09,1.12.09.4,0,.46-.03.46-.21v-1.33h-2.44Zm.46-4.45c-.21-.4-.32-.58-.68-1.02l.91-.27c.31.39.52.71.82,1.29h.95c-.15-.42-.3-.74-.55-1.13l.94-.26c.37.69.42.82.62,1.4h.77c.27-.36.58-.93.74-1.35l.97.27c-.21.39-.47.8-.68,1.08h.41c.61,0,.78,0,1.11-.04-.03.23-.04.4-.04.75v.84c0,.24.02.47.04.68h-.98v-1.4h-5.87v1.4h-.98c.04-.21.04-.41.04-.69v-.83c0-.32,0-.51-.04-.75.41.04.46.04,1.06.04h.42Z" fill="#231815"/>
      <path d="m289.97,94.09c-.37.07-.52.09-1.05.16-.09-.37-.15-.53-.34-.86,1.46-.15,2.53-.41,3.07-.77l.56.83s-.04,0-.14.06c-.24.1-.68.24-1.13.37v1.11h.5c.31,0,.48,0,.67-.04v.96c-.21-.04-.41-.04-.68-.04h-.43c.25.51.63.94,1.24,1.4-.2.25-.34.5-.49.88-.44-.48-.62-.74-.85-1.23.02.23.03.62.04,1.17v1.76c0,.51,0,.77.05,1.11h-1.06c.04-.33.05-.64.05-1.11v-1.46c0-.21,0-.47.05-1.14-.29.83-.58,1.38-1.09,2.03-.2-.47-.26-.58-.53-.94.41-.42.7-.85,1.02-1.46.18-.34.35-.76.43-1.02h-.47c-.32,0-.53,0-.79.05v-.98c.26.04.46.05.81.05h.57v-.9Zm4.9-.38c0-.52,0-.77-.05-1.04h1.09c-.04.3-.05.54-.05,1.04v3.88c.51-.12.57-.13.85-.24l.08,1.05c-.24.03-.5.07-.86.15l-.07.02v1.34c0,.5,0,.77.05,1.06h-1.09c.04-.31.05-.52.05-1.07v-1.12l-2.03.45c-.35.08-.65.16-.87.23l-.12-1.04h.05c.24,0,.45-.04.8-.13l2.17-.49v-4.09Zm-2.2,1.7c.8.57,1.13.84,1.7,1.4l-.57.8c-.71-.75-1.04-1.04-1.71-1.48l.58-.72Zm.31-2.25c.87.59,1.24.89,1.74,1.41l-.61.81c-.58-.65-.96-.99-1.7-1.49l.58-.74Z" fill="#231815"/>
      <path d="m269.95,114.19c.08.26.14.38.27.52.25.31.63.46,1.11.46.89,0,1.48-.59,1.48-1.49s-.56-1.45-1.41-1.45c-.44,0-.84.14-1.12.41-.13.13-.19.21-.27.41l-1.13-.11c.09-.64.1-.68.12-.94l.21-2.23c0-.16.03-.47.04-.92.27.02.48.03.95.03h2.21c.62,0,.85,0,1.25-.07v1.13c-.4-.05-.75-.07-1.24-.07h-2.12l-.14,1.58c0,.07-.03.2-.05.38.44-.38.92-.55,1.54-.55.73,0,1.31.22,1.76.68.44.43.64.97.64,1.69,0,1.58-1.04,2.57-2.71,2.57-.89,0-1.56-.25-2.05-.78-.24-.26-.37-.48-.57-.98l1.24-.26Z" fill="#231815"/>
      <path d="m276.35,114.19c.08.26.14.38.27.52.25.31.63.46,1.11.46.89,0,1.48-.59,1.48-1.49s-.56-1.45-1.41-1.45c-.44,0-.84.14-1.12.41-.13.13-.19.21-.27.41l-1.13-.11c.09-.64.1-.68.12-.94l.21-2.23c0-.16.03-.47.04-.92.27.02.48.03.95.03h2.21c.62,0,.85,0,1.25-.07v1.13c-.4-.05-.75-.07-1.24-.07h-2.12l-.14,1.58c0,.07-.03.2-.05.38.44-.38.92-.55,1.54-.55.73,0,1.31.22,1.76.68.44.43.64.97.64,1.69,0,1.58-1.04,2.57-2.71,2.57-.89,0-1.56-.25-2.05-.78-.24-.26-.37-.48-.57-.98l1.24-.26Z" fill="#231815"/>
    </g>
    <g>
      <path d="m253.23,187.41c-.46,0-.69,0-.95.05v-.95c.25.04.47.05.95.05h.73v-.86h-.47c-.37,0-.58,0-.85.04v-.93c.24.04.42.05.85.05h.47v-.22c0-.28-.02-.49-.04-.73h1.04c-.04.21-.05.4-.05.73v.22h.19c.32,0,.46,0,.65-.05v.69c.31-.53.49-.92.58-1.23l.8.48c0-.27,0-.35-.04-.58.24.02.42.03.79.03h1.44c.38,0,.55,0,.74-.05l.42.62c-.08.18-.09.2-.14.36-.05.13-.31.74-.4.98-.02.04-.11.24-.25.56-.05.13-.14.32-.25.58.41.52.58.78.77,1.23.17.41.25.78.25,1.13,0,.68-.24,1.13-.73,1.31-.28.12-.53.14-1.22.14-.04-.5-.08-.69-.24-1,.28.02.37.03.48.03.51,0,.72-.14.72-.5,0-.3-.04-.61-.13-.87-.17-.53-.41-.91-.9-1.4.4-.77.68-1.49.93-2.28h-1.27v5.96c0,.49.02.9.05,1.22h-1.06c.04-.25.05-.63.05-1.24v-6.13c-.07.12-.08.14-.15.27-.29.53-.61,1.03-.92,1.42h.08c.28,0,.52-.02.73-.05v.91c-.23-.03-.48-.04-.87-.04h-.65c-.27.3-.42.45-.67.68h1.06c.35,0,.55,0,.74-.04-.02.24-.03.42-.03.96v2.14c0,.41,0,.68.04.93h-.95v-.31h-1.52v.47h-.97c.04-.23.05-.55.05-1v-1.86c-.22.16-.33.23-.62.42-.15-.41-.26-.59-.5-.87.78-.38,1.49-.86,2.2-1.51h-.95Zm.78,2.12h1.53v-.7h-1.53v.7Zm0,1.47h1.53v-.74h-1.53v.74Zm.97-4.42c.27-.31.49-.6.64-.85-.16-.02-.26-.02-.42-.02h-.29v.86h.07Z" fill="#231815"/>
      <path d="m264.74,184.61c0-.26-.03-.52-.05-.67h1.13c-.04.2-.06.41-.06.66v.45h2.55c.49,0,.81-.02,1.13-.06v1.03c-.3-.05-.55-.05-1.11-.05h-5.97c-.42,0-.77.02-1.11.05v-1.03c.35.04.67.06,1.13.06h2.35v-.44Zm0,2.21c0-.23,0-.46-.04-.66h1.08c-.03.11-.04.32-.04.66v.11h2.09c.41,0,.61,0,.88-.04-.03.24-.04.45-.04.77v2.66c0,.81-.26,1.02-1.31,1.02-.21,0-.38,0-.75-.04-.05-.41-.08-.54-.24-.96.4.06.69.09.88.09.37,0,.45-.05.45-.28v-2.34h-1.96v3.34c0,.44.02.75.06,1.11h-1.13c.04-.37.06-.68.06-1.1v-3.35h-1.78v2.58c0,.5,0,.77.05,1.06h-1.11c.04-.34.05-.64.05-1.05v-2.74c0-.28,0-.51-.04-.77.29.03.54.04.93.04h1.89v-.11Z" fill="#231815"/>
      <path d="m278.5,186.27c-.2-.02-.36-.03-.69-.04-.14,1.51-.44,2.54-1.06,3.52.58.66,1.13,1.07,1.9,1.43-.27.35-.39.57-.56,1.02-.79-.47-1.38-.97-1.95-1.67-.63.68-1.22,1.1-2.28,1.67-.18-.39-.31-.57-.61-.89,1.02-.41,1.71-.88,2.32-1.58-.36-.59-.61-1.17-.78-1.8-.22.36-.28.43-.52.71-.14-.25-.24-.39-.45-.59-.16-.02-.26-.02-.54-.02h-.24v1.95c.3-.1.52-.18,1.17-.41l-.02.98c-1.27.47-2.45.84-3.5,1.09-.08.03-.1.03-.24.07q-.07.02-.13.04l-.19-1.09c.25-.03.31-.03.55-.07v-3c0-.53,0-.74-.05-1.04h.98c-.04.32-.04.56-.04,1.04v2.83c.27-.06.33-.08.55-.14v-4.84h-.85c-.29,0-.62.02-.88.05v-.98c.3.04.56.05.93.05h2.17c.4,0,.67-.02.94-.04v.96c-.24-.04-.42-.04-.76-.04h-.61v1.69h.24c.36,0,.5,0,.67-.04v.43c.52-.77.81-1.49,1.06-2.61.1-.42.16-.86.17-1.1l1.03.17c-.04.13-.05.17-.1.37q-.04.22-.24,1.02h1.76c.4,0,.67-.02.89-.05v.96Zm-2.9-.04c-.11.32-.15.44-.25.66.15.77.41,1.42.78,2.04.23-.43.43-1.01.59-1.64.08-.35.11-.57.13-1.06h-1.25Z" fill="#231815"/>
      <path d="m280.69,185.44c-.3.41-.51.63-.91.97-.19-.25-.38-.45-.64-.67.69-.51,1.19-1.17,1.39-1.84l.96.17c-.04.06-.13.24-.29.54h1.21c.35,0,.62-.02.87-.05v.63c.36-.43.57-.81.68-1.29l.96.17q-.18.38-.26.55h1.77c.4,0,.71-.02.99-.05v.93c-.28-.04-.54-.04-.95-.04h-.74c.14.22.25.43.38.68l-.91.24c-.12-.33-.23-.55-.43-.93h-.59c-.2.28-.33.45-.52.64h.14c-.03.15-.04.23-.05.49h2.66c.46,0,.69-.02.96-.06v.94c-.27-.04-.52-.05-.96-.05h-2.66v.45h2.04c.45,0,.73-.02.84-.04-.03.2-.04.43-.04.75v.85c0,.3-.09.5-.26.58-.13.07-.33.1-.67.1-.16,0-.38,0-.63-.03-.02-.28-.05-.44-.18-.78.18.03.43.05.57.05.19,0,.25-.04.25-.17v-.52h-1.93v.32c.41.53,1.08,1.06,1.77,1.43.52.28,1.19.52,1.98.74-.32.36-.51.6-.65.89-.65-.23-1.31-.54-1.76-.83-.29-.17-.5-.33-.82-.61-.27-.23-.36-.32-.57-.6,0,.3.02.41.02.66v.68c.02.52.03.64.08.94h-1.1c.04-.27.07-.54.07-.85v-.76c0-.12,0-.4.02-.63-.37.49-.8.87-1.4,1.25-.45.28-.99.54-1.51.75-.23-.39-.31-.48-.69-.86.64-.19,1.37-.49,1.89-.77.34-.2.68-.43,1.04-.74.3-.24.41-.37.66-.68v-.32h-1.76v.79c0,.34,0,.56.04.73h-1.01c.03-.23.04-.49.04-.83v-.79c0-.28,0-.5-.04-.73.22.03.48.04.78.04h1.94v-.45h-2.46c-.37,0-.68.02-.95.05v-.94c.29.04.55.06.95.06h2.46c0-.24-.02-.33-.04-.49h.6c-.16-.18-.3-.3-.51-.46.1-.08.13-.11.2-.17-.18-.02-.28-.02-.41-.02h-.52c.15.26.21.37.36.68l-.88.25c-.16-.42-.24-.62-.4-.93h-.49Z" fill="#231815"/>
      <path d="m289.72,185.41c-.37.07-.52.09-1.05.16-.09-.37-.15-.53-.34-.86,1.46-.15,2.53-.41,3.07-.77l.56.83s-.04,0-.14.06c-.24.1-.68.24-1.13.37v1.11h.5c.31,0,.48,0,.67-.04v.96c-.21-.04-.41-.04-.68-.04h-.43c.25.51.63.95,1.24,1.4-.2.25-.34.5-.49.88-.44-.48-.62-.74-.85-1.23.02.23.03.62.04,1.17v1.76c0,.51,0,.77.05,1.11h-1.06c.04-.33.05-.64.05-1.11v-1.46c0-.21,0-.47.05-1.14-.29.83-.58,1.38-1.09,2.03-.2-.47-.26-.58-.53-.94.41-.42.7-.85,1.02-1.46.18-.34.35-.76.43-1.02h-.47c-.32,0-.53,0-.79.05v-.98c.26.05.46.05.81.05h.57v-.9Zm4.9-.38c0-.52,0-.77-.05-1.04h1.09c-.04.3-.05.54-.05,1.04v3.88c.51-.12.57-.13.85-.24l.08,1.05c-.24.03-.5.07-.86.15l-.07.02v1.34c0,.5,0,.77.05,1.06h-1.09c.04-.31.05-.52.05-1.07v-1.12l-2.03.45c-.35.08-.65.16-.87.23l-.12-1.04h.05c.24,0,.45-.04.8-.13l2.17-.49v-4.09Zm-2.2,1.7c.8.57,1.13.84,1.7,1.4l-.57.8c-.71-.75-1.04-1.04-1.71-1.48l.58-.72Zm.31-2.25c.87.59,1.24.89,1.74,1.41l-.61.81c-.58-.65-.96-.99-1.7-1.49l.58-.74Z" fill="#231815"/>
      <path d="m298.44,189.77c-.47,0-.82.02-1.1.05v-1c.31.04.67.06,1.09.06h2.45v-.06c0-.18,0-.34-.03-.5h.39c.39-.2.68-.4,1.06-.73h-2.48c-.37,0-.61,0-.9.04v-.9c.27.04.52.04.91.04h2.98c.35,0,.52,0,.68-.04l.5.55q-.15.13-.32.27c-.64.55-1.1.88-1.8,1.31h0s2.35,0,2.35,0c.44,0,.84-.02,1.11-.06v1c-.26-.04-.65-.05-1.12-.05h-2.34v1.58c0,.31-.03.44-.12.57-.15.23-.46.3-1.27.3-.12,0-.41,0-.88-.04-.1-.48-.14-.63-.3-.95.43.06.84.09,1.12.09.4,0,.46-.03.46-.21v-1.33h-2.44Zm.46-4.45c-.21-.4-.32-.58-.68-1.02l.91-.27c.31.39.52.71.82,1.29h.95c-.15-.42-.3-.74-.55-1.13l.94-.26c.37.69.42.82.62,1.4h.77c.27-.36.58-.93.74-1.35l.97.27c-.21.39-.47.8-.68,1.08h.41c.61,0,.78,0,1.11-.04-.03.23-.04.4-.04.75v.84c0,.24.02.47.04.68h-.98v-1.4h-5.87v1.4h-.98c.04-.21.04-.41.04-.69v-.83c0-.32,0-.51-.04-.75.41.04.46.04,1.06.04h.42Z" fill="#231815"/>
      <path d="m307.72,185.41c-.37.07-.52.09-1.05.16-.09-.37-.15-.53-.34-.86,1.46-.15,2.53-.41,3.07-.77l.56.83s-.04,0-.14.06c-.24.1-.68.24-1.13.37v1.11h.5c.31,0,.48,0,.67-.04v.96c-.21-.04-.41-.04-.68-.04h-.43c.25.51.63.95,1.24,1.4-.2.25-.34.5-.49.88-.44-.48-.62-.74-.85-1.23.02.23.03.62.04,1.17v1.76c0,.51,0,.77.05,1.11h-1.06c.04-.33.05-.64.05-1.11v-1.46c0-.21,0-.47.05-1.14-.29.83-.58,1.38-1.09,2.03-.2-.47-.26-.58-.53-.94.41-.42.7-.85,1.02-1.46.18-.34.35-.76.43-1.02h-.47c-.32,0-.53,0-.79.05v-.98c.26.05.46.05.81.05h.57v-.9Zm4.9-.38c0-.52,0-.77-.05-1.04h1.09c-.04.3-.05.54-.05,1.04v3.88c.51-.12.57-.13.85-.24l.08,1.05c-.24.03-.5.07-.86.15l-.07.02v1.34c0,.5,0,.77.05,1.06h-1.09c.04-.31.05-.52.05-1.07v-1.12l-2.03.45c-.35.08-.65.16-.87.23l-.12-1.04h.05c.24,0,.45-.04.8-.13l2.17-.49v-4.09Zm-2.2,1.7c.8.57,1.13.84,1.7,1.4l-.57.8c-.71-.75-1.04-1.04-1.71-1.48l.58-.72Zm.31-2.25c.87.59,1.24.89,1.74,1.41l-.61.81c-.58-.65-.96-.99-1.7-1.49l.58-.74Z" fill="#231815"/>
      <path d="m278.7,205.51c.08.26.14.38.27.52.25.31.63.46,1.11.46.89,0,1.48-.59,1.48-1.49s-.56-1.45-1.41-1.45c-.44,0-.84.14-1.12.41-.13.13-.19.21-.27.41l-1.13-.11c.09-.64.1-.68.12-.94l.21-2.23c0-.16.03-.47.04-.92.27.02.48.03.95.03h2.21c.62,0,.85,0,1.25-.07v1.13c-.4-.05-.75-.07-1.24-.07h-2.12l-.14,1.58c0,.07-.03.2-.05.38.44-.38.92-.55,1.54-.55.73,0,1.31.22,1.76.68.44.43.64.97.64,1.69,0,1.58-1.04,2.57-2.71,2.57-.89,0-1.56-.25-2.05-.78-.24-.26-.37-.48-.57-.98l1.24-.26Z" fill="#231815"/>
      <path d="m287.95,201.96c-.23-.66-.57-.91-1.21-.91s-1.11.31-1.41.94c-.23.47-.32.9-.37,1.59.49-.66,1.02-.9,1.93-.9s1.69.4,2.09,1.07c.22.35.32.82.32,1.35,0,1.42-1.08,2.43-2.61,2.43-.72,0-1.39-.22-1.83-.59-.67-.58-1.04-1.66-1.04-3.02,0-1.11.28-2.17.74-2.78.53-.72,1.25-1.07,2.2-1.07.77,0,1.41.23,1.85.68.23.24.37.45.57.92l-1.22.29Zm-2.81,3.14c0,.82.64,1.42,1.52,1.42.52,0,.98-.23,1.23-.63.13-.21.21-.5.21-.82,0-.89-.53-1.41-1.42-1.41s-1.54.61-1.54,1.44Z" fill="#231815"/>
    </g>
  </g>
</svg>