<?xml version="1.0" encoding="UTF-8"?>
<svg xmlns="http://www.w3.org/2000/svg" width="660" height="490" viewBox="0 0 660 490">
  <g id="_背景" data-name="背景">
    <polyline id="base" points="0 0 660 0 660 490 0 490" fill="#dcdddd"/>
  </g>
  <g id="_廊下" data-name="廊下">
    <g id="_階段" data-name="階段">
      <polyline points="341.79 448.33 333.43 423.54 343.86 420.02 352.1 444.47" fill="none" stroke="#283331" stroke-miterlimit="10"/>
      <line x1="338.24" y1="437.81" x2="348.67" y2="434.29" fill="none" stroke="#283331" stroke-miterlimit="10" stroke-width=".25"/>
      <line x1="338.87" y1="439.68" x2="349.3" y2="436.16" fill="none" stroke="#283331" stroke-miterlimit="10" stroke-width=".25"/>
      <line x1="339.5" y1="441.54" x2="349.93" y2="438.02" fill="none" stroke="#283331" stroke-miterlimit="10" stroke-width=".25"/>
      <line x1="340.13" y1="443.4" x2="350.55" y2="439.89" fill="none" stroke="#283331" stroke-miterlimit="10" stroke-width=".25"/>
      <line x1="340.76" y1="445.27" x2="351.18" y2="441.75" fill="none" stroke="#283331" stroke-miterlimit="10" stroke-width=".25"/>
      <line x1="351.81" y1="443.62" x2="341.39" y2="447.13" fill="none" stroke="#283331" stroke-miterlimit="10" stroke-width=".25"/>
      <line x1="337.61" y1="435.93" x2="348.04" y2="432.42" fill="none" stroke="#283331" stroke-miterlimit="10" stroke-width=".25"/>
      <line x1="337.03" y1="434.21" x2="347.45" y2="430.69" fill="none" stroke="#283331" stroke-miterlimit="10" stroke-width=".25"/>
      <line x1="336.43" y1="432.43" x2="346.85" y2="428.91" fill="none" stroke="#283331" stroke-miterlimit="10" stroke-width=".25"/>
      <line x1="335.84" y1="430.67" x2="346.26" y2="427.16" fill="none" stroke="#283331" stroke-miterlimit="10" stroke-width=".25"/>
      <line x1="335.23" y1="428.87" x2="345.65" y2="425.36" fill="none" stroke="#283331" stroke-miterlimit="10" stroke-width=".25"/>
      <line x1="334.58" y1="426.93" x2="345" y2="423.42" fill="none" stroke="#283331" stroke-miterlimit="10" stroke-width=".25"/>
      <line x1="333.98" y1="425.16" x2="344.4" y2="421.64" fill="none" stroke="#283331" stroke-miterlimit="10" stroke-width=".25"/>
    </g>
    <polyline points="388.08 143.35 388.08 127.8 550.65 127.8 566.12 127.8 566.12 112.3 550.62 112.3 550.65 38 643.03 38 643.03 411.82 584.29 411.82 584.29 451.11 392.19 451.11 392.19 423.42 324.98 423.42 324.98 451.11 237.33 451.11 237.33 395.5 324.98 395.5 324.98 412.79 392.38 412.79 392.38 395.54 621.09 395.54 621.09 137.22 507.14 137.22 507.14 143.35 388.08 143.35" fill="#b5b5b6" stroke="#283331" stroke-miterlimit="10"/>
    <polyline points="57.29 164.02 57.29 145.86 115.74 145.86 115.74 127.8 243.08 127.8 243.08 143.35 507.14 143.35 507.14 395.5 237.33 395.5 237.33 425.61 115.74 425.61 115.74 164.02 57.29 164.02" fill="#b5b5b6" stroke="#283331" stroke-miterlimit="10"/>
    <polyline points="490.04 329.56 490.04 164.02 357.63 164.02 243.08 164.02 243.08 177.67 179.41 177.67 149.09 177.67 149.09 372.9 237.33 372.9 237.33 329.56 476.51 329.56" fill="#dcdddd" stroke="#283331" stroke-miterlimit="10"/>
    <g id="_矢印" data-name="矢印">
      <path d="m424.79,152.43l4-3.84-2.94-.06.29-14.71-1.96-.04-.29,14.71-2.94-.06,3.84,4Z" fill="#040000"/>
      <path d="m425.2,132.05l-4,3.84,2.94.06-.29,14.71,1.96.04.29-14.71,2.94.06-3.84-4Z" fill="#040000"/>
    </g>
    <g id="_矢印-2" data-name="矢印">
      <path d="m314.8,405.69l4-3.84-2.94-.06.29-14.71-1.96-.04-.29,14.71-2.94-.06,3.84,4Z" fill="#040000"/>
      <path d="m315.2,385.31l-4,3.84,2.94.06-.29,14.71,1.96.04.29-14.71,2.94.06-3.84-4Z" fill="#040000"/>
    </g>
    <g id="_矢印-3" data-name="矢印">
      <path d="m227.18,414.79l3.84,4,.06-2.94,14.71.29.04-1.96-14.71-.29.06-2.94-4,3.84Z" fill="#040000"/>
      <path d="m247.56,415.19l-3.84-4-.06,2.94-14.71-.29-.04,1.96,14.71.29-.06,2.94,4-3.84Z" fill="#040000"/>
    </g>
    <polyline points="585.6 38 585.6 127.8 643.03 127.8 643.03 38 585.6 38" fill="#dcdddd" stroke="#283331" stroke-miterlimit="10"/>
    <line x1="643.03" y1="38" x2="585.6" y2="127.8" fill="none" stroke="#283331" stroke-miterlimit="10" stroke-width=".25"/>
    <line x1="585.6" y1="38.49" x2="643.03" y2="127.8" fill="none" stroke="#283331" stroke-miterlimit="10" stroke-width=".25"/>
  </g>
  <g id="_男性用トイレ" data-name="男性用トイレ">
    <polyline points="388.08 127.8 406.45 127.8 406.45 38 388.08 38 388.08 127.8" fill="#54c3f1" stroke="#283331" stroke-miterlimit="10"/>
  </g>
  <g id="_女性用トイレ" data-name="女性用トイレ">
    <polyline points="370.42 143.35 388.08 143.35 388.08 38 370.42 38 370.42 143.35" fill="#f19899" stroke="#283331" stroke-miterlimit="10"/>
    <polygon points="621.09 411.9 584.29 411.82 584.29 451.11 621.09 451.11 621.09 411.9" fill="#f19899" stroke="#283331" stroke-miterlimit="10"/>
  </g>
  <g id="_使用不可能教室等" data-name="使用不可能教室等">
    <rect x="324.98" y="164.02" width="32.65" height="74.19" fill="#929292" stroke="#283331" stroke-miterlimit="10"/>
    <polyline points="115.74 293.77 16.97 293.77 16.97 452 115.74 452 115.74 293.77" fill="#929292" stroke="#283331" stroke-miterlimit="10"/>
    <rect x="507.14" y="137.22" width="113.95" height="10.11" fill="#929292" stroke="#283331" stroke-miterlimit="10"/>
    <rect id="_4-7-ri_room220" data-name="4-7-ri_room220" x="507.14" y="147.33" width="113.95" height="74.79" fill="#929292" stroke="#283331" stroke-miterlimit="10"/>
    <rect id="_4-7-ri_room230" data-name="4-7-ri_room230" x="507.14" y="221.63" width="113.95" height="99.6" fill="#929292" stroke="#283331" stroke-miterlimit="10"/>
    <rect id="_4-7-ri_room210" data-name="4-7-ri_room210" x="406.49" y="38" width="144.16" height="89.8" fill="#929292" stroke="#283331" stroke-miterlimit="10"/>
    <rect id="_4-7-ri_room206" data-name="4-7-ri_room206" x="306.75" y="66.82" width="63.67" height="76.53" fill="#929292" stroke="#283331" stroke-miterlimit="10"/>
    <rect id="_4-7-ri_room208" data-name="4-7-ri_room208" x="243.08" y="164.02" width="81.9" height="74.19" fill="#929292" stroke="#283331" stroke-miterlimit="10"/>
    <rect id="_4-7-ri_room240" data-name="4-7-ri_room240" x="507.14" y="320.75" width="113.95" height="74.79" fill="#929292" stroke="#283331" stroke-miterlimit="10"/>
    <rect id="_4-7-ri_room209" data-name="4-7-ri_room209" x="179.41" y="177.67" width="63.67" height="68.45" fill="#929292" stroke="#283331" stroke-miterlimit="10"/>
    <rect id="_4-7-ri_room205" data-name="4-7-ri_room205" x="243.08" y="66.82" width="63.67" height="76.53" fill="#929292" stroke="#283331" stroke-miterlimit="10"/>
  </g>
  <g id="_階段-2" data-name="階段">
    <g>
      <polygon points="160.96 155.17 166.16 168.43 179.12 168.43 179.12 155.17 160.96 155.17" fill="#5c5a5a"/>
      <polyline points="148.01 168.43 179.12 168.43 179.12 155.17 147.57 155.17" fill="none" stroke="#283331" stroke-miterlimit="10"/>
      <line x1="160.96" y1="155.17" x2="160.96" y2="168.43" fill="none" stroke="#283331" stroke-miterlimit="10" stroke-width=".25"/>
      <line x1="158.58" y1="155.17" x2="158.58" y2="168.43" fill="none" stroke="#283331" stroke-miterlimit="10" stroke-width=".25"/>
      <line x1="156.21" y1="155.17" x2="156.21" y2="168.43" fill="none" stroke="#283331" stroke-miterlimit="10" stroke-width=".25"/>
      <line x1="153.84" y1="155.17" x2="153.84" y2="168.43" fill="none" stroke="#283331" stroke-miterlimit="10" stroke-width=".25"/>
      <line x1="151.47" y1="155.17" x2="151.47" y2="168.43" fill="none" stroke="#283331" stroke-miterlimit="10" stroke-width=".25"/>
      <line x1="149.09" y1="155.17" x2="149.09" y2="168.43" fill="none" stroke="#283331" stroke-miterlimit="10" stroke-width=".25"/>
    </g>
    <g>
      <polygon points="643.03 423 632.03 427.32 632.03 438.07 643.03 438.07 643.03 423" fill="#5c5a5a"/>
      <polyline points="632.03 412.27 632.03 438.07 643.03 438.07 643.03 411.9" fill="none" stroke="#283331" stroke-miterlimit="10"/>
      <line x1="643.03" y1="423" x2="632.03" y2="423" fill="none" stroke="#283331" stroke-miterlimit="10" stroke-width=".25"/>
      <line x1="643.03" y1="421.04" x2="632.03" y2="421.04" fill="none" stroke="#283331" stroke-miterlimit="10" stroke-width=".25"/>
      <line x1="643.03" y1="419.07" x2="632.03" y2="419.07" fill="none" stroke="#283331" stroke-miterlimit="10" stroke-width=".25"/>
      <line x1="643.03" y1="417.1" x2="632.03" y2="417.1" fill="none" stroke="#283331" stroke-miterlimit="10" stroke-width=".25"/>
      <line x1="643.03" y1="415.13" x2="632.03" y2="415.13" fill="none" stroke="#283331" stroke-miterlimit="10" stroke-width=".25"/>
      <line x1="632.03" y1="413.17" x2="643.03" y2="413.17" fill="none" stroke="#283331" stroke-miterlimit="10" stroke-width=".25"/>
    </g>
    <g>
      <polyline points="632.1 411.9 632.1 438.07 621.09 438.07 621.09 412.27" fill="none" stroke="#283331" stroke-miterlimit="10"/>
      <line x1="632.1" y1="423" x2="621.09" y2="423" fill="none" stroke="#283331" stroke-miterlimit="10" stroke-width=".25"/>
      <line x1="632.1" y1="421.04" x2="621.09" y2="421.04" fill="none" stroke="#283331" stroke-miterlimit="10" stroke-width=".25"/>
      <line x1="632.1" y1="419.07" x2="621.09" y2="419.07" fill="none" stroke="#283331" stroke-miterlimit="10" stroke-width=".25"/>
      <line x1="632.1" y1="417.1" x2="621.09" y2="417.1" fill="none" stroke="#283331" stroke-miterlimit="10" stroke-width=".25"/>
      <line x1="632.1" y1="415.13" x2="621.09" y2="415.13" fill="none" stroke="#283331" stroke-miterlimit="10" stroke-width=".25"/>
      <line x1="621.09" y1="413.17" x2="632.1" y2="413.17" fill="none" stroke="#283331" stroke-miterlimit="10" stroke-width=".25"/>
      <line x1="632.1" y1="424.98" x2="621.09" y2="424.98" fill="none" stroke="#283331" stroke-miterlimit="10" stroke-width=".25"/>
      <line x1="632.1" y1="426.81" x2="621.09" y2="426.81" fill="none" stroke="#283331" stroke-miterlimit="10" stroke-width=".25"/>
      <line x1="632.1" y1="428.68" x2="621.09" y2="428.68" fill="none" stroke="#283331" stroke-miterlimit="10" stroke-width=".25"/>
      <line x1="632.1" y1="430.54" x2="621.09" y2="430.54" fill="none" stroke="#283331" stroke-miterlimit="10" stroke-width=".25"/>
      <line x1="632.1" y1="432.44" x2="621.09" y2="432.44" fill="none" stroke="#283331" stroke-miterlimit="10" stroke-width=".25"/>
      <line x1="632.1" y1="434.48" x2="621.09" y2="434.48" fill="none" stroke="#283331" stroke-miterlimit="10" stroke-width=".25"/>
      <line x1="632.1" y1="436.36" x2="621.09" y2="436.36" fill="none" stroke="#283331" stroke-miterlimit="10" stroke-width=".25"/>
    </g>
    <g>
      <polyline points="136.57 452 136.57 425.84 147.57 425.84 147.57 451.63" fill="none" stroke="#283331" stroke-miterlimit="10"/>
      <line x1="136.57" y1="440.9" x2="147.57" y2="440.9" fill="none" stroke="#283331" stroke-miterlimit="10" stroke-width=".25"/>
      <line x1="136.57" y1="442.87" x2="147.57" y2="442.87" fill="none" stroke="#283331" stroke-miterlimit="10" stroke-width=".25"/>
      <line x1="136.57" y1="444.83" x2="147.57" y2="444.83" fill="none" stroke="#283331" stroke-miterlimit="10" stroke-width=".25"/>
      <line x1="136.57" y1="446.8" x2="147.57" y2="446.8" fill="none" stroke="#283331" stroke-miterlimit="10" stroke-width=".25"/>
      <line x1="136.57" y1="448.77" x2="147.57" y2="448.77" fill="none" stroke="#283331" stroke-miterlimit="10" stroke-width=".25"/>
      <line x1="147.57" y1="450.74" x2="136.57" y2="450.74" fill="none" stroke="#283331" stroke-miterlimit="10" stroke-width=".25"/>
      <line x1="136.57" y1="438.92" x2="147.57" y2="438.92" fill="none" stroke="#283331" stroke-miterlimit="10" stroke-width=".25"/>
      <line x1="136.57" y1="437.1" x2="147.57" y2="437.1" fill="none" stroke="#283331" stroke-miterlimit="10" stroke-width=".25"/>
      <line x1="136.57" y1="435.22" x2="147.57" y2="435.22" fill="none" stroke="#283331" stroke-miterlimit="10" stroke-width=".25"/>
      <line x1="136.57" y1="433.37" x2="147.57" y2="433.37" fill="none" stroke="#283331" stroke-miterlimit="10" stroke-width=".25"/>
      <line x1="136.57" y1="431.47" x2="147.57" y2="431.47" fill="none" stroke="#283331" stroke-miterlimit="10" stroke-width=".25"/>
      <line x1="136.57" y1="429.42" x2="147.57" y2="429.42" fill="none" stroke="#283331" stroke-miterlimit="10" stroke-width=".25"/>
      <line x1="136.57" y1="427.54" x2="147.57" y2="427.54" fill="none" stroke="#283331" stroke-miterlimit="10" stroke-width=".25"/>
    </g>
    <g>
      <polyline points="147.68 141.7 179.01 141.7 179.01 154.88 148.12 154.88" fill="none" stroke="#283331" stroke-miterlimit="10"/>
      <line x1="160.97" y1="141.7" x2="160.97" y2="154.88" fill="none" stroke="#283331" stroke-miterlimit="10" stroke-width=".25"/>
      <line x1="158.62" y1="141.7" x2="158.62" y2="154.88" fill="none" stroke="#283331" stroke-miterlimit="10" stroke-width=".25"/>
      <line x1="156.26" y1="141.7" x2="156.26" y2="154.88" fill="none" stroke="#283331" stroke-miterlimit="10" stroke-width=".25"/>
      <line x1="153.9" y1="141.7" x2="153.9" y2="154.88" fill="none" stroke="#283331" stroke-miterlimit="10" stroke-width=".25"/>
      <line x1="151.55" y1="141.7" x2="151.55" y2="154.88" fill="none" stroke="#283331" stroke-miterlimit="10" stroke-width=".25"/>
      <line x1="149.19" y1="154.88" x2="149.19" y2="141.7" fill="none" stroke="#283331" stroke-miterlimit="10" stroke-width=".25"/>
      <line x1="163.34" y1="141.7" x2="163.34" y2="154.88" fill="none" stroke="#283331" stroke-miterlimit="10" stroke-width=".25"/>
      <line x1="165.53" y1="141.7" x2="165.53" y2="154.88" fill="none" stroke="#283331" stroke-miterlimit="10" stroke-width=".25"/>
      <line x1="167.77" y1="141.7" x2="167.77" y2="154.88" fill="none" stroke="#283331" stroke-miterlimit="10" stroke-width=".25"/>
      <line x1="169.99" y1="141.7" x2="169.99" y2="154.88" fill="none" stroke="#283331" stroke-miterlimit="10" stroke-width=".25"/>
      <line x1="172.27" y1="141.7" x2="172.27" y2="154.88" fill="none" stroke="#283331" stroke-miterlimit="10" stroke-width=".25"/>
      <line x1="174.72" y1="141.7" x2="174.72" y2="154.88" fill="none" stroke="#283331" stroke-miterlimit="10" stroke-width=".25"/>
      <line x1="176.97" y1="141.7" x2="176.97" y2="154.88" fill="none" stroke="#283331" stroke-miterlimit="10" stroke-width=".25"/>
    </g>
    <g>
      <polyline points="476.87 330.2 476.87 298.87 490.04 298.87 490.04 329.76" fill="none" stroke="#283331" stroke-miterlimit="10"/>
      <line x1="476.87" y1="316.9" x2="490.04" y2="316.9" fill="none" stroke="#283331" stroke-miterlimit="10" stroke-width=".25"/>
      <line x1="476.87" y1="319.26" x2="490.04" y2="319.26" fill="none" stroke="#283331" stroke-miterlimit="10" stroke-width=".25"/>
      <line x1="476.87" y1="321.62" x2="490.04" y2="321.62" fill="none" stroke="#283331" stroke-miterlimit="10" stroke-width=".25"/>
      <line x1="476.87" y1="323.97" x2="490.04" y2="323.97" fill="none" stroke="#283331" stroke-miterlimit="10" stroke-width=".25"/>
      <line x1="476.87" y1="326.33" x2="490.04" y2="326.33" fill="none" stroke="#283331" stroke-miterlimit="10" stroke-width=".25"/>
      <line x1="490.04" y1="328.69" x2="476.87" y2="328.69" fill="none" stroke="#283331" stroke-miterlimit="10" stroke-width=".25"/>
      <line x1="476.87" y1="314.53" x2="490.04" y2="314.53" fill="none" stroke="#283331" stroke-miterlimit="10" stroke-width=".25"/>
      <line x1="476.87" y1="312.35" x2="490.04" y2="312.35" fill="none" stroke="#283331" stroke-miterlimit="10" stroke-width=".25"/>
      <line x1="476.87" y1="310.1" x2="490.04" y2="310.1" fill="none" stroke="#283331" stroke-miterlimit="10" stroke-width=".25"/>
      <line x1="476.87" y1="307.88" x2="490.04" y2="307.88" fill="none" stroke="#283331" stroke-miterlimit="10" stroke-width=".25"/>
      <line x1="476.87" y1="305.61" x2="490.04" y2="305.61" fill="none" stroke="#283331" stroke-miterlimit="10" stroke-width=".25"/>
      <line x1="476.87" y1="303.16" x2="490.04" y2="303.16" fill="none" stroke="#283331" stroke-miterlimit="10" stroke-width=".25"/>
      <line x1="476.87" y1="300.91" x2="490.04" y2="300.91" fill="none" stroke="#283331" stroke-miterlimit="10" stroke-width=".25"/>
    </g>
    <g>
      <polygon points="550.65 61.94 568.12 55.09 568.12 38.02 550.65 38.02 550.65 61.94" fill="#5c5a5a"/>
      <polyline points="568.12 78.99 568.12 38.02 550.65 38.02 550.65 79.57" fill="none" stroke="#283331" stroke-miterlimit="10"/>
      <line x1="550.65" y1="61.94" x2="568.12" y2="61.94" fill="none" stroke="#283331" stroke-miterlimit="10" stroke-width=".25"/>
      <line x1="550.65" y1="65.06" x2="568.12" y2="65.06" fill="none" stroke="#283331" stroke-miterlimit="10" stroke-width=".25"/>
      <line x1="550.65" y1="68.19" x2="568.12" y2="68.19" fill="none" stroke="#283331" stroke-miterlimit="10" stroke-width=".25"/>
      <line x1="550.65" y1="71.31" x2="568.12" y2="71.31" fill="none" stroke="#283331" stroke-miterlimit="10" stroke-width=".25"/>
      <line x1="550.65" y1="74.44" x2="568.12" y2="74.44" fill="none" stroke="#283331" stroke-miterlimit="10" stroke-width=".25"/>
      <line x1="550.65" y1="77.56" x2="568.12" y2="77.56" fill="none" stroke="#283331" stroke-miterlimit="10" stroke-width=".25"/>
    </g>
    <g>
      <polyline points="568.12 79.55 568.12 38 585.6 38 585.6 78.97" fill="none" stroke="#283331" stroke-miterlimit="10"/>
      <line x1="568.12" y1="61.92" x2="585.6" y2="61.92" fill="none" stroke="#283331" stroke-miterlimit="10" stroke-width=".25"/>
      <line x1="568.12" y1="65.04" x2="585.6" y2="65.04" fill="none" stroke="#283331" stroke-miterlimit="10" stroke-width=".25"/>
      <line x1="568.12" y1="68.17" x2="585.6" y2="68.17" fill="none" stroke="#283331" stroke-miterlimit="10" stroke-width=".25"/>
      <line x1="568.12" y1="71.29" x2="585.6" y2="71.29" fill="none" stroke="#283331" stroke-miterlimit="10" stroke-width=".25"/>
      <line x1="568.12" y1="74.42" x2="585.6" y2="74.42" fill="none" stroke="#283331" stroke-miterlimit="10" stroke-width=".25"/>
      <line x1="585.6" y1="77.54" x2="568.12" y2="77.54" fill="none" stroke="#283331" stroke-miterlimit="10" stroke-width=".25"/>
      <line x1="568.12" y1="58.77" x2="585.6" y2="58.77" fill="none" stroke="#283331" stroke-miterlimit="10" stroke-width=".25"/>
      <line x1="568.12" y1="55.88" x2="585.6" y2="55.88" fill="none" stroke="#283331" stroke-miterlimit="10" stroke-width=".25"/>
      <line x1="568.12" y1="52.9" x2="585.6" y2="52.9" fill="none" stroke="#283331" stroke-miterlimit="10" stroke-width=".25"/>
      <line x1="568.12" y1="49.96" x2="585.6" y2="49.96" fill="none" stroke="#283331" stroke-miterlimit="10" stroke-width=".25"/>
      <line x1="568.12" y1="46.94" x2="585.6" y2="46.94" fill="none" stroke="#283331" stroke-miterlimit="10" stroke-width=".25"/>
      <line x1="568.12" y1="43.69" x2="585.6" y2="43.69" fill="none" stroke="#283331" stroke-miterlimit="10" stroke-width=".25"/>
      <line x1="568.12" y1="40.71" x2="585.6" y2="40.71" fill="none" stroke="#283331" stroke-miterlimit="10" stroke-width=".25"/>
    </g>
  </g>
  <g id="_トイレマーク" data-name="トイレマーク">
    <g id="_男女" data-name="男女">
      <path d="m397.46,78.47c1.77,0,3.21-1.44,3.21-3.21s-1.44-3.21-3.21-3.21-3.21,1.44-3.21,3.21,1.44,3.21,3.21,3.21Z" fill="#fff"/>
      <path d="m400.46,80.26h-6.02c-.68,0-1.31.34-1.69.91-.37.57-.44,1.28-.17,1.91l4.4,10.36c.08.19.26.31.47.31s.39-.12.47-.31l4.4-10.36c.27-.62.2-1.34-.17-1.91-.37-.57-1.01-.91-1.69-.91Z" fill="#fff"/>
    </g>
    <g id="_男女-2" data-name="男女">
      <path d="m602.69,426.11c1.77,0,3.21-1.44,3.21-3.21s-1.44-3.21-3.21-3.21-3.21,1.44-3.21,3.21,1.44,3.21,3.21,3.21Z" fill="#fff"/>
      <path d="m607.56,438.57l-4.4-10.36c-.08-.19-.26-.31-.47-.31s-.39.12-.47.31l-4.4,10.36c-.27.62-.2,1.34.17,1.91.37.57,1.01.91,1.69.91h6.02c.68,0,1.31-.34,1.69-.91.37-.57.44-1.28.17-1.91Z" fill="#fff"/>
    </g>
    <g id="_男女-3" data-name="男女">
      <path d="m378.76,78.58c1.77,0,3.21-1.44,3.21-3.21s-1.44-3.21-3.21-3.21-3.21,1.44-3.21,3.21,1.44,3.21,3.21,3.21Z" fill="#fff"/>
      <path d="m383.63,91.03l-4.4-10.36c-.08-.19-.26-.31-.47-.31s-.39.12-.47.31l-4.4,10.36c-.27.62-.2,1.34.17,1.91.37.57,1.01.91,1.69.91h6.02c.68,0,1.31-.34,1.69-.91.37-.57.44-1.28.17-1.91Z" fill="#fff"/>
    </g>
  </g>
  <g id="MLOC-available">
    <rect id="4-7-ri_room204" data-name="4-7-ri_room204" x="179.41" y="51.27" width="63.67" height="76.53" fill="#aaddf7" stroke="#283331" stroke-miterlimit="10"/>
    <rect id="4-7-ri_room203" data-name="4-7-ri_room203" x="115.74" y="51.27" width="63.67" height="76.53" fill="#aaddf7" stroke="#283331" stroke-miterlimit="10"/>
    <rect id="4-7-ri_room201" data-name="4-7-ri_room201" x="57.29" y="164.02" width="58.44" height="82.1" fill="#aaddf7" stroke="#283331" stroke-miterlimit="10"/>
    <rect id="4-7-ri_room202" data-name="4-7-ri_room202" x="57.29" y="66.82" width="58.44" height="79.04" fill="#aaddf7" stroke="#283331" stroke-miterlimit="10"/>
  </g>
  <g id="MNOINT-word">
    <g>
      <path d="m66.09,196.89c.3,0,.52,0,.64-.03v.92c-.15-.02-.33-.03-.64-.03h-.67c.18.22.39.37.88.64-.27.29-.31.35-.58.82-.5-.42-.64-.57-.89-.95.02.21.03.33.03.41v.36c0,.13.01.25.04.37h-1.07c.02-.11.03-.22.03-.33v-.38c0-.09,0-.25.03-.43-.54.73-.86,1.04-1.63,1.57-.22-.37-.33-.51-.65-.83.8-.41,1.27-.77,1.6-1.25h-.54c-.36,0-.61,0-.83.05v-.96c.23.04.46.05.84.05h1.19v-1.18c0-.31,0-.48-.05-.68h1.09c-.03.19-.04.36-.04.66v1.2h1.22Zm-.51,6.8c-.37-.29-.51-.38-.93-.61-.63.57-1.22.86-2.39,1.19-.15-.35-.3-.62-.52-.92.9-.19,1.43-.39,1.98-.74-.5-.22-.77-.33-1.48-.59.32-.44.41-.57.65-.99h-.29c-.36,0-.56,0-.79.05v-1.01c.22.04.42.05.79.05h.75c.1-.23.14-.35.26-.71l1.04.2c-.09.25-.13.32-.21.51h1.58c.35,0,.55-.01.74-.05v1.01c-.21-.04-.38-.05-.81-.05-.2.63-.29.84-.6,1.28.4.19.47.23.81.45l-.58.93Zm-2.64-8.56c.38.55.5.79.7,1.32l-.88.33c-.2-.56-.36-.87-.67-1.33l.85-.32Zm1.02,5.9c-.14.24-.17.29-.35.56.42.15.55.2.85.33.21-.28.35-.54.45-.89h-.95Zm2.71-5.55c-.38.77-.45.89-.76,1.35l-.85-.38c.32-.44.54-.85.71-1.34l.9.37Zm4.35,2.27c-.2-.03-.31-.03-.7-.04-.08,1.66-.39,2.83-1.02,3.92.54.69,1.12,1.17,1.9,1.56-.23.31-.4.62-.58,1.06-.75-.44-1.43-1.04-1.95-1.72-.64.73-1.4,1.34-2.27,1.79-.2-.52-.29-.68-.54-1,.43-.21.56-.28.79-.43.58-.38,1.03-.78,1.42-1.25-.47-.85-.66-1.4-.84-2.35-.18.28-.25.38-.46.66-.22-.29-.44-.51-.72-.72.62-.78,1.04-1.67,1.35-2.88.13-.47.23-1.07.24-1.36l1.1.22c-.04.12-.06.21-.14.55-.06.26-.15.6-.26.99h1.74c.48,0,.7-.01.94-.05v1.05Zm-3.01-.04q-.08.18-.13.31c.16,1.07.37,1.78.8,2.63.39-.84.57-1.69.62-2.94h-1.29Z" fill="#231815"/>
      <path d="m72.5,196.5c-.32,0-.5,0-.75.05v-1.08c.24.04.5.06.91.06h1.41c.4,0,.64,0,.89-.06v1.07c-.25-.03-.46-.04-.74-.04h-.3v1.95h.23c.26,0,.41,0,.63-.05v1.02c-.2-.03-.4-.04-.63-.04h-.23v1.97c.42-.18.54-.23.98-.45l.03,1.06c-.87.43-1.26.6-2.81,1.23-.05.02-.1.04-.2.08l-.27-1.13c.34-.07.55-.14,1.23-.38v-2.38h-.33c-.29,0-.45,0-.68.05v-1.03c.24.04.39.05.7.05h.31v-1.95h-.38Zm4.83,5.44h-1.11c-.57,0-.78,0-1.04.04v-1.02c.25.04.45.05,1.03.05h1.12v-.82h-.95c-.67,0-.9,0-1.2.03q.02-.23.04-1.24v-2.26c0-.68,0-1.01-.05-1.34.38.04.7.05,1.35.05h2.76c.74,0,1.04-.01,1.29-.05-.03.29-.04.76-.04,1.37v2.13c0,.7.01,1.05.04,1.34-.33-.03-.49-.03-1.09-.03h-1.15v.82h1.28c.55,0,.77,0,1.06-.05v1.03c-.29-.04-.54-.05-1.05-.05h-1.29v1.03h1.61c.53,0,.79,0,1.06-.05v1.07c-.32-.04-.59-.05-1.13-.05h-4.21c-.53,0-.79.01-1.13.05v-1.07c.27.04.49.05,1.01.05h1.79v-1.03Zm-1.11-5.54v1h1.11v-1h-1.11Zm0,1.84v1.01h1.11v-1.01h-1.11Zm2.11-.84h1.16v-1h-1.16v1Zm0,1.85h1.16v-1.01h-1.16v1.01Z" fill="#231815"/>
      <path d="m83.43,196.65c-.41.08-.58.1-1.17.18-.1-.41-.17-.59-.38-.96,1.62-.17,2.81-.46,3.41-.85l.62.92s-.04,0-.16.07c-.27.11-.76.27-1.26.41v1.23h.55c.34,0,.53,0,.74-.05v1.07c-.23-.04-.45-.05-.76-.05h-.48c.28.57.7,1.05,1.38,1.56-.22.28-.38.56-.54.98-.49-.53-.69-.82-.94-1.37.02.25.03.69.05,1.3v1.96c0,.57.01.85.06,1.23h-1.18c.04-.37.06-.71.06-1.23v-1.62c0-.23.01-.52.06-1.27-.32.92-.64,1.53-1.21,2.25-.22-.52-.29-.65-.59-1.04.46-.47.78-.94,1.13-1.62.2-.38.39-.84.48-1.13h-.52c-.36,0-.59,0-.88.06v-1.09c.29.05.51.06.9.06h.63v-1Zm5.44-.42c0-.58,0-.85-.06-1.16h1.21c-.05.33-.06.6-.06,1.15v4.31c.57-.13.63-.15.94-.27l.09,1.17c-.27.03-.56.08-.95.17l-.08.02v1.49c0,.56,0,.86.06,1.18h-1.21c.05-.34.06-.58.06-1.19v-1.24l-2.25.5c-.39.09-.72.18-.97.25l-.13-1.16h.05c.27,0,.5-.05.89-.14l2.41-.54v-4.54Zm-2.44,1.89c.89.63,1.25.93,1.89,1.55l-.63.89c-.79-.83-1.16-1.15-1.9-1.64l.64-.8Zm.34-2.5c.97.66,1.38.99,1.93,1.57l-.68.9c-.64-.72-1.07-1.1-1.89-1.65l.64-.82Z" fill="#231815"/>
      <path d="m93.11,201.5c-.52,0-.91.02-1.22.06v-1.11c.34.05.74.07,1.21.07h2.72v-.07c0-.2,0-.38-.03-.55h.43c.43-.22.76-.44,1.18-.81h-2.75c-.41,0-.68,0-1,.04v-1c.3.04.58.05,1.01.05h3.31c.39,0,.58-.01.76-.04l.55.61q-.17.14-.36.3c-.71.61-1.22.98-2,1.46h0s2.61.01,2.61.01c.49,0,.93-.02,1.23-.07v1.11c-.29-.04-.72-.06-1.24-.06h-2.6v1.75c0,.35-.03.49-.13.63-.17.25-.51.33-1.41.33-.13,0-.46-.01-.98-.04-.11-.53-.16-.7-.33-1.06.48.07.93.1,1.24.1.44,0,.51-.03.51-.23v-1.48h-2.71Zm.51-4.94c-.23-.44-.36-.64-.75-1.13l1.01-.3c.35.43.58.79.91,1.43h1.06c-.17-.47-.33-.82-.61-1.26l1.04-.29c.41.77.47.91.69,1.55h.85c.3-.4.65-1.03.82-1.5l1.08.3c-.23.43-.52.89-.75,1.2h.45c.68,0,.87,0,1.23-.04-.03.25-.04.45-.04.83v.93c0,.27.02.52.05.76h-1.09v-1.55h-6.52v1.55h-1.09c.04-.23.05-.46.05-.77v-.92c0-.36-.01-.57-.04-.83.45.04.51.04,1.18.04h.47Z" fill="#231815"/>
      <path d="m103.43,196.65c-.41.08-.58.1-1.17.18-.1-.41-.17-.59-.38-.96,1.62-.17,2.81-.46,3.41-.85l.62.92s-.04,0-.16.07c-.27.11-.76.27-1.26.41v1.23h.55c.34,0,.53,0,.74-.05v1.07c-.23-.04-.45-.05-.76-.05h-.48c.28.57.7,1.05,1.38,1.56-.22.28-.38.56-.54.98-.49-.53-.69-.82-.94-1.37.02.25.03.69.05,1.3v1.96c0,.57.01.85.06,1.23h-1.18c.04-.37.06-.71.06-1.23v-1.62c0-.23.01-.52.06-1.27-.32.92-.64,1.53-1.21,2.25-.22-.52-.29-.65-.59-1.04.46-.47.78-.94,1.13-1.62.2-.38.39-.84.48-1.13h-.52c-.36,0-.59,0-.88.06v-1.09c.29.05.51.06.9.06h.63v-1Zm5.44-.42c0-.58,0-.85-.06-1.16h1.21c-.05.33-.06.6-.06,1.15v4.31c.57-.13.63-.15.94-.27l.09,1.17c-.27.03-.56.08-.95.17l-.08.02v1.49c0,.56,0,.86.06,1.18h-1.21c.05-.34.06-.58.06-1.19v-1.24l-2.25.5c-.39.09-.72.18-.97.25l-.13-1.16h.05c.27,0,.5-.05.89-.14l2.41-.54v-4.54Zm-2.44,1.89c.89.63,1.25.93,1.89,1.55l-.63.89c-.79-.83-1.16-1.15-1.9-1.64l.64-.8Zm.34-2.5c.97.66,1.38.99,1.93,1.57l-.68.9c-.64-.72-1.07-1.1-1.89-1.65l.64-.82Z" fill="#231815"/>
      <path d="m86.09,219.27c-.37-.05-.58-.06-1-.07h-.36v.71c0,.51.02.77.08,1.14h-1.42c.06-.35.08-.66.08-1.16v-.69h-2.77c-.59,0-.91.01-1.25.04v-1.23c.34-.37.45-.5.8-.92l2.37-2.9c.44-.53.6-.74.83-1.1h1.35c-.06.58-.07.93-.07,1.69v3.28h.35c.4,0,.64-.02,1.01-.07v1.28Zm-2.61-3.27c0-.47.01-.79.05-1.2-.2.29-.32.45-.68.89l-1.92,2.38h2.55v-2.07Z" fill="#231815"/>
      <path d="m89.3,221.05c.06-.39.08-.78.08-1.3v-5.51h-.48c-.37,0-.66.02-1.03.06v-1.27c.31.05.53.06,1,.06h.92c.51,0,.66,0,1.02-.05-.06.59-.08,1.05-.08,1.65v5.06c0,.53.02.89.08,1.3h-1.51Z" fill="#231815"/>
    </g>
    <g>
      <path d="m134.51,86.16c0-.35,0-.45.02-1.12-.23.36-.64.88-1.03,1.3-.2-.59-.23-.64-.53-1.18.64-.65.97-1.08,1.4-1.78.53-.88.9-1.8,1.01-2.48l1.17.34c-.09.2-.13.31-.22.55-.23.64-.27.73-.72,1.74v5.37c0,.41.02.86.06,1.28h-1.23c.05-.44.07-.82.07-1.3v-2.72Zm3.96,2.41c0,.27.18.33.98.33.9,0,1.26-.06,1.39-.22.17-.23.23-.62.28-1.83.39.19.73.31,1.08.39-.08,1.24-.22,1.9-.46,2.2-.31.38-.86.49-2.48.49s-1.92-.17-1.92-1.08v-6.59c0-.5-.02-.91-.06-1.2h1.25c-.04.3-.06.68-.06,1.2v2.23c1.15-.61,2.18-1.42,2.73-2.15l.87.88c-.08.06-.12.1-.22.18-1.09.98-2.03,1.63-3.38,2.34v2.83Z" fill="#231815"/>
      <path d="m144.41,87.43c-.52,0-.91.02-1.22.06v-1.11c.34.05.74.07,1.21.07h2.72v-.07c0-.2,0-.38-.03-.55h.43c.43-.22.76-.44,1.18-.81h-2.75c-.41,0-.68,0-1,.04v-1c.3.04.58.05,1.01.05h3.31c.39,0,.58-.01.76-.04l.55.61q-.17.14-.36.3c-.71.61-1.22.98-2,1.46h0s2.61.01,2.61.01c.49,0,.93-.02,1.23-.07v1.11c-.29-.04-.72-.06-1.24-.06h-2.6v1.75c0,.35-.03.49-.13.63-.17.25-.51.33-1.41.33-.13,0-.46-.01-.98-.04-.11-.53-.16-.7-.33-1.06.48.07.93.1,1.24.1.44,0,.51-.03.51-.23v-1.48h-2.71Zm.51-4.94c-.23-.44-.36-.64-.75-1.13l1.01-.3c.35.43.58.79.91,1.43h1.06c-.17-.47-.33-.82-.61-1.26l1.04-.29c.41.77.47.91.69,1.55h.85c.3-.4.65-1.03.82-1.5l1.08.3c-.23.43-.52.89-.75,1.2h.45c.68,0,.87,0,1.23-.04-.03.25-.04.45-.04.83v.93c0,.27.02.52.05.76h-1.09v-1.55h-6.52v1.55h-1.09c.04-.23.05-.46.05-.77v-.92c0-.36-.01-.57-.04-.83.45.04.51.04,1.18.04h.47Z" fill="#231815"/>
      <path d="m154.73,82.59c-.41.08-.58.1-1.17.18-.1-.41-.17-.59-.38-.96,1.62-.17,2.81-.46,3.41-.85l.62.92s-.04,0-.16.07c-.27.11-.76.27-1.26.41v1.23h.55c.34,0,.53,0,.74-.05v1.07c-.23-.04-.45-.05-.76-.05h-.48c.28.57.7,1.05,1.38,1.56-.22.28-.38.56-.54.98-.49-.53-.69-.82-.94-1.37.02.25.03.69.05,1.3v1.96c0,.57.01.85.06,1.23h-1.18c.04-.37.06-.71.06-1.23v-1.62c0-.23.01-.52.06-1.27-.32.92-.64,1.53-1.21,2.25-.22-.52-.29-.65-.59-1.04.46-.47.78-.94,1.13-1.62.2-.38.39-.84.48-1.13h-.52c-.36,0-.59,0-.88.06v-1.09c.29.05.51.06.9.06h.63v-1Zm5.44-.42c0-.58,0-.85-.06-1.16h1.21c-.05.33-.06.6-.06,1.15v4.31c.57-.13.63-.15.94-.27l.09,1.17c-.27.03-.56.08-.95.17l-.08.02v1.49c0,.56,0,.86.06,1.18h-1.21c.05-.34.06-.58.06-1.19v-1.24l-2.25.5c-.39.09-.72.18-.97.25l-.13-1.16h.05c.27,0,.5-.05.89-.14l2.41-.54v-4.54Zm-2.44,1.89c.89.63,1.25.93,1.89,1.55l-.63.89c-.79-.83-1.16-1.15-1.9-1.64l.64-.8Zm.34-2.5c.97.66,1.38.99,1.93,1.57l-.68.9c-.64-.72-1.07-1.1-1.89-1.65l.64-.82Z" fill="#231815"/>
      <path d="m147.39,105.2c-.37-.05-.58-.06-1-.07h-.36v.71c0,.51.02.77.08,1.14h-1.42c.06-.35.08-.66.08-1.16v-.69h-2.77c-.59,0-.91.01-1.25.04v-1.23c.34-.37.45-.5.8-.92l2.37-2.9c.44-.53.6-.74.83-1.1h1.35c-.06.58-.07.93-.07,1.69v3.28h.35c.4,0,.64-.02,1.01-.07v1.28Zm-2.61-3.27c0-.47.01-.79.05-1.2-.2.29-.32.45-.68.89l-1.92,2.38h2.55v-2.07Z" fill="#231815"/>
      <path d="m149.47,104.81c.13.46.22.62.47.82.33.26.73.39,1.21.39.99,0,1.62-.51,1.62-1.3,0-.46-.2-.84-.56-1.05-.24-.14-.71-.24-1.15-.24s-.73,0-1.07.05v-1.24c.32.04.54.05.97.05,1,0,1.59-.46,1.59-1.23,0-.69-.47-1.08-1.32-1.08-.49,0-.85.11-1.09.31-.2.19-.3.36-.42.77l-1.43-.24c.25-.74.48-1.09.95-1.43.51-.37,1.16-.55,1.96-.55,1.67,0,2.75.84,2.75,2.14,0,.6-.26,1.15-.69,1.47-.22.17-.44.25-.97.39.71.11,1.08.28,1.43.67.33.37.48.79.48,1.38,0,.54-.23,1.09-.6,1.46-.55.53-1.39.81-2.46.81-1.17,0-1.97-.3-2.54-.95-.25-.28-.38-.54-.56-1.12l1.43-.28Z" fill="#231815"/>
    </g>
    <g>
      <path d="m75.03,96.73c.42,0,.65,0,.83-.04q-.04.31-.06,1.26c-.07,3.4-.2,4.91-.47,5.6-.23.6-.66.83-1.54.83-.22,0-.47-.02-.96-.06,0-.42-.08-.75-.26-1.13.51.11.91.16,1.24.16.4,0,.55-.21.66-.92.17-1.08.26-2.71.29-4.73h-.12c-.28,1.64-.59,2.65-1.07,3.62-.6,1.21-1.3,2.04-2.6,3.07-.23-.36-.4-.53-.84-.82,1.23-.81,1.99-1.64,2.6-2.84.46-.93.74-1.82.96-3.03h-.41c-.5,1.96-1.32,3.3-2.68,4.38-.19-.37-.37-.58-.74-.87.55-.34.81-.57,1.18-1.01.61-.73.99-1.47,1.28-2.5h-.47c-.34.71-.7,1.25-1.19,1.76-.31-.38-.5-.55-.83-.76.24-.22.34-.32.48-.48-.2-.02-.33-.02-.56-.02h-.24v1.87c.35-.12.5-.17.94-.37v1c-.46.2-.6.26-.94.4v2.27c0,.42.02.77.06,1.15h-1.18c.05-.35.07-.71.07-1.15v-1.89c-.41.15-.71.25-.9.31-.27.09-.33.12-.53.21l-.23-1.19c.46-.03.7-.09,1.66-.39v-2.22h-.5c-.09.56-.18.94-.38,1.62-.33-.27-.53-.38-.91-.54.19-.45.26-.73.38-1.39.08-.5.13-1,.13-1.41,0-.15,0-.24-.02-.42l1,.11c-.04.6-.05.65-.08,1.02h.38v-1.13c0-.31-.02-.54-.07-.82h1.18c-.04.26-.06.49-.06.82v1.13h.24c.32,0,.48-.01.65-.05v.96c.29-.4.52-.83.71-1.31.25-.62.4-1.13.44-1.54l1.16.2q-.08.21-.32.91c-.03.09-.07.2-.13.37h2.77Z" fill="#231815"/>
      <path d="m77.59,96.74c-.32,0-.5,0-.75.05v-1.08c.24.04.5.06.91.06h1.41c.4,0,.64,0,.89-.06v1.07c-.25-.03-.46-.04-.74-.04h-.3v1.95h.23c.26,0,.41,0,.63-.05v1.02c-.2-.03-.4-.04-.63-.04h-.23v1.97c.42-.18.54-.23.98-.45l.03,1.06c-.87.43-1.26.6-2.81,1.23-.05.02-.1.04-.2.08l-.27-1.13c.34-.07.55-.14,1.23-.38v-2.38h-.33c-.29,0-.45,0-.68.05v-1.03c.24.04.39.05.7.05h.31v-1.95h-.38Zm4.83,5.44h-1.11c-.57,0-.78,0-1.04.04v-1.02c.25.04.45.05,1.03.05h1.12v-.82h-.95c-.67,0-.9,0-1.2.03q.02-.23.04-1.24v-2.26c0-.68,0-1.01-.05-1.34.38.04.7.05,1.35.05h2.76c.74,0,1.04-.01,1.29-.05-.03.29-.04.76-.04,1.37v2.13c0,.7.01,1.05.04,1.34-.33-.03-.49-.03-1.09-.03h-1.15v.82h1.28c.55,0,.77,0,1.06-.05v1.03c-.29-.04-.54-.05-1.05-.05h-1.29v1.03h1.61c.53,0,.79,0,1.06-.05v1.07c-.32-.04-.59-.05-1.13-.05h-4.21c-.53,0-.79.01-1.13.05v-1.07c.27.04.49.05,1.01.05h1.79v-1.03Zm-1.11-5.54v1h1.11v-1h-1.11Zm0,1.84v1.01h1.11v-1.01h-1.11Zm2.11-.84h1.16v-1h-1.16v1Zm0,1.85h1.16v-1.01h-1.16v1.01Z" fill="#231815"/>
      <path d="m88.2,101.75c-.52,0-.91.02-1.22.06v-1.11c.34.05.74.07,1.21.07h2.72v-.07c0-.2,0-.38-.03-.55h.43c.43-.22.76-.44,1.18-.81h-2.75c-.41,0-.68,0-1,.04v-1c.3.04.58.05,1.01.05h3.31c.39,0,.58-.01.76-.04l.55.61q-.17.14-.36.3c-.71.61-1.22.98-2,1.46h0s2.61.01,2.61.01c.49,0,.93-.02,1.23-.07v1.11c-.29-.04-.72-.06-1.24-.06h-2.6v1.75c0,.35-.03.49-.13.63-.17.25-.51.33-1.41.33-.13,0-.46-.01-.98-.04-.11-.53-.16-.7-.33-1.06.48.07.93.1,1.24.1.44,0,.51-.03.51-.23v-1.48h-2.71Zm.51-4.94c-.23-.44-.36-.64-.75-1.13l1.01-.3c.35.43.58.79.91,1.43h1.06c-.17-.47-.33-.82-.61-1.26l1.04-.29c.41.77.47.91.69,1.55h.85c.3-.4.65-1.03.82-1.5l1.08.3c-.23.43-.52.89-.75,1.2h.45c.68,0,.87,0,1.23-.04-.03.25-.04.45-.04.83v.93c0,.27.02.52.05.76h-1.09v-1.55h-6.52v1.55h-1.09c.04-.23.05-.46.05-.77v-.92c0-.36-.01-.57-.04-.83.45.04.51.04,1.18.04h.47Z" fill="#231815"/>
      <path d="m98.52,96.9c-.41.08-.58.1-1.17.18-.1-.41-.17-.59-.38-.96,1.62-.17,2.81-.46,3.41-.85l.62.92s-.04,0-.16.07c-.27.11-.76.27-1.26.41v1.23h.55c.34,0,.53,0,.74-.05v1.07c-.23-.04-.45-.05-.76-.05h-.48c.28.57.7,1.05,1.38,1.56-.22.28-.38.56-.54.98-.49-.53-.69-.82-.94-1.37.02.25.03.69.05,1.3v1.96c0,.57.01.85.06,1.23h-1.18c.04-.37.06-.71.06-1.23v-1.62c0-.23.01-.52.06-1.27-.32.92-.64,1.53-1.21,2.25-.22-.52-.29-.65-.59-1.04.46-.47.78-.94,1.13-1.62.2-.38.39-.84.48-1.13h-.52c-.36,0-.59,0-.88.06v-1.09c.29.05.51.06.9.06h.63v-1Zm5.44-.42c0-.58,0-.85-.06-1.16h1.21c-.05.33-.06.6-.06,1.15v4.31c.57-.13.63-.15.94-.27l.09,1.17c-.27.03-.56.08-.95.17l-.08.02v1.49c0,.56,0,.86.06,1.18h-1.21c.05-.34.06-.58.06-1.19v-1.24l-2.25.5c-.39.09-.72.18-.97.25l-.13-1.16h.05c.27,0,.5-.05.89-.14l2.41-.54v-4.54Zm-2.44,1.89c.89.63,1.25.93,1.89,1.55l-.63.89c-.79-.83-1.16-1.15-1.9-1.64l.64-.8Zm.34-2.5c.97.66,1.38.99,1.93,1.57l-.68.9c-.64-.72-1.07-1.1-1.89-1.65l.64-.82Z" fill="#231815"/>
      <path d="m86.18,119.52c-.37-.05-.58-.06-1-.07h-.36v.71c0,.51.02.77.08,1.14h-1.42c.06-.35.08-.66.08-1.16v-.69h-2.77c-.59,0-.91.01-1.25.04v-1.23c.34-.37.45-.5.8-.92l2.37-2.9c.44-.53.6-.74.83-1.1h1.35c-.06.58-.07.93-.07,1.69v3.28h.35c.4,0,.64-.02,1.01-.07v1.28Zm-2.61-3.27c0-.47.01-.79.05-1.2-.2.29-.32.45-.68.89l-1.92,2.38h2.55v-2.07Z" fill="#231815"/>
      <path d="m88.25,121.3c-.78,0-.94,0-1.29.05.06-.57.13-.92.26-1.28.27-.73.72-1.37,1.37-1.96.35-.31.65-.54,1.65-1.21.92-.63,1.2-.96,1.2-1.47,0-.68-.53-1.1-1.38-1.1-.58,0-1.02.2-1.27.59-.17.24-.24.46-.31.92l-1.43-.17c.14-.76.32-1.17.69-1.6.5-.58,1.29-.89,2.29-.89,1.75,0,2.83.84,2.83,2.21,0,.66-.22,1.14-.71,1.6-.28.26-.38.34-1.68,1.23-.44.31-.94.73-1.19,1-.3.32-.42.52-.57.9h2.8c.63,0,1.13-.03,1.46-.08v1.32c-.47-.04-.87-.06-1.51-.06h-3.21Z" fill="#231815"/>
    </g>
    <g>
      <path d="m188.75,84.09c-.41.86-.81,1.46-1.36,2.1-.26-.38-.49-.62-.82-.85.75-.76,1.35-1.81,1.69-2.92.13-.43.18-.64.22-.93l1.14.28q-.02.08-.09.26c-.03.07-.03.08-.1.33-.05.15-.14.4-.27.75h1.63v-.76c0-.52-.02-.83-.07-1.2h1.28c-.04.33-.06.66-.06,1.19v.77h2.08c.51,0,.94-.02,1.35-.06v1.1c-.43-.04-.84-.06-1.32-.06h-2.11v1.84h1.73c.5,0,.9-.02,1.23-.06v1.1c-.36-.04-.76-.06-1.23-.06h-1.73v2.12h2.4c.57,0,.99-.02,1.39-.07v1.14c-.47-.05-.83-.07-1.36-.07h-6.12c-.52,0-.95.02-1.42.07v-1.14c.43.05.86.07,1.39.07h2.57v-2.12h-1.54c-.47,0-.87.02-1.21.06v-1.1c.32.04.65.06,1.2.06h1.55v-1.84h-2.04Z" fill="#231815"/>
      <path d="m199.01,83.94c-.77.5-1,.63-1.91,1.04-.2-.42-.35-.63-.68-.96,1.03-.41,1.74-.78,2.42-1.27.74-.53,1.21-.97,1.72-1.62h1.21c.52.67,1.03,1.13,1.8,1.64.82.53,1.5.85,2.49,1.18-.33.39-.43.55-.69,1.06-.67-.29-1.34-.66-1.91-1.03v.57c-.25-.03-.49-.04-.9-.04h-2.67c-.34,0-.6,0-.88.04v-.61Zm-.57,5.76h-1.08c.04-.34.05-.6.05-1.02v-2.67c0-.39-.01-.6-.03-.86.23.02.42.03.85.03h1.67c.41,0,.63,0,.89-.03-.02.26-.03.51-.03.91v2.53c0,.4,0,.62.03.92h-1.05v-.4h-1.3v.59Zm0-1.55h1.3v-2.01h-1.3v2.01Zm4.11-4.57h.34c-.63-.46-1.16-.94-1.69-1.55-.54.66-.98,1.07-1.65,1.55h3Zm-1.12,2.58c0-.42,0-.71-.03-1.01.23.03.48.04.91.04h1.89c.45,0,.71-.01.9-.04-.03.3-.04.56-.04.99v2.31c0,.51-.08.73-.33.89-.18.12-.51.18-.97.18-.02,0-.21,0-.49-.01-.04,0-.11,0-.2,0-.02-.41-.08-.68-.23-1.03.36.04.64.06.86.06.24,0,.3-.06.3-.28v-2.1h-1.52v3.2c0,.46.02.8.06,1.07h-1.16c.03-.33.05-.67.05-1.14v-3.12Z" fill="#231815"/>
      <path d="m208.34,82.75c-.41.08-.58.1-1.17.18-.1-.41-.17-.59-.38-.96,1.62-.17,2.81-.46,3.41-.85l.62.92s-.04,0-.16.07c-.27.11-.76.27-1.26.41v1.23h.55c.34,0,.53,0,.74-.05v1.07c-.23-.04-.45-.05-.76-.05h-.48c.28.57.7,1.05,1.38,1.56-.22.28-.38.56-.54.98-.49-.53-.69-.82-.94-1.37.02.25.03.69.05,1.3v1.96c0,.57.01.85.06,1.23h-1.18c.04-.37.06-.71.06-1.23v-1.62c0-.23.01-.52.06-1.27-.32.92-.64,1.53-1.21,2.25-.22-.52-.29-.65-.59-1.04.46-.47.78-.94,1.13-1.62.2-.38.39-.84.48-1.13h-.52c-.36,0-.59,0-.88.06v-1.09c.29.05.51.06.9.06h.63v-1Zm5.44-.42c0-.58,0-.85-.06-1.16h1.21c-.05.33-.06.6-.06,1.15v4.31c.57-.13.63-.15.94-.27l.09,1.17c-.27.03-.56.08-.95.17l-.08.02v1.49c0,.56,0,.86.06,1.18h-1.21c.05-.34.06-.58.06-1.19v-1.24l-2.25.5c-.39.09-.72.18-.97.25l-.13-1.16h.05c.27,0,.5-.05.89-.14l2.41-.54v-4.54Zm-2.44,1.89c.89.63,1.25.93,1.89,1.55l-.63.89c-.79-.83-1.16-1.15-1.9-1.64l.64-.8Zm.34-2.5c.97.66,1.38.99,1.93,1.57l-.68.9c-.64-.72-1.07-1.1-1.89-1.65l.64-.82Z" fill="#231815"/>
      <path d="m218.02,87.6c-.52,0-.91.02-1.22.06v-1.11c.34.05.74.07,1.21.07h2.72v-.07c0-.2,0-.38-.03-.55h.43c.43-.22.76-.44,1.18-.81h-2.75c-.41,0-.68,0-1,.04v-1c.3.04.58.05,1.01.05h3.31c.39,0,.58-.01.76-.04l.55.61q-.17.14-.36.3c-.71.61-1.22.98-2,1.46h0s2.61.01,2.61.01c.49,0,.93-.02,1.23-.07v1.11c-.29-.04-.72-.06-1.24-.06h-2.6v1.75c0,.35-.03.49-.13.63-.17.25-.51.33-1.41.33-.13,0-.46-.01-.98-.04-.11-.53-.16-.7-.33-1.06.48.07.93.1,1.24.1.44,0,.51-.03.51-.23v-1.48h-2.71Zm.51-4.94c-.23-.44-.36-.64-.75-1.13l1.01-.3c.35.43.58.79.91,1.43h1.06c-.17-.47-.33-.82-.61-1.26l1.04-.29c.41.77.47.91.69,1.55h.85c.3-.4.65-1.03.82-1.5l1.08.3c-.23.43-.52.89-.75,1.2h.45c.68,0,.87,0,1.23-.04-.03.25-.04.45-.04.83v.93c0,.27.02.52.05.76h-1.09v-1.55h-6.52v1.55h-1.09c.04-.23.05-.46.05-.77v-.92c0-.36-.01-.57-.04-.83.45.04.51.04,1.18.04h.47Z" fill="#231815"/>
      <path d="m228.34,82.75c-.41.08-.58.1-1.17.18-.1-.41-.17-.59-.38-.96,1.62-.17,2.81-.46,3.41-.85l.62.92s-.04,0-.16.07c-.27.11-.76.27-1.26.41v1.23h.55c.34,0,.53,0,.74-.05v1.07c-.23-.04-.45-.05-.76-.05h-.48c.28.57.7,1.05,1.38,1.56-.22.28-.38.56-.54.98-.49-.53-.69-.82-.94-1.37.02.25.03.69.05,1.3v1.96c0,.57.01.85.06,1.23h-1.18c.04-.37.06-.71.06-1.23v-1.62c0-.23.01-.52.06-1.27-.32.92-.64,1.53-1.21,2.25-.22-.52-.29-.65-.59-1.04.46-.47.78-.94,1.13-1.62.2-.38.39-.84.48-1.13h-.52c-.36,0-.59,0-.88.06v-1.09c.29.05.51.06.9.06h.63v-1Zm5.44-.42c0-.58,0-.85-.06-1.16h1.21c-.05.33-.06.6-.06,1.15v4.31c.57-.13.63-.15.94-.27l.09,1.17c-.27.03-.56.08-.95.17l-.08.02v1.49c0,.56,0,.86.06,1.18h-1.21c.05-.34.06-.58.06-1.19v-1.24l-2.25.5c-.39.09-.72.18-.97.25l-.13-1.16h.05c.27,0,.5-.05.89-.14l2.41-.54v-4.54Zm-2.44,1.89c.89.63,1.25.93,1.89,1.55l-.63.89c-.79-.83-1.16-1.15-1.9-1.64l.64-.8Zm.34-2.5c.97.66,1.38.99,1.93,1.57l-.68.9c-.64-.72-1.07-1.1-1.89-1.65l.64-.82Z" fill="#231815"/>
      <path d="m211,105.37c-.37-.05-.58-.06-1-.07h-.36v.71c0,.51.02.77.08,1.14h-1.42c.06-.35.08-.66.08-1.16v-.69h-2.77c-.59,0-.91.01-1.25.04v-1.23c.34-.37.45-.5.8-.92l2.37-2.9c.44-.53.6-.74.83-1.1h1.35c-.06.58-.07.93-.07,1.69v3.28h.35c.4,0,.64-.02,1.01-.07v1.28Zm-2.61-3.27c0-.47.01-.79.05-1.2-.2.29-.32.45-.68.89l-1.92,2.38h2.55v-2.07Z" fill="#231815"/>
      <path d="m218.12,105.37c-.37-.05-.58-.06-1-.07h-.36v.71c0,.51.02.77.08,1.14h-1.42c.06-.35.08-.66.08-1.16v-.69h-2.77c-.59,0-.91.01-1.25.04v-1.23c.34-.37.45-.5.8-.92l2.37-2.9c.44-.53.6-.74.83-1.1h1.35c-.06.58-.07.93-.07,1.69v3.28h.35c.4,0,.64-.02,1.01-.07v1.28Zm-2.61-3.27c0-.47.01-.79.05-1.2-.2.29-.32.45-.68.89l-1.92,2.38h2.55v-2.07Z" fill="#231815"/>
    </g>
    <g>
      <path d="m557.51,124.8h-4.82v-9.14h4.62v.84h-3.62v3.09h3.41v.83h-3.41v3.54h3.83v.84Z" fill="#231815"/>
      <path d="m565.12,115.66l-3.14,9.14h-1.06l-2.89-9.13h1.08l1.4,4.58c.38,1.24.72,2.39.96,3.45h.04c.24-1.07.61-2.25,1.02-3.45l1.52-4.59h1.07Z" fill="#231815"/>
    </g>
    <g>
      <path d="m63.19,78.47h-5.31v-.61l.88-.92c2.13-2.16,3.21-3.47,3.21-4.93,0-.96-.42-1.85-1.72-1.85-.72,0-1.37.4-1.8.74l-.34-.7c.55-.49,1.37-.88,2.33-.88,1.81,0,2.53,1.32,2.53,2.55,0,1.69-1.19,3.13-3.05,5l-.71.74v.02h3.97v.82Z" fill="#231815"/>
      <path d="m64.38,74.01c0-3.14,1.22-4.67,2.9-4.67s2.75,1.61,2.75,4.55c0,3.12-1.09,4.73-2.88,4.73-1.63,0-2.77-1.61-2.77-4.61Zm4.64-.07c0-2.24-.54-3.79-1.8-3.79-1.07,0-1.82,1.43-1.82,3.79s.66,3.86,1.79,3.86c1.33,0,1.83-1.73,1.83-3.86Z" fill="#231815"/>
      <path d="m76.42,78.47h-5.31v-.61l.88-.92c2.13-2.16,3.21-3.47,3.21-4.93,0-.96-.42-1.85-1.72-1.85-.72,0-1.37.4-1.8.74l-.34-.7c.55-.49,1.37-.88,2.33-.88,1.81,0,2.53,1.32,2.53,2.55,0,1.69-1.19,3.13-3.05,5l-.71.74v.02h3.97v.82Z" fill="#231815"/>
    </g>
    <g>
      <path d="m54.06,378.82h-1.76l-1.64-4.94h-5.3l-1.6,4.94h-1.7l5.04-15.24h1.92l5.04,15.24Zm-3.74-6.26l-1.5-4.52c-.32-1.04-.58-2-.78-2.9h-.06c-.2.92-.48,1.88-.76,2.84l-1.52,4.58h4.62Z" fill="#231815"/>
      <path d="m66.5,363.58l-5.24,15.24h-1.76l-4.82-15.22h1.8l2.34,7.64c.64,2.06,1.2,3.98,1.6,5.76h.06c.4-1.78,1.02-3.76,1.7-5.76l2.54-7.66h1.78Z" fill="#231815"/>
      <path d="m76.65,369.22c.62.76,2.3,3.16,2.68,3.74l-.78,1.06c-.34-.7-1.2-2.12-1.9-3.18v9.64h-1.28v-9.86c-.72,2.34-1.7,4.64-2.7,6.02-.16-.36-.48-.88-.72-1.18,1.3-1.74,2.62-5.02,3.28-7.88h-2.84v-1.26h2.98v-4.4l1.66.12c-.02.12-.12.22-.38.26v4.02h2.54v1.26h-2.54v1.64Zm13.18,4.82h-3.58c1.22,1.78,3.18,3.68,4.76,4.66-.32.24-.72.7-.96,1.02-1.48-1.1-3.3-3.08-4.56-4.98v5.78h-1.3v-5.54c-1.32,1.96-3.26,3.82-5,4.88-.22-.34-.64-.82-.94-1.06,1.86-.96,3.94-2.84,5.2-4.76h-3.46v-6.86h4.2v-1.72h-4.92v-1.18h4.92v-2.32l1.7.1c-.02.14-.12.24-.4.28v1.94h5.1v1.18h-5.1v1.72h4.34v6.86Zm-8.62-5.8v1.86h2.98v-1.86h-2.98Zm0,2.86v1.9h2.98v-1.9h-2.98Zm7.36-2.86h-3.08v1.86h3.08v-1.86Zm0,4.76v-1.9h-3.08v1.9h3.08Z" fill="#231815"/>
    </g>
    <g>
      <path d="m435.91,416.8v13.2h-1.44v-1.26h-11.02v1.3h-1.4v-13.24h13.86Zm-1.44,10.6v-9.26h-11.02v9.26h11.02Z" fill="#231815"/>
      <path d="m443.51,419.42c.6,1.22,1.26,3.14,1.5,4.3l-1.12.3c-.24-1.16-.86-2.98-1.46-4.26l1.08-.34Zm11.94.14c-.04.18-.24.22-.42.2-1.56,5.84-4.5,9.42-9.34,11.38-.16-.24-.52-.7-.78-.92,4.78-1.88,7.52-5.16,8.98-11.12l1.56.46Zm-7.08-1.1c.42,1.34.8,3.26.94,4.54l-1.18.22c-.12-1.28-.5-3.12-.94-4.5l1.18-.26Z" fill="#231815"/>
      <path d="m476.47,418.78c-.04.08-.08.18-.18.26-.26,5.76-.82,9.38-1.6,10.8-.8,1.38-1.96,1.44-2.62,1.44-.78,0-2.2-.18-3.58-.46.04-.4,0-1-.06-1.42,1.5.34,3.04.5,3.5.5.72,0,1.12-.18,1.54-.94.6-1.22,1.1-4.58,1.3-9.08h-6.4c-1,4.78-2.98,8.74-6.6,11.46-.24-.26-.76-.64-1.14-.88,3.46-2.6,5.28-6.02,6.24-10.58h-5.52v-1.34h5.8c.24-1.42.36-2.7.46-4.36l1.98.16c-.02.22-.2.34-.5.36-.12,1.46-.22,2.56-.44,3.84h6.48l.32-.12,1.02.36Z" fill="#231815"/>
      <path d="m480.53,421.72h16.7v1.42h-15.94c-.12.2-.38.34-.64.38l-.12-1.8Z" fill="#231815"/>
      <path d="m505.11,417.2c-.02.18-.2.3-.46.34-.12,5.38-.56,10.28-3.64,13.86-.32-.24-.8-.54-1.2-.76,2.98-3.24,3.34-8.24,3.4-13.62l1.9.18Zm5.18,11.52c3.34-1.62,5.5-4.54,6.66-8.04.3.26.9.6,1.24.78-1.42,4.04-3.9,7.02-8.16,9.04-.06.16-.2.32-.34.4l-1.04-1.32.22-.3v-14.68l1.86.1c-.02.18-.16.34-.44.38v13.64Z" fill="#231815"/>
      <path d="m520.53,421.72h16.7v1.42h-15.94c-.12.2-.38.34-.64.38l-.12-1.8Z" fill="#231815"/>
      <path d="m556.39,430.97c-.3-.68-.66-1.4-1.06-2.12-4.16.44-11,.86-14.06,1.02-.06.2-.2.36-.38.4l-.54-1.8c.6-.02,1.32-.04,2.1-.08,1.32-3.84,3.22-9.82,4.32-13.82l1.94.52c-.08.18-.28.28-.58.28-1.1,3.68-2.82,9.04-4.2,12.96,3.32-.14,8.06-.48,10.7-.72-1.04-1.72-2.36-3.54-3.56-4.88l1.2-.68c2.1,2.3,4.5,6.1,5.52,8.28l-1.4.64Z" fill="#231815"/>
    </g>
    <g>
      <path d="m124.15,62.28h-5.31v-.61l.88-.92c2.13-2.16,3.21-3.47,3.21-4.93,0-.96-.42-1.85-1.72-1.85-.72,0-1.37.4-1.8.74l-.34-.7c.55-.49,1.37-.88,2.33-.88,1.81,0,2.53,1.32,2.53,2.55,0,1.69-1.19,3.13-3.05,5l-.71.74v.02h3.97v.82Z" fill="#231815"/>
      <path d="m125.34,57.82c0-3.14,1.22-4.67,2.9-4.67s2.75,1.61,2.75,4.55c0,3.12-1.09,4.73-2.88,4.73-1.63,0-2.77-1.61-2.77-4.61Zm4.64-.07c0-2.24-.54-3.79-1.8-3.79-1.07,0-1.82,1.43-1.82,3.79s.66,3.86,1.79,3.86c1.33,0,1.83-1.73,1.83-3.86Z" fill="#231815"/>
      <path d="m135.24,57.43c1.06.18,1.96,1.03,1.96,2.33,0,1.43-1.03,2.67-3.05,2.67-.9,0-1.71-.29-2.12-.58l.3-.77c.32.22,1.04.54,1.83.54,1.51,0,2-1.06,2-1.88,0-1.32-1.12-1.92-2.29-1.92h-.59v-.74h.59c.86,0,1.98-.54,1.98-1.67,0-.78-.47-1.45-1.55-1.45-.66,0-1.28.32-1.64.59l-.3-.73c.43-.34,1.27-.67,2.13-.67,1.64,0,2.38,1.04,2.38,2.12,0,.92-.59,1.75-1.63,2.12v.04Z" fill="#231815"/>
    </g>
    <g>
      <path d="m187.5,62.43h-5.31v-.61l.88-.92c2.13-2.16,3.21-3.47,3.21-4.93,0-.96-.42-1.85-1.72-1.85-.72,0-1.37.4-1.8.74l-.34-.7c.55-.49,1.37-.88,2.33-.88,1.81,0,2.53,1.32,2.53,2.55,0,1.69-1.19,3.13-3.05,5l-.71.74v.02h3.97v.82Z" fill="#231815"/>
      <path d="m188.69,57.97c0-3.14,1.22-4.67,2.9-4.67s2.75,1.61,2.75,4.55c0,3.12-1.09,4.73-2.88,4.73-1.63,0-2.77-1.61-2.77-4.61Zm4.64-.07c0-2.24-.54-3.79-1.8-3.79-1.07,0-1.82,1.43-1.82,3.79s.66,3.86,1.79,3.86c1.33,0,1.83-1.73,1.83-3.86Z" fill="#231815"/>
      <path d="m199.93,62.43h-.95v-2.52h-3.92v-.64l3.84-5.83h1.03v5.7h1.22v.77h-1.22v2.52Zm-3.86-3.29h2.92v-3.19c0-.49.02-.97.05-1.44h-.05c-.28.55-.49.94-.72,1.34l-2.2,3.26v.02Z" fill="#231815"/>
    </g>
    <g>
      <path d="m251.73,78.47h-5.31v-.61l.88-.92c2.13-2.16,3.21-3.47,3.21-4.93,0-.96-.42-1.85-1.72-1.85-.72,0-1.37.4-1.8.74l-.34-.7c.55-.49,1.37-.88,2.33-.88,1.81,0,2.53,1.32,2.53,2.55,0,1.69-1.19,3.13-3.05,5l-.71.74v.02h3.97v.82Z" fill="#231815"/>
      <path d="m252.92,74.01c0-3.14,1.22-4.67,2.9-4.67s2.75,1.61,2.75,4.55c0,3.12-1.09,4.73-2.88,4.73-1.63,0-2.77-1.61-2.77-4.61Zm4.64-.07c0-2.24-.54-3.79-1.8-3.79-1.07,0-1.82,1.43-1.82,3.79s.66,3.86,1.79,3.86c1.33,0,1.83-1.73,1.83-3.86Z" fill="#231815"/>
      <path d="m264.63,69.49v.83h-3.23l-.37,2.54c.19-.02.38-.05.7-.05,1.59,0,3.02.95,3.02,2.76s-1.32,3.05-3.09,3.05c-.9,0-1.66-.26-2.06-.53l.29-.78c.34.23,1,.5,1.78.5,1.13,0,2.1-.83,2.09-2.12,0-1.24-.79-2.1-2.47-2.1-.48,0-.85.04-1.15.08l.56-4.19h3.95Z" fill="#231815"/>
    </g>
    <g>
      <path d="m313.65,78.62h-5.31v-.61l.88-.92c2.13-2.16,3.21-3.47,3.21-4.93,0-.96-.42-1.85-1.72-1.85-.72,0-1.37.4-1.8.74l-.34-.7c.55-.49,1.37-.88,2.33-.88,1.81,0,2.53,1.32,2.53,2.55,0,1.69-1.19,3.13-3.05,5l-.71.74v.02h3.97v.82Z" fill="#231815"/>
      <path d="m314.84,74.16c0-3.14,1.22-4.67,2.9-4.67s2.75,1.61,2.75,4.55c0,3.12-1.09,4.73-2.88,4.73-1.63,0-2.77-1.61-2.77-4.61Zm4.64-.07c0-2.24-.54-3.79-1.8-3.79-1.07,0-1.82,1.43-1.82,3.79s.66,3.86,1.79,3.86c1.33,0,1.83-1.73,1.83-3.86Z" fill="#231815"/>
      <path d="m322.48,73.86c.41-.6,1.14-1.1,2.1-1.1,1.52,0,2.54,1.14,2.54,2.87s-1.01,3.14-2.76,3.14-2.93-1.45-2.93-3.78,1.13-4.93,4.04-5.41c.34-.05.64-.08.84-.08v.83c-2.48,0-3.67,1.81-3.87,3.54h.04Zm3.63,1.83c0-1.38-.74-2.18-1.82-2.18s-1.86,1.03-1.86,1.7c.01,1.64.71,2.77,1.96,2.77,1.04,0,1.73-.94,1.73-2.29Z" fill="#231815"/>
    </g>
    <g>
      <path d="m333.03,175.14h-5.31v-.61l.88-.92c2.13-2.16,3.22-3.47,3.22-4.93,0-.96-.42-1.85-1.72-1.85-.72,0-1.37.4-1.8.74l-.34-.7c.55-.49,1.37-.88,2.33-.88,1.81,0,2.53,1.32,2.53,2.55,0,1.69-1.19,3.13-3.05,5l-.71.74v.02h3.97v.82Z" fill="#231815"/>
      <path d="m334.22,170.68c0-3.14,1.22-4.67,2.9-4.67s2.75,1.61,2.75,4.55c0,3.12-1.09,4.73-2.88,4.73-1.63,0-2.77-1.61-2.77-4.61Zm4.64-.07c0-2.24-.54-3.79-1.8-3.79-1.07,0-1.82,1.43-1.82,3.79s.66,3.86,1.79,3.86c1.33,0,1.83-1.73,1.83-3.86Z" fill="#231815"/>
      <path d="m341.11,166.16h5.26v.64l-3.75,8.35h-1.02l3.75-8.13v-.02h-4.25v-.83Z" fill="#231815"/>
    </g>
    <g>
      <path d="m249.98,175.28h-5.31v-.61l.88-.92c2.13-2.16,3.21-3.47,3.21-4.93,0-.96-.42-1.85-1.72-1.85-.72,0-1.37.4-1.8.74l-.34-.7c.55-.49,1.37-.88,2.33-.88,1.81,0,2.53,1.32,2.53,2.55,0,1.69-1.19,3.13-3.05,5l-.71.74v.02h3.97v.82Z" fill="#231815"/>
      <path d="m251.17,170.82c0-3.14,1.22-4.67,2.9-4.67s2.75,1.61,2.75,4.55c0,3.12-1.09,4.73-2.88,4.73-1.63,0-2.77-1.61-2.77-4.61Zm4.64-.07c0-2.24-.54-3.79-1.8-3.79-1.07,0-1.82,1.43-1.82,3.79s.66,3.86,1.79,3.86c1.33,0,1.83-1.73,1.83-3.86Z" fill="#231815"/>
      <path d="m259.56,170.52c-.97-.47-1.4-1.26-1.4-2.03,0-1.39,1.09-2.34,2.54-2.34,1.63,0,2.41,1.1,2.41,2.18,0,.77-.41,1.61-1.47,2.12v.05c1.1.47,1.79,1.27,1.79,2.35,0,1.52-1.25,2.57-2.83,2.57-1.71,0-2.77-1.09-2.77-2.39,0-1.16.7-2,1.74-2.47v-.05Zm2.84,2.45c0-1.13-.76-1.7-1.94-2.09-1.06.35-1.62,1.12-1.62,2,0,1.02.68,1.8,1.76,1.8,1.15,0,1.8-.78,1.8-1.72Zm-3.3-4.57c-.01.96.67,1.49,1.67,1.79.78-.3,1.37-.91,1.37-1.76,0-.76-.42-1.54-1.47-1.54s-1.56.73-1.56,1.51Z" fill="#231815"/>
    </g>
    <g>
      <path d="m187.09,188.75h-5.31v-.61l.88-.92c2.13-2.16,3.21-3.47,3.21-4.93,0-.96-.42-1.85-1.72-1.85-.72,0-1.37.4-1.8.74l-.34-.7c.55-.49,1.37-.88,2.33-.88,1.81,0,2.53,1.32,2.53,2.55,0,1.69-1.19,3.13-3.05,5l-.71.74v.02h3.97v.82Z" fill="#231815"/>
      <path d="m188.28,184.28c0-3.14,1.22-4.67,2.9-4.67s2.75,1.61,2.75,4.55c0,3.12-1.09,4.73-2.88,4.73-1.63,0-2.77-1.61-2.77-4.61Zm4.64-.07c0-2.24-.54-3.79-1.8-3.79-1.07,0-1.82,1.43-1.82,3.79s.66,3.86,1.79,3.86c1.33,0,1.83-1.73,1.83-3.86Z" fill="#231815"/>
      <path d="m199.52,184.5c-.49.62-1.19,1-2.06,1-1.54,0-2.48-1.2-2.48-2.72,0-1.64,1.08-3.15,2.84-3.15s2.75,1.46,2.75,3.75c0,2.99-1.51,5.06-3.81,5.42-.42.07-.8.1-1.07.08v-.83c.25.02.54-.01.92-.06,1.51-.22,2.65-1.44,2.95-3.49h-.04Zm-3.54-1.79c0,1.21.68,2.03,1.71,2.03.97,0,1.86-.74,1.86-1.46,0-1.73-.64-2.89-1.82-2.89-1.04,0-1.75.98-1.75,2.33Z" fill="#231815"/>
    </g>
    <g>
      <path d="m65.92,175.14h-5.31v-.61l.88-.92c2.13-2.16,3.21-3.47,3.21-4.93,0-.96-.42-1.85-1.72-1.85-.72,0-1.37.4-1.8.74l-.34-.7c.55-.49,1.37-.88,2.33-.88,1.81,0,2.53,1.32,2.53,2.55,0,1.69-1.19,3.13-3.05,5l-.71.74v.02h3.97v.82Z" fill="#231815"/>
      <path d="m67.11,170.68c0-3.14,1.22-4.67,2.9-4.67s2.75,1.61,2.75,4.55c0,3.12-1.09,4.73-2.88,4.73-1.63,0-2.77-1.61-2.77-4.61Zm4.64-.07c0-2.24-.54-3.79-1.8-3.79-1.07,0-1.82,1.43-1.82,3.79s.66,3.86,1.79,3.86c1.33,0,1.83-1.73,1.83-3.86Z" fill="#231815"/>
      <path d="m76.36,175.14v-8.05h-.02l-1.48.85-.24-.74,1.86-1.04h.85v8.98h-.97Z" fill="#231815"/>
    </g>
    <g>
      <path d="m413.37,49.07h-5.31v-.61l.88-.92c2.13-2.16,3.21-3.47,3.21-4.93,0-.96-.42-1.85-1.72-1.85-.72,0-1.37.4-1.8.74l-.34-.7c.55-.49,1.37-.88,2.33-.88,1.81,0,2.53,1.32,2.53,2.55,0,1.69-1.19,3.13-3.05,5l-.71.74v.02h3.97v.82Z" fill="#231815"/>
      <path d="m417.2,49.07v-8.05h-.02l-1.48.85-.24-.74,1.86-1.04h.85v8.98h-.97Z" fill="#231815"/>
      <path d="m421.18,44.61c0-3.14,1.22-4.67,2.9-4.67s2.75,1.61,2.75,4.55c0,3.12-1.09,4.73-2.88,4.73-1.63,0-2.77-1.61-2.77-4.61Zm4.64-.07c0-2.24-.54-3.79-1.8-3.79-1.07,0-1.82,1.43-1.82,3.79s.66,3.86,1.79,3.86c1.33,0,1.83-1.73,1.83-3.86Z" fill="#231815"/>
    </g>
    <g>
      <path d="m514.04,158.72h-5.31v-.61l.88-.92c2.13-2.16,3.21-3.47,3.21-4.93,0-.96-.42-1.85-1.72-1.85-.72,0-1.37.4-1.8.74l-.34-.7c.55-.49,1.37-.88,2.33-.88,1.81,0,2.53,1.32,2.53,2.55,0,1.69-1.19,3.13-3.05,5l-.71.74v.02h3.97v.82Z" fill="#231815"/>
      <path d="m520.66,158.72h-5.31v-.61l.88-.92c2.13-2.16,3.21-3.47,3.21-4.93,0-.96-.42-1.85-1.72-1.85-.72,0-1.37.4-1.8.74l-.34-.7c.55-.49,1.37-.88,2.33-.88,1.81,0,2.53,1.32,2.53,2.55,0,1.69-1.19,3.13-3.05,5l-.71.74v.02h3.97v.82Z" fill="#231815"/>
      <path d="m521.85,154.26c0-3.14,1.22-4.67,2.9-4.67s2.75,1.61,2.75,4.55c0,3.12-1.09,4.73-2.88,4.73-1.63,0-2.77-1.61-2.77-4.61Zm4.64-.07c0-2.24-.54-3.79-1.8-3.79-1.07,0-1.82,1.43-1.82,3.79s.66,3.86,1.79,3.86c1.33,0,1.83-1.73,1.83-3.86Z" fill="#231815"/>
    </g>
    <g>
      <path d="m514.58,233.04h-5.31v-.61l.88-.92c2.13-2.16,3.21-3.47,3.21-4.93,0-.96-.42-1.85-1.72-1.85-.72,0-1.37.4-1.8.74l-.34-.7c.55-.49,1.37-.88,2.33-.88,1.81,0,2.53,1.32,2.53,2.55,0,1.69-1.19,3.13-3.05,5l-.71.74v.02h3.97v.82Z" fill="#231815"/>
      <path d="m519.06,228.18c1.06.18,1.96,1.03,1.96,2.33,0,1.43-1.03,2.67-3.05,2.67-.9,0-1.72-.29-2.12-.58l.3-.77c.32.22,1.04.54,1.83.54,1.51,0,2-1.06,2-1.88,0-1.32-1.12-1.92-2.29-1.92h-.59v-.74h.59c.86,0,1.98-.54,1.98-1.67,0-.78-.47-1.45-1.55-1.45-.66,0-1.28.32-1.64.59l-.3-.73c.43-.34,1.27-.67,2.13-.67,1.64,0,2.38,1.04,2.38,2.12,0,.92-.59,1.75-1.63,2.12v.04Z" fill="#231815"/>
      <path d="m522.38,228.58c0-3.14,1.22-4.67,2.9-4.67s2.75,1.61,2.75,4.55c0,3.12-1.09,4.73-2.88,4.73-1.63,0-2.77-1.61-2.77-4.61Zm4.64-.07c0-2.24-.54-3.79-1.8-3.79-1.07,0-1.82,1.43-1.82,3.79s.66,3.86,1.79,3.86c1.33,0,1.83-1.73,1.83-3.86Z" fill="#231815"/>
    </g>
    <g>
      <path d="m515.17,332.71h-5.31v-.61l.88-.92c2.13-2.16,3.21-3.47,3.21-4.93,0-.96-.42-1.85-1.72-1.85-.72,0-1.37.4-1.8.74l-.34-.7c.55-.49,1.37-.88,2.33-.88,1.81,0,2.53,1.32,2.53,2.55,0,1.69-1.19,3.13-3.05,5l-.71.74v.02h3.97v.82Z" fill="#231815"/>
      <path d="m520.99,332.71h-.95v-2.52h-3.92v-.64l3.84-5.83h1.03v5.7h1.22v.77h-1.22v2.52Zm-3.86-3.29h2.92v-3.19c0-.49.02-.97.05-1.44h-.05c-.28.55-.49.94-.72,1.34l-2.2,3.26v.02Z" fill="#231815"/>
      <path d="m522.97,328.25c0-3.14,1.22-4.67,2.9-4.67s2.75,1.61,2.75,4.54c0,3.12-1.09,4.73-2.88,4.73-1.63,0-2.77-1.61-2.77-4.61Zm4.64-.07c0-2.24-.54-3.79-1.8-3.79-1.07,0-1.82,1.43-1.82,3.79s.66,3.86,1.79,3.86c1.33,0,1.83-1.73,1.83-3.86Z" fill="#231815"/>
    </g>
  </g>
</svg>