<?xml version="1.0" encoding="UTF-8"?>
<svg xmlns="http://www.w3.org/2000/svg" width="660" height="490" viewBox="0 0 660 490">
  <g id="_背景" data-name="背景">
    <polyline id="base" points="0 0 660 0 660 490 0 490" fill="#dcdddd"/>
    <rect x="506.91" y="276.63" width="113.95" height="62.25" fill="#929292" stroke="#283331" stroke-miterlimit="10" stroke-width="1.04"/>
    <rect x="506.91" y="338.9" width="113.95" height="63.46" fill="#929292" stroke="#283331" stroke-miterlimit="10" stroke-width="1.05"/>
  </g>
  <g id="_廊下" data-name="廊下">
    <polyline points="585.6 41.79 585.6 131.59 643.03 131.59 643.03 41.79 585.6 41.79" fill="#dcdddd" stroke="#283331" stroke-miterlimit="10"/>
    <line x1="585.6" y1="131.59" x2="643.03" y2="41.79" fill="none" stroke="#283331" stroke-miterlimit="10" stroke-width=".25"/>
    <line x1="585.6" y1="42.28" x2="643.03" y2="131.59" fill="none" stroke="#283331" stroke-miterlimit="10" stroke-width=".25"/>
    <polyline points="179.41 181.46 115.74 181.46 115.74 167.81 57.29 167.81 57.29 149.65 115.74 149.65 115.74 131.59 243.08 131.59 243.08 147.14 388.08 147.14 491.99 147.14 507.14 147.14 507.14 415.69 491.1 415.61 491.1 167.81 357.63 167.81 243.08 167.81 243.08 181.46 179.41 181.46" fill="#b5b5b6" stroke="#283331" stroke-miterlimit="10"/>
    <polyline points="388.08 147.14 388.08 131.59 550.65 131.59 564.53 131.59 564.53 117.23 550.65 117.23 550.65 41.79 568.12 41.79 568.12 86.93 585.6 86.93 585.6 131.59 643.03 131.59 643.03 415.69 507.14 415.69 507.14 402.35 621.09 402.35 621.09 151.12 621.09 141.01 507.14 141.01 507.14 147.14 388.08 147.14" fill="#b5b5b6" stroke="#283331" stroke-miterlimit="10"/>
    <g id="_矢印" data-name="矢印">
      <path d="m424.79,156.22l4-3.84-2.94-.06.29-14.71-1.96-.04-.29,14.71-2.94-.06,3.84,4Z" fill="#040000"/>
      <path d="m425.2,135.84l-4,3.84,2.94.06-.29,14.71,1.96.04.29-14.71,2.94.06-3.84-4Z" fill="#040000"/>
    </g>
  </g>
  <g id="_男性用トイレ" data-name="男性用トイレ">
    <polygon points="621.09 415.69 584.29 415.61 584.29 454.9 621.09 454.9 621.09 415.69" fill="#57b9e2" stroke="#283331" stroke-miterlimit="10"/>
    <polyline points="388.08 131.59 406.45 131.59 406.45 41.79 388.08 41.79 388.08 131.59" fill="#54c3f1" stroke="#283331" stroke-miterlimit="10"/>
  </g>
  <g id="_女性用トイレ" data-name="女性用トイレ">
    <polyline points="370.42 147.14 388.08 147.14 388.08 41.79 370.42 41.79 370.42 147.14" fill="#f19899" stroke="#283331" stroke-miterlimit="10"/>
    <polygon points="584.53 415.69 547.72 415.61 547.72 454.9 584.53 454.9 584.53 415.69" fill="#f19899" stroke="#283331" stroke-miterlimit="10"/>
  </g>
  <g id="_使用不可能教室等" data-name="使用不可能教室等">
    <g id="_トイレマーク" data-name="トイレマーク">
      <g id="_男女" data-name="男女">
        <path d="m397.46,82.26c1.77,0,3.21-1.44,3.21-3.21s-1.44-3.21-3.21-3.21-3.21,1.44-3.21,3.21,1.44,3.21,3.21,3.21Z" fill="#fff"/>
        <path d="m400.46,84.05h-6.02c-.68,0-1.31.34-1.69.91-.37.57-.44,1.28-.17,1.91l4.4,10.36c.08.19.26.31.47.31s.39-.12.47-.31l4.4-10.36c.27-.62.2-1.34-.17-1.91-.37-.57-1.01-.91-1.69-.91Z" fill="#fff"/>
      </g>
      <g id="_男女-2" data-name="男女">
        <path d="m567.1,429.12c1.77,0,3.21-1.44,3.21-3.21s-1.44-3.21-3.21-3.21-3.21,1.44-3.21,3.21,1.44,3.21,3.21,3.21Z" fill="#fff"/>
        <path d="m571.97,441.58l-4.4-10.36c-.08-.19-.26-.31-.47-.31s-.39.12-.47.31l-4.4,10.36c-.27.62-.2,1.34.17,1.91.37.57,1.01.91,1.69.91h6.02c.68,0,1.31-.34,1.69-.91.37-.57.44-1.28.17-1.91Z" fill="#fff"/>
      </g>
      <g id="_男女-3" data-name="男女">
        <path d="m378.76,82.37c1.77,0,3.21-1.44,3.21-3.21s-1.44-3.21-3.21-3.21-3.21,1.44-3.21,3.21,1.44,3.21,3.21,3.21Z" fill="#fff"/>
        <path d="m383.63,94.82l-4.4-10.36c-.08-.19-.26-.31-.47-.31s-.39.12-.47.31l-4.4,10.36c-.27.62-.2,1.34.17,1.91.37.57,1.01.91,1.69.91h6.02c.68,0,1.31-.34,1.69-.91.37-.57.44-1.28.17-1.91Z" fill="#fff"/>
      </g>
      <g id="_男女-4" data-name="男女">
        <path d="m602.69,429.12c1.77,0,3.21-1.44,3.21-3.21s-1.44-3.21-3.21-3.21-3.21,1.44-3.21,3.21,1.44,3.21,3.21,3.21Z" fill="#fff"/>
        <path d="m605.7,430.91h-6.02c-.68,0-1.31.34-1.69.91-.37.57-.44,1.28-.17,1.91l4.4,10.36c.08.19.26.31.47.31s.39-.12.47-.31l4.4-10.36c.27-.62.2-1.34-.17-1.91-.37-.57-1.01-.91-1.69-.91Z" fill="#fff"/>
      </g>
    </g>
    <rect x="324.98" y="167.81" width="32.65" height="74.19" fill="#929292" stroke="#283331" stroke-miterlimit="10"/>
    <rect x="507.14" y="141.01" width="113.95" height="10.11" fill="#929292" stroke="#283331" stroke-miterlimit="10"/>
    <rect x="507.14" y="151.12" width="113.95" height="62.25" fill="#929292" stroke="#283331" stroke-miterlimit="10" stroke-width="1.04"/>
    <rect x="507.14" y="213.37" width="113.95" height="63.27" fill="#929292" stroke="#283331" stroke-miterlimit="10" stroke-width="1.05"/>
    <rect id="room306" x="306.75" y="70.61" width="63.67" height="76.53" fill="#929292" stroke="#283331" stroke-miterlimit="10"/>
    <rect id="room308" x="243.08" y="167.81" width="81.9" height="74.19" fill="#929292" stroke="#283331" stroke-miterlimit="10"/>
    <rect id="room305" x="243.08" y="70.61" width="63.67" height="76.53" fill="#929292" stroke="#283331" stroke-miterlimit="10"/>
  </g>
  <g id="_階段" data-name="階段">
    <g>
      <polyline points="632.1 415.69 632.1 441.86 621.09 441.86 621.09 416.06" fill="none" stroke="#283331" stroke-miterlimit="10"/>
      <line x1="632.1" y1="426.79" x2="621.09" y2="426.79" fill="none" stroke="#283331" stroke-miterlimit="10" stroke-width=".25"/>
      <line x1="632.1" y1="424.83" x2="621.09" y2="424.83" fill="none" stroke="#283331" stroke-miterlimit="10" stroke-width=".25"/>
      <line x1="632.1" y1="422.86" x2="621.09" y2="422.86" fill="none" stroke="#283331" stroke-miterlimit="10" stroke-width=".25"/>
      <line x1="632.1" y1="420.89" x2="621.09" y2="420.89" fill="none" stroke="#283331" stroke-miterlimit="10" stroke-width=".25"/>
      <line x1="632.1" y1="418.92" x2="621.09" y2="418.92" fill="none" stroke="#283331" stroke-miterlimit="10" stroke-width=".25"/>
      <line x1="621.09" y1="416.95" x2="632.1" y2="416.95" fill="none" stroke="#283331" stroke-miterlimit="10" stroke-width=".25"/>
      <line x1="632.1" y1="428.77" x2="621.09" y2="428.77" fill="none" stroke="#283331" stroke-miterlimit="10" stroke-width=".25"/>
      <line x1="632.1" y1="430.6" x2="621.09" y2="430.6" fill="none" stroke="#283331" stroke-miterlimit="10" stroke-width=".25"/>
      <line x1="632.1" y1="432.47" x2="621.09" y2="432.47" fill="none" stroke="#283331" stroke-miterlimit="10" stroke-width=".25"/>
      <line x1="632.1" y1="434.32" x2="621.09" y2="434.32" fill="none" stroke="#283331" stroke-miterlimit="10" stroke-width=".25"/>
      <line x1="632.1" y1="436.23" x2="621.09" y2="436.23" fill="none" stroke="#283331" stroke-miterlimit="10" stroke-width=".25"/>
      <line x1="632.1" y1="438.27" x2="621.09" y2="438.27" fill="none" stroke="#283331" stroke-miterlimit="10" stroke-width=".25"/>
      <line x1="632.1" y1="440.15" x2="621.09" y2="440.15" fill="none" stroke="#283331" stroke-miterlimit="10" stroke-width=".25"/>
    </g>
    <g>
      <polyline points="147.68 145.49 179.01 145.49 179.01 158.67 148.12 158.67" fill="none" stroke="#283331" stroke-miterlimit="10"/>
      <line x1="160.97" y1="145.49" x2="160.97" y2="158.67" fill="none" stroke="#283331" stroke-miterlimit="10" stroke-width=".25"/>
      <line x1="158.62" y1="145.49" x2="158.62" y2="158.67" fill="none" stroke="#283331" stroke-miterlimit="10" stroke-width=".25"/>
      <line x1="156.26" y1="145.49" x2="156.26" y2="158.67" fill="none" stroke="#283331" stroke-miterlimit="10" stroke-width=".25"/>
      <line x1="153.9" y1="145.49" x2="153.9" y2="158.67" fill="none" stroke="#283331" stroke-miterlimit="10" stroke-width=".25"/>
      <line x1="151.55" y1="145.49" x2="151.55" y2="158.67" fill="none" stroke="#283331" stroke-miterlimit="10" stroke-width=".25"/>
      <line x1="149.19" y1="158.67" x2="149.19" y2="145.49" fill="none" stroke="#283331" stroke-miterlimit="10" stroke-width=".25"/>
      <line x1="163.34" y1="145.49" x2="163.34" y2="158.67" fill="none" stroke="#283331" stroke-miterlimit="10" stroke-width=".25"/>
      <line x1="165.53" y1="145.49" x2="165.53" y2="158.67" fill="none" stroke="#283331" stroke-miterlimit="10" stroke-width=".25"/>
      <line x1="167.77" y1="145.49" x2="167.77" y2="158.67" fill="none" stroke="#283331" stroke-miterlimit="10" stroke-width=".25"/>
      <line x1="169.99" y1="145.49" x2="169.99" y2="158.67" fill="none" stroke="#283331" stroke-miterlimit="10" stroke-width=".25"/>
      <line x1="172.27" y1="145.49" x2="172.27" y2="158.67" fill="none" stroke="#283331" stroke-miterlimit="10" stroke-width=".25"/>
      <line x1="174.72" y1="145.49" x2="174.72" y2="158.67" fill="none" stroke="#283331" stroke-miterlimit="10" stroke-width=".25"/>
      <line x1="176.97" y1="145.49" x2="176.97" y2="158.67" fill="none" stroke="#283331" stroke-miterlimit="10" stroke-width=".25"/>
    </g>
    <g>
      <polyline points="568.12 83.34 568.12 41.79 585.6 41.79 585.6 82.76" fill="none" stroke="#283331" stroke-miterlimit="10"/>
      <line x1="568.12" y1="65.71" x2="585.6" y2="65.71" fill="none" stroke="#283331" stroke-miterlimit="10" stroke-width=".25"/>
      <line x1="568.12" y1="68.83" x2="585.6" y2="68.83" fill="none" stroke="#283331" stroke-miterlimit="10" stroke-width=".25"/>
      <line x1="568.12" y1="71.96" x2="585.6" y2="71.96" fill="none" stroke="#283331" stroke-miterlimit="10" stroke-width=".25"/>
      <line x1="568.12" y1="75.08" x2="585.6" y2="75.08" fill="none" stroke="#283331" stroke-miterlimit="10" stroke-width=".25"/>
      <line x1="568.12" y1="78.21" x2="585.6" y2="78.21" fill="none" stroke="#283331" stroke-miterlimit="10" stroke-width=".25"/>
      <line x1="568.12" y1="81.33" x2="585.6" y2="81.33" fill="none" stroke="#283331" stroke-miterlimit="10" stroke-width=".25"/>
      <line x1="568.12" y1="62.56" x2="585.6" y2="62.56" fill="none" stroke="#283331" stroke-miterlimit="10" stroke-width=".25"/>
      <line x1="568.12" y1="59.67" x2="585.6" y2="59.67" fill="none" stroke="#283331" stroke-miterlimit="10" stroke-width=".25"/>
      <line x1="568.12" y1="56.69" x2="585.6" y2="56.69" fill="none" stroke="#283331" stroke-miterlimit="10" stroke-width=".25"/>
      <line x1="568.12" y1="53.75" x2="585.6" y2="53.75" fill="none" stroke="#283331" stroke-miterlimit="10" stroke-width=".25"/>
      <line x1="568.12" y1="50.73" x2="585.6" y2="50.73" fill="none" stroke="#283331" stroke-miterlimit="10" stroke-width=".25"/>
      <line x1="568.12" y1="47.48" x2="585.6" y2="47.48" fill="none" stroke="#283331" stroke-miterlimit="10" stroke-width=".25"/>
      <line x1="568.12" y1="44.5" x2="585.6" y2="44.5" fill="none" stroke="#283331" stroke-miterlimit="10" stroke-width=".25"/>
    </g>
  </g>
  <g id="MLOC-available">
    <rect id="room309" x="179.41" y="181.46" width="63.67" height="68.45" fill="#a8d7ef" stroke="#283331" stroke-miterlimit="10"/>
    <rect id="room304" x="179.41" y="55.06" width="63.67" height="76.53" fill="#a8d7ef" stroke="#283331" stroke-miterlimit="10"/>
    <rect id="room303" x="115.74" y="55.06" width="63.67" height="76.53" fill="#a8d7ef" stroke="#283331" stroke-miterlimit="10"/>
    <rect id="room302" x="57.29" y="70.61" width="58.44" height="79.04" fill="#a8d7ef" stroke="#283331" stroke-miterlimit="10"/>
    <rect id="room310" x="406.49" y="41.79" width="144.16" height="89.8" fill="#aaddf7" stroke="#283331" stroke-miterlimit="10"/>
    <rect id="room301" x="57.29" y="167.81" width="58.44" height="82.1" fill="#a8d7ef" stroke="#283331" stroke-miterlimit="10"/>
  </g>
  <g id="MNOINT-word">
    <g>
      <path d="m556.92,128.59h-4.82v-9.14h4.62v.84h-3.62v3.09h3.41v.83h-3.41v3.54h3.83v.84Z" fill="#231815"/>
      <path d="m564.53,119.45l-3.14,9.14h-1.06l-2.89-9.13h1.08l1.4,4.58c.38,1.24.72,2.39.96,3.45h.04c.24-1.07.61-2.25,1.02-3.45l1.52-4.59h1.07Z" fill="#231815"/>
    </g>
    <g>
      <path d="m61.06,77.41c1.06.18,1.96,1.03,1.96,2.33,0,1.43-1.03,2.67-3.05,2.67-.9,0-1.71-.29-2.12-.58l.3-.77c.32.22,1.04.54,1.83.54,1.51,0,2-1.06,2-1.88,0-1.32-1.12-1.92-2.29-1.92h-.59v-.74h.59c.86,0,1.98-.54,1.98-1.67,0-.78-.47-1.45-1.55-1.45-.66,0-1.28.32-1.64.59l-.3-.73c.43-.34,1.27-.67,2.13-.67,1.64,0,2.38,1.04,2.38,2.12,0,.92-.59,1.75-1.63,2.12v.04Z" fill="#231815"/>
      <path d="m64.38,77.8c0-3.14,1.22-4.67,2.9-4.67s2.75,1.61,2.75,4.55c0,3.12-1.09,4.73-2.88,4.73-1.63,0-2.77-1.61-2.77-4.61Zm4.64-.07c0-2.24-.54-3.79-1.8-3.79-1.07,0-1.82,1.43-1.82,3.79s.66,3.86,1.79,3.86c1.33,0,1.83-1.73,1.83-3.86Z" fill="#231815"/>
      <path d="m76.42,82.26h-5.31v-.61l.88-.92c2.13-2.16,3.21-3.47,3.21-4.93,0-.96-.42-1.85-1.72-1.85-.72,0-1.37.4-1.8.74l-.34-.7c.55-.49,1.37-.88,2.33-.88,1.81,0,2.53,1.32,2.53,2.55,0,1.69-1.19,3.13-3.05,5l-.71.74v.02h3.97v.82Z" fill="#231815"/>
    </g>
    <g>
      <path d="m122.01,61.21c1.06.18,1.96,1.03,1.96,2.33,0,1.43-1.03,2.67-3.05,2.67-.9,0-1.71-.29-2.12-.58l.3-.77c.32.22,1.04.54,1.83.54,1.51,0,2-1.06,2-1.88,0-1.32-1.12-1.92-2.29-1.92h-.59v-.74h.59c.86,0,1.98-.54,1.98-1.67,0-.78-.47-1.45-1.55-1.45-.66,0-1.28.32-1.64.59l-.3-.73c.43-.34,1.27-.67,2.13-.67,1.64,0,2.38,1.04,2.38,2.12,0,.92-.59,1.75-1.63,2.12v.04Z" fill="#231815"/>
      <path d="m125.34,61.61c0-3.14,1.22-4.67,2.9-4.67s2.75,1.61,2.75,4.55c0,3.12-1.09,4.73-2.88,4.73-1.63,0-2.77-1.61-2.77-4.61Zm4.64-.07c0-2.24-.54-3.79-1.8-3.79-1.07,0-1.82,1.43-1.82,3.79s.66,3.86,1.79,3.86c1.33,0,1.83-1.73,1.83-3.86Z" fill="#231815"/>
      <path d="m135.24,61.21c1.06.18,1.96,1.03,1.96,2.33,0,1.43-1.03,2.67-3.05,2.67-.9,0-1.71-.29-2.12-.58l.3-.77c.32.22,1.04.54,1.83.54,1.51,0,2-1.06,2-1.88,0-1.32-1.12-1.92-2.29-1.92h-.59v-.74h.59c.86,0,1.98-.54,1.98-1.67,0-.78-.47-1.45-1.55-1.45-.66,0-1.28.32-1.64.59l-.3-.73c.43-.34,1.27-.67,2.13-.67,1.64,0,2.38,1.04,2.38,2.12,0,.92-.59,1.75-1.63,2.12v.04Z" fill="#231815"/>
    </g>
    <g>
      <path d="m185.37,61.36c1.06.18,1.96,1.03,1.96,2.33,0,1.43-1.03,2.67-3.05,2.67-.9,0-1.71-.29-2.12-.58l.3-.77c.32.22,1.04.54,1.83.54,1.51,0,2-1.06,2-1.88,0-1.32-1.12-1.92-2.29-1.92h-.59v-.74h.59c.86,0,1.98-.54,1.98-1.67,0-.78-.47-1.45-1.55-1.45-.66,0-1.28.32-1.64.59l-.3-.73c.43-.34,1.27-.67,2.13-.67,1.64,0,2.38,1.04,2.38,2.12,0,.92-.59,1.75-1.63,2.12v.04Z" fill="#231815"/>
      <path d="m188.69,61.75c0-3.14,1.22-4.67,2.9-4.67s2.75,1.61,2.75,4.55c0,3.12-1.09,4.73-2.88,4.73-1.63,0-2.77-1.61-2.77-4.61Zm4.64-.07c0-2.24-.54-3.79-1.8-3.79-1.07,0-1.82,1.43-1.82,3.79s.66,3.86,1.79,3.86c1.33,0,1.83-1.73,1.83-3.86Z" fill="#231815"/>
      <path d="m199.93,66.22h-.95v-2.52h-3.92v-.64l3.84-5.83h1.03v5.7h1.22v.77h-1.22v2.52Zm-3.86-3.29h2.92v-3.19c0-.49.02-.97.05-1.44h-.05c-.28.55-.49.94-.72,1.34l-2.2,3.26v.02Z" fill="#231815"/>
    </g>
    <g>
      <path d="m249.6,77.41c1.06.18,1.96,1.03,1.96,2.33,0,1.43-1.03,2.67-3.05,2.67-.9,0-1.71-.29-2.12-.58l.3-.77c.32.22,1.04.54,1.83.54,1.51,0,2-1.06,2-1.88,0-1.32-1.12-1.92-2.29-1.92h-.59v-.74h.59c.86,0,1.98-.54,1.98-1.67,0-.78-.47-1.45-1.55-1.45-.66,0-1.28.32-1.64.59l-.3-.73c.43-.34,1.27-.67,2.13-.67,1.64,0,2.38,1.04,2.38,2.12,0,.92-.59,1.75-1.63,2.12v.04Z" fill="#231815"/>
      <path d="m252.92,77.8c0-3.14,1.22-4.67,2.9-4.67s2.75,1.61,2.75,4.55c0,3.12-1.09,4.73-2.88,4.73-1.63,0-2.77-1.61-2.77-4.61Zm4.64-.07c0-2.24-.54-3.79-1.8-3.79-1.07,0-1.82,1.43-1.82,3.79s.66,3.86,1.79,3.86c1.33,0,1.83-1.73,1.83-3.86Z" fill="#231815"/>
      <path d="m264.63,73.28v.83h-3.23l-.37,2.54c.19-.02.38-.05.7-.05,1.59,0,3.02.95,3.02,2.76s-1.32,3.05-3.09,3.05c-.9,0-1.66-.26-2.06-.53l.29-.78c.34.23,1,.5,1.78.5,1.13,0,2.1-.83,2.09-2.12,0-1.24-.79-2.1-2.47-2.1-.48,0-.85.04-1.15.08l.56-4.19h3.95Z" fill="#231815"/>
    </g>
    <g>
      <path d="m311.51,77.55c1.06.18,1.96,1.03,1.96,2.33,0,1.43-1.03,2.67-3.05,2.67-.9,0-1.71-.29-2.12-.58l.3-.77c.32.22,1.04.54,1.83.54,1.51,0,2-1.06,2-1.88,0-1.32-1.12-1.92-2.29-1.92h-.59v-.74h.59c.86,0,1.98-.54,1.98-1.67,0-.78-.47-1.45-1.55-1.45-.66,0-1.28.32-1.64.59l-.3-.73c.43-.34,1.27-.67,2.13-.67,1.64,0,2.38,1.04,2.38,2.12,0,.92-.59,1.75-1.63,2.12v.04Z" fill="#231815"/>
      <path d="m314.84,77.95c0-3.14,1.22-4.67,2.9-4.67s2.75,1.61,2.75,4.55c0,3.12-1.09,4.73-2.88,4.73-1.63,0-2.77-1.61-2.77-4.61Zm4.64-.07c0-2.24-.54-3.79-1.8-3.79-1.07,0-1.82,1.43-1.82,3.79s.66,3.86,1.79,3.86c1.33,0,1.83-1.73,1.83-3.86Z" fill="#231815"/>
      <path d="m322.48,77.65c.41-.6,1.14-1.1,2.1-1.1,1.52,0,2.54,1.14,2.54,2.87s-1.01,3.14-2.76,3.14-2.93-1.45-2.93-3.78,1.13-4.93,4.04-5.41c.34-.05.64-.08.84-.08v.83c-2.48,0-3.67,1.81-3.87,3.54h.04Zm3.63,1.83c0-1.38-.74-2.18-1.82-2.18s-1.86,1.03-1.86,1.7c.01,1.64.71,2.77,1.96,2.77,1.04,0,1.73-.94,1.73-2.29Z" fill="#231815"/>
    </g>
    <g>
      <path d="m330.89,174.07c1.06.18,1.96,1.03,1.96,2.33,0,1.43-1.03,2.67-3.05,2.67-.9,0-1.71-.29-2.12-.58l.3-.77c.32.22,1.04.54,1.83.54,1.51,0,2-1.06,2-1.88,0-1.32-1.12-1.92-2.29-1.92h-.59v-.74h.59c.86,0,1.98-.54,1.98-1.67,0-.78-.47-1.45-1.55-1.45-.66,0-1.28.32-1.64.59l-.3-.73c.43-.34,1.27-.67,2.13-.67,1.64,0,2.38,1.04,2.38,2.12,0,.92-.59,1.75-1.63,2.12v.04Z" fill="#231815"/>
      <path d="m334.22,174.47c0-3.14,1.22-4.67,2.9-4.67s2.75,1.61,2.75,4.55c0,3.12-1.09,4.73-2.88,4.73-1.63,0-2.77-1.61-2.77-4.61Zm4.64-.07c0-2.24-.54-3.79-1.8-3.79-1.07,0-1.82,1.43-1.82,3.79s.66,3.86,1.79,3.86c1.33,0,1.83-1.73,1.83-3.86Z" fill="#231815"/>
      <path d="m341.11,169.95h5.26v.64l-3.75,8.35h-1.02l3.75-8.13v-.02h-4.25v-.83Z" fill="#231815"/>
    </g>
    <g>
      <path d="m247.84,174.21c1.06.18,1.96,1.03,1.96,2.33,0,1.43-1.03,2.67-3.05,2.67-.9,0-1.71-.29-2.12-.58l.3-.77c.32.22,1.04.54,1.83.54,1.51,0,2-1.06,2-1.88,0-1.32-1.12-1.92-2.29-1.92h-.59v-.74h.59c.86,0,1.98-.54,1.98-1.67,0-.78-.47-1.45-1.55-1.45-.66,0-1.28.32-1.64.59l-.3-.73c.43-.34,1.27-.67,2.13-.67,1.64,0,2.38,1.04,2.38,2.12,0,.92-.59,1.75-1.63,2.12v.04Z" fill="#231815"/>
      <path d="m251.17,174.61c0-3.14,1.22-4.67,2.9-4.67s2.75,1.61,2.75,4.55c0,3.12-1.09,4.73-2.88,4.73-1.63,0-2.77-1.61-2.77-4.61Zm4.64-.07c0-2.24-.54-3.79-1.8-3.79-1.07,0-1.82,1.43-1.82,3.79s.66,3.86,1.79,3.86c1.33,0,1.83-1.73,1.83-3.86Z" fill="#231815"/>
      <path d="m259.56,174.31c-.97-.47-1.4-1.26-1.4-2.03,0-1.39,1.09-2.34,2.54-2.34,1.63,0,2.41,1.1,2.41,2.18,0,.77-.41,1.61-1.47,2.12v.05c1.1.47,1.79,1.27,1.79,2.35,0,1.52-1.25,2.57-2.83,2.57-1.71,0-2.77-1.09-2.77-2.39,0-1.16.7-2,1.74-2.47v-.05Zm2.84,2.45c0-1.13-.76-1.7-1.94-2.09-1.06.35-1.62,1.12-1.62,2,0,1.02.68,1.8,1.76,1.8,1.15,0,1.8-.78,1.8-1.72Zm-3.3-4.57c-.01.96.67,1.49,1.67,1.79.78-.3,1.37-.91,1.37-1.76,0-.76-.42-1.54-1.47-1.54s-1.56.73-1.56,1.51Z" fill="#231815"/>
    </g>
    <g>
      <path d="m184.95,187.68c1.06.18,1.96,1.03,1.96,2.33,0,1.43-1.03,2.67-3.05,2.67-.9,0-1.71-.29-2.12-.58l.3-.77c.32.22,1.04.54,1.83.54,1.51,0,2-1.06,2-1.88,0-1.32-1.12-1.92-2.29-1.92h-.59v-.74h.59c.86,0,1.98-.54,1.98-1.67,0-.78-.47-1.45-1.55-1.45-.66,0-1.28.32-1.64.59l-.3-.73c.43-.34,1.27-.67,2.13-.67,1.64,0,2.38,1.04,2.38,2.12,0,.92-.59,1.75-1.63,2.12v.04Z" fill="#231815"/>
      <path d="m188.28,188.07c0-3.14,1.22-4.67,2.9-4.67s2.75,1.61,2.75,4.55c0,3.12-1.09,4.73-2.88,4.73-1.63,0-2.77-1.61-2.77-4.61Zm4.64-.07c0-2.24-.54-3.79-1.8-3.79-1.07,0-1.82,1.43-1.82,3.79s.66,3.86,1.79,3.86c1.33,0,1.83-1.73,1.83-3.86Z" fill="#231815"/>
      <path d="m199.52,188.29c-.49.62-1.19,1-2.06,1-1.54,0-2.48-1.2-2.48-2.72,0-1.64,1.08-3.15,2.84-3.15s2.75,1.46,2.75,3.75c0,2.99-1.51,5.06-3.81,5.42-.42.07-.8.1-1.07.08v-.83c.25.02.54-.01.92-.06,1.51-.22,2.65-1.44,2.95-3.49h-.04Zm-3.54-1.79c0,1.21.68,2.03,1.71,2.03.97,0,1.86-.74,1.86-1.46,0-1.73-.64-2.89-1.82-2.89-1.04,0-1.75.98-1.75,2.33Z" fill="#231815"/>
    </g>
    <g>
      <path d="m63.78,174.07c1.06.18,1.96,1.03,1.96,2.33,0,1.43-1.03,2.67-3.05,2.67-.9,0-1.71-.29-2.12-.58l.3-.77c.32.22,1.04.54,1.83.54,1.51,0,2-1.06,2-1.88,0-1.32-1.12-1.92-2.29-1.92h-.59v-.74h.59c.86,0,1.98-.54,1.98-1.67,0-.78-.47-1.45-1.55-1.45-.66,0-1.28.32-1.64.59l-.3-.73c.43-.34,1.27-.67,2.13-.67,1.64,0,2.38,1.04,2.38,2.12,0,.92-.59,1.75-1.63,2.12v.04Z" fill="#231815"/>
      <path d="m67.11,174.47c0-3.14,1.22-4.67,2.9-4.67s2.75,1.61,2.75,4.55c0,3.12-1.09,4.73-2.88,4.73-1.63,0-2.77-1.61-2.77-4.61Zm4.64-.07c0-2.24-.54-3.79-1.8-3.79-1.07,0-1.82,1.43-1.82,3.79s.66,3.86,1.79,3.86c1.33,0,1.83-1.73,1.83-3.86Z" fill="#231815"/>
      <path d="m76.36,178.93v-8.05h-.02l-1.48.85-.24-.74,1.86-1.04h.85v8.98h-.97Z" fill="#231815"/>
    </g>
    <g>
      <path d="m411.24,48c1.06.18,1.96,1.03,1.96,2.33,0,1.43-1.03,2.67-3.05,2.67-.9,0-1.71-.29-2.12-.58l.3-.77c.32.22,1.04.54,1.83.54,1.51,0,2-1.06,2-1.88,0-1.32-1.12-1.92-2.29-1.92h-.59v-.74h.59c.86,0,1.98-.54,1.98-1.67,0-.78-.47-1.45-1.55-1.45-.66,0-1.28.32-1.64.59l-.3-.73c.43-.34,1.27-.67,2.13-.67,1.64,0,2.38,1.04,2.38,2.12,0,.92-.59,1.75-1.63,2.12v.04Z" fill="#231815"/>
      <path d="m417.2,52.86v-8.05h-.02l-1.48.85-.24-.74,1.86-1.04h.85v8.98h-.97Z" fill="#231815"/>
      <path d="m421.18,48.4c0-3.14,1.22-4.67,2.9-4.67s2.75,1.61,2.75,4.55c0,3.12-1.09,4.73-2.88,4.73-1.63,0-2.77-1.61-2.77-4.61Zm4.64-.07c0-2.24-.54-3.79-1.8-3.79-1.07,0-1.82,1.43-1.82,3.79s.66,3.86,1.79,3.86c1.33,0,1.83-1.73,1.83-3.86Z" fill="#231815"/>
    </g>
    <g>
      <path d="m511.91,157.65c1.06.18,1.96,1.03,1.96,2.33,0,1.43-1.03,2.67-3.05,2.67-.9,0-1.71-.29-2.12-.58l.3-.77c.32.22,1.04.54,1.83.54,1.51,0,2-1.06,2-1.88,0-1.32-1.12-1.92-2.29-1.92h-.59v-.74h.59c.86,0,1.98-.54,1.98-1.67,0-.78-.47-1.45-1.55-1.45-.66,0-1.28.32-1.64.59l-.3-.73c.43-.34,1.27-.67,2.13-.67,1.64,0,2.38,1.04,2.38,2.12,0,.92-.59,1.75-1.63,2.12v.04Z" fill="#231815"/>
      <path d="m520.66,162.51h-5.31v-.61l.88-.92c2.13-2.16,3.21-3.47,3.21-4.93,0-.96-.42-1.85-1.72-1.85-.72,0-1.37.4-1.8.74l-.34-.7c.55-.49,1.37-.88,2.33-.88,1.81,0,2.53,1.32,2.53,2.55,0,1.69-1.19,3.13-3.05,5l-.71.74v.02h3.97v.82Z" fill="#231815"/>
      <path d="m521.85,158.05c0-3.14,1.22-4.67,2.9-4.67s2.75,1.61,2.75,4.55c0,3.12-1.09,4.73-2.88,4.73-1.63,0-2.77-1.61-2.77-4.61Zm4.64-.07c0-2.24-.54-3.79-1.8-3.79-1.07,0-1.82,1.43-1.82,3.79s.66,3.86,1.79,3.86c1.33,0,1.83-1.73,1.83-3.86Z" fill="#231815"/>
    </g>
    <g>
      <path d="m512.5,221.41c1.06.18,1.96,1.03,1.96,2.33,0,1.43-1.03,2.67-3.05,2.67-.9,0-1.71-.29-2.12-.58l.3-.77c.32.22,1.04.54,1.83.54,1.51,0,2-1.06,2-1.88,0-1.32-1.12-1.92-2.29-1.92h-.59v-.74h.59c.86,0,1.98-.54,1.98-1.67,0-.78-.47-1.45-1.55-1.45-.66,0-1.28.32-1.64.59l-.3-.73c.43-.34,1.27-.67,2.13-.67,1.64,0,2.38,1.04,2.38,2.12,0,.92-.59,1.75-1.63,2.12v.04Z" fill="#231815"/>
      <path d="m519.11,221.41c1.06.18,1.96,1.03,1.96,2.33,0,1.43-1.03,2.67-3.05,2.67-.9,0-1.72-.29-2.12-.58l.3-.77c.32.22,1.04.54,1.83.54,1.51,0,2-1.06,2-1.88,0-1.32-1.12-1.92-2.29-1.92h-.59v-.74h.59c.86,0,1.98-.54,1.98-1.67,0-.78-.47-1.45-1.55-1.45-.66,0-1.28.32-1.64.59l-.3-.73c.43-.34,1.27-.67,2.13-.67,1.64,0,2.38,1.04,2.38,2.12,0,.92-.59,1.75-1.63,2.12v.04Z" fill="#231815"/>
      <path d="m522.44,221.81c0-3.14,1.22-4.67,2.9-4.67s2.75,1.61,2.75,4.55c0,3.12-1.09,4.73-2.88,4.73-1.63,0-2.77-1.61-2.77-4.61Zm4.64-.07c0-2.24-.54-3.79-1.8-3.79-1.07,0-1.82,1.43-1.82,3.79s.66,3.86,1.79,3.86c1.33,0,1.83-1.73,1.83-3.86Z" fill="#231815"/>
    </g>
    <g>
      <path d="m513.09,283.44c1.06.18,1.96,1.03,1.96,2.33,0,1.43-1.03,2.67-3.05,2.67-.9,0-1.71-.29-2.12-.58l.3-.77c.32.22,1.04.54,1.83.54,1.51,0,2-1.06,2-1.88,0-1.32-1.12-1.92-2.29-1.92h-.59v-.74h.59c.86,0,1.98-.54,1.98-1.67,0-.78-.47-1.45-1.55-1.45-.66,0-1.28.32-1.64.59l-.3-.73c.43-.34,1.27-.67,2.13-.67,1.64,0,2.38,1.04,2.38,2.12,0,.92-.59,1.75-1.63,2.12v.04Z" fill="#231815"/>
      <path d="m521.04,288.3h-.95v-2.52h-3.92v-.64l3.84-5.83h1.03v5.7h1.22v.77h-1.22v2.52Zm-3.86-3.29h2.92v-3.19c0-.49.02-.97.05-1.44h-.05c-.28.55-.49.94-.72,1.34l-2.2,3.26v.02Z" fill="#231815"/>
      <path d="m523.02,283.84c0-3.14,1.22-4.67,2.9-4.67s2.75,1.61,2.75,4.55c0,3.12-1.09,4.73-2.88,4.73-1.63,0-2.77-1.61-2.77-4.61Zm4.64-.07c0-2.24-.54-3.79-1.8-3.79-1.07,0-1.82,1.43-1.82,3.79s.66,3.86,1.79,3.86c1.33,0,1.83-1.73,1.83-3.86Z" fill="#231815"/>
    </g>
    <g>
      <path d="m451.63,59.91c.57.46.9.76,1.32,1.18q.54.54.61.61c.47-.39.96-.86,1.32-1.25.48-.52,1.1-1.34,1.4-1.85t.05-.08s0-.03.03-.05c-.1.01-.21.02-.4.02h-4.92c-.64,0-.88.01-1.34.05v-1.08c.4.05.73.07,1.36.07h5.56c.39,0,.51,0,.72-.08l.58.67c-.13.14-.2.22-.42.57-.94,1.5-2.05,2.78-3.26,3.76.37.42.81.98,1.38,1.74l-.87.7c-.54-.85-1.08-1.54-1.93-2.48-.74-.82-1.26-1.31-1.99-1.91l.8-.59Z" fill="#231815"/>
      <path d="m459.99,63.58c.81-.03,2.02-.34,2.94-.75,1.25-.55,2.19-1.31,2.98-2.43.45-.66.74-1.2,1.05-2.02.33.41.46.53.87.82-.83,1.81-1.77,2.97-3.12,3.88-1.01.69-2.25,1.18-3.78,1.5-.38.08-.42.09-.63.16l-.31-1.16Zm.76-6.2c1.14.71,1.77,1.19,2.52,1.91l-.72.89c-.77-.82-1.58-1.47-2.49-2l.69-.8Z" fill="#231815"/>
      <path d="m472.73,58.57c.04-.48.06-1,.06-1.43,0-.25-.01-.32-.03-.51l1.12.02c-.04.21-.04.29-.09,1.26,0,.17,0,.29-.04.66h2.33c.45-.01.52-.02.74-.09l.49.43c-.07.17-.09.29-.1.64-.06,2.19-.24,3.79-.51,4.51-.25.63-.62.86-1.4.86-.37,0-.71-.04-1.25-.14,0-.5-.03-.66-.18-1.06.58.17.97.25,1.31.25.45,0,.6-.23.77-1.15.14-.73.24-2.1.24-3.35h-2.52c-.08.71-.09.77-.17,1.15-.28,1.29-.81,2.28-1.7,3.2-.51.53-.93.86-1.6,1.28-.28-.43-.39-.56-.74-.86,1.23-.66,2.06-1.48,2.6-2.57.32-.66.44-1.1.58-2.18h-1.72c-.62,0-.73,0-1.07.05v-1.03c.34.06.58.07,1.08.07h1.8Zm3.76-2.12c.47.53.69.85,1.04,1.5l-.62.34c-.33-.62-.61-1.04-1.04-1.53l.62-.31Zm1.17-.57c.48.53.69.83,1.03,1.46l-.61.35c-.31-.58-.59-1-1.02-1.5l.6-.31Z" fill="#231815"/>
      <path d="m480.12,57.5c-.36,0-.59.01-.85.05v-.91c.27.04.55.06.93.06h1.71c.4,0,.63-.01.91-.06v.9c-.27-.03-.5-.04-.84-.04h-.56c-.13.86-.3,1.47-.65,2.31h1.23c.31,0,.42-.01.6-.03-.02.24-.02.37-.02.76v3.3c0,.39,0,.55.03.8h-.85v-.47h-1.01v1.02h-.91c.04-.27.06-.57.06-1v-1.99c0-.36,0-.58.03-1.03-.18.39-.35.65-.68,1.05-.12-.5-.2-.7-.38-.98.57-.59.95-1.27,1.31-2.3.18-.51.25-.83.34-1.44h-.4Zm.62,5.9h1.03v-2.83h-1.03v2.83Zm3.34-3.56v-2.36c-.43,0-.64.01-.92.05v-.92c.21.04.55.06,1.07.06h2.99c.45,0,.75-.02,1.05-.06v.92c-.29-.04-.52-.05-.99-.05h-.09v2.53h.18c.49,0,.72,0,1-.05v.95c-.29-.04-.53-.05-1-.05h-.18v3.4c0,.42.02.76.06,1.17h-1.02c.05-.43.07-.71.07-1.17v-3.4h-1.35c-.05.98-.13,1.56-.3,2.2-.27,1.02-.62,1.71-1.25,2.47-.24-.28-.45-.44-.8-.61.62-.68.98-1.35,1.23-2.28.13-.5.19-.98.23-1.78h-.11c-.47,0-.69,0-.99.05v-.95c.28.04.5.05.99.05h.13v-.17Zm2.22.17v-2.53h-1.33v2.53h1.33Z" fill="#231815"/>
      <path d="m494.77,61.22c.52,0,.74,0,1.09-.05-.03.27-.04.43-.04.9l-.04,2c0,.27.09.32.64.32.71,0,.85-.04.92-.23.08-.22.13-.79.15-1.53.33.16.47.21.88.3-.16,2.23-.21,2.29-1.99,2.29-1.21,0-1.49-.16-1.49-.88v-.05l.03-2.24h-1.64c-.2.8-.48,1.32-.99,1.85-.61.63-1.48,1.15-2.54,1.54-.17-.36-.27-.49-.57-.82,1.1-.36,1.91-.77,2.41-1.25.38-.35.63-.78.78-1.32h-1.46c-.54,0-.83.01-1.1.06v-.95c.28.04.58.06,1.08.06h1.65c.03-.37.05-.52.05-.71s-.02-.37-.04-.56h1.01c-.04.21-.04.24-.08.75,0,.19-.02.32-.05.52h1.34Zm-1.61-4.23c0-.29-.02-.46-.06-.68h1.03c-.04.2-.05.37-.05.68v.26h2.86c.42,0,.68,0,1.07-.05-.03.21-.04.4-.04.72v.63c0,.31,0,.5.04.73h-.7c-.13.95-.29,1.03-1.95,1.03-1.04,0-1.31-.14-1.31-.66v-1.59h-.99c-.12.59-.22.87-.46,1.22-.35.53-.79.85-1.53,1.12-.24.09-.44.15-.96.3-.15-.28-.27-.46-.51-.77,1.14-.22,1.6-.39,2-.75.32-.29.48-.61.55-1.12h-1.85v1.21h-.92c.03-.23.05-.42.05-.73v-.62c0-.31,0-.5-.04-.72.38.04.63.05,1.06.05h2.71v-.26Zm3.93,1.07h-2.19v1.23c0,.24.07.26.8.26s.78-.06.8-.83c.23.1.32.13.59.18v-.84Z" fill="#231815"/>
      <path d="m501.24,59.44c-.59.4-1.01.64-1.68.94-.14-.34-.3-.59-.52-.84,1.86-.76,3.28-1.85,4.15-3.2h.99c.5.72.92,1.15,1.68,1.71.87.64,1.74,1.12,2.65,1.45-.23.32-.38.62-.49.93-.65-.3-1.08-.53-1.79-1v.81c-.26-.03-.51-.04-.88-.04h-3.29c-.28,0-.58,0-.82.04v-.8Zm-.6,2.61c-.51,0-.84.02-1.16.06v-.98c.32.04.68.06,1.16.06h6.2c.5,0,.85-.02,1.16-.06v.98c-.33-.04-.66-.06-1.16-.06h-3.5c-.38.86-.7,1.46-1.13,2.12q2.34-.18,3.47-.31c-.42-.47-.62-.68-1.09-1.14l.77-.41c1.16,1.16,1.73,1.8,2.35,2.65l-.79.55c-.32-.49-.44-.65-.64-.92-1.66.22-3.56.41-5.05.52-.81.06-1.2.1-1.45.15l-.15-1.02c.22.01.42.02.56.02.08,0,.23,0,.46-.02q.09,0,.49-.02c.49-.75.83-1.4,1.15-2.17h-1.65Zm4.71-2.71c.29,0,.49-.01.7-.02-1.07-.73-1.7-1.31-2.34-2.17-.59.81-1.25,1.43-2.29,2.17.22.02.35.02.65.02h3.28Z" fill="#231815"/>
      <path d="m465.18,79.81c.03.46.1.68.29.93.31.4.86.63,1.55.63,1.07,0,1.72-.5,1.72-1.32,0-.44-.19-.8-.53-.98-.32-.17-.39-.19-1.7-.49-.69-.16-1.1-.31-1.45-.55-.56-.38-.84-.92-.84-1.6,0-1.34,1.07-2.21,2.73-2.21,1.08,0,1.9.34,2.38.98.23.31.35.6.46,1.12l-1.19.14c-.06-.35-.14-.55-.32-.75-.28-.34-.75-.52-1.34-.52-.94,0-1.58.49-1.58,1.21,0,.46.24.78.76.99.25.11.31.12,1.42.36.75.16,1.27.36,1.61.63.52.4.76.9.76,1.61,0,1.52-1.03,2.36-2.87,2.36-1.16,0-2.02-.32-2.52-.94-.31-.39-.44-.74-.55-1.47l1.21-.13Z" fill="#231815"/>
      <path d="m476.52,76.76c-.12-.42-.23-.63-.44-.88-.37-.43-.91-.66-1.57-.66-1.51,0-2.43,1.16-2.43,3.06s.95,3.09,2.44,3.09c.73,0,1.35-.28,1.7-.78.2-.27.29-.51.37-.95l1.19.23c-.18.66-.34,1.01-.62,1.37-.57.72-1.52,1.12-2.67,1.12-1.03,0-1.88-.32-2.48-.93-.7-.72-1.09-1.85-1.09-3.11,0-1.33.43-2.47,1.22-3.22.61-.58,1.38-.86,2.36-.86s1.75.27,2.34.84c.41.39.62.74.83,1.39l-1.15.29Z" fill="#231815"/>
      <path d="m484.83,75.21c.71.71,1.1,1.8,1.1,3.08,0,2.48-1.42,4.08-3.62,4.08s-3.62-1.59-3.62-4.08,1.42-4.05,3.62-4.05c1.04,0,1.87.32,2.52.97Zm-.06,3.07c0-1.04-.29-1.88-.83-2.42-.42-.42-.98-.64-1.63-.64-1.5,0-2.47,1.2-2.47,3.07s.98,3.09,2.48,3.09,2.45-1.19,2.45-3.1Z" fill="#231815"/>
      <path d="m492.78,81c.58.76.69.9.98,1.2h-1.57c-.16-.31-.37-.64-.62-.97l-2.14-2.91-1.12,1.12v1.54c0,.55.02.83.09,1.22h-1.26c.06-.42.08-.72.08-1.22v-5.38c0-.5-.02-.82-.08-1.22h1.26c-.06.33-.09.69-.09,1.22v2.51l2.75-2.81c.39-.4.55-.61.74-.92h1.61c-.42.4-.53.51-1.05,1.05l-2.15,2.17,2.57,3.4Z" fill="#231815"/>
      <path d="m438.59,99.7c.06-.39.08-.72.08-1.22v-5.4c0-.44-.02-.78-.08-1.23.38.02.68.03,1.2.03h2.07c1.69,0,2.61.83,2.61,2.33s-.97,2.46-2.66,2.46h-2.04v1.79c0,.53.02.87.08,1.24h-1.26Zm3.22-3.99c.98,0,1.52-.52,1.52-1.47s-.52-1.4-1.52-1.4h-2.04v2.87h2.04Z" fill="#231815"/>
      <path d="m446.24,97.15c.04.6.14.91.39,1.23.3.39.75.6,1.31.6.52,0,.94-.17,1.25-.52.13-.16.2-.27.3-.55l.99.34c-.19.42-.33.63-.58.88-.5.49-1.17.74-1.97.74-1.68,0-2.75-1.15-2.75-2.96s1.06-2.97,2.68-2.97c1.41,0,2.39.88,2.6,2.34q.02.13.07.87h-4.29Zm3.2-.85c-.06-.49-.2-.8-.48-1.07-.28-.28-.64-.42-1.11-.42-.57,0-1.03.27-1.33.77-.14.23-.19.39-.25.72h3.17Z" fill="#231815"/>
      <path d="m455.19,95.16c-.36-.11-.56-.15-.85-.15-.52,0-.91.17-1.2.53-.24.3-.34.54-.39,1.01v1.92c0,.5.02.79.07,1.23h-1.22c.05-.49.07-.76.07-1.23v-3.14c0-.56-.02-.84-.07-1.23h1.15v.45c0,.08,0,.28-.02.36.42-.65.95-.91,1.83-.91.31,0,.53.02.92.1l-.29,1.06Z" fill="#231815"/>
      <path d="m457.13,97.98c.07.34.15.5.34.67.23.22.58.33,1.05.33.78,0,1.29-.33,1.29-.83,0-.24-.1-.44-.28-.56-.21-.14-.35-.18-1.1-.34-.79-.17-1.11-.27-1.46-.47-.48-.26-.74-.69-.74-1.22,0-.39.16-.76.45-1.04.41-.38.98-.57,1.75-.57s1.35.19,1.73.54c.27.24.4.48.54.96l-1.11.15c-.04-.25-.09-.36-.21-.49-.22-.23-.54-.35-.97-.35-.66,0-1.12.32-1.12.78,0,.21.12.39.32.51.23.12.46.19,1.04.31,1.07.24,1.44.37,1.76.65.33.29.48.64.48,1.13,0,.39-.18.8-.47,1.07-.43.41-1.1.62-1.95.62-.98,0-1.72-.29-2.13-.84-.17-.23-.25-.42-.36-.86l1.15-.15Z" fill="#231815"/>
      <path d="m463.22,91.89v1.12h-1.27v-1.12h1.27Zm-.02,2.22c-.05.36-.07.67-.07,1.24v3.12c0,.52.02.82.07,1.24h-1.23c.05-.46.07-.76.07-1.23v-3.14c0-.52-.02-.85-.07-1.23h1.23Z" fill="#231815"/>
      <path d="m464.53,99.7c.05-.41.07-.72.07-1.23v-3.14c0-.58-.02-.86-.07-1.23h1.13v.43c0,.19,0,.2,0,.21q0,.1-.01.15c.42-.61,1.02-.91,1.81-.91.57,0,1.01.16,1.31.47.15.15.22.26.33.52.21-.29.34-.42.53-.57.38-.27.83-.41,1.39-.41.67,0,1.17.2,1.5.59.3.34.42.76.42,1.41v2.48c0,.54.02.84.07,1.23h-1.22c.05-.4.07-.67.07-1.23v-2.29c0-.47-.05-.71-.2-.92-.16-.23-.46-.36-.8-.36-.46,0-.87.22-1.19.65-.19.25-.27.47-.37.94v1.98c0,.54.02.85.07,1.23h-1.21c.05-.38.07-.69.07-1.23v-2.29c0-.85-.34-1.28-1.01-1.28-.41,0-.86.27-1.17.71-.17.24-.26.44-.38.88v1.98c0,.5.02.79.07,1.23h-1.2Z" fill="#231815"/>
      <path d="m474.31,99.7c.05-.41.07-.72.07-1.23v-3.14c0-.58-.02-.86-.07-1.23h1.13v.43c0,.19,0,.2,0,.21q0,.1-.01.15c.42-.61,1.02-.91,1.81-.91.57,0,1.01.16,1.31.47.15.15.22.26.33.52.21-.29.34-.42.53-.57.38-.27.83-.41,1.39-.41.67,0,1.17.2,1.5.59.3.34.42.76.42,1.41v2.48c0,.54.02.84.07,1.23h-1.22c.05-.4.07-.67.07-1.23v-2.29c0-.47-.05-.71-.2-.92-.16-.23-.46-.36-.8-.36-.46,0-.87.22-1.19.65-.19.25-.27.47-.37.94v1.98c0,.54.02.85.07,1.23h-1.21c.05-.38.07-.69.07-1.23v-2.29c0-.85-.34-1.28-1.01-1.28-.41,0-.86.27-1.17.71-.17.24-.26.44-.38.88v1.98c0,.5.02.79.07,1.23h-1.2Z" fill="#231815"/>
      <path d="m483.84,96.9c0-1.81,1.11-2.96,2.85-2.96s2.84,1.15,2.84,2.95-1.12,2.97-2.83,2.97-2.86-1.15-2.86-2.96Zm1.08-.02c0,1.3.67,2.09,1.77,2.09s1.76-.78,1.76-2.06-.66-2.1-1.75-2.1-1.78.79-1.78,2.07Z" fill="#231815"/>
      <path d="m490.6,99.7c.06-.42.08-.7.08-1.23v-3.14c0-.51-.02-.83-.08-1.23h1.14v.5c0,.07,0,.21-.02.42.54-.71,1.16-1.02,2.04-1.02.73,0,1.31.26,1.65.74.22.31.32.71.32,1.3v2.43c0,.54.02.88.07,1.23h-1.22c.05-.43.07-.74.07-1.23v-2.27c0-.88-.33-1.28-1.06-1.28-.49,0-.89.19-1.29.62-.27.29-.41.53-.56.94v1.99c0,.46.02.82.07,1.23h-1.21Z" fill="#231815"/>
      <path d="m503.74,98.46c0,.53.02.85.08,1.24h-1.28c.05-.29.08-.72.08-1.24v-5.58h-1.43c-.56,0-.94.02-1.28.07v-1.14c.42.05.7.07,1.27.07h3.93c.69,0,1.02-.02,1.36-.07v1.14c-.35-.05-.69-.07-1.36-.07h-1.37v5.58Z" fill="#231815"/>
      <path d="m508.53,98.43v1.27h-1.27v-1.27h1.27Z" fill="#231815"/>
      <path d="m515.27,94.26c-.12-.42-.23-.63-.44-.88-.37-.43-.91-.66-1.57-.66-1.51,0-2.43,1.16-2.43,3.06s.95,3.09,2.44,3.09c.73,0,1.35-.28,1.7-.78.2-.27.29-.51.37-.95l1.19.23c-.18.66-.34,1.01-.62,1.37-.57.72-1.52,1.12-2.67,1.12-1.03,0-1.88-.32-2.48-.93-.7-.72-1.09-1.85-1.09-3.11,0-1.33.43-2.47,1.22-3.22.61-.58,1.38-.86,2.36-.86s1.75.27,2.34.84c.41.39.62.74.83,1.39l-1.15.29Z" fill="#231815"/>
      <path d="m518.89,98.43v1.27h-1.27v-1.27h1.27Z" fill="#231815"/>
      <path d="m451.35,117.2c-.03-.21-.14-.68-.24-1l-1.17-3.96c-.12-.39-.19-.7-.3-1.23-.11.52-.2.93-.29,1.23l-1.16,3.96c-.14.48-.21.76-.25,1h-1.1q-.04-.23-.27-1.02l-1.59-5.63c-.17-.59-.25-.84-.4-1.17h1.36c.02.31.08.65.18,1.06l1.04,4.03c.08.31.19.81.25,1.16.08-.39.22-.95.29-1.17l1.2-4.08c.12-.39.2-.75.22-1h1.04c.04.26.12.63.23.99l1.21,4.07c.07.22.13.49.29,1.19.16-.78.25-1.18.25-1.2l1.03-3.99c.1-.38.17-.78.18-1.06h1.36c-.15.34-.22.58-.39,1.17l-1.6,5.62q-.22.83-.25,1.03h-1.12Z" fill="#231815"/>
      <path d="m456.85,109.39c-.06.37-.08.69-.08,1.22v5.38c0,.53.02.87.08,1.22h-1.28c.06-.38.08-.68.08-1.22v-5.38c0-.56-.02-.84-.08-1.22h1.28Z" fill="#231815"/>
      <path d="m459.52,117.2c-.52,0-.85,0-1.2.03.06-.37.08-.73.08-1.26v-5.22c0-.62-.02-1-.08-1.37h1.28c-.06.4-.08.69-.08,1.36v5.46h2.94c.6,0,.92-.02,1.32-.07v1.14c-.35-.05-.66-.07-1.32-.07h-2.94Z" fill="#231815"/>
      <path d="m464.66,110.6c0-.5-.02-.81-.08-1.24.36.02.62.03,1.2.03h1.77c1.17,0,1.99.28,2.62.88.7.68,1.06,1.69,1.06,2.96s-.39,2.38-1.13,3.1c-.63.6-1.43.88-2.55.88h-1.77c-.56,0-.79,0-1.2.03.06-.39.08-.71.08-1.27v-5.37Zm2.83,5.62c.82,0,1.37-.2,1.81-.66.51-.53.78-1.34.78-2.31s-.24-1.73-.73-2.24c-.43-.44-.97-.63-1.84-.63h-1.74v5.84h1.72Z" fill="#231815"/>
      <path d="m476.98,117.2c-.53,0-.79,0-1.21.03.07-.43.09-.68.09-1.31v-5.4c0-.44-.03-.77-.08-1.16.34.02.55.02,1.2.02h2.26c1.52,0,2.36.68,2.36,1.91,0,.59-.18,1.03-.55,1.38-.22.19-.4.28-.8.41.49.09.73.2,1,.44.41.37.62.87.62,1.52,0,1.38-.91,2.16-2.52,2.16h-2.37Zm2.18-4.56c.83,0,1.32-.44,1.32-1.2s-.46-1.12-1.34-1.12h-2.18v2.32h2.2Zm-2.2,3.61h2.26c.98,0,1.5-.47,1.5-1.34,0-.43-.11-.74-.35-.96-.26-.25-.67-.38-1.18-.38h-2.23v2.68Z" fill="#231815"/>
      <path d="m489.03,110.21c.71.71,1.1,1.8,1.1,3.08,0,2.48-1.42,4.08-3.62,4.08s-3.62-1.59-3.62-4.08,1.42-4.05,3.62-4.05c1.04,0,1.87.32,2.52.97Zm-.06,3.07c0-1.04-.29-1.88-.83-2.42-.42-.42-.98-.64-1.63-.64-1.5,0-2.47,1.2-2.47,3.07s.98,3.09,2.48,3.09,2.45-1.19,2.45-3.1Z" fill="#231815"/>
      <path d="m496.94,117.2c-.07-.34-.18-.75-.29-1.04l-.45-1.17h-3.32l-.45,1.17c-.17.43-.23.66-.3,1.04h-1.4c.17-.3.32-.63.53-1.17l2.22-5.67c.19-.49.27-.73.32-.98h1.44c.05.22.1.37.34.98l2.23,5.67c.25.62.38.92.52,1.17h-1.39Zm-2.21-6.27q-.04-.1-.2-.6-.17.52-.2.6l-1.14,3.1h2.69l-1.15-3.1Z" fill="#231815"/>
      <path d="m504.25,117.2c-.04-.31-.18-.71-.55-1.65-.55-1.36-.92-1.75-1.7-1.75h-1.64v2.16c0,.56.02.87.08,1.24h-1.26c.06-.4.08-.67.08-1.23v-5.39c0-.48-.02-.79-.08-1.23.37.02.67.03,1.2.03h2.32c.8,0,1.37.18,1.79.58.36.34.55.83.55,1.44s-.18,1.12-.55,1.48c-.29.28-.54.4-1.1.55.44.13.68.39,1.03,1.1.21.42.45.94.78,1.7.11.26.33.72.46.97h-1.41Zm-1.73-4.36c.51,0,.97-.23,1.19-.6.12-.2.18-.43.18-.74,0-.35-.1-.64-.3-.84-.23-.23-.54-.33-1.02-.33h-2.21v2.51h2.16Z" fill="#231815"/>
      <path d="m507.69,114.81c.03.46.1.68.29.93.31.4.86.63,1.55.63,1.07,0,1.72-.5,1.72-1.32,0-.44-.19-.8-.53-.98-.32-.17-.39-.19-1.7-.49-.69-.16-1.1-.31-1.45-.55-.56-.38-.84-.92-.84-1.6,0-1.34,1.07-2.21,2.73-2.21,1.08,0,1.9.34,2.38.98.23.31.35.6.46,1.12l-1.19.14c-.06-.35-.14-.55-.32-.75-.28-.34-.75-.52-1.34-.52-.94,0-1.58.49-1.58,1.21,0,.46.24.78.76.99.25.11.31.12,1.42.36.75.16,1.27.36,1.61.63.52.4.76.9.76,1.61,0,1.52-1.03,2.36-2.87,2.36-1.16,0-2.02-.32-2.52-.94-.31-.39-.44-.74-.55-1.47l1.21-.13Z" fill="#231815"/>
    </g>
    <g>
      <path d="m124.55,93.47c-.24,0-.42,0-.63.04v-.5c-.26.24-.33.3-.57.49q-.19-.46-.45-.79c.93-.66,1.47-1.3,1.89-2.25h.96c.4.75.75,1.15,1.53,1.71-.23.26-.31.39-.48.75-.8-.68-1.05-.98-1.5-1.72-.34.64-.63,1.05-1.11,1.55.13,0,.2,0,.36,0h1.38c.29,0,.42,0,.61-.03v.77c-.21-.02-.35-.03-.64-.03h-.28v.9h.43c.39,0,.62-.01.86-.05v.86c-.23-.04-.47-.05-.86-.05h-.43v2.59c.56-.17.75-.23,1.35-.46v.8c-.67.28-1.8.64-3.19,1.04-.08.02-.17.05-.28.08-.17.05-.2.06-.29.08l-.18-.96c.33,0,.76-.09,1.77-.36v-2.81h-.7c-.42,0-.67.01-.95.05v-.86c.26.03.55.05.97.05h.68v-.9h-.25Zm-.79,4.35c-.12-.81-.22-1.27-.47-2.02l.7-.22c.22.61.33,1.05.5,1.98l-.73.26Zm2.12-.74c.23-.59.33-.96.44-1.63l.69.24c-.23.88-.28,1.03-.52,1.62l-.61-.23Zm2.19-4.12c-.19.57-.27.76-.54,1.31-.28-.23-.48-.34-.76-.45.45-.72.74-1.49.88-2.3.06-.3.07-.49.08-.71l.82.17q-.05.23-.11.59c-.05.23-.08.38-.13.59h.8v-.56c0-.24,0-.37,0-.44,0-.36,0-.59-.05-.81h.95c-.04.28-.04.32-.05,1.81h.8c.51,0,.77-.02,1.05-.06v.92c-.32-.04-.68-.06-1.03-.06h-.83c-.03.81-.05,1.21-.08,1.61h1.08c.46,0,.81-.02,1.07-.06v.93c-.3-.04-.66-.06-1.04-.06h-1c.43,1.45,1.11,2.35,2.36,3.13-.29.35-.38.48-.57.86-1.13-.85-1.86-1.81-2.28-2.98-.22.62-.47,1.07-.87,1.58-.45.57-.89.95-1.65,1.41-.16-.34-.31-.56-.58-.83.88-.45,1.34-.82,1.79-1.48.36-.52.59-1.07.72-1.69h-.7c-.42,0-.77.02-1.02.06v-.93c.26.04.62.06.99.06h.85c.04-.54.06-.87.07-1.61h-1.03Z" fill="#231815"/>
      <path d="m133.03,94.14c.24.04.4.05.79.05h.65c.3,0,.53,0,.76-.05-.04.3-.05.56-.05,1.07v2.01c.23.41.46.61.89.79.49.2,1.16.27,2.52.27,1.44,0,2.62-.06,3.64-.2-.17.37-.22.55-.29.99-1,.03-2.74.07-3.24.07-1.36,0-2.15-.07-2.66-.23-.56-.18-.87-.41-1.32-.96-.32.35-.71.69-1.18,1.03-.13.09-.16.12-.29.23l-.43-.93c.4-.16.88-.5,1.5-1.07v-2.21h-.59c-.31,0-.44.01-.7.05v-.91Zm.67-3.67c.73.65,1.17,1.13,1.66,1.79l-.69.63c-.57-.79-.97-1.25-1.63-1.83l.66-.59Zm3.63.9c-.14-.26-.35-.56-.61-.87l.8-.28c.28.37.43.6.73,1.15h.96c.28-.36.5-.74.68-1.15l.88.24c-.23.37-.42.67-.61.91h.75c.46,0,.73-.02.99-.06v.86c-.31-.04-.62-.05-.99-.05h-1.77c-.11.27-.16.38-.3.63h1.52c.48,0,.74-.01.92-.04-.03.27-.04.57-.04.98v2.88c0,.41,0,.69.05,1-.25-.02-.48-.03-.76-.03h-3.37c-.32,0-.65.01-.95.03.02-.28.03-.63.03-.96v-2.94c0-.33-.02-.73-.05-.95.24.02.56.03,1.01.03h.73c.14-.25.22-.41.3-.63h-1.56c-.49,0-.73.01-1.01.04v-.85c.24.04.53.06,1.03.06h.64Zm-.27,5.44h3.34v-.65h-3.34v.65Zm0-2.7h3.34v-.63h-3.34v.63Zm0,1.34h3.34v-.63h-3.34v.63Z" fill="#231815"/>
      <path d="m143.94,91.46c-.36,0-.59.01-.85.05v-.91c.27.04.55.06.93.06h1.71c.4,0,.63-.01.91-.06v.9c-.27-.03-.5-.04-.84-.04h-.56c-.13.86-.3,1.47-.65,2.31h1.23c.31,0,.42-.01.6-.03-.02.24-.02.37-.02.76v3.3c0,.39,0,.55.03.8h-.85v-.47h-1.01v1.02h-.91c.04-.27.06-.57.06-1v-1.99c0-.36,0-.58.03-1.03-.18.39-.35.65-.68,1.05-.12-.5-.2-.7-.38-.98.57-.59.95-1.27,1.31-2.3.18-.51.25-.83.34-1.44h-.4Zm.62,5.9h1.03v-2.83h-1.03v2.83Zm3.34-3.56v-2.36c-.43,0-.64.01-.92.05v-.92c.21.04.55.06,1.07.06h2.99c.45,0,.75-.02,1.05-.06v.92c-.29-.04-.52-.05-.99-.05h-.09v2.53h.18c.49,0,.72,0,1-.05v.95c-.29-.04-.53-.05-1-.05h-.18v3.4c0,.42.02.76.06,1.17h-1.02c.05-.43.07-.71.07-1.17v-3.4h-1.35c-.05.98-.13,1.56-.3,2.2-.27,1.02-.62,1.71-1.25,2.47-.24-.28-.45-.44-.8-.61.62-.68.98-1.35,1.23-2.28.13-.5.19-.98.23-1.78h-.11c-.47,0-.69,0-.99.05v-.95c.28.04.5.05.99.05h.13v-.17Zm2.22.17v-2.53h-1.33v2.53h1.33Z" fill="#231815"/>
      <path d="m158.6,95.19c.52,0,.74,0,1.09-.05-.03.27-.04.43-.04.9l-.04,2c0,.27.09.32.64.32.71,0,.85-.04.92-.23.08-.22.13-.79.15-1.53.33.16.47.21.88.3-.16,2.23-.21,2.29-1.99,2.29-1.21,0-1.49-.16-1.49-.88v-.05l.03-2.24h-1.64c-.2.8-.48,1.32-.99,1.85-.61.63-1.48,1.15-2.54,1.54-.17-.36-.27-.49-.57-.82,1.1-.36,1.91-.77,2.41-1.25.38-.35.63-.78.78-1.32h-1.46c-.54,0-.83.01-1.1.06v-.95c.28.04.58.06,1.08.06h1.65c.03-.37.05-.52.05-.71s-.02-.37-.04-.56h1.01c-.04.21-.04.24-.08.75,0,.19-.02.32-.05.52h1.34Zm-1.61-4.23c0-.29-.02-.46-.06-.68h1.03c-.04.2-.05.37-.05.68v.26h2.86c.42,0,.68,0,1.07-.05-.03.21-.04.4-.04.72v.63c0,.31,0,.5.04.73h-.7c-.13.95-.29,1.03-1.95,1.03-1.04,0-1.31-.14-1.31-.66v-1.59h-.99c-.12.59-.22.87-.46,1.22-.35.53-.79.85-1.53,1.12-.24.09-.44.15-.96.3-.15-.28-.27-.46-.51-.77,1.14-.22,1.6-.39,2-.75.32-.29.48-.61.55-1.12h-1.85v1.21h-.92c.03-.23.05-.42.05-.73v-.62c0-.31,0-.5-.04-.72.38.04.63.05,1.06.05h2.71v-.26Zm3.93,1.07h-2.19v1.23c0,.24.07.26.8.26s.78-.06.8-.83c.23.1.32.13.59.18v-.84Z" fill="#231815"/>
      <path d="m165.06,93.4c-.59.4-1.01.64-1.68.94-.14-.34-.3-.59-.52-.84,1.86-.76,3.28-1.85,4.15-3.2h.99c.5.72.92,1.15,1.68,1.71.87.64,1.74,1.12,2.65,1.45-.23.32-.38.62-.49.93-.65-.3-1.08-.53-1.79-1v.81c-.26-.03-.51-.04-.88-.04h-3.29c-.28,0-.58,0-.82.04v-.8Zm-.6,2.61c-.51,0-.84.02-1.16.06v-.98c.32.04.68.06,1.16.06h6.2c.5,0,.85-.02,1.16-.06v.98c-.33-.04-.66-.06-1.16-.06h-3.5c-.38.86-.7,1.46-1.13,2.12q2.34-.18,3.47-.31c-.42-.47-.62-.68-1.09-1.14l.77-.41c1.16,1.16,1.73,1.8,2.35,2.65l-.79.55c-.32-.49-.44-.65-.64-.92-1.66.22-3.56.41-5.05.52-.81.06-1.2.1-1.45.15l-.15-1.02c.22.01.42.02.56.02.08,0,.23,0,.46-.02q.09,0,.49-.02c.49-.75.83-1.4,1.15-2.17h-1.65Zm4.71-2.71c.29,0,.49-.01.7-.02-1.07-.73-1.7-1.31-2.34-2.17-.59.81-1.25,1.43-2.29,2.17.22.02.35.02.65.02h3.28Z" fill="#231815"/>
    </g>
    <g>
      <path d="m82.02,215.76c-.34-.05-.64-.07-1.22-.07h-3.05c-.56,0-.79.01-1.2.03.06-.39.08-.72.08-1.27v-5.38c0-.48-.02-.79-.08-1.23.36.02.64.03,1.2.03h2.95c.49,0,.9-.02,1.22-.07v1.12c-.36-.05-.67-.07-1.22-.07h-2.96v2.27h2.51c.5,0,.83-.02,1.23-.07v1.12c-.37-.05-.64-.07-1.23-.07h-2.52v2.6h3.07c.55,0,.82-.02,1.22-.07v1.13Z" fill="#231815"/>
      <path d="m84.21,213.3c.03.46.1.68.29.93.31.4.86.63,1.55.63,1.07,0,1.72-.5,1.72-1.32,0-.44-.19-.8-.53-.98-.32-.17-.39-.19-1.7-.49-.69-.16-1.1-.31-1.45-.55-.56-.38-.84-.92-.84-1.6,0-1.34,1.07-2.21,2.73-2.21,1.08,0,1.9.34,2.38.98.23.31.35.6.46,1.12l-1.19.14c-.06-.35-.14-.55-.32-.75-.28-.34-.75-.52-1.34-.52-.94,0-1.58.49-1.58,1.21,0,.46.24.78.76.99.25.11.31.12,1.42.36.75.16,1.27.36,1.61.63.52.4.76.9.76,1.61,0,1.52-1.03,2.36-2.87,2.36-1.16,0-2.02-.32-2.52-.94-.31-.39-.44-.74-.55-1.47l1.21-.13Z" fill="#231815"/>
      <path d="m91.17,213.3c.03.46.1.68.29.93.31.4.86.63,1.55.63,1.07,0,1.72-.5,1.72-1.32,0-.44-.19-.8-.53-.98-.32-.17-.39-.19-1.7-.49-.69-.16-1.1-.31-1.45-.55-.56-.38-.84-.92-.84-1.6,0-1.34,1.07-2.21,2.73-2.21,1.08,0,1.9.34,2.38.98.23.31.35.6.46,1.12l-1.19.14c-.06-.35-.14-.55-.32-.75-.28-.34-.75-.52-1.34-.52-.94,0-1.58.49-1.58,1.21,0,.46.24.78.76.99.25.11.31.12,1.42.36.75.16,1.27.36,1.61.63.52.4.76.9.76,1.61,0,1.52-1.03,2.36-2.87,2.36-1.16,0-2.02-.32-2.52-.94-.31-.39-.44-.74-.55-1.47l1.21-.13Z" fill="#231815"/>
    </g>
    <g>
      <path d="m73.36,113.07c-.39.53-.75.91-1.2,1.28-.29-.34-.35-.4-.69-.66.53-.36.92-.73,1.26-1.18.29-.39.41-.62.59-1.09l.85.31c-.14.27-.19.36-.33.61h1.75v-.09c0-.27,0-.44-.03-.64h.98c-.03.22-.04.37-.04.64v.09h2.48c.51,0,.84-.02,1.12-.06v.85c-.29-.04-.62-.06-1.12-.06h-2.48v.78h1.96c.57,0,.88-.01,1.15-.05v.84c-.31-.04-.67-.06-1.16-.06h-1.95v.9h2.83c.54,0,.88-.02,1.17-.06v.91c-.34-.05-.74-.07-1.21-.07h-6.6c-.44,0-.79.02-1.13.07v-.91c.29.04.61.06,1.1.06h2.94v-.9h-1.57c-.49,0-.77,0-1.04.05v-.83c.26.04.48.05,1.04.05h1.57v-.78h-2.24Zm.21-1.66c-.51,0-.76.01-1,.04.02-.21.04-.49.04-.89v-1.86c0-.4-.01-.64-.04-.92.3.03.54.04.97.04h4.93c.47,0,.68-.01.98-.04-.03.24-.04.45-.04.87v1.9c0,.44,0,.66.04.9-.24-.03-.46-.04-.97-.04h-4.91Zm-.07-2.14h5.02v-.68h-5.02v.68Zm0,1.4h5.02v-.68h-5.02v.68Z" fill="#231815"/>
      <path d="m81.92,110.02c.67.39,1.1.7,1.75,1.24l-.54.76c-.65-.61-1.03-.91-1.73-1.33l.52-.67Zm1.77,3.26c-.36,1.07-.7,1.89-1.17,2.79-.09.17-.13.25-.18.38l-.81-.68c.18-.21.31-.41.49-.74.38-.71.59-1.24.9-2.29l.77.54Zm-1.25-5.76c.67.42,1.07.73,1.68,1.29l-.58.72c-.57-.58-.98-.92-1.66-1.38l.56-.63Zm4.1,4.28c-.05.1-.07.16-.17.4-.6,1.5-1.41,2.62-2.5,3.46-.19-.32-.38-.55-.59-.74.58-.4.97-.75,1.35-1.23.37-.46.59-.85.88-1.56h-.96c-.3,0-.51,0-.72.05v-.89c.19.03.36.04.68.04h.93c.35,0,.48,0,.64-.04l.46.51Zm3.94-1.43c-.84,1-1.29,1.48-1.9,2.01.6,1,1.24,1.67,2.23,2.33-.36.41-.42.49-.63.83-.63-.49-1.1-.97-1.57-1.62-.48-.68-.74-1.19-1.09-2.17.04.59.07,1.42.07,1.75v2.14c0,.32-.08.51-.25.64-.18.12-.43.16-.97.16-.24,0-.57,0-.97-.04-.04-.4-.09-.61-.2-.91.52.08.84.11,1.18.11.3,0,.35-.03.35-.23v-5.04h-1.14c-.36,0-.65,0-.92.05v-.93c.27.04.59.06.95.06h1.26c.4,0,.55,0,.77-.04-.01.06-.01.11-.01.12,0,.53.2,1.29.54,2.04.71-.64,1.1-1.12,1.51-1.87l.79.61Zm-4.78-2.88c1.17.21,1.96.43,2.95.83l-.42.81c-.99-.46-1.76-.68-2.98-.87l.45-.77Z" fill="#231815"/>
      <path d="m93.58,110.58c-.59.4-1.01.64-1.68.94-.14-.34-.3-.59-.52-.84,1.86-.76,3.28-1.85,4.15-3.2h.99c.5.72.92,1.15,1.68,1.71.87.64,1.74,1.12,2.65,1.45-.23.32-.38.62-.49.93-.65-.3-1.08-.53-1.79-1v.81c-.26-.03-.51-.04-.88-.04h-3.29c-.28,0-.58,0-.82.04v-.8Zm-.6,2.61c-.51,0-.84.02-1.16.06v-.98c.32.04.68.06,1.16.06h6.2c.5,0,.85-.02,1.16-.06v.98c-.33-.04-.66-.06-1.16-.06h-3.5c-.38.86-.7,1.46-1.13,2.12q2.34-.18,3.47-.31c-.42-.47-.62-.68-1.09-1.14l.77-.41c1.16,1.16,1.73,1.8,2.35,2.65l-.79.55c-.32-.49-.44-.65-.64-.92-1.66.22-3.56.41-5.05.52-.81.06-1.2.1-1.45.15l-.15-1.02c.22.01.42.02.56.02.08,0,.23,0,.46-.02q.09,0,.49-.02c.49-.75.83-1.4,1.15-2.17h-1.65Zm4.71-2.71c.29,0,.49-.01.7-.02-1.07-.73-1.7-1.31-2.34-2.17-.59.81-1.25,1.43-2.29,2.17.22.02.35.02.65.02h3.28Z" fill="#231815"/>
    </g>
    <g>
      <path d="m512.5,344.56c1.06.18,1.96,1.03,1.96,2.33,0,1.43-1.03,2.67-3.05,2.67-.9,0-1.71-.29-2.12-.58l.3-.77c.32.22,1.04.54,1.83.54,1.51,0,2-1.06,2-1.88,0-1.32-1.12-1.92-2.29-1.92h-.59v-.74h.59c.86,0,1.98-.54,1.98-1.67,0-.78-.47-1.45-1.55-1.45-.66,0-1.28.32-1.64.59l-.3-.73c.43-.34,1.27-.67,2.13-.67,1.64,0,2.38,1.04,2.38,2.12,0,.92-.59,1.75-1.63,2.12v.04Z" fill="#231815"/>
      <path d="m520.92,340.43v.83h-3.23l-.37,2.54c.19-.02.38-.05.7-.05,1.59,0,3.02.95,3.02,2.76s-1.32,3.05-3.09,3.05c-.9,0-1.66-.26-2.06-.53l.29-.78c.34.23,1,.5,1.78.5,1.13,0,2.1-.83,2.09-2.12,0-1.24-.79-2.1-2.47-2.1-.48,0-.85.04-1.15.08l.56-4.19h3.95Z" fill="#231815"/>
      <path d="m522.44,344.95c0-3.14,1.22-4.67,2.9-4.67s2.75,1.61,2.75,4.55c0,3.12-1.09,4.73-2.88,4.73-1.63,0-2.77-1.61-2.77-4.61Zm4.64-.07c0-2.24-.54-3.79-1.8-3.79-1.07,0-1.82,1.43-1.82,3.79s.66,3.86,1.79,3.86c1.33,0,1.83-1.73,1.83-3.86Z" fill="#231815"/>
    </g>
    <g>
      <path d="m194.23,91.31c-.11.18-.16.28-.33.68-.61,1.46-1,2.23-1.44,2.87.85.7,1.41,1.23,2.26,2.14l-.8.86c-.51-.68-1.11-1.29-2.08-2.14-.43.59-.99,1.19-1.63,1.76-.71.62-1.34,1.06-2.35,1.63-.23-.41-.36-.56-.73-.87,1.63-.8,2.83-1.78,3.91-3.19-.82-.67-1.8-1.33-2.67-1.8l.73-.74c.72.43,1.17.72,1.64,1.06l.89.63c.42-.69.78-1.4,1.11-2.24.24-.57.29-.75.35-1.05l1.14.4Z" fill="#231815"/>
      <path d="m201.41,90.77q-.11.18-.32.61c-.13.27-.2.4-.27.5.06,0,.2-.01.41-.02l2.38-.03c.34,0,.54-.03.76-.1l.58.58c-.12.16-.14.22-.3.66-.34.92-.87,2.06-1.31,2.76-1.01,1.61-2.38,2.75-4.5,3.73-.26-.44-.37-.59-.69-.87.86-.34,1.37-.61,2-1.03.73-.49,1.17-.87,1.67-1.47-.71-.62-1.36-1.09-2.13-1.51l.65-.73c.84.48,1.31.8,2.09,1.43.5-.78.91-1.63,1.21-2.54l-3.25.03c-.7,1.07-1.38,1.84-2.35,2.64-.28-.31-.4-.41-.84-.67,1.08-.8,1.9-1.72,2.53-2.86.3-.54.5-1.01.58-1.37l1.1.26Z" fill="#231815"/>
      <path d="m210.33,91.63l-.13.74c-.44,2.96-1.18,4.78-2.59,6.39-.4-.39-.53-.49-.94-.72.6-.59,1.02-1.19,1.44-2.07.44-.92.81-2.2.98-3.44.06-.44.09-.74.09-1.11l1.15.21Zm2.81-.21c.03.56.2,1.46.44,2.34.48,1.81,1.17,3.12,2.24,4.25-.42.27-.56.38-.9.77-.69-.8-1.21-1.66-1.69-2.8-.45-1.07-.8-2.38-.99-3.66-.06-.37-.09-.54-.13-.7l1.03-.2Zm.93-.71c.47.53.69.85,1.04,1.5l-.62.34c-.33-.62-.61-1.04-1.04-1.53l.62-.31Zm1.17-.57c.48.53.69.83,1.03,1.46l-.61.35c-.31-.58-.59-1-1.02-1.5l.6-.31Z" fill="#231815"/>
      <path d="m217.07,94.4c.37.05.8.07,1.54.07h5.41c.86,0,1.1,0,1.49-.06v1.16c-.44-.04-.76-.05-1.5-.05h-5.39c-.84,0-1.14.01-1.55.05v-1.17Z" fill="#231815"/>
      <path d="m234.66,99.11c-.79-1-1.89-2.05-3.12-3.03-1.16,1.31-2.25,2.15-3.82,2.93-.22-.43-.32-.56-.68-.93.77-.3,1.25-.57,2.01-1.11,1.54-1.11,2.78-2.64,3.45-4.25q.03-.09.06-.15s.02-.04.04-.09c-.12.01-.18.01-.31.01l-2.9.05c-.62.01-.81.02-1.28.08l-.03-1.09c.34.04.59.06,1.03.06h.27l3.33-.05c.48,0,.57-.02.79-.1l.56.59c-.12.13-.2.27-.3.51-.48,1.11-.99,1.99-1.6,2.76,1.26.91,2.06,1.61,3.33,2.89l-.83.92Z" fill="#231815"/>
    </g>
    <g>
      <path d="m194.15,221.25c0,.43.02.73.06.99h-.92c.04-.27.06-.58.06-1.02v-.58h-.82c-.44,0-.63,0-.93.06v-.86c.28.04.47.05.93.05h.82v-.72h-.46c-.42,0-.69.01-1.01.03.03-.31.04-.65.04-1.1v-1.54c0-.46,0-.73-.04-1.06.26.03.52.04,1.01.04h.46v-.74h-.77c-.43,0-.65.01-.94.05v-.85c.29.05.48.06.94.06h.77c0-.52-.02-.71-.06-.99h.92c-.04.24-.06.5-.06.99h.53c.45,0,.64-.01.93-.06v.84c-.3-.03-.48-.04-.93-.04h-.53v.74h.54c.47,0,.68-.01.95-.03-.03.26-.04.47-.04,1.01v.64c.76-.28,1.36-.59,1.93-1-.5-.5-.89-1.08-1.21-1.79-.25,0-.36.01-.52.03v-.89c.26.04.54.06.97.06h2.31c.33,0,.55-.01.71-.05l.51.54c-.09.13-.15.22-.26.39-.6.95-.78,1.19-1.33,1.72.59.42,1.28.73,2.1.94-.24.31-.37.52-.48.8-1-.39-1.57-.7-2.21-1.21-.66.52-1.22.84-2.05,1.21-.14-.29-.28-.49-.47-.68v.89c0,.48,0,.82.04,1.08-.31-.03-.47-.03-.97-.03h-.52v.72h.88c.43,0,.58-.01.83-.04v.85c-.29-.05-.48-.06-.86-.06h-.85v.61Zm-1.51-5.02v.75h.74v-.75h-.74Zm0,1.4v.85h.74v-.85h-.74Zm2.25-.65v-.75h-.75v.75h.75Zm0,1.5v-.85h-.75v.85h.75Zm4.57.25c.45,0,.63,0,.88-.05v.9c-.27-.04-.49-.05-.89-.05h-1.01v1.55h1.23c.44,0,.72-.02.99-.06v.93c-.28-.04-.57-.06-.99-.06h-3.28c-.42,0-.71.02-.99.06v-.92c.27.04.51.05.95.05h1.25v-1.55h-.71c-.41,0-.66,0-.92.05v-.9c.25.04.48.05.94.05h.69v-.33c0-.48-.01-.73-.05-.99h.94c-.04.25-.05.5-.05.99v.33h1.02Zm-2.29-4.37c.24.5.55.94.94,1.32.47-.44.72-.77,1.01-1.32h-1.95Z" fill="#231815"/>
      <path d="m205.49,213.68c0-.22-.02-.42-.06-.65h1.05c-.04.22-.06.41-.06.64v.26h2.36c.54,0,.89-.02,1.18-.06v.91c-.31-.03-.6-.04-1.05-.04h-.48c-.29.68-.48,1.07-.66,1.39h1.62c.59,0,.89,0,1.16-.05v.91c-.27-.04-.58-.05-1.17-.05h-6.64c-.59,0-.88.01-1.16.05v-.91c.29.04.6.05,1.19.05h1.38c-.13-.46-.32-.92-.58-1.39h-.46c-.45,0-.69,0-1.01.04v-.91c.28.04.61.06,1.12.06h2.27v-.25Zm2.84,3.92c.37,0,.55,0,.93-.04-.03.31-.04.53-.04.85v2.9c0,.39.02.65.06.94h-.96v-.46h-4.55v.46h-.96c.04-.31.06-.58.06-.94v-2.9c0-.29-.01-.54-.04-.85.35.03.57.04.93.04h4.57Zm-4.56,1.65h4.55v-.85h-4.55v.85Zm0,1.75h4.55v-.97h-4.55v.97Zm3.07-4.87c.25-.42.44-.86.63-1.39h-2.92c.2.41.41.93.56,1.39h1.73Z" fill="#231815"/>
      <path d="m216.54,221.32c0,.72-.23.87-1.32.87-.24,0-.75-.02-1.1-.04-.09-.45-.14-.6-.28-.89.51.07.94.1,1.27.1.45,0,.52-.03.52-.24v-1.69h-2.83c-.5,0-.86.02-1.15.06v-.93c.31.04.69.06,1.14.06h2.84v-.11c0-.2,0-.39-.03-.57h.43c.55-.27.95-.54,1.44-.94h-3.14c-.38,0-.7.02-.98.05v-.86c.29.04.6.05,1,.05h3.43c.37,0,.57-.01.75-.04l.48.52c-.14.13-.24.2-.27.23-.77.66-1.35,1.06-2.2,1.53v.14h2.76c.46,0,.87-.02,1.16-.06v.93c-.29-.04-.67-.06-1.17-.06h-2.75v1.89Zm-3.05-6.66c-.26-.47-.41-.69-.83-1.19l.85-.26c.37.46.59.8.95,1.45h1.22c-.15-.44-.36-.86-.66-1.33l.88-.24c.38.7.5.98.71,1.57h.95c.43-.54.64-.89.9-1.54l.9.29c-.26.46-.58.93-.83,1.25h.58c.64,0,.83-.01,1.2-.04-.03.25-.04.46-.04.83v.85c0,.26.02.5.05.74h-.92v-1.61h-6.73v1.61h-.92c.03-.22.05-.46.05-.74v-.85c0-.37-.01-.58-.04-.83.43.04.56.04,1.17.04h.56Z" fill="#231815"/>
      <path d="m225.78,216.83c.44,0,.69-.01.89-.05v.93c-.22-.04-.48-.05-.85-.05h-3.35c-.47,0-.72,0-.98.05v-.93c.25.04.5.05.99.05h2.04c.31-.66.45-1.09.61-1.78l.86.24c-.18.59-.33.95-.63,1.54h.42Zm-.14-2.71c.44,0,.68-.01.92-.05v.91c-.21-.04-.44-.05-.87-.05h-3.12c-.39,0-.63,0-.85.05v-.91c.24.04.47.05.94.05h1.1v-.32c0-.29-.02-.53-.06-.72h1.02c-.04.2-.06.42-.06.72v.32h.98Zm-2.65,8.09h-.91c.03-.25.04-.49.04-.92v-2.12c0-.43,0-.62-.03-.83.22.02.41.03.79.03h2.51c.39,0,.58,0,.72-.03-.03.21-.03.31-.03.78v2.33c0,.34,0,.53.04.75h-.92v-.58h-2.21v.59Zm.17-7.19c.26.5.38.81.58,1.5l-.82.26c-.16-.65-.26-.94-.54-1.49l.78-.27Zm-.17,5.8h2.22v-1.65h-2.22v1.65Zm7.66-6.9c-.07.14-.1.21-.19.43-.31.79-.71,1.62-1.14,2.42.58.64.81.97,1.03,1.49.18.45.28.94.28,1.39,0,.55-.19.95-.52,1.15-.22.13-.54.19-1.06.19-.25,0-.38,0-.66-.03,0-.41-.05-.62-.19-.91.32.05.56.07.85.07.52,0,.7-.14.7-.54,0-.44-.11-.88-.32-1.32-.24-.48-.48-.79-1.1-1.36.61-1.1.89-1.73,1.19-2.69h-1.63v6.93c0,.54.02.85.07,1.15h-1.01c.04-.31.06-.68.06-1.13v-6.94c0-.29-.01-.56-.04-.86.25.02.48.03.81.03h1.69c.38,0,.59-.01.78-.04l.4.57Z" fill="#231815"/>
    </g>
  </g>
</svg>