<?xml version="1.0" encoding="UTF-8"?>
<svg xmlns="http://www.w3.org/2000/svg" width="720" height="320" viewBox="0 0 720 320">
  <g id="_背景" data-name="背景">
    <polyline id="base" points="0 0 720 0 720 320 0 320" fill="#dcdddd"/>
  </g>
  <g id="_廊下" data-name="廊下">
    <polyline points="158.63 201.4 132.55 201.4 132.55 133.68 98.37 133.68 98.37 178.61 80.05 178.61 80.05 38.14 662.3 38.19 662.3 73.85 588.85 73.85 588.85 294.07 565.21 294.07 564.78 73.85 464.75 73.85 201.48 73.85 201.48 104.46 191.28 104.46 191.28 134.06 158.63 134.06 158.63 201.4" fill="#b5b5b6" stroke="#273331" stroke-miterlimit="10"/>
    <rect x="158.63" y="104.49" width="32.61" height="29.57" fill="#b5b5b6" stroke="#273331" stroke-miterlimit="10"/>
    <g id="_矢印" data-name="矢印">
      <path d="m652.11,58.25l3.84,4,.06-2.94,14.71.29.04-1.96-14.71-.29.06-2.94-4,3.84Z" fill="#040000"/>
      <path d="m672.48,58.65l-3.84-4-.06,2.94-14.71-.29-.04,1.96,14.71.29-.06,2.94,4-3.84Z" fill="#040000"/>
    </g>
    <g id="_矢印-2" data-name="矢印">
      <path d="m356.51,25.93l-4,3.84,2.94.06-.29,14.71,1.96.04.29-14.71,2.94.06-3.84-4Z" fill="#040000"/>
      <path d="m356.11,46.31l4-3.84-2.94-.06.29-14.71-1.96-.04-.29,14.71-2.94-.06,3.84,4Z" fill="#040000"/>
    </g>
    <g id="_矢印-3" data-name="矢印">
      <path d="m149.44,26.79l-4,3.84,2.94.06-.29,14.71,1.96.04.29-14.71,2.94.06-3.84-4Z" fill="#040000"/>
      <path d="m149.04,47.17l4-3.84-2.94-.06.29-14.71-1.96-.04-.29,14.71-2.94-.06,3.84,4Z" fill="#040000"/>
    </g>
  </g>
  <g id="_車椅子用トイレ" data-name="車椅子用トイレ">
    <polyline points="98.37 156.42 132.55 156.42 132.55 133.68 98.37 133.68 98.37 156.42" fill="#7cc05a" stroke="#283331" stroke-miterlimit="10"/>
    <rect x="546.56" y="131.11" width="18.31" height="17.8" fill="#7cc05a" stroke="#283331" stroke-miterlimit="10"/>
    <g>
      <path d="m557.36,134.89c.84-.22,1.35-1.08,1.14-1.92-.22-.84-1.07-1.35-1.92-1.14-.84.22-1.35,1.08-1.14,1.92.22.84,1.08,1.35,1.92,1.14Z" fill="#fff"/>
      <path d="m558.82,138.95l-.13,1.36c.21.14.41.3.59.48.66.66,1.06,1.56,1.06,2.57,0,1.01-.41,1.91-1.06,2.57-.66.66-1.56,1.06-2.57,1.06-1.01,0-1.91-.41-2.57-1.06-.47-.47-.8-1.06-.96-1.73l-.71,1.57c.84,1.48,2.43,2.47,4.25,2.47,2.7,0,4.89-2.19,4.89-4.89,0-1.94-1.14-3.62-2.78-4.4Z" fill="#fff"/>
      <path d="m555.64,143.06c1.38-.02,2.03-.6,2.18-1.93l.4-4.2c.06-.71-.36-1.33-1.07-1.39-.45-.04-.94.19-1.23.49l-1.97,1.94-2.06.17c-.33.03-.59.3-.59.64v.04c0,.35.29.64.64.64h2.43l1.11-.82-.18,2.05-2.69.2c-.78.03-1.13.34-1.42,1.05l-1.27,3.49c-.19.43,0,.93.43,1.12.43.19.93,0,1.12-.43l1.43-3.06h2.75Z" fill="#fff"/>
    </g>
    <g>
      <path d="m117.34,140.5c.84-.22,1.35-1.08,1.14-1.92-.22-.84-1.07-1.35-1.92-1.14-.84.22-1.35,1.08-1.14,1.92.22.84,1.08,1.35,1.92,1.14Z" fill="#fff"/>
      <path d="m118.8,144.57l-.13,1.36c.21.14.41.3.59.48.66.66,1.06,1.56,1.06,2.57,0,1.01-.41,1.91-1.06,2.57-.66.66-1.56,1.06-2.57,1.06-1.01,0-1.91-.41-2.57-1.06-.47-.47-.8-1.06-.96-1.73l-.71,1.57c.84,1.48,2.43,2.47,4.25,2.47,2.7,0,4.89-2.19,4.89-4.89,0-1.94-1.14-3.62-2.78-4.4Z" fill="#fff"/>
      <path d="m115.62,148.67c1.38-.02,2.03-.6,2.18-1.93l.4-4.2c.06-.71-.36-1.33-1.07-1.39-.45-.04-.94.19-1.23.49l-1.97,1.94-2.06.17c-.33.03-.59.3-.59.64v.04c0,.35.29.64.64.64h2.43l1.11-.82-.18,2.05-2.69.2c-.78.03-1.13.34-1.42,1.05l-1.27,3.49c-.19.43,0,.93.43,1.12.43.19.93,0,1.12-.43l1.43-3.06h2.75Z" fill="#fff"/>
    </g>
  </g>
  <g id="_女子トイレ" data-name="女子トイレ">
    <rect x="98.37" y="156.42" width="34.18" height="22.2" fill="#f19899" stroke="#283331" stroke-miterlimit="10"/>
    <rect x="503.46" y="148.91" width="61.42" height="52.49" fill="#f19899" stroke="#283331" stroke-miterlimit="10"/>
  </g>
  <g id="_男子トイレ" data-name="男子トイレ">
    <rect x="80.05" y="178.61" width="52.5" height="22.79" fill="#54c3f1" stroke="#283331" stroke-miterlimit="10"/>
    <polygon points="564.78 73.85 503.46 73.85 503.46 148.91 546.56 148.91 546.56 131.11 564.88 131.11 564.78 73.85" fill="#54c3f1" stroke="#283331" stroke-miterlimit="10"/>
  </g>
  <g id="_トイレマーク" data-name="トイレマーク">
    <g id="_男女" data-name="男女">
      <path d="m121.49,170.61c1.77,0,3.21-1.44,3.21-3.21s-1.44-3.21-3.21-3.21-3.21,1.44-3.21,3.21,1.44,3.21,3.21,3.21Z" fill="#fff"/>
      <path d="m109.54,170.61c1.77,0,3.21-1.44,3.21-3.21s-1.44-3.21-3.21-3.21-3.21,1.44-3.21,3.21,1.44,3.21,3.21,3.21Z" fill="#fff"/>
      <path d="m126.36,183.07l-4.4-10.36c-.08-.19-.26-.31-.47-.31s-.39.12-.47.31l-4.4,10.36c-.27.62-.2,1.34.17,1.91.37.57,1.01.91,1.69.91h6.02c.68,0,1.31-.34,1.69-.91.37-.57.44-1.28.17-1.91Z" fill="#fff"/>
      <path d="m112.55,172.4h-6.02c-.68,0-1.31.34-1.69.91-.37.57-.44,1.28-.17,1.91l4.4,10.36c.08.19.26.31.47.31s.39-.12.47-.31l4.4-10.36c.27-.62.2-1.34-.17-1.91-.37-.57-1.01-.91-1.69-.91Z" fill="#fff"/>
    </g>
    <g id="_男女-2" data-name="男女">
      <path d="m534.6,106.96c1.77,0,3.21-1.44,3.21-3.21s-1.44-3.21-3.21-3.21-3.21,1.44-3.21,3.21,1.44,3.21,3.21,3.21Z" fill="#fff"/>
      <path d="m537.61,108.74h-6.02c-.68,0-1.31.34-1.69.91-.37.57-.44,1.28-.17,1.91l4.4,10.36c.08.19.26.31.47.31s.39-.12.47-.31l4.4-10.36c.27-.62.2-1.34-.17-1.91-.37-.57-1.01-.91-1.69-.91Z" fill="#fff"/>
    </g>
    <g id="_男女-3" data-name="男女">
      <path d="m534.6,170.73c1.77,0,3.21-1.44,3.21-3.21s-1.44-3.21-3.21-3.21-3.21,1.44-3.21,3.21,1.44,3.21,3.21,3.21Z" fill="#fff"/>
      <path d="m539.47,183.19l-4.4-10.36c-.08-.19-.26-.31-.47-.31s-.39.12-.47.31l-4.4,10.36c-.27.62-.2,1.34.17,1.91.37.57,1.01.91,1.69.91h6.02c.68,0,1.31-.34,1.69-.91.37-.57.44-1.28.17-1.91Z" fill="#fff"/>
    </g>
  </g>
  <g id="_使用不可能部屋" data-name="使用不可能部屋">
    <polygon points="158.63 134.06 191.28 134.06 191.28 104.46 201.48 104.46 201.48 73.85 464.75 73.85 464.75 201.4 158.63 201.4 158.63 134.06" fill="#929292" stroke="#273331" stroke-miterlimit="10"/>
    <rect x="11.18" y="38.14" width="68.88" height="163.27" fill="#929292" stroke="#273331" stroke-miterlimit="10"/>
    <rect x="464.75" y="254.22" width="34.31" height="39.85" fill="#929292" stroke="#273331" stroke-miterlimit="10"/>
    <rect x="646.12" y="222.22" width="62.7" height="71.85" fill="#929292" stroke="#273331" stroke-miterlimit="10"/>
    <rect id="music104" x="499.06" y="254.22" width="65.82" height="39.85" fill="#929292" stroke="#273331" stroke-miterlimit="10"/>
  </g>
  <g id="_階段" data-name="階段">
    <g>
      <line x1="503.46" y1="122.23" x2="484.02" y2="122.23" fill="none" stroke="#283331" stroke-miterlimit="10" stroke-width=".25"/>
      <line x1="503.46" y1="126.4" x2="484.02" y2="126.4" fill="none" stroke="#283331" stroke-miterlimit="10" stroke-width=".25"/>
      <line x1="503.46" y1="129.91" x2="484.02" y2="129.91" fill="none" stroke="#283331" stroke-miterlimit="10" stroke-width=".25"/>
      <line x1="503.46" y1="133.68" x2="484.02" y2="133.68" fill="none" stroke="#283331" stroke-miterlimit="10" stroke-width=".25"/>
      <line x1="503.46" y1="137.4" x2="484.02" y2="137.4" fill="none" stroke="#283331" stroke-miterlimit="10" stroke-width=".25"/>
      <line x1="503.46" y1="141.07" x2="484.02" y2="141.07" fill="none" stroke="#283331" stroke-miterlimit="10" stroke-width=".25"/>
      <line x1="503.46" y1="145.05" x2="484.02" y2="145.05" fill="none" stroke="#283331" stroke-miterlimit="10" stroke-width=".25"/>
      <line x1="503.46" y1="149.21" x2="484.02" y2="149.21" fill="none" stroke="#283331" stroke-miterlimit="10" stroke-width=".25"/>
      <line x1="503.46" y1="153.86" x2="484.02" y2="153.86" fill="none" stroke="#283331" stroke-miterlimit="10" stroke-width=".25"/>
      <line x1="503.46" y1="157.79" x2="484.02" y2="157.79" fill="none" stroke="#283331" stroke-miterlimit="10" stroke-width=".25"/>
      <polygon points="503.46 156.42 484.02 169.3 484.02 201.4 503.46 201.4 503.46 156.42" fill="#5c5a5a"/>
      <polyline points="484.02 120.42 484.02 201.4 503.46 201.4 503.46 119.27" fill="none" stroke="#283331" stroke-miterlimit="10"/>
    </g>
    <g>
      <line x1="158.63" y1="146.69" x2="145.19" y2="146.69" fill="none" stroke="#283331" stroke-miterlimit="10" stroke-width=".25"/>
      <line x1="158.63" y1="149.57" x2="145.19" y2="149.57" fill="none" stroke="#283331" stroke-miterlimit="10" stroke-width=".25"/>
      <line x1="158.63" y1="152" x2="145.19" y2="152" fill="none" stroke="#283331" stroke-miterlimit="10" stroke-width=".25"/>
      <line x1="158.63" y1="154.61" x2="145.19" y2="154.61" fill="none" stroke="#283331" stroke-miterlimit="10" stroke-width=".25"/>
      <line x1="158.63" y1="157.17" x2="145.19" y2="157.17" fill="none" stroke="#283331" stroke-miterlimit="10" stroke-width=".25"/>
      <line x1="158.63" y1="159.71" x2="145.19" y2="159.71" fill="none" stroke="#283331" stroke-miterlimit="10" stroke-width=".25"/>
      <line x1="158.63" y1="162.46" x2="145.19" y2="162.46" fill="none" stroke="#283331" stroke-miterlimit="10" stroke-width=".25"/>
      <line x1="158.63" y1="165.34" x2="145.19" y2="165.34" fill="none" stroke="#283331" stroke-miterlimit="10" stroke-width=".25"/>
      <line x1="158.63" y1="168.55" x2="145.19" y2="168.55" fill="none" stroke="#283331" stroke-miterlimit="10" stroke-width=".25"/>
      <line x1="158.63" y1="171.27" x2="145.19" y2="171.27" fill="none" stroke="#283331" stroke-miterlimit="10" stroke-width=".25"/>
      <polygon points="158.63 170.31 145.19 179.22 145.19 201.4 158.63 201.4 158.63 170.31" fill="#5c5a5a"/>
      <polyline points="145.19 145.44 145.19 201.4 158.63 201.4 158.63 144.65" fill="none" stroke="#283331" stroke-miterlimit="10"/>
    </g>
  </g>
  <g id="MLOC-available">
    <rect id="studio101" x="588.85" y="73.85" width="119.97" height="148.37" fill="#a8d7ef" stroke="#273331" stroke-miterlimit="10"/>
    <rect id="music106" x="464.75" y="201.4" width="100.13" height="52.82" fill="#a8d7ef" stroke="#273331" stroke-miterlimit="10"/>
    <rect id="music103" x="588.85" y="222.22" width="57.26" height="71.85" fill="#a8d7ef" stroke="#273331" stroke-miterlimit="10"/>
  </g>
  <g id="MNOINT-word">
    <g>
      <path d="m34.69,127.77v1.3h-15.94v1.02h-1.34v-17.46h16.84v1.3h-15.5v13.84h15.94Zm-.84-7.5v1.2h-6.18c1.02,2.2,3.14,3.58,6.14,4.12-.3.26-.66.78-.82,1.14-2.84-.64-4.88-2-6.1-4.14-.7,1.6-2.36,3.14-6.1,4.28-.16-.3-.52-.78-.8-1.02,4.16-1.16,5.5-2.8,5.92-4.38h-5.96v-1.2h6.12v-2.82h-3.24c-.5.82-1.06,1.54-1.64,2.1-.26-.22-.72-.48-1.04-.66,1.14-1.02,2.16-2.74,2.72-4.52l1.54.44c-.04.12-.16.18-.4.18-.16.42-.34.86-.54,1.28h9.24v1.18h-5.32v2.82h6.46Z" fill="#231815"/>
      <path d="m54.59,114.85h-1.68c-.56,1.5-1.4,2.78-2.46,3.86,1.3.98,2.82,1.72,4.48,2.16-.28.26-.64.78-.84,1.14-1.7-.52-3.24-1.36-4.56-2.44-1.34,1.12-2.94,1.98-4.74,2.6-.14-.24-.4-.6-.62-.88-.3.9-.64,1.74-1,2.4l-.96-.48c.42-.86.84-2.18,1.18-3.38h-2.1v8.64c0,1.46-.66,1.54-3.12,1.54-.06-.34-.24-.9-.44-1.26.52.02,1.02.04,1.4.04.8,0,.88,0,.88-.32v-7c-.8,2.06-1.92,4.1-3.08,5.28-.14-.36-.48-.9-.72-1.22,1.28-1.24,2.58-3.54,3.34-5.7h-3.18v-1.2h5.6c-1-.94-2.96-2.16-4.6-2.9l.84-.86c.64.28,1.32.62,1.98.98.84-.6,1.68-1.4,2.32-2.16h-5.9v-1.18h6.94l.24-.06,1,.62c-.04.08-.18.16-.28.18-.78,1.06-2.06,2.3-3.3,3.2.7.44,1.3.88,1.74,1.28l-.82.9h2.04l.72.04c0,.26-.5,1.88-.64,2.36,1.64-.54,3.12-1.3,4.34-2.3-.78-.8-1.48-1.7-2.04-2.68-.48.66-1,1.26-1.52,1.76-.26-.24-.74-.6-1.06-.8,1.42-1.24,2.72-3.36,3.44-5.54l1.64.48c-.04.14-.2.22-.42.2-.18.5-.4,1-.66,1.5h6.62v1.2Zm-1.6,8.32l.78.16c0,.12-.02.28-.08.4-.36,3.74-.72,5.22-1.28,5.78-.44.44-.88.52-2.06.52-.42,0-.92,0-1.42-.04-.04-.38-.16-.92-.38-1.26.9.08,1.74.1,2.06.1.34,0,.52-.04.7-.2.38-.38.68-1.52.96-4.26h-3.26c-.68,2.34-2,4.48-5,5.74-.14-.3-.52-.76-.8-1,2.54-1,3.78-2.74,4.44-4.74h-3.1v-1.16h3.4c.16-.7.26-1.44.34-2.16l1.72.16c-.04.16-.18.24-.42.28-.08.58-.16,1.14-.28,1.72h3.38l.3-.04Zm-5.66-8.32l-.08.14c.56,1.08,1.32,2.06,2.24,2.92.84-.88,1.54-1.88,2.02-3.06h-4.18Z" fill="#231815"/>
      <path d="m66.21,128.27h8.38v1.22h-17.96v-1.22h8.2v-2.6h-6.26v-1.2h6.26v-1.96l1.78.12c-.02.14-.14.24-.4.26v1.58h6.4v1.2h-6.4v2.6Zm-7.7-13.6v2.48h-1.3v-3.72h7.62v-1.96l1.78.12c-.02.14-.14.24-.4.26v1.58h7.74v3.72h-1.36v-2.48h-14.08Zm14.02,8.3c-.3-.36-.72-.74-1.2-1.16-4.5.24-9.28.42-12.4.52-.04.16-.14.26-.28.28l-.64-1.5c.82,0,1.76-.02,2.8-.04.66-.9,1.42-2.08,1.96-3.06h-3.98v-1.2h13.46v1.2h-8.06l.38.14c-.04.1-.2.16-.4.16-.5.8-1.22,1.84-1.9,2.72,2.4-.06,5.16-.12,7.84-.2-.76-.6-1.6-1.16-2.36-1.62l.88-.74c1.74,1.02,3.82,2.54,4.84,3.66l-.94.84Z" fill="#231815"/>
    </g>
    <g>
      <path d="m256.95,139.32l.72,6.28-1.44.16-.7-6.26-7.5.96-.18-1.32,7.54-.96-.52-4.5-6.28.82-.18-1.34,6.3-.8-.44-3.96,1.96-.08c0,.2-.18.36-.46.44l.36,3.4,6.08-.8.16,1.36-6.08.78.52,4.48,7.52-.94.18,1.32-7.56.96Z" fill="#231815"/>
      <path d="m282.79,135.06c-.06.06-.14.12-.22.14-.8,2.06-2.16,4.06-3.6,5.54-.24-.22-.68-.5-1-.68,1.16-1.06,2.44-2.92,3-4.26l-5.6,1.24,1.84,8.54-1.18.26-1.84-8.54-4.56,1.04-.26-1.12,4.6-1.02-.9-4.16,1.66-.16c0,.16-.1.28-.36.4l.76,3.64,6.58-1.42.14-.1.94.66Z" fill="#231815"/>
      <path d="m290.81,139.38v-9.72l1.9.12c-.02.18-.16.32-.48.36v9.24h-1.42Zm11.14-10.5c-.02.2-.16.3-.48.34v6.36c0,4.2-1.44,8.04-7.18,10.26-.2-.3-.7-.82-1.04-1.08,5.54-2.06,6.78-5.48,6.78-9.18v-6.82l1.92.12Z" fill="#231815"/>
      <path d="m324.65,130.14c-.04.08-.16.14-.26.18-1.08,2.56-2.8,4.78-4.74,6.4-.3-.26-.86-.62-1.22-.82,1.84-1.34,3.32-3.28,3.98-4.96h-14.32v-1.36h15.08l.22-.1,1.26.66Zm-7.8,3.64c-.02.16-.2.3-.46.34-.58,4.72-2.2,9.22-6.32,11.6-.28-.24-.8-.7-1.18-.92,4.08-2.24,5.54-6.42,6.02-11.24l1.94.22Z" fill="#231815"/>
      <path d="m342.05,135.5l1,.58c-.06.1-.16.16-.28.2-1.16,2.7-3.02,4.78-5.3,6.34,2.22,1.24,4.94,2.06,8.06,2.5-.32.32-.66.9-.86,1.28-3.32-.52-6.18-1.5-8.52-2.98-2.5,1.42-5.42,2.34-8.5,2.92-.12-.36-.48-.98-.74-1.28,2.92-.48,5.68-1.26,8.04-2.46-1.86-1.4-3.32-3.18-4.38-5.32l1.14-.42h-3.14v-1.32h6.92v-3.28h-8.02v-1.32h8.02v-3.18l1.78.12c-.02.14-.14.24-.4.28v2.78h8.1v1.32h-8.1v3.28h4.92l.26-.04Zm-10.22,1.36c1,2.02,2.48,3.7,4.42,5,2-1.26,3.64-2.9,4.7-5h-9.12Z" fill="#231815"/>
      <path d="m352.97,137.92l-1.82.66v6.1c0,1.58-.78,1.68-3.46,1.68-.04-.36-.22-.92-.42-1.3.44.02.84.02,1.2.02,1.4,0,1.4-.02,1.4-.42v-5.62l-2.28.8c-.02.14-.12.26-.26.3l-.5-1.54c.84-.24,1.9-.56,3.04-.92v-4.48h-2.84v-1.26h2.84v-4.18l1.68.1c-.02.16-.12.24-.4.28v3.8h2.26v1.26h-2.26v4.08l1.64-.52.18,1.16Zm10.02,1.22l.76.36c-.02.08-.08.16-.16.2-.58,1.68-1.46,3-2.6,4.02,1.32.7,2.88,1.22,4.54,1.48-.28.28-.64.78-.82,1.14-1.74-.36-3.36-.98-4.74-1.82-1.2.82-2.6,1.42-4.16,1.82-.14-.3-.52-.8-.76-1.02,1.44-.34,2.74-.82,3.88-1.52-1.06-.8-1.94-1.74-2.56-2.82l1.08-.36c.58.94,1.42,1.78,2.46,2.48.92-.76,1.66-1.68,2.16-2.84h-5.58c-.78,2.5-1.9,4.58-3.5,6-.22-.22-.7-.58-1-.76,2-1.68,3.22-4.5,3.92-7.96h-2.68v-1.14h2.9c.1-.58.18-1.16.26-1.76h-2.94v-1.12h7.6l-.24-.1c.68-.92,1.52-2.44,1.96-3.48l1.48.54c-.04.12-.18.18-.4.18-.46.82-1.18,2-1.84,2.86h2.28v1.12h-6.62c-.08.6-.16,1.18-.26,1.76h7.82v1.14h-8.04c-.12.56-.24,1.1-.38,1.64h5.94l.24-.04Zm1.28-10.3s-.12.04-.2.04c-.06,0-.12,0-.18-.02-2.48.56-6.88.98-10.5,1.16-.04-.32-.18-.78-.32-1.04,3.56-.2,7.92-.62,10.28-1.22l.92,1.08Zm-9.02,1.5c.48.82.92,1.88,1.06,2.6l-1.1.38c-.12-.72-.56-1.82-1-2.66l1.04-.32Zm3.7-.28c.34.88.6,2.02.64,2.72l-1.12.24c-.04-.72-.28-1.88-.58-2.78l1.06-.18Z" fill="#231815"/>
      <path d="m374.03,131.14v1.12h-7.14v-1.12h7.14Zm-.5,8.16v5.88h-4.6v.94h-1.16v-6.82h5.76Zm-.02-5.44v1.1h-5.72v-1.1h5.72Zm-5.72,3.82v-1.1h5.72v1.1h-5.72Zm5.64-9.2v1.1h-5.54v-1.1h5.54Zm-1.08,11.96h-3.42v3.6h3.42v-3.6Zm13-.88h-4.06c1.1,1.86,2.84,3.76,4.36,4.72-.28.24-.72.7-.94,1.04-1.46-1.1-3.12-3.06-4.24-5v6h-1.3v-5.86c-1.18,2.04-2.88,3.9-4.56,4.94-.2-.32-.62-.78-.9-1.04,1.78-.92,3.6-2.84,4.72-4.8h-4.08v-1.22h4.82v-1.88h-4.04v-7.84h9.46v7.84h-4.12v1.88h4.88v1.22Zm-8.98-9.82v2.24h2.84v-2.24h-2.84Zm0,3.34v2.26h2.84v-2.26h-2.84Zm6.96-1.1v-2.24h-2.92v2.24h2.92Zm0,3.36v-2.26h-2.92v2.26h2.92Z" fill="#231815"/>
    </g>
    <g>
      <path d="m594.43,85.32v-8.05h-.02l-1.48.85-.24-.74,1.86-1.04h.85v8.98h-.97Z" fill="#231815"/>
      <path d="m598.4,80.86c0-3.14,1.22-4.67,2.9-4.67s2.75,1.61,2.75,4.55c0,3.12-1.09,4.73-2.88,4.73-1.63,0-2.77-1.61-2.77-4.61Zm4.64-.07c0-2.24-.54-3.79-1.8-3.79-1.07,0-1.82,1.43-1.82,3.79s.66,3.86,1.79,3.86c1.33,0,1.83-1.73,1.83-3.86Z" fill="#231815"/>
      <path d="m607.65,85.32v-8.05h-.02l-1.48.85-.24-.74,1.86-1.04h.85v8.98h-.97Z" fill="#231815"/>
    </g>
    <g>
      <path d="m592.97,233.68v-8.05h-.02l-1.48.85-.24-.74,1.86-1.04h.85v8.98h-.97Z" fill="#231815"/>
      <path d="m596.95,229.22c0-3.14,1.22-4.67,2.9-4.67s2.75,1.61,2.75,4.55c0,3.12-1.09,4.73-2.88,4.73-1.63,0-2.77-1.61-2.77-4.61Zm4.64-.07c0-2.24-.54-3.79-1.8-3.79-1.07,0-1.82,1.43-1.82,3.79s.66,3.86,1.79,3.86c1.33,0,1.83-1.73,1.83-3.86Z" fill="#231815"/>
      <path d="m606.85,228.83c1.06.18,1.96,1.03,1.96,2.33,0,1.43-1.03,2.67-3.05,2.67-.9,0-1.71-.29-2.12-.58l.3-.77c.32.22,1.04.54,1.83.54,1.51,0,2-1.06,2-1.88,0-1.32-1.12-1.92-2.29-1.92h-.59v-.74h.59c.86,0,1.98-.54,1.98-1.67,0-.78-.47-1.45-1.55-1.45-.66,0-1.28.32-1.64.59l-.3-.73c.43-.34,1.27-.67,2.13-.67,1.64,0,2.38,1.04,2.38,2.12,0,.92-.59,1.75-1.63,2.12v.04Z" fill="#231815"/>
    </g>
    <g>
      <path d="m468.87,213.06v-8.05h-.02l-1.48.85-.24-.74,1.86-1.04h.85v8.98h-.97Z" fill="#231815"/>
      <path d="m472.84,208.6c0-3.14,1.22-4.67,2.9-4.67s2.75,1.61,2.75,4.54c0,3.12-1.09,4.73-2.88,4.73-1.63,0-2.77-1.61-2.77-4.61Zm4.64-.07c0-2.24-.54-3.79-1.8-3.79-1.07,0-1.82,1.43-1.82,3.79s.66,3.86,1.79,3.86c1.33,0,1.83-1.73,1.83-3.86Z" fill="#231815"/>
      <path d="m480.48,208.3c.41-.6,1.14-1.1,2.1-1.1,1.52,0,2.54,1.14,2.54,2.87s-1.01,3.14-2.76,3.14-2.93-1.45-2.93-3.78,1.13-4.93,4.04-5.41c.34-.05.64-.08.84-.08v.83c-2.48,0-3.67,1.81-3.87,3.54h.04Zm3.63,1.83c0-1.38-.74-2.18-1.82-2.18s-1.86,1.03-1.86,1.7c.01,1.64.71,2.77,1.96,2.77,1.04,0,1.73-.94,1.73-2.29Z" fill="#231815"/>
    </g>
    <g>
      <path d="m502.17,265.86v-8.05h-.02l-1.48.85-.24-.74,1.86-1.04h.85v8.98h-.97Z" fill="#231815"/>
      <path d="m506.15,261.4c0-3.14,1.22-4.67,2.9-4.67s2.75,1.61,2.75,4.55c0,3.12-1.09,4.73-2.88,4.73-1.63,0-2.77-1.61-2.77-4.61Zm4.64-.07c0-2.24-.54-3.79-1.8-3.79-1.07,0-1.82,1.43-1.82,3.79s.66,3.86,1.79,3.86c1.33,0,1.83-1.73,1.83-3.86Z" fill="#231815"/>
      <path d="m517.39,265.86h-.95v-2.52h-3.92v-.64l3.84-5.83h1.03v5.7h1.22v.77h-1.22v2.52Zm-3.86-3.29h2.92v-3.19c0-.49.02-.97.05-1.44h-.05c-.28.55-.49.94-.72,1.34l-2.2,3.26v.02Z" fill="#231815"/>
    </g>
    <g>
      <path d="m174.43,127.77h-8.04v-15.24h7.7v1.4h-6.04v5.16h5.68v1.38h-5.68v5.9h6.38v1.4Z" fill="#231815"/>
      <path d="m187.11,112.52l-5.24,15.24h-1.76l-4.82-15.22h1.8l2.34,7.64c.64,2.06,1.2,3.98,1.6,5.76h.06c.4-1.78,1.02-3.76,1.7-5.76l2.54-7.66h1.78Z" fill="#231815"/>
    </g>
    <g>
      <path d="m492.01,226.79c-.38.48-.62.72-1.16,1.16-.32-.43-.4-.5-.88-.89.9-.62,1.54-1.4,1.82-2.24l1.28.24c-.17.32-.22.43-.36.66h1.64c.54,0,.79-.01,1.07-.06v.94c.54-.55.88-1.12,1.04-1.76l1.28.2c-.19.42-.22.47-.32.7h2.36c.59,0,.83-.01,1.18-.06v1.18c-.32-.04-.59-.05-1.12-.05h-1.12c.26.43.3.49.46.82l-1.19.35c-.17-.46-.3-.72-.56-1.16h-.67c-.23.31-.35.44-.73.84v.43s3.36,0,3.36,0c.68,0,.9-.01,1.29-.04-.04.22-.04.36-.04.74v.84c0,.36.01.56.05.79h-1.3v-1.31h-7.74v1.31h-1.27c.02-.24.05-.46.05-.79v-.82c0-.36-.01-.54-.05-.77.36.02.56.04,1.26.04h3.11v-.19c0-.26,0-.4-.04-.58h.83c-.25-.19-.31-.24-.55-.37l.18-.13c-.2-.01-.34-.01-.54-.01h-.79c.19.34.26.49.41.79l-1.16.4c-.13-.5-.24-.78-.44-1.19h-.65Zm-.05,9.24c.05-.42.07-.78.07-1.33v-4.32c0-.35-.01-.56-.05-.79.29.04.6.05,1.01.05h4.89c.44,0,.74-.01,1.03-.05-.04.25-.04.48-.04.82v.9c0,.44,0,.65.04.94-.3-.02-.58-.04-.98-.04h-4.64v.58h5.15c.44,0,.71-.01.98-.05-.04.3-.05.6-.05,1v1.21c0,.41.01.74.06,1.09h-1.32v-.52h-4.82v.52h-1.33Zm1.33-4.77h4.34v-.64h-4.34v.64Zm0,3.26h4.82v-.78h-4.82v.78Z" fill="#231815"/>
      <path d="m504.96,230.69c.43,0,.7-.01.85-.04q-.02.17-.04.71s-.01.17-.01.32l-.05.86c-.07,1.47-.25,2.4-.53,2.79-.28.38-.77.55-1.63.55-.26,0-.66-.02-1-.05-.06-.62-.12-.89-.28-1.36.55.07.98.11,1.29.11.53,0,.67-.13.78-.71.08-.41.14-1.18.17-2.06h-1.42c-.11,0-.59.01-.91.04.23-1.17.37-2.61.38-3.79.24.04.36.04,1.01.04h.96v-1.47h-1.22c-.48,0-.66.01-1.1.05v-1.28c.2.05.54.07,1.14.07h1.59c.41,0,.58-.01.88-.05-.02.26-.04.52-.04.92v1.8c0,.43,0,.56.04,1.1h-.12c-.06-.01-.31-.01-.73-.02h-1.2c-.08.89-.12,1.12-.18,1.46h1.35Zm.78,3.68h.98c.52-.58.89-1.03,1.63-2.03-.85-.97-1.38-1.48-2.47-2.4l.83-.98c.3.26.43.37.61.54.41-.56.71-1.1,1.02-1.83h-.77c-.5,0-.97.02-1.39.07v-1.31c.36.05.77.07,1.39.07h1.26v-.56c0-.38-.02-.68-.07-.92h1.39c-.05.23-.06.49-.06.92v.56h1.55c.6,0,1.06-.02,1.4-.07v1.31c-.43-.05-.84-.07-1.39-.07h-1.89c-.5,1.1-.9,1.82-1.52,2.7.23.23.53.54.88.91.84-1.21,1.38-2.13,1.7-2.85l1.22.68c-.11.16-.26.4-.42.65-.86,1.43-2.09,3.09-3.33,4.53,1.32-.1,2.12-.18,2.93-.3-.26-.59-.44-.94-.89-1.68l1.13-.47c.8,1.37,1.21,2.22,1.74,3.67l-1.25.49c-.18-.54-.24-.72-.32-.96-1.34.23-1.55.26-4.19.54-.94.1-1.13.12-1.49.19l-.2-1.4Z" fill="#231815"/>
      <path d="m518.15,230.79c-.36,0-.67.01-.92.04.02-.28.04-.56.04-1v-2.81c0-.5,0-.58-.04-.97.3.04.43.04.95.04h.38c.18-.44.29-.77.38-1.22l1.33.16c-.23.55-.38.91-.46,1.07h1.01c.49,0,.61,0,.92-.04-.04.29-.04.42-.04.97v2.81c0,.52.01.77.04,1-.26-.02-.55-.04-.9-.04h-.74v.79h3.24c.71,0,1.13-.02,1.44-.07v1.3c-.36-.05-.79-.07-1.45-.07h-2.33c.71.55,1.13.82,1.73,1.09.8.36,1.35.55,2.39.78-.31.42-.5.73-.74,1.24-1.14-.36-1.57-.54-2.28-.95-.84-.49-1.51-1.02-2.03-1.61q0,.14.01.32s.01.43.01.47v.7c0,.6.01.84.08,1.24h-1.46c.06-.38.08-.71.08-1.24v-.68c0-.23.01-.46.04-.79-.67.71-1.12,1.08-1.83,1.5-.66.38-1.45.74-2.3,1.03-.24-.49-.42-.77-.78-1.18,1.64-.42,3-1.08,3.92-1.92h-2.18c-.62,0-1.09.02-1.43.07v-1.3c.34.05.79.07,1.43.07h3.13v-.79h-.64Zm-1.06-1.26c-.7.47-1.14.72-2.15,1.21-.23.11-.24.12-.49.25l-.47-1.21c.77-.19,1.68-.65,2.81-1.36l.3,1.1Zm-1.94-3.97c.66.53,1.14.98,1.82,1.74l-.88.92c-.61-.78-1.15-1.32-1.82-1.83l.88-.83Zm3.3,2.35h2.08v-.78h-2.08v.78Zm0,1.83h2.08v-.84h-2.08v.84Zm4.05-1.27c1.2.61,1.83.97,2.55,1.45l-.7,1.03c-.88-.65-1.62-1.1-2.53-1.55l.67-.94Zm2.29-2.07c-.88.92-1.44,1.44-2.05,1.92l-.82-.89c.9-.71,1.28-1.09,1.89-1.88l.97.85Z" fill="#231815"/>
      <path d="m526.35,236c.05-.37.07-.79.07-1.56v-7.62c0-.56-.02-1-.07-1.44.43.05.79.06,1.42.06h7.48c.61,0,.98-.01,1.4-.06-.05.48-.06.83-.06,1.44v7.63c0,.72.02,1.2.07,1.55h-1.36v-.66h-7.59v.66h-1.37Zm1.37-1.82h7.58v-7.57h-7.58v7.57Zm4.63-6.44c0-.43-.01-.62-.06-.88h1.37c-.05.24-.06.43-.06.88v.46h.34c.37,0,.77-.02.97-.06v1.24c-.23-.04-.62-.06-1-.06h-.31v3.37c0,.96-.32,1.2-1.64,1.2-.32,0-.41,0-1.13-.05-.07-.58-.11-.74-.31-1.2.66.08,1.12.12,1.45.12.29,0,.38-.07.38-.31v-3.13h-3c-.49,0-.82.01-1.12.06v-1.24c.3.05.56.06,1.12.06h3v-.46Zm-2.02,4.67c-.49-1.06-.8-1.54-1.43-2.27l1.01-.67c.7.85.96,1.24,1.51,2.23l-1.09.71Z" fill="#231815"/>
    </g>
    <g>
      <path d="m624.91,146.13c-.11.16-.17.3-.3.72-.71,2.13-1.28,3.2-2.41,4.53-1.07,1.22-2.54,2.28-4.27,3.03-.31-.56-.53-.83-1.02-1.26,3.14-1.2,5.17-3.35,6.13-6.46l-3.61.05c-.67,1.1-1.81,2.35-2.81,3.08-.36-.49-.54-.65-1.16-1.03,1.3-.86,2.25-1.94,3.11-3.48.36-.65.58-1.21.61-1.59l1.64.34c-.08.11-.1.13-.2.36-.1.22-.2.46-.32.7-.06.11-.06.12-.08.17l-.1.18c.14-.01.34-.02.58-.02l2.63-.04c.32,0,.53-.01.62-.02-.28-.6-.49-.98-.88-1.5l.89-.3c.47.62.74,1.1,1.07,1.9l-.52.19.41.47Zm.78-.86c-.29-.71-.64-1.32-1.03-1.86l.86-.3c.49.64.77,1.12,1.06,1.82l-.89.34Z" fill="#231815"/>
      <path d="m630.76,144.13c-.05.34-.05.44-.05,1.08v3.31c0,.6,0,.76.05,1.06h-1.64c.04-.28.06-.65.06-1.08v-3.3c0-.61-.01-.77-.05-1.08h1.63Zm5.44.01c-.05.3-.06.43-.06,1.12v1.62c-.01,1.87-.1,2.88-.31,3.63-.35,1.2-1.12,2.1-2.36,2.79-.64.36-1.24.6-2.34.92-.22-.59-.34-.79-.84-1.43,1.17-.23,1.87-.48,2.59-.96,1.13-.74,1.52-1.47,1.66-3.06.05-.52.06-1.04.06-2v-1.5c0-.61-.01-.86-.06-1.14h1.67Z" fill="#231815"/>
      <path d="m639.53,148.14c.53.07.76.08,1.94.08h6.39c1.19,0,1.42-.01,1.94-.08v1.67c-.48-.06-.61-.06-1.96-.06h-6.37c-1.34,0-1.48,0-1.96.06v-1.67Z" fill="#231815"/>
      <path d="m661.17,145.9c-.12.18-.17.29-.3.72-.55,1.82-1.4,3.44-2.46,4.63-1.1,1.26-2.42,2.2-4.27,3.05-.34-.6-.49-.8-1.02-1.26,1.2-.49,1.87-.85,2.63-1.42,1.71-1.27,2.84-2.91,3.5-5.06l-3.61.06c-.73,1.16-1.67,2.19-2.81,3.07-.36-.49-.54-.65-1.16-1.03,1.37-.94,2.23-1.9,3.11-3.48.37-.68.56-1.15.61-1.58l1.64.32q-.07.11-.2.37-.04.06-.16.34l-.16.31q-.07.17-.19.38c.16-.01.35-.02.58-.02l2.63-.04c.47,0,.6-.02.88-.12l.77.76Z" fill="#231815"/>
      <path d="m673.39,147.78c-.12.22-.19.38-.34.76-.62,1.76-1.54,3.09-2.78,4.05-.85.66-1.63,1.07-3.14,1.63-.26-.6-.41-.8-.94-1.39,1.46-.37,2.41-.82,3.33-1.58.89-.74,1.4-1.47,1.93-2.81h-5.84c-.8,0-1.1.01-1.54.06v-1.46c.46.07.72.08,1.56.08h5.71c.74,0,.98-.02,1.36-.11l.68.77Zm-8.29-3.63c.4.07.65.08,1.4.08h4.19c.76,0,1.01-.01,1.4-.08v1.48c-.37-.05-.6-.06-1.38-.06h-4.23c-.78,0-1.01.01-1.38.06v-1.48Z" fill="#231815"/>
      <path d="m685.03,146.12c-.1.18-.13.29-.2.54-.94,3.78-3.09,6.24-6.82,7.78-.31-.62-.52-.9-1.06-1.43,3.32-1.03,5.49-3.26,6.26-6.45h-5.71c-.89,0-1.12.01-1.51.07v-1.56c.43.07.72.08,1.54.08h5.5c.43,0,.64-.01.86-.04-.2-.43-.43-.79-.74-1.21l.88-.32c.47.61.74,1.1,1.07,1.89l-.48.19.42.44Zm.71-.85c-.29-.71-.62-1.32-1.03-1.86l.86-.32c.49.64.78,1.12,1.06,1.82l-.89.36Z" fill="#231815"/>
    </g>
    <g>
      <path d="m597,258.26c-.06.39-.07.67-.07,1.17v2.83c0,.5.02.8.07,1.17h-1.22v-.48c0-.13,0-.16,0-.39-.5.7-.99.96-1.85.96-.46,0-.78-.08-1.08-.26-.5-.32-.73-.82-.73-1.56v-2.28c0-.5-.03-.84-.07-1.17h1.31c-.05.41-.06.71-.06,1.17v2c0,.52.13.86.41,1.03.13.07.32.13.5.13.65,0,1.16-.44,1.57-1.33v-1.82c0-.44-.03-.78-.07-1.17h1.3Z" fill="#231815"/>
      <path d="m598.12,263.43c.05-.39.07-.67.07-1.17v-2.83c0-.5-.02-.8-.07-1.17h1.22v.48c0,.13,0,.16-.02.39.55-.7,1.03-.95,1.84-.95.69,0,1.21.22,1.53.67.22.3.31.66.31,1.26v2.16c0,.5.02.84.07,1.17h-1.31c.04-.41.06-.71.06-1.17v-2c0-.38-.04-.62-.15-.79-.14-.23-.41-.37-.76-.37-.65,0-1.18.45-1.58,1.34v1.82c0,.44.02.78.07,1.17h-1.3Z" fill="#231815"/>
      <path d="m605.38,258.7c0,.1,0,.2,0,.31.5-.63,1.03-.88,1.84-.88.72,0,1.3.22,1.71.63.48.49.71,1.16.71,2.07,0,1.66-.91,2.66-2.44,2.66-.79,0-1.39-.28-1.82-.86q0,.11,0,.29c0,.06,0,.23,0,.39v.68c0,.53.02.82.06,1.2h-1.27c.04-.42.06-.73.06-1.19v-4.53c0-.52-.02-.82-.06-1.21h1.2v.44Zm1.61.4c-.89,0-1.57.74-1.57,1.7,0,1.03.67,1.75,1.6,1.75.88,0,1.43-.67,1.43-1.73s-.56-1.72-1.47-1.72Z" fill="#231815"/>
      <path d="m611.86,256.26c-.04.35-.06.64-.06,1.18v4.82c0,.48.02.77.06,1.17h-1.3c.04-.39.06-.65.06-1.17v-4.83c0-.54-.02-.83-.06-1.17h1.3Z" fill="#231815"/>
      <path d="m617.92,258.26c-.06.39-.07.67-.07,1.17v2.83c0,.5.02.8.07,1.17h-1.22v-.48c0-.13,0-.16,0-.39-.5.7-.99.96-1.85.96-.46,0-.78-.08-1.08-.26-.5-.32-.73-.82-.73-1.56v-2.28c0-.5-.03-.84-.07-1.17h1.31c-.05.41-.06.71-.06,1.17v2c0,.52.13.86.41,1.03.13.07.32.13.5.13.65,0,1.16-.44,1.57-1.33v-1.82c0-.44-.03-.78-.07-1.17h1.3Z" fill="#231815"/>
      <path d="m619.84,263.63c.35.49.75.68,1.4.68.69,0,1.22-.24,1.48-.67.15-.27.22-.58.23-1.2-.45.57-.98.82-1.76.82-1.43,0-2.35-.98-2.35-2.52s.95-2.57,2.4-2.57c.8,0,1.33.24,1.72.79-.02-.18-.02-.2-.02-.3v-.41h1.21c-.04.39-.06.64-.06,1.12v3.02c0,1.08-.23,1.77-.76,2.21-.45.37-1.2.58-2.12.58-1.05,0-1.65-.24-2.26-.94l.9-.62Zm.58-1.62c.22.24.61.41.95.41.5,0,1-.29,1.25-.71.17-.28.25-.61.25-1.03,0-.58-.18-1.03-.54-1.33-.25-.21-.55-.32-.87-.32-.9,0-1.46.67-1.46,1.75,0,.53.14.97.41,1.24Z" fill="#231815"/>
      <path d="m626.07,263.63c.35.49.75.68,1.4.68.69,0,1.22-.24,1.48-.67.15-.27.22-.58.23-1.2-.45.57-.98.82-1.76.82-1.43,0-2.35-.98-2.35-2.52s.95-2.57,2.4-2.57c.8,0,1.33.24,1.72.79-.02-.18-.02-.2-.02-.3v-.41h1.21c-.04.39-.06.64-.06,1.12v3.02c0,1.08-.23,1.77-.76,2.21-.45.37-1.2.58-2.12.58-1.05,0-1.65-.24-2.26-.94l.9-.62Zm.58-1.62c.23.24.61.41.95.41.5,0,1-.29,1.25-.71.17-.28.25-.61.25-1.03,0-.58-.18-1.03-.54-1.33-.25-.21-.55-.32-.87-.32-.9,0-1.46.67-1.46,1.75,0,.53.14.97.41,1.24Z" fill="#231815"/>
      <path d="m632.43,261.14c.04.5.13.75.33,1.01.26.32.67.5,1.13.5s.82-.16,1.08-.45c.11-.13.17-.23.26-.47l1.06.34c-.21.43-.32.6-.55.83-.47.46-1.1.69-1.85.69-1.59,0-2.6-1.06-2.6-2.75s1-2.75,2.54-2.75c1.05,0,1.88.52,2.24,1.42.17.43.23.76.26,1.37,0,.02,0,.04.02.25h-3.92Zm2.75-.89c-.06-.4-.17-.64-.4-.86-.24-.24-.55-.36-.97-.36-.7,0-1.22.47-1.35,1.22h2.72Z" fill="#231815"/>
      <path d="m641.28,262.99c0-.11,0-.21,0-.32-.47.66-.95.89-1.82.89-.63,0-1.11-.14-1.5-.46-.6-.47-.94-1.29-.94-2.26,0-1.65.94-2.69,2.43-2.69.56,0,1.02.14,1.37.41.16.13.26.23.46.5q0-.11,0-.29c0-.06,0-.23,0-.39v-.9c0-.54-.02-.84-.06-1.22h1.27c-.04.43-.06.75-.06,1.21v4.74c0,.53.02.82.06,1.22h-1.2v-.44Zm-1.6-.4c.48,0,.94-.22,1.21-.59.23-.3.35-.74.35-1.21,0-.44-.17-.91-.43-1.2-.28-.31-.74-.5-1.17-.5-.87,0-1.43.68-1.43,1.76s.58,1.75,1.48,1.75Z" fill="#231815"/>
    </g>
  </g>
</svg>