<?xml version="1.0" encoding="UTF-8"?>
<svg xmlns="http://www.w3.org/2000/svg" width="720" height="320" viewBox="0 0 720 320">
  <g id="_背景" data-name="背景">
    <polyline id="base" points="0 320 720 320 720 0 0 0" fill="#dcdddd"/>
  </g>
  <g id="_使用不可能部屋" data-name="使用不可能部屋">
    <rect x="47.2" y="83.32" width="103.06" height="171.7" fill="#929292" stroke="#273331" stroke-miterlimit="10"/>
  </g>
  <g id="_廊下" data-name="廊下">
    <polygon points="150.26 83.32 150.26 178.93 189.97 178.93 189.97 255.01 221.2 255.01 221.2 178.93 605.93 178.93 605.93 255.01 672.8 255.01 672.8 128.53 605.93 128.53 605.93 140.89 200.69 140.89 200.69 83.32 150.26 83.32" fill="#b5b5b6" stroke="#273331" stroke-miterlimit="10"/>
  </g>
  <g id="_男子トイレ" data-name="男子トイレ">
    <rect x="150.26" y="178.93" width="39.71" height="76.08" fill="#54c3f1" stroke="#283331" stroke-miterlimit="10"/>
    <g id="_男" data-name="男">
      <path d="m170.12,215.19c1.77,0,3.21-1.44,3.21-3.21s-1.44-3.21-3.21-3.21-3.21,1.44-3.21,3.21,1.44,3.21,3.21,3.21Z" fill="#fff"/>
      <path d="m173.13,216.97h-6.02c-.68,0-1.31.34-1.69.91-.37.57-.44,1.28-.17,1.91l4.4,10.36c.08.19.26.31.47.31s.39-.12.47-.31l4.4-10.36c.27-.62.2-1.34-.17-1.91-.37-.57-1.01-.91-1.69-.91Z" fill="#fff"/>
    </g>
  </g>
  <g id="_階段" data-name="階段">
    <g>
      <polyline points="189.97 200.3 221.2 200.3 221.2 216.07 189.97 216.07" fill="none" stroke="#283331" stroke-miterlimit="10" stroke-width=".25"/>
      <line x1="221.2" y1="203.18" x2="189.97" y2="203.18" fill="none" stroke="#283331" stroke-miterlimit="10" stroke-width=".25"/>
      <line x1="221.2" y1="205.61" x2="189.97" y2="205.61" fill="none" stroke="#283331" stroke-miterlimit="10" stroke-width=".25"/>
      <line x1="221.2" y1="208.22" x2="189.97" y2="208.22" fill="none" stroke="#283331" stroke-miterlimit="10" stroke-width=".25"/>
      <line x1="221.2" y1="210.78" x2="189.97" y2="210.78" fill="none" stroke="#283331" stroke-miterlimit="10" stroke-width=".25"/>
      <line x1="221.2" y1="213.32" x2="189.97" y2="213.32" fill="none" stroke="#283331" stroke-miterlimit="10" stroke-width=".25"/>
      <line x1="221.2" y1="218.95" x2="189.97" y2="218.95" fill="none" stroke="#283331" stroke-miterlimit="10" stroke-width=".25"/>
      <line x1="221.2" y1="222.16" x2="189.97" y2="222.16" fill="none" stroke="#283331" stroke-miterlimit="10" stroke-width=".25"/>
      <line x1="221.2" y1="224.88" x2="189.97" y2="224.88" fill="none" stroke="#283331" stroke-miterlimit="10" stroke-width=".25"/>
      <line x1="221.2" y1="255.01" x2="189.97" y2="255.01" fill="none" stroke="#273331" stroke-miterlimit="10"/>
      <line x1="221.2" y1="227.66" x2="189.97" y2="227.66" fill="none" stroke="#283331" stroke-miterlimit="10" stroke-width=".25"/>
      <line x1="221.2" y1="230.94" x2="189.97" y2="230.94" fill="none" stroke="#283331" stroke-miterlimit="10" stroke-width=".25"/>
      <polygon points="205.59 221.48 221.2 215.36 221.2 200.11 205.59 200.11 205.59 221.48" fill="#5c5a5a"/>
      <line x1="189.97" y1="200.3" x2="189.97" y2="255.01" fill="none" stroke="#273331" stroke-miterlimit="10"/>
      <polyline points="205.59 222.16 205.59 200.14 205.59 233.81" fill="none" stroke="#273331" stroke-miterlimit="10"/>
    </g>
    <g>
      <polyline points="605.93 186.97 644.87 186.97 644.87 206.64 605.93 206.64" fill="none" stroke="#283331" stroke-miterlimit="10" stroke-width=".25"/>
      <line x1="644.87" y1="190.56" x2="605.93" y2="190.56" fill="none" stroke="#283331" stroke-miterlimit="10" stroke-width=".25"/>
      <line x1="644.87" y1="193.59" x2="605.93" y2="193.59" fill="none" stroke="#283331" stroke-miterlimit="10" stroke-width=".25"/>
      <line x1="644.87" y1="196.84" x2="605.93" y2="196.84" fill="none" stroke="#283331" stroke-miterlimit="10" stroke-width=".25"/>
      <line x1="644.87" y1="200.04" x2="605.93" y2="200.04" fill="none" stroke="#283331" stroke-miterlimit="10" stroke-width=".25"/>
      <line x1="644.87" y1="203.21" x2="605.93" y2="203.21" fill="none" stroke="#283331" stroke-miterlimit="10" stroke-width=".25"/>
      <line x1="644.87" y1="210.22" x2="605.93" y2="210.22" fill="none" stroke="#283331" stroke-miterlimit="10" stroke-width=".25"/>
      <line x1="644.87" y1="214.23" x2="605.93" y2="214.23" fill="none" stroke="#283331" stroke-miterlimit="10" stroke-width=".25"/>
      <line x1="644.87" y1="217.62" x2="605.93" y2="217.62" fill="none" stroke="#283331" stroke-miterlimit="10" stroke-width=".25"/>
      <line x1="644.87" y1="255.19" x2="605.93" y2="255.19" fill="none" stroke="#273331" stroke-miterlimit="10"/>
      <line x1="644.87" y1="221.08" x2="605.93" y2="221.08" fill="none" stroke="#283331" stroke-miterlimit="10" stroke-width=".25"/>
      <line x1="644.87" y1="225.17" x2="605.93" y2="225.17" fill="none" stroke="#283331" stroke-miterlimit="10" stroke-width=".25"/>
      <polygon points="625.4 213.38 644.87 205.75 644.87 186.73 625.4 186.73 625.4 213.38" fill="#5c5a5a"/>
      <line x1="605.93" y1="255.19" x2="605.93" y2="186.97" fill="#b5b5b6" stroke="#273331" stroke-miterlimit="10"/>
      <polyline points="625.4 214.23 625.4 186.77 625.4 228.75" fill="none" stroke="#273331" stroke-miterlimit="10"/>
      <line x1="644.87" y1="186.97" x2="644.87" y2="255.19" fill="#b5b5b6" stroke="#273331" stroke-miterlimit="10"/>
    </g>
  </g>
  <g id="EV">
    <rect x="221.2" y="178.93" width="32.61" height="29.57" fill="#b5b5b6" stroke="#273331" stroke-miterlimit="10"/>
  </g>
  <g id="_女子トイレ" data-name="女子トイレ">
    <polyline points="253.81 178.93 268.12 178.93 268.12 255.01 221.2 255.01 221.2 208.5 253.81 208.5 253.81 178.93" fill="#e79395" stroke="#273331" stroke-miterlimit="10"/>
    <g id="_女" data-name="女">
      <path d="m244.66,220.74c1.77,0,3.21-1.44,3.21-3.21s-1.44-3.21-3.21-3.21-3.21,1.44-3.21,3.21,1.44,3.21,3.21,3.21Z" fill="#fff"/>
      <path d="m249.53,233.2l-4.4-10.36c-.08-.19-.26-.31-.47-.31s-.39.12-.47.31l-4.4,10.36c-.27.62-.2,1.34.17,1.91.37.57,1.01.91,1.69.91h6.02c.68,0,1.31-.34,1.69-.91.37-.57.44-1.28.17-1.91Z" fill="#fff"/>
    </g>
  </g>
  <g id="MLOC-available">
    <rect id="room7-229" x="268.12" y="64.81" width="37.54" height="76.08" fill="#a8d7ef" stroke="#273331" stroke-miterlimit="10"/>
    <rect id="room7-228" x="305.65" y="64.81" width="37.54" height="76.08" fill="#a8d7ef" stroke="#273331" stroke-miterlimit="10"/>
    <rect id="room7-227" x="343.19" y="64.81" width="37.54" height="76.08" fill="#a8d7ef" stroke="#273331" stroke-miterlimit="10"/>
    <rect id="room7-226" x="380.72" y="64.81" width="37.54" height="76.08" fill="#a8d7ef" stroke="#273331" stroke-miterlimit="10"/>
    <rect id="room7-225" x="418.26" y="64.81" width="37.54" height="76.08" fill="#a8d7ef" stroke="#273331" stroke-miterlimit="10"/>
    <rect id="room7-224" x="455.79" y="64.81" width="37.54" height="76.08" fill="#a8d7ef" stroke="#273331" stroke-miterlimit="10"/>
    <rect id="room7-223" x="493.33" y="64.81" width="37.54" height="76.08" fill="#a8d7ef" stroke="#273331" stroke-miterlimit="10"/>
    <rect id="room7-222" x="530.86" y="64.81" width="37.54" height="76.08" fill="#a8d7ef" stroke="#273331" stroke-miterlimit="10"/>
    <rect id="room7-221" x="568.4" y="64.81" width="37.54" height="76.08" fill="#a8d7ef" stroke="#273331" stroke-miterlimit="10"/>
    <rect id="room7-230" x="200.69" y="64.81" width="67.43" height="76.08" fill="#a8d7ef" stroke="#273331" stroke-miterlimit="10"/>
    <rect id="room7-218" x="268.12" y="178.93" width="75.07" height="76.08" fill="#a8d7ef" stroke="#273331" stroke-miterlimit="10"/>
    <rect id="room7-216" x="343.19" y="178.93" width="75.07" height="76.08" fill="#a8d7ef" stroke="#273331" stroke-miterlimit="10"/>
    <rect id="wa212" x="530.86" y="178.93" width="37.54" height="76.08" fill="#a8d7ef" stroke="#273331" stroke-miterlimit="10"/>
    <rect id="wa211" x="568.4" y="178.93" width="37.54" height="76.08" fill="#a8d7ef" stroke="#273331" stroke-miterlimit="10"/>
    <rect id="wa213" x="474.56" y="178.93" width="56.3" height="76.08" fill="#a8d7ef" stroke="#273331" stroke-miterlimit="10"/>
    <rect id="wa215" x="418.26" y="178.93" width="56.3" height="76.08" fill="#a8d7ef" stroke="#273331" stroke-miterlimit="10"/>
    <g>
      <path d="m572.89,107.44q.08,0,.22.02h.11c.07,0,.3,0,.44,0,.02-.87.02-.95.02-1.52,0-.96,0-1.36-.06-1.75.22.03.48.04.78.04h.34c.15-.43.23-.72.29-1.11l1.08.14c-.13.38-.22.63-.36.97h.6c.35,0,.57-.01.81-.05-.03.22-.04.46-.04.79v2.16l.47-.07v.96l-.47.07v3.19c0,.15-.01.23-.04.37.76-.69,1.01-1.8,1.01-4.38,0-.53,0-.76-.03-1.05.18.03.48.04.86.04h1.32c.39,0,.73-.01.89-.04-.03.2-.04.5-.04.92v3.9c0,.11.05.15.2.15.09,0,.15-.02.17-.08.05-.1.08-.57.08-1.25,0-.15,0-.41,0-.72.39.25.47.29.87.42-.03,2.49-.13,2.72-1.27,2.72-.81,0-1.07-.18-1.07-.75v-4.32h-1.01c0,2-.06,2.62-.24,3.42-.19.81-.4,1.2-1.02,1.92-.2-.31-.41-.54-.73-.81-.15.39-.42.51-1.19.51-.13,0-.24-.01-.52-.03-.02-.42-.07-.67-.2-1.03.28.07.58.1.86.1.16,0,.21-.05.21-.2v-2.88c-.08.01-.14.01-.18.02q-.18.02-.28.03v1.57c0,.44,0,.67.04.85h-.91c.04-.19.05-.39.05-.85v-1.48l-.17.02c-.13.02-.15.02-.22.03-.03.97-.14,1.94-.31,2.65-.13.55-.28.95-.55,1.46-.28-.37-.5-.58-.81-.8.48-.79.66-1.6.75-3.23-.47.04-.51.05-.64.07l-.1-1.1Zm1.7-2.33c0,1.46,0,1.62-.02,2.28q1.01-.09,1.65-.16v-2.12h-1.63Zm.81.21c.3.52.45.85.64,1.42l-.72.37c-.17-.57-.31-.9-.58-1.44l.66-.35Zm3.7-1.27c0-.42,0-.63-.05-.85h1.14c-.04.25-.06.48-.06.84v.51h1.19c.41,0,.64,0,.92-.05v1.07c-.28-.04-.51-.05-.92-.05h-3.03c-.41,0-.63,0-.92.05v-1.07c.29.04.51.05.92.05h.81v-.5Z" fill="#231815"/>
      <path d="m585.16,109.59c-.53,0-.85.02-1.15.06v-1.12c.31.04.57.06,1.05.06h5.08c.47,0,.88-.02,1.18-.06v1.12c-.31-.04-.67-.06-1.17-.06h-2v1.47h2.76c.52,0,.97-.02,1.23-.06v1.11c-.34-.04-.73-.06-1.23-.06h-6.48c-.51,0-.9.02-1.24.06v-1.11c.22.03.81.06,1.24.06h2.61v-1.47h-1.88Zm1.87-5.76c0-.27,0-.42-.06-.65h1.23c-.04.18-.06.39-.06.65v.34h2.76c.46,0,.75,0,1.1-.05-.03.22-.04.41-.04.75v.55c0,.29,0,.51.05.75h-1.1v-1.03h-1.92v1.52c0,.19.07.23.39.24.07,0,.19,0,.36.01h.05c.34,0,.74-.03.83-.07.13-.05.17-.18.17-.54.36.16.6.24,1.02.31-.06.6-.15.85-.37,1.01-.27.19-.67.24-1.88.24-1.34,0-1.61-.13-1.61-.79v-1.93h-.87c-.05.84-.26,1.41-.69,1.9-.34.38-.8.69-1.4.95-.29.12-.54.21-1.1.38-.16-.34-.36-.65-.64-.94,1-.2,1.51-.4,2-.76.54-.4.7-.71.78-1.53h-1.6v1.33h-1.11c.04-.27.05-.51.05-.81v-.79c0-.33-.01-.52-.04-.75.35.04.63.05,1.1.05h2.6v-.34Z" fill="#231815"/>
      <path d="m597.39,106.88c.43,0,.67,0,.86-.05v1.1c-.22-.04-.48-.05-.81-.05h-3.35c-.49,0-.71.01-1,.05v-1.1c.27.04.5.05,1.01.05h1.97c.24-.56.39-1.02.52-1.63l1.03.26c-.14.48-.31.91-.53,1.37h.3Zm-.14-2.7c.45,0,.67-.01.91-.05v1.08c-.21-.04-.41-.05-.84-.05h-3.2c-.37,0-.6,0-.82.05v-1.08c.23.04.46.05.95.05h1.02v-.28c0-.28-.02-.5-.06-.7h1.19c-.03.2-.05.41-.05.7v.28h.9Zm-2.52,8.22h-1.08c.03-.28.04-.52.04-.94v-2.17c0-.41,0-.59-.03-.82.23.02.43.03.8.03h2.58c.41,0,.58,0,.73-.03-.02.18-.03.31-.03.74v2.43c0,.35,0,.53.04.75h-1.1v-.57h-1.95v.58Zm.16-7.23c.23.46.37.84.52,1.4l-.99.3c-.14-.6-.25-.94-.47-1.4l.94-.3Zm-.16,5.69h1.96v-1.4h-1.96v1.4Zm7.62-6.73c-.07.13-.11.21-.2.44-.34.89-.66,1.58-1.08,2.38.55.63.77.96.96,1.45.18.43.28.94.28,1.39,0,.63-.26,1.09-.71,1.25-.25.1-.53.13-1.02.13-.17,0-.26,0-.5-.02-.02-.52-.07-.76-.23-1.09.26.04.46.06.75.06.5,0,.66-.11.66-.43,0-.42-.11-.86-.32-1.29-.23-.46-.45-.75-1.04-1.3.58-1.07.88-1.78,1.1-2.62h-1.39v6.81c0,.54.02.88.07,1.17h-1.18c.04-.32.06-.71.06-1.14v-7.03c0-.29,0-.57-.04-.84.27.03.49.04.82.04h1.73c.39,0,.6,0,.79-.05l.49.69Z" fill="#231815"/>
    </g>
    <g>
      <path d="m541.47,98.1c.27.22.42.36.62.56q.28.28.31.31c.26-.22.47-.42.66-.63.21-.24.49-.62.61-.82t.03-.04s0-.02,0-.02c-.05,0-.12,0-.23,0h-2.39c-.41,0-.46,0-.64.02v-.64c.19.03.31.03.65.03h2.78c.22,0,.29,0,.42-.04l.35.4c-.07.08-.1.11-.22.3-.48.77-1,1.38-1.62,1.9.21.24.4.48.66.84l-.53.42c-.28-.45-.55-.8-.97-1.26-.39-.43-.64-.67-1-.97l.49-.36Z" fill="#231815"/>
      <path d="m549.38,96.84c-.08.08-.11.1-.19.18-.38.39-.75.72-1.18,1.03v2.14c0,.28,0,.42.02.56h-.7c.03-.15.03-.25.03-.54v-1.76c-.59.35-.87.48-1.79.81-.11-.26-.16-.35-.33-.57.99-.27,1.83-.69,2.63-1.3.45-.35.79-.69.93-.94l.58.4Z" fill="#231815"/>
      <path d="m554.36,97.3c-.05.08-.07.12-.12.3-.23.76-.58,1.44-1.03,1.93-.46.53-1.01.92-1.78,1.27-.14-.25-.21-.34-.42-.53.5-.21.78-.36,1.1-.59.72-.53,1.19-1.22,1.46-2.11l-1.51.02c-.31.49-.7.92-1.17,1.28-.15-.21-.22-.27-.49-.43.57-.39.93-.79,1.3-1.45.16-.29.24-.48.25-.66l.69.14s-.03.04-.08.15t-.07.14s-.01.03-.06.13q-.03.07-.08.16c.06,0,.14,0,.24,0l1.1-.02c.2,0,.25-.01.37-.05l.32.32Z" fill="#231815"/>
      <path d="m556.29,100.21v.35h-.65c.02-.12.02-.24.02-.43v-2.87c0-.19,0-.29-.02-.42.12.01.23.02.43.02h2.84c.22,0,.31,0,.42-.02-.01.13-.02.23-.02.42v2.86c0,.19,0,.32.02.44h-.65v-.35h-2.4Zm2.4-2.79h-2.4v2.22h2.4v-2.22Z" fill="#231815"/>
      <path d="m533.8,109.01c-.35,0-.47,0-.62.02v-.65c.18.03.27.04.62.04h2.28v-2.18h-2.19c-.36,0-.46,0-.64.02v-.65c.19.03.28.04.65.04h2.41q.26,0,.43-.01c-.01.14-.01.19-.01.42v2.75c0,.25,0,.39.03.52h-.67v-.31h-2.28Z" fill="#231815"/>
      <path d="m538.08,108.65c.43-.02,1.03-.17,1.48-.37.63-.27,1.09-.66,1.49-1.23.22-.32.36-.6.51-1,.2.24.28.31.53.49-.43.92-.9,1.51-1.59,1.96-.51.34-1.13.59-1.91.75-.2.04-.22.04-.33.08l-.19-.69Zm.43-3.11c.59.37.91.6,1.29.97l-.43.55c-.4-.43-.81-.76-1.28-1.02l.42-.5Z" fill="#231815"/>
      <path d="m543.95,106.86c.76-.14,1.86-.59,2.19-.89l.4.57c-.05.02-.06.03-.1.05l-.13.06c-.74.38-1.52.64-2.35.8v.66s0,.06,0,.08c0,.28.02.39.09.46.08.08.37.13.86.13.34,0,.8-.03,1.16-.08.24-.03.35-.05.57-.12l.03.67c-.1,0-.13,0-.66.05-.3.03-.93.06-1.23.06-.63,0-.98-.06-1.17-.22-.14-.1-.22-.27-.25-.51-.01-.08-.02-.17-.02-.46v-2.32c0-.26,0-.34-.02-.46h.67c-.02.12-.02.21-.02.47v1.01Zm3.46-1.32c0,.32-.26.58-.58.58s-.58-.26-.58-.58.26-.58.58-.58.58.26.58.58Zm-.91,0c0,.18.14.33.33.33s.33-.15.33-.33-.15-.33-.33-.33-.33.15-.33.33Z" fill="#231815"/>
      <path d="m551.28,108.81c.23,0,.33,0,.46-.03v.57c-.13-.02-.25-.02-.46-.02h-2.6c-.22,0-.33,0-.46.02v-.57c.14.03.23.03.46.03h1.48c.08-.45.19-1.15.24-1.61h-1.24c-.24,0-.32,0-.45.02v-.57c.12.02.26.03.46.03h1.27c.17,0,.25,0,.37-.04l.28.24q-.06.16-.12.57c-.08.55-.13.91-.21,1.36h.53Z" fill="#231815"/>
      <path d="m552.84,106.98c.22.03.32.03.81.03h2.67c.5,0,.59,0,.81-.03v.7c-.2-.03-.25-.03-.82-.03h-2.66c-.56,0-.62,0-.82.03v-.7Z" fill="#231815"/>
      <path d="m561.88,105.99c-.07.09-.08.1-.16.34-.16.46-.44,1.04-.64,1.38-.51.83-1.22,1.42-2.28,1.91-.16-.27-.23-.36-.42-.52.43-.17.68-.3.98-.5.36-.23.57-.41.82-.7-.35-.3-.65-.51-1.03-.72l.38-.45c.42.23.63.38,1.01.67.24-.36.41-.71.56-1.18l-1.56.02c-.31.52-.67.92-1.17,1.35-.17-.19-.24-.25-.5-.4.55-.41.95-.87,1.26-1.43.15-.27.25-.51.29-.7l.65.15q-.06.09-.15.28c-.06.14-.1.2-.12.24q.08,0,1.3-.02c.21,0,.31-.02.44-.06l.34.34Z" fill="#231815"/>
      <path d="m562.84,106.98c.22.03.32.03.81.03h2.67c.5,0,.59,0,.81-.03v.7c-.2-.03-.25-.03-.82-.03h-2.66c-.56,0-.62,0-.82.03v-.7Z" fill="#231815"/>
      <path d="m543.18,114.47c-.18,0-.29,0-.43.02v-.54c.13.02.29.03.49.03h.88c.21,0,.33,0,.48-.03v.54c-.14-.02-.26-.02-.43-.02h-.25c-.07.41-.15.7-.32,1.08h.61c.15,0,.2,0,.3-.02-.01.13-.01.2-.01.37v1.72c0,.21,0,.27.01.39h-.5v-.23h-.43v.5h-.54c.02-.15.03-.31.03-.51v-.92c0-.2,0-.22.01-.49-.09.18-.16.27-.32.47-.06-.32-.09-.42-.2-.62.28-.28.46-.58.64-1.07.09-.24.12-.38.17-.68h-.19Zm.39,2.87h.44v-1.31h-.44v1.31Zm1.59-2.89c-.16,0-.28,0-.41.02v-.55c.11.02.29.03.55.03h1.45c.22,0,.39,0,.54-.03v.55c-.16-.02-.23-.02-.49-.02v1.19h.04c.26,0,.36,0,.5-.02v.56c-.15-.02-.25-.02-.5-.02h-.04v1.63c0,.22,0,.41.03.62h-.59c.02-.22.03-.37.03-.62v-1.64h-.58c-.02.45-.05.71-.12,1-.12.55-.28.88-.62,1.3-.13-.16-.26-.25-.47-.35.3-.35.46-.67.58-1.15.06-.22.08-.46.09-.79-.25,0-.33,0-.49.02v-.56c.15.02.24.02.5.02v-1.19Zm1.1,1.19v-1.19h-.57v1.19h.57Z" fill="#231815"/>
      <path d="m550.58,116.26c.26,0,.37,0,.53-.02,0,.13-.01.22-.02.45v.99c-.02.13.03.16.21.16.37,0,.43-.02.46-.12.04-.12.06-.38.06-.78.2.09.27.12.53.17-.08,1.19-.11,1.22-1.05,1.22-.61,0-.76-.09-.76-.46v-.04l.02-1.08h-.74c-.12.44-.28.72-.58,1-.3.28-.68.5-1.2.68-.1-.21-.16-.3-.33-.5.61-.2.91-.34,1.15-.56.19-.17.32-.36.41-.63h-.69c-.27,0-.42,0-.56.02v-.55c.15.02.3.03.55.03h.8c.01-.13.02-.22.02-.31,0-.11,0-.18-.02-.29h.6c-.03.09-.03.12-.04.41,0,.08,0,.11-.02.19h.69Zm-.91-2.11c0-.14-.01-.22-.03-.33h.61c-.02.1-.03.19-.03.33v.11h1.41c.23,0,.35,0,.55-.02-.01.11-.02.21-.02.37v.36c0,.16,0,.26.02.37h-.33c-.04.28-.1.4-.25.46-.12.05-.34.07-.82.07-.52,0-.67-.08-.67-.37v-.75h-.42c-.08.33-.13.46-.27.65-.23.32-.51.47-1.24.66-.09-.17-.15-.27-.3-.46.6-.11.81-.19,1-.35.14-.12.22-.27.26-.5h-.83v.58h-.54c.01-.11.02-.22.02-.38v-.35c0-.16,0-.25-.02-.37.19.02.32.02.55.02h1.33v-.11Zm1.97.6h-1v.53c0,.11.04.12.32.12.25,0,.34-.02.38-.09.02-.04.03-.14.04-.29.12.04.16.05.27.08v-.36Z" fill="#231815"/>
      <path d="m553.72,115.43c-.31.2-.45.28-.8.43-.08-.2-.17-.34-.29-.51.54-.22.88-.4,1.26-.7.33-.26.59-.52.79-.84h.6c.26.37.46.57.85.83.42.3.83.51,1.29.68-.14.22-.21.36-.28.56-.32-.13-.51-.24-.86-.46v.39c-.13-.02-.26-.02-.45-.02h-1.67c-.15,0-.3,0-.43.02v-.39Zm-.28,1.29c-.25,0-.43.01-.59.03v-.58c.17.02.36.03.59.03h3.12c.25,0,.42,0,.58-.03v.58c-.17-.02-.33-.03-.58-.03h-1.72c-.16.37-.31.66-.52.97q.89-.05,1.59-.13c-.16-.17-.25-.27-.53-.56l.5-.22c.54.54.75.79,1.16,1.34l-.48.32c-.17-.25-.22-.32-.3-.44-.42.06-.72.09-.9.11-.5.04-1.49.14-1.69.15-.28.02-.53.04-.65.07l-.08-.61c.14.01.22.02.29.02.04,0,.18,0,.44-.02.25-.37.4-.66.54-1h-.76Zm2.37-1.45c.08,0,.12,0,.22,0-.46-.32-.75-.58-1.05-.97-.27.36-.58.65-1.04.97.08,0,.12,0,.21,0h1.66Z" fill="#231815"/>
    </g>
    <g>
      <path d="m503.85,99.54c-.07.2-.09.27-.12.5-.22,1.64-.55,2.47-1.28,3.25-.55.58-1.25,1.03-2.17,1.39-.2-.38-.29-.5-.57-.81.59-.17.97-.34,1.42-.65,1-.68,1.53-1.71,1.67-3.23h-3.33v1.05q0,.5.03.62h-.94c.02-.16.03-.28.03-.6v-1.34c0-.29,0-.38-.02-.57.19.02.41.04.58.04h3.39c.47,0,.62-.01.86-.08l.46.43Z" fill="#231815"/>
      <path d="m505.44,103.53c.6-.04,1.44-.24,2.07-.52.88-.38,1.53-.92,2.08-1.72.31-.45.5-.83.71-1.4.27.33.39.43.74.69-.59,1.28-1.26,2.11-2.22,2.75-.71.48-1.58.82-2.67,1.05-.28.06-.3.06-.46.12l-.26-.97Zm.59-4.35c.83.52,1.27.84,1.81,1.35l-.6.76c-.56-.6-1.13-1.06-1.79-1.42l.58-.69Z" fill="#231815"/>
      <path d="m517.6,99.96c-.08.11-.11.18-.22.47-.83,2.29-1.92,3.5-4.03,4.48-.21-.36-.34-.52-.58-.73,1.05-.41,1.95-1.01,2.51-1.67-.43-.37-.99-.76-1.44-.99l.53-.62c.55.31.92.55,1.41.94.29-.43.59-1.05.78-1.65l-2.18.02c-.38.66-1,1.36-1.64,1.88-.22-.25-.35-.36-.7-.56.71-.53,1.34-1.24,1.75-2,.24-.44.36-.71.41-.97l.91.2c-.08.13-.08.14-.21.4-.12.25-.13.27-.17.34.07,0,.09,0,.2-.01h1.62c.15-.02.31-.03.38-.04-.16-.31-.29-.51-.5-.79l.54-.16c.29.36.46.64.64,1.09l-.26.08.22.32Zm.44-.48c-.17-.39-.37-.74-.62-1.07l.52-.17c.29.34.46.62.64,1.05l-.54.19Z" fill="#231815"/>
      <path d="m519.1,101.2c.31.04.44.05,1.13.05h3.73c.69,0,.83,0,1.13-.05v.97c-.28-.04-.36-.04-1.14-.04h-3.72c-.78,0-.86,0-1.14.04v-.97Z" fill="#231815"/>
      <path d="m500.31,111.9c-.06.12-.08.17-.12.32-.35,1.34-.76,2.18-1.44,2.93-.69.77-1.44,1.28-2.61,1.79-.2-.38-.29-.51-.62-.83.62-.2,1.02-.38,1.53-.71,1.09-.71,1.78-1.7,2.12-3.05h-3.33c-.47,0-.63,0-.88.04v-.91c.27.04.42.05.9.05h3.21c.39,0,.53-.01.75-.07l.48.46Z" fill="#231815"/>
      <path d="m502.93,113.78c-.29,0-.43,0-.63.03v-.76c.19.03.32.04.63.04h2.04v-.43c0-.25-.01-.41-.04-.55h.82c-.02.16-.02.21-.02.52v.46h.62c.31,0,.45,0,.63-.04v.76c-.19-.02-.33-.03-.64-.03h-.6l.04,2.67c0,.29.01.43.04.6h-.85c.02-.17.03-.32.03-.57v-1.75c0-.08,0-.35,0-.43-.1.19-.14.25-.24.39-.48.67-1.27,1.31-2.27,1.85-.17-.3-.25-.41-.52-.66.56-.25,1.06-.56,1.51-.95.43-.36.81-.79,1.02-1.15h-1.56Z" fill="#231815"/>
      <path d="m508.6,113.45c.31.04.44.05,1.13.05h3.73c.69,0,.83,0,1.13-.05v.97c-.28-.04-.36-.04-1.14-.04h-3.72c-.78,0-.86,0-1.14.04v-.97Z" fill="#231815"/>
      <path d="m519.81,113.07v.09c-.13,1.95-.91,3.06-2.73,3.87-.16-.34-.3-.52-.58-.77.97-.31,1.76-.95,2.09-1.69.18-.39.29-.9.34-1.59h-1.68c-.38.62-.69.99-1.16,1.42-.25-.27-.4-.39-.71-.55.59-.46,1.13-1.16,1.48-1.93.22-.46.31-.73.35-1l.91.22s-.05.09-.06.1c-.03.07-.03.08-.21.5-.06.15-.13.3-.21.46h.22s1,0,2.84,0c.49,0,.6,0,.88-.04v.86c-.12-.01-.2-.02-.22-.02-.14,0-.36,0-.67,0h-.86v.09Zm.73-2.24c.27.36.43.64.62,1.11l-.52.2c-.19-.47-.35-.76-.62-1.12l.51-.19Zm.99.96c-.17-.41-.36-.77-.6-1.09l.5-.2c.29.37.46.65.62,1.06l-.51.22Z" fill="#231815"/>
      <path d="m524.68,111.2q-.03.2-.07,1.57c-.05,1.37-.2,2.16-.57,2.88-.24.48-.5.84-.97,1.3-.27-.35-.38-.46-.71-.68.34-.28.51-.47.72-.81.5-.81.67-1.71.67-3.67,0-.38,0-.45-.03-.64l.95.05Zm1.86-.08c-.04.2-.04.32-.05.67l-.04,3.99c.49-.23.77-.44,1.07-.8.32-.38.53-.76.69-1.28.25.31.34.41.66.66-.29.69-.65,1.22-1.11,1.63-.4.34-.76.55-1.49.84-.15.06-.21.08-.3.13l-.45-.48c.05-.2.06-.36.06-.74l.04-3.95v-.21c0-.17,0-.33-.03-.46h.95Z" fill="#231815"/>
    </g>
    <g>
      <path d="m463.43,110.82c0,.54.02.89.08,1.3h-1.51c.06-.42.08-.76.08-1.3v-5.46h-1.35c-.59,0-1.02.02-1.37.07v-1.34c.36.05.79.07,1.36.07h3.96c.72,0,1.09-.02,1.47-.07v1.34c-.37-.05-.75-.07-1.47-.07h-1.25v5.46Z" fill="#231815"/>
      <path d="m466.64,108.42c.29.04.54.06.94.06h1.55c.41,0,.66-.02.95-.06v1.33c-.33-.05-.54-.06-.95-.06h-1.55c-.39,0-.61,0-.94.06v-1.33Z" fill="#231815"/>
      <path d="m474.76,112.12c-.05-.32-.21-.79-.44-1.35l-1.44-3.43c-.19-.45-.28-.72-.51-1.53.04.53.08,1.35.08,1.57v3.28c0,.69.02,1.07.08,1.46h-1.4c.06-.4.08-.79.08-1.46v-5.02c0-.65-.02-1.07-.08-1.48h1.83c.07.35.2.77.37,1.19l2.03,4.96,2.02-4.96c.2-.49.29-.81.36-1.19h1.84c-.06.48-.08.81-.08,1.48v5.02c0,.73.02,1.09.08,1.46h-1.4c.06-.41.08-.77.08-1.46v-3.32c.04-.87.07-1.38.08-1.53-.13.54-.32,1.1-.46,1.46l-1.5,3.52c-.2.47-.38,1.03-.44,1.33h-1.18Z" fill="#231815"/>
      <path d="m482.52,104.16c-.06.38-.08.69-.08,1.29v5.38c0,.59.02.91.08,1.29h-1.52c.06-.38.08-.7.08-1.29v-5.38c0-.62-.02-.89-.08-1.29h1.52Z" fill="#231815"/>
      <path d="m487.44,110.82c0,.54.02.89.08,1.3h-1.51c.06-.42.08-.76.08-1.3v-5.46h-1.35c-.59,0-1.02.02-1.37.07v-1.34c.36.05.79.07,1.36.07h3.96c.72,0,1.09-.02,1.47-.07v1.34c-.37-.05-.75-.07-1.47-.07h-1.25v5.46Z" fill="#231815"/>
    </g>
    <g>
      <path d="m425.75,104.64h-2.06c-.45,0-.72.01-.98.04v-.88c.29.04.63.06,1.1.06h1.94c0-.26-.02-.32-.06-.55h1.17c-.05.2-.06.28-.07.55h2.01c.5,0,.82-.01,1.1-.04-.02.18-.03.38-.03.85v.29h.08c.42,0,.64,0,.91-.05v.87c-.24-.04-.49-.05-.94-.05h-.05v.39c0,.31.01.59.03.71-.29-.02-.59-.03-1.04-.03h-2.07v.31h2.38c.51,0,.76,0,1.04-.04v.84c-.3-.04-.57-.05-1.04-.05h-2.38v.32h2.89c.51,0,.86-.02,1.15-.06v.93c-.34-.04-.73-.06-1.15-.06h-6.74c-.44,0-.81.02-1.16.06v-.93c.29.04.67.06,1.16.06h2.81v-.32h-2.26c-.47,0-.75.01-1.04.05v-.84c.29.03.54.04,1.04.04h2.26v-.31h-2.06c-.45,0-.71,0-.99.04v-.82c.27.03.53.04.99.04h2.06v-.33h-2.82c-.51,0-.81.01-1.15.05v-.87c.31.03.65.05,1.15.05h2.82v-.32Zm-2.79,5.61c0-.57,0-.74-.03-.98.25.02.4.02,1.06.02h4.67c.67,0,.84,0,1.07-.02-.03.21-.04.44-.04.98v1.29c0,.52.02.81.06,1.04h-1.11v-.34h-4.64v.34h-1.09c.03-.29.05-.59.05-1.03v-1.3Zm1.04.16h4.64v-.37h-4.64v.37Zm0,1.06h4.64v-.37h-4.64v.37Zm4.85-6.83h-2.06v.32h2.06v-.32Zm-2.06,1.09v.33h2.06v-.33h-2.06Z" fill="#231815"/>
      <path d="m431.82,107.2c.25.04.41.05.8.05h.73c.31,0,.54-.01.77-.05-.04.31-.05.54-.05,1.09v2.06c.22.36.4.53.7.66.53.23,1.21.31,2.61.31s2.64-.07,3.72-.21c-.19.42-.26.66-.33,1.17-1.79.05-2.68.07-3.43.07-1.43,0-2.21-.09-2.75-.31-.44-.18-.67-.36-1.06-.81-.29.31-.7.66-1.14.97-.12.09-.16.12-.28.23l-.5-1.13c.38-.14.8-.43,1.43-.97v-2.1h-.54c-.28,0-.42,0-.68.05v-1.08Zm.77-3.64c.76.66,1.22,1.15,1.71,1.8l-.82.77c-.59-.8-1.01-1.26-1.69-1.85l.8-.72Zm3.42.9c-.14-.28-.32-.55-.54-.82l.97-.31c.28.38.43.63.68,1.13h.88c.25-.34.45-.7.63-1.12l1.07.26c-.18.3-.4.64-.55.86h.63c.46,0,.71-.02.99-.06v1c-.31-.03-.63-.04-.99-.04h-1.69c-.12.25-.16.34-.25.51h1.44c.46,0,.72-.01.9-.04-.03.26-.04.54-.04.95v2.96c0,.4.01.67.05.97-.33-.01-.52-.02-.77-.02h-3.48c-.31,0-.53,0-.93.02.02-.23.03-.61.03-.95v-2.99c0-.33-.02-.7-.04-.93.23.02.52.03.97.03h.75c.12-.22.15-.29.24-.51h-1.47c-.46,0-.73.01-1,.04v-1c.24.04.54.06,1.03.06h.49Zm.02,5.37h3.08v-.54h-3.08v.54Zm0-2.57h3.09v-.54h-3.09v.54Zm0,1.28h3.09v-.53h-3.09v.53Z" fill="#231815"/>
      <path d="m446.05,107.05c.43,0,.67,0,.86-.05v1.1c-.22-.04-.48-.05-.81-.05h-3.35c-.49,0-.71.01-1,.05v-1.1c.27.04.5.05,1.01.05h1.97c.24-.56.39-1.02.52-1.63l1.03.26c-.14.48-.31.91-.53,1.37h.3Zm-.14-2.7c.45,0,.67-.01.91-.05v1.08c-.21-.04-.41-.05-.84-.05h-3.2c-.37,0-.6,0-.82.05v-1.08c.23.04.46.05.95.05h1.02v-.28c0-.28-.02-.5-.06-.7h1.19c-.03.2-.05.41-.05.7v.28h.9Zm-2.52,8.22h-1.08c.03-.28.04-.52.04-.94v-2.17c0-.41,0-.59-.03-.82.23.02.43.03.8.03h2.58c.41,0,.58,0,.73-.03-.02.18-.03.31-.03.74v2.43c0,.35,0,.53.04.75h-1.1v-.57h-1.95v.58Zm.16-7.23c.23.46.37.84.52,1.4l-.99.3c-.14-.6-.25-.94-.47-1.4l.94-.3Zm-.16,5.69h1.96v-1.4h-1.96v1.4Zm7.62-6.73c-.07.13-.11.21-.2.44-.34.89-.66,1.58-1.08,2.38.55.63.77.96.96,1.45.18.43.28.94.28,1.39,0,.63-.26,1.09-.71,1.25-.25.1-.53.13-1.02.13-.17,0-.26,0-.5-.02-.02-.52-.07-.76-.23-1.09.26.04.46.06.75.06.5,0,.66-.11.66-.43,0-.42-.11-.86-.32-1.29-.23-.46-.45-.75-1.04-1.3.58-1.07.88-1.78,1.1-2.62h-1.39v6.81c0,.54.02.88.07,1.17h-1.18c.04-.32.06-.71.06-1.14v-7.03c0-.29,0-.57-.04-.84.27.03.49.04.82.04h1.73c.39,0,.6,0,.79-.05l.49.69Z" fill="#231815"/>
    </g>
    <g>
      <path d="m388.59,96.18c-.02.06-.03.12-.04.13,0,0-.02.06-.04.15-.29,1.31-.86,2.61-1.51,3.49-.42-.31-.61-.41-1.04-.58.69-.75,1.4-2.36,1.52-3.48l1.11.27Zm4.07-1.92c-.24-.59-.45-.96-.78-1.42l.67-.23c.35.47.56.83.8,1.42l-.62.23c.63,0,.82,0,1.13-.06v1.11c-.3-.04-.43-.05-1.14-.05h-2.08v4.37c0,.5,0,.77.04,1.01h-1.22c.04-.24.05-.51.05-1.02v-4.36h-2c-.7,0-.84,0-1.13.05v-1.11c.31.05.49.06,1.15.06h1.98v-.5c0-.52-.02-.72-.05-.94h1.21c-.03.24-.04.39-.04.96v.48h2.04Zm-.07,1.65c.28,1.17,1,2.74,1.59,3.43-.46.23-.63.34-1.04.63-.65-1.02-1.05-1.94-1.48-3.37-.07-.24-.08-.29-.14-.42l1.06-.27Zm1.28-2.01c-.22-.53-.48-.99-.77-1.4l.64-.23c.37.48.58.84.79,1.37l-.66.26Z" fill="#231815"/>
      <path d="m395.23,96.06c.4.05.57.06,1.46.06h4.8c.89,0,1.06,0,1.46-.06v1.25c-.36-.05-.46-.05-1.47-.05h-4.78c-1.01,0-1.11,0-1.47.05v-1.25Z" fill="#231815"/>
      <path d="m405.82,100.54c.04-.25.05-.5.05-1.01v-5.77c0-.52-.02-.7-.05-.92h1.23c-.03.24-.04.41-.04.95v1.67c1.04.34,2.67,1.1,4.09,1.9l-.63,1.06c-.63-.45-1.91-1.14-3.19-1.72-.21-.1-.23-.11-.31-.15.03.25.04.41.04.61v2.38c0,.49,0,.74.04,1h-1.23Zm3.71-7.23c.4.42.64.77.95,1.32l-.63.33c-.3-.55-.55-.91-.95-1.34l.63-.32Zm1.4,1.09c-.27-.5-.57-.92-.92-1.31l.6-.31c.4.41.66.76.94,1.27l-.62.35Z" fill="#231815"/>
      <path d="m391.65,106.57v.12c-.16,2.5-1.17,3.93-3.51,4.98-.21-.43-.39-.67-.75-.99,1.25-.41,2.26-1.22,2.68-2.18.23-.5.38-1.15.43-2.04h-2.16c-.49.79-.89,1.28-1.49,1.83-.32-.35-.51-.5-.92-.71.76-.59,1.45-1.49,1.9-2.48.28-.59.4-.94.45-1.29l1.17.28c-.04.06-.06.12-.07.14-.04.09-.04.1-.27.64-.08.19-.17.39-.27.59h.28c.06,0,1.28,0,3.66,0,.63,0,.77,0,1.13-.05v1.11c-.15-.02-.25-.03-.29-.03-.18,0-.47,0-.86,0h-1.11v.12Zm.94-2.88c.35.47.56.83.8,1.42l-.67.26c-.24-.6-.45-.97-.79-1.44l.66-.24Zm1.27,1.23c-.22-.53-.47-.99-.77-1.4l.64-.25c.37.48.58.84.79,1.37l-.66.28Z" fill="#231815"/>
      <path d="m395.23,107.06c.4.05.57.06,1.46.06h4.8c.89,0,1.06,0,1.46-.06v1.25c-.36-.05-.46-.05-1.47-.05h-4.78c-1.01,0-1.11,0-1.47.05v-1.25Z" fill="#231815"/>
      <path d="m408.41,104.09c-.1.2-.11.22-.23.65-.68,2.25-1.21,3.75-1.78,5.13,1.41-.11,2.97-.3,3.75-.46-.1-.22-.21-.41-.42-.82-.4-.75-.56-1.01-.86-1.43l1.02-.4c.84,1.22,1.63,2.74,2.18,4.17l-1.09.57q-.12-.37-.43-1.12-.12.03-.32.07c-.91.19-2.4.38-5.1.64-.5.04-.64.06-.82.11l-.16-1.22h.23c.18,0,.4,0,.77-.03.48-1.13.84-2.15,1.31-3.63.42-1.32.59-1.96.66-2.49l1.3.25Z" fill="#231815"/>
      <path d="m386.84,115.79c-.32,0-.51,0-.77.04v-.97c.23.04.53.05.87.05h1.58c.39,0,.59,0,.86-.05v.96c-.24-.03-.46-.04-.77-.04h-.46c-.12.73-.27,1.26-.57,1.94h1.09c.27,0,.36,0,.54-.03-.03.23-.03.35-.03.66v3.1c0,.37,0,.49.03.7h-.89v-.41h-.77v.9h-.97c.04-.26.05-.55.05-.92v-1.65c0-.35,0-.39.02-.87-.15.31-.28.5-.57.84-.11-.58-.16-.75-.35-1.12.5-.5.83-1.04,1.14-1.93.16-.43.23-.68.31-1.22h-.33Zm.7,5.17h.78v-2.36h-.78v2.36Zm2.85-5.19c-.28,0-.5,0-.74.04v-.98c.19.04.52.05.99.05h2.6c.4,0,.69-.02.96-.05v.98c-.28-.04-.41-.04-.88-.04v2.13h.07c.47,0,.65,0,.9-.04v1.01c-.26-.04-.45-.04-.9-.04h-.07v2.93c0,.4.02.74.06,1.12h-1.07c.04-.4.05-.67.05-1.11v-2.94h-1.04c-.04.8-.09,1.28-.22,1.8-.22.98-.5,1.58-1.11,2.33-.24-.29-.48-.46-.85-.64.54-.62.84-1.21,1.04-2.07.1-.4.14-.82.17-1.42-.44,0-.58,0-.88.04v-1.01c.27.04.42.04.9.04v-2.13Zm1.98,2.13v-2.13h-1.03v2.13h1.03Z" fill="#231815"/>
      <path d="m400.16,119c.47,0,.67,0,.95-.04-.02.23-.03.39-.04.81l-.03,1.77c0,.23.07.29.4.29.67,0,.77-.03.83-.21.06-.21.11-.68.12-1.4.35.16.49.21.95.31-.14,2.13-.2,2.2-1.88,2.2-1.1,0-1.37-.17-1.37-.83v-.06l.03-1.94h-1.33c-.21.78-.5,1.3-1.04,1.8-.54.5-1.22.89-2.16,1.22-.18-.38-.28-.53-.59-.89,1.1-.36,1.63-.61,2.07-1,.34-.3.57-.65.73-1.13h-1.24c-.49,0-.75,0-1.01.04v-.99c.27.04.54.05.99.05h1.44c.03-.23.04-.39.04-.55,0-.19,0-.32-.04-.51h1.07c-.04.17-.04.23-.08.73,0,.13,0,.2-.03.33h1.23Zm-1.64-3.8c0-.25-.02-.4-.05-.58h1.1c-.04.17-.04.33-.04.58v.21h2.53c.41,0,.64,0,.99-.04-.03.2-.04.37-.04.67v.64c0,.28,0,.46.04.67h-.58c-.07.5-.18.71-.44.83-.21.09-.61.13-1.48.13-.94,0-1.2-.14-1.2-.67v-1.34h-.75c-.14.59-.23.83-.48,1.16-.41.58-.91.84-2.22,1.18-.16-.31-.27-.49-.54-.83,1.08-.2,1.46-.33,1.79-.62.26-.23.4-.49.47-.89h-1.5v1.04h-.98c.03-.2.04-.4.04-.67v-.62c0-.29,0-.46-.04-.67.34.04.58.04.99.04h2.39v-.21Zm3.54,1.08h-1.8v.95c0,.2.07.23.57.23.44,0,.62-.04.68-.16.04-.08.05-.25.06-.51.21.08.29.1.49.14v-.65Z" fill="#231815"/>
      <path d="m405.81,117.52c-.56.36-.81.5-1.44.77-.15-.36-.3-.61-.52-.92.97-.39,1.58-.72,2.26-1.25.59-.46,1.05-.94,1.42-1.51h1.07c.48.67.84,1.02,1.52,1.49.76.54,1.49.92,2.31,1.22-.25.39-.37.64-.5,1.01-.57-.24-.91-.42-1.54-.82v.7c-.23-.03-.47-.04-.81-.04h-3.01c-.26,0-.53,0-.77.04v-.69Zm-.5,2.32c-.46,0-.77.02-1.06.05v-1.04c.3.04.64.05,1.06.05h5.61c.44,0,.76-.02,1.05-.05v1.04c-.3-.04-.6-.05-1.05-.05h-3.1c-.28.66-.56,1.19-.94,1.75q1.59-.09,2.85-.23c-.29-.31-.44-.48-.95-1l.89-.4c.96.97,1.35,1.42,2.08,2.4l-.86.57c-.3-.44-.39-.57-.54-.78-.75.1-1.29.16-1.62.2-.89.08-2.67.24-3.03.27-.5.04-.96.08-1.16.13l-.14-1.1c.24.02.4.03.52.03.06,0,.33,0,.79-.04.44-.67.72-1.19.96-1.8h-1.37Zm4.27-2.6c.14,0,.22,0,.4,0-.83-.57-1.34-1.04-1.88-1.75-.48.64-1.04,1.16-1.87,1.75.15,0,.21,0,.37,0h2.99Z" fill="#231815"/>
    </g>
    <g>
      <path d="m350.39,104.41s-.06.08-.12.1c-.49,1.14-1.06,2.13-1.8,3.1.98.78,2.46,2.12,3.29,3.05l-.55.48c-.79-.92-2.24-2.29-3.16-3.02-.79.96-2.16,2.28-3.47,3.02-.1-.14-.32-.36-.47-.49,2.49-1.37,4.47-3.93,5.28-5.88h-4.42v-.61h4.77l.12-.04.52.3Z" fill="#231815"/>
      <path d="m360.81,104.96s-.07.07-.13.09c-.84,1.28-2.25,2.62-3.64,3.62.69.56,1.39,1.25,1.85,1.76l-.55.48c-.95-1.11-2.72-2.59-4.24-3.48l.43-.46c.64.36,1.36.84,2.01,1.33,1.22-.86,2.45-2.03,3.16-3.07h-6.61v-.61h7.08l.11-.05.53.41Z" fill="#231815"/>
      <path d="m361.9,110.97c.67-1.91,1.77-5.1,2.12-6.05.17-.49.41-1.17.47-1.4l.97.25c-.04.13-.17.17-.35.17-.5,1.23-1.26,3.34-1.59,4.24h0c.53-.65,1.34-1.11,1.97-1.11.78,0,1.16.53,1.13,1.37l-.03,1.07c0,.68.35,1.04.94,1.04.81,0,1.56-.93,1.97-2.48.18.13.4.24.58.33-.5,1.72-1.39,2.8-2.58,2.8-.95,0-1.58-.58-1.58-1.49,0-.17.03-1,.03-1.19,0-.57-.23-.86-.63-.86-1.04,0-2.08,1.5-2.3,2.09-.13.31-.32.89-.5,1.41l-.64-.21Z" fill="#231815"/>
      <path d="m374.01,110.3h-1.9v.79h-.54v-3.09c-.16.33-.33.64-.53.9-.07-.13-.24-.38-.34-.5.66-.91,1.08-2.48,1.32-4.14h-1.18v-.57h3.5v.57h-1.74c-.12.75-.27,1.49-.47,2.18h1.87v3.85Zm-.55-.55v-2.75h-1.35v2.75h1.35Zm5.7-2.69v.58h-1.12v3.96h-.58v-3.96h-1.44c-.07,1.43-.41,2.91-1.8,3.98-.11-.1-.32-.27-.48-.35,1.3-.99,1.63-2.35,1.69-3.63h-1.13v-.58h1.15v-2.82h-.87v-.57h4.41v.57h-.95v2.82h1.12Zm-3.13,0h1.43v-2.82h-1.43v2.82Z" fill="#231815"/>
    </g>
    <g>
      <path d="m314.47,95.71c-.13.5-.26.78-.47,1.05-.4.49-1.07.76-1.91.76-.76,0-1.37-.23-1.8-.67-.49-.51-.76-1.3-.76-2.2s.29-1.74.82-2.26c.42-.43,1.05-.67,1.75-.67.55,0,.96.1,1.34.34.32.2.57.46.74.76.08.15.13.27.22.54l-.97.22c-.1-.31-.16-.44-.3-.6-.24-.29-.59-.43-1.02-.43-.99,0-1.6.78-1.6,2.07s.62,2.08,1.6,2.08c.49,0,.91-.19,1.13-.52.12-.18.17-.32.23-.64l1,.18Z" fill="#231815"/>
      <path d="m316.22,91.84c-.04.27-.05.5-.05.92v3.75c0,.37.01.6.05.91h-1.02c.04-.3.05-.5.05-.91v-3.75c0-.42-.01-.64-.05-.91h1.02Z" fill="#231815"/>
      <path d="m316.93,95.41c0-1.3.81-2.14,2.09-2.14s2.07.83,2.07,2.12-.82,2.15-2.07,2.15-2.09-.83-2.09-2.14Zm.9,0c0,.86.45,1.39,1.18,1.39s1.18-.53,1.18-1.38c0-.9-.43-1.42-1.17-1.42s-1.18.53-1.18,1.41Z" fill="#231815"/>
      <path d="m322.57,96.16c.12.48.38.67.92.67.52,0,.84-.2.84-.53,0-.14-.07-.27-.18-.35-.13-.09-.18-.1-.74-.22-.55-.12-.77-.19-1.01-.3-.4-.19-.62-.53-.62-.93,0-.25.08-.48.22-.65.29-.36.76-.55,1.4-.55.57,0,1.03.14,1.32.41.18.18.28.35.38.69l-.92.12c-.08-.39-.31-.55-.77-.55s-.73.2-.73.49c0,.13.08.25.22.33.15.08.3.12.7.21.71.15,1,.25,1.23.43.27.2.41.48.41.87,0,.29-.13.6-.34.79-.32.3-.81.46-1.45.46-.72,0-1.26-.22-1.56-.62-.13-.17-.19-.31-.27-.62l.96-.12Z" fill="#231815"/>
      <path d="m326.66,95.64c.04.39.1.58.26.78.2.25.52.39.88.39s.64-.13.84-.35c.08-.1.13-.17.2-.36l.83.27c-.16.34-.25.47-.43.64-.36.36-.85.54-1.44.54-1.24,0-2.02-.83-2.02-2.14s.78-2.14,1.97-2.14c.82,0,1.46.41,1.74,1.11.13.34.18.59.2,1.06,0,.01,0,.04.01.2h-3.05Zm2.14-.69c-.05-.31-.13-.5-.31-.67-.19-.19-.43-.28-.76-.28-.55,0-.95.36-1.05.95h2.12Z" fill="#231815"/>
      <path d="m334.23,93.4c-.05.3-.06.52-.06.91v2.2c0,.39.01.62.06.91h-.95v-.37c0-.1,0-.13,0-.3-.39.55-.77.75-1.44.75-.36,0-.61-.06-.84-.2-.39-.25-.57-.64-.57-1.21v-1.77c0-.39-.02-.65-.06-.91h1.02c-.04.31-.05.55-.05.91v1.55c0,.41.11.67.32.8.11.06.25.1.39.1.5,0,.9-.34,1.22-1.04v-1.41c0-.34-.02-.61-.06-.91h1.01Z" fill="#231815"/>
      <path d="m336.04,93.74c0,.08,0,.15,0,.25.39-.49.8-.69,1.43-.69.56,0,1.01.17,1.33.49.37.38.55.9.55,1.61,0,1.29-.71,2.07-1.9,2.07-.62,0-1.08-.22-1.42-.67q0,.08,0,.22s0,.17,0,.3v.53c0,.41.01.64.05.93h-.99c.04-.33.05-.57.05-.92v-3.52c0-.41-.01-.64-.05-.94h.93v.34Zm1.25.31c-.69,0-1.22.57-1.22,1.32,0,.8.52,1.36,1.25,1.36.69,0,1.11-.52,1.11-1.34s-.43-1.34-1.14-1.34Z" fill="#231815"/>
      <path d="m316.23,109.67c-.04-.22-.15-.55-.31-.95l-1.01-2.4c-.13-.32-.2-.5-.36-1.07.03.37.06.95.06,1.1v2.3c0,.48.01.75.06,1.02h-.98c.04-.28.06-.55.06-1.02v-3.52c0-.46-.01-.75-.06-1.04h1.28c.05.25.14.54.26.83l1.42,3.47,1.42-3.47c.14-.34.2-.57.25-.83h1.29c-.04.34-.06.57-.06,1.04v3.52c0,.51.01.76.06,1.02h-.98c.04-.29.06-.54.06-1.02v-2.33c.03-.61.05-.97.06-1.07-.09.38-.22.77-.32,1.02l-1.05,2.47c-.14.33-.27.72-.31.93h-.83Z" fill="#231815"/>
      <path d="m323.19,109.21c-.28.27-.46.36-.74.44-.2.06-.43.08-.65.08-.85,0-1.37-.44-1.37-1.18,0-.49.31-.93.79-1.13.46-.19.97-.26,1.97-.28v-.36c0-.41-.27-.62-.81-.62-.28,0-.57.08-.73.2-.13.1-.2.2-.28.45l-.9-.16c.16-.41.29-.59.55-.78.34-.25.74-.36,1.34-.36.67,0,1.08.12,1.38.41.24.22.33.49.33.97v1.88c0,.37.01.56.06.88h-.95v-.46Zm0-1.46c-1.34.03-1.86.26-1.86.81,0,.33.25.53.64.53.37,0,.74-.14.97-.37.17-.17.25-.37.25-.62v-.35Z" fill="#231815"/>
      <path d="m325.59,109.83c.27.38.58.53,1.08.53.54,0,.95-.19,1.15-.53.12-.21.17-.46.18-.93-.35.44-.76.64-1.37.64-1.11,0-1.83-.76-1.83-1.96s.74-2,1.87-2c.62,0,1.04.19,1.34.62-.01-.14-.01-.15-.01-.23v-.32h.94c-.04.3-.05.5-.05.88v2.35c0,.84-.18,1.38-.59,1.72-.35.29-.93.45-1.65.45-.82,0-1.28-.19-1.76-.73l.7-.48Zm.46-1.26c.17.19.48.32.74.32.39,0,.78-.22.97-.55.13-.22.2-.48.2-.8,0-.45-.14-.8-.42-1.04-.2-.16-.43-.25-.68-.25-.7,0-1.13.53-1.13,1.36,0,.41.11.76.32.97Z" fill="#231815"/>
      <path d="m330.84,104.09v.89h-1.03v-.89h1.03Zm0,1.56c-.04.26-.05.49-.05.92v2.19c0,.39.01.62.05.92h-1.02c.04-.31.06-.56.06-.91v-2.2c0-.39-.01-.62-.06-.91h1.02Z" fill="#231815"/>
      <path d="m334.51,106.99c-.08-.22-.13-.32-.22-.43-.17-.21-.41-.32-.72-.32-.69,0-1.11.54-1.11,1.41s.43,1.42,1.14,1.42c.35,0,.63-.14.81-.39.06-.1.1-.17.14-.35l.87.18c-.1.28-.17.43-.29.6-.34.46-.88.71-1.54.71-1.23,0-2.03-.83-2.03-2.13,0-.66.21-1.23.59-1.62.34-.35.83-.53,1.41-.53.69,0,1.23.27,1.57.76.09.14.15.25.25.51l-.85.2Z" fill="#231815"/>
      <path d="m318.87,120.21c-.13.5-.26.78-.47,1.05-.4.49-1.07.76-1.91.76-.76,0-1.37-.23-1.8-.67-.49-.51-.76-1.3-.76-2.2s.29-1.74.82-2.26c.42-.43,1.05-.67,1.75-.67.55,0,.96.1,1.34.34.32.2.57.46.74.76.08.15.13.27.22.54l-.97.22c-.1-.31-.16-.44-.3-.6-.24-.29-.59-.43-1.02-.43-.99,0-1.6.78-1.6,2.07s.62,2.08,1.6,2.08c.49,0,.91-.19,1.13-.52.12-.18.17-.32.23-.64l1,.18Z" fill="#231815"/>
      <path d="m320.62,116.34v.89h-1.03v-.89h1.03Zm0,1.56c-.04.26-.05.49-.05.92v2.19c0,.39.01.62.05.92h-1.02c.04-.31.06-.56.06-.91v-2.2c0-.39-.01-.62-.06-.91h1.02Z" fill="#231815"/>
      <path d="m324.18,118.78c-.29-.08-.44-.11-.62-.11-.35,0-.62.11-.81.34-.17.2-.25.36-.29.7v1.3c0,.38.01.58.05.91h-1c.04-.34.05-.55.05-.91v-2.2c0-.43,0-.62-.05-.91h.95v.66c.25-.5.69-.74,1.32-.74.17,0,.34.02.65.08l-.25.88Z" fill="#231815"/>
      <path d="m327.73,119.24c-.08-.22-.13-.32-.22-.43-.17-.21-.41-.32-.72-.32-.69,0-1.11.54-1.11,1.41s.43,1.42,1.14,1.42c.35,0,.63-.14.81-.39.06-.1.1-.17.14-.35l.87.18c-.1.28-.17.43-.29.6-.34.46-.88.71-1.54.71-1.23,0-2.03-.83-2.03-2.13,0-.66.21-1.23.59-1.62.34-.35.83-.53,1.41-.53.69,0,1.23.27,1.57.76.09.14.15.25.25.51l-.85.2Z" fill="#231815"/>
      <path d="m330.33,116.34c-.04.27-.05.5-.05.92v3.75c0,.37.01.6.05.91h-1.02c.04-.3.05-.5.05-.91v-3.75c0-.42-.01-.64-.05-.91h1.02Z" fill="#231815"/>
      <path d="m331.93,120.14c.04.39.1.58.26.78.2.25.52.39.88.39s.64-.13.84-.35c.08-.1.13-.17.2-.36l.83.27c-.16.34-.25.47-.43.64-.36.36-.85.54-1.44.54-1.24,0-2.02-.83-2.02-2.14s.78-2.14,1.97-2.14c.82,0,1.46.41,1.74,1.11.13.34.18.59.2,1.06,0,.01,0,.04.01.2h-3.05Zm2.14-.69c-.05-.31-.13-.5-.31-.67-.19-.19-.43-.28-.76-.28-.55,0-.95.36-1.05.95h2.12Z" fill="#231815"/>
    </g>
    <g>
      <path d="m286.23,98.46h-3.78v2.03h2.75v4.04h-.62v-.45h-4.79v.49h-.59v-4.08h2.63v-2.03h-3.74v-.59h3.74v-1.67l.81.05c0,.06-.05.11-.18.13v1.49h3.78v.59Zm-1.66,5.04v-2.43h-4.79v2.43h4.79Z" fill="#231815"/>
      <path d="m294.49,101.83h.85v.59h-8.38v-.59h.93v-4.52h1.97v-1.13l.75.05c0,.05-.06.1-.18.12v.95h1.43v-1.13l.76.05c0,.06-.05.1-.17.12v.96h2.05v4.52Zm-4.13,1.16s-.1.05-.18.06c-.58.52-1.71,1.16-2.65,1.54-.11-.13-.32-.34-.47-.46.95-.36,2.08-.99,2.64-1.51l.66.37Zm-.5-5.11h-1.39v1.69h1.39v-1.69Zm-1.39,2.26v1.69h1.39v-1.69h-1.39Zm3.38-2.26h-1.43v1.69h1.43v-1.69Zm0,3.95v-1.69h-1.43v1.69h1.43Zm2.82,2.74c-.61-.44-1.63-1.05-2.6-1.55l.44-.41c.99.48,2.06,1.08,2.71,1.53l-.55.43Zm-.78-6.69h-1.45v1.69h1.45v-1.69Zm-1.45,2.26v1.69h1.45v-1.69h-1.45Z" fill="#231815"/>
      <path d="m273.44,113.41l.32,2.82-.65.07-.31-2.81-3.38.44-.07-.6,3.38-.43-.23-2.03-2.83.37-.08-.6,2.84-.36-.21-1.8.88-.03c0,.08-.07.15-.21.19l.17,1.55,2.66-.34.07.61-2.66.34.22,2.02,3.39-.43.06.59-3.39.43Zm1.89-4.91c.41.35.89.9,1.15,1.31l-.36.25c-.24-.39-.74-.95-1.13-1.3l.33-.27Zm1.11-.59c.42.35.92.9,1.18,1.3l-.37.26c-.24-.39-.76-.95-1.14-1.28l.33-.28Z" fill="#231815"/>
      <path d="m285.13,109.97s-.05.08-.11.1c-.33,1.12-.78,2.14-1.32,2.98.39.23.83.5,1.16.75l-.38.59c-.32-.25-.78-.55-1.16-.78-.83,1.15-1.89,2.08-3.25,2.74-.1-.15-.33-.37-.5-.47,1.31-.61,2.37-1.52,3.19-2.59-.67-.37-1.32-.68-1.99-.94l.34-.5c.66.23,1.33.54,2.03.91.47-.74.84-1.52,1.09-2.39h-3.05c-.55.92-1.29,1.83-2.08,2.48-.12-.11-.36-.31-.51-.4,1.18-.9,2.3-2.52,2.84-4.06l.85.2c-.04.1-.13.13-.24.12-.13.3-.33.74-.5,1.07h2.99l.13-.04.49.24Z" fill="#231815"/>
      <path d="m287.34,111.9h7.52v.64h-7.18c-.05.09-.17.15-.29.17l-.05-.81Z" fill="#231815"/>
      <path d="m298.87,111.67c.21-.47.45-1.22.58-1.74l.69.2c-.02.05-.08.08-.19.09-.14.44-.36,1.09-.57,1.54h1.34v.56h-4.74v-.56h3.17l-.28-.09Zm1.7-2.41v.54h-4.36v-.54h1.87v-1.05l.77.04c0,.06-.06.11-.18.13v.88h1.9Zm-3.97,7.32v-3.42h3.57v3.37h-.58v-.46h-2.4v.51h-.58Zm.69-6.55c.21.46.38,1.07.43,1.47l-.53.13c-.04-.4-.21-1.02-.4-1.49l.5-.11Zm2.29,3.67h-2.4v1.83h2.4v-1.83Zm4.38-4.98l.4.2s-.05.07-.08.09c-.34.77-.82,1.74-1.31,2.68.97.91,1.38,1.58,1.38,2.23,0,1.41-.98,1.41-1.57,1.41-.13,0-.28,0-.41,0,0-.16-.09-.42-.21-.59.2.02.39.03.56.03.6,0,1.04-.03,1.04-.85,0-.59-.44-1.22-1.42-2.12.44-.89.83-1.74,1.13-2.47h-1.79v7.25h-.58v-7.82h2.76l.12-.03Z" fill="#231815"/>
    </g>
    <g>
      <path d="m211.77,103.11v6.9c0,.86-.36.88-2.1.88-.03-.18-.13-.48-.22-.67.32,0,.65.02.91.02.76,0,.78,0,.78-.23v-6.31h-6.61v-.58h7.23Zm-1.69,1.55v.55h-5.53v-.55h5.53Zm-.94,1.52v3.05h-3.38v.85h-.59v-3.9h3.97Zm-.59.54h-2.78v1.97h2.78v-1.97Z" fill="#231815"/>
      <path d="m213.4,105.09c.63.2,1.43.55,1.84.84l-.32.52c-.4-.3-1.19-.68-1.82-.89l.31-.47Zm.02,5.28c.47-.71,1.15-1.92,1.66-2.95.36.31.41.34.45.38-.46.97-1.06,2.1-1.5,2.79.03.04.04.09.04.13,0,.04-.02.08-.04.11l-.6-.45Zm.49-7.79c.63.23,1.41.62,1.81.95l-.35.5c-.39-.32-1.16-.75-1.8-1l.34-.45Zm7.55,3.8v.59h-3.5l.32.11c-.03.05-.1.09-.21.1-.28.77-.74,1.8-1.14,2.6.95-.05,2.05-.11,3.14-.18-.31-.47-.68-.95-1.04-1.35l.51-.27c.71.78,1.49,1.86,1.82,2.58l-.57.32c-.09-.23-.23-.49-.4-.77-1.66.14-3.39.25-4.48.32-.02.07-.07.12-.13.13l-.25-.72.75-.04c.41-.8.88-1.96,1.17-2.84h-1.93v-.59h2.59v-1.77h-2.15v-.58h2.15v-1.51l.83.05c0,.09-.09.15-.21.17v1.29h2.2v.58h-2.2v1.77h2.72Z" fill="#231815"/>
      <path d="m225.84,106.09h-2.67v4.8h-.59v-7.98h3.26v3.18Zm-.58-2.68h-2.09v.83h2.09v-.83Zm-2.09,2.19h2.09v-.9h-2.09v.9Zm4.77,4h-2.84v.55h-.58v-3.2h3.41v2.65Zm-.58-2.12h-2.26v1.6h2.26v-1.6Zm2.67-4.56v7.12c0,.42-.11.62-.39.73-.3.11-.82.12-1.61.12-.03-.17-.13-.46-.22-.63.31,0,.61.02.86.02.7,0,.76,0,.76-.24v-3.93h-2.74v-3.18h3.34Zm-.6.5h-2.15v.83h2.15v-.83Zm-2.15,2.19h2.15v-.9h-2.15v.9Z" fill="#231815"/>
      <path d="m233.52,108.43v1.31c.76.34,1.74.41,2.92.41.38,0,2.58,0,3.08-.02-.09.14-.19.37-.22.53h-2.85c-2.03,0-3.45-.23-4.29-1.49-.13.65-.34,1.27-.72,1.7-.08-.11-.24-.27-.37-.34.56-.68.71-1.94.76-3.06l.68.06c0,.06-.06.11-.17.12-.02.27-.04.56-.07.85.19.39.43.68.73.92v-2.5h-1.84v-.49h4.11v.49h-1.74v1.03h1.58v.48h-1.58Zm1.18-5.53v2.84h-3v-2.84h3Zm-.57,1.19v-.73h-1.87v.73h1.87Zm0,1.19v-.75h-1.87v.75h1.87Zm2.79,3.31c-.04.06-.11.08-.18.07-.39.43-1.03.89-1.59,1.18-.08-.1-.25-.27-.37-.36.53-.24,1.16-.67,1.52-1.12l.62.23Zm-1.33-4.35h1.08c.08-.24.18-.54.25-.8h-1.75v-.47h4.2v.47h-1.91c-.07.24-.17.54-.28.8h1.74v4h-3.34v-4Zm2.77,1.18v-.72h-2.21v.72h2.21Zm0,1.17v-.73h-2.21v.73h2.21Zm0,1.18v-.74h-2.21v.74h2.21Zm.59,2.03c-.32-.34-.86-.8-1.35-1.15l.41-.25c.52.36,1.12.81,1.47,1.16l-.52.24Z" fill="#231815"/>
      <path d="m243.33,109.58h-1.9v.79h-.54v-3.09c-.16.33-.33.64-.53.9-.07-.13-.24-.38-.34-.5.66-.91,1.08-2.48,1.32-4.14h-1.18v-.57h3.5v.57h-1.74c-.12.75-.27,1.49-.47,2.18h1.87v3.85Zm-.55-.55v-2.75h-1.35v2.75h1.35Zm5.7-2.69v.58h-1.12v3.96h-.58v-3.96h-1.44c-.07,1.43-.41,2.91-1.8,3.98-.11-.1-.32-.27-.48-.35,1.3-.99,1.63-2.35,1.69-3.63h-1.13v-.58h1.15v-2.82h-.87v-.57h4.41v.57h-.95v2.82h1.12Zm-3.13,0h1.43v-2.82h-1.43v2.82Z" fill="#231815"/>
      <path d="m255.43,109.97c0,.23.04.27.29.27h.78c.25,0,.3-.17.32-1.31.13.11.39.21.56.25-.06,1.3-.22,1.61-.82,1.61h-.94c-.64,0-.83-.17-.83-.83v-1.98h-1.98c-.36,1.36-1.17,2.36-3.32,2.89-.05-.14-.21-.38-.33-.5,1.88-.44,2.66-1.25,3.01-2.39h-2.44v-.57h2.58c.07-.4.12-.82.15-1.28.61.04.71.05.8.06,0,.07-.07.12-.18.14-.04.38-.08.74-.14,1.08h2.49v2.55Zm-2.95-5.68c0,.06-.07.11-.18.12-.27,1.17-.8,2.03-2.74,2.48-.05-.14-.21-.37-.32-.49,1.76-.36,2.26-1.08,2.46-2.2l.78.09Zm-2.38-.2v1.07h-.6v-1.62h3.47v-1.04l.79.04c0,.06-.05.11-.18.13v.86h3.5v1.62h-.62v-1.07h-6.36Zm3.91.07l.77.05c0,.06-.05.11-.18.13v1.54c0,.2.06.24.44.24h1.32c.26,0,.32-.07.34-.55.13.09.37.16.53.21-.06.67-.24.85-.81.85h-1.44c-.79,0-.98-.15-.98-.76v-1.72Z" fill="#231815"/>
      <path d="m262.81,102.54c-.03.07-.1.12-.19.14.88,1.22,2.51,2.43,3.92,3.04-.14.14-.29.36-.39.54-1.43-.7-3.05-1.94-3.92-3.15-.75,1.12-2.25,2.39-3.83,3.19-.07-.13-.23-.36-.35-.49,1.58-.77,3.14-2.12,3.85-3.32l.89.05Zm-4.28,5.14v-.58h7.55v.58h-4.33l.11.04c-.03.06-.1.09-.22.1-.27.61-.67,1.42-1.06,2.09,1.2-.03,2.59-.07,3.96-.12-.4-.47-.87-.95-1.32-1.35l.51-.28c.85.73,1.75,1.72,2.18,2.4l-.54.34c-.12-.19-.26-.4-.44-.63-2.19.12-4.51.22-5.95.26-.02.08-.07.12-.14.13l-.23-.72c.38,0,.82,0,1.31-.03.37-.65.79-1.53,1.07-2.23h-2.47Zm1.54-2.32h4.37v.57h-4.37v-.57Z" fill="#231815"/>
    </g>
    <g>
      <path d="m584.59,212.14c-.03.06-.1.11-.18.12.88,1.04,2.49,1.98,3.92,2.44-.14.15-.28.38-.36.54-1.41-.52-3.07-1.54-3.95-2.57-.77.96-2.32,2.03-3.88,2.66-.07-.14-.22-.37-.32-.5,1.59-.59,3.14-1.68,3.89-2.72l.89.04Zm-2.48.43v-.86h-2.05v-.57h2.05v-.95l.77.04c0,.06-.05.11-.17.13v.77h2.65v-.95l.78.04c0,.07-.06.11-.18.13v.77h2.11v.57h-2.11v.86h-.6v-.86h-2.65v.86h-.6Zm.6,3.78c-.03.05-.09.09-.2.08-.44.68-1.18,1.37-1.87,1.81-.11-.12-.32-.31-.47-.4.67-.4,1.4-1.05,1.81-1.75l.73.25Zm4.27-.76h-2.66v2.98h-.61v-2.98h-2.58v-.57h2.58v-1.13l.79.05c0,.06-.06.11-.18.13v.95h2.66v.57Zm.36,2.65c-.41-.5-1.24-1.27-1.94-1.81l.48-.33c.69.52,1.56,1.27,1.97,1.76l-.5.38Z" fill="#231815"/>
      <path d="m590.84,213.8v2.94c.7,1.07,1.99,1.07,3.61,1.07.97,0,2.12-.03,2.82-.07-.07.14-.18.43-.2.61-.62.03-1.61.04-2.5.04-1.85,0-3.09,0-4-1.12-.44.4-.92.8-1.3,1.11,0,.08-.02.12-.08.14l-.35-.67c.43-.29.96-.7,1.42-1.1v-2.39h-1.32v-.58h1.91Zm-1.34-3.38c.6.39,1.3.98,1.61,1.42l-.48.4c-.3-.45-.98-1.06-1.58-1.47l.45-.36Zm2.58,2.39h1.54c.06-.25.13-.55.17-.82h-2.49v-.52h1.63c-.12-.31-.39-.74-.65-1.04l.47-.21c.3.32.6.77.71,1.09l-.33.16h1.9l-.23-.09c.23-.33.51-.84.67-1.18l.72.21c-.03.05-.09.08-.19.09-.17.28-.45.67-.69.97h1.79v.52h-2.69c-.06.24-.15.55-.24.82h2.14v4.44h-.6v-.32h-3.04v.32h-.58v-4.44Zm3.63,1.22v-.74h-3.04v.74h3.04Zm-3.04.45v.76h3.04v-.76h-3.04Zm0,1.97h3.04v-.77h-3.04v.77Z" fill="#231815"/>
      <path d="m578.59,229.26h-1.9v.79h-.54v-3.09c-.16.33-.33.64-.53.9-.07-.13-.24-.38-.34-.5.66-.91,1.08-2.48,1.32-4.14h-1.18v-.57h3.5v.57h-1.74c-.12.75-.27,1.49-.47,2.18h1.87v3.85Zm-.55-.55v-2.75h-1.35v2.75h1.35Zm5.7-2.69v.58h-1.12v3.96h-.58v-3.96h-1.44c-.07,1.43-.41,2.91-1.8,3.98-.11-.1-.32-.27-.48-.35,1.3-.99,1.63-2.35,1.69-3.63h-1.13v-.58h1.15v-2.82h-.87v-.57h4.41v.57h-.95v2.82h1.12Zm-3.13,0h1.43v-2.82h-1.43v2.82Z" fill="#231815"/>
      <path d="m590.7,229.65c0,.23.04.27.29.27h.78c.25,0,.3-.17.32-1.3.13.11.39.21.56.25-.06,1.3-.22,1.61-.82,1.61h-.94c-.64,0-.83-.17-.83-.83v-1.98h-1.98c-.36,1.36-1.17,2.36-3.32,2.89-.05-.14-.21-.38-.33-.5,1.88-.44,2.66-1.25,3.01-2.39h-2.44v-.57h2.58c.07-.4.12-.82.15-1.28.61.04.71.05.8.06,0,.07-.07.12-.18.14-.04.38-.08.74-.14,1.08h2.49v2.55Zm-2.95-5.68c0,.06-.07.11-.18.12-.27,1.17-.8,2.03-2.74,2.48-.05-.14-.21-.37-.32-.49,1.76-.36,2.26-1.08,2.46-2.2l.78.09Zm-2.38-.2v1.07h-.6v-1.62h3.47v-1.04l.79.04c0,.06-.05.11-.18.13v.86h3.5v1.62h-.62v-1.07h-6.36Zm3.91.07l.77.05c0,.06-.05.11-.18.13v1.54c0,.2.06.24.44.24h1.32c.26,0,.32-.07.34-.55.13.09.37.16.53.21-.06.67-.24.86-.81.86h-1.44c-.79,0-.98-.15-.98-.76v-1.72Z" fill="#231815"/>
      <path d="m598.08,222.22c-.03.07-.1.12-.19.14.88,1.22,2.51,2.43,3.92,3.04-.14.14-.29.36-.39.54-1.43-.7-3.05-1.94-3.92-3.15-.75,1.12-2.25,2.39-3.83,3.19-.07-.13-.23-.36-.35-.49,1.58-.77,3.14-2.12,3.85-3.32l.89.05Zm-4.28,5.14v-.58h7.55v.58h-4.33l.11.04c-.03.06-.1.09-.22.1-.27.61-.67,1.42-1.06,2.09,1.2-.03,2.59-.07,3.96-.12-.4-.47-.87-.95-1.32-1.35l.51-.28c.85.73,1.75,1.72,2.18,2.4l-.54.34c-.12-.19-.26-.4-.44-.63-2.19.12-4.51.22-5.95.26-.02.08-.07.12-.14.13l-.23-.72c.38,0,.82,0,1.31-.03.37-.65.79-1.53,1.07-2.23h-2.47Zm1.54-2.32h4.37v.57h-4.37v-.57Z" fill="#231815"/>
    </g>
    <g>
      <path d="m545.51,212.13c-.03.06-.1.11-.18.12.88,1.04,2.49,1.98,3.92,2.44-.14.15-.28.38-.36.54-1.41-.52-3.07-1.54-3.95-2.58-.77.96-2.32,2.03-3.88,2.66-.07-.14-.22-.37-.32-.5,1.59-.59,3.14-1.68,3.89-2.72l.89.04Zm-2.48.43v-.86h-2.05v-.57h2.05v-.95l.77.04c0,.06-.05.11-.17.13v.77h2.65v-.95l.78.04c0,.07-.06.11-.18.13v.77h2.11v.57h-2.11v.86h-.6v-.86h-2.65v.86h-.6Zm.6,3.78c-.03.05-.09.09-.2.08-.44.67-1.18,1.37-1.87,1.81-.11-.12-.32-.31-.47-.4.67-.4,1.4-1.05,1.81-1.75l.73.25Zm4.27-.76h-2.66v2.98h-.61v-2.98h-2.58v-.57h2.58v-1.13l.79.05c0,.06-.06.11-.18.13v.96h2.66v.57Zm.36,2.65c-.41-.5-1.24-1.27-1.94-1.81l.48-.33c.69.52,1.56,1.27,1.97,1.76l-.5.38Z" fill="#231815"/>
      <path d="m551.77,213.78v2.94c.7,1.07,1.99,1.07,3.61,1.07.97,0,2.12-.03,2.82-.07-.07.14-.18.43-.2.61-.62.03-1.61.04-2.5.04-1.85,0-3.09,0-4-1.12-.44.4-.92.8-1.3,1.11,0,.08-.02.12-.08.14l-.35-.67c.43-.29.96-.7,1.42-1.1v-2.39h-1.32v-.58h1.91Zm-1.34-3.38c.6.39,1.3.98,1.61,1.42l-.48.41c-.3-.45-.98-1.06-1.58-1.47l.45-.36Zm2.58,2.39h1.54c.06-.25.13-.55.17-.82h-2.49v-.52h1.63c-.12-.32-.39-.74-.65-1.04l.47-.21c.3.32.6.77.71,1.09l-.33.16h1.9l-.23-.09c.23-.33.51-.84.67-1.18l.72.21c-.03.05-.09.08-.19.09-.17.28-.45.68-.69.97h1.79v.52h-2.69c-.06.24-.15.55-.24.82h2.14v4.44h-.6v-.31h-3.04v.31h-.58v-4.44Zm3.63,1.22v-.74h-3.04v.74h3.04Zm-3.04.45v.76h3.04v-.76h-3.04Zm0,1.97h3.04v-.76h-3.04v.76Z" fill="#231815"/>
      <path d="m539.52,229.25h-1.9v.79h-.54v-3.09c-.16.33-.33.64-.53.9-.07-.13-.24-.38-.34-.5.66-.91,1.08-2.48,1.32-4.14h-1.18v-.57h3.5v.57h-1.74c-.12.75-.27,1.49-.47,2.18h1.87v3.85Zm-.55-.55v-2.75h-1.35v2.75h1.35Zm5.7-2.69v.58h-1.12v3.96h-.58v-3.96h-1.44c-.07,1.43-.41,2.91-1.8,3.98-.11-.1-.32-.27-.48-.35,1.3-.99,1.63-2.35,1.69-3.63h-1.13v-.58h1.15v-2.82h-.87v-.57h4.41v.57h-.95v2.82h1.12Zm-3.13,0h1.43v-2.82h-1.43v2.82Z" fill="#231815"/>
      <path d="m551.62,229.64c0,.23.04.27.29.27h.78c.25,0,.3-.17.32-1.31.13.11.39.21.56.25-.06,1.3-.22,1.61-.82,1.61h-.94c-.64,0-.83-.17-.83-.83v-1.98h-1.98c-.36,1.36-1.17,2.36-3.32,2.89-.05-.14-.21-.38-.33-.5,1.88-.44,2.66-1.25,3.01-2.39h-2.44v-.57h2.58c.07-.4.12-.82.15-1.28.61.04.71.05.8.06,0,.07-.07.12-.18.13-.04.38-.08.74-.14,1.08h2.49v2.55Zm-2.95-5.68c0,.06-.07.11-.18.12-.27,1.17-.8,2.03-2.74,2.48-.05-.14-.21-.37-.32-.49,1.76-.36,2.26-1.08,2.46-2.2l.78.09Zm-2.38-.2v1.07h-.6v-1.62h3.47v-1.04l.79.04c0,.06-.05.11-.18.13v.86h3.5v1.62h-.62v-1.07h-6.36Zm3.91.07l.77.05c0,.06-.05.11-.18.13v1.54c0,.2.06.24.44.24h1.32c.26,0,.32-.07.34-.55.13.09.37.16.53.21-.06.67-.24.85-.81.85h-1.44c-.79,0-.98-.15-.98-.76v-1.72Z" fill="#231815"/>
      <path d="m559,222.21c-.03.07-.1.12-.19.13.88,1.22,2.51,2.43,3.92,3.04-.14.14-.29.36-.39.54-1.43-.7-3.05-1.94-3.92-3.15-.75,1.12-2.25,2.39-3.83,3.19-.07-.13-.23-.36-.35-.49,1.58-.76,3.14-2.12,3.85-3.32l.89.05Zm-4.28,5.14v-.58h7.55v.58h-4.33l.11.04c-.03.06-.1.09-.22.1-.27.61-.67,1.42-1.06,2.09,1.2-.03,2.59-.07,3.96-.12-.4-.47-.87-.95-1.32-1.35l.51-.28c.85.73,1.75,1.72,2.18,2.4l-.54.34c-.12-.19-.26-.41-.44-.63-2.19.12-4.51.22-5.95.26-.02.08-.07.12-.14.13l-.23-.72c.38,0,.82,0,1.31-.03.37-.65.79-1.53,1.07-2.23h-2.47Zm1.54-2.32h4.37v.57h-4.37v-.57Z" fill="#231815"/>
    </g>
    <g>
      <path d="m494.18,214.17h8.41v8.83h-.69v-.49h-7.06v.49h-.66v-8.83Zm.66,7.71h7.06v-7.07h-7.06v7.07Zm6.52-3.17v.58h-1.45v2.08h-.61v-2.08h-1.85c-.16.86-.55,1.62-1.47,2.21-.09-.14-.29-.34-.43-.44.76-.48,1.12-1.09,1.28-1.77h-1.39v-.58h1.49c.02-.25.03-.52.03-.78v-.71h-1.39v-.57h1.39v-1.35l.78.05c0,.07-.06.11-.19.13v1.17h1.75v-1.35l.8.05c0,.07-.06.12-.19.13v1.17h1.43v.57h-1.43v1.49h1.45Zm-3.81-.77c0,.26,0,.52-.03.77h1.78v-1.49h-1.75v.72Z" fill="#231815"/>
      <path d="m512.96,218.63h-2.28c.59.71,1.5,1.32,2.41,1.62-.15.12-.34.36-.44.52-.64-.26-1.28-.67-1.82-1.17v.21h-3.15c-.14.25-.3.49-.47.72h3.86v2.43h-.65v-.32h-3.43v.33h-.63v-1.52c-.44.4-.92.75-1.41,1.02-.09-.13-.29-.36-.42-.48.66-.33,1.3-.82,1.83-1.4v-.06h.05c.2-.23.38-.47.53-.72h-.97v-.2c-.56.56-1.22,1.04-1.87,1.34-.1-.16-.29-.39-.43-.51.88-.35,1.8-1.04,2.39-1.81h-2.27v-.57h2.1v-2.88h-1.64v-.56h1.64v-.94l.87.05c0,.08-.07.12-.2.14v.75h3.63v-.94l.88.05c0,.08-.07.13-.2.14v.75h1.64v.56h-1.64v2.88h2.09v.57Zm-2.45.65c-.2-.21-.38-.43-.53-.65h-3.2c-.15.22-.32.44-.5.65h4.23Zm-.32-4.1h-3.63v.62h3.63v-.62Zm-3.63,1.12v.63h3.63v-.63h-3.63Zm0,1.13v.63h3.63v-.63h-3.63Zm3.86,4.69v-1.07h-3.43v1.07h3.43Z" fill="#231815"/>
    </g>
    <g>
      <path d="m432.41,219.56c.54-.29,1.31-.74,2.09-1.21v-5.46l.85.05c-.01.07-.06.12-.2.14v9.08h-.65v-3.09c-.59.4-1.18.79-1.59,1.04.01.08-.03.15-.09.19l-.41-.75Zm.67-5.37c.5.63,1.02,1.48,1.22,2.04l-.58.32c-.2-.57-.7-1.45-1.18-2.09l.54-.27Zm8.22-.75s-.05.02-.09.02c-.03,0-.06,0-.1,0-1.31.41-3.53.79-5.43,1.02-.03-.16-.13-.4-.2-.54,1.87-.24,4.07-.63,5.29-1.05l.53.56Zm.56,4.46v.62h-1.51v2.84c0,.81-.38.82-2.04.82-.04-.18-.13-.46-.23-.64.37,0,.73.02.99.02.54,0,.62,0,.62-.21v-2.83h-4.09v-.62h4.09v-.9l-.34.34s-.47-.32-.48-.32c.7-.7,1.63-1.82,2.16-2.66.56.31.65.37.72.42-.04.06-.11.08-.22.07-.42.57-1.05,1.31-1.63,1.93l.64.04c0,.07-.05.12-.19.13v.95h1.51Zm-5.32-3.2c.35.61.69,1.41.8,1.91l-.61.23c-.1-.52-.43-1.33-.76-1.95l.57-.19Zm1.19,6.26c-.23-.51-.81-1.28-1.35-1.83l.55-.3c.54.53,1.13,1.28,1.39,1.79l-.59.34Zm.83-6.62c.26.63.48,1.46.52,1.96-.14.04-.28.08-.64.16-.03-.5-.24-1.34-.49-1.98l.61-.14Z" fill="#231815"/>
      <path d="m444.84,216.53c.31.38,1.15,1.58,1.34,1.87l-.39.53c-.17-.35-.61-1.06-.95-1.6v4.83h-.63v-4.95c-.36,1.18-.85,2.33-1.36,3.03-.07-.18-.24-.44-.36-.59.65-.87,1.32-2.51,1.64-3.94h-1.45v-.63h1.53v-2.2l.83.06c0,.06-.07.11-.2.13v2.01h1.27v.63h-1.27v.82Zm3.54,3.73s-.1.08-.19.09c-.42.61-1.29,1.38-2.07,1.84-.11-.13-.32-.34-.48-.47.78-.43,1.64-1.19,2.05-1.8l.69.34Zm-1.25-1.21v-4.09h-1.05v-.62h1.05v-1.45l.83.05c0,.07-.06.12-.19.13v1.27h2.35v-1.45l.85.05c0,.07-.07.12-.2.14v1.26h.99v.62h-.99v4.09h1.14v.62h-6.05v-.62h1.27Zm2.99-4.09h-2.35v.97h2.35v-.97Zm0,2.53v-1h-2.35v1h2.35Zm-2.35,1.56h2.35v-1.01h-2.35v1.01Zm3.63,3.12c-.36-.53-1.14-1.33-1.82-1.89.28-.18.39-.26.5-.34.67.54,1.48,1.33,1.85,1.86l-.53.37Z" fill="#231815"/>
      <path d="m455.79,216.74c.23-.52.5-1.36.64-1.93l.77.22c-.02.06-.09.09-.21.1-.15.49-.4,1.21-.63,1.71h1.49v.62h-5.27v-.62h3.52l-.31-.1Zm1.89-2.68v.6h-4.84v-.6h2.08v-1.17l.85.05c0,.07-.07.12-.2.14v.98h2.11Zm-4.41,8.12v-3.8h3.96v3.74h-.65v-.51h-2.67v.57h-.64Zm.77-7.28c.23.51.42,1.19.48,1.63l-.59.14c-.05-.44-.23-1.13-.44-1.65l.55-.12Zm2.54,4.08h-2.67v2.03h2.67v-2.03Zm4.86-5.53l.44.22s-.05.08-.09.1c-.38.85-.91,1.93-1.46,2.98,1.08,1.01,1.53,1.76,1.53,2.48,0,1.57-1.09,1.57-1.74,1.57-.15,0-.31,0-.46,0-.01-.18-.1-.47-.23-.66.22.02.43.03.62.03.67,0,1.15-.03,1.15-.95,0-.65-.49-1.35-1.58-2.35.49-.99.92-1.93,1.26-2.74h-1.99v8.05h-.65v-8.69h3.07l.13-.03Z" fill="#231815"/>
    </g>
    <g>
      <path d="m363.13,215.79c-.08-.29-.28-.72-.49-1.07h-.48c-.28.42-.6.81-.91,1.1-.12-.11-.35-.27-.5-.36.56-.48,1.11-1.32,1.44-2.14l.77.26c-.03.05-.1.09-.21.08-.07.16-.16.33-.25.5h2.76v.56h-1.94c.18.31.35.65.43.89l-.62.18Zm6.88-1.63v.56h-2.33c.24.3.46.63.57.88l-.6.21c-.13-.3-.42-.74-.71-1.09h-.87c-.2.26-.41.5-.63.71l.45.03c0,.07-.06.11-.19.13v.63h3.98v1.89h-.66v-1.35h-7.2v1.35h-.64v-1.89h3.86v-.58c-.14-.09-.33-.2-.46-.27.63-.46,1.24-1.23,1.57-2.05l.78.24c-.02.06-.09.09-.21.09-.08.17-.17.34-.27.51h3.56Zm-6.74,5.26v.75h5.58v2.47h-.67v-.33h-4.91v.35h-.65v-5.23h5.6v1.99h-4.95Zm4.29-1.46h-4.29v.93h4.29v-.93Zm.62,2.75h-4.91v1.06h4.91v-1.06Z" fill="#231815"/>
      <path d="m373.31,218.2l.15-.02.37.05c-.01.06-.01.15-.02.22-.13,2.64-.25,3.57-.54,3.9-.22.26-.44.3-1.14.3-.23,0-.51,0-.79-.02-.02-.2-.1-.47-.21-.65.55.05,1.05.05,1.27.05.14,0,.23-.03.3-.11.2-.21.33-1.02.44-3.11h-1.62l-.06.42-.63-.1c.14-.78.29-2.05.36-3h1.93v-1.74h-2.32v-.63h2.97v3.29h-.65v-.31h-1.35l-.16,1.46h1.7Zm5.08,1.42c.71.84,1.44,1.98,1.71,2.74l-.6.31c-.08-.24-.21-.52-.37-.82-1.71.14-3.48.25-4.63.32,0,.08-.08.13-.15.14l-.25-.79.95-.03c.48-.57,1-1.26,1.5-1.99-.54-.58-1.44-1.33-2.21-1.85l.4-.48c.17.11.34.23.52.36.4-.58.83-1.32,1.14-1.95h-2.29v-.64h2.48v-1.58l.85.06c0,.07-.07.12-.2.13v1.39h2.79v.64h-2.87l.16.08s-.12.09-.22.08c-.35.63-.9,1.5-1.38,2.13.46.36.9.73,1.22,1.05.53-.79,1.02-1.59,1.4-2.29l.77.4c-.04.06-.12.1-.24.1-.79,1.3-1.99,3.04-3.06,4.32.93-.04,1.98-.09,3.01-.14-.29-.49-.64-.99-.99-1.42l.56-.27Z" fill="#231815"/>
      <path d="m389.89,219.76h-3.53c.89.93,2.33,1.72,3.71,2.1-.15.14-.35.39-.45.57-1.43-.47-2.96-1.39-3.91-2.48v2.7h-.68v-2.74c-.94,1.12-2.49,2.09-3.86,2.59-.11-.17-.31-.43-.46-.56,1.31-.42,2.75-1.24,3.64-2.18h-3.45v-.6h4.13v-.89l.88.05c0,.08-.07.13-.2.14v.7h4.18v.6Zm-9.12-1.88c.6-.3,1.48-.81,2.36-1.31l.19.56c-.75.45-1.54.92-2.04,1.21,0,.08-.04.15-.1.18l-.41-.64Zm.8-3.9c.62.44,1.31,1.11,1.61,1.6l-.51.44c-.28-.5-.95-1.19-1.57-1.66l.47-.38Zm5.71.41v3.83h-3.75v-3.83h1.28c.11-.33.23-.74.3-1.04l.83.19c-.02.06-.09.1-.2.1-.07.21-.17.49-.28.75h1.82Zm-.66,1.64v-1.09h-2.45v1.09h2.45Zm0,1.64v-1.11h-2.45v1.11h2.45Zm1.14-1.24c.79.4,1.8,1.03,2.3,1.47l-.41.51c-.49-.45-1.48-1.1-2.29-1.53l.4-.45Zm-.27-.83c.52-.45,1.22-1.19,1.62-1.73l.69.43c-.03.05-.1.08-.22.06-.41.49-1.07,1.14-1.59,1.59l-.5-.35Z" fill="#231815"/>
      <path d="m391.19,213.85h8.45v8.8h-.69v-.47h-7.1v.47h-.66v-8.8Zm.66,7.69h7.1v-7.04h-7.1v7.04Zm6.66-5.25v.6h-1.54v3.36c0,.78-.39.78-1.95.78-.03-.17-.12-.42-.2-.59.3,0,.59,0,.82,0,.62,0,.69,0,.69-.2v-3.36h-3.91v-.6h3.91v-1.42l.83.05c0,.06-.06.11-.19.13v1.24h1.54Zm-4.04,3.33c-.19-.55-.71-1.35-1.23-1.92l.5-.26c.52.56,1.06,1.34,1.26,1.88l-.53.3Z" fill="#231815"/>
    </g>
    <g>
      <path d="m284.55,207.8s-.08.07-.13.09c-.54,1.28-1.4,2.39-2.37,3.2-.15-.13-.43-.31-.61-.41.92-.67,1.66-1.64,1.99-2.48h-7.16v-.68h7.54l.11-.05.63.33Zm-3.9,1.82c-.01.08-.1.15-.23.17-.29,2.36-1.1,4.61-3.16,5.8-.14-.12-.4-.35-.59-.46,2.04-1.12,2.77-3.21,3.01-5.62l.97.11Z" fill="#231815"/>
      <path d="m294.18,207.53s-.1.08-.19.08c-.03,0-.06,0-.1,0-.77.78-1.88,1.69-2.85,2.39.08.03.2.09.24.11-.02.06-.11.12-.22.13v5.37h-.73v-5.14c-1.06.75-2.44,1.56-3.81,2.23-.1-.16-.28-.41-.42-.55,2.73-1.26,5.72-3.4,7.33-5.17l.75.56Z" fill="#231815"/>
      <path d="m297.63,212.42v-4.86l.95.06c0,.09-.08.16-.24.18v4.62h-.71Zm5.57-5.25c0,.1-.08.15-.24.17v3.18c0,2.1-.72,4.02-3.59,5.13-.1-.15-.35-.41-.52-.54,2.77-1.03,3.39-2.74,3.39-4.59v-3.41l.96.06Z" fill="#231815"/>
      <path d="m307.59,209.57c.3.61.63,1.57.75,2.15l-.56.15c-.12-.58-.43-1.49-.73-2.13l.54-.17Zm5.97.07c-.02.09-.12.11-.21.1-.78,2.92-2.25,4.71-4.67,5.69-.08-.12-.26-.35-.39-.46,2.39-.94,3.76-2.58,4.49-5.56l.78.23Zm-3.54-.55c.21.67.4,1.63.47,2.27l-.59.11c-.06-.64-.25-1.56-.47-2.25l.59-.13Z" fill="#231815"/>
      <path d="m316.5,209.76c.9.2,2.02.58,2.69.9l-.3.63c-.66-.32-1.81-.72-2.69-.92l.3-.61Zm.6,4.89c3.25-1.09,5.47-2.82,6.8-5.82.15.13.46.34.61.44-1.34,2.97-3.67,4.82-6.73,5.91.02.09-.03.21-.12.25l-.56-.78Zm.5-7.37c.9.24,2,.64,2.68.98l-.33.61c-.71-.36-1.75-.76-2.65-1.01l.3-.58Z" fill="#231815"/>
      <path d="m333.73,214.24v.58h-6.82v-.58h4.07c.16-1.01.43-3,.53-4.02h-3.81v-.58h4.01l.12-.04.49.24s-.06.08-.12.09c-.13,1.05-.45,3.24-.62,4.31h2.15Z" fill="#231815"/>
      <path d="m288.11,220.4c-.04.06-.11.09-.22.09-.19.43-.5,1.04-.78,1.46h2.77v.62h-9.08v-.62h2.66c-.08-.45-.34-1.1-.64-1.59l.64-.15c.31.48.58,1.14.67,1.57l-.63.17h3.43c-.15-.05-.33-.12-.43-.16.26-.43.58-1.14.75-1.63h-5.85v-.61h3.57v-.95l.89.06c-.01.07-.06.12-.2.14v.75h3.68v.61h-2.01l.78.24Zm-5.77,7.51v-4.42h6.12v4.39h-.68v-.36h-4.78v.39h-.66Zm5.44-3.84h-4.78v1.14h4.78v-1.14Zm-4.78,2.87h4.78v-1.18h-4.78v1.18Z" fill="#231815"/>
      <path d="m299.83,225.01h-3.53c.89.93,2.33,1.72,3.71,2.1-.15.14-.35.39-.45.57-1.43-.47-2.96-1.39-3.91-2.48v2.7h-.68v-2.74c-.94,1.12-2.49,2.09-3.86,2.59-.11-.17-.31-.43-.46-.56,1.31-.42,2.75-1.24,3.64-2.18h-3.45v-.6h4.13v-.89l.88.05c0,.08-.07.13-.2.14v.7h4.18v.6Zm-9.12-1.88c.6-.3,1.48-.81,2.36-1.31l.19.56c-.75.45-1.54.92-2.04,1.21,0,.08-.04.15-.1.18l-.41-.64Zm.8-3.9c.62.44,1.31,1.11,1.61,1.6l-.51.44c-.28-.5-.95-1.19-1.57-1.66l.47-.38Zm5.71.41v3.83h-3.75v-3.83h1.28c.11-.33.23-.74.3-1.04l.83.19c-.02.06-.09.1-.2.1-.07.21-.17.49-.28.75h1.82Zm-.66,1.64v-1.09h-2.45v1.09h2.45Zm0,1.64v-1.11h-2.45v1.11h2.45Zm1.14-1.24c.79.4,1.8,1.03,2.3,1.47l-.41.51c-.49-.45-1.48-1.1-2.29-1.53l.4-.45Zm-.27-.83c.52-.45,1.22-1.19,1.62-1.73l.69.43s-.1.08-.22.06c-.41.49-1.07,1.14-1.59,1.59l-.5-.35Z" fill="#231815"/>
      <path d="m304.27,226.46h-2.11v.88h-.6v-3.43c-.18.37-.37.71-.59,1-.08-.15-.27-.42-.38-.55.73-1.01,1.2-2.76,1.47-4.6h-1.31v-.63h3.89v.63h-1.93c-.13.83-.3,1.65-.52,2.42h2.08v4.28Zm-.61-.61v-3.06h-1.5v3.06h1.5Zm6.33-2.99v.64h-1.25v4.4h-.64v-4.4h-1.6c-.08,1.59-.46,3.23-2,4.42-.12-.11-.36-.3-.53-.39,1.45-1.1,1.81-2.61,1.88-4.03h-1.26v-.64h1.28v-3.13h-.97v-.63h4.9v.63h-1.06v3.13h1.25Zm-3.48,0h1.59v-3.13h-1.59v3.13Z" fill="#231815"/>
      <path d="m317.72,226.89c0,.26.05.3.32.3h.87c.28,0,.33-.19.36-1.45.15.12.43.23.62.28-.07,1.44-.24,1.79-.91,1.79h-1.04c-.71,0-.92-.19-.92-.92v-2.2h-2.2c-.4,1.51-1.3,2.62-3.69,3.21-.06-.16-.23-.42-.37-.55,2.09-.49,2.95-1.39,3.34-2.66h-2.71v-.63h2.86c.08-.44.13-.91.17-1.42.68.05.79.06.89.07,0,.08-.08.13-.2.15-.04.42-.09.82-.15,1.2h2.76v2.83Zm-3.28-6.31c0,.07-.08.12-.2.13-.3,1.3-.89,2.25-3.04,2.75-.06-.16-.23-.41-.36-.54,1.96-.4,2.51-1.2,2.73-2.44l.87.1Zm-2.64-.22v1.19h-.67v-1.8h3.85v-1.15l.88.05c-.01.07-.06.12-.2.14v.96h3.89v1.8h-.69v-1.19h-7.06Zm4.34.08l.86.06c0,.07-.06.12-.2.14v1.71c0,.22.07.27.49.27h1.47c.29,0,.35-.08.38-.61.14.1.41.18.59.23-.07.75-.27.95-.9.95h-1.6c-.88,0-1.09-.17-1.09-.84v-1.91Z" fill="#231815"/>
      <path d="m325.92,218.64c-.03.08-.11.13-.21.15.98,1.36,2.79,2.7,4.36,3.38-.16.16-.32.4-.43.6-1.59-.78-3.39-2.15-4.35-3.5-.83,1.24-2.5,2.66-4.25,3.54-.08-.14-.25-.4-.39-.54,1.76-.85,3.49-2.35,4.28-3.69l.99.06Zm-4.75,5.71v-.64h8.38v.64h-4.81l.12.04c-.03.07-.11.1-.24.11-.3.68-.75,1.58-1.18,2.32,1.33-.03,2.88-.08,4.4-.13-.45-.52-.97-1.06-1.47-1.5l.57-.31c.94.81,1.95,1.91,2.42,2.67l-.6.38c-.13-.21-.29-.45-.49-.7-2.43.13-5.01.24-6.61.29-.02.09-.08.13-.16.14l-.25-.8c.42,0,.91,0,1.46-.03.41-.72.88-1.7,1.19-2.48h-2.74Zm1.71-2.58h4.85v.63h-4.85v-.63Z" fill="#231815"/>
    </g>
  </g>
  <g id="MNOINT-word">
    <g>
      <path d="m236.01,202.3h-8.04v-15.24h7.7v1.4h-6.04v5.16h5.68v1.38h-5.68v5.9h6.38v1.4Z" fill="#231815"/>
      <path d="m248.69,187.06l-5.24,15.24h-1.76l-4.82-15.22h1.8l2.34,7.64c.64,2.06,1.2,3.98,1.6,5.76h.06c.4-1.78,1.02-3.76,1.7-5.76l2.54-7.66h1.78Z" fill="#231815"/>
    </g>
    <g>
      <path d="m67.87,166.8v1.26h-8.3v3.88c0,1.68-.96,1.7-4.66,1.7-.1-.38-.36-.94-.58-1.32,1.02.04,1.92.06,2.56.06,1.16,0,1.3,0,1.3-.44v-3.88h-8.2v-1.26h8.2v-1.74l.94.06c1.02-.52,2.08-1.22,2.9-1.9h-8.7v-1.2h10.12l.24-.08,1.04.66c-.06.1-.18.16-.3.18-1.18,1.12-3.08,2.42-4.86,3.3v.72h8.3Zm-16.1-7.18v3.22h-1.28v-4.44h3.12c-.38-.78-1.12-1.84-1.78-2.62l1.12-.54c.8.88,1.66,2.06,2.02,2.86l-.58.3h4.24c-.3-.9-.96-2.14-1.58-3.06l1.16-.44c.72,1,1.44,2.34,1.7,3.2l-.7.3h3.5c.78-.92,1.76-2.32,2.3-3.28,1.26.46,1.42.56,1.58.66-.06.12-.22.18-.42.16-.5.72-1.22,1.66-1.92,2.46h3.26v4.44h-1.32v-3.22h-14.42Z" fill="#231815"/>
      <path d="m79.57,171.6h8.4v1.32h-18.08v-1.32h8.3v-5.36h-6.1v-1.3h6.1v-4.62h-4.9c-.7,1.44-1.52,2.74-2.4,3.7-.26-.24-.78-.62-1.12-.82,1.64-1.74,3.06-4.78,3.88-7.84l1.74.48c-.06.14-.2.22-.46.22-.3.98-.64,1.98-1.04,2.94h4.3v-4l1.8.1c-.02.14-.14.24-.42.28v3.62h7.46v1.32h-7.46v4.62h6.72v1.3h-6.72v5.36Z" fill="#231815"/>
      <path d="m94.49,160.66v1.94c.7.7,2.6,2.9,3.04,3.44l-.84,1.1c-.4-.68-1.4-2-2.2-3v9.4h-1.3v-10.06c-.82,2.44-1.94,4.82-3.08,6.26-.16-.38-.5-.9-.74-1.22,1.44-1.72,2.92-4.98,3.66-7.86h-3.2v-1.28h3.36v-4.4l1.68.12c-.02.14-.12.22-.38.26v4.02h2.98v1.28h-2.98Zm3.9-4.46h9.08v17.18h-1.34v-1.2h-6.44v1.26h-1.3v-17.24Zm7.74,1.3h-6.44v3.56h6.44v-3.56Zm-6.44,4.8v3.68h6.44v-3.68h-6.44Zm0,8.64h6.44v-3.72h-6.44v3.72Z" fill="#231815"/>
      <path d="m117.07,158.38v1.12h-7.5v-1.12h7.5Zm-.64,8.16v5.88h-4.76v.94h-1.18v-6.82h5.94Zm-.04-5.44v1.1h-5.88v-1.1h5.88Zm-5.88,3.82v-1.1h5.88v1.1h-5.88Zm5.82-9.2v1.1h-5.74v-1.1h5.74Zm-1.1,11.96h-3.56v3.6h3.56v-3.6Zm8.58-4.24c-.02.16-.18.28-.44.34v2.48c0,1.12.66,4.56,4.98,6.18-.26.32-.64.82-.8,1.14-3.24-1.26-4.58-3.98-4.86-5.2-.28,1.24-1.7,3.86-5.42,5.2-.16-.28-.52-.8-.78-1.06,4.86-1.7,5.52-5.1,5.52-6.26v-2.9l.7.04,1.1.04Zm-3.68,1.9c-.26,1.54-.92,3.1-2.06,3.96l-1.06-.66c1-.7,1.66-2.1,1.92-3.56l1.2.26Zm3.7-10.22c-.02.16-.16.26-.4.3-.1,1.5-.24,2.82-.56,3.96,1.82,1.08,4.08,2.56,5.26,3.58l-.9,1.04c-1.02-.96-3.02-2.36-4.78-3.46-.76,1.62-2.08,2.8-4.54,3.62-.14-.32-.48-.8-.78-1.06,4.2-1.28,4.82-3.72,5.02-8.1l1.68.12Zm-6.3,4.62c.84-.7,1.42-2.04,1.6-3.36l1.14.24c-.2,1.36-.74,2.82-1.72,3.64l-1.02-.52Zm7.08-.18c.6-.88,1.38-2.3,1.8-3.28l1.48.62c-.06.12-.22.18-.42.16-.46.88-1.26,2.14-1.88,2.96l-.98-.46Zm3.54,6.02c-.06.12-.2.18-.42.18-.5.94-1.36,2.34-2.06,3.22l-1-.48c.64-.92,1.5-2.48,1.96-3.56l1.52.64Z" fill="#231815"/>
      <path d="m139.53,171.78h8.38v1.22h-17.96v-1.22h8.2v-2.6h-6.26v-1.2h6.26v-1.96l1.78.12c-.02.14-.14.24-.4.26v1.58h6.4v1.2h-6.4v2.6Zm-7.7-13.6v2.48h-1.3v-3.72h7.62v-1.96l1.78.12c-.02.14-.14.24-.4.26v1.58h7.74v3.72h-1.36v-2.48h-14.08Zm14.02,8.3c-.3-.36-.72-.74-1.2-1.16-4.5.24-9.28.42-12.4.52-.04.16-.14.26-.28.28l-.64-1.5c.82,0,1.76-.02,2.8-.04.66-.9,1.42-2.08,1.96-3.06h-3.98v-1.2h13.46v1.2h-8.06l.38.14c-.04.1-.2.16-.4.16-.5.8-1.22,1.84-1.9,2.72,2.4-.06,5.16-.12,7.84-.2-.76-.6-1.6-1.16-2.36-1.62l.88-.74c1.74,1.02,3.82,2.54,4.84,3.66l-.94.84Z" fill="#231815"/>
    </g>
    <g>
      <path d="m207.59,77.02h-5.31v-.61l.88-.92c2.13-2.16,3.21-3.47,3.21-4.93,0-.96-.42-1.85-1.72-1.85-.72,0-1.37.4-1.8.74l-.34-.7c.55-.49,1.37-.88,2.33-.88,1.81,0,2.53,1.32,2.53,2.55,0,1.69-1.19,3.13-3.05,5l-.71.74v.02h3.97v.82Z" fill="#231815"/>
      <path d="m212.07,72.16c1.06.18,1.96,1.03,1.96,2.33,0,1.43-1.03,2.67-3.05,2.67-.9,0-1.72-.29-2.12-.58l.3-.77c.32.22,1.04.54,1.83.54,1.51,0,2-1.06,2-1.88,0-1.32-1.12-1.92-2.29-1.92h-.59v-.74h.59c.86,0,1.98-.54,1.98-1.67,0-.78-.47-1.45-1.55-1.45-.66,0-1.28.32-1.64.59l-.3-.73c.43-.34,1.27-.67,2.13-.67,1.64,0,2.38,1.04,2.38,2.12,0,.92-.59,1.75-1.63,2.12v.04Z" fill="#231815"/>
      <path d="m215.39,72.56c0-3.14,1.22-4.67,2.9-4.67s2.75,1.61,2.75,4.55c0,3.12-1.09,4.73-2.88,4.73-1.63,0-2.77-1.61-2.77-4.61Zm4.64-.07c0-2.24-.54-3.79-1.8-3.79-1.07,0-1.82,1.43-1.82,3.79s.66,3.86,1.79,3.86c1.33,0,1.83-1.73,1.83-3.86Z" fill="#231815"/>
    </g>
    <g>
      <path d="m276.23,77.02h-5.31v-.61l.88-.92c2.13-2.16,3.21-3.47,3.21-4.93,0-.96-.42-1.85-1.72-1.85-.72,0-1.37.4-1.8.74l-.34-.7c.55-.49,1.37-.88,2.33-.88,1.81,0,2.53,1.32,2.53,2.55,0,1.69-1.19,3.13-3.05,5l-.71.74v.02h3.97v.82Z" fill="#231815"/>
      <path d="m282.84,77.02h-5.31v-.61l.88-.92c2.13-2.16,3.21-3.47,3.21-4.93,0-.96-.42-1.85-1.72-1.85-.72,0-1.37.4-1.8.74l-.34-.7c.55-.49,1.37-.88,2.33-.88,1.81,0,2.53,1.32,2.53,2.55,0,1.69-1.19,3.13-3.05,5l-.71.74v.02h3.97v.82Z" fill="#231815"/>
      <path d="m288.66,72.78c-.49.62-1.19,1-2.06,1-1.54,0-2.48-1.2-2.48-2.72,0-1.64,1.08-3.15,2.84-3.15s2.75,1.46,2.75,3.75c0,2.99-1.51,5.06-3.81,5.42-.42.07-.8.1-1.07.08v-.83c.25.02.54-.01.92-.06,1.51-.22,2.65-1.44,2.95-3.49h-.04Zm-3.54-1.79c0,1.21.68,2.03,1.71,2.03.97,0,1.86-.74,1.86-1.46,0-1.73-.64-2.89-1.82-2.89-1.04,0-1.75.98-1.75,2.33Z" fill="#231815"/>
    </g>
    <g>
      <path d="m313.49,77.24h-5.31v-.61l.88-.92c2.13-2.16,3.21-3.47,3.21-4.93,0-.96-.42-1.85-1.72-1.85-.72,0-1.37.4-1.8.74l-.34-.7c.55-.49,1.37-.88,2.33-.88,1.81,0,2.53,1.32,2.53,2.55,0,1.69-1.19,3.13-3.05,5l-.71.74v.02h3.97v.82Z" fill="#231815"/>
      <path d="m320.1,77.24h-5.31v-.61l.88-.92c2.13-2.16,3.21-3.47,3.21-4.93,0-.96-.42-1.85-1.72-1.85-.72,0-1.37.4-1.8.74l-.34-.7c.55-.49,1.37-.88,2.33-.88,1.81,0,2.53,1.32,2.53,2.55,0,1.69-1.19,3.13-3.05,5l-.71.74v.02h3.97v.82Z" fill="#231815"/>
      <path d="m323.06,72.48c-.97-.47-1.4-1.26-1.4-2.03,0-1.39,1.09-2.34,2.54-2.34,1.63,0,2.41,1.1,2.41,2.18,0,.77-.41,1.61-1.47,2.12v.05c1.1.47,1.79,1.27,1.79,2.35,0,1.52-1.25,2.57-2.83,2.57-1.71,0-2.77-1.09-2.77-2.39,0-1.16.7-2,1.74-2.47v-.05Zm2.84,2.45c0-1.13-.76-1.7-1.94-2.09-1.06.35-1.62,1.12-1.62,2,0,1.02.68,1.8,1.76,1.8,1.15,0,1.8-.78,1.8-1.72Zm-3.3-4.57c-.01.96.67,1.49,1.67,1.79.78-.3,1.37-.91,1.37-1.76,0-.76-.42-1.54-1.47-1.54s-1.56.73-1.56,1.51Z" fill="#231815"/>
    </g>
    <g>
      <path d="m350.96,77.02h-5.31v-.61l.88-.92c2.13-2.16,3.21-3.47,3.21-4.93,0-.96-.42-1.85-1.72-1.85-.72,0-1.37.4-1.8.74l-.34-.7c.55-.49,1.37-.88,2.33-.88,1.81,0,2.53,1.32,2.53,2.55,0,1.69-1.19,3.13-3.05,5l-.71.74v.02h3.97v.82Z" fill="#231815"/>
      <path d="m357.57,77.02h-5.31v-.61l.88-.92c2.13-2.16,3.21-3.47,3.21-4.93,0-.96-.42-1.85-1.72-1.85-.72,0-1.37.4-1.8.74l-.34-.7c.55-.49,1.37-.88,2.33-.88,1.81,0,2.53,1.32,2.53,2.55,0,1.69-1.19,3.13-3.05,5l-.71.74v.02h3.97v.82Z" fill="#231815"/>
      <path d="m359.04,68.04h5.27v.64l-3.75,8.35h-1.02l3.75-8.13v-.02h-4.25v-.83Z" fill="#231815"/>
    </g>
    <g>
      <path d="m389.38,77.02h-5.31v-.61l.88-.92c2.13-2.16,3.21-3.47,3.21-4.93,0-.96-.42-1.85-1.72-1.85-.72,0-1.37.4-1.8.74l-.34-.7c.55-.49,1.37-.88,2.33-.88,1.81,0,2.53,1.32,2.53,2.55,0,1.69-1.19,3.13-3.05,5l-.71.74v.02h3.97v.82Z" fill="#231815"/>
      <path d="m395.99,77.02h-5.31v-.61l.88-.92c2.13-2.16,3.21-3.47,3.21-4.93,0-.96-.42-1.85-1.72-1.85-.72,0-1.37.4-1.8.74l-.34-.7c.55-.49,1.37-.88,2.33-.88,1.81,0,2.53,1.32,2.53,2.55,0,1.69-1.19,3.13-3.05,5l-.71.74v.02h3.97v.82Z" fill="#231815"/>
      <path d="m398.21,72.26c.41-.6,1.14-1.1,2.1-1.1,1.52,0,2.54,1.14,2.54,2.87s-1.01,3.14-2.76,3.14-2.93-1.45-2.93-3.78,1.13-4.93,4.04-5.41c.34-.05.64-.08.84-.08v.83c-2.48,0-3.67,1.81-3.87,3.54h.04Zm3.63,1.83c0-1.38-.74-2.18-1.82-2.18s-1.86,1.03-1.86,1.7c.01,1.64.71,2.77,1.96,2.77,1.04,0,1.73-.94,1.73-2.29Z" fill="#231815"/>
    </g>
    <g>
      <path d="m427.24,77.02h-5.31v-.61l.88-.92c2.13-2.16,3.21-3.47,3.21-4.93,0-.96-.42-1.85-1.72-1.85-.72,0-1.37.4-1.8.74l-.34-.7c.55-.49,1.37-.88,2.33-.88,1.81,0,2.53,1.32,2.53,2.55,0,1.69-1.19,3.13-3.05,5l-.71.74v.02h3.97v.82Z" fill="#231815"/>
      <path d="m433.86,77.02h-5.31v-.61l.88-.92c2.13-2.16,3.21-3.47,3.21-4.93,0-.96-.42-1.85-1.72-1.85-.72,0-1.37.4-1.8.74l-.34-.7c.55-.49,1.37-.88,2.33-.88,1.81,0,2.53,1.32,2.53,2.55,0,1.69-1.19,3.13-3.05,5l-.71.74v.02h3.97v.82Z" fill="#231815"/>
      <path d="m440.14,68.04v.83h-3.23l-.37,2.54c.19-.02.38-.05.7-.05,1.59,0,3.02.95,3.02,2.76s-1.32,3.05-3.09,3.05c-.9,0-1.66-.26-2.06-.53l.29-.78c.34.23,1,.5,1.78.5,1.13,0,2.1-.83,2.09-2.12,0-1.24-.79-2.1-2.47-2.1-.48,0-.85.04-1.15.08l.56-4.19h3.95Z" fill="#231815"/>
    </g>
    <g>
      <path d="m463.72,77.13h-5.31v-.61l.88-.92c2.13-2.16,3.21-3.47,3.21-4.93,0-.96-.42-1.85-1.72-1.85-.72,0-1.37.4-1.8.74l-.34-.7c.55-.49,1.37-.88,2.33-.88,1.81,0,2.53,1.32,2.53,2.55,0,1.69-1.19,3.13-3.05,5l-.71.74v.02h3.97v.82Z" fill="#231815"/>
      <path d="m470.33,77.13h-5.31v-.61l.88-.92c2.13-2.16,3.21-3.47,3.21-4.93,0-.96-.42-1.85-1.72-1.85-.72,0-1.37.4-1.8.74l-.34-.7c.55-.49,1.37-.88,2.33-.88,1.81,0,2.53,1.32,2.53,2.55,0,1.69-1.19,3.13-3.05,5l-.71.74v.02h3.97v.82Z" fill="#231815"/>
      <path d="m476.15,77.13h-.95v-2.52h-3.92v-.64l3.84-5.83h1.03v5.7h1.22v.77h-1.22v2.52Zm-3.86-3.29h2.92v-3.19c0-.49.02-.97.05-1.44h-.05c-.28.55-.49.94-.72,1.34l-2.2,3.26v.02Z" fill="#231815"/>
    </g>
    <g>
      <path d="m501.19,76.91h-5.31v-.61l.88-.92c2.13-2.16,3.21-3.47,3.21-4.93,0-.96-.42-1.85-1.72-1.85-.72,0-1.37.4-1.8.74l-.34-.7c.55-.49,1.37-.88,2.33-.88,1.81,0,2.53,1.32,2.53,2.55,0,1.69-1.19,3.13-3.05,5l-.71.74v.02h3.97v.82Z" fill="#231815"/>
      <path d="m507.8,76.91h-5.31v-.61l.88-.92c2.13-2.16,3.21-3.47,3.21-4.93,0-.96-.42-1.85-1.72-1.85-.72,0-1.37.4-1.8.74l-.34-.7c.55-.49,1.37-.88,2.33-.88,1.81,0,2.53,1.32,2.53,2.55,0,1.69-1.19,3.13-3.05,5l-.71.74v.02h3.97v.82Z" fill="#231815"/>
      <path d="m512.28,72.05c1.06.18,1.96,1.03,1.96,2.33,0,1.43-1.03,2.67-3.05,2.67-.9,0-1.71-.29-2.12-.58l.3-.77c.32.22,1.04.54,1.83.54,1.51,0,2-1.06,2-1.88,0-1.32-1.12-1.92-2.29-1.92h-.59v-.74h.59c.86,0,1.98-.54,1.98-1.67,0-.78-.47-1.45-1.55-1.45-.66,0-1.28.32-1.64.59l-.3-.73c.43-.34,1.27-.67,2.13-.67,1.64,0,2.38,1.04,2.38,2.12,0,.92-.59,1.75-1.63,2.12v.04Z" fill="#231815"/>
    </g>
    <g>
      <path d="m539.61,76.91h-5.31v-.61l.88-.92c2.13-2.16,3.21-3.47,3.21-4.93,0-.96-.42-1.85-1.72-1.85-.72,0-1.37.4-1.8.74l-.34-.7c.55-.49,1.37-.88,2.33-.88,1.81,0,2.53,1.32,2.53,2.55,0,1.69-1.19,3.13-3.05,5l-.71.74v.02h3.97v.82Z" fill="#231815"/>
      <path d="m546.22,76.91h-5.31v-.61l.88-.92c2.13-2.16,3.21-3.47,3.21-4.93,0-.96-.42-1.85-1.72-1.85-.72,0-1.37.4-1.8.74l-.34-.7c.55-.49,1.37-.88,2.33-.88,1.81,0,2.53,1.32,2.53,2.55,0,1.69-1.19,3.13-3.05,5l-.71.74v.02h3.97v.82Z" fill="#231815"/>
      <path d="m552.83,76.91h-5.31v-.61l.88-.92c2.13-2.16,3.21-3.47,3.21-4.93,0-.96-.42-1.85-1.72-1.85-.72,0-1.37.4-1.8.74l-.34-.7c.55-.49,1.37-.88,2.33-.88,1.81,0,2.53,1.32,2.53,2.55,0,1.69-1.19,3.13-3.05,5l-.71.74v.02h3.97v.82Z" fill="#231815"/>
    </g>
    <g>
      <path d="m577.47,76.91h-5.31v-.61l.88-.92c2.13-2.16,3.21-3.47,3.21-4.93,0-.96-.42-1.85-1.72-1.85-.72,0-1.37.4-1.8.74l-.34-.7c.55-.49,1.37-.88,2.33-.88,1.81,0,2.53,1.32,2.53,2.55,0,1.69-1.19,3.13-3.05,5l-.71.74v.02h3.97v.82Z" fill="#231815"/>
      <path d="m584.09,76.91h-5.31v-.61l.88-.92c2.13-2.16,3.21-3.47,3.21-4.93,0-.96-.42-1.85-1.72-1.85-.72,0-1.37.4-1.8.74l-.34-.7c.55-.49,1.37-.88,2.33-.88,1.81,0,2.53,1.32,2.53,2.55,0,1.69-1.19,3.13-3.05,5l-.71.74v.02h3.97v.82Z" fill="#231815"/>
      <path d="m587.92,76.91v-8.05h-.02l-1.48.85-.24-.74,1.86-1.04h.85v8.98h-.97Z" fill="#231815"/>
    </g>
    <g>
      <path d="m276.82,190.56h-5.31v-.61l.88-.92c2.13-2.16,3.21-3.47,3.21-4.93,0-.96-.42-1.85-1.72-1.85-.72,0-1.37.4-1.8.74l-.34-.7c.55-.49,1.37-.88,2.33-.88,1.81,0,2.53,1.32,2.53,2.55,0,1.69-1.19,3.13-3.05,5l-.71.74v.02h3.97v.82Z" fill="#231815"/>
      <path d="m280.65,190.56v-8.05h-.02l-1.48.85-.24-.74,1.86-1.04h.85v8.98h-.97Z" fill="#231815"/>
      <path d="m286.39,185.8c-.97-.47-1.4-1.26-1.4-2.03,0-1.39,1.09-2.34,2.54-2.34,1.63,0,2.41,1.1,2.41,2.18,0,.77-.41,1.61-1.47,2.12v.05c1.1.47,1.79,1.27,1.79,2.35,0,1.52-1.25,2.57-2.83,2.57-1.71,0-2.77-1.09-2.77-2.39,0-1.16.7-2,1.74-2.47v-.05Zm2.84,2.45c0-1.13-.76-1.7-1.94-2.09-1.06.35-1.62,1.12-1.62,2,0,1.02.68,1.8,1.76,1.8,1.15,0,1.8-.78,1.8-1.72Zm-3.3-4.57c-.01.96.67,1.49,1.67,1.79.78-.3,1.37-.91,1.37-1.76,0-.76-.42-1.54-1.47-1.54s-1.56.73-1.56,1.51Z" fill="#231815"/>
    </g>
    <g>
      <path d="m351.55,191h-5.31v-.61l.88-.92c2.13-2.16,3.21-3.47,3.21-4.93,0-.96-.42-1.85-1.72-1.85-.72,0-1.37.4-1.8.74l-.34-.7c.55-.49,1.37-.88,2.33-.88,1.81,0,2.53,1.32,2.53,2.55,0,1.69-1.19,3.13-3.05,5l-.71.74v.02h3.97v.82Z" fill="#231815"/>
      <path d="m355.38,191v-8.05h-.02l-1.48.85-.24-.74,1.86-1.04h.85v8.98h-.97Z" fill="#231815"/>
      <path d="m360.38,186.24c.41-.6,1.14-1.1,2.1-1.1,1.52,0,2.54,1.14,2.54,2.87s-1.01,3.14-2.76,3.14-2.93-1.45-2.93-3.78,1.13-4.93,4.04-5.41c.34-.05.64-.08.84-.08v.83c-2.48,0-3.67,1.81-3.87,3.54h.04Zm3.63,1.83c0-1.38-.74-2.18-1.82-2.18s-1.86,1.03-1.86,1.7c.01,1.64.71,2.77,1.96,2.77,1.04,0,1.73-.94,1.73-2.29Z" fill="#231815"/>
    </g>
    <g>
      <path d="m426.03,190.71h-5.31v-.61l.88-.92c2.13-2.16,3.21-3.47,3.21-4.93,0-.96-.42-1.85-1.72-1.85-.72,0-1.37.4-1.8.74l-.34-.7c.55-.49,1.37-.88,2.33-.88,1.81,0,2.53,1.32,2.53,2.55,0,1.69-1.19,3.13-3.05,5l-.71.74v.02h3.97v.82Z" fill="#231815"/>
      <path d="m429.86,190.71v-8.05h-.02l-1.48.85-.24-.74,1.86-1.04h.85v8.98h-.97Z" fill="#231815"/>
      <path d="m438.93,181.72v.83h-3.23l-.37,2.54c.19-.02.38-.05.7-.05,1.59,0,3.02.95,3.02,2.76s-1.32,3.05-3.09,3.05c-.9,0-1.66-.26-2.06-.53l.29-.78c.34.23,1,.5,1.78.5,1.13,0,2.1-.83,2.09-2.12,0-1.24-.79-2.1-2.47-2.1-.48,0-.85.04-1.15.08l.56-4.19h3.95Z" fill="#231815"/>
    </g>
    <g>
      <path d="m481.46,190.15h-5.31v-.61l.88-.92c2.13-2.16,3.21-3.47,3.21-4.93,0-.96-.42-1.85-1.72-1.85-.72,0-1.37.4-1.8.74l-.34-.7c.55-.49,1.37-.88,2.33-.88,1.81,0,2.53,1.32,2.53,2.55,0,1.69-1.19,3.13-3.05,5l-.71.74v.02h3.97v.82Z" fill="#231815"/>
      <path d="m485.29,190.15v-8.05h-.02l-1.48.85-.24-.74,1.86-1.04h.85v8.98h-.97Z" fill="#231815"/>
      <path d="m492.55,185.29c1.06.18,1.96,1.03,1.96,2.33,0,1.43-1.03,2.67-3.05,2.67-.9,0-1.71-.29-2.12-.58l.3-.77c.32.22,1.04.54,1.83.54,1.51,0,2-1.05,2-1.88,0-1.32-1.12-1.92-2.29-1.92h-.59v-.74h.59c.86,0,1.98-.54,1.98-1.67,0-.78-.47-1.45-1.55-1.45-.66,0-1.28.32-1.64.59l-.3-.73c.43-.34,1.27-.67,2.13-.67,1.64,0,2.38,1.04,2.38,2.12,0,.92-.59,1.75-1.63,2.12v.04Z" fill="#231815"/>
    </g>
    <g>
      <path d="m537.77,190.15h-5.31v-.61l.88-.92c2.13-2.16,3.21-3.47,3.21-4.93,0-.96-.42-1.85-1.72-1.85-.72,0-1.37.4-1.8.74l-.34-.7c.55-.49,1.37-.88,2.33-.88,1.81,0,2.53,1.32,2.53,2.55,0,1.69-1.19,3.13-3.05,5l-.71.74v.02h3.97v.82Z" fill="#231815"/>
      <path d="m541.6,190.15v-8.05h-.02l-1.48.85-.24-.74,1.86-1.04h.85v8.98h-.97Z" fill="#231815"/>
      <path d="m550.99,190.15h-5.31v-.61l.88-.92c2.13-2.16,3.21-3.47,3.21-4.93,0-.96-.42-1.85-1.72-1.85-.72,0-1.37.4-1.8.74l-.34-.7c.55-.49,1.37-.88,2.33-.88,1.81,0,2.53,1.32,2.53,2.55,0,1.69-1.19,3.13-3.05,5l-.71.74v.02h3.97v.82Z" fill="#231815"/>
    </g>
    <g>
      <path d="m576.07,190.15h-5.31v-.61l.88-.92c2.13-2.16,3.21-3.47,3.21-4.93,0-.96-.42-1.85-1.72-1.85-.72,0-1.37.4-1.8.74l-.34-.7c.55-.49,1.37-.88,2.33-.88,1.81,0,2.53,1.32,2.53,2.55,0,1.69-1.19,3.13-3.05,5l-.71.74v.02h3.97v.82Z" fill="#231815"/>
      <path d="m579.9,190.15v-8.05h-.02l-1.48.85-.24-.74,1.86-1.04h.85v8.98h-.97Z" fill="#231815"/>
      <path d="m586.51,190.15v-8.05h-.02l-1.48.85-.24-.74,1.86-1.04h.85v8.98h-.97Z" fill="#231815"/>
    </g>
  </g>
</svg>