<?xml version="1.0" encoding="UTF-8"?>
<svg xmlns="http://www.w3.org/2000/svg" width="718.18" height="566.49" viewBox="0 0 718.18 566.49">
  <g id="base">
    <polyline id="base-2" data-name="base" points="1.63 0 718.15 0 718.15 566.49 1.63 566.49" fill="#dcdddd"/>
  </g>
  <g id="library">
    <polyline points="1.63 376.64 17.89 360.37 17.89 52.91 1.63 52.91" fill="#929292" stroke="#231815" stroke-miterlimit="10"/>
  </g>
  <g id="base_map">
    <g>
      <polyline points="1.01 387.75 24.39 370.77 24.39 135.47 62.93 135.47 62.93 53.54 573.95 53.54 573.95 117.64 717.65 117.64 717.65 194.25 569.61 194.25 569.61 317.55 694.84 317.55 694.84 357.1 646.95 356.98 646.95 375.66 691.8 375.66 692 416.57 419.28 416.57 419.35 486.32 137.71 486.32 137.85 470.45 104.95 470.45 104.95 489.68 13.21 543.39 1.01 543.39" fill="#b5b5b6" stroke="#273331" stroke-miterlimit="10"/>
      <polyline points="718.18 118.15 716.18 118.15 716.18 193.74 718.18 193.74" fill="#b5b5b6"/>
    </g>
  </g>
  <g id="MLOC-avilable">
    <polyline id="seikyo_space" points="513.04 103.33 120.87 103.33 120.87 425.46 353.37 425.46 353.37 376.22 430.4 376.22 430.35 349.52 418.5 349.52 418.5 319.66 513.04 319.45 513.04 155.31 434.67 155.14" fill="#d6d2e8" stroke="#231815" stroke-miterlimit="10" stroke-width="2"/>
    <polygon id="danwa" points="512.68 319.14 512.68 228.46 399.37 228.46 399.37 319.14 422.63 319.14 512.68 319.14" fill="#aedef8" stroke="#231815" stroke-miterlimit="10"/>
    <polygon id="shisaku" points="151.53 541.47 215.08 541.47 215.08 486.35 151.53 486.35 151.53 497.67 151.53 541.47" fill="#aedef8" stroke="#273331" stroke-miterlimit="10"/>
  </g>
  <g id="unavailable">
    <rect x="256.92" y="486.31" width="41.84" height="55.13" fill="#929292" stroke="#283331" stroke-miterlimit="10"/>
    <rect x="298.76" y="486.31" width="41.84" height="55.13" fill="#929292" stroke="#283331" stroke-miterlimit="10"/>
    <rect x="215.08" y="486.39" width="41.84" height="55.13" fill="#929292" stroke="#283331" stroke-miterlimit="10"/>
    <rect x="340.6" y="486.31" width="41.84" height="55.13" fill="#929292" stroke="#283331" stroke-miterlimit="10"/>
    <rect x="656.81" y="415.99" width="35.07" height="55.13" fill="#929292" stroke="#283331" stroke-miterlimit="10"/>
    <rect x="623.61" y="415.99" width="33.2" height="55.13" fill="#929292" stroke="#283331" stroke-miterlimit="10"/>
    <rect x="600.94" y="415.99" width="22.67" height="55.13" fill="#929292" stroke="#283331" stroke-miterlimit="10"/>
    <rect x="577.69" y="415.99" width="23.25" height="55.13" fill="#929292" stroke="#283331" stroke-miterlimit="10"/>
    <rect x="554.58" y="415.99" width="23.16" height="55.13" fill="#929292" stroke="#283331" stroke-miterlimit="10"/>
    <rect x="531.91" y="415.99" width="22.67" height="55.13" fill="#929292" stroke="#283331" stroke-miterlimit="10"/>
    <rect x="509.24" y="415.99" width="22.67" height="55.13" fill="#929292" stroke="#283331" stroke-miterlimit="10"/>
    <rect x="486.85" y="415.99" width="22.67" height="55.13" fill="#929292" stroke="#283331" stroke-miterlimit="10"/>
    <rect x="453.07" y="415.99" width="33.78" height="55.13" fill="#929292" stroke="#283331" stroke-miterlimit="10"/>
    <rect x="419.28" y="415.99" width="33.78" height="55.13" fill="#929292" stroke="#283331" stroke-miterlimit="10"/>
    <rect x="659.49" y="242.5" width="35.32" height="75.38" fill="#929292" stroke="#283331" stroke-miterlimit="10"/>
    <rect x="609.31" y="242.5" width="50.18" height="75.38" fill="#929292" stroke="#283331" stroke-miterlimit="10"/>
    <rect x="569.62" y="242.5" width="39.69" height="75.38" fill="#929292" stroke="#283331" stroke-miterlimit="10"/>
  </g>
  <g id="stairs">
    <path d="m0,405.71l9.22,5.36v-4.02h34.59v-2.68s-34.59,0-34.59,0v-4.02s-9.22,5.36-9.22,5.36Z" fill="#040000"/>
    <g id="stair_to_park">
      <polygon points="455.01 103.83 436.81 155.14 511.04 155.14 511.04 103.83 455.01 103.83" fill="#ebebec" stroke="#231815" stroke-miterlimit="10"/>
      <line x1="444.64" y1="133.27" x2="444.64" y2="155.14" fill="none" stroke="#231815" stroke-miterlimit="10"/>
      <line x1="440.77" y1="155.14" x2="440.77" y2="144.2" fill="none" stroke="#231815" stroke-miterlimit="10"/>
      <line x1="448.51" y1="155.14" x2="448.51" y2="123.38" fill="none" stroke="#231815" stroke-miterlimit="10"/>
      <line x1="456.39" y1="103.83" x2="456.39" y2="155.14" fill="none" stroke="#231815" stroke-miterlimit="10"/>
      <line x1="452.59" y1="155.14" x2="452.59" y2="110.66" fill="none" stroke="#231815" stroke-miterlimit="10"/>
      <line x1="460.33" y1="155.14" x2="460.33" y2="103.83" fill="none" stroke="#231815" stroke-miterlimit="10"/>
      <line x1="464.5" y1="103.83" x2="464.5" y2="155.14" fill="none" stroke="#231815" stroke-miterlimit="10"/>
      <line x1="468.44" y1="155.14" x2="468.44" y2="103.83" fill="none" stroke="#231815" stroke-miterlimit="10"/>
      <line x1="495.46" y1="103.83" x2="495.46" y2="155.14" fill="none" stroke="#231815" stroke-miterlimit="10"/>
      <line x1="499.37" y1="155.14" x2="499.37" y2="103.83" fill="none" stroke="#231815" stroke-miterlimit="10"/>
      <line x1="503.28" y1="103.83" x2="503.28" y2="155.14" fill="none" stroke="#231815" stroke-miterlimit="10"/>
      <line x1="507.19" y1="155.14" x2="507.19" y2="103.83" fill="none" stroke="#231815" stroke-miterlimit="10"/>
      <line x1="479.82" y1="103.83" x2="479.82" y2="155.14" fill="none" stroke="#231815" stroke-miterlimit="10"/>
      <line x1="483.73" y1="155.14" x2="483.73" y2="103.83" fill="none" stroke="#231815" stroke-miterlimit="10"/>
      <line x1="487.64" y1="103.83" x2="487.64" y2="155.14" fill="none" stroke="#231815" stroke-miterlimit="10"/>
      <line x1="491.55" y1="155.14" x2="491.55" y2="103.83" fill="none" stroke="#231815" stroke-miterlimit="10"/>
    </g>
    <g id="spiral_stair_cir">
      <path d="m507.95,375.43h25.7c5.61,0,10.16-4.55,10.16-10.16v-2.31c0-6.96-5.64-12.6-12.6-12.6h-12.21l3.16,12.1h12.28-26.48" fill="#fff" stroke="#231815" stroke-miterlimit="10"/>
      <line x1="521.87" y1="350.13" x2="521.87" y2="361.22" fill="#fff" stroke="#231815" stroke-miterlimit="10"/>
      <line x1="524.5" y1="350.35" x2="524.5" y2="362.69" fill="#fff" stroke="#231815" stroke-miterlimit="10"/>
      <line x1="527.01" y1="350.35" x2="527.01" y2="362.45" fill="#fff" stroke="#231815" stroke-miterlimit="10"/>
      <line x1="524.5" y1="350.35" x2="524.5" y2="362.69" fill="#fff" stroke="#231815" stroke-miterlimit="10"/>
      <line x1="527.01" y1="350.35" x2="527.01" y2="362.45" fill="#fff" stroke="#231815" stroke-miterlimit="10"/>
      <line x1="529.54" y1="350.35" x2="529.54" y2="362.69" fill="#fff" stroke="#231815" stroke-miterlimit="10"/>
      <line x1="532.05" y1="350.35" x2="532.05" y2="362.45" fill="#fff" stroke="#231815" stroke-miterlimit="10"/>
      <line x1="525.88" y1="362.89" x2="525.88" y2="375.23" fill="#fff" stroke="#231815" stroke-miterlimit="10"/>
      <line x1="528.27" y1="362.89" x2="528.27" y2="374.99" fill="#fff" stroke="#231815" stroke-miterlimit="10"/>
      <line x1="530.66" y1="362.89" x2="530.66" y2="375.23" fill="#fff" stroke="#231815" stroke-miterlimit="10"/>
      <line x1="533.05" y1="362.89" x2="533.05" y2="374.99" fill="#fff" stroke="#231815" stroke-miterlimit="10"/>
      <line x1="516.32" y1="362.89" x2="516.32" y2="375.23" fill="#fff" stroke="#231815" stroke-miterlimit="10"/>
      <line x1="518.71" y1="362.89" x2="518.71" y2="374.99" fill="#fff" stroke="#231815" stroke-miterlimit="10"/>
      <line x1="521.1" y1="362.89" x2="521.1" y2="375.23" fill="#fff" stroke="#231815" stroke-miterlimit="10"/>
      <line x1="523.49" y1="362.89" x2="523.49" y2="374.99" fill="#fff" stroke="#231815" stroke-miterlimit="10"/>
      <line x1="509.14" y1="362.89" x2="509.14" y2="374.99" fill="#fff" stroke="#231815" stroke-miterlimit="10"/>
      <line x1="511.53" y1="362.89" x2="511.53" y2="375.23" fill="#fff" stroke="#231815" stroke-miterlimit="10"/>
      <line x1="513.92" y1="362.89" x2="513.92" y2="374.99" fill="#fff" stroke="#231815" stroke-miterlimit="10"/>
    </g>
    <g>
      <g>
        <polyline points="645.14 362.95 645.14 381.89 708.16 381.89 708.16 362.95 645.14 362.95" fill="#f19899" stroke="#283331" stroke-miterlimit="10"/>
        <polyline id="toilet" points="645.04 343.89 645.04 362.25 708.16 362.25 708.16 343.89 645.04 343.89" fill="#54c3f1" stroke="#283331" stroke-miterlimit="10"/>
        <g id="toilet_mark">
          <path d="m697.36,357.18c2.35,0,4.26-1.87,4.26-4.19s-1.91-4.19-4.26-4.19-4.26,1.87-4.26,4.19,1.91,4.19,4.26,4.19Z" fill="#fff"/>
          <path d="m681.49,357.18c2.35,0,4.26-1.87,4.26-4.19s-1.91-4.19-4.26-4.19-4.26,1.87-4.26,4.19,1.91,4.19,4.26,4.19Z" fill="#fff"/>
          <path d="m703.83,373.42l-5.85-13.51c-.11-.24-.35-.4-.62-.4s-.51.16-.62.4l-5.85,13.51c-.35.81-.27,1.75.23,2.49.5.74,1.34,1.18,2.24,1.18h7.99c.9,0,1.74-.44,2.24-1.18.5-.74.58-1.67.23-2.49Z" fill="#fff"/>
          <path d="m685.49,359.51h-7.99c-.9,0-1.74.44-2.24,1.18-.5.74-.58,1.67-.23,2.49l5.85,13.51c.11.24.35.4.62.4s.51-.16.62-.4l5.85-13.51c.35-.81.27-1.75-.23-2.49-.5-.74-1.34-1.18-2.24-1.18Z" fill="#fff"/>
        </g>
      </g>
      <g id="spiral_stair_sq">
        <rect x="645.14" y="353.38" width="24.56" height="19.14" fill="#fff" stroke="#231815" stroke-miterlimit="10"/>
        <polygon points="653.99 360.42 653.99 365.48 660.85 365.48 660.85 360.42 657.76 360.42 653.99 360.42" fill="#fff" stroke="#231815" stroke-miterlimit="10"/>
        <line x1="653.99" y1="360.42" x2="645.14" y2="365.48" fill="none" stroke="#231815" stroke-miterlimit="10"/>
        <line x1="653.6" y1="362.95" x2="649.56" y2="362.95" fill="none" stroke="#231815" stroke-miterlimit="10"/>
        <line x1="653.99" y1="365.48" x2="645.14" y2="365.48" fill="none" stroke="#231815" stroke-miterlimit="10"/>
        <line x1="654.8" y1="372.52" x2="654.8" y2="365.48" fill="none" stroke="#231815" stroke-miterlimit="10"/>
        <line x1="657.42" y1="372.52" x2="657.42" y2="365.48" fill="none" stroke="#231815" stroke-miterlimit="10"/>
        <line x1="659.86" y1="372.52" x2="659.86" y2="365.85" fill="none" stroke="#231815" stroke-miterlimit="10"/>
        <line x1="669.7" y1="365.07" x2="660.85" y2="365.07" fill="none" stroke="#231815" stroke-miterlimit="10"/>
        <line x1="669.7" y1="362.95" x2="661.4" y2="362.95" fill="none" stroke="#231815" stroke-miterlimit="10"/>
        <line x1="669.7" y1="360.79" x2="660.85" y2="360.79" fill="none" stroke="#231815" stroke-miterlimit="10"/>
        <line x1="659.86" y1="353.07" x2="659.86" y2="360.42" fill="none" stroke="#231815" stroke-miterlimit="10"/>
        <line x1="657.42" y1="353.07" x2="657.42" y2="360.42" fill="none" stroke="#231815" stroke-miterlimit="10"/>
        <line x1="654.37" y1="353.38" x2="654.37" y2="360.42" fill="none" stroke="#231815" stroke-miterlimit="10"/>
      </g>
    </g>
    <g id="stair_to_back_lib">
      <polygon points="62.64 78.89 45.17 60.68 45.17 134.91 62.64 134.91 62.64 78.89" fill="#fff" stroke="#231815" stroke-miterlimit="10"/>
      <line x1="52.62" y1="68.51" x2="45.17" y2="68.51" fill="none" stroke="#231815" stroke-miterlimit="10" stroke-width=".75"/>
      <line x1="45.17" y1="64.64" x2="48.89" y2="64.64" fill="none" stroke="#231815" stroke-miterlimit="10" stroke-width=".75"/>
      <line x1="45.17" y1="72.38" x2="55.98" y2="72.38" fill="none" stroke="#231815" stroke-miterlimit="10" stroke-width=".75"/>
      <line x1="62.64" y1="80.26" x2="45.17" y2="80.26" fill="none" stroke="#231815" stroke-miterlimit="10" stroke-width=".75"/>
      <line x1="45.17" y1="76.46" x2="60.31" y2="76.46" fill="none" stroke="#231815" stroke-miterlimit="10" stroke-width=".75"/>
      <line x1="45.17" y1="84.2" x2="62.64" y2="84.2" fill="none" stroke="#231815" stroke-miterlimit="10" stroke-width=".75"/>
      <line x1="62.64" y1="88.38" x2="45.17" y2="88.38" fill="none" stroke="#231815" stroke-miterlimit="10" stroke-width=".75"/>
      <line x1="45.17" y1="92.31" x2="62.64" y2="92.31" fill="none" stroke="#231815" stroke-miterlimit="10" stroke-width=".75"/>
      <line x1="62.64" y1="119.33" x2="45.17" y2="119.33" fill="none" stroke="#231815" stroke-miterlimit="10" stroke-width=".75"/>
      <line x1="45.17" y1="123.24" x2="62.64" y2="123.24" fill="none" stroke="#231815" stroke-miterlimit="10" stroke-width=".75"/>
      <line x1="62.64" y1="127.15" x2="45.17" y2="127.15" fill="none" stroke="#231815" stroke-miterlimit="10" stroke-width=".75"/>
      <line x1="45.17" y1="131.06" x2="62.64" y2="131.06" fill="none" stroke="#231815" stroke-miterlimit="10" stroke-width=".75"/>
      <line x1="62.64" y1="103.69" x2="45.17" y2="103.69" fill="none" stroke="#231815" stroke-miterlimit="10" stroke-width=".75"/>
      <line x1="45.17" y1="107.6" x2="62.64" y2="107.6" fill="none" stroke="#231815" stroke-miterlimit="10" stroke-width=".75"/>
      <line x1="62.64" y1="111.51" x2="45.17" y2="111.51" fill="none" stroke="#231815" stroke-miterlimit="10" stroke-width=".75"/>
      <line x1="45.17" y1="115.42" x2="62.64" y2="115.42" fill="none" stroke="#231815" stroke-miterlimit="10" stroke-width=".75"/>
    </g>
    <g id="stair_tocafe">
      <rect x="103.71" y="470.45" width="34.13" height="66.53" fill="#fff" stroke="#231815" stroke-miterlimit="10"/>
      <polygon points="116.45 485.49 116.45 513.91 125.43 513.91 125.43 485.49 121.39 485.49 116.45 485.49" fill="#fff" stroke="#231815" stroke-miterlimit="10"/>
      <line x1="116.63" y1="487.2" x2="103.71" y2="505.68" fill="none" stroke="#231815" stroke-miterlimit="10"/>
      <line x1="116.45" y1="495.25" x2="111.17" y2="495.25" fill="none" stroke="#231815" stroke-miterlimit="10"/>
      <line x1="116.45" y1="512.58" x2="103.71" y2="512.58" fill="none" stroke="#231815" stroke-miterlimit="10"/>
      <line x1="117.51" y1="536.98" x2="117.51" y2="513.91" fill="none" stroke="#231815" stroke-miterlimit="10"/>
      <line x1="120.94" y1="536.98" x2="120.94" y2="513.91" fill="none" stroke="#231815" stroke-miterlimit="10"/>
      <line x1="124.14" y1="536.98" x2="124.14" y2="513.91" fill="none" stroke="#231815" stroke-miterlimit="10"/>
      <line x1="138.03" y1="512.58" x2="125.43" y2="512.58" fill="none" stroke="#231815" stroke-miterlimit="10"/>
      <line x1="137.85" y1="505.62" x2="125.42" y2="505.62" fill="none" stroke="#231815" stroke-miterlimit="10"/>
      <line x1="137.85" y1="498.53" x2="125.43" y2="498.53" fill="none" stroke="#231815" stroke-miterlimit="10"/>
      <line x1="137.84" y1="491.71" x2="125.43" y2="491.71" fill="none" stroke="#231815" stroke-miterlimit="10"/>
      <line x1="116.45" y1="507.38" x2="103.71" y2="507.38" fill="none" stroke="#231815" stroke-miterlimit="10"/>
      <line x1="116.45" y1="502.02" x2="106.35" y2="502.02" fill="none" stroke="#231815" stroke-miterlimit="10"/>
      <line x1="116.63" y1="485.49" x2="103.71" y2="485.49" fill="none" stroke="#231815" stroke-miterlimit="10"/>
    </g>
    <rect x="405.51" y="349.52" width="24.85" height="26.52" fill="#f7f8f8" stroke="#231815" stroke-miterlimit="10" stroke-width="2"/>
    <path d="m700.66,171.81l-9.22-5.36v4.02h-34.59v2.68s34.59,0,34.59,0v4.02s9.22-5.36,9.22-5.36Z" fill="#040000"/>
  </g>
  <g id="MNOINT-word">
    <g>
      <path d="m404.11,234.59c.34.06.6.07,1.12.07h2.68c.59,0,.81-.01,1.12-.06v1.22c-.28-.04-.5-.06-1.04-.06h-2.76c-.48,0-.77.01-1.12.06v-1.23Zm.52,10.44c.04-.39.07-.92.07-1.36v-2.07c0-.43-.01-.73-.06-1.12.28.04.46.06.92.06h2.23c.48,0,.62,0,.85-.04-.03.29-.04.53-.04,1.05v2.4c0,.42.01.67.03.91h-1.11v-.57h-1.71v.76h-1.19Zm.06-8.39c.28.03.46.04.91.04h2.1c.46,0,.66-.01.9-.04v1.12c-.27-.03-.48-.04-.9-.04h-2.1c-.43,0-.63.01-.91.04v-1.12Zm0,1.95c.25.03.46.04.91.04h2.1c.46,0,.66-.01.9-.04v1.12c-.24-.03-.48-.04-.91-.04h-2.09c-.43,0-.66.01-.91.04v-1.12Zm.01-5.95c.31.06.56.07,1.08.07h1.76c.52,0,.76-.01,1.08-.07v1.18c-.34-.04-.6-.06-1.08-.06h-1.76c-.46,0-.76.01-1.08.06v-1.18Zm1.12,10.62h1.69v-1.75h-1.69v1.75Zm7.68-5.31c-.04.25-.06.52-.06.83,0,1.36.29,2.34.94,3.17.69.88,1.58,1.51,2.76,1.98-.32.45-.45.67-.69,1.25-.97-.49-1.74-1.06-2.4-1.79-.53-.59-.87-1.13-1.18-1.92-.28.9-.59,1.46-1.15,2.09-.64.71-1.37,1.2-2.41,1.64-.2-.48-.36-.77-.66-1.13,1.29-.43,2.13-1.02,2.73-1.9.57-.84.83-1.85.83-3.28,0-.38-.01-.64-.07-.91h1.34Zm.01-5.57c-.04.29-.06.57-.06.83,0,1.15.24,2.02.76,2.7.34.46.84.91,1.39,1.25.38.22.69.36,1.36.6-.34.45-.46.66-.67,1.15-1.13-.55-1.85-1.06-2.52-1.86-.42-.5-.56-.74-.88-1.46-.22.64-.46,1.08-.88,1.57-.63.77-1.27,1.23-2.48,1.75-.22-.48-.38-.71-.71-1.06.97-.29,1.47-.56,2-1.04,1.01-.88,1.43-1.93,1.43-3.6,0-.34-.01-.5-.06-.83h1.33Zm-2.34,7.02c-.32,1.18-.57,1.74-1.06,2.52l-1.11-.5c.57-.74.83-1.34,1.02-2.37l1.15.35Zm.13-6.06c-.29,1.09-.52,1.67-1.02,2.49l-1.09-.45c.55-.8.77-1.33.95-2.33l1.16.28Zm5.39.06c-.59,1.08-.94,1.58-1.61,2.34-.43-.32-.64-.45-.98-.6.7-.76,1.02-1.25,1.46-2.23l1.13.49Zm-.03,6.08c-.55,1.05-.92,1.62-1.5,2.3-.43-.34-.49-.36-.98-.62.63-.7.94-1.2,1.34-2.17l1.13.49Z" fill="#231815"/>
      <path d="m418.25,234.6c.35.06.6.07,1.12.07h2.77c.56,0,.8-.01,1.12-.06v1.19c-.27-.04-.49-.06-1.04-.06h-2.86c-.49,0-.76.01-1.12.06v-1.2Zm.46-1.93c.38.06.59.07,1.13.07h1.99c.55,0,.76-.01,1.13-.07v1.18c-.31-.04-.63-.06-1.13-.06h-1.99c-.49,0-.8.01-1.13.06v-1.18Zm.06,3.92c.31.03.5.04.95.04h2.33c.46,0,.67-.01.94-.04v1.13c-.32-.03-.52-.04-.94-.04h-2.33c-.45,0-.66.01-.95.04v-1.13Zm0,1.95c.29.03.48.04.95.04h2.33c.49,0,.66-.01.94-.04v1.13c-.31-.03-.52-.04-.95-.04h-2.31c-.43,0-.64.01-.95.04v-1.13Zm1.25,6.5h-1.22c.06-.41.07-.77.07-1.32v-2.1c0-.46-.01-.73-.07-1.13.34.04.69.06,1.11.06h2.13c.57,0,.73,0,.98-.04-.03.28-.04.55-.04,1.05v2.2c0,.49.01.7.06,1.11h-1.18v-.5h-1.83v.69Zm-.01-1.72h1.85v-1.74h-1.85v1.74Zm6.35-8.99c-.88.15-1.09.17-2.59.34-.1-.39-.18-.62-.46-1.15,1.58-.07,3.24-.31,4.62-.67.94-.25,1.53-.46,1.85-.66l.77,1.13q-.25.06-.62.17c-.5.15-1.64.45-2.34.6v2.27h1.65c.7,0,1.13-.03,1.55-.08v1.3c-.45-.06-.88-.08-1.54-.08h-1.67v2.05h1.61c.49,0,.76-.01,1.06-.06-.04.31-.06.69-.06,1.22v2.87c0,.55.03,1.09.07,1.41h-1.33v-.64h-3.81v.64h-1.32c.06-.35.07-.73.07-1.39v-2.98c0-.49-.01-.77-.04-1.13.28.04.62.06,1.01.06h1.5v-2.05h-1.34c-.71,0-1.09.01-1.57.08v-1.3c.45.06.85.08,1.58.08h1.33v-2.03Zm-1.22,8.9h3.81v-2.58h-3.81v2.58Z" fill="#231815"/>
      <path d="m442.01,240.72c.73,0,1.01-.01,1.44-.07v1.25c-.43-.06-.8-.07-1.47-.07h-2.91v1.57h3.99c.88,0,1.3-.03,1.75-.08v1.3c-.5-.06-1.04-.08-1.89-.08h-8.78c-.84,0-1.36.03-1.86.08v-1.3c.46.07.88.08,1.75.08h3.77v-1.57h-2.67c-.7,0-1.06.01-1.5.07v-1.25c.43.06.69.07,1.51.07h2.66v-.11c0-.41-.03-.73-.07-1.05h1.41c-.04.31-.07.63-.07,1.05v.11h2.94Zm-4.26-7.63c0-.34-.03-.63-.08-.92h1.46c-.06.28-.08.57-.08.92v.27h3.64c.91,0,1.33-.01,1.82-.06-.04.32-.06.52-.06,1.05v.74c0,.43.01.76.07,1.08h-1.29v-1.69h-9.39v1.72h-1.27q.01-.17.03-.39c.01-.17.03-.48.03-.78v-.73c0-.41-.01-.66-.06-.99.48.04.92.06,1.74.06h3.45v-.27Zm-1.79,3.61c-.91,0-1.29.01-1.67.07v-1.2c.42.04.73.06,1.56.06h5.35c.85,0,1.19-.01,1.58-.06v1.2c-.41-.06-.71-.07-1.55-.07h-3.46c-.41.78-.53.98-.95,1.58q3-.13,4.09-.21c-.36-.35-.5-.46-.94-.8l.94-.57c1.09.85,1.47,1.19,2.82,2.51l-.95.8c-.46-.53-.63-.71-.91-1.01-2.52.2-5.21.35-8.03.45-.18.01-.27.01-.48.06l-.15-1.2c.36.04.48.04.99.04.39,0,.56,0,1.27-.03.39-.55.66-1.01.95-1.61h-.46Z" fill="#231815"/>
    </g>
    <g>
      <path d="m157.92,490.11c-.34.37-.64.66-1.13,1.02-.23-.32-.35-.44-.68-.66.96-.65,1.62-1.42,1.89-2.18l1.04.23c-.18.29-.35.55-.49.77h3.62c.6,0,.83-.01,1.06-.05l.61.48s-.04.05-.13.16c-.01.02-.04.06-.08.12-.41.6-.7.92-1.15,1.31-.3-.17-.58-.29-.94-.4.43-.28.61-.42.92-.79h-2.11c.37,1.21,1.75,1.97,3.85,2.12-.23.37-.28.47-.44.97-.55-.1-.73-.14-1.2-.29-.02.29-.04.71-.04,1.21v2.18c0,.58.01,1.03.05,1.25-.28-.02-.78-.04-1.31-.04h-.71c1.09.55,1.91.77,3.54.95-.34.41-.36.44-.62.94-1.69-.3-2.58-.6-3.81-1.34l.71-.54h-3.6l.74.54c-1.25.74-1.97,1-3.71,1.34-.18-.38-.29-.55-.61-.91,1.61-.19,2.38-.42,3.37-.97h-.59c-.55,0-1.01.01-1.31.04.02-.22.05-.66.05-1.2v-2.29c0-.55-.01-.94-.04-1.26.26.02.67.04,1.24.04h.86c-.16-.34-.22-.43-.52-.8.71-.05,1.42-.24,1.92-.53.58-.34.92-.78,1.08-1.4h-1.34Zm-1.37,1.62c-.9.43-1.28.59-2.35,1.01-.2.08-.31.13-.53.24l-.4-1.05c.82-.14,1.86-.52,2.99-1.07l.29.88Zm-1-1.2c-.71-.58-1.14-.84-1.93-1.19l.65-.77c.89.43,1.27.65,1.95,1.13l-.67.83Zm.2,3.66h5.72v-.58h-5.72v.58Zm0,1.27h5.72v-.56h-5.72v.56Zm0,1.28h5.72v-.58h-5.72v.58Zm5.58-3.9c.54,0,.59,0,.92-.01-1.24-.43-1.88-.91-2.42-1.81-.36.62-.68.95-1.27,1.27-.42.23-1.04.44-1.62.55h4.39Z" fill="#231815"/>
      <path d="m166.51,493.43c-.52,0-.77.01-1.07.06v-1.07c.25.05.53.06,1.07.06h.86v-2.83c0-.58-.02-.92-.06-1.22h1.16c-.05.3-.06.62-.06,1.21v2.84h.62c.43,0,.65-.01.9-.05v1.04c-.29-.04-.53-.05-.92-.05h-.52c.52.84.94,1.33,1.62,1.89-.2.29-.36.59-.52.95-.64-.72-.86-1.06-1.26-1.75.04.48.07,1.19.07,1.54v2.1c0,.56.01.92.07,1.27h-1.19c.06-.4.07-.76.07-1.3v-1.75c0-.52.02-1.13.06-1.61-.54,1.42-.97,2.2-1.68,3-.2-.52-.3-.7-.55-1.01.86-.89,1.44-1.83,2-3.33h-.7Zm-.24-4.31c.4,1.04.58,1.62.77,2.58l-.86.36c-.2-1.1-.41-1.8-.75-2.55l.85-.38Zm4.03.34c-.32,1.16-.49,1.61-.96,2.61l-.74-.38c.43-.9.6-1.44.84-2.6l.86.37Zm3.56.3c0-.65-.02-.98-.07-1.33h1.24c-.06.4-.07.71-.07,1.33v5.33c.54-.13.82-.2,1.13-.32l.2,1.15c-.31.04-.68.1-1.15.2l-.18.05v1.86c0,.62.02,1,.07,1.37h-1.24c.06-.37.07-.67.07-1.38v-1.59l-2.79.65c-.5.11-.86.22-1.13.3l-.24-1.16c.3-.01.71-.07,1.16-.18l3-.68v-5.58Zm-2.93,2.49c.97.67,1.5,1.12,2.12,1.79l-.68.82c-.79-.86-1.26-1.27-2.13-1.86l.7-.74Zm.38-3c1.02.73,1.43,1.08,2.11,1.82l-.67.83c-.82-.89-1.07-1.12-2.15-1.88l.71-.77Z" fill="#231815"/>
      <path d="m180.98,488.66c-.14.31-.18.41-.29.67-.24.65-.3.79-.84,1.96v6.61c0,.55.02,1.04.08,1.46h-1.24c.06-.47.08-.89.08-1.48v-3.66c0-.37,0-.59.04-1.42-.46.67-.75,1.04-1.28,1.58-.19-.49-.28-.65-.59-1.1.96-.86,1.76-2.02,2.39-3.43.26-.61.43-1.13.5-1.58l1.14.38Zm1.9,2.5c-.5,1.02-1.15,2-1.96,2.91-.26-.44-.35-.53-.74-.91.92-.96,1.54-1.88,2.05-3.14.3-.7.48-1.31.53-1.71l1.15.35c-.11.25-.14.35-.24.62-.18.5-.24.66-.35.91h3.48c.56,0,.86-.02,1.22-.07v1.1c-.34-.04-.7-.06-1.21-.06h-2.51v1.69h2.15c.48,0,.78-.01,1.14-.07v1.1c-.38-.05-.71-.07-1.14-.07h-2.15v1.7h2.17c.49,0,.79-.01,1.14-.07v1.12c-.36-.05-.7-.07-1.14-.07h-2.17v1.57c0,.66.02,1.03.08,1.37h-1.24c.05-.31.07-.68.07-1.37v-6.9h-.35Z" fill="#231815"/>
      <path d="m199.3,492.5q-.08.17-.23.52c-.62,1.51-1.06,2.31-1.69,3.15.32.6.58.95.9,1.27.2.19.47.37.55.37.16,0,.31-.61.46-1.68.31.32.58.53.9.68-.28,1.57-.66,2.22-1.28,2.22-.34,0-.82-.29-1.33-.79-.32-.31-.61-.68-.92-1.21-.95.97-1.86,1.63-3.07,2.22-.3-.44-.42-.58-.78-.86,1.34-.55,2.42-1.28,3.37-2.33-.55-1.33-.82-2.63-.96-4.86h-3.92q0,.74-.02,1.73h2.24c.43,0,.64-.01.86-.05q-.02.25-.08,1.43c-.17,3.02-.32,3.32-1.73,3.32-.37,0-.61-.01-1.07-.07-.05-.47-.08-.64-.24-1.07.65.11.92.13,1.27.13.37,0,.48-.08.55-.48.1-.46.14-1.19.17-2.24h-2.01c-.07,1.4-.18,2.29-.37,3.13-.22.91-.44,1.45-.96,2.24-.34-.44-.5-.6-.88-.83.46-.67.71-1.26.86-1.97.23-1.07.33-2.6.33-4.76,0-.84-.01-1.13-.06-1.56.43.04.89.06,1.5.06h3.5q-.04-1.48-.08-1.8h1.21c-.05.25-.07.71-.07,1.16,0,.14,0,.26.02.64h1.99c-.41-.49-.71-.76-1.38-1.26l.74-.52c.62.44.91.7,1.43,1.24l-.71.54h.41c.65,0,.97-.01,1.27-.07v1.12c-.38-.04-.79-.06-1.4-.06h-2.32c.05,1.31.29,2.78.65,3.89.64-.98,1.14-2.16,1.28-3.01l1.09.42Z" fill="#231815"/>
      <path d="m209.62,495.66c.62,0,.86-.01,1.24-.06v1.07c-.37-.05-.68-.06-1.26-.06h-2.49v1.34h3.42c.76,0,1.12-.02,1.5-.07v1.12c-.43-.05-.89-.07-1.62-.07h-7.52c-.72,0-1.16.02-1.6.07v-1.12c.4.06.76.07,1.5.07h3.23v-1.34h-2.29c-.6,0-.91.01-1.28.06v-1.07c.37.05.59.06,1.3.06h2.28v-.1c0-.35-.02-.62-.06-.9h1.21c-.04.26-.06.54-.06.9v.1h2.52Zm-3.65-6.54c0-.29-.02-.54-.07-.79h1.25c-.05.24-.07.49-.07.79v.23h3.12c.78,0,1.14-.01,1.56-.05-.04.28-.05.44-.05.9v.64c0,.37.01.65.06.92h-1.1v-1.45h-8.04v1.47h-1.09q.01-.14.02-.33c.01-.14.02-.41.02-.67v-.62c0-.35-.01-.56-.05-.85.41.04.79.05,1.49.05h2.95v-.23Zm-1.54,3.09c-.78,0-1.1.01-1.43.06v-1.03c.36.04.62.05,1.33.05h4.58c.73,0,1.02-.01,1.35-.05v1.03c-.35-.05-.61-.06-1.33-.06h-2.96c-.35.67-.46.84-.82,1.35q2.57-.11,3.5-.18c-.31-.3-.43-.4-.8-.68l.8-.49c.94.73,1.26,1.02,2.41,2.15l-.82.68c-.4-.46-.54-.61-.78-.86-2.16.17-4.46.3-6.87.38-.16.01-.23.01-.41.05l-.13-1.03c.31.04.41.04.85.04.34,0,.48,0,1.09-.02.33-.47.56-.86.82-1.38h-.4Z" fill="#231815"/>
    </g>
    <g>
      <path d="m139.51,126.6c-1.25,2.59-2.69,4.83-4.35,6.69-1.22-1.31-1.31-1.38-2.37-2.08,2.46-2.56,4.35-5.86,5.57-9.57.42-1.34.61-2.08.67-2.98l3.17.8q-.38,1.06-.61,1.82c-.16.48-.48,1.38-.96,2.66h5.76v-2.82c0-1.5-.06-2.5-.22-3.65h3.49c-.13,1.06-.19,2.08-.19,3.65v2.82h7.14c1.57,0,2.78-.06,4.06-.19v3.04c-1.34-.13-2.53-.19-4-.19h-7.2v6.27h5.89c1.6,0,2.72-.06,3.74-.19v3.04c-.99-.13-2.24-.19-3.71-.19h-5.92v7.39h8.19c1.7,0,2.94-.06,4.16-.22v3.14c-1.44-.16-2.43-.22-4.1-.22h-19.97c-1.63,0-2.85.06-4.26.22v-3.14c1.28.16,2.53.22,4.16.22h8.74v-7.39h-5.28c-1.5,0-2.72.06-3.68.19v-3.04c.96.13,1.98.19,3.65.19h5.31v-6.27h-6.88Z" fill="#231815"/>
      <path d="m167.89,120.52c0-1.31-.06-2.18-.22-3.1h3.3c-.13.83-.19,1.57-.19,3.01v4.96h.35c1.18,0,1.73-.03,2.3-.13v2.94c-.7-.1-1.22-.13-2.27-.13h-.38v14.98c0,1.63.06,2.59.19,3.74h-3.3c.16-1.06.22-2.18.22-3.81v-14.91h-.45c-1.22,0-1.98.06-2.78.16v-3.01c.8.13,1.44.16,2.78.16h.45v-4.86Zm11.74,12c1.31,0,1.98-.03,2.82-.13-.06.64-.06.99-.1,1.92-.03,2.53-.32,6.43-.61,8.19-.38,2.11-.86,2.98-1.82,3.3-.51.19-1.47.29-2.43.29-.29,0-.58,0-1.22-.03-.06-1.15-.16-1.76-.51-2.85.83.16,1.57.26,2.3.26.67,0,.9-.19,1.06-.86.38-1.63.61-4.13.7-7.52h-2.27c-.35,2.66-.7,4.22-1.28,5.92-.8,2.3-1.57,3.68-3.17,5.54-.8-1.18-1.02-1.44-1.92-2.37,1.12-1.12,1.76-2.02,2.37-3.39.8-1.73,1.22-3.36,1.54-5.7h-1.09c-.86,0-1.18.03-1.7.1v-2.78c.54.1.86.13,1.89.13h1.09c.03-.38.03-.83.03-1.54,0-.45-.03-.77-.1-1.22l2.85.06c-.1.48-.13.86-.16,1.86,0,.19-.03.35-.06.83h1.79Zm9.73-12.32c1.15,0,1.95-.03,2.78-.13q-.06.64-.19,2.24c-.29,3.58-.61,4.96-1.34,5.76-.67.7-1.47.9-3.58.9-1.02,0-1.63-.03-3.04-.13-.13-1.12-.29-1.73-.67-2.72,1.15.22,2.66.35,3.87.35,1.38,0,1.57-.42,1.79-3.78h-6.05c-.64,1.6-1.6,2.91-3.1,4.26-1.15,1.02-2.53,1.82-4.58,2.75-.48-.9-1.06-1.63-1.73-2.3,3.52-1.31,5.5-2.75,6.5-4.7h-2.78c-1.44,0-2.3.03-3.1.16v-2.82c.83.1,1.92.16,3.23.16h3.39c.19-.99.29-1.7.29-2.34,0-.19,0-.32-.06-.64l3.2.16c-.13.35-.16.58-.35,1.6,0,.06-.03.29-.13.61-.03.13-.06.35-.13.61h5.79Zm1.54,12.32c1.25,0,1.92-.03,2.78-.13-.06.74-.06.93-.1,1.98-.19,6.02-.64,9.41-1.38,10.53-.45.67-.83.9-1.86,1.09-.42.1-.99.13-1.76.13-.32,0-.67,0-1.44-.06-.06-1.22-.16-1.76-.54-2.85,1.02.19,1.76.29,2.46.29s.96-.16,1.09-.64c.42-1.57.64-4.16.74-7.78h-2.69c-.29,2.75-.83,4.9-1.82,7.23-.7,1.6-1.41,2.69-2.78,4.26-.64-.93-1.15-1.44-2.05-2.14,2.24-1.95,3.49-4.8,4.06-9.34h-.45c-.9,0-1.25.03-1.79.1v-2.78c.51.1.96.13,2.02.13h.45c.03-.74.03-.86.03-1.5,0-.58,0-.86-.06-1.28l2.85.03c-.1.51-.1.67-.16,1.89-.03.19-.03.42-.06.86h2.46Z" fill="#231815"/>
      <path d="m205.94,121.74c-.86-1.5-1.41-2.21-2.91-3.9l2.82-.9c1.98,2.5,2.14,2.69,3.29,4.8h4.42c1.38-1.57,2.18-2.78,3.14-4.77l3.01.9c-.99,1.5-2.05,2.88-2.94,3.87h5.6c1.54,0,2.46-.06,3.33-.19v2.91c-.96-.16-1.82-.19-3.33-.19h-21.79c-1.47,0-2.27.03-3.33.19v-2.91c1.12.16,1.73.19,3.33.19h5.38Zm-3.97,21.41c0,1.66.03,2.53.19,3.39h-3.14c.13-.99.16-1.95.16-3.55v-13.66c0-1.54-.03-2.08-.1-2.85,1.06.1,1.73.13,3.04.13h5.86c1.7,0,2.18-.03,2.88-.13-.06.74-.1,1.5-.1,3.26v13.69c0,2.21-.67,2.82-3.14,2.82-.67,0-1.25-.03-2.4-.1-.19-1.28-.29-1.57-.67-2.62,1.09.16,1.82.26,2.4.26.9,0,1.06-.13,1.06-.77v-3.36h-6.05v3.49Zm6.05-11.29v-2.72h-6.05v2.72h6.05Zm0,5.28v-2.75h-6.05v2.75h6.05Zm9.18-10.18c-.13.83-.16,1.41-.16,3.04v6.69c0,2.18.03,2.69.13,3.52h-3.07c.1-.93.13-1.44.13-3.49v-6.75c0-1.54-.03-2.05-.16-3.01h3.14Zm6.75-.9c-.13.83-.19,1.79-.19,3.42v13.6c0,2.62-.77,3.3-3.9,3.3-.83,0-1.86-.03-3.58-.16-.16-1.09-.35-1.76-.83-2.88,1.76.26,3.01.38,4,.38,1.28,0,1.47-.13,1.47-.99v-13.34c0-1.86-.03-2.4-.16-3.33h3.2Z" fill="#231815"/>
      <path d="m242.93,119.53c0-.86-.03-1.28-.16-1.92h3.3c-.13.58-.16,1.06-.16,1.95v1.66h8.25c1.76,0,2.72-.06,3.62-.19v3.14c-.93-.13-1.76-.16-3.62-.16h-19.36c0,12.25-.9,17.34-3.97,22.56-1.25-1.47-1.31-1.54-2.37-2.4,2.53-4.22,3.33-8.64,3.33-18.78,0-2.24-.03-3.26-.13-4.32,1.06.13,1.95.16,3.3.16h7.97v-1.7Zm-8.86,22.85c.38.03.58.03.86.03.35,0,1.34-.03,2.4-.1,1.18-2.37,2.59-5.89,3.68-9.15.54-1.6,1.34-4.42,1.73-5.98.19-.83.26-1.15.32-1.92l3.42.83q-.35,1.12-1.41,4.58c-1.02,3.46-2.91,8.22-4.48,11.46,4.77-.38,8.32-.83,11.46-1.44-1.44-2.43-2.69-4.26-4.45-6.56l2.5-1.44c3.17,4.22,5.79,8.54,7.52,12.32l-2.66,1.76c-.67-1.7-.9-2.24-1.6-3.65-4.93.99-8.86,1.5-15.78,2.18-2.27.19-2.4.22-2.94.32l-.58-3.23Z" fill="#231815"/>
      <path d="m273.88,136.59c-1.25,1.22-2.4,2.08-4.06,3.04-.32-.54-.48-.77-1.15-1.5-1.06.54-4.1,1.89-5.34,2.37-.86.35-1.66.7-1.86.8l-.61-3.17c1.25-.22,1.7-.35,3.74-1.09v-9.02h-1.12c-.96,0-1.76.06-2.56.16v-2.91c.8.13,1.54.16,2.62.16h1.06v-4.16c0-1.57-.06-2.56-.19-3.52h3.17c-.16,1.02-.19,1.92-.19,3.55v4.13h.64c1.15,0,1.82-.03,2.43-.13v2.85c-.9-.1-1.54-.13-2.4-.13h-.67v7.94c.93-.42,1.28-.58,2.27-1.09l-.03,1.98c2.05-1.28,3.52-2.66,4.45-4.26h-1.22c-1.34,0-2.27.06-2.94.16v-2.72c.7.13,1.5.16,2.98.16h13.86c1.54,0,2.5-.06,3.26-.19v2.72c-.8-.1-1.86-.13-3.26-.13h-9.76c-.38.67-.58.93-1.15,1.73h10.37c1.54,0,2.24-.03,3.14-.13-.1.51-.1.61-.16,1.92-.26,4.32-.77,7.55-1.44,8.77-.64,1.18-1.57,1.57-3.94,1.57-.86,0-1.79-.03-2.82-.1-.13-1.15-.35-1.82-.9-2.85,1.57.22,2.75.32,3.78.32.9,0,1.38-.19,1.57-.58.42-.93.8-3.49.99-6.66h-1.57c-.83,1.89-1.86,3.55-3.07,4.96-.99,1.12-2.72,2.69-4.03,3.65-.8.58-1.41.96-2.72,1.7-.7-.99-.96-1.28-1.98-2.05,2.72-1.31,4.03-2.18,5.76-3.74,1.34-1.25,2.46-2.75,3.3-4.51h-2.43c-1.92,3.04-4.74,5.38-8.83,7.39-.48-.8-.9-1.31-1.76-2.05,3.55-1.47,6.18-3.3,7.68-5.34h-2.88Zm.93-8.06c-1.25,0-2.21.03-2.91.13.06-.86.13-1.76.13-3.01v-4.45c0-1.41-.03-1.92-.13-2.88.96.13,1.73.16,3.17.16h8.96c1.54,0,2.46-.03,3.39-.16-.13.9-.13,1.5-.13,3.07v4.26c0,1.41.03,2.34.13,2.98-.7-.06-1.63-.1-2.91-.1h-9.7Zm-.03-6.02h9.73v-1.73h-9.73v1.73Zm0,3.87h9.73v-1.79h-9.73v1.79Z" fill="#231815"/>
    </g>
    <g>
      <path d="m8.43,421.61h27.04v28.19h-2.21v-1.5H10.54v1.5h-2.11v-28.19Zm2.11,24.61h22.72v-22.53H10.54v22.53Zm3.78-13.21c2.4.96,5.02,2.18,7.52,3.52,2.82-2.94,5.15-6.43,6.78-10.4l2.5.83c-.1.22-.35.35-.77.32-1.7,3.87-3.97,7.3-6.69,10.24,2.88,1.63,5.47,3.39,7.2,4.93l-1.31,1.7c-1.73-1.6-4.35-3.46-7.33-5.18-2.56,2.43-5.5,4.48-8.77,6.08-.29-.45-.9-1.25-1.31-1.63,3.04-1.41,5.79-3.26,8.26-5.47-2.4-1.31-4.9-2.53-7.23-3.49l1.15-1.44Zm.29-6.88c1.34,1.76,2.69,4.06,3.14,5.66l-1.76.8c-.42-1.57-1.73-3.97-3.01-5.73l1.63-.74Zm6.34-1.02c1.18,1.92,2.24,4.48,2.53,6.11l-1.82.67c-.29-1.63-1.31-4.22-2.43-6.17l1.73-.61Z" fill="#231815"/>
      <path d="m22.86,468.58h13.57v1.63H7.47v-1.63h13.25v-2.08h-11.01v-1.5h11.01v-1.95h-10.02v-1.47h10.02v-2.08H7.57v-1.63h13.15v-2.02h-9.66v-1.5h9.66v-2.34l2.78.19c-.03.22-.19.35-.64.42v1.73h9.25v3.52h4.16v1.63h-4.16v3.55h-9.25v1.95h11.26v1.5h-11.26v2.08Zm-11.17,13.31v-10.05h20.73v9.98h-2.14v-1.06H13.78v1.12h-2.08Zm18.59-8.48H13.78v2.11h16.51v-2.11Zm-16.51,5.79h16.51v-2.21H13.78v2.21Zm9.09-23.36v2.02h7.1v-2.02h-7.1Zm0,3.65v2.08h7.1v-2.08h-7.1Z" fill="#231815"/>
      <path d="m29.2,487.82h7.04v5.09h-1.98v-3.26h-11.97v3.26h-1.92v-2.78l-1.41,1.25c-.96-1.34-2.88-3.29-4.7-4.9-1.12,1.95-2.66,4.16-4.54,6.21h3.68v-3.17l2.46.16c-.03.22-.19.35-.61.42v2.59h3.9v10.43h-7.78v6.08c1.5-.32,3.14-.7,4.74-1.09-.74-1.06-1.57-2.05-2.37-2.94l1.63-.9c2.11,2.21,4.32,5.22,5.18,7.26l-1.73,1.02c-.35-.83-.93-1.82-1.6-2.88-3.33.9-6.75,1.79-8.93,2.34-.03.26-.19.42-.38.48l-.96-2.34c.7-.13,1.54-.32,2.43-.51v-16.61c-.32.35-.64.67-.99.99-.38-.48-1.06-1.09-1.54-1.34,2.94-2.62,5.15-6.05,6.4-8.64l2.56.38c-.06.22-.26.38-.61.42,1.86,1.54,4.03,3.58,5.15,5.06v-2.08h6.75v-3.74l2.72.19c-.03.22-.22.38-.64.42v3.14Zm-12.03,6.56h-5.79v2.62h5.79v-2.62Zm-5.79,7.04h5.79v-2.75h-5.79v2.75Zm13.02-.61v2.78h10.72v9.98h-2.02v-1.34h-8.7v1.54h-1.98v-21.02h11.46v8.06h-9.47Zm7.46-6.24h-7.46v4.42h7.46v-4.42Zm1.25,10.88h-8.7v4.9h8.7v-4.9Z" fill="#231815"/>
    </g>
    <g>
      <path d="m569.57,133.35c-.07.09-.18.14-.34.14-.05,0-.11,0-.18-.02-1.39,1.4-3.38,3.04-5.13,4.3.14.05.36.16.43.2-.04.11-.2.22-.4.23v9.67h-1.31v-9.25c-1.91,1.35-4.39,2.81-6.86,4.02-.18-.29-.5-.74-.76-.99,4.92-2.27,10.3-6.12,13.2-9.31l1.35,1.01Z" fill="#231815"/>
      <path d="m574.43,133.66c1.87.59,4.03,1.53,5.37,2.45l-.68,1.13c-1.3-.92-3.42-1.87-5.26-2.5l.58-1.08Zm-.07,12.48c6.39-1.98,10.64-5.56,12.8-10.55.38.31.79.54,1.17.74-2.25,4.93-6.64,8.77-12.75,10.8-.02.16-.13.34-.25.41l-.97-1.4Z" fill="#231815"/>
      <path d="m605.5,134.5c-.05.09-.13.16-.23.2-1.42,6.82-4.95,10.88-10.84,12.95-.2-.31-.59-.79-.83-1.04,5.58-1.82,9-5.83,10.08-11.29h-11.78v-1.21h12.24l.25-.16,1.1.56Z" fill="#231815"/>
      <path d="m622.49,139.6h-4.29l.07,6.68c0,1.57-1.33,1.6-3.37,1.57-.04-.25-.13-.67-.25-.97.92.02,1.71,0,1.98-.04.34-.04.54-.29.56-.58l-.05-5.73c-1.4,2.05-3.8,4.05-6.05,5.31-.18-.27-.47-.61-.72-.81,2.3-1.17,4.79-3.33,6.18-5.44h-5.58v-1.04h6.16l-.04-3.21,1.44.07c-.02.14-.16.25-.36.27l.02,2.86h4.3v1.04Z" fill="#231815"/>
      <path d="m630.45,136.03c1.69.74,3.47,1.64,5.11,2.59,1.15-1.73,2.34-4,3.24-6.28l1.76.72c-.07.16-.32.25-.65.22-.83,1.91-2,4.18-3.21,6.01,1.39.86,2.83,1.84,3.92,2.77l-.86,1.13c-.99-.86-2.34-1.85-3.83-2.81-1.85,2.65-4.55,5.33-7.62,7.36-.22-.27-.72-.7-1.03-.9,3.01-1.94,5.76-4.63,7.54-7.11-1.64-.97-3.39-1.89-5.08-2.65l.68-1.06Z" fill="#231815"/>
      <path d="m645.03,139.09h15.03v1.28h-14.35c-.11.18-.34.31-.58.34l-.11-1.62Z" fill="#231815"/>
      <path d="m663.75,137.37c1.62.36,3.64,1.04,4.84,1.62l-.54,1.13c-1.19-.58-3.26-1.3-4.84-1.66l.54-1.1Zm1.08,8.8c5.85-1.96,9.85-5.08,12.24-10.48.27.23.83.61,1.1.79-2.41,5.35-6.61,8.68-12.12,10.64.04.16-.05.38-.22.45l-1.01-1.4Zm.9-13.27c1.62.43,3.6,1.15,4.83,1.76l-.59,1.1c-1.28-.65-3.15-1.37-4.77-1.82l.54-1.04Z" fill="#231815"/>
      <path d="m692.98,136.9v10.95h-1.08v-.79h-8.08v-1.01h8.08v-3.66h-7.36v-1.01h7.36v-3.49h-7.63v-.99h8.71Z" fill="#231815"/>
      <path d="m700.43,133.66c1.87.59,4.03,1.53,5.37,2.45l-.68,1.13c-1.3-.92-3.42-1.87-5.26-2.5l.58-1.08Zm-.07,12.48c6.39-1.98,10.64-5.56,12.8-10.55.38.31.79.54,1.17.74-2.25,4.93-6.64,8.77-12.75,10.8-.02.16-.13.34-.25.41l-.97-1.4Z" fill="#231815"/>
      <path d="m563.24,173.62l.65,5.64-1.3.14-.61-5.62-6.75.88-.14-1.21,6.75-.86-.47-4.05-5.65.74-.16-1.21,5.69-.72-.41-3.6,1.76-.05c0,.16-.14.31-.41.38l.34,3.1,5.31-.68.14,1.22-5.31.68.45,4.03,6.79-.86.13,1.19-6.79.86Zm3.78-9.81c.83.7,1.78,1.8,2.3,2.63l-.72.5c-.49-.77-1.48-1.91-2.25-2.59l.67-.54Zm2.21-1.17c.83.7,1.84,1.8,2.36,2.59l-.74.52c-.49-.77-1.53-1.91-2.29-2.56l.67-.56Z" fill="#231815"/>
      <path d="m586.57,169.77c-.05.05-.13.11-.2.13-.72,1.85-1.94,3.66-3.24,4.99-.22-.2-.61-.45-.9-.61,1.04-.95,2.2-2.63,2.7-3.84l-5.04,1.12,1.66,7.69-1.06.23-1.66-7.69-4.11.94-.23-1.01,4.14-.92-.81-3.75,1.49-.14c0,.14-.09.25-.32.36l.68,3.28,5.92-1.28.13-.09.85.59Z" fill="#231815"/>
      <path d="m605.38,169.55c-.04.07-.13.14-.23.18-1.48,5.44-4.48,8.08-9.87,9.58-.16-.32-.5-.77-.76-1.04,4.9-1.22,7.94-3.75,9.07-7.92h-11.92v-1.22h12.46l.18-.11,1.06.54Zm-1.69-3.85h-10.26v-1.19h10.26v1.19Z" fill="#231815"/>
      <path d="m611.78,173.66v-8.75l1.71.11c-.02.16-.14.29-.43.32v8.32h-1.28Zm10.03-9.45c-.02.18-.14.27-.43.31v5.73c0,3.78-1.3,7.24-6.46,9.24-.18-.27-.63-.74-.94-.97,4.99-1.85,6.1-4.93,6.1-8.26v-6.14l1.73.11Z" fill="#231815"/>
      <path d="m627.03,170.59h15.03v1.28h-14.35c-.11.18-.34.31-.58.34l-.11-1.62Z" fill="#231815"/>
    </g>
    <g>
      <path d="m416.52,365.99c-.41-.06-.77-.08-1.46-.08h-3.66c-.67,0-.95.01-1.44.04.07-.47.1-.86.1-1.52v-6.45c0-.58-.02-.95-.1-1.47.43.02.77.04,1.44.04h3.54c.59,0,1.08-.02,1.46-.08v1.34c-.43-.06-.8-.08-1.46-.08h-3.55v2.72h3.01c.6,0,1-.02,1.47-.08v1.34c-.44-.06-.77-.08-1.47-.08h-3.02v3.12h3.68c.66,0,.98-.02,1.46-.08v1.36Z" fill="#231815"/>
      <path d="m421.37,363.78c.05.16.14.46.29.89.17-.59.18-.6.28-.89l2.09-6.01c.2-.59.29-.88.34-1.25h1.68c-.18.32-.3.62-.6,1.42l-2.57,6.79c-.2.54-.31.9-.37,1.18h-1.69c-.06-.25-.17-.6-.38-1.18l-2.58-6.79c-.26-.7-.44-1.12-.6-1.42h1.68c.07.38.18.82.34,1.25l2.11,6.01Z" fill="#231815"/>
    </g>
    <g>
      <path d="m411.91,275.06q-.1.18-.26.77c-.56,2.08-1.41,3.59-2.74,4.82-.99.94-1.96,1.53-3.5,2.17-.24-.5-.37-.67-.79-1.09.98-.3,1.62-.59,2.44-1.14,1.74-1.14,2.82-2.72,3.39-4.96h-5.25c-.74,0-1.05.01-1.46.07v-1.22c.44.07.75.08,1.49.08h5.05c.56,0,.7-.01.99-.1l.65.62Z" fill="#231815"/>
      <path d="m416.21,277.92c-.44,0-.66.01-.99.05v-1.02c.33.06.48.07.99.07h3.21v-.65c-.01-.45-.01-.59-.05-.91h1.08c-.02.22-.03.38-.03.71v.86h1.01c.51,0,.7-.01.99-.07v1.01c-.29-.03-.53-.04-.99-.04h-.99l.04,4.05c.01.51.03.79.08,1.08h-1.14c.03-.24.04-.55.04-.96v-.14l-.02-2.74c0-.11.01-.52.02-.64t-.08.14c-.19.37-.58.88-1.03,1.34-.79.81-1.71,1.47-2.93,2.13-.22-.4-.33-.53-.68-.86,1.67-.75,3.27-2.09,4.08-3.42h-2.61Z" fill="#231815"/>
      <path d="m425.13,277.58c.41.06.88.08,1.69.08h5.95c.95,0,1.21-.01,1.64-.07v1.28c-.48-.04-.84-.05-1.65-.05h-5.93c-.92,0-1.25.01-1.71.05v-1.29Z" fill="#231815"/>
      <path d="m441.02,273.7q-.09.12-.23.42c-.23.51-.31.68-.45.92.09-.01.24-.02.47-.03l2.62-.03c.41,0,.51-.02.7-.09l.62.59c-.11.14-.14.22-.25.6-.5,1.64-1.29,3.11-2.23,4.2-1.01,1.16-2.23,2.04-3.88,2.77-.25-.45-.37-.6-.77-.95,1.67-.68,2.77-1.44,3.81-2.63.81-.94,1.45-2.13,1.87-3.5l-3.48.06c-.74,1.13-1.57,2.04-2.58,2.82-.29-.39-.42-.51-.89-.79,1.22-.83,2.02-1.72,2.82-3.12.38-.67.56-1.12.62-1.52l1.25.28Z" fill="#231815"/>
      <path d="m448.85,274.33c.67,1.17.99,1.9,1.47,3.45l-1.19.44c-.31-1.24-.84-2.56-1.41-3.5l1.12-.4Zm6.89.26c-.1.25-.11.3-.29,1.07-.45,2-1.32,3.77-2.48,5.06-.85.95-1.77,1.64-3.07,2.29-.31-.5-.44-.65-.84-.98,1.27-.55,2.15-1.15,2.99-2.06,1.09-1.17,1.85-2.76,2.27-4.74.09-.42.12-.62.13-.95l1.28.31Z" fill="#231815"/>
      <path d="m458.68,281.26c.89-.03,2.22-.37,3.23-.83,1.38-.6,2.41-1.44,3.28-2.67.5-.73.81-1.32,1.16-2.22.36.45.51.58.96.9-.91,1.99-1.95,3.27-3.43,4.27-1.11.76-2.47,1.3-4.16,1.65-.42.09-.46.1-.69.18l-.34-1.28Zm.84-6.82c1.25.78,1.95,1.31,2.77,2.1l-.79.98c-.85-.9-1.74-1.62-2.74-2.2l.76-.88Z" fill="#231815"/>
      <path d="m473.59,273.73q-.09.12-.23.42c-.23.51-.31.68-.45.92.09-.01.24-.03.47-.03l2.19-.03c.41-.01.51-.02.7-.09l.92.98c-.11.14-.13.22-.25.6-.34,1.1-1.17,2.73-2.11,3.82-1.01,1.16-2.23,2.04-3.88,2.77-.25-.45-.37-.6-.77-.95,1.67-.68,2.77-1.44,3.81-2.63.81-.94,1.45-2.13,1.87-3.5l-3.48.05c-.74,1.13-1.57,2.04-2.58,2.82-.29-.38-.42-.51-.89-.79,1.22-.83,2.02-1.72,2.82-3.12.37-.67.56-1.12.62-1.52l1.25.27Zm3.25-.32c.52.58.76.94,1.14,1.65l-.68.37c-.36-.68-.67-1.14-1.14-1.68l.68-.34Zm1.29-.63c.53.58.76.91,1.13,1.61l-.67.39c-.34-.64-.65-1.1-1.12-1.65l.66-.34Z" fill="#231815"/>
      <path d="m480.82,274.56c-.4,0-.65.01-.93.05v-1c.3.04.6.07,1.02.07h1.88c.44,0,.69-.01,1-.07v.99c-.3-.03-.55-.04-.92-.04h-.62c-.14.95-.33,1.62-.71,2.54h1.35c.34,0,.46-.01.66-.03-.02.26-.02.41-.02.84v3.63c0,.43,0,.61.03.88h-.94v-.52h-1.11v1.12h-1c.04-.3.07-.63.07-1.1v-2.19c0-.4,0-.64.03-1.13-.2.43-.38.71-.75,1.15-.13-.55-.22-.77-.42-1.08.63-.65,1.04-1.4,1.44-2.53.2-.56.28-.91.37-1.58h-.44Zm.68,6.49h1.13v-3.11h-1.13v3.11Zm3.67-3.92v-2.6c-.47,0-.7.01-1.01.05v-1.01c.23.04.61.07,1.18.07h3.29c.5,0,.83-.02,1.16-.07v1.01c-.32-.04-.57-.05-1.09-.05h-.1v2.78h.2c.54,0,.79-.01,1.1-.06v1.05c-.32-.04-.58-.06-1.1-.06h-.2v3.74c0,.46.02.84.07,1.29h-1.12c.05-.47.08-.78.08-1.29v-3.74h-1.49c-.06,1.08-.14,1.72-.33,2.42-.3,1.12-.68,1.88-1.38,2.72-.26-.31-.5-.48-.88-.67.68-.75,1.08-1.49,1.35-2.51.14-.55.21-1.08.25-1.96h-.12c-.52,0-.76.01-1.09.06v-1.05c.31.04.55.06,1.09.06h.14v-.19Zm2.44.19v-2.78h-1.46v2.78h1.46Z" fill="#231815"/>
      <path d="m496.95,278.67c.57,0,.81-.01,1.2-.06-.03.3-.04.47-.04.99l-.04,2.2c-.01.3.1.35.7.35.78,0,.94-.04,1.01-.25.09-.24.14-.87.17-1.68.36.18.52.23.97.33-.18,2.45-.23,2.52-2.19,2.52-1.33,0-1.64-.18-1.64-.97v-.06l.03-2.46h-1.8c-.22.88-.53,1.45-1.09,2.04-.67.69-1.63,1.27-2.79,1.69-.19-.4-.3-.54-.63-.9,1.21-.4,2.1-.85,2.65-1.38.42-.39.69-.86.86-1.45h-1.61c-.59,0-.91.01-1.21.07v-1.04c.31.04.64.07,1.19.07h1.82c.03-.41.05-.57.05-.78s-.02-.41-.04-.62h1.11c-.04.23-.04.26-.09.83-.01.21-.02.35-.05.57h1.47Zm-1.77-4.65c0-.32-.02-.51-.07-.75h1.13c-.04.22-.05.41-.05.75v.29h3.15c.46,0,.75-.01,1.18-.06-.03.23-.04.44-.04.79v.69c0,.34.01.55.04.8h-.77c-.14,1.04-.32,1.13-2.15,1.13-1.14,0-1.44-.15-1.44-.73v-1.75h-1.09c-.13.65-.24.96-.51,1.34-.39.58-.87.94-1.68,1.23-.26.1-.48.17-1.06.33-.17-.31-.3-.51-.56-.85,1.25-.24,1.76-.43,2.2-.83.35-.32.53-.67.61-1.23h-2.04v1.33h-1.01c.03-.25.05-.46.05-.8v-.68c0-.34-.01-.55-.04-.79.42.04.69.06,1.17.06h2.98v-.29Zm4.32,1.18h-2.41v1.35c0,.26.08.29.88.29s.86-.07.88-.91c.25.11.35.14.65.2v-.92Z" fill="#231815"/>
      <path d="m504.06,276.7c-.65.44-1.11.7-1.85,1.03-.15-.37-.33-.65-.57-.92,2.05-.84,3.61-2.04,4.57-3.52h1.09c.55.79,1.01,1.27,1.85,1.88.96.7,1.91,1.23,2.92,1.6-.25.35-.42.68-.54,1.02-.71-.33-1.19-.58-1.97-1.1v.89c-.29-.03-.56-.04-.97-.04h-3.62c-.31,0-.64.01-.9.04v-.88Zm-.66,2.87c-.56,0-.92.02-1.28.07v-1.08c.35.04.75.07,1.28.07h6.82c.55,0,.94-.02,1.28-.07v1.08c-.36-.04-.73-.07-1.28-.07h-3.85c-.42.95-.77,1.61-1.24,2.33q2.57-.2,3.82-.34c-.46-.52-.68-.75-1.2-1.25l.85-.45c1.28,1.28,1.9,1.98,2.58,2.92l-.87.6c-.35-.54-.48-.71-.7-1.01-1.83.24-3.92.45-5.56.57-.89.07-1.32.11-1.6.17l-.17-1.12c.24.01.46.02.62.02.09,0,.25-.01.51-.02q.1,0,.54-.02c.54-.83.91-1.54,1.26-2.39h-1.82Zm5.18-2.98c.32,0,.54-.01.77-.02-1.18-.8-1.87-1.44-2.57-2.39-.65.89-1.38,1.57-2.52,2.39.24.02.38.02.71.02h3.61Z" fill="#231815"/>
    </g>
    <g>
      <path d="m151.56,181.09c.36.06.64.08,1.21.08h1.04c.57,0,.77-.01,1.22-.06-.08.79-.1,1.4-.1,2.16v6.46c0,.66.03,1.09.1,1.61h-1.68c.08-.49.1-.96.1-1.61v-7.31h-.65c-.44,0-.81.03-1.25.08v-1.4Z" fill="#231815"/>
      <path d="m160.53,181.09c.36.06.64.08,1.21.08h1.04c.57,0,.77-.01,1.22-.06-.08.79-.1,1.4-.1,2.16v6.46c0,.66.03,1.09.1,1.61h-1.68c.08-.49.1-.96.1-1.61v-7.31h-.65c-.44,0-.81.03-1.25.08v-1.4Z" fill="#231815"/>
      <path d="m169.97,185.7h-1.65v-1.65h1.65v1.65Zm-1.65,5.63v-1.65h1.65v1.65h-1.65Z" fill="#231815"/>
      <path d="m172.71,190.52c-.38-.38-.65-.81-.82-1.26-.34-.92-.51-1.94-.51-3,0-1.36.31-2.79.77-3.56.68-1.12,1.78-1.73,3.16-1.73,1.05,0,1.94.34,2.6,1,.38.38.66.81.82,1.26.34.91.51,1.95.51,3.02,0,1.59-.35,2.99-.94,3.81-.7.98-1.72,1.47-3,1.47-1.05,0-1.92-.34-2.59-1Zm1.07-7.64c-.27.3-.46.64-.56.98-.23.73-.35,1.56-.35,2.43,0,1.14.25,2.35.58,2.92.42.7,1.04,1.05,1.86,1.05.61,0,1.14-.21,1.5-.57.27-.29.48-.65.6-1.05.23-.75.35-1.53.35-2.41,0-1.05-.22-2.25-.53-2.85-.4-.78-1.03-1.17-1.92-1.17-.65,0-1.13.21-1.52.66Z" fill="#231815"/>
      <path d="m181.68,190.52c-.38-.38-.65-.81-.82-1.26-.34-.92-.51-1.94-.51-3,0-1.36.31-2.79.77-3.56.68-1.12,1.78-1.73,3.16-1.73,1.05,0,1.94.34,2.6,1,.38.38.66.81.82,1.26.34.91.51,1.95.51,3.02,0,1.59-.35,2.99-.94,3.81-.7.98-1.72,1.47-3,1.47-1.05,0-1.92-.34-2.59-1Zm1.07-7.64c-.27.3-.46.64-.56.98-.23.73-.35,1.56-.35,2.43,0,1.14.25,2.35.58,2.92.42.7,1.04,1.05,1.86,1.05.61,0,1.14-.21,1.5-.57.27-.29.48-.65.6-1.05.23-.75.35-1.53.35-2.41,0-1.05-.22-2.25-.53-2.85-.4-.78-1.03-1.17-1.92-1.17-.65,0-1.13.21-1.52.66Z" fill="#231815"/>
      <path d="m189.35,186.32c.51-.57.77-.79,1.37-1.14.71-.4,1.24-.56,1.94-.56.58,0,1.12.12,1.65.38q.35.17,1.2.74c1.01.68,1.73.96,2.43.96.36,0,.79-.13,1.22-.38.47-.27.71-.51,1.14-1.05l.88.84c-.53.65-.81.91-1.21,1.21-.65.47-1.36.7-2.16.7-.4,0-.83-.06-1.2-.19-.53-.18-.83-.35-1.78-.99-1.11-.73-1.53-.91-2.29-.91-.87,0-1.46.3-2.33,1.2l-.87-.81Z" fill="#231815"/>
      <path d="m219.68,188.73c0,.64,0,.9.04,1.21h-1.13v-.73h-1.62v1.33h-1.2c.05-.48.08-.92.08-1.51v-6.23c0-.49-.01-.88-.05-1.26.26.03.46.04.95.04h2.05c.49,0,.62,0,.91-.04-.03.33-.03.46-.03,1.26v2.02c.66-.86,1.11-1.7,1.47-2.82.25-.78.36-1.27.38-1.65l1.3.21c-.12.29-.14.36-.25.71-.09.3-.1.33-.3.9h3.28c.55,0,.77-.01.99-.05l.6.71c-.05.09-.16.36-.34.83-.38.96-.88,1.92-1.5,2.8-.35-.29-.57-.42-1.05-.6.7-.88,1.05-1.51,1.47-2.63h-3.81c-.43,1.01-.81,1.66-1.53,2.61-.22-.25-.35-.36-.7-.6v3.48Zm-2.72-.55h1.62v-5.55h-1.62v5.55Zm6.57-4.15c-.04.21-.05.4-.05.9,0,.79.2,1.78.49,2.51.77,1.82,1.87,2.95,3.6,3.68-.25.3-.42.6-.65,1.2-.91-.48-1.61-1.03-2.28-1.77-.75-.83-1.26-1.78-1.66-3.04-.38,1.42-.86,2.34-1.68,3.21-.6.64-1.38,1.22-2.2,1.66-.26-.46-.46-.7-.78-1,1.07-.47,1.87-1.05,2.5-1.85.44-.56.84-1.33,1.13-2.15.26-.77.38-1.57.38-2.55,0-.35-.03-.6-.05-.81h1.25Z" fill="#231815"/>
      <path d="m232.64,187.65c-.4,0-.66.01-1,.06v-.77c-.81.85-1.59,1.47-2.56,2.07-.22-.4-.43-.64-.86-.98,1.29-.66,2.09-1.26,2.92-2.16h-1.25c-.61,0-1.09.03-1.51.08v-1.12c.39.06.73.08,1.5.08h2.01c.22-.33.34-.53.52-.88h-1.6c-.78,0-1.01.01-1.34.05v-1.03c.34.04.57.05,1.34.05h2.02c.13-.34.18-.47.27-.79h-2.76c-.65,0-.99.01-1.4.06v-1.12c.38.05.79.08,1.48.08h2.94c.09-.42.12-.73.12-1.08l1.29.08c-.01.06-.09.4-.22,1h3.65c.71,0,1.12-.03,1.5-.08v1.12c-.43-.05-.75-.06-1.42-.06h-3.99c-.12.4-.16.52-.26.79h3.74c.81,0,1.03-.01,1.38-.05v1.03c-.34-.04-.56-.05-1.38-.05h-1.76c.2.39.3.57.51.88h2.17c.74,0,1.09-.01,1.47-.08v1.12c-.42-.05-.88-.08-1.48-.08h-1.4c.4.42.88.79,1.51,1.2.43.29.75.44,1.64.84-.36.36-.55.61-.79,1.04-1.05-.6-1.9-1.22-2.65-1.96v.71c-.33-.05-.53-.06-1-.06h-1.21c-.04.53-.05.64-.1.9h2.57c.57,0,.83-.01,1.17-.06v1.05c-.39-.04-.61-.05-1.17-.05h-2.16c.96.94,2.26,1.39,4.75,1.64-.29.4-.44.69-.62,1.16-1.51-.27-2.28-.49-3.13-.91-.81-.4-1.4-.85-1.95-1.48-.48.71-1.13,1.23-2.11,1.69-.66.3-1.5.53-2.59.73-.14-.4-.35-.78-.6-1.09,1.16-.12,1.96-.31,2.69-.62.81-.35,1.27-.68,1.57-1.11h-1.74c-.53,0-.75.01-1.1.05v-1.04c.31.04.53.05,1.09.05h2.13c.05-.29.07-.42.09-.9h-.92Zm-.09-1.77c-.26.34-.42.52-.69.83.21.01.44.03.78.03h3.34c.35,0,.52,0,.72-.03-.31-.32-.44-.48-.72-.83h-3.43Zm1.11-1.85c-.17.36-.29.59-.46.88h2.14c-.18-.34-.22-.4-.44-.88h-1.25Z" fill="#231815"/>
      <path d="m248.58,188.65c1.1,1.04,2.68,1.79,4.73,2.29-.29.36-.48.66-.69,1.11-1.17-.36-1.83-.64-2.64-1.12-.96-.56-1.62-1.12-2.25-1.86q.01.18.03.46c.03.48.03.49.03.6v.79c0,.65.01.95.09,1.35h-1.34c.06-.4.09-.77.09-1.35v-.78c0-.14.03-.68.05-1.04-1.23,1.38-2.44,2.15-4.68,2.94-.22-.44-.39-.68-.74-1.05,1.99-.53,3.46-1.29,4.52-2.33h-2.65c-.69,0-1.13.03-1.51.08v-1.2c.35.05.82.08,1.51.08h3.48c0-.35-.01-.56-.05-.78h1.29c-.04.25-.05.39-.05.78h3.6c.75,0,1.17-.03,1.52-.08v1.2c-.39-.05-.82-.08-1.53-.08h-2.81Zm-3.91-3.44c-.75.51-1.43.88-2.34,1.34-.22.1-.25.12-.52.27l-.46-1.1c.83-.23,1.85-.74,3.03-1.51l.29,1Zm-2.2-4.11c.74.58,1.24,1.07,1.95,1.86l-.79.82c-.66-.81-1.22-1.37-1.95-1.91l.79-.77Zm3.85.55c.22-.51.34-.85.44-1.35l1.21.17c-.3.73-.31.75-.51,1.18h1.17c.49,0,.62,0,.98-.04-.04.32-.04.44-.04,1.04v2.91c0,.57.01.79.04,1.07-.27-.03-.59-.04-.95-.04h-2.77c-.38,0-.71.01-.99.04.03-.31.04-.55.04-1.05v-2.94c0-.57,0-.61-.04-1.03.33.04.49.04,1.01.04h.4Zm-.32,1.98h2.52v-1.03h-2.52v1.03Zm0,2.02h2.52v-1.09h-2.52v1.09Zm4.37-1.39c1.29.64,2,1.04,2.87,1.6l-.65.94c-.96-.7-1.77-1.18-2.82-1.7l.6-.83Zm2.52-2.42c-.9.96-1.5,1.52-2.24,2.08l-.74-.79c.97-.74,1.44-1.21,2.09-2.05l.88.77Z" fill="#231815"/>
      <path d="m254.78,192.28c.05-.39.08-.82.08-1.65v-8.19c0-.64-.03-1.08-.08-1.57.48.05.86.06,1.52.06h7.97c.66,0,1.04-.01,1.53-.06-.06.53-.08.88-.08,1.57v8.22c0,.81.03,1.25.08,1.62h-1.25v-.74h-8.53v.74h-1.25Zm1.25-1.79h8.53v-8.5h-8.53v8.5Zm5.37-7.19c0-.47-.01-.7-.06-.98h1.25c-.05.26-.07.48-.07.98v.62h.48c.47,0,.86-.03,1.09-.06v1.13c-.27-.04-.66-.06-1.12-.06h-.46v3.95c0,.91-.34,1.17-1.56,1.17-.39,0-.6-.01-1.31-.06-.05-.53-.09-.69-.27-1.12.68.1,1.17.16,1.61.16.33,0,.42-.08.42-.34v-3.76h-3.52c-.55,0-.86.01-1.21.06v-1.13c.31.05.58.06,1.21.06h3.52v-.62Zm-2.2,5.06c-.56-1.14-.9-1.66-1.62-2.5l.91-.6c.79.92,1.08,1.34,1.72,2.44l-1,.65Z" fill="#231815"/>
      <path d="m151.56,203.84c.36.06.64.08,1.21.08h1.04c.57,0,.77-.01,1.22-.06-.08.79-.1,1.4-.1,2.16v6.46c0,.66.03,1.09.1,1.61h-1.68c.08-.49.1-.96.1-1.61v-7.31h-.65c-.44,0-.81.03-1.25.08v-1.4Z" fill="#231815"/>
      <path d="m160.6,211.43c.17.6.32.84.69,1.12.44.33.98.49,1.62.49,1.37,0,2.25-.7,2.25-1.81,0-1.17-.84-1.81-2.39-1.81-.49,0-.85.01-1.26.06v-1.38c.31.05.72.08,1.04.08.66,0,1.26-.13,1.59-.35.48-.31.73-.79.73-1.38,0-1-.69-1.53-1.96-1.53-.71,0-1.24.22-1.57.65-.18.23-.26.42-.38.85l-1.55-.29c.22-.73.43-1.09.84-1.5.64-.62,1.57-.95,2.74-.95,2.05,0,3.38,1.05,3.38,2.68,0,.79-.34,1.5-.91,1.91-.31.23-.59.34-1.24.49.9.12,1.39.34,1.85.83.43.47.62,1.03.62,1.79,0,.7-.29,1.4-.77,1.87-.68.66-1.72,1.01-3.02,1.01-1.43,0-2.46-.38-3.16-1.16-.31-.35-.47-.68-.7-1.38l1.55-.32Z" fill="#231815"/>
      <path d="m169.97,208.45h-1.65v-1.65h1.65v1.65Zm-1.65,5.63v-1.65h1.65v1.65h-1.65Z" fill="#231815"/>
      <path d="m172.71,213.27c-.38-.38-.65-.81-.82-1.26-.34-.92-.51-1.94-.51-3,0-1.36.31-2.79.77-3.56.68-1.12,1.78-1.73,3.16-1.73,1.05,0,1.94.34,2.6,1,.38.38.66.81.82,1.26.34.91.51,1.95.51,3.02,0,1.59-.35,2.99-.94,3.81-.7.98-1.72,1.47-3,1.47-1.05,0-1.92-.34-2.59-1Zm1.07-7.64c-.27.3-.46.64-.56.98-.23.73-.35,1.56-.35,2.43,0,1.14.25,2.35.58,2.92.42.7,1.04,1.05,1.86,1.05.61,0,1.14-.21,1.5-.57.27-.29.48-.65.6-1.05.23-.75.35-1.53.35-2.41,0-1.05-.22-2.25-.53-2.85-.4-.78-1.03-1.17-1.92-1.17-.65,0-1.13.21-1.52.66Z" fill="#231815"/>
      <path d="m181.68,213.27c-.38-.38-.65-.81-.82-1.26-.34-.92-.51-1.94-.51-3,0-1.36.31-2.79.77-3.56.68-1.12,1.78-1.73,3.16-1.73,1.05,0,1.94.34,2.6,1,.38.38.66.81.82,1.26.34.91.51,1.95.51,3.02,0,1.59-.35,2.99-.94,3.81-.7.98-1.72,1.47-3,1.47-1.05,0-1.92-.34-2.59-1Zm1.07-7.64c-.27.3-.46.64-.56.98-.23.73-.35,1.56-.35,2.43,0,1.14.25,2.35.58,2.92.42.7,1.04,1.05,1.86,1.05.61,0,1.14-.21,1.5-.57.27-.29.48-.65.6-1.05.23-.75.35-1.53.35-2.41,0-1.05-.22-2.25-.53-2.85-.4-.78-1.03-1.17-1.92-1.17-.65,0-1.13.21-1.52.66Z" fill="#231815"/>
      <path d="m189.35,209.07c.51-.57.77-.79,1.37-1.14.71-.4,1.24-.56,1.94-.56.58,0,1.12.12,1.65.38q.35.17,1.2.74c1.01.68,1.73.96,2.43.96.36,0,.79-.13,1.22-.38.47-.27.71-.51,1.14-1.05l.88.84c-.53.65-.81.91-1.21,1.21-.65.47-1.36.7-2.16.7-.4,0-.83-.06-1.2-.19-.53-.18-.83-.35-1.78-.99-1.11-.73-1.53-.91-2.29-.91-.87,0-1.46.3-2.33,1.2l-.87-.81Z" fill="#231815"/>
      <path d="m218.8,213.76c0,.56.03.95.08,1.29h-1.2c.05-.35.08-.75.08-1.33v-.75h-1.07c-.57,0-.82.01-1.21.08v-1.12c.36.05.61.06,1.21.06h1.07v-.94h-.6c-.55,0-.9.01-1.31.04.04-.4.05-.84.05-1.43v-2c0-.6-.01-.95-.05-1.38.34.04.68.05,1.31.05h.6v-.96h-1c-.56,0-.85.01-1.22.07v-1.11c.38.07.62.08,1.22.08h1c0-.68-.03-.92-.08-1.29h1.2c-.05.31-.08.65-.08,1.29h.69c.58,0,.83-.01,1.21-.08v1.09c-.39-.04-.62-.05-1.21-.05h-.69v.96h.7c.61,0,.88-.01,1.23-.04-.04.34-.05.61-.05,1.31v.83c.99-.36,1.77-.77,2.51-1.3-.65-.65-1.16-1.4-1.57-2.33-.33,0-.47.01-.68.04v-1.16c.34.05.7.08,1.26.08h3c.43,0,.71-.01.92-.07l.66.7c-.12.17-.2.29-.34.51-.78,1.24-1.01,1.55-1.73,2.24.77.55,1.66.95,2.73,1.22-.31.4-.48.68-.62,1.04-1.3-.51-2.04-.91-2.87-1.57-.86.68-1.59,1.09-2.67,1.57-.18-.38-.36-.64-.61-.88v1.16c0,.62.01,1.07.05,1.4-.4-.04-.61-.04-1.26-.04h-.68v.94h1.14c.56,0,.75-.01,1.08-.05v1.1c-.38-.06-.62-.08-1.12-.08h-1.1v.79Zm-1.96-6.53v.98h.96v-.98h-.96Zm0,1.82v1.1h.96v-1.1h-.96Zm2.92-.84v-.98h-.97v.98h.97Zm0,1.95v-1.1h-.97v1.1h.97Zm5.94.33c.58,0,.82-.01,1.14-.06v1.17c-.35-.05-.64-.06-1.16-.06h-1.31v2.02h1.6c.57,0,.94-.03,1.29-.08v1.21c-.36-.05-.74-.08-1.29-.08h-4.26c-.55,0-.92.03-1.29.08v-1.2c.35.05.66.06,1.24.06h1.62v-2.02h-.92c-.53,0-.86.01-1.2.06v-1.17c.33.05.62.06,1.22.06h.9v-.43c0-.62-.01-.95-.07-1.29h1.22c-.05.32-.07.65-.07,1.29v.43h1.33Zm-2.98-5.68c.31.65.71,1.22,1.22,1.72.61-.57.94-1,1.31-1.72h-2.54Z" fill="#231815"/>
      <path d="m233.54,203.9c0-.29-.03-.55-.08-.85h1.37c-.05.29-.08.53-.08.83v.34h3.07c.7,0,1.16-.03,1.53-.08v1.18c-.4-.04-.78-.05-1.36-.05h-.62c-.38.88-.62,1.39-.86,1.81h2.11c.77,0,1.16-.01,1.51-.06v1.18c-.35-.05-.75-.06-1.52-.06h-8.63c-.77,0-1.14.01-1.51.06v-1.18c.38.05.78.06,1.55.06h1.79c-.17-.6-.42-1.2-.75-1.81h-.6c-.58,0-.9.01-1.31.05v-1.18c.36.05.79.08,1.46.08h2.95v-.32Zm3.69,5.1c.48,0,.72-.01,1.21-.05-.04.4-.05.69-.05,1.1v3.77c0,.51.03.84.08,1.22h-1.25v-.6h-5.92v.6h-1.25c.05-.4.08-.75.08-1.22v-3.77c0-.38-.01-.7-.05-1.1.46.04.74.05,1.21.05h5.94Zm-5.93,2.15h5.92v-1.1h-5.92v1.1Zm0,2.27h5.92v-1.26h-5.92v1.26Zm3.99-6.33c.33-.55.57-1.12.82-1.81h-3.8c.26.53.53,1.21.73,1.81h2.25Z" fill="#231815"/>
      <path d="m247.91,213.85c0,.94-.3,1.13-1.72,1.13-.31,0-.97-.03-1.43-.05-.12-.58-.18-.78-.36-1.16.66.09,1.22.13,1.65.13.58,0,.68-.04.68-.31v-2.2h-3.68c-.65,0-1.12.03-1.5.08v-1.21c.4.05.9.08,1.48.08h3.69v-.14c0-.26-.01-.51-.04-.74h.56c.71-.35,1.23-.7,1.87-1.22h-4.08c-.49,0-.91.03-1.27.06v-1.12c.38.05.78.06,1.3.06h4.46c.48,0,.74-.01.98-.05l.62.68c-.18.17-.31.26-.35.3-1,.86-1.75,1.38-2.86,1.99v.18h3.59c.6,0,1.13-.03,1.51-.08v1.21c-.38-.05-.87-.08-1.52-.08h-3.57v2.46Zm-3.97-8.66c-.34-.61-.53-.9-1.08-1.55l1.11-.34c.48.6.77,1.04,1.24,1.89h1.59c-.2-.57-.47-1.12-.86-1.73l1.14-.31c.49.91.65,1.27.92,2.04h1.23c.56-.7.83-1.16,1.17-2l1.17.38c-.34.6-.75,1.21-1.08,1.62h.75c.83,0,1.08-.01,1.56-.05-.04.33-.05.6-.05,1.08v1.1c0,.34.03.65.07.96h-1.2v-2.09h-8.75v2.09h-1.2c.04-.29.06-.6.06-.96v-1.1c0-.48-.01-.75-.05-1.08.56.05.73.05,1.52.05h.73Z" fill="#231815"/>
      <path d="m259.92,208c.57,0,.9-.01,1.16-.06v1.21c-.29-.05-.62-.07-1.11-.07h-4.36c-.61,0-.94.01-1.27.07v-1.21c.33.05.65.06,1.29.06h2.65c.4-.86.59-1.42.79-2.31l1.12.31c-.23.77-.43,1.24-.82,2h.55Zm-.18-3.52c.57,0,.88-.01,1.2-.06v1.18c-.27-.05-.57-.06-1.13-.06h-4.06c-.51,0-.82.01-1.1.06v-1.18c.31.05.61.06,1.22.06h1.43v-.42c0-.38-.03-.69-.08-.94h1.33c-.05.26-.08.55-.08.94v.42h1.27Zm-3.44,10.52h-1.18c.04-.33.05-.64.05-1.2v-2.76c0-.56-.01-.81-.04-1.08.29.03.53.04,1.03.04h3.26c.51,0,.75-.01.94-.04-.04.27-.04.4-.04,1.01v3.03c0,.44.01.69.05.98h-1.2v-.75h-2.87v.77Zm.22-9.35c.34.65.49,1.05.75,1.95l-1.07.34c-.21-.85-.34-1.22-.7-1.94l1.01-.35Zm-.22,7.54h2.89v-2.15h-2.89v2.15Zm9.96-8.97c-.09.18-.13.27-.25.56-.4,1.03-.92,2.11-1.48,3.15.75.83,1.05,1.26,1.34,1.94.23.58.36,1.22.36,1.81,0,.71-.25,1.23-.68,1.5-.29.17-.7.25-1.38.25-.33,0-.49,0-.86-.04-.01-.53-.06-.81-.25-1.18.42.06.73.09,1.11.09.68,0,.91-.18.91-.7,0-.57-.14-1.14-.42-1.72-.31-.62-.62-1.03-1.43-1.77.79-1.43,1.16-2.25,1.55-3.5h-2.12v9.01c0,.7.03,1.1.09,1.5h-1.31c.05-.4.08-.88.08-1.47v-9.02c0-.38-.01-.73-.05-1.12.33.03.62.04,1.05.04h2.2c.49,0,.77-.01,1.01-.05l.52.74Z" fill="#231815"/>
      <path d="m151.56,226.59c.36.06.64.08,1.21.08h1.04c.57,0,.77-.01,1.22-.06-.08.79-.1,1.4-.1,2.16v6.46c0,.66.03,1.09.1,1.61h-1.68c.08-.49.1-.96.1-1.61v-7.31h-.65c-.44,0-.81.03-1.25.08v-1.4Z" fill="#231815"/>
      <path d="m158.82,233.07q.31-.34.96-1.12l3.16-3.9c.52-.64.73-.92,1.03-1.39h1.46c-.08.75-.09,1.2-.09,2.2v4.26h.48c.53,0,.84-.03,1.33-.09v1.43c-.49-.07-.79-.09-1.33-.09h-.48v1c0,.65.03.99.1,1.46h-1.59c.09-.44.12-.85.12-1.47v-.99h-3.55c-.75,0-1.13.01-1.6.05v-1.35Zm5.15-2.86c0-.65.01-1.07.06-1.64-.26.38-.46.62-.9,1.2l-2.7,3.37h3.54v-2.93Z" fill="#231815"/>
      <path d="m169.97,231.2h-1.65v-1.65h1.65v1.65Zm-1.65,5.63v-1.65h1.65v1.65h-1.65Z" fill="#231815"/>
      <path d="m172.94,234.18c.17.6.32.84.69,1.12.44.32.98.49,1.62.49,1.37,0,2.25-.7,2.25-1.81,0-1.17-.84-1.81-2.39-1.81-.49,0-.84.01-1.26.06v-1.38c.31.05.71.08,1.04.08.66,0,1.26-.13,1.59-.35.48-.31.73-.79.73-1.38,0-1-.69-1.53-1.96-1.53-.71,0-1.24.22-1.57.65-.18.23-.26.42-.38.85l-1.55-.29c.22-.73.43-1.09.84-1.5.64-.62,1.57-.95,2.74-.95,2.05,0,3.38,1.05,3.38,2.68,0,.79-.34,1.5-.91,1.91-.31.23-.58.34-1.23.49.9.12,1.39.34,1.85.83.43.47.62,1.03.62,1.79,0,.7-.29,1.4-.77,1.87-.68.66-1.72,1.01-3.02,1.01-1.43,0-2.46-.38-3.16-1.16-.31-.35-.47-.68-.7-1.38l1.55-.33Z" fill="#231815"/>
      <path d="m181.68,236.02c-.38-.38-.65-.81-.82-1.26-.34-.92-.51-1.94-.51-3,0-1.36.31-2.79.77-3.56.68-1.12,1.78-1.73,3.16-1.73,1.05,0,1.94.34,2.6,1,.38.38.66.81.82,1.26.34.91.51,1.95.51,3.02,0,1.59-.35,2.99-.94,3.81-.7.97-1.72,1.47-3,1.47-1.05,0-1.92-.34-2.59-1Zm1.07-7.64c-.27.3-.46.64-.56.98-.23.73-.35,1.56-.35,2.43,0,1.14.25,2.35.58,2.93.42.7,1.04,1.05,1.86,1.05.61,0,1.14-.21,1.5-.57.27-.29.48-.65.6-1.05.23-.75.35-1.53.35-2.41,0-1.05-.22-2.25-.53-2.85-.4-.78-1.03-1.17-1.92-1.17-.65,0-1.13.21-1.52.66Z" fill="#231815"/>
      <path d="m189.35,231.82c.51-.57.77-.79,1.37-1.14.71-.4,1.24-.56,1.94-.56.58,0,1.12.12,1.65.38q.35.17,1.2.74c1.01.68,1.73.96,2.43.96.36,0,.79-.13,1.22-.38.47-.27.71-.51,1.14-1.05l.88.84c-.53.65-.81.91-1.21,1.21-.65.47-1.36.7-2.16.7-.4,0-.83-.06-1.2-.19-.53-.18-.83-.35-1.78-.99-1.11-.73-1.53-.91-2.29-.91-.87,0-1.46.3-2.33,1.2l-.87-.81Z" fill="#231815"/>
      <path d="m226.16,228.04q-.12.21-.31.91c-.66,2.46-1.66,4.24-3.24,5.69-1.17,1.11-2.31,1.81-4.13,2.56-.29-.58-.44-.79-.94-1.29,1.16-.35,1.91-.7,2.89-1.35,2.05-1.35,3.33-3.21,4-5.86h-6.2c-.87,0-1.24.01-1.73.08v-1.44c.52.08.88.09,1.75.09h5.97c.66,0,.83-.01,1.17-.12l.77.73Z" fill="#231815"/>
      <path d="m231.24,231.42c-.52,0-.78.01-1.17.06v-1.21c.39.06.57.08,1.17.08h3.8v-.77c-.01-.53-.01-.7-.07-1.08h1.27c-.03.26-.04.46-.04.85v1.01h1.2c.6,0,.83-.01,1.17-.08v1.2c-.34-.04-.62-.05-1.17-.05h-1.17l.05,4.78c.01.6.04.94.09,1.27h-1.35c.04-.29.05-.65.05-1.13v-.17l-.03-3.24c0-.13.01-.61.03-.75q-.03.05-.09.17c-.22.44-.69,1.04-1.22,1.59-.94.96-2.01,1.74-3.46,2.52-.26-.47-.39-.62-.81-1.01,1.98-.88,3.86-2.47,4.82-4.04h-3.08Z" fill="#231815"/>
      <path d="m241.78,231.02c.48.06,1.04.09,2,.09h7.03c1.12,0,1.43-.01,1.94-.08v1.51c-.57-.05-.99-.06-1.95-.06h-7.01c-1.09,0-1.48.01-2.02.06v-1.52Z" fill="#231815"/>
      <path d="m260.55,226.43q-.1.14-.27.49c-.27.6-.36.81-.53,1.09.1-.01.29-.03.56-.04l3.09-.04c.48,0,.6-.03.83-.1l.73.7c-.13.17-.17.26-.3.72-.58,1.94-1.52,3.68-2.64,4.97-1.2,1.37-2.64,2.41-4.59,3.28-.3-.53-.44-.72-.91-1.12,1.98-.81,3.28-1.7,4.5-3.11.96-1.1,1.72-2.52,2.21-4.13l-4.11.06c-.87,1.34-1.86,2.41-3.06,3.33-.34-.46-.49-.6-1.05-.94,1.44-.98,2.39-2.03,3.33-3.69.44-.79.66-1.33.73-1.79l1.48.32Z" fill="#231815"/>
      <path d="m269.81,227.18c.79,1.38,1.17,2.25,1.74,4.08l-1.4.52c-.36-1.47-.99-3.03-1.66-4.13l1.33-.47Zm8.14.31c-.12.3-.13.35-.34,1.26-.53,2.37-1.56,4.46-2.93,5.98-1,1.12-2.09,1.94-3.63,2.7-.36-.58-.52-.77-.99-1.16,1.5-.65,2.54-1.36,3.54-2.43,1.29-1.38,2.18-3.26,2.68-5.6.1-.49.14-.73.16-1.12l1.51.36Z" fill="#231815"/>
      <path d="m281.43,235.37c1.05-.04,2.63-.44,3.82-.98,1.62-.71,2.85-1.7,3.87-3.16.58-.86.96-1.56,1.37-2.63.43.53.6.69,1.13,1.07-1.08,2.35-2.3,3.86-4.06,5.04-1.31.9-2.92,1.53-4.91,1.95-.49.1-.55.12-.82.21l-.4-1.51Zm.99-8.06c1.48.92,2.3,1.55,3.28,2.48l-.94,1.16c-1-1.07-2.05-1.91-3.24-2.6l.9-1.04Z" fill="#231815"/>
      <path d="m299.05,226.47q-.1.14-.27.49c-.27.6-.36.81-.53,1.09.1-.01.29-.04.56-.04l2.59-.04c.48-.01.6-.03.83-.1l1.09,1.16c-.13.17-.16.26-.3.71-.4,1.3-1.38,3.22-2.5,4.51-1.2,1.36-2.64,2.41-4.59,3.28-.3-.53-.44-.71-.91-1.12,1.98-.81,3.28-1.7,4.5-3.11.96-1.1,1.72-2.52,2.21-4.13l-4.11.06c-.87,1.34-1.86,2.41-3.06,3.33-.34-.46-.49-.6-1.05-.94,1.44-.98,2.39-2.03,3.33-3.69.44-.79.66-1.33.73-1.79l1.48.33Zm3.83-.38c.61.69.9,1.1,1.35,1.95l-.81.44c-.43-.81-.79-1.35-1.35-1.99l.81-.4Zm1.52-.74c.62.69.9,1.08,1.34,1.9l-.79.46c-.4-.75-.77-1.3-1.33-1.95l.78-.4Z" fill="#231815"/>
      <path d="m307.6,227.46c-.47,0-.77.01-1.11.07v-1.18c.35.05.72.08,1.21.08h2.22c.52,0,.82-.01,1.18-.08v1.17c-.35-.04-.65-.05-1.09-.05h-.73c-.17,1.12-.39,1.91-.85,3h1.6c.4,0,.55-.01.78-.04-.03.31-.03.48-.03.99v4.29c0,.51,0,.72.04,1.04h-1.11v-.61h-1.31v1.33h-1.18c.05-.35.08-.74.08-1.3v-2.59c0-.47,0-.75.04-1.34-.23.51-.46.84-.88,1.37-.16-.65-.26-.91-.49-1.27.74-.77,1.24-1.65,1.7-2.99.23-.66.33-1.08.44-1.87h-.52Zm.81,7.67h1.34v-3.68h-1.34v3.68Zm4.34-4.63v-3.07c-.56,0-.83.01-1.2.06v-1.2c.27.05.71.08,1.39.08h3.89c.58,0,.97-.03,1.37-.08v1.2c-.38-.05-.68-.06-1.29-.06h-.12v3.29h.23c.64,0,.94-.01,1.3-.06v1.24c-.38-.05-.69-.07-1.3-.07h-.23v4.42c0,.55.03.99.08,1.52h-1.33c.07-.56.09-.92.09-1.52v-4.42h-1.75c-.07,1.27-.17,2.03-.39,2.86-.35,1.33-.81,2.22-1.62,3.21-.31-.36-.58-.57-1.04-.79.81-.88,1.27-1.75,1.6-2.96.17-.65.25-1.27.3-2.31h-.14c-.61,0-.9.01-1.29.07v-1.24c.36.05.65.06,1.29.06h.17v-.22Zm2.89.22v-3.29h-1.73v3.29h1.73Z" fill="#231815"/>
      <path d="m326.66,232.31c.68,0,.96-.01,1.42-.07-.04.35-.05.56-.05,1.17l-.05,2.6c-.01.35.12.42.83.42.92,0,1.11-.05,1.2-.3.1-.29.17-1.03.2-1.99.43.21.61.27,1.14.39-.21,2.9-.27,2.98-2.59,2.98-1.57,0-1.94-.21-1.94-1.14v-.06l.04-2.91h-2.13c-.26,1.04-.62,1.72-1.29,2.41-.79.82-1.92,1.49-3.3,2-.22-.47-.35-.64-.74-1.07,1.43-.47,2.48-1,3.13-1.62.49-.46.82-1.01,1.01-1.72h-1.9c-.7,0-1.08.01-1.43.08v-1.24c.36.05.75.08,1.4.08h2.15c.04-.48.07-.68.07-.92s-.03-.48-.05-.73h1.31c-.05.27-.05.31-.1.98-.01.25-.03.42-.06.68h1.74Zm-2.09-5.5c0-.38-.03-.6-.08-.88h1.34c-.05.26-.07.48-.07.88v.34h3.72c.55,0,.88-.01,1.39-.07-.04.27-.05.52-.05.94v.82c0,.4.01.65.05.95h-.91c-.17,1.24-.38,1.34-2.54,1.34-1.35,0-1.7-.18-1.7-.86v-2.07h-1.29c-.16.77-.29,1.13-.6,1.59-.46.69-1.03,1.11-1.99,1.46-.31.12-.57.2-1.25.39-.2-.36-.35-.6-.66-1,1.48-.29,2.08-.51,2.6-.98.42-.38.62-.79.71-1.46h-2.41v1.57h-1.2c.04-.3.07-.55.07-.95v-.81c0-.4-.01-.65-.05-.94.49.05.82.07,1.38.07h3.52v-.34Zm5.11,1.39h-2.85v1.6c0,.31.09.34,1.04.34s1.01-.08,1.04-1.08c.3.13.42.17.77.23v-1.09Z" fill="#231815"/>
      <path d="m335.06,229.98c-.77.52-1.31.83-2.18,1.22-.18-.44-.39-.77-.68-1.09,2.42-.99,4.26-2.41,5.4-4.16h1.29c.65.94,1.2,1.5,2.18,2.22,1.13.83,2.26,1.46,3.45,1.89-.3.42-.49.81-.64,1.21-.84-.39-1.4-.69-2.33-1.3v1.05c-.34-.04-.66-.05-1.14-.05h-4.28c-.36,0-.75.01-1.07.05v-1.04Zm-.78,3.39c-.66,0-1.09.03-1.51.08v-1.27c.42.05.88.08,1.51.08h8.06c.65,0,1.11-.03,1.51-.08v1.27c-.43-.05-.86-.08-1.51-.08h-4.55c-.49,1.12-.91,1.9-1.47,2.76q3.04-.23,4.51-.4c-.55-.61-.81-.88-1.42-1.48l1-.53c1.51,1.51,2.25,2.34,3.05,3.44l-1.03.72c-.42-.64-.57-.85-.83-1.2-2.16.29-4.63.53-6.57.68-1.05.08-1.56.13-1.89.2l-.19-1.33c.29.01.55.03.73.03.1,0,.3-.01.6-.03q.12,0,.64-.03c.64-.97,1.08-1.82,1.5-2.82h-2.15Zm6.12-3.52c.38,0,.64-.01.91-.03-1.39-.95-2.21-1.7-3.04-2.82-.77,1.05-1.62,1.86-2.98,2.82.29.03.46.03.84.03h4.26Z" fill="#231815"/>
    </g>
  </g>
</svg>