<?xml version="1.0" encoding="UTF-8"?>
<svg xmlns="http://www.w3.org/2000/svg" width="764.99" height="567.02" viewBox="0 0 764.99 567.02">
  <g id="base">
    <polyline id="base-2" data-name="base" points="1 .52 764.99 .52 764.99 567.02 1 567.02" fill="#dcdddd"/>
  </g>
  <g id="unavailable">
    <polygon points="764.99 .52 764.99 44.24 512.1 44.24 500.72 57.2 479.42 119.15 1.13 117.46 1 .52 764.99 .52" fill="#c9caca"/>
    <rect x="207.68" y="472.37" width="38.15" height="50.88" fill="#929292" stroke="#283331" stroke-miterlimit="10" stroke-width=".92"/>
    <rect x="283.98" y="472.37" width="38.15" height="50.88" fill="#929292" stroke="#283331" stroke-miterlimit="10" stroke-width=".92"/>
    <polyline points="684.76 104.35 546.04 104.35 546.04 320.18 451.5 320.18 451.5 350.04 463.35 350.04 463.35 376.74 386.37 376.74 386.37 425.98 1.13 425.98 1.13 471.82 585.02 471.82 585.02 155.66 684.76 155.66" fill="#c9caca" stroke="#231815" stroke-miterlimit="10"/>
    <rect x="245.83" y="472.37" width="38.15" height="50.88" fill="#929292" stroke="#283331" stroke-miterlimit="10" stroke-width=".92"/>
  </g>
  <g id="MLOC-avilable">
    <polyline id="seikyo_space_1F" points="153.88 104.11 153.88 426.25 386.37 426.25 386.37 377.01 463.41 377.01 463.35 350.31 451.5 350.31 451.5 320.45 546.04 320.24 546.04 104.62 473.08 104.62" fill="#d6d2e8" stroke="#231815" stroke-miterlimit="10" stroke-width="2"/>
    <rect id="shop" x="585.02" y="155.66" width="99.74" height="270.32" fill="#f7b656" stroke="#231815" stroke-miterlimit="10" stroke-width="1.57"/>
    <polyline id="cafeteria" points="73.26 425.98 1 425.98 1 102.89 153.88 102.89 153.88 425.98 109.13 425.98" fill="#f7b96f" stroke="#231815" stroke-miterlimit="10" stroke-width="2"/>
  </g>
  <g id="stairs">
    <g id="stair_to_park">
      <polygon points="545.44 104.11 569.37 155.42 471.81 155.42 471.81 104.11 545.44 104.11" fill="#ebebec" stroke="#231815" stroke-miterlimit="10" stroke-width="1.15"/>
      <line x1="559.08" y1="133.55" x2="559.08" y2="155.42" fill="none" stroke="#231815" stroke-miterlimit="10" stroke-width="1.15"/>
      <line x1="564.17" y1="144.48" x2="564.17" y2="155.42" fill="none" stroke="#231815" stroke-miterlimit="10" stroke-width="1.15"/>
      <line x1="554" y1="155.42" x2="554" y2="123.66" fill="none" stroke="#231815" stroke-miterlimit="10" stroke-width="1.15"/>
      <line x1="548.63" y1="155.42" x2="548.63" y2="110.94" fill="none" stroke="#231815" stroke-miterlimit="10" stroke-width="1.15"/>
      <line x1="538.46" y1="155.42" x2="538.46" y2="104.11" fill="none" stroke="#231815" stroke-miterlimit="10" stroke-width="1.15"/>
      <line x1="532.97" y1="104.11" x2="532.97" y2="155.42" fill="none" stroke="#231815" stroke-miterlimit="10" stroke-width="1.15"/>
      <line x1="527.8" y1="155.42" x2="527.8" y2="104.11" fill="none" stroke="#231815" stroke-miterlimit="10" stroke-width="1.15"/>
      <line x1="492.29" y1="104.11" x2="492.29" y2="155.42" fill="none" stroke="#231815" stroke-miterlimit="10" stroke-width="1.15"/>
      <line x1="487.15" y1="155.42" x2="487.15" y2="104.11" fill="none" stroke="#231815" stroke-miterlimit="10" stroke-width="1.15"/>
      <line x1="482.01" y1="104.11" x2="482.01" y2="155.42" fill="none" stroke="#231815" stroke-miterlimit="10" stroke-width="1.15"/>
      <line x1="512.84" y1="104.11" x2="512.84" y2="155.42" fill="none" stroke="#231815" stroke-miterlimit="10" stroke-width="1.15"/>
      <line x1="507.7" y1="155.42" x2="507.7" y2="104.11" fill="none" stroke="#231815" stroke-miterlimit="10" stroke-width="1.15"/>
      <line x1="502.57" y1="104.11" x2="502.57" y2="155.42" fill="none" stroke="#231815" stroke-miterlimit="10" stroke-width="1.15"/>
      <line x1="497.43" y1="155.42" x2="497.43" y2="104.11" fill="none" stroke="#231815" stroke-miterlimit="10" stroke-width="1.15"/>
      <line x1="478.05" y1="104.11" x2="478.05" y2="155.42" fill="none" stroke="#231815" stroke-miterlimit="10" stroke-width="1.15"/>
    </g>
    <g id="stair_to_back_lib">
      <polygon points="22.78 70.99 1 60.96 1 101.84 22.78 101.84 22.78 70.99" fill="#fff" stroke="#231815" stroke-miterlimit="10" stroke-width=".83"/>
      <line x1="10.28" y1="65.27" x2="1" y2="65.27" fill="none" stroke="#231815" stroke-miterlimit="10" stroke-width=".62"/>
      <line x1="1" y1="67.4" x2="14.48" y2="67.4" fill="none" stroke="#231815" stroke-miterlimit="10" stroke-width=".62"/>
      <line x1="22.78" y1="71.74" x2="1" y2="71.74" fill="none" stroke="#231815" stroke-miterlimit="10" stroke-width=".62"/>
      <line x1="1" y1="69.65" x2="19.88" y2="69.65" fill="none" stroke="#231815" stroke-miterlimit="10" stroke-width=".62"/>
      <line x1="1" y1="73.91" x2="22.78" y2="73.91" fill="none" stroke="#231815" stroke-miterlimit="10" stroke-width=".62"/>
      <line x1="22.78" y1="76.21" x2="1" y2="76.21" fill="none" stroke="#231815" stroke-miterlimit="10" stroke-width=".62"/>
      <line x1="1" y1="78.38" x2="22.78" y2="78.38" fill="none" stroke="#231815" stroke-miterlimit="10" stroke-width=".62"/>
      <line x1="22.78" y1="93.26" x2="1" y2="93.26" fill="none" stroke="#231815" stroke-miterlimit="10" stroke-width=".62"/>
      <line x1="1" y1="95.41" x2="22.78" y2="95.41" fill="none" stroke="#231815" stroke-miterlimit="10" stroke-width=".62"/>
      <line x1="22.78" y1="97.56" x2="1" y2="97.56" fill="none" stroke="#231815" stroke-miterlimit="10" stroke-width=".62"/>
      <line x1="1" y1="99.72" x2="22.78" y2="99.72" fill="none" stroke="#231815" stroke-miterlimit="10" stroke-width=".62"/>
      <line x1="22.78" y1="84.65" x2="1" y2="84.65" fill="none" stroke="#231815" stroke-miterlimit="10" stroke-width=".62"/>
      <line x1="1" y1="86.8" x2="22.78" y2="86.8" fill="none" stroke="#231815" stroke-miterlimit="10" stroke-width=".62"/>
      <line x1="22.78" y1="88.95" x2="1" y2="88.95" fill="none" stroke="#231815" stroke-miterlimit="10" stroke-width=".62"/>
      <line x1="1" y1="91.11" x2="22.78" y2="91.11" fill="none" stroke="#231815" stroke-miterlimit="10" stroke-width=".62"/>
    </g>
    <g>
      <polyline points="391.17 471.93 372.23 471.93 372.23 534.94 391.17 534.94 391.17 471.93" fill="#f19899" stroke="#283331" stroke-miterlimit="10"/>
      <polyline id="toilet" points="373.08 471.83 354.71 471.83 354.71 534.94 373.08 534.94 373.08 471.83" fill="#54c3f1" stroke="#283331" stroke-miterlimit="10"/>
      <g id="toilet_mark">
        <path d="m381.01,507.01c2.35,0,4.26-1.87,4.26-4.19s-1.91-4.19-4.26-4.19-4.26,1.87-4.26,4.19c0,2.31,1.91,4.19,4.26,4.19Z" fill="#fff"/>
        <path d="m365.14,507.01c2.35,0,4.26-1.87,4.26-4.19s-1.91-4.19-4.26-4.19-4.26,1.87-4.26,4.19,1.91,4.19,4.26,4.19Z" fill="#fff"/>
        <path d="m387.48,523.24l-5.85-13.51c-.11-.24-.35-.4-.62-.4s-.51.16-.62.4l-5.85,13.51c-.35.81-.27,1.75.23,2.49.5.74,1.34,1.18,2.24,1.18h3.99s3.99,0,3.99,0c.9,0,1.74-.44,2.24-1.18.5-.74.58-1.67.23-2.49Z" fill="#fff"/>
        <path d="m369.14,509.33h-3.99s-3.99,0-3.99,0c-.9,0-1.74.44-2.24,1.18-.5.74-.58,1.67-.23,2.49l5.85,13.51c.11.24.35.4.62.4s.51-.16.62-.4l5.85-13.51c.35-.81.27-1.75-.23-2.49-.5-.74-1.34-1.18-2.24-1.18Z" fill="#fff"/>
      </g>
    </g>
    <g id="stair_tocafe">
      <rect x="1.13" y="471.82" width="51.41" height="66.53" fill="#fff" stroke="#231815" stroke-miterlimit="10" stroke-width="1.23"/>
      <polygon points="20.31 486.86 20.31 515.28 33.84 515.28 33.84 486.86 27.75 486.86 20.31 486.86" fill="#fff" stroke="#231815" stroke-miterlimit="10" stroke-width="1.23"/>
      <line x1="20.58" y1="488.56" x2="1.13" y2="507.05" fill="none" stroke="#231815" stroke-miterlimit="10" stroke-width="1.23"/>
      <line x1="20.31" y1="496.62" x2="12.35" y2="496.62" fill="none" stroke="#231815" stroke-miterlimit="10" stroke-width="1.23"/>
      <line x1="20.31" y1="513.95" x2="1.13" y2="513.95" fill="none" stroke="#231815" stroke-miterlimit="10" stroke-width="1.23"/>
      <line x1="21.91" y1="538.35" x2="21.91" y2="515.28" fill="none" stroke="#231815" stroke-miterlimit="10" stroke-width="1.23"/>
      <line x1="27.07" y1="538.35" x2="27.07" y2="515.28" fill="none" stroke="#231815" stroke-miterlimit="10" stroke-width="1.23"/>
      <line x1="31.88" y1="538.35" x2="31.88" y2="515.28" fill="none" stroke="#231815" stroke-miterlimit="10" stroke-width="1.23"/>
      <line x1="52.82" y1="513.95" x2="33.84" y2="513.95" fill="none" stroke="#231815" stroke-miterlimit="10" stroke-width="1.23"/>
      <line x1="52.54" y1="506.99" x2="33.81" y2="506.99" fill="none" stroke="#231815" stroke-miterlimit="10" stroke-width="1.23"/>
      <line x1="52.54" y1="499.9" x2="33.84" y2="499.9" fill="none" stroke="#231815" stroke-miterlimit="10" stroke-width="1.23"/>
      <line x1="52.52" y1="493.08" x2="33.83" y2="493.08" fill="none" stroke="#231815" stroke-miterlimit="10" stroke-width="1.23"/>
      <line x1="20.31" y1="508.75" x2="1.13" y2="508.75" fill="none" stroke="#231815" stroke-miterlimit="10" stroke-width="1.23"/>
      <line x1="20.31" y1="503.39" x2="5.09" y2="503.39" fill="none" stroke="#231815" stroke-miterlimit="10" stroke-width="1.23"/>
      <line x1="20.58" y1="486.86" x2="1.13" y2="486.86" fill="none" stroke="#231815" stroke-miterlimit="10" stroke-width="1.23"/>
    </g>
    <rect x="438.51" y="350.04" width="24.85" height="26.52" fill="#f7f8f8" stroke="#231815" stroke-miterlimit="10" stroke-width="2"/>
    <path d="m680.54,139.78l-9.22-5.36v4.02h-34.59v2.68s34.59,0,34.59,0v4.02s9.22-5.36,9.22-5.36Z" fill="#040000"/>
    <path d="m91.58,404.11l-5.36,9.22h4.02s0,34.59,0,34.59h2.68s0-34.59,0-34.59h4.02s-5.36-9.22-5.36-9.22Z" fill="#040000"/>
    <path d="m180.12,240.77l-9.22-5.36v4.02s-34.59,0-34.59,0v2.68h34.59s0,4.02,0,4.02l9.22-5.36Z" fill="#040000"/>
    <rect x="560.18" y="471.56" width="24.85" height="26.52" fill="#f7f8f8" stroke="#231815" stroke-miterlimit="10" stroke-width="2"/>
    <polyline points="485.13 104.35 500.72 57.2 512.1 44.24 764.99 44.24" fill="none" stroke="#231815" stroke-miterlimit="10" stroke-width="1.04"/>
    <line x1="764.99" y1=".52" x2="1" y2=".52" fill="none" stroke="#231815" stroke-miterlimit="10" stroke-width="1.04"/>
    <path d="m757.21,20.29l-9.22-5.36v4.02h-34.59v2.68s34.59,0,34.59,0v4.02s9.22-5.36,9.22-5.36Z" fill="#040000"/>
    <path d="m9.98,20.29l9.22,5.36v-4.02s34.59,0,34.59,0v-2.68s-34.59,0-34.59,0v-4.02s-9.22,5.36-9.22,5.36Z" fill="#040000"/>
  </g>
  <g id="MNOINT-word">
    <g>
      <path d="m580.46,111.13c-.05.06-.13.1-.24.1-.04,0-.08,0-.13-.01-.99,1.01-2.42,2.2-3.66,3.11.1.04.26.12.31.14-.03.08-.14.16-.28.17v6.98h-.94v-6.68c-1.36.98-3.13,2.03-4.89,2.9-.13-.21-.36-.53-.54-.71,3.51-1.64,7.35-4.42,9.42-6.72l.96.73Z" fill="#231815"/>
      <path d="m583.93,111.36c1.34.43,2.88,1.1,3.83,1.77l-.49.82c-.92-.66-2.44-1.35-3.75-1.81l.41-.78Zm-.05,9.01c4.56-1.43,7.59-4.02,9.13-7.62.27.22.57.39.83.53-1.61,3.56-4.74,6.33-9.1,7.8-.01.12-.09.25-.18.3l-.69-1.01Z" fill="#231815"/>
      <path d="m606.1,111.97c-.04.06-.09.12-.17.14-1.02,4.93-3.53,7.85-7.73,9.35-.14-.22-.42-.57-.59-.75,3.98-1.31,6.42-4.21,7.2-8.15h-8.4v-.87h8.74l.18-.12.78.4Z" fill="#231815"/>
      <path d="m618.22,115.65h-3.06l.05,4.82c0,1.13-.95,1.16-2.4,1.13-.03-.18-.09-.48-.18-.7.66.01,1.22,0,1.41-.03.24-.03.39-.21.4-.42l-.04-4.13c-1,1.48-2.71,2.93-4.32,3.84-.13-.2-.33-.44-.51-.58,1.64-.85,3.42-2.41,4.41-3.93h-3.98v-.75h4.39l-.03-2.31,1.03.05c-.01.1-.12.18-.26.19v2.07h3.08v.75Z" fill="#231815"/>
      <path d="m623.89,113.07c1.21.53,2.48,1.18,3.65,1.87.82-1.25,1.67-2.89,2.31-4.54l1.26.52c-.05.12-.23.18-.46.16-.59,1.38-1.43,3.02-2.29,4.34.99.62,2.02,1.33,2.8,2l-.62.82c-.71-.62-1.67-1.34-2.74-2.03-1.32,1.91-3.25,3.85-5.43,5.32-.15-.19-.51-.51-.73-.65,2.15-1.4,4.11-3.34,5.38-5.14-1.17-.7-2.42-1.37-3.62-1.91l.49-.77Z" fill="#231815"/>
      <path d="m634.29,115.28h10.73v.92h-10.24c-.08.13-.24.22-.41.25l-.08-1.17Z" fill="#231815"/>
      <path d="m647.65,114.03c1.16.26,2.6.75,3.46,1.17l-.38.82c-.85-.42-2.33-.94-3.46-1.2l.38-.79Zm.77,6.36c4.17-1.42,7.03-3.67,8.74-7.57.19.17.59.44.78.57-1.72,3.86-4.71,6.27-8.65,7.68.03.12-.04.27-.15.33l-.72-1.01Zm.64-9.58c1.16.31,2.57.83,3.44,1.27l-.42.79c-.91-.47-2.25-.99-3.4-1.31l.38-.75Z" fill="#231815"/>
      <path d="m668.51,113.7v7.9h-.77v-.57h-5.77v-.73h5.77v-2.64h-5.25v-.73h5.25v-2.52h-5.45v-.72h6.22Z" fill="#231815"/>
      <path d="m673.82,111.36c1.34.43,2.88,1.1,3.83,1.77l-.49.82c-.92-.66-2.44-1.35-3.75-1.81l.41-.78Zm-.05,9.01c4.56-1.43,7.59-4.02,9.13-7.62.27.22.57.39.83.53-1.61,3.56-4.74,6.33-9.1,7.8-.01.12-.09.25-.18.3l-.69-1.01Z" fill="#231815"/>
      <path d="m575.94,140.47l.46,4.07-.92.1-.44-4.06-4.82.64-.1-.87,4.82-.62-.33-2.93-4.03.53-.12-.87,4.06-.52-.3-2.6,1.26-.04c0,.12-.1.22-.3.27l.24,2.24,3.79-.49.1.88-3.79.49.32,2.91,4.84-.62.09.86-4.84.62Zm2.7-7.08c.59.51,1.27,1.3,1.64,1.9l-.51.36c-.35-.56-1.05-1.38-1.61-1.87l.48-.39Zm1.58-.85c.59.51,1.31,1.3,1.68,1.87l-.53.38c-.35-.56-1.09-1.38-1.63-1.85l.47-.4Z" fill="#231815"/>
      <path d="m592.59,137.68s-.09.08-.14.09c-.51,1.34-1.39,2.64-2.31,3.6-.15-.14-.44-.33-.64-.44.75-.69,1.57-1.9,1.93-2.77l-3.6.81,1.18,5.55-.76.17-1.18-5.55-2.93.68-.17-.73,2.96-.66-.58-2.7,1.07-.1c0,.1-.06.18-.23.26l.49,2.37,4.23-.92.09-.06.6.43Z" fill="#231815"/>
      <path d="m606.01,137.53c-.03.05-.09.1-.17.13-1.05,3.93-3.2,5.84-7.04,6.92-.12-.23-.36-.56-.54-.75,3.5-.88,5.67-2.7,6.48-5.72h-8.5v-.88h8.89l.13-.08.76.39Zm-1.21-2.78h-7.32v-.86h7.32v.86Z" fill="#231815"/>
      <path d="m610.57,140.49v-6.32l1.22.08c-.01.12-.1.21-.31.23v6.01h-.91Zm7.16-6.83c-.01.13-.1.19-.31.22v4.13c0,2.73-.92,5.23-4.61,6.67-.13-.2-.45-.53-.67-.7,3.56-1.34,4.36-3.56,4.36-5.97v-4.43l1.23.08Z" fill="#231815"/>
      <path d="m621.45,138.28h10.73v.92h-10.24c-.08.13-.24.22-.41.25l-.08-1.17Z" fill="#231815"/>
    </g>
    <g>
      <path d="m626.58,194.55c-1.34,2.72-2.62,4.74-4.32,6.75-.93-.96-1.22-1.18-2.11-1.7,2.5-2.69,4.35-5.86,5.63-9.73.48-1.34.64-2.08.7-3.01l2.75.74c-.26.64-.35.93-.61,1.76-.16.51-.7,1.95-1.06,2.88h6.24v-3.1c0-1.41-.06-2.3-.22-3.52h2.98c-.16,1.06-.19,2.05-.19,3.52v3.1h7.55c1.5,0,2.72-.06,3.84-.19v2.69c-1.31-.13-2.37-.19-3.78-.19h-7.62v6.53h6.24c1.57,0,2.69-.06,3.58-.19v2.66c-.96-.13-2.08-.19-3.58-.19h-6.24v7.87h8.61c1.66,0,2.82-.06,3.97-.22v2.75c-1.38-.16-2.3-.22-3.9-.22h-20.29c-1.57,0-2.66.06-4,.22v-2.75c1.22.16,2.37.22,3.94.22h9.12v-7.87h-5.57c-1.5,0-2.59.06-3.52.19v-2.66c.9.13,1.89.19,3.49.19h5.6v-6.53h-7.23Z" fill="#231815"/>
      <path d="m623.34,220.59c0-1.25-.06-2.08-.22-2.98h2.82c-.13.83-.19,1.57-.19,2.91v5.15h.38c1.18,0,1.7-.03,2.3-.16v2.53c-.74-.1-1.22-.13-2.27-.13h-.42v15.29c0,1.47.06,2.46.19,3.58h-2.82c.16-1.02.22-2.11.22-3.62v-15.26h-.67c-1.18,0-1.92.03-2.72.13v-2.53c.77.13,1.41.16,2.72.16h.67v-5.09Zm11.46,12.25c1.25,0,1.92-.03,2.75-.13-.06.61-.1.9-.1,1.86-.03,1.6-.26,5.12-.45,6.69-.45,3.78-1.15,4.77-3.52,4.77-.61,0-1.63-.03-2.08-.06-.06-.99-.16-1.44-.48-2.4.86.19,1.63.29,2.4.29.83,0,1.15-.35,1.31-1.34.32-2.05.54-4.74.58-7.52h-2.56c-.67,5.38-1.92,8.45-4.61,11.52-.7-.99-.9-1.28-1.66-1.98,2.4-2.3,3.55-4.99,4.16-9.54h-1.31c-.86,0-1.18.03-1.79.1v-2.37c.51.1.96.13,1.92.13h1.38c.03-.7.03-.8.03-1.73,0-.48-.03-.86-.1-1.28h2.46c-.1.51-.13,1.12-.19,1.98,0,.45-.03.7-.06,1.02h1.92Zm9.66-12.29c1.12,0,1.82-.03,2.66-.13q-.06.61-.13,1.38c-.54,6.5-.96,7.1-4.7,7.1-.83,0-1.25-.03-3.07-.13-.1-.96-.22-1.5-.54-2.37,1.15.22,2.62.35,3.9.35.86,0,1.22-.19,1.44-.83.22-.67.35-1.66.48-3.26h-6.59c-.74,1.92-1.57,3.14-3.1,4.38-1.34,1.12-2.62,1.89-4.64,2.75-.35-.74-.83-1.41-1.47-2.05,3.65-1.28,5.76-2.88,6.75-5.09h-3.01c-1.44,0-2.3.03-3.1.16v-2.43c.8.1,1.79.16,3.2.16h3.58c.22-.96.32-1.82.32-2.46,0-.16,0-.32-.03-.61l2.72.16c-.1.32-.16.61-.35,1.63-.06.38-.13.67-.26,1.28h5.95Zm1.57,12.29c1.22,0,1.86-.03,2.72-.13q-.06.99-.1,1.95c-.13,4.22-.48,7.81-.9,9.38-.45,1.6-1.28,2.02-4,2.02-.54,0-.86-.03-1.6-.1-.06-1.06-.13-1.44-.45-2.4,1.12.22,1.86.32,2.69.32.93,0,1.22-.32,1.44-1.57.22-1.57.45-4.67.51-7.33h-3.07c-.35,3.01-.93,5.12-1.92,7.39-.74,1.6-1.41,2.62-2.78,4.13-.51-.77-.96-1.25-1.73-1.82,2.34-2.05,3.62-4.99,4.22-9.7h-.64c-.93,0-1.28.03-1.89.1v-2.37c.54.1.99.13,2.05.13h.67c.06-.96.06-1.22.06-1.7,0-.54-.03-.96-.06-1.38h2.46c-.1.48-.13.8-.19,1.92-.03.48-.03.58-.06,1.15h2.56Z" fill="#231815"/>
      <path d="m625.17,272.11c-.9,2.94-1.6,4.45-3.1,6.56-.83-.77-1.12-.99-1.86-1.38,1.54-2.02,2.24-3.49,2.98-6.18l1.98.99Zm-1.28-1.57c-1.12,0-1.73.03-2.46.1.06-.7.1-1.92.1-3.33v-13.09c0-1.5-.03-2.4-.13-3.33.74.06,1.44.1,2.59.1h3.33c1.12,0,1.79-.03,2.5-.1-.06.67-.1,1.22-.1,3.07v13.5c0,1.86.03,2.56.1,3.17-.64-.06-1.34-.1-2.43-.1h-3.49Zm-.29-13.79h4.03v-3.71h-4.03v3.71Zm0,5.66h4.03v-3.71h-4.03v3.71Zm0,6.08h4.03v-4.1h-4.03v4.1Zm4.45,2.69c.74,2.27,1.41,3.62,2.72,5.5-.64.32-.99.58-1.82,1.28-1.22-2.08-1.86-3.46-2.72-5.89l1.82-.9Zm5.41-9.47c-1.38,0-2.02.03-2.88.16v-2.14c.83.13,1.5.16,2.88.16h1.86v-2.14h-1.06c-1.09,0-1.82.03-2.5.13v-2.02c.77.1,1.25.13,2.5.13h1.06v-1.92h-1.7c-1.12,0-1.86.03-2.59.13v-2.08c.77.13,1.38.16,2.66.16h1.63c0-1.25-.03-1.73-.19-2.43h2.46c-.13.58-.19,1.15-.19,2.43h4.61c0-1.47-.03-1.82-.19-2.43h2.46c-.13.7-.19,1.34-.19,2.43h2.05c1.25,0,1.95-.03,2.59-.16v2.08c-.93-.1-1.47-.13-2.59-.13h-2.05v1.92h1.41c1.18,0,1.79-.03,2.5-.13v2.02c-.67-.1-1.47-.13-2.5-.13h-1.41v2.14h2.18c1.41,0,2.14-.03,2.85-.16v2.14c-.77-.13-1.47-.16-2.85-.16h-5.5v1.95h3.71c1.28,0,2.24-.03,3.07-.16-.1.58-.16,1.63-.16,3.01v5.09c.96-.03,1.28-.06,1.82-.16v2.11c-.61-.1-.9-.1-1.82-.13v2.53c0,2.08-.61,2.59-3.17,2.59-1.15,0-1.86-.03-3.04-.1-.06-.9-.16-1.41-.42-2.08,1.22.13,2.3.22,3.14.22,1.09,0,1.31-.13,1.31-.83v-2.34h-10.78v1.82c0,2.14.03,2.69.13,3.65h-2.43c.1-1.02.13-1.92.13-3.65v-1.82c-.96.03-1.28.06-2.02.16v-2.14c.64.1,1.12.13,2.02.16v-4.96c0-1.22-.03-1.98-.13-3.07.93.06,1.7.1,3.39.1h3.17v-1.95h-5.22Zm5.22,3.74h-4.26v2.14h4.26v-2.14Zm0,3.87h-4.26v2.27h4.26v-2.27Zm-1.28-13.34h4.61v-1.92h-4.61v1.92Zm0,3.9h4.61v-2.14h-4.61v2.14Zm7.81,7.71v-2.14h-4.45v2.14h4.45Zm0,4v-2.27h-4.45v2.27h4.45Z" fill="#231815"/>
      <path d="m626.9,305.46c-1.31,0-2.24.03-3.46.16.1-.74.16-1.92.16-3.68v-7.14c0-1.54-.03-2.46-.16-3.49,1.06.06,1.66.1,3.49.1h15.42c1.92,0,2.62-.03,3.62-.1-.13,1.02-.16,1.89-.16,3.49v7.2c0,1.79.03,2.91.16,3.62-1.18-.13-2.11-.16-3.46-.16h-2.94c1.34.86,1.86,1.15,3.17,1.66,1.92.77,3.39,1.15,6.53,1.7-.58.67-.93,1.25-1.34,2.24-3.23-.8-4.06-1.02-5.54-1.6-1.86-.74-2.94-1.31-4.8-2.56l1.86-1.44h-10.14l1.89,1.44c-1.6,1.18-2.66,1.82-4.48,2.59-1.31.58-2.3.9-5.18,1.63-.42-.86-.7-1.31-1.5-2.18,3.26-.61,4.58-.99,6.34-1.73,1.15-.51,1.6-.8,2.78-1.76h-2.24Zm20.89-18.01c0,1.02.03,1.63.13,2.34-.83-.06-1.47-.1-3.46-.1h-19.65c-1.73,0-2.75.03-3.42.1.1-.83.13-1.31.13-2.34v-2.37c0-1.02-.03-1.63-.13-2.4.8.1,1.82.13,3.58.13h19.33c1.79,0,2.78-.03,3.62-.13-.1.77-.13,1.31-.13,2.4v2.37Zm-18.33-2.69h-5.6v3.01h5.6v-3.01Zm-3.49,10.69h17.47v-2.11h-17.47v2.11Zm0,3.97h17.47v-2.08h-17.47v2.08Zm0,4.13h17.47v-2.24h-17.47v2.24Zm11.36-18.78h-5.6v3.01h5.6v-3.01Zm8.1,3.01v-3.01h-5.82v3.01h5.82Z" fill="#231815"/>
    </g>
    <g>
      <path d="m172.51,127.13c-1.25,2.59-2.69,4.83-4.35,6.69-1.22-1.31-1.31-1.38-2.37-2.08,2.46-2.56,4.35-5.86,5.57-9.57.42-1.34.61-2.08.67-2.98l3.17.8q-.38,1.06-.61,1.82c-.16.48-.48,1.38-.96,2.66h5.76v-2.82c0-1.5-.06-2.5-.22-3.65h3.49c-.13,1.06-.19,2.08-.19,3.65v2.82h7.14c1.57,0,2.78-.06,4.06-.19v3.04c-1.34-.13-2.53-.19-4-.19h-7.2v6.27h5.89c1.6,0,2.72-.06,3.74-.19v3.04c-.99-.13-2.24-.19-3.71-.19h-5.92v7.39h8.19c1.7,0,2.94-.06,4.16-.22v3.14c-1.44-.16-2.43-.22-4.1-.22h-19.97c-1.63,0-2.85.06-4.26.22v-3.14c1.28.16,2.53.22,4.16.22h8.74v-7.39h-5.28c-1.5,0-2.72.06-3.68.19v-3.04c.96.13,1.98.19,3.65.19h5.31v-6.27h-6.88Z" fill="#231815"/>
      <path d="m200.9,121.05c0-1.31-.06-2.18-.22-3.1h3.3c-.13.83-.19,1.57-.19,3.01v4.96h.35c1.18,0,1.73-.03,2.3-.13v2.94c-.7-.1-1.22-.13-2.27-.13h-.38v14.98c0,1.63.06,2.59.19,3.74h-3.3c.16-1.06.22-2.18.22-3.81v-14.91h-.45c-1.22,0-1.98.06-2.78.16v-3.01c.8.13,1.44.16,2.78.16h.45v-4.86Zm11.74,12c1.31,0,1.98-.03,2.82-.13-.06.64-.06.99-.1,1.92-.03,2.53-.32,6.43-.61,8.19-.38,2.11-.86,2.98-1.82,3.3-.51.19-1.47.29-2.43.29-.29,0-.58,0-1.22-.03-.06-1.15-.16-1.76-.51-2.85.83.16,1.57.26,2.3.26.67,0,.9-.19,1.06-.86.38-1.63.61-4.13.7-7.52h-2.27c-.35,2.66-.7,4.22-1.28,5.92-.8,2.3-1.57,3.68-3.17,5.54-.8-1.18-1.02-1.44-1.92-2.37,1.12-1.12,1.76-2.02,2.37-3.39.8-1.73,1.22-3.36,1.54-5.7h-1.09c-.86,0-1.18.03-1.7.1v-2.78c.54.1.86.13,1.89.13h1.09c.03-.38.03-.83.03-1.54,0-.45-.03-.77-.1-1.22l2.85.06c-.1.48-.13.86-.16,1.86,0,.19-.03.35-.06.83h1.79Zm9.73-12.32c1.15,0,1.95-.03,2.78-.13q-.06.64-.19,2.24c-.29,3.58-.61,4.96-1.34,5.76-.67.7-1.47.9-3.58.9-1.02,0-1.63-.03-3.04-.13-.13-1.12-.29-1.73-.67-2.72,1.15.22,2.66.35,3.87.35,1.38,0,1.57-.42,1.79-3.78h-6.05c-.64,1.6-1.6,2.91-3.1,4.26-1.15,1.02-2.53,1.82-4.58,2.75-.48-.9-1.06-1.63-1.73-2.3,3.52-1.31,5.5-2.75,6.5-4.7h-2.78c-1.44,0-2.3.03-3.1.16v-2.82c.83.1,1.92.16,3.23.16h3.39c.19-.99.29-1.7.29-2.34,0-.19,0-.32-.06-.64l3.2.16c-.13.35-.16.58-.35,1.6,0,.06-.03.29-.13.61-.03.13-.06.35-.13.61h5.79Zm1.54,12.32c1.25,0,1.92-.03,2.78-.13-.06.74-.06.93-.1,1.98-.19,6.02-.64,9.41-1.38,10.53-.45.67-.83.9-1.86,1.09-.42.1-.99.13-1.76.13-.32,0-.67,0-1.44-.06-.06-1.22-.16-1.76-.54-2.85,1.02.19,1.76.29,2.46.29s.96-.16,1.09-.64c.42-1.57.64-4.16.74-7.78h-2.69c-.29,2.75-.83,4.9-1.82,7.23-.7,1.6-1.41,2.69-2.78,4.26-.64-.93-1.15-1.44-2.05-2.14,2.24-1.95,3.49-4.8,4.06-9.34h-.45c-.9,0-1.25.03-1.79.1v-2.78c.51.1.96.13,2.02.13h.45c.03-.74.03-.86.03-1.5,0-.58,0-.86-.06-1.28l2.85.03c-.1.51-.1.67-.16,1.89-.03.19-.03.42-.06.86h2.46Z" fill="#231815"/>
      <path d="m238.94,122.26c-.86-1.5-1.41-2.21-2.91-3.9l2.82-.9c1.98,2.5,2.14,2.69,3.29,4.8h4.42c1.38-1.57,2.18-2.78,3.14-4.77l3.01.9c-.99,1.5-2.05,2.88-2.94,3.87h5.6c1.54,0,2.46-.06,3.33-.19v2.91c-.96-.16-1.82-.19-3.33-.19h-21.79c-1.47,0-2.27.03-3.33.19v-2.91c1.12.16,1.73.19,3.33.19h5.38Zm-3.97,21.41c0,1.66.03,2.53.19,3.39h-3.14c.13-.99.16-1.95.16-3.55v-13.66c0-1.54-.03-2.08-.1-2.85,1.06.1,1.73.13,3.04.13h5.86c1.7,0,2.18-.03,2.88-.13-.06.74-.1,1.5-.1,3.26v13.69c0,2.21-.67,2.82-3.14,2.82-.67,0-1.25-.03-2.4-.1-.19-1.28-.29-1.57-.67-2.62,1.09.16,1.82.26,2.4.26.9,0,1.06-.13,1.06-.77v-3.36h-6.05v3.49Zm6.05-11.29v-2.72h-6.05v2.72h6.05Zm0,5.28v-2.75h-6.05v2.75h6.05Zm9.18-10.18c-.13.83-.16,1.41-.16,3.04v6.69c0,2.18.03,2.69.13,3.52h-3.07c.1-.93.13-1.44.13-3.49v-6.75c0-1.54-.03-2.05-.16-3.01h3.14Zm6.75-.9c-.13.83-.19,1.79-.19,3.42v13.6c0,2.62-.77,3.3-3.9,3.3-.83,0-1.86-.03-3.58-.16-.16-1.09-.35-1.76-.83-2.88,1.76.26,3.01.38,4,.38,1.28,0,1.47-.13,1.47-.99v-13.34c0-1.86-.03-2.4-.16-3.33h3.2Z" fill="#231815"/>
      <path d="m275.93,120.05c0-.86-.03-1.28-.16-1.92h3.3c-.13.58-.16,1.06-.16,1.95v1.66h8.25c1.76,0,2.72-.06,3.62-.19v3.14c-.93-.13-1.76-.16-3.62-.16h-19.36c0,12.25-.9,17.34-3.97,22.56-1.25-1.47-1.31-1.54-2.37-2.4,2.53-4.22,3.33-8.64,3.33-18.78,0-2.24-.03-3.26-.13-4.32,1.06.13,1.95.16,3.3.16h7.97v-1.7Zm-8.86,22.85c.38.03.58.03.86.03.35,0,1.34-.03,2.4-.1,1.18-2.37,2.59-5.89,3.68-9.15.54-1.6,1.34-4.42,1.73-5.98.19-.83.26-1.15.32-1.92l3.42.83q-.35,1.12-1.41,4.58c-1.02,3.46-2.91,8.22-4.48,11.46,4.77-.38,8.32-.83,11.46-1.44-1.44-2.43-2.69-4.26-4.45-6.56l2.5-1.44c3.17,4.22,5.79,8.54,7.52,12.32l-2.66,1.76c-.67-1.7-.9-2.24-1.6-3.65-4.93.99-8.86,1.5-15.78,2.18-2.27.19-2.4.22-2.94.32l-.58-3.23Z" fill="#231815"/>
      <path d="m306.88,137.11c-1.25,1.22-2.4,2.08-4.06,3.04-.32-.54-.48-.77-1.15-1.5-1.06.54-4.1,1.89-5.34,2.37-.86.35-1.66.7-1.86.8l-.61-3.17c1.25-.22,1.7-.35,3.74-1.09v-9.02h-1.12c-.96,0-1.76.06-2.56.16v-2.91c.8.13,1.54.16,2.62.16h1.06v-4.16c0-1.57-.06-2.56-.19-3.52h3.17c-.16,1.02-.19,1.92-.19,3.55v4.13h.64c1.15,0,1.82-.03,2.43-.13v2.85c-.9-.1-1.54-.13-2.4-.13h-.67v7.94c.93-.42,1.28-.58,2.27-1.09l-.03,1.98c2.05-1.28,3.52-2.66,4.45-4.26h-1.22c-1.34,0-2.27.06-2.94.16v-2.72c.7.13,1.5.16,2.98.16h13.86c1.54,0,2.5-.06,3.26-.19v2.72c-.8-.1-1.86-.13-3.26-.13h-9.76c-.38.67-.58.93-1.15,1.73h10.37c1.54,0,2.24-.03,3.14-.13-.1.51-.1.61-.16,1.92-.26,4.32-.77,7.55-1.44,8.77-.64,1.18-1.57,1.57-3.94,1.57-.86,0-1.79-.03-2.82-.1-.13-1.15-.35-1.82-.9-2.85,1.57.22,2.75.32,3.78.32.9,0,1.38-.19,1.57-.58.42-.93.8-3.49.99-6.66h-1.57c-.83,1.89-1.86,3.55-3.07,4.96-.99,1.12-2.72,2.69-4.03,3.65-.8.58-1.41.96-2.72,1.7-.7-.99-.96-1.28-1.98-2.05,2.72-1.31,4.03-2.18,5.76-3.74,1.34-1.25,2.46-2.75,3.3-4.51h-2.43c-1.92,3.04-4.74,5.38-8.83,7.39-.48-.8-.9-1.31-1.76-2.05,3.55-1.47,6.18-3.3,7.68-5.34h-2.88Zm.93-8.06c-1.25,0-2.21.03-2.91.13.06-.86.13-1.76.13-3.01v-4.45c0-1.41-.03-1.92-.13-2.88.96.13,1.73.16,3.17.16h8.96c1.54,0,2.46-.03,3.39-.16-.13.9-.13,1.5-.13,3.07v4.26c0,1.41.03,2.34.13,2.98-.7-.06-1.63-.1-2.91-.1h-9.7Zm-.03-6.02h9.73v-1.73h-9.73v1.73Zm0,3.87h9.73v-1.79h-9.73v1.79Z" fill="#231815"/>
    </g>
    <g>
      <path d="m449.52,366.51c-.41-.06-.77-.08-1.46-.08h-3.66c-.67,0-.95.01-1.44.04.07-.47.1-.86.1-1.52v-6.45c0-.58-.02-.95-.1-1.47.43.02.77.04,1.44.04h3.54c.59,0,1.08-.02,1.46-.08v1.34c-.43-.06-.8-.08-1.46-.08h-3.55v2.72h3.01c.6,0,1-.02,1.47-.08v1.34c-.44-.06-.77-.08-1.47-.08h-3.02v3.12h3.68c.66,0,.98-.02,1.46-.08v1.36Z" fill="#231815"/>
      <path d="m454.37,364.3c.05.16.14.46.29.89.17-.59.18-.6.28-.89l2.09-6.01c.2-.59.29-.88.34-1.25h1.68c-.18.32-.3.62-.6,1.42l-2.57,6.79c-.2.54-.31.9-.37,1.18h-1.69c-.06-.25-.17-.6-.38-1.18l-2.58-6.79c-.26-.7-.44-1.12-.6-1.42h1.68c.07.38.18.82.34,1.25l2.11,6.01Z" fill="#231815"/>
    </g>
    <g>
      <path d="m22.16,202.6c-1.25,2.59-2.69,4.83-4.35,6.69-1.22-1.31-1.31-1.38-2.37-2.08,2.46-2.56,4.35-5.86,5.57-9.57.42-1.34.61-2.08.67-2.98l3.17.8q-.38,1.06-.61,1.82c-.16.48-.48,1.38-.96,2.66h5.76v-2.82c0-1.5-.06-2.5-.22-3.65h3.49c-.13,1.06-.19,2.08-.19,3.65v2.82h7.14c1.57,0,2.78-.06,4.06-.19v3.04c-1.34-.13-2.53-.19-4-.19h-7.2v6.27h5.89c1.6,0,2.72-.06,3.74-.19v3.04c-.99-.13-2.24-.19-3.71-.19h-5.92v7.39h8.19c1.7,0,2.94-.06,4.16-.22v3.14c-1.44-.16-2.43-.22-4.1-.22h-19.97c-1.63,0-2.85.06-4.26.22v-3.14c1.28.16,2.53.22,4.16.22h8.74v-7.39h-5.28c-1.5,0-2.72.06-3.68.19v-3.04c.96.13,1.98.19,3.65.19h5.31v-6.27h-6.88Z" fill="#231815"/>
      <path d="m50.55,196.52c0-1.31-.06-2.18-.22-3.1h3.3c-.13.83-.19,1.57-.19,3.01v4.96h.35c1.18,0,1.73-.03,2.3-.13v2.94c-.7-.1-1.22-.13-2.27-.13h-.38v14.98c0,1.63.06,2.59.19,3.74h-3.3c.16-1.06.22-2.18.22-3.81v-14.91h-.45c-1.22,0-1.98.06-2.78.16v-3.01c.8.13,1.44.16,2.78.16h.45v-4.86Zm11.74,12c1.31,0,1.98-.03,2.82-.13-.06.64-.06.99-.1,1.92-.03,2.53-.32,6.43-.61,8.19-.38,2.11-.86,2.98-1.82,3.3-.51.19-1.47.29-2.43.29-.29,0-.58,0-1.22-.03-.06-1.15-.16-1.76-.51-2.85.83.16,1.57.26,2.3.26.67,0,.9-.19,1.06-.86.38-1.63.61-4.13.7-7.52h-2.27c-.35,2.66-.7,4.22-1.28,5.92-.8,2.3-1.57,3.68-3.17,5.54-.8-1.18-1.02-1.44-1.92-2.37,1.12-1.12,1.76-2.02,2.37-3.39.8-1.73,1.22-3.36,1.54-5.7h-1.09c-.86,0-1.18.03-1.7.1v-2.78c.54.1.86.13,1.89.13h1.09c.03-.38.03-.83.03-1.54,0-.45-.03-.77-.1-1.22l2.85.06c-.1.48-.13.86-.16,1.86,0,.19-.03.35-.06.83h1.79Zm9.73-12.32c1.15,0,1.95-.03,2.78-.13q-.06.64-.19,2.24c-.29,3.58-.61,4.96-1.34,5.76-.67.7-1.47.9-3.58.9-1.02,0-1.63-.03-3.04-.13-.13-1.12-.29-1.73-.67-2.72,1.15.22,2.66.35,3.87.35,1.38,0,1.57-.42,1.79-3.78h-6.05c-.64,1.6-1.6,2.91-3.1,4.26-1.15,1.02-2.53,1.82-4.58,2.75-.48-.9-1.06-1.63-1.73-2.3,3.52-1.31,5.5-2.75,6.5-4.7h-2.78c-1.44,0-2.3.03-3.1.16v-2.82c.83.1,1.92.16,3.23.16h3.39c.19-.99.29-1.7.29-2.34,0-.19,0-.32-.06-.64l3.2.16c-.13.35-.16.58-.35,1.6,0,.06-.03.29-.13.61-.03.13-.06.35-.13.61h5.79Zm1.54,12.32c1.25,0,1.92-.03,2.78-.13-.06.74-.06.93-.1,1.98-.19,6.02-.64,9.41-1.38,10.53-.45.67-.83.9-1.86,1.09-.42.1-.99.13-1.76.13-.32,0-.67,0-1.44-.06-.06-1.22-.16-1.76-.54-2.85,1.02.19,1.76.29,2.46.29s.96-.16,1.09-.64c.42-1.57.64-4.16.74-7.78h-2.69c-.29,2.75-.83,4.9-1.82,7.23-.7,1.6-1.41,2.69-2.78,4.26-.64-.93-1.15-1.44-2.05-2.14,2.24-1.95,3.49-4.8,4.06-9.34h-.45c-.9,0-1.25.03-1.79.1v-2.78c.51.1.96.13,2.02.13h.45c.03-.74.03-.86.03-1.5,0-.58,0-.86-.06-1.28l2.85.03c-.1.51-.1.67-.16,1.89-.03.19-.03.42-.06.86h2.46Z" fill="#231815"/>
      <path d="m87.54,212.9v6.11c3.01-.54,4.35-.8,6.88-1.44l-.03,2.56c-3.46.9-5.34,1.28-11.93,2.5-.48.1-.77.16-1.38.29l-.54-3.1c.16.03.26.03.35.03.54,0,2.56-.19,3.84-.38v-14.69c0-.7,0-1.15-.03-1.95-1.63.86-2.43,1.25-4.29,1.98-.45-1.44-.64-1.82-1.38-2.85,5.47-1.76,10.37-4.9,13.25-8.48h3.17c1.63,1.95,3.26,3.36,5.7,4.83,2.46,1.54,5.25,2.82,7.9,3.62-.7,1.09-1.09,1.86-1.44,2.91-1.73-.67-2.85-1.22-4.48-2.11-.03.7-.03,1.06-.03,1.66v6.18c0,.8,0,1.28.06,1.92.29-.32.45-.48.86-.96l2.66,1.54c-2.05,1.86-3.78,3.2-5.95,4.67,2.62,1.15,5.06,1.82,7.87,2.18-.7,1.12-1.06,1.92-1.44,2.94-4.74-1.02-8.16-2.5-11.1-4.86-2.02-1.57-3.26-2.98-4.51-5.09h-4Zm12.48-11.33h1.12c-3.39-2.11-5.34-3.68-7.26-5.89-1.92,2.27-3.94,3.94-7.01,5.89h5.57v-.99c0-1.02-.03-1.6-.16-2.14h3.04c-.13.61-.16,1.12-.16,2.14v.99h4.86Zm-12.48,4.42h12.77v-2.02h-12.77v2.02Zm0,4.54h12.77v-2.24h-12.77v2.24Zm7.13,2.37c.9,1.34,2.02,2.4,3.58,3.46,1.86-1.18,3.01-2.08,4.42-3.39-.8-.06-1.41-.06-2.37-.06h-5.63Z" fill="#231815"/>
      <path d="m120.28,211.11c-1.44,0-2.24.03-2.98.13.06-.7.1-1.25.1-2.85v-2.66c0-1.06-.03-1.79-.1-2.46.77.06,1.5.1,2.4.1h12.99c1.06,0,1.73-.03,2.3-.1-.06.61-.1,1.12-.1,2.53v2.59c0,1.82,0,2.27.1,2.85-.86-.1-1.92-.13-3.17-.13h-4.51v2.43h7.46c1.41,0,2.18-.03,3.07-.16v2.85c-.9-.13-1.63-.16-3.07-.16h-7.46v3.17h9.5c1.5,0,2.56-.06,3.49-.19v2.98c-1.06-.16-2.14-.22-3.49-.22h-21.31c-1.34,0-2.46.06-3.55.22v-2.98c.83.13,2.08.19,3.55.19h8.96v-3.17h-6.91c-1.44,0-2.24.03-3.1.16v-2.85c.93.13,1.73.16,3.1.16h6.91v-2.43h-4.19Zm4.16-15.2c0-.96-.06-1.7-.16-2.46h3.2c-.13.77-.16,1.47-.16,2.46v2.75h3.49c1.38-1.95,1.76-2.66,2.78-4.86l2.78,1.31q-.38.54-1.6,2.4c-.19.26-.45.61-.9,1.15h2.53c1.5,0,2.5-.03,3.46-.13-.1.9-.13,1.76-.13,2.94v2.62c0,.77.06,1.44.16,2.11h-2.82v-5.06h-21.79v4.99h-2.78c.1-.8.13-1.44.13-2.14v-2.85c0-1.02-.03-1.86-.13-2.62.9.1,1.82.13,3.33.13h2.72c-.7-1.22-1.63-2.4-2.66-3.52l2.43-1.18c1.82,2.24,2.18,2.75,3.29,4.7h2.82v-2.75Zm-4.26,12.86h11.94v-3.04h-11.94v3.04Z" fill="#231815"/>
    </g>
    <g>
      <path d="m7.38,271.55c-.23-.47-.49-.86-.91-1.37l1.18-.27c.4.56.7,1.04,1.01,1.64h1.44c-.16-.42-.47-1.04-.79-1.57l1.21-.21c.27.48.61,1.21.84,1.78h1.12c.36-.51.73-1.17.99-1.78l1.25.31c-.26.47-.65,1.07-.94,1.47h.88c.64,0,.99-.01,1.4-.05-.03.35-.04.62-.04,1.13v1.05c0,.39.01.64.05.99h-1.2v-2.12H6.24v2.12h-1.21c.04-.34.06-.64.06-.98v-1.05c0-.46-.01-.71-.05-1.14.43.04.79.05,1.4.05h.94Zm.91,5.03c-.75,0-.96.01-1.38.05.04-.34.05-.6.05-1.12v-1.2c0-.43-.01-.73-.05-.98.31.04.65.05,1.1.05h5.11c.43,0,.77-.01,1.07-.05-.03.22-.04.48-.04,1v1.17c0,.65,0,.82.04,1.12-.46-.04-.73-.05-1.38-.05h-1.89c-.13.33-.4.9-.51,1.07h3.56c.58,0,.87-.01,1.23-.05-.04.33-.05.64-.05,1.24v1.62c0,.56.01.88.06,1.26h-1.24v-.52h-6.9v.52h-1.24c.05-.42.08-.83.08-1.27v-1.61c0-.57-.01-.87-.06-1.24.34.04.68.05,1.22.05h2.11c.18-.33.39-.74.52-1.07h-1.43Zm-1.2,3.59h6.92v-1.5h-6.92v1.5Zm1-4.52h4.93v-1.3h-4.93v1.3Z" fill="#231815"/>
      <path d="m19.6,274.94c-.61,0-.96.01-1.34.06v-1.08c.36.05.69.06,1.34.06h1.69c-.19-.51-.35-.82-.56-1.18h-1.5c-.62,0-1.09.03-1.49.06v-1.1c.36.05.78.08,1.44.08h.61c-.22-.4-.51-.78-.95-1.27l1.07-.43c.53.7.66.9,1.07,1.7h.88v-.95c0-.42-.03-.78-.08-1.04h1.21c-.03.23-.04.55-.04,1v.99h1.1v-.99c0-.43-.03-.75-.05-1h1.21c-.05.27-.06.62-.06,1.04v.95h.99c.43-.58.75-1.18.96-1.75l1.13.43c-.33.53-.64,1-.87,1.33h.52c.69,0,1.08-.03,1.47-.08v1.1c-.42-.04-.88-.06-1.52-.06h-1.39c-.21.47-.35.75-.57,1.18h1.64c.66,0,.99-.01,1.38-.06v1.08c-.39-.05-.74-.06-1.38-.06h-3.46v.74h2.74c.6,0,1.01-.01,1.37-.06v1.04c-.36-.05-.77-.06-1.37-.06h-2.73v.77h3.76c.77,0,1.17-.03,1.55-.08v1.12c-.48-.05-.95-.08-1.53-.08h-2.9c1.04.92,2.65,1.6,4.73,1.98-.33.4-.47.64-.66,1.1-2.25-.61-3.68-1.36-4.99-2.67.04.49.04.7.04.99v.74c0,.55.03.96.08,1.33h-1.26c.05-.38.08-.79.08-1.34v-.72c0-.3,0-.44.03-.97-.68.69-1.16,1.05-1.99,1.52-.86.48-1.57.78-2.68,1.12-.22-.47-.34-.65-.69-1.05,1.16-.26,1.83-.47,2.59-.85.77-.36,1.33-.71,1.86-1.18h-2.7c-.6,0-1.05.03-1.52.08v-1.12c.38.05.79.08,1.52.08h3.58v-.77h-2.6c-.58,0-.99.01-1.34.06v-1.04c.38.05.75.06,1.34.06h2.6v-.74h-3.33Zm5.07-.95c.25-.47.39-.81.52-1.18h-3.22c.22.47.3.66.48,1.18h2.22Z" fill="#231815"/>
      <path d="m31.2,271.81c0-.56-.01-.92-.05-1.29q.27.03,1.17.04h1.33c.64,0,.85-.01,1.14-.04-.03.3-.04.55-.04,1.27v7.31c0,.68.01.99.04,1.3h-1.12v-.66h-1.39v1.09h-1.16c.05-.39.08-.87.08-1.5v-7.53Zm1.09,2.7h1.38v-2.93h-1.38v2.93Zm0,4.17h1.38v-3.17h-1.38v3.17Zm4.5-6.37c-.46,0-1.01.03-1.34.06v-1.16c.35.05.74.08,1.3.08h1.25v-.38c0-.38-.03-.68-.08-1h1.29c-.05.31-.08.6-.08,1v.38h1.59c.55,0,.95-.03,1.3-.08v1.16c-.36-.05-.75-.06-1.29-.06h-1.6v1.43h2c.58,0,1.03-.03,1.36-.08v1.18c-.35-.05-.7-.08-1.27-.08h-.3v1.27h.27c.58,0,.98-.03,1.27-.06v1.2c-.36-.05-.71-.08-1.27-.08h-.27v3.22c0,.7-.13.98-.55,1.13-.29.1-.68.16-1.22.16,0,0-.36-.01-1.07-.03-.03-.48-.1-.81-.27-1.17.39.08,1,.13,1.42.13.49,0,.57-.04.57-.35v-3.09h-3.34c-.48,0-.95.03-1.35.08v-1.2c.32.04.73.06,1.38.06h3.31v-1.27h-3.31c-.55,0-.99.03-1.38.08v-1.18c.32.05.79.08,1.39.08h1.5v-1.43h-1.21Zm.7,7.85c-.55-.87-1.07-1.51-1.73-2.15l.92-.62c.68.62,1.18,1.21,1.77,2.04l-.96.73Z" fill="#231815"/>
      <path d="m45.34,280.13c0,.77.03,1.21.08,1.55h-1.29c.05-.38.08-.78.08-1.55v-8.45c0-.68-.01-1.04-.05-1.46.35.04.69.05,1.34.05h2.13c.66,0,.96-.01,1.33-.05-.03.4-.04.71-.04,1.22v1.86c0,.56.01.88.04,1.18-.35-.03-.75-.04-1.25-.04h-2.37v5.68Zm0-8.18h2.51v-.79h-2.51v.79Zm0,1.64h2.51v-.81h-2.51v.81Zm6.73,5.33c0,.49.01.83.04,1.16-.39-.03-.75-.04-1.27-.04h-2.77v.79h-1.14c.05-.38.06-.74.06-1.26v-3.07c0-.47-.01-.83-.04-1.2.35.04.69.05,1.23.05h2.69c.56,0,.88-.01,1.23-.05-.03.35-.04.69-.04,1.2v2.42Zm-4-1.7h2.94v-.95h-2.94v.95Zm0,1.91h2.94v-1.01h-2.94v1.01Zm6.86,1.09c0,1.01-.34,1.3-1.6,1.3-.29,0-1.03-.03-1.25-.04-.08-.51-.14-.75-.31-1.17.68.09,1.14.13,1.48.13.44,0,.55-.06.55-.35v-5.64h-2.6c-.49,0-.9.01-1.25.04.03-.35.04-.69.04-1.18v-1.86c0-.44-.01-.85-.04-1.22.35.04.66.05,1.33.05h2.35c.68,0,1-.01,1.37-.05-.05.49-.06.82-.06,1.44v8.55Zm-3.87-8.27h2.74v-.79h-2.74v.79Zm0,1.64h2.74v-.81h-2.74v.81Z" fill="#231815"/>
      <path d="m61.36,270.51c.36.06.64.08,1.21.08h1.04c.57,0,.77-.01,1.22-.06-.08.79-.1,1.4-.1,2.16v6.46c0,.66.03,1.09.1,1.61h-1.68c.08-.49.1-.96.1-1.61v-7.31h-.65c-.44,0-.81.03-1.25.08v-1.4Z" fill="#231815"/>
      <path d="m70.6,280.76c-.95,0-1.14.01-1.59.06.09-.81.18-1.22.36-1.69.34-.88.91-1.68,1.74-2.42.44-.39.85-.69,2.08-1.52,1.24-.83,1.6-1.31,1.6-2.11,0-.9-.74-1.46-1.91-1.46-.81,0-1.4.27-1.77.81-.22.34-.32.62-.42,1.25l-1.55-.21c.17-.92.4-1.46.87-2,.61-.72,1.59-1.09,2.82-1.09,2.16,0,3.5,1.05,3.5,2.74,0,.99-.38,1.68-1.31,2.39-.4.3-.58.43-1.74,1.21-1.46.98-2.11,1.72-2.44,2.73h3.87c.75,0,1.33-.03,1.77-.09v1.47c-.57-.05-1.07-.08-1.82-.08h-4.07Z" fill="#231815"/>
      <path d="m79.77,275.13h-1.65v-1.65h1.65v1.65Zm-1.65,5.63v-1.65h1.65v1.65h-1.65Z" fill="#231815"/>
      <path d="m82.51,279.95c-.38-.38-.65-.81-.82-1.26-.34-.92-.51-1.94-.51-3,0-1.36.31-2.79.77-3.56.68-1.12,1.78-1.73,3.16-1.73,1.05,0,1.94.34,2.6,1,.38.38.66.81.82,1.26.34.91.51,1.95.51,3.02,0,1.59-.35,2.99-.94,3.81-.7.98-1.72,1.47-3,1.47-1.05,0-1.92-.34-2.59-1Zm1.07-7.64c-.27.3-.46.64-.56.98-.23.73-.35,1.56-.35,2.43,0,1.14.25,2.35.58,2.92.42.7,1.04,1.05,1.86,1.05.61,0,1.14-.21,1.5-.57.27-.29.48-.65.6-1.05.23-.75.35-1.53.35-2.41,0-1.05-.22-2.25-.53-2.85-.4-.78-1.03-1.17-1.92-1.17-.65,0-1.13.21-1.52.66Z" fill="#231815"/>
      <path d="m91.48,279.95c-.38-.38-.65-.81-.82-1.26-.34-.92-.51-1.94-.51-3,0-1.36.31-2.79.77-3.56.68-1.12,1.78-1.73,3.16-1.73,1.05,0,1.94.34,2.6,1,.38.38.66.81.82,1.26.34.91.51,1.95.51,3.02,0,1.59-.35,2.99-.94,3.81-.7.98-1.72,1.47-3,1.47-1.05,0-1.92-.34-2.59-1Zm1.07-7.64c-.27.3-.46.64-.56.98-.23.73-.35,1.56-.35,2.43,0,1.14.25,2.35.58,2.92.42.7,1.04,1.05,1.86,1.05.61,0,1.14-.21,1.5-.57.27-.29.48-.65.6-1.05.23-.75.35-1.53.35-2.41,0-1.05-.22-2.25-.53-2.85-.4-.78-1.03-1.17-1.92-1.17-.65,0-1.13.21-1.52.66Z" fill="#231815"/>
      <path d="m99.15,275.75c.51-.57.77-.79,1.37-1.14.71-.4,1.23-.56,1.94-.56.58,0,1.12.12,1.65.38q.35.17,1.2.74c1.01.68,1.73.96,2.43.96.36,0,.79-.13,1.22-.38.47-.27.72-.51,1.14-1.05l.88.84c-.53.65-.81.91-1.21,1.21-.65.47-1.37.7-2.16.7-.4,0-.83-.06-1.2-.19-.53-.18-.83-.35-1.78-.99-1.1-.73-1.53-.91-2.29-.91-.87,0-1.46.3-2.33,1.2l-.87-.81Z" fill="#231815"/>
      <path d="m113.6,270.51c.36.06.64.08,1.21.08h1.04c.57,0,.77-.01,1.22-.06-.08.79-.1,1.4-.1,2.16v6.46c0,.66.03,1.09.1,1.61h-1.68c.08-.49.1-.96.1-1.61v-7.31h-.65c-.44,0-.81.03-1.25.08v-1.4Z" fill="#231815"/>
      <path d="m120.86,277q.31-.34.96-1.12l3.16-3.9c.52-.64.73-.92,1.03-1.39h1.46c-.08.75-.09,1.2-.09,2.2v4.26h.48c.53,0,.84-.03,1.33-.09v1.43c-.49-.06-.79-.09-1.33-.09h-.48v1c0,.65.03.99.1,1.46h-1.59c.09-.44.12-.85.12-1.47v-.99h-3.55c-.75,0-1.13.01-1.6.05v-1.35Zm5.15-2.86c0-.65.01-1.07.06-1.64-.26.38-.46.62-.9,1.2l-2.7,3.37h3.54v-2.93Z" fill="#231815"/>
      <path d="m132.01,275.13h-1.65v-1.65h1.65v1.65Zm-1.65,5.63v-1.65h1.65v1.65h-1.65Z" fill="#231815"/>
      <path d="m134.75,279.95c-.38-.38-.65-.81-.82-1.26-.34-.92-.51-1.94-.51-3,0-1.36.31-2.79.77-3.56.68-1.12,1.78-1.73,3.16-1.73,1.05,0,1.94.34,2.6,1,.38.38.66.81.82,1.26.34.91.51,1.95.51,3.02,0,1.59-.35,2.99-.94,3.81-.7.98-1.72,1.47-3,1.47-1.05,0-1.92-.34-2.59-1Zm1.07-7.64c-.27.3-.46.64-.56.98-.23.73-.35,1.56-.35,2.43,0,1.14.25,2.35.58,2.92.42.7,1.04,1.05,1.86,1.05.61,0,1.14-.21,1.49-.57.27-.29.48-.65.6-1.05.23-.75.35-1.53.35-2.41,0-1.05-.22-2.25-.53-2.85-.4-.78-1.03-1.17-1.92-1.17-.65,0-1.13.21-1.52.66Z" fill="#231815"/>
      <path d="m143.72,279.95c-.38-.38-.65-.81-.82-1.26-.34-.92-.51-1.94-.51-3,0-1.36.31-2.79.77-3.56.68-1.12,1.78-1.73,3.16-1.73,1.05,0,1.94.34,2.6,1,.38.38.66.81.82,1.26.34.91.51,1.95.51,3.02,0,1.59-.35,2.99-.94,3.81-.7.98-1.72,1.47-3,1.47-1.05,0-1.92-.34-2.59-1Zm1.07-7.64c-.27.3-.46.64-.56.98-.23.73-.35,1.56-.35,2.43,0,1.14.25,2.35.58,2.92.42.7,1.04,1.05,1.86,1.05.61,0,1.14-.21,1.49-.57.27-.29.48-.65.6-1.05.23-.75.35-1.53.35-2.41,0-1.05-.22-2.25-.53-2.85-.4-.78-1.03-1.17-1.92-1.17-.65,0-1.13.21-1.52.66Z" fill="#231815"/>
      <path d="m30.05,304.68l.42.43-4.61,4.64,4.61,4.62-.42.43-4.61-4.58-4.6,4.58-.43-.43,4.62-4.62-4.62-4.64.43-.43,4.6,4.62,4.61-4.62Zm-7.35,5.06c0,.56-.44,1-.99,1s-1-.46-1-1,.44-.99,1-.99.99.44.99.99Zm3.72,3.8c0,.55-.46,1-.99,1s-1-.48-1-1c0-.49.47-1,.91-1h.04s.01.01.03.01h.03c.55-.01.99.43.99.99Zm.01-7.55c0,.56-.44,1-.99,1s-1-.46-1-1,.46-.99,1-.99.99.44.99.99Zm3.71,3.77c0,.55-.44.99-.99.99s-.99-.44-.99-.99.44-.99.99-.99.99.44.99.99Z" fill="#231815"/>
      <path d="m34.77,305.08c0-.51-.03-.83-.08-1.22h1.33c-.06.39-.08.68-.08,1.22v9.4c0,.55.01.85.08,1.22h-1.33c.05-.4.08-.78.08-1.34v-3.04c-.27.2-.86.57-1.74,1.13-.12.07-.13.08-.22.13l-.51-1.22c.57-.18,1.55-.7,2.47-1.31v-4.97Zm-1.3.47c.49,1.05.68,1.57.99,2.79l-1.03.48c-.26-1.21-.46-1.79-.95-2.83l.99-.44Zm7.32,2.85c.19,1.09.61,2.3,1.09,3.26.39.75.87,1.42,1.4,1.94.3.3.56.51,1.14.94-.39.39-.56.64-.81,1.13-1.2-.95-1.85-1.73-2.5-2.99-.47-.9-.74-1.64-.96-2.59-.26,1.2-.56,2.01-1.07,2.95-.56,1.03-1.22,1.79-2.18,2.56-.31-.53-.51-.78-.81-1.03,1.1-.79,1.81-1.64,2.38-2.87.42-.92.73-2.11.86-3.3h-1.59c-.55,0-.98.03-1.35.08v-1.22c.36.05.79.08,1.35.08h1.66c.03-.47.04-1.33.04-2.33,0-.31-.04-.91-.08-1.09h1.34c-.05.34-.07.53-.08,1.05-.01.57-.04,1.37-.08,2.37h2.39c.58,0,.95-.03,1.34-.08v1.22c-.39-.05-.78-.08-1.31-.08h-2.2Zm2-1.4c-.49-.91-.83-1.38-1.61-2.21l.85-.58c.79.83,1,1.09,1.69,2.16l-.92.64Z" fill="#231815"/>
      <path d="m46.17,307.06c1.07.66,1.44.92,2.34,1.68l-.73.98c-.82-.79-1.3-1.17-2.29-1.79l.68-.86Zm2.46,4.37c-.68,1.69-.83,2.04-1.23,2.77q-.12.21-.6,1.01-.12.18-.22.38l-1.04-.94c.79-.82,1.42-1.98,2.15-3.94l.95.71Zm-1.81-7.53c.92.6,1.35.94,2.24,1.75l-.74.95c-.75-.79-1.34-1.29-2.24-1.88l.74-.82Zm3.81,5.55c-.3,0-.61.01-1.05.05q.01-.12.04-.39s0-.04.01-.79v-2.83q0-.38-.05-1.11c.29.04.56.05,1.27.05h4.43c.64,0,.92-.01,1.22-.05-.04.27-.05.52-.05,1.13v2.9c0,.6.01.82.05,1.09-.51-.04-.79-.05-1.12-.05h-.82v4.62c0,.26.1.31.7.31.56,0,.78-.05.88-.21.1-.2.17-.77.2-2.11.35.23.64.35,1.09.47-.09,2.69-.27,2.94-2.18,2.94-.9,0-1.23-.04-1.5-.21-.23-.14-.34-.36-.34-.75v-5.06h-1.17c-.06,1.66-.27,2.65-.74,3.58-.58,1.16-1.44,1.94-2.9,2.64-.23-.42-.44-.68-.81-1.01,1.31-.55,2.15-1.21,2.65-2.13.42-.77.57-1.52.64-3.07h-.47Zm.17-1.07h4.46v-2.82h-4.46v2.82Z" fill="#231815"/>
      <path d="m61.77,304.55c-.27.66-.56,1.91-.71,3.17-.14,1.04-.23,2.42-.25,3.55v1.17h.03c.12-.57.2-.82.7-2l.9.4c-.66,1.39-1.12,2.94-1.12,3.78,0,.05,0,.16.01.29l-1.34.09c-.01-.22-.03-.3-.06-.57-.25-1.51-.34-2.47-.34-3.83,0-1.73.16-3.13.56-5.07.13-.68.16-.82.18-1.16l1.44.18Zm3.42,5.37c-.65.75-.94,1.33-.94,1.9,0,.81.77,1.24,2.24,1.24,1.16,0,2.28-.17,3.06-.48l.12,1.39c-.17.03-.21.03-.49.08-.99.17-1.81.25-2.68.25-1.56,0-2.57-.35-3.12-1.07-.26-.33-.4-.81-.4-1.27,0-.78.38-1.6,1.17-2.55l1.05.52Zm-1.95-4.12c.69.16,1.22.21,2.21.21,1.6,0,2.9-.13,3.64-.36l.06,1.33c-.09,0-.17.01-.91.1-.81.1-1.81.17-2.76.17-.74,0-1.33-.03-1.9-.1-.18-.01-.22-.03-.36-.04v-1.3Z" fill="#231815"/>
      <path d="m78.04,304.08c-.05.39-.08.91-.08,1.95,0,.27,0,.31.03,1,1.44,0,3-.2,3.8-.47l.12,1.33q-.25.01-.82.09c-1.13.14-1.96.21-3.07.25.03.96.06,1.98.14,3.07,1.21.39,2.05.83,3.42,1.81.4.27.44.31.65.44l-.85,1.25c-.23-.3-.43-.48-.95-.87-.69-.52-1.12-.78-1.83-1.12-.18-.09-.26-.12-.42-.21.03.09.04.27.04.46,0,1.47-.96,2.22-2.85,2.22s-2.9-.78-2.9-2.11,1.27-2.24,3.13-2.24c.49,0,.99.05,1.26.14v-.06c-.06-.53-.18-4.06-.21-5.82,0-.65-.01-.77-.05-1.11h1.43Zm-2.46,8.05c-1.03,0-1.75.43-1.75,1.04,0,.55.64.92,1.52.92.69,0,1.25-.23,1.44-.6.09-.17.13-.34.13-.66,0-.16-.03-.56-.03-.56-.52-.12-.78-.14-1.31-.14Z" fill="#231815"/>
      <path d="m85.91,309.04q.34-.03,1.34-.26c1.87-.4,2.86-.55,3.94-.55,1.44,0,2.39.42,2.96,1.29.3.46.44.97.44,1.59,0,1.62-1.18,2.98-3.17,3.61-.78.25-1.05.3-2.77.51-.1-.53-.18-.74-.47-1.25h.2c.78,0,1.88-.17,2.68-.42.71-.22,1.39-.65,1.79-1.16.31-.4.47-.82.47-1.33,0-1.12-.77-1.69-2.25-1.69-.87,0-1.88.16-3.41.51-.81.2-1.04.27-1.47.46l-.29-1.31Z" fill="#231815"/>
      <path d="m98.07,305.82q.25.01.46.01c.27,0,.42,0,.79-.04,1.52-.1,4.62-.29,7.67-.42.9-.04,1.29-.08,1.51-.13l.09,1.37h-.22c-.73,0-1.64.23-2.43.62-1.77.88-2.86,2.29-2.86,3.69,0,1.04.65,1.86,1.77,2.24.6.19,1.46.36,1.91.36.05,0,.13,0,.23-.01l-.19,1.47c-.17-.03-.22-.04-.43-.08-1.42-.21-2.17-.44-2.94-.91-1.09-.66-1.69-1.7-1.69-2.95s.57-2.39,1.7-3.45c.52-.48.82-.69,1.56-1.04-.91.14-1.43.2-2.81.29-2.26.16-3.37.26-4.04.4l-.08-1.43Z" fill="#231815"/>
      <path d="m113.53,309.92c-.68,0-1.01.01-1.51.05.06-.44.08-.75.08-1.35v-3c0-.61-.01-.92-.08-1.35.52.05.81.06,1.5.06h5.88c.73,0,1.04-.01,1.56-.06-.06.42-.08.71-.08,1.33v3.08c0,.58.03.92.08,1.3-.51-.04-.82-.05-1.51-.05h-2.47v1.43h3.74c.69,0,1.1-.03,1.51-.08v1.24c-.43-.05-.83-.08-1.51-.08h-3.74v1.75c0,.75.03,1.21.09,1.61h-1.39c.05-.35.08-.85.08-1.61v-1.75h-3.5c-.66,0-1.08.03-1.51.08v-1.24c.4.05.82.08,1.51.08h3.5v-1.43h-2.22Zm-.27-3.32h6.46v-1.21h-6.46v1.21Zm0,2.28h6.46v-1.25h-6.46v1.25Z" fill="#231815"/>
      <path d="m132.22,304.98c-.21.16-.42.34-1.61,1.46-.66.62-1.51,1.31-3.06,2.48-.42.33-.52.44-.52.6,0,.21.04.25,1.16,1.1,2.04,1.55,2.31,1.78,4.13,3.45.16.16.22.21.36.34l-1.12,1.13c-.33-.47-.82-.99-1.69-1.79-.88-.82-1.4-1.25-3.33-2.74-.81-.62-1.03-.95-1.03-1.48,0-.36.14-.69.4-.98.16-.17.17-.18,1.13-.91,1.91-1.47,3.41-2.85,3.9-3.6l1.26.95Z" fill="#231815"/>
      <path d="m27.71,327.16c0,.74.03,1.18.08,1.53h-1.3c.05-.38.08-.78.08-1.55v-8.52c0-.66-.01-1.03-.05-1.44.38.04.71.05,1.35.05h2.16c.66,0,.96-.01,1.33-.05-.03.35-.04.71-.04,1.22v1.85c0,.56.01.87.04,1.17-.32-.03-.78-.04-1.25-.04h-2.39v5.77Zm0-8.25h2.54v-.78h-2.54v.78Zm0,1.64h2.54v-.81h-2.54v.81Zm2,3.17c-.47,0-.83.01-1.2.06v-1.12c.35.05.7.07,1.25.07h2.7c0-.47-.01-.64-.08-.95h1.18c-.04.22-.05.47-.05.75v.2h.58c.55,0,.88-.01,1.23-.07v1.12c-.36-.05-.73-.06-1.18-.06h-.62l.03,3.31c.01.94-.33,1.2-1.52,1.2-.27,0-.58-.01-1.04-.05-.05-.44-.1-.65-.27-1.12.47.09.87.14,1.29.14s.51-.09.49-.42l-.03-2.64c-.86,1.3-2.05,2.37-3.65,3.29-.22-.38-.34-.53-.71-.92.94-.46,1.56-.85,2.18-1.35.51-.43,1.03-.96,1.36-1.44h-1.95Zm7.62,3.55c0,1.03-.3,1.26-1.64,1.26-.31,0-.64-.01-.99-.04-.08-.49-.13-.73-.3-1.14.78.09.92.1,1.26.1.44,0,.52-.05.52-.35v-5.69h-2.5c-.49,0-.92.01-1.25.04.03-.39.04-.66.04-1.18v-1.85c0-.46-.01-.82-.04-1.22.38.04.68.05,1.33.05h2.26c.65,0,.98-.01,1.37-.05-.05.47-.06.82-.06,1.44v8.63Zm-3.78-8.36h2.64v-.78h-2.64v.78Zm0,1.64h2.64v-.81h-2.64v.81Z" fill="#231815"/>
      <path d="m44.61,317.55c0-.36-.03-.58-.08-.83h1.33c-.05.22-.06.46-.06.85v.51h3.38c.74,0,1.2-.03,1.56-.08v1.22c-.38-.04-.87-.06-1.55-.06h-7.84c0,5.62-.3,7.5-1.48,9.46-.34-.42-.48-.55-.98-.91,1.01-1.56,1.29-3.25,1.29-7.94,0-.94-.01-1.33-.05-1.76.44.04.91.07,1.47.07h3.02v-.52Zm.47,3.19c0-.69-.01-.95-.06-1.24h1.25c-.04.27-.05.55-.05,1.24v.34h2.81c.65,0,1.04-.03,1.35-.08v1.22c-.36-.05-.79-.08-1.31-.08h-2.85v1.64h2.42c.52,0,.79-.01,1.13-.05-.04.39-.05.73-.05,1.26v2.07c0,.77.01,1.26.08,1.64h-1.24v-.6h-5.14v.6h-1.23c.05-.36.08-.84.08-1.59v-2.25c0-.49-.01-.79-.05-1.13.34.04.61.05,1.13.05h1.74v-3.04Zm-1.66,6.31h5.14v-2.21h-5.14v2.21Z" fill="#231815"/>
      <path d="m52.46,318.91c.27.03.38.03.58.03.36,0,.88-.01,2.33-.08q.85-.03,3.13-.09c-.01-1.11-.03-1.34-.08-1.66h1.38c-.05.39-.07.62-.07,1.64,2.37-.01,3.35-.04,3.81-.09v1.26c-.47-.05-1.08-.06-2.18-.06-.35,0-.57,0-1.61.03v2.39c.26.56.36,1.07.36,1.72,0,1.39-.66,2.61-1.85,3.46-.52.36-1.1.65-2.24,1.05-.3-.62-.42-.79-.79-1.21,1.08-.25,1.6-.46,2.2-.85.91-.61,1.38-1.31,1.46-2.2-.35.7-1.04,1.09-1.94,1.09-1.31,0-2.29-.92-2.29-2.18,0-1.33,1.04-2.28,2.5-2.28.6,0,1.07.16,1.38.44q0-.05-.01-.17v-1.26c-2.08.03-5.21.19-6.03.33l-.04-1.3Zm3.48,4.13c0,.68.48,1.14,1.18,1.14.79,0,1.36-.55,1.36-1.31,0-.29-.08-.48-.26-.64-.23-.23-.57-.35-.96-.35-.75,0-1.33.49-1.33,1.16Z" fill="#231815"/>
      <path d="m67.28,317.76c.43.07.66.08,1.38.08,1.18,0,2.72-.06,3.99-.17.42-.03.55-.05.73-.16l.7.97c-.2.1-.27.17-.66.53-1.81,1.72-3.22,2.89-4.12,3.42l.03.04c1.1-.51,1.89-.69,2.93-.69,2.18,0,3.6,1.12,3.6,2.85,0,1.2-.61,2.17-1.74,2.79-.85.47-1.89.71-3.06.71-1.04,0-1.91-.2-2.4-.55-.49-.34-.78-.88-.78-1.47,0-.99.9-1.72,2.09-1.72.9,0,1.69.39,2.21,1.08.26.34.4.62.6,1.2.44-.14.7-.27.97-.47.51-.38.79-.92.79-1.55,0-1.14-1.01-1.83-2.67-1.83-1.91,0-3.87.81-5.41,2.2l-.75-1.16c1.17-.62,4.23-3.13,5.92-4.86.04-.04.18-.18.22-.22h-.01c-.47.05-1.86.14-3.84.22-.29.01-.39.03-.65.06l-.06-1.33Zm2.68,7.7c-.53,0-.87.26-.87.68,0,.57.66.92,1.75.92.26,0,.34,0,.74-.05-.26-1.03-.81-1.55-1.62-1.55Z" fill="#231815"/>
      <path d="m83.31,324.6c-.51.49-.98.84-1.65,1.24-.13-.22-.19-.31-.47-.61-.43.22-1.66.77-2.17.96-.35.14-.68.29-.75.33l-.25-1.29c.51-.09.69-.14,1.52-.44v-3.67h-.46c-.39,0-.71.03-1.04.07v-1.18c.33.05.62.07,1.07.07h.43v-1.69c0-.64-.03-1.04-.08-1.43h1.29c-.06.42-.08.78-.08,1.44v1.68h.26c.47,0,.74-.01.99-.05v1.16c-.36-.04-.62-.05-.98-.05h-.27v3.22c.38-.17.52-.23.92-.44v.81c.82-.52,1.42-1.08,1.79-1.73h-.49c-.55,0-.92.03-1.2.06v-1.1c.29.05.61.06,1.21.06h5.63c.62,0,1.01-.03,1.33-.08v1.11c-.32-.04-.75-.05-1.33-.05h-3.97c-.16.27-.23.38-.47.7h4.21c.62,0,.91-.01,1.27-.05-.04.21-.04.25-.06.78-.1,1.75-.31,3.07-.58,3.56-.26.48-.64.64-1.6.64-.35,0-.73-.01-1.14-.04-.05-.47-.14-.74-.36-1.16.64.09,1.12.13,1.53.13.36,0,.56-.08.64-.23.17-.38.33-1.42.4-2.7h-.64c-.34.77-.75,1.44-1.25,2.01-.4.46-1.1,1.09-1.64,1.48-.32.23-.57.39-1.1.69-.29-.4-.39-.52-.81-.83,1.1-.53,1.64-.88,2.34-1.52.55-.51,1-1.12,1.34-1.83h-.99c-.78,1.24-1.92,2.18-3.59,3-.19-.33-.36-.53-.71-.83,1.44-.6,2.51-1.34,3.12-2.17h-1.17Zm.38-3.28c-.51,0-.9.01-1.18.05.03-.35.05-.71.05-1.22v-1.81c0-.57-.01-.78-.05-1.17.39.05.7.07,1.29.07h3.64c.62,0,1-.01,1.38-.07-.05.36-.05.61-.05,1.25v1.73c0,.57.01.95.05,1.21-.29-.03-.66-.04-1.18-.04h-3.94Zm-.01-2.44h3.95v-.7h-3.95v.7Zm0,1.57h3.95v-.73h-3.95v.73Z" fill="#231815"/>
      <path d="m93.82,320.87c-.91.6-1.42.88-2.34,1.31-.14-.4-.31-.68-.68-1.09,1.22-.49,2.38-1.18,3.41-2.03.91-.75,1.48-1.37,2.02-2.21h1.33c.56.86,1.13,1.46,2.16,2.26,1.07.83,2.16,1.44,3.42,1.92-.3.42-.44.7-.62,1.18-.95-.44-1.47-.74-2.41-1.38v1.04c-.31-.04-.66-.05-1.14-.05h-4.07c-.38,0-.74.01-1.07.05v-1.01Zm-1.16,7.75c.05-.39.08-.78.08-1.31v-2.98c0-.51-.03-.87-.07-1.25.27.04.59.05,1.08.05h6.32c.49,0,.81-.01,1.09-.05-.05.36-.06.71-.06,1.25v2.98c0,.56.01.91.08,1.31h-1.3v-.69h-5.92v.69h-1.3Zm1.3-1.74h5.92v-2.69h-5.92v2.69Zm4.99-6.16c.4,0,.62-.01.9-.03-1.35-.98-2.11-1.69-2.94-2.81-.86,1.21-1.56,1.9-2.83,2.81.27.01.48.03.83.03h4.04Z" fill="#231815"/>
      <path d="m105.1,318.62c.57.13,1.33.2,2.44.2h.29q.03-.29.06-.86c.01-.16.03-.6.03-.74,0-.05,0-.12-.01-.21l1.37.08c-.1.34-.17.74-.25,1.69,2.08-.12,3.93-.38,4.94-.71l.06,1.26c-.18.01-.25.03-.49.07-1.56.25-3.43.44-4.59.47q-.06.96-.08,1.46c.68-.14,1.1-.2,1.72-.2.23,0,.39,0,.73.01.16-.4.25-.74.29-1.05l1.23.35q-.05.12-.19.48c-.09.27-.12.31-.17.47.55.12.92.29,1.38.61.87.61,1.3,1.42,1.3,2.46,0,1.37-.74,2.44-2.16,3.16-.77.39-1.51.58-2.65.71-.14-.49-.23-.7-.58-1.23.79-.03,1.3-.1,1.91-.3,1.4-.48,2.18-1.34,2.18-2.42,0-.94-.62-1.64-1.76-1.99-.77,1.74-1.52,2.86-2.6,3.9-1.04,1-2.02,1.5-2.96,1.5-1.08,0-1.86-.9-1.86-2.14,0-1.04.46-2.04,1.27-2.85.52-.51,1-.83,1.77-1.16q.01-.78.06-1.73h-.42c-.25,0-.48,0-.85-.03-.49-.01-1.07-.04-1.16-.04-.05,0-.14,0-.26.01v-1.22Zm1.46,5.17c-.44.55-.68,1.14-.68,1.73,0,.62.33,1.04.81,1.04.42,0,.82-.17,1.29-.55-.17-.91-.23-1.74-.25-3.19-.56.34-.87.58-1.17.96Zm2.42,1.14q.01.1.03.17t.01.12q.12-.14.21-.26c.77-.91,1.26-1.72,1.73-2.78-.16-.03-.21-.03-.34-.03-.68,0-1.22.09-1.75.29.03,1.35.04,1.85.12,2.5Z" fill="#231815"/>
      <path d="m121,317.13c-.17.44-.21.68-.51,2.73-.1.73-.14,1.08-.17,1.46h.04q.03-.09.09-.33c.17-.68.42-1.21.78-1.72.71-.97,1.55-1.46,2.52-1.46.9,0,1.65.39,2.2,1.16.61.86.87,1.86.87,3.35,0,2.43-1.12,4.26-3.21,5.24-.66.3-1.5.56-2.46.74-.25-.64-.35-.86-.68-1.27,1.29-.16,1.99-.35,2.78-.77,1.52-.81,2.21-2.09,2.21-4.12s-.66-3.05-1.83-3.05c-.57,0-1.03.23-1.52.75-.99,1.07-1.62,2.72-1.62,4.22t.01.3l-1.31.03c.01-.06.01-.12.01-.14v-.26c-.01-.34-.04-1.33-.04-1.55,0-1.03.08-2.46.2-3.33l.21-1.65c.03-.22.04-.27.04-.44l1.39.1Z" fill="#231815"/>
    </g>
    <g>
      <path d="m567.82,486.91c-.06-.31-.16-.68-.26-.94l-.41-1.05h-2.99l-.41,1.05c-.15.39-.21.59-.27.94h-1.26c.15-.27.29-.57.48-1.05l2-5.1c.17-.44.24-.66.29-.88h1.3c.04.2.09.33.31.88l2.01,5.1c.23.56.34.83.47,1.05h-1.25Zm-1.99-5.64q-.04-.09-.18-.54-.15.47-.18.54l-1.03,2.79h2.42l-1.04-2.79Z" fill="#231815"/>
      <path d="m572.74,485.79c0,.48.02.76.07,1.12h-1.15c.04-.26.07-.65.07-1.12v-5.02h-1.29c-.5,0-.85.02-1.15.06v-1.03c.38.04.63.06,1.14.06h3.54c.62,0,.92-.02,1.22-.06v1.03c-.31-.04-.62-.06-1.22-.06h-1.23v5.02Z" fill="#231815"/>
      <path d="m579.22,486.91c-.04-.27-.17-.67-.37-1.11l-1.52-3.51c-.13-.32-.22-.53-.42-1.22.04.43.07,1.07.07,1.3v3.32c0,.56.02.88.07,1.22h-1.08c.05-.36.07-.66.07-1.22v-4.6c0-.52-.02-.87-.07-1.22h1.4c.05.3.17.66.32,1l1.99,4.67,1.98-4.67c.17-.41.25-.68.32-1h1.4c-.05.39-.07.67-.07,1.22v4.6c0,.6.02.89.07,1.22h-1.08c.04-.3.07-.71.07-1.22v-3.37c.03-.63.05-1.04.07-1.25-.11.41-.25.86-.38,1.15l-1.58,3.58c-.19.43-.28.69-.38,1.1h-.89Z" fill="#231815"/>
    </g>
    <g>
      <path d="m664.09,16.54h-5.37v1.43h4.68v7.32c0,.55-.14.81-.54.94-.41.13-1.16.14-2.21.13-.06-.23-.19-.56-.32-.79.44.01.85.03,1.18.03.95,0,1,0,1-.3v-6.5h-8.33v7.54h-.86v-8.36h4.51v-1.43h-5.28v-.83h5.28v-1.46l1.16.08c-.01.09-.09.16-.27.18v1.2h5.37v.83Zm-2.42,7.22h-2.98v2.48h-.83v-2.48h-2.85v-.75h2.85v-1.44h-2.63v-.73h1.43c-.12-.43-.41-1.08-.72-1.55l.69-.19c.33.46.64,1.1.77,1.53l-.66.21h2.9c-.17-.06-.4-.16-.51-.2.27-.44.6-1.14.78-1.61l.94.29c-.04.08-.13.12-.26.12-.21.4-.53.99-.81,1.4h1.75v.73h-2.84v1.44h2.98v.75Z" fill="#231815"/>
      <path d="m676.9,18.97h-5.02c.83,3.11,2.49,5.5,5.23,6.53-.22.19-.5.56-.64.82-2.69-1.12-4.32-3.42-5.27-6.55-.59,2.57-1.99,5.12-5.31,6.56-.13-.23-.4-.55-.62-.74,3.39-1.39,4.66-3.99,5.15-6.62h-4.96v-.9h5.1c.17-1.35.15-2.68.17-3.81l1.21.06c-.01.12-.12.18-.28.22-.01,1.03-.03,2.25-.18,3.52h5.42v.9Z" fill="#231815"/>
      <path d="m678.47,17.92c.85.32,1.9.91,2.43,1.35l-.49.73c-.51-.46-1.55-1.07-2.4-1.43l.46-.65Zm-.1,7.66c.66-1.04,1.61-2.8,2.31-4.3l.66.56c-.64,1.39-1.48,3.03-2.09,4.06.04.06.05.12.05.18,0,.05-.01.09-.04.14l-.89-.64Zm.81-11.21c.83.36,1.86.98,2.38,1.46l-.51.7c-.49-.48-1.5-1.13-2.35-1.53l.49-.62Zm10.01,5.82h-2.93c.69,2.38,1.98,4.45,3.8,5.37-.22.18-.5.53-.64.78-1.97-1.13-3.28-3.42-4.01-6.15h-1.67c-.13,2.07-.62,4.46-2.18,6.16-.14-.17-.51-.42-.72-.52,1.89-2.03,2.08-4.91,2.08-7.1v-3.85h6.27v5.3Zm-5.41-4.45v3.58h4.54v-3.58h-4.54Z" fill="#231815"/>
      <path d="m691.96,22.42c-.06,1.2-.21,2.5-.72,3.22l-.5-.3c.46-.69.62-1.87.67-3.03l.55.1Zm4.02-1.65l.41.06v.26c-.19,3.35-.33,4.51-.67,4.9-.24.29-.5.35-1.08.35-.24,0-.54-.01-.83-.03-.03-.22-.09-.53-.21-.73.49.04.92.05,1.1.05.37,0,.57-.05.75-1.9l-.44.19c-.13-.48-.46-1.21-.78-1.74l.44-.17c.32.51.62,1.18.77,1.64h.01c.05-.56.1-1.26.15-2.15h-3.37v.34h-.75v-7.06h4.79v.75h-1.95v1.25h1.68v.71h-1.68v1.26h1.68v.71h-1.68v1.3h1.46l.18-.03Zm-2.39-5.21h-1.35v1.25h1.35v-1.25Zm0,3.22v-1.26h-1.35v1.26h1.35Zm-1.35.71v1.3h1.35v-1.3h-1.35Zm.27,5.51c.03-.66-.06-1.65-.19-2.43l.48-.06c.15.77.24,1.77.23,2.42l-.51.08Zm1.23-2.68c.28.66.51,1.53.58,2.11l-.49.13c-.05-.57-.28-1.46-.54-2.13l.45-.1Zm8.61-2.21h-2.13c.4,2.51,1.2,4.58,2.71,5.55-.19.16-.46.48-.59.72-1.64-1.2-2.48-3.43-2.89-6.27h-1.31c-.03,1.98-.24,4.52-1.48,6.23-.14-.14-.5-.36-.69-.46,1.25-1.72,1.36-4.17,1.36-6.08v-5h5.02v5.32Zm-.8-4.5h-3.42v3.68h3.42v-3.68Z" fill="#231815"/>
    </g>
    <g>
      <path d="m17.58,38.68v3.22l1.75-.52c.01.08.03.16.1.75-1.49.48-3.07,1-4.06,1.3-.01.1-.09.17-.17.2l-.35-.96c.53-.13,1.17-.31,1.89-.52v-3.47h-1.59v-.82h1.59v-2.93h-1.72v-.83h4.24v.83h-1.68v2.93h1.55v.82h-1.55Zm5.83,5.45h3.6v.81h-8.26v-.81h3.85v-2.01h-3.01v-.79h3.01v-1.52h-2.93v-5.77h6.75v5.77h-3.01v1.52h3.19v.79h-3.19v2.01Zm-2.96-9.33v1.74h2.15v-1.74h-2.15Zm0,4.24h2.15v-1.77h-2.15v1.77Zm5.15-2.5v-1.74h-2.2v1.74h2.2Zm0,2.5v-1.77h-2.2v1.77h2.2Z" fill="#231815"/>
      <path d="m31.82,42.21c-.04.08-.14.12-.28.09-.8.98-1.99,2.04-3.03,2.73-.17-.16-.49-.42-.71-.56,1.04-.64,2.25-1.69,2.99-2.7l1.03.44Zm4.64-3.98c1.17.92,2.58,2.25,3.25,3.15l-.76.53c-.22-.3-.51-.66-.86-1.04-1.3.04-2.63.08-3.91.1v4.37h-.91v-4.34c-1.84.04-3.52.08-4.79.09-.04.1-.12.17-.22.18l-.32-1.05c.82,0,1.83,0,2.94-.01.37-.29.77-.6,1.17-.94-.76-.71-2.02-1.64-3.1-2.27l.59-.55c.3.17.6.36.92.56.59-.58,1.27-1.35,1.79-2.03-1.26.09-2.52.14-3.71.18-.03-.23-.13-.57-.21-.78,3.44-.13,7.58-.44,9.85-.92l.67.78s-.06.04-.12.04-.1-.01-.15-.03c-1.38.27-3.28.49-5.29.65l.26.14c-.05.08-.15.12-.28.09-.55.69-1.41,1.63-2.15,2.31.6.42,1.17.86,1.58,1.25,1.21-1.07,2.43-2.29,3.29-3.3l.94.56c-.05.08-.15.1-.3.1-1.18,1.27-2.96,2.91-4.5,4.13,1.64-.01,3.46-.04,5.22-.07-.51-.52-1.08-1.03-1.61-1.44l.71-.46Zm-.12,3.48c1.12.82,2.56,2,3.28,2.77l-.73.55c-.68-.75-2.09-1.99-3.24-2.83l.69-.48Z" fill="#231815"/>
      <path d="m43.51,38c.4.49,1.48,2.05,1.72,2.43l-.5.69c-.22-.46-.77-1.38-1.22-2.07v6.27h-.82v-6.41c-.46,1.52-1.09,3.02-1.73,3.91-.1-.23-.31-.57-.46-.77.83-1.13,1.68-3.26,2.11-5.12h-1.83v-.82h1.92v-2.86l1.07.08c-.01.08-.08.14-.24.17v2.61h1.63v.82h-1.63v1.07Zm8.47,3.13h-2.3c.78,1.16,2.04,2.39,3.06,3.03-.21.16-.46.46-.62.66-.95-.71-2.12-2-2.93-3.24v3.76h-.83v-3.6c-.85,1.27-2.09,2.48-3.21,3.17-.14-.22-.41-.53-.6-.69,1.2-.62,2.53-1.85,3.34-3.09h-2.22v-4.46h2.7v-1.12h-3.16v-.77h3.16v-1.51l1.09.06c-.01.09-.08.16-.26.18v1.26h3.28v.77h-3.28v1.12h2.79v4.46Zm-5.54-3.77v1.21h1.92v-1.21h-1.92Zm0,1.86v1.23h1.92v-1.23h-1.92Zm4.73-1.86h-1.98v1.21h1.98v-1.21Zm0,3.09v-1.23h-1.98v1.23h1.98Z" fill="#231815"/>
    </g>
    <g>
      <path d="m193,177.44c.36.06.64.08,1.21.08h1.04c.57,0,.77-.01,1.22-.06-.08.79-.1,1.4-.1,2.16v6.46c0,.66.03,1.09.1,1.61h-1.68c.08-.49.1-.96.1-1.61v-7.31h-.65c-.44,0-.81.03-1.25.08v-1.4Z" fill="#231815"/>
      <path d="m201.97,177.44c.36.06.64.08,1.21.08h1.04c.57,0,.77-.01,1.22-.06-.08.79-.1,1.4-.1,2.16v6.46c0,.66.03,1.09.1,1.61h-1.68c.08-.49.1-.96.1-1.61v-7.31h-.65c-.44,0-.81.03-1.25.08v-1.4Z" fill="#231815"/>
      <path d="m211.4,182.05h-1.65v-1.65h1.65v1.65Zm-1.65,5.63v-1.65h1.65v1.65h-1.65Z" fill="#231815"/>
      <path d="m214.15,186.88c-.38-.38-.65-.81-.82-1.26-.34-.92-.51-1.94-.51-3,0-1.36.31-2.79.77-3.56.68-1.12,1.78-1.73,3.16-1.73,1.05,0,1.94.34,2.6,1,.38.38.66.81.82,1.26.34.91.51,1.95.51,3.02,0,1.59-.35,2.99-.94,3.81-.7.98-1.72,1.47-3,1.47-1.05,0-1.92-.34-2.59-1Zm1.07-7.64c-.27.3-.46.64-.56.98-.23.73-.35,1.56-.35,2.43,0,1.14.25,2.35.58,2.92.42.7,1.04,1.05,1.86,1.05.61,0,1.14-.21,1.5-.57.27-.29.48-.65.6-1.05.23-.75.35-1.53.35-2.41,0-1.05-.22-2.25-.53-2.85-.4-.78-1.03-1.17-1.92-1.17-.65,0-1.13.21-1.52.66Z" fill="#231815"/>
      <path d="m223.12,186.88c-.38-.38-.65-.81-.82-1.26-.34-.92-.51-1.94-.51-3,0-1.36.31-2.79.77-3.56.68-1.12,1.78-1.73,3.16-1.73,1.05,0,1.94.34,2.6,1,.38.38.66.81.82,1.26.34.91.51,1.95.51,3.02,0,1.59-.35,2.99-.94,3.81-.7.98-1.72,1.47-3,1.47-1.05,0-1.92-.34-2.59-1Zm1.07-7.64c-.27.3-.46.64-.56.98-.23.73-.35,1.56-.35,2.43,0,1.14.25,2.35.58,2.92.42.7,1.04,1.05,1.86,1.05.61,0,1.14-.21,1.5-.57.27-.29.48-.65.6-1.05.23-.75.35-1.53.35-2.41,0-1.05-.22-2.25-.53-2.85-.4-.78-1.03-1.17-1.92-1.17-.65,0-1.13.21-1.52.66Z" fill="#231815"/>
      <path d="m230.79,182.68c.51-.57.77-.79,1.37-1.14.71-.4,1.24-.56,1.94-.56.58,0,1.12.12,1.65.38q.35.17,1.2.74c1.01.68,1.73.96,2.43.96.36,0,.79-.13,1.22-.38.47-.27.71-.51,1.14-1.05l.88.84c-.53.65-.81.91-1.21,1.21-.65.47-1.36.7-2.16.7-.4,0-.83-.06-1.2-.19-.53-.18-.83-.35-1.78-.99-1.11-.73-1.53-.91-2.29-.91-.87,0-1.46.3-2.33,1.2l-.87-.81Z" fill="#231815"/>
      <path d="m261.12,185.08c0,.64,0,.9.04,1.21h-1.13v-.73h-1.62v1.33h-1.2c.05-.48.08-.92.08-1.51v-6.23c0-.49-.01-.88-.05-1.26.26.03.46.04.95.04h2.05c.49,0,.62,0,.91-.04-.03.33-.03.46-.03,1.26v2.02c.66-.86,1.11-1.7,1.47-2.82.25-.78.36-1.27.38-1.65l1.3.21c-.12.29-.14.36-.25.71-.09.3-.1.33-.3.9h3.28c.55,0,.77-.01.99-.05l.6.71c-.05.09-.16.36-.34.83-.38.96-.88,1.92-1.5,2.8-.35-.29-.57-.42-1.05-.6.7-.88,1.05-1.51,1.47-2.63h-3.81c-.43,1.01-.81,1.66-1.53,2.61-.22-.25-.35-.36-.7-.6v3.48Zm-2.72-.55h1.62v-5.55h-1.62v5.55Zm6.57-4.15c-.04.21-.05.4-.05.9,0,.79.2,1.78.49,2.51.77,1.82,1.87,2.95,3.6,3.68-.25.3-.42.6-.65,1.2-.91-.48-1.61-1.03-2.28-1.77-.75-.83-1.26-1.78-1.66-3.04-.38,1.42-.86,2.34-1.68,3.21-.6.64-1.38,1.22-2.2,1.66-.26-.46-.46-.7-.78-1,1.07-.47,1.87-1.05,2.5-1.85.44-.56.84-1.33,1.13-2.15.26-.77.38-1.57.38-2.55,0-.35-.03-.6-.05-.81h1.25Z" fill="#231815"/>
      <path d="m274.08,184c-.4,0-.66.01-1,.06v-.77c-.81.85-1.59,1.47-2.56,2.07-.22-.4-.43-.64-.86-.98,1.29-.66,2.09-1.26,2.92-2.16h-1.25c-.61,0-1.09.03-1.51.08v-1.12c.39.06.73.08,1.5.08h2.01c.22-.33.34-.53.52-.88h-1.6c-.78,0-1.01.01-1.34.05v-1.03c.34.04.57.05,1.34.05h2.02c.13-.34.18-.47.27-.79h-2.76c-.65,0-.99.01-1.4.06v-1.12c.38.05.79.08,1.48.08h2.94c.09-.42.12-.73.12-1.08l1.29.08c-.01.06-.09.4-.22,1h3.65c.71,0,1.12-.03,1.5-.08v1.12c-.43-.05-.75-.06-1.42-.06h-3.99c-.12.4-.16.52-.26.79h3.74c.81,0,1.03-.01,1.38-.05v1.03c-.34-.04-.56-.05-1.38-.05h-1.76c.2.39.3.57.51.88h2.17c.74,0,1.09-.01,1.47-.08v1.12c-.42-.05-.88-.08-1.48-.08h-1.4c.4.42.88.79,1.51,1.2.43.29.75.44,1.64.84-.36.36-.55.61-.79,1.04-1.05-.6-1.9-1.22-2.65-1.96v.71c-.33-.05-.53-.06-1-.06h-1.21c-.04.53-.05.64-.1.9h2.57c.57,0,.83-.01,1.17-.06v1.05c-.39-.04-.61-.05-1.17-.05h-2.16c.96.94,2.26,1.39,4.75,1.64-.29.4-.44.69-.62,1.16-1.51-.27-2.28-.49-3.13-.91-.81-.4-1.4-.85-1.95-1.48-.48.71-1.13,1.23-2.11,1.69-.66.3-1.5.53-2.59.73-.14-.4-.35-.78-.6-1.09,1.16-.12,1.96-.31,2.69-.62.81-.35,1.27-.68,1.57-1.11h-1.74c-.53,0-.75.01-1.1.05v-1.04c.31.04.53.05,1.09.05h2.13c.05-.29.07-.42.09-.9h-.92Zm-.09-1.77c-.26.34-.42.52-.69.83.21.01.44.03.78.03h3.34c.35,0,.52,0,.72-.03-.31-.32-.44-.48-.72-.83h-3.43Zm1.11-1.85c-.17.36-.29.59-.46.88h2.14c-.18-.34-.22-.4-.44-.88h-1.25Z" fill="#231815"/>
      <path d="m290.02,185.01c1.1,1.04,2.68,1.79,4.73,2.29-.29.36-.48.66-.69,1.11-1.17-.36-1.83-.64-2.64-1.12-.96-.56-1.62-1.12-2.25-1.86q.01.18.03.46c.03.48.03.49.03.6v.79c0,.65.01.95.09,1.35h-1.34c.06-.4.09-.77.09-1.35v-.78c0-.14.03-.68.05-1.04-1.23,1.38-2.44,2.15-4.68,2.94-.22-.44-.39-.68-.74-1.05,1.99-.53,3.46-1.29,4.52-2.33h-2.65c-.69,0-1.13.03-1.51.08v-1.2c.35.05.82.08,1.51.08h3.48c0-.35-.01-.56-.05-.78h1.29c-.04.25-.05.39-.05.78h3.6c.75,0,1.17-.03,1.52-.08v1.2c-.39-.05-.82-.08-1.53-.08h-2.81Zm-3.91-3.44c-.75.51-1.43.88-2.34,1.34-.22.1-.25.12-.52.27l-.46-1.1c.83-.23,1.85-.74,3.03-1.51l.29,1Zm-2.2-4.11c.74.58,1.24,1.07,1.95,1.86l-.79.82c-.66-.81-1.22-1.37-1.95-1.91l.79-.77Zm3.85.55c.22-.51.34-.85.44-1.35l1.21.17c-.3.73-.31.75-.51,1.18h1.17c.49,0,.62,0,.98-.04-.04.32-.04.44-.04,1.04v2.91c0,.57.01.79.04,1.07-.27-.03-.59-.04-.95-.04h-2.77c-.38,0-.71.01-.99.04.03-.31.04-.55.04-1.05v-2.94c0-.57,0-.61-.04-1.03.33.04.49.04,1.01.04h.4Zm-.32,1.98h2.52v-1.03h-2.52v1.03Zm0,2.02h2.52v-1.09h-2.52v1.09Zm4.37-1.39c1.29.64,2,1.04,2.87,1.6l-.65.94c-.96-.7-1.77-1.18-2.82-1.7l.6-.83Zm2.52-2.42c-.9.96-1.5,1.52-2.24,2.08l-.74-.79c.97-.74,1.44-1.21,2.09-2.05l.88.77Z" fill="#231815"/>
      <path d="m296.22,188.63c.05-.39.08-.82.08-1.65v-8.19c0-.64-.03-1.08-.08-1.57.48.05.86.06,1.52.06h7.97c.66,0,1.04-.01,1.53-.06-.06.53-.08.88-.08,1.57v8.22c0,.81.03,1.25.08,1.62h-1.25v-.74h-8.53v.74h-1.25Zm1.25-1.79h8.53v-8.5h-8.53v8.5Zm5.37-7.19c0-.47-.01-.7-.06-.98h1.25c-.05.26-.07.48-.07.98v.62h.48c.47,0,.86-.03,1.09-.06v1.13c-.27-.04-.66-.06-1.12-.06h-.46v3.95c0,.91-.34,1.17-1.56,1.17-.39,0-.6-.01-1.31-.06-.05-.53-.09-.69-.27-1.12.68.1,1.17.16,1.61.16.33,0,.42-.08.42-.34v-3.76h-3.52c-.55,0-.86.01-1.21.06v-1.13c.31.05.58.06,1.21.06h3.52v-.62Zm-2.2,5.06c-.56-1.14-.9-1.66-1.62-2.5l.91-.6c.79.92,1.08,1.34,1.72,2.44l-1,.65Z" fill="#231815"/>
      <path d="m193,200.19c.36.06.64.08,1.21.08h1.04c.57,0,.77-.01,1.22-.06-.08.79-.1,1.4-.1,2.16v6.46c0,.66.03,1.09.1,1.61h-1.68c.08-.49.1-.96.1-1.61v-7.31h-.65c-.44,0-.81.03-1.25.08v-1.4Z" fill="#231815"/>
      <path d="m202.03,207.78c.17.6.32.84.69,1.12.44.33.98.49,1.62.49,1.37,0,2.25-.7,2.25-1.81,0-1.17-.84-1.81-2.39-1.81-.49,0-.85.01-1.26.06v-1.38c.31.05.72.08,1.04.08.66,0,1.26-.13,1.59-.35.48-.31.73-.79.73-1.38,0-1-.69-1.53-1.96-1.53-.71,0-1.24.22-1.57.65-.18.23-.26.42-.38.85l-1.55-.29c.22-.73.43-1.09.84-1.5.64-.62,1.57-.95,2.74-.95,2.05,0,3.38,1.05,3.38,2.68,0,.79-.34,1.5-.91,1.91-.31.23-.59.34-1.24.49.9.12,1.39.34,1.85.83.43.47.62,1.03.62,1.79,0,.7-.29,1.4-.77,1.87-.68.66-1.72,1.01-3.02,1.01-1.43,0-2.46-.38-3.16-1.16-.31-.35-.47-.68-.7-1.38l1.55-.32Z" fill="#231815"/>
      <path d="m211.4,204.8h-1.65v-1.65h1.65v1.65Zm-1.65,5.63v-1.65h1.65v1.65h-1.65Z" fill="#231815"/>
      <path d="m214.15,209.63c-.38-.38-.65-.81-.82-1.26-.34-.92-.51-1.94-.51-3,0-1.36.31-2.79.77-3.56.68-1.12,1.78-1.73,3.16-1.73,1.05,0,1.94.34,2.6,1,.38.38.66.81.82,1.26.34.91.51,1.95.51,3.02,0,1.59-.35,2.99-.94,3.81-.7.98-1.72,1.47-3,1.47-1.05,0-1.92-.34-2.59-1Zm1.07-7.64c-.27.3-.46.64-.56.98-.23.73-.35,1.56-.35,2.43,0,1.14.25,2.35.58,2.92.42.7,1.04,1.05,1.86,1.05.61,0,1.14-.21,1.5-.57.27-.29.48-.65.6-1.05.23-.75.35-1.53.35-2.41,0-1.05-.22-2.25-.53-2.85-.4-.78-1.03-1.17-1.92-1.17-.65,0-1.13.21-1.52.66Z" fill="#231815"/>
      <path d="m223.12,209.63c-.38-.38-.65-.81-.82-1.26-.34-.92-.51-1.94-.51-3,0-1.36.31-2.79.77-3.56.68-1.12,1.78-1.73,3.16-1.73,1.05,0,1.94.34,2.6,1,.38.38.66.81.82,1.26.34.91.51,1.95.51,3.02,0,1.59-.35,2.99-.94,3.81-.7.98-1.72,1.47-3,1.47-1.05,0-1.92-.34-2.59-1Zm1.07-7.64c-.27.3-.46.64-.56.98-.23.73-.35,1.56-.35,2.43,0,1.14.25,2.35.58,2.92.42.7,1.04,1.05,1.86,1.05.61,0,1.14-.21,1.5-.57.27-.29.48-.65.6-1.05.23-.75.35-1.53.35-2.41,0-1.05-.22-2.25-.53-2.85-.4-.78-1.03-1.17-1.92-1.17-.65,0-1.13.21-1.52.66Z" fill="#231815"/>
      <path d="m230.79,205.43c.51-.57.77-.79,1.37-1.14.71-.4,1.24-.56,1.94-.56.58,0,1.12.12,1.65.38q.35.17,1.2.74c1.01.68,1.73.96,2.43.96.36,0,.79-.13,1.22-.38.47-.27.71-.51,1.14-1.05l.88.84c-.53.65-.81.91-1.21,1.21-.65.47-1.36.7-2.16.7-.4,0-.83-.06-1.2-.19-.53-.18-.83-.35-1.78-.99-1.11-.73-1.53-.91-2.29-.91-.87,0-1.46.3-2.33,1.2l-.87-.81Z" fill="#231815"/>
      <path d="m260.23,210.11c0,.56.03.95.08,1.29h-1.2c.05-.35.08-.75.08-1.33v-.75h-1.07c-.57,0-.82.01-1.21.08v-1.12c.36.05.61.06,1.21.06h1.07v-.94h-.6c-.55,0-.9.01-1.31.04.04-.4.05-.84.05-1.43v-2c0-.6-.01-.95-.05-1.38.34.04.68.05,1.31.05h.6v-.96h-1c-.56,0-.85.01-1.22.07v-1.11c.38.07.62.08,1.22.08h1c0-.68-.03-.92-.08-1.29h1.2c-.05.31-.08.65-.08,1.29h.69c.58,0,.83-.01,1.21-.08v1.09c-.39-.04-.62-.05-1.21-.05h-.69v.96h.7c.61,0,.88-.01,1.23-.04-.04.34-.05.61-.05,1.31v.83c.99-.36,1.77-.77,2.51-1.3-.65-.65-1.16-1.4-1.57-2.33-.33,0-.47.01-.68.04v-1.16c.34.05.7.08,1.26.08h3c.43,0,.71-.01.92-.07l.66.7c-.12.17-.2.29-.34.51-.78,1.24-1.01,1.55-1.73,2.24.77.55,1.66.95,2.73,1.22-.31.4-.48.68-.62,1.04-1.3-.51-2.04-.91-2.87-1.57-.86.68-1.59,1.09-2.67,1.57-.18-.38-.36-.64-.61-.88v1.16c0,.62.01,1.07.05,1.4-.4-.04-.61-.04-1.26-.04h-.68v.94h1.14c.56,0,.75-.01,1.08-.05v1.1c-.38-.06-.62-.08-1.12-.08h-1.1v.79Zm-1.96-6.53v.98h.96v-.98h-.96Zm0,1.82v1.1h.96v-1.1h-.96Zm2.92-.84v-.98h-.97v.98h.97Zm0,1.95v-1.1h-.97v1.1h.97Zm5.94.33c.58,0,.82-.01,1.14-.06v1.17c-.35-.05-.64-.06-1.16-.06h-1.31v2.02h1.6c.57,0,.94-.03,1.29-.08v1.21c-.36-.05-.74-.08-1.29-.08h-4.26c-.55,0-.92.03-1.29.08v-1.2c.35.05.66.06,1.24.06h1.62v-2.02h-.92c-.53,0-.86.01-1.2.06v-1.17c.33.05.62.06,1.22.06h.9v-.43c0-.62-.01-.95-.07-1.29h1.22c-.05.32-.07.65-.07,1.29v.43h1.33Zm-2.98-5.68c.31.65.71,1.22,1.22,1.72.61-.57.94-1,1.31-1.72h-2.54Z" fill="#231815"/>
      <path d="m274.98,200.25c0-.29-.03-.55-.08-.85h1.37c-.05.29-.08.53-.08.83v.34h3.07c.7,0,1.16-.03,1.53-.08v1.18c-.4-.04-.78-.05-1.36-.05h-.62c-.38.88-.62,1.39-.86,1.81h2.11c.77,0,1.16-.01,1.51-.06v1.18c-.35-.05-.75-.06-1.52-.06h-8.63c-.77,0-1.14.01-1.51.06v-1.18c.38.05.78.06,1.55.06h1.79c-.17-.6-.42-1.2-.75-1.81h-.6c-.58,0-.9.01-1.31.05v-1.18c.36.05.79.08,1.46.08h2.95v-.32Zm3.69,5.1c.48,0,.72-.01,1.21-.05-.04.4-.05.69-.05,1.1v3.77c0,.51.03.84.08,1.22h-1.25v-.6h-5.92v.6h-1.25c.05-.4.08-.75.08-1.22v-3.77c0-.38-.01-.7-.05-1.1.46.04.74.05,1.21.05h5.94Zm-5.93,2.15h5.92v-1.1h-5.92v1.1Zm0,2.27h5.92v-1.26h-5.92v1.26Zm3.99-6.33c.33-.55.57-1.12.82-1.81h-3.8c.26.53.53,1.21.73,1.81h2.25Z" fill="#231815"/>
      <path d="m289.34,210.2c0,.94-.3,1.13-1.72,1.13-.31,0-.97-.03-1.43-.05-.12-.58-.18-.78-.36-1.16.66.09,1.22.13,1.65.13.58,0,.68-.04.68-.31v-2.2h-3.68c-.65,0-1.12.03-1.5.08v-1.21c.4.05.9.08,1.48.08h3.69v-.14c0-.26-.01-.51-.04-.74h.56c.71-.35,1.23-.7,1.87-1.22h-4.08c-.49,0-.91.03-1.27.06v-1.12c.38.05.78.06,1.3.06h4.46c.48,0,.74-.01.98-.05l.62.68c-.18.17-.31.26-.35.3-1,.86-1.75,1.38-2.86,1.99v.18h3.59c.6,0,1.13-.03,1.51-.08v1.21c-.38-.05-.87-.08-1.52-.08h-3.57v2.46Zm-3.97-8.66c-.34-.61-.53-.9-1.08-1.55l1.11-.34c.48.6.77,1.04,1.24,1.89h1.59c-.2-.57-.47-1.12-.86-1.73l1.14-.31c.49.91.65,1.27.92,2.04h1.23c.56-.7.83-1.16,1.17-2l1.17.38c-.34.6-.75,1.21-1.08,1.62h.75c.83,0,1.08-.01,1.56-.05-.04.33-.05.6-.05,1.08v1.1c0,.34.03.65.07.96h-1.2v-2.09h-8.75v2.09h-1.2c.04-.29.06-.6.06-.96v-1.1c0-.48-.01-.75-.05-1.08.56.05.73.05,1.52.05h.73Z" fill="#231815"/>
      <path d="m301.35,204.35c.57,0,.9-.01,1.16-.06v1.21c-.29-.05-.62-.07-1.11-.07h-4.36c-.61,0-.94.01-1.27.07v-1.21c.33.05.65.06,1.29.06h2.65c.4-.86.59-1.42.79-2.31l1.12.31c-.23.77-.43,1.24-.82,2h.55Zm-.18-3.52c.57,0,.88-.01,1.2-.06v1.18c-.27-.05-.57-.06-1.13-.06h-4.06c-.51,0-.82.01-1.1.06v-1.18c.31.05.61.06,1.22.06h1.43v-.42c0-.38-.03-.69-.08-.94h1.33c-.05.26-.08.55-.08.94v.42h1.27Zm-3.44,10.52h-1.18c.04-.33.05-.64.05-1.2v-2.76c0-.56-.01-.81-.04-1.08.29.03.53.04,1.03.04h3.26c.51,0,.75-.01.94-.04-.04.27-.04.4-.04,1.01v3.03c0,.44.01.69.05.98h-1.2v-.75h-2.87v.77Zm.22-9.35c.34.65.49,1.05.75,1.95l-1.07.34c-.21-.85-.34-1.22-.7-1.94l1.01-.35Zm-.22,7.54h2.89v-2.15h-2.89v2.15Zm9.96-8.97c-.09.18-.13.27-.25.56-.4,1.03-.92,2.11-1.48,3.15.75.83,1.05,1.26,1.34,1.94.23.58.36,1.22.36,1.81,0,.71-.25,1.23-.68,1.5-.29.17-.7.25-1.38.25-.33,0-.49,0-.86-.04-.01-.53-.06-.81-.25-1.18.42.06.73.09,1.11.09.68,0,.91-.18.91-.7,0-.57-.14-1.14-.42-1.72-.31-.62-.62-1.03-1.43-1.77.79-1.43,1.16-2.25,1.55-3.5h-2.12v9.01c0,.7.03,1.1.09,1.5h-1.31c.05-.4.08-.88.08-1.47v-9.02c0-.38-.01-.73-.05-1.12.33.03.62.04,1.05.04h2.2c.49,0,.77-.01,1.01-.05l.52.74Z" fill="#231815"/>
      <path d="m193,222.94c.36.06.64.08,1.21.08h1.04c.57,0,.77-.01,1.22-.06-.08.79-.1,1.4-.1,2.16v6.46c0,.66.03,1.09.1,1.61h-1.68c.08-.49.1-.96.1-1.61v-7.31h-.65c-.44,0-.81.03-1.25.08v-1.4Z" fill="#231815"/>
      <path d="m200.25,229.43q.31-.34.96-1.12l3.16-3.9c.52-.64.73-.92,1.03-1.39h1.46c-.08.75-.09,1.2-.09,2.2v4.26h.48c.53,0,.84-.03,1.33-.09v1.43c-.49-.07-.79-.09-1.33-.09h-.48v1c0,.65.03.99.1,1.46h-1.59c.09-.44.12-.85.12-1.47v-.99h-3.55c-.75,0-1.13.01-1.6.05v-1.35Zm5.15-2.86c0-.65.01-1.07.06-1.64-.26.38-.46.62-.9,1.2l-2.7,3.37h3.54v-2.93Z" fill="#231815"/>
      <path d="m211.4,227.55h-1.65v-1.65h1.65v1.65Zm-1.65,5.63v-1.65h1.65v1.65h-1.65Z" fill="#231815"/>
      <path d="m214.37,230.53c.17.6.32.84.69,1.12.44.32.98.49,1.62.49,1.37,0,2.25-.7,2.25-1.81,0-1.17-.84-1.81-2.39-1.81-.49,0-.84.01-1.26.06v-1.38c.31.05.71.08,1.04.08.66,0,1.26-.13,1.59-.35.48-.31.73-.79.73-1.38,0-1-.69-1.53-1.96-1.53-.71,0-1.24.22-1.57.65-.18.23-.26.42-.38.85l-1.55-.29c.22-.73.43-1.09.84-1.5.64-.62,1.57-.95,2.74-.95,2.05,0,3.38,1.05,3.38,2.68,0,.79-.34,1.5-.91,1.91-.31.23-.58.34-1.23.49.9.12,1.39.34,1.85.83.43.47.62,1.03.62,1.79,0,.7-.29,1.4-.77,1.87-.68.66-1.72,1.01-3.02,1.01-1.43,0-2.46-.38-3.16-1.16-.31-.35-.47-.68-.7-1.38l1.55-.33Z" fill="#231815"/>
      <path d="m223.12,232.38c-.38-.38-.65-.81-.82-1.26-.34-.92-.51-1.94-.51-3,0-1.36.31-2.79.77-3.56.68-1.12,1.78-1.73,3.16-1.73,1.05,0,1.94.34,2.6,1,.38.38.66.81.82,1.26.34.91.51,1.95.51,3.02,0,1.59-.35,2.99-.94,3.81-.7.97-1.72,1.47-3,1.47-1.05,0-1.92-.34-2.59-1Zm1.07-7.64c-.27.3-.46.64-.56.98-.23.73-.35,1.56-.35,2.43,0,1.14.25,2.35.58,2.93.42.7,1.04,1.05,1.86,1.05.61,0,1.14-.21,1.5-.57.27-.29.48-.65.6-1.05.23-.75.35-1.53.35-2.41,0-1.05-.22-2.25-.53-2.85-.4-.78-1.03-1.17-1.92-1.17-.65,0-1.13.21-1.52.66Z" fill="#231815"/>
      <path d="m230.79,228.18c.51-.57.77-.79,1.37-1.14.71-.4,1.24-.56,1.94-.56.58,0,1.12.12,1.65.38q.35.17,1.2.74c1.01.68,1.73.96,2.43.96.36,0,.79-.13,1.22-.38.47-.27.71-.51,1.14-1.05l.88.84c-.53.65-.81.91-1.21,1.21-.65.47-1.36.7-2.16.7-.4,0-.83-.06-1.2-.19-.53-.18-.83-.35-1.78-.99-1.11-.73-1.53-.91-2.29-.91-.87,0-1.46.3-2.33,1.2l-.87-.81Z" fill="#231815"/>
      <path d="m267.59,224.4q-.12.21-.31.91c-.66,2.46-1.66,4.24-3.24,5.69-1.17,1.11-2.31,1.81-4.13,2.56-.29-.58-.44-.79-.94-1.29,1.16-.35,1.91-.7,2.89-1.35,2.05-1.35,3.33-3.21,4-5.86h-6.2c-.87,0-1.24.01-1.73.08v-1.44c.52.08.88.09,1.75.09h5.97c.66,0,.83-.01,1.17-.12l.77.73Z" fill="#231815"/>
      <path d="m272.67,227.78c-.52,0-.78.01-1.17.06v-1.21c.39.06.57.08,1.17.08h3.8v-.77c-.01-.53-.01-.7-.07-1.08h1.27c-.03.26-.04.46-.04.85v1.01h1.2c.6,0,.83-.01,1.17-.08v1.2c-.34-.04-.62-.05-1.17-.05h-1.17l.05,4.78c.01.6.04.94.09,1.27h-1.35c.04-.29.05-.65.05-1.13v-.17l-.03-3.24c0-.13.01-.61.03-.75q-.03.05-.09.17c-.22.44-.69,1.04-1.22,1.59-.94.96-2.01,1.74-3.46,2.52-.26-.47-.39-.62-.81-1.01,1.98-.88,3.86-2.47,4.82-4.04h-3.08Z" fill="#231815"/>
      <path d="m283.22,227.37c.48.06,1.04.09,2,.09h7.03c1.12,0,1.43-.01,1.94-.08v1.51c-.57-.05-.99-.06-1.95-.06h-7.01c-1.09,0-1.48.01-2.02.06v-1.52Z" fill="#231815"/>
      <path d="m301.99,222.78q-.1.14-.27.49c-.27.6-.36.81-.53,1.09.1-.01.29-.03.56-.04l3.09-.04c.48,0,.6-.03.83-.1l.73.7c-.13.17-.17.26-.3.72-.58,1.94-1.52,3.68-2.64,4.97-1.2,1.37-2.64,2.41-4.59,3.28-.3-.53-.44-.72-.91-1.12,1.98-.81,3.28-1.7,4.5-3.11.96-1.1,1.72-2.52,2.21-4.13l-4.11.06c-.87,1.34-1.86,2.41-3.06,3.33-.34-.46-.49-.6-1.05-.94,1.44-.98,2.39-2.03,3.33-3.69.44-.79.66-1.33.73-1.79l1.48.32Z" fill="#231815"/>
      <path d="m311.24,223.54c.79,1.38,1.17,2.25,1.74,4.08l-1.4.52c-.36-1.47-.99-3.03-1.66-4.13l1.33-.47Zm8.14.31c-.12.3-.13.35-.34,1.26-.53,2.37-1.56,4.46-2.93,5.98-1,1.12-2.09,1.94-3.63,2.7-.36-.58-.52-.77-.99-1.16,1.5-.65,2.54-1.36,3.54-2.43,1.29-1.38,2.18-3.26,2.68-5.6.1-.49.14-.73.16-1.12l1.51.36Z" fill="#231815"/>
      <path d="m322.87,231.73c1.05-.04,2.63-.44,3.82-.98,1.62-.71,2.85-1.7,3.87-3.16.58-.86.96-1.56,1.37-2.63.43.53.6.69,1.13,1.07-1.08,2.35-2.3,3.86-4.06,5.04-1.31.9-2.92,1.53-4.91,1.95-.49.1-.55.12-.82.21l-.4-1.51Zm.99-8.06c1.48.92,2.3,1.55,3.28,2.48l-.94,1.16c-1-1.07-2.05-1.91-3.24-2.6l.9-1.04Z" fill="#231815"/>
      <path d="m340.48,222.82q-.1.14-.27.49c-.27.6-.36.81-.53,1.09.1-.01.29-.04.56-.04l2.59-.04c.48-.01.6-.03.83-.1l1.09,1.16c-.13.17-.16.26-.3.71-.4,1.3-1.38,3.22-2.5,4.51-1.2,1.36-2.64,2.41-4.59,3.28-.3-.53-.44-.71-.91-1.12,1.98-.81,3.28-1.7,4.5-3.11.96-1.1,1.72-2.52,2.21-4.13l-4.11.06c-.87,1.34-1.86,2.41-3.06,3.33-.34-.46-.49-.6-1.05-.94,1.44-.98,2.39-2.03,3.33-3.69.44-.79.66-1.33.73-1.79l1.48.33Zm3.83-.38c.61.69.9,1.1,1.35,1.95l-.81.44c-.43-.81-.79-1.35-1.35-1.99l.81-.4Zm1.52-.74c.62.69.9,1.08,1.34,1.9l-.79.46c-.4-.75-.77-1.3-1.33-1.95l.78-.4Z" fill="#231815"/>
      <path d="m349.04,223.81c-.47,0-.77.01-1.11.07v-1.18c.35.05.72.08,1.21.08h2.22c.52,0,.82-.01,1.18-.08v1.17c-.35-.04-.65-.05-1.09-.05h-.73c-.17,1.12-.39,1.91-.85,3h1.6c.4,0,.55-.01.78-.04-.03.31-.03.48-.03.99v4.29c0,.51,0,.72.04,1.04h-1.11v-.61h-1.31v1.33h-1.18c.05-.35.08-.74.08-1.3v-2.59c0-.47,0-.75.04-1.34-.23.51-.46.84-.88,1.37-.16-.65-.26-.91-.49-1.27.74-.77,1.24-1.65,1.7-2.99.23-.66.33-1.08.44-1.87h-.52Zm.81,7.67h1.34v-3.68h-1.34v3.68Zm4.34-4.63v-3.07c-.56,0-.83.01-1.2.06v-1.2c.27.05.71.08,1.39.08h3.89c.58,0,.97-.03,1.37-.08v1.2c-.38-.05-.68-.06-1.29-.06h-.12v3.29h.23c.64,0,.94-.01,1.3-.06v1.24c-.38-.05-.69-.07-1.3-.07h-.23v4.42c0,.55.03.99.08,1.52h-1.33c.07-.56.09-.92.09-1.52v-4.42h-1.75c-.07,1.27-.17,2.03-.39,2.86-.35,1.33-.81,2.22-1.62,3.21-.31-.36-.58-.57-1.04-.79.81-.88,1.27-1.75,1.6-2.96.17-.65.25-1.27.3-2.31h-.14c-.61,0-.9.01-1.29.07v-1.24c.36.05.65.06,1.29.06h.17v-.22Zm2.89.22v-3.29h-1.73v3.29h1.73Z" fill="#231815"/>
      <path d="m368.09,228.66c.68,0,.96-.01,1.42-.07-.04.35-.05.56-.05,1.17l-.05,2.6c-.01.35.12.42.83.42.92,0,1.11-.05,1.2-.3.1-.29.17-1.03.2-1.99.43.21.61.27,1.14.39-.21,2.9-.27,2.98-2.59,2.98-1.57,0-1.94-.21-1.94-1.14v-.06l.04-2.91h-2.13c-.26,1.04-.62,1.72-1.29,2.41-.79.82-1.92,1.49-3.3,2-.22-.47-.35-.64-.74-1.07,1.43-.47,2.48-1,3.13-1.62.49-.46.82-1.01,1.01-1.72h-1.9c-.7,0-1.08.01-1.43.08v-1.24c.36.05.75.08,1.4.08h2.15c.04-.48.07-.68.07-.92s-.03-.48-.05-.73h1.31c-.05.27-.05.31-.1.98-.01.25-.03.42-.06.68h1.74Zm-2.09-5.5c0-.38-.03-.6-.08-.88h1.34c-.05.26-.07.48-.07.88v.34h3.72c.55,0,.88-.01,1.39-.07-.04.27-.05.52-.05.94v.82c0,.4.01.65.05.95h-.91c-.17,1.24-.38,1.34-2.54,1.34-1.35,0-1.7-.18-1.7-.86v-2.07h-1.29c-.16.77-.29,1.13-.6,1.59-.46.69-1.03,1.11-1.99,1.46-.31.12-.57.2-1.25.39-.2-.36-.35-.6-.66-1,1.48-.29,2.08-.51,2.6-.98.42-.38.62-.79.71-1.46h-2.41v1.57h-1.2c.04-.3.07-.55.07-.95v-.81c0-.4-.01-.65-.05-.94.49.05.82.07,1.38.07h3.52v-.34Zm5.11,1.39h-2.85v1.6c0,.31.09.34,1.04.34s1.01-.08,1.04-1.08c.3.13.42.17.77.23v-1.09Z" fill="#231815"/>
      <path d="m376.49,226.33c-.77.52-1.31.83-2.18,1.22-.18-.44-.39-.77-.68-1.09,2.42-.99,4.26-2.41,5.4-4.16h1.29c.65.94,1.2,1.5,2.18,2.22,1.13.83,2.26,1.46,3.45,1.89-.3.42-.49.81-.64,1.21-.84-.39-1.4-.69-2.33-1.3v1.05c-.34-.04-.66-.05-1.14-.05h-4.28c-.36,0-.75.01-1.07.05v-1.04Zm-.78,3.39c-.66,0-1.09.03-1.51.08v-1.27c.42.05.88.08,1.51.08h8.06c.65,0,1.11-.03,1.51-.08v1.27c-.43-.05-.86-.08-1.51-.08h-4.55c-.49,1.12-.91,1.9-1.47,2.76q3.04-.23,4.51-.4c-.55-.61-.81-.88-1.42-1.48l1-.53c1.51,1.51,2.25,2.34,3.05,3.44l-1.03.72c-.42-.64-.57-.85-.83-1.2-2.16.29-4.63.53-6.57.68-1.05.08-1.56.13-1.89.2l-.19-1.33c.29.01.55.03.73.03.1,0,.3-.01.6-.03q.12,0,.64-.03c.64-.97,1.08-1.82,1.5-2.82h-2.15Zm6.12-3.52c.38,0,.64-.01.91-.03-1.39-.95-2.21-1.7-3.04-2.82-.77,1.05-1.62,1.86-2.98,2.82.29.03.46.03.84.03h4.26Z" fill="#231815"/>
    </g>
  </g>
</svg>