<?xml version="1.0" encoding="UTF-8"?>
<svg xmlns="http://www.w3.org/2000/svg" width="661.11" height="506.06" viewBox="0 0 661.11 506.06">
  <g id="_背景" data-name="背景">
    <polyline id="base" points=".5 0 660.5 0 660.5 506.06 .5 506.06" fill="#dcdddd"/>
  </g>
  <g id="unavailable">
    <rect id="soranomado" x=".5" y="14.5" width="189.98" height="307.79" fill="#929292" stroke="#283331" stroke-miterlimit="10"/>
  </g>
  <g id="MLOC-buildings">
    <rect id="hall-building1" x="475.29" y="373.9" width="185.44" height="130.62" fill="#929292" stroke="#283331" stroke-miterlimit="10" stroke-width=".77"/>
    <polyline id="s-hall" points="445.65 49.04 630.87 49.04 630.87 167.39 445.65 167.39 445.65 49.04" fill="#aedef8" stroke="#283331" stroke-miterlimit="10" stroke-width=".68"/>
    <polyline id="b-hall" points="445.86 172.09 631.07 172.09 631.07 290.44 445.86 290.44 445.86 172.09" fill="#aedef8" stroke="#283331" stroke-miterlimit="10" stroke-width=".68"/>
  </g>
  <g id="MNOINT-word">
    <g>
      <path d="m74.68,166.28c.56.1.98.12,1.86.12h1.6c.88,0,1.18-.02,1.88-.1-.12,1.22-.16,2.16-.16,3.32v9.94c0,1.02.04,1.68.16,2.48h-2.58c.12-.76.16-1.48.16-2.48v-11.24h-1c-.68,0-1.24.04-1.92.12v-2.16Z" fill="#231815"/>
      <path d="m93.52,174.46c-.9,0-1.64.04-2.22.12v-1.84c.54.08,1.24.12,2.24.12h13.62c.98,0,1.7-.04,2.24-.12v1.84c-.6-.08-1.32-.12-2.24-.12h-9.12c-.3.74-.46,1.1-.78,1.72h7.46c1.08,0,1.62-.02,2.12-.08-.02.2-.1.78-.16,1.32-.16,1.42-.5,3.16-.74,3.9-.3.96-.64,1.4-1.32,1.7-.52.24-1.04.3-2.24.3-1.06,0-1.72-.04-3.14-.14-.02-.58-.14-1.12-.44-1.82,1.3.18,2.76.3,3.58.3.94,0,1.32-.12,1.54-.46.34-.5.56-1.48.82-3.48h-8.3c-.28.52-.48.82-1,1.6l-1.98-.38c1.18-1.56,1.94-2.86,2.62-4.48h-2.56Zm.38-7.1c0-.66-.02-1.08-.08-1.6.74.08,1.36.1,2.26.1h8.5c1.12,0,1.72-.02,2.26-.1-.06.48-.08.98-.08,1.6v2.6c0,.66.02,1.1.08,1.6-.58-.06-1.08-.08-2.08-.08h-8.86c-.96,0-1.5.02-2.08.08.06-.56.08-.96.08-1.6v-2.6Zm1.78.08v2.5h9.26v-2.5h-9.26Z" fill="#231815"/>
      <path d="m118.38,182.96c-.32-.76-.48-1.14-.68-1.58-1.06.4-2.36.78-5.38,1.6-.22.04-.46.12-.64.2l-.46-1.84q.54-.04,1.34-.2v-8.92c0-.88-.02-1.2-.06-1.64-.24.18-.36.28-.72.54-.24-.76-.42-1.16-.82-1.72,1.16-.76,1.6-1.12,2.52-2.02.72-.72,1.22-1.38,1.58-2.08h1.68c.54,1,1.48,2,2.78,3v-.12c0-.52-.02-.84-.06-1.18.48.04.9.06,1.74.06h2.06v-.4c0-.54-.04-.96-.12-1.42h2c-.08.42-.1.78-.1,1.42v.4h2.24c.8,0,1.5-.04,2.06-.1-.04.4-.06.82-.06,1.38v1.34c0,.56.02.98.06,1.32h-1.46v2.9c0,.74.02,1.16.06,1.5-.46-.04-.92-.06-1.58-.06h-4.2v1.68h4.94c.72,0,1.2-.02,1.62-.08-.04.48-.06.94-.06,1.64v3.16c0,.88.02,1.36.08,1.86h-1.8v-1.04h-4.76v1.08h-1.82c.06-.48.1-1,.1-1.82v-9.86c0-.52,0-.64-.02-1h-.98c.04-.4.06-.76.06-1.2v-1.18c-.42.48-.62.78-.82,1.3-1.28-1.08-1.94-1.78-2.74-2.94-1,1.4-2,2.46-3.4,3.58.28.02.74.04,1.42.04h1.08v-.7c0-.44-.02-.72-.1-1.08h1.72c-.06.32-.08.62-.08,1.1v.68h.8c.78,0,1.22-.02,1.6-.08-.04.5-.06.98-.06,1.7v3.48c0,.76.02,1.26.04,1.68-.36-.04-.72-.06-1.3-.06h-3.44v3.52c1.28-.32,1.86-.5,2.76-.8-.4-.74-.5-.92-.98-1.64l1.38-.62c.8,1.14,1.36,2.14,2.48,4.36l-1.5.86Zm-1.06-9.78v-1.26h-3.08v1.26h3.08Zm-3.08,2.72h3.08v-1.36h-3.08v1.36Zm13.36-7.26h-6.38v1.58c.3.02.44.02.76.02h4.28c.62,0,.88,0,1.34-.04v-1.56Zm-5.42,5.22h4v-2.18h-4v2.18Zm0,7.16h4.76v-2.48h-4.76v2.48Z" fill="#231815"/>
    </g>
    <g>
      <path d="m531.56,440.68c-1.02,0-1.62.04-2.16.12v-1.9c.6.1,1.08.12,2.02.12h9.98c.9,0,1.66-.04,2.24-.12v1.9c-.58-.08-1.28-.12-2.2-.12h-4.14v3.32h5.7c.98,0,1.84-.04,2.34-.12v1.92c-.66-.1-1.4-.14-2.34-.14h-12.92c-.98,0-1.74.04-2.4.14v-1.92c.44.06,1.54.12,2.4.12h5.38v-3.32h-3.9Zm3.86-11.22c0-.56-.04-.92-.12-1.36h2.08c-.08.38-.12.8-.12,1.36v.8h5.6c.88,0,1.42-.02,2.14-.1-.06.44-.08.82-.08,1.44v.9c0,.56.02.96.1,1.44h-1.86v-2.06h-4.18v3.32c0,.26.04.32.24.4.2.06.66.1,1.44.1,1,0,1.7-.06,1.9-.16.28-.12.38-.42.4-1.28.62.3,1,.42,1.7.56-.2,2.26-.56,2.46-4.22,2.46-2.7,0-3.2-.22-3.2-1.42v-3.98h-2.04c-.1,1.64-.52,2.84-1.38,3.8-1,1.12-2.24,1.8-4.92,2.68-.26-.58-.6-1.06-1.08-1.58,2.36-.52,3.58-1.1,4.58-2.12.68-.7.94-1.38,1.04-2.78h-3.56v2.7h-1.86c.08-.54.1-1,.1-1.6v-1.38c0-.6-.02-1-.08-1.44.72.08,1.26.1,2.12.1h5.26v-.8Z" fill="#231815"/>
      <path d="m555.76,439.98c-1.16,2.64-2.38,3.8-3.94,3.8-2.12,0-3.68-2.22-3.68-5.26,0-2.14.76-4.16,2.16-5.7,1.64-1.8,3.94-2.74,6.72-2.74,4.66,0,7.72,2.86,7.72,7.18,0,3.34-1.76,6.02-4.76,7.26-.94.38-1.72.6-3.08.86-.3-.92-.48-1.26-1.02-1.96,1.56-.24,2.46-.46,3.32-.82,2.14-.92,3.48-3.02,3.48-5.44,0-2.08-.98-3.74-2.74-4.68-.68-.36-1.22-.5-2.14-.56-.36,2.98-1.08,5.9-2.04,8.06Zm-2.74-7.08c-1.82,1.22-2.94,3.36-2.94,5.64,0,1.74.76,3.12,1.72,3.12.72,0,1.46-.88,2.24-2.7.78-1.84,1.46-4.64,1.72-7.02-1.1.12-1.88.38-2.74.96Z" fill="#231815"/>
      <path d="m581.18,429.1c.94,0,1.54-.02,2.12-.1-.06.68-.1,1.26-.1,1.96v13.08c0,1,.04,1.66.12,2.32h-2.02v-1.22h-9.74v1.22h-2.02c.08-.64.12-1.28.12-2.2v-13.1c0-.8-.04-1.44-.1-2.06.64.08,1.28.1,2.2.1h9.42Zm.12,4.66v-2.9h-9.74v2.9h9.74Zm-9.74,4.68h9.74v-2.94h-9.74v2.94Zm0,4.94h9.74v-3.2h-9.74v3.2Z" fill="#231815"/>
      <path d="m590.12,444.02c0,1.16.04,1.82.12,2.38h-2.02c.08-.62.12-1.26.12-2.38v-13.06c0-1.04-.02-1.6-.08-2.24.54.06,1.06.08,2.08.08h3.26c1.02,0,1.48-.02,2.04-.08-.04.54-.06,1.1-.06,1.88v3.66c0,.86.02,1.36.06,1.82-.52-.04-1.16-.06-1.92-.06h-3.6v8Zm0-12.3h3.82v-1.46h-3.82v1.46Zm0,2.9h3.82v-1.52h-3.82v1.52Zm14.52,9.46c0,1.66-.5,2.04-2.74,2.04-.66,0-1.16-.02-2.08-.04-.1-.78-.22-1.2-.46-1.84,1.16.14,1.88.2,2.6.2s.9-.1.9-.52v-7.9h-3.8c-.8,0-1.48.02-1.92.06.04-.48.06-1.02.06-1.82v-3.66c0-.7-.02-1.24-.06-1.88.54.06,1.02.08,2.04.08h3.46c1.02,0,1.54-.02,2.1-.08-.08.68-.1,1.26-.1,2.22v13.14Zm-5.8-12.36h4.02v-1.46h-4.02v1.46Zm0,2.9h4.02v-1.52h-4.02v1.52Z" fill="#231815"/>
    </g>
    <g>
      <path d="m388.09,165.81c.53.1,1.01.12,1.87.12h3.77c.96,0,1.3-.02,1.85-.1v2.09c-.55-.07-.79-.1-1.73-.1h-3.89c-.82,0-1.3.02-1.87.1v-2.11Zm.62,17.98c.1-.67.14-1.42.14-2.35v-3.31c0-.89-.02-1.44-.12-2.06.6.05.98.07,1.68.07h3.34c.74,0,1.1-.02,1.54-.1-.07.62-.07.84-.07,1.92v3.6c0,.72.02,1.34.07,1.8h-1.85v-.82h-2.74v1.25h-1.99Zm.14-21.31c.6.1.96.12,1.87.12h2.54c.91,0,1.27-.02,1.87-.12v2.04c-.58-.07-1.06-.1-1.87-.1h-2.54c-.77,0-1.32.02-1.87.1v-2.04Zm.1,6.86c.48.05.82.07,1.58.07h3.1c.77,0,1.06-.02,1.54-.07v1.92c-.58-.05-.84-.07-1.54-.07h-3.1c-.74,0-1.06.02-1.58.07v-1.92Zm0,3.29c.46.05.77.07,1.58.07h3.1c.77,0,1.1-.02,1.54-.07v1.99c-.43-.07-.74-.1-1.56-.1h-3.1c-.72,0-1.08.02-1.56.07v-1.97Zm1.7,8.16h2.78v-2.95h-2.78v2.95Zm7.3-9.94c-.98,0-1.42.02-2.09.12v-1.87c.65.1,1.13.12,2.09.12h1.2v-1.3h-.7c-.77,0-1.34.02-1.82.1v-1.73c.46.07,1.03.1,1.82.1h.7v-1.22h-1.15c-.82,0-1.32.02-1.9.1v-1.82c.55.1,1.03.12,1.94.12h1.1c0-.86-.02-1.27-.14-1.7h2.18c-.12.46-.14.84-.14,1.7h3.22c0-1.03-.02-1.27-.14-1.7h2.18c-.1.48-.14.91-.14,1.7h1.54c.89,0,1.34-.02,1.87-.12v1.82c-.6-.07-1.08-.1-1.85-.1h-1.56v1.22h1.08c.84,0,1.22-.02,1.78-.1v1.73c-.48-.07-1.06-.1-1.8-.1h-1.06v1.3h1.75c1.03,0,1.51-.02,2.06-.12v1.87c-.6-.1-1.06-.12-2.06-.12h-4.32v1.25h2.81c.91,0,1.75-.05,2.3-.12-.07.38-.07.6-.1.82,0,.29,0,.82-.02,1.58v3.74c.79-.02.96-.02,1.44-.12v1.92c-.48-.07-.82-.1-1.44-.12v1.68c0,1.63-.53,2.02-2.88,2.02-.46,0-1.25-.02-2.09-.07-.07-.72-.12-1.01-.36-1.85,1.03.12,1.68.17,2.54.17.7,0,.86-.12.86-.6v-1.34h-7.83v1.13c0,1.61.02,2.04.1,2.83h-2.14c.1-.79.12-1.44.12-2.83v-1.13c-.58.02-.82.05-1.15.1v-1.87c.34.05.58.07,1.15.1v-3.84c0-.96-.02-1.63-.1-2.26.6.05,1.22.07,2.42.07h2.52v-1.25h-3.82Zm3.82,2.86h-2.93v1.39h2.93v-1.39Zm0,2.9h-2.93v1.51h2.93v-1.51Zm2.5-10.23v-1.22h-3.22v1.22h3.22Zm0,2.83v-1.3h-3.22v1.3h3.22Zm2.4,5.88v-1.39h-3.07v1.39h3.07Zm0,3.02v-1.51h-3.07v1.51h3.07Z" fill="#231815"/>
      <path d="m418.62,175.12c-1.08,0-1.68.02-2.23.1.05-.53.07-.94.07-2.14v-1.99c0-.79-.02-1.34-.07-1.85.58.05,1.13.07,1.8.07h9.75c.79,0,1.3-.02,1.73-.07-.05.46-.07.84-.07,1.9v1.94c0,1.37,0,1.7.07,2.14-.65-.07-1.44-.1-2.38-.1h-3.38v1.82h5.59c1.06,0,1.63-.02,2.3-.12v2.14c-.67-.1-1.22-.12-2.3-.12h-5.59v2.38h7.13c1.13,0,1.92-.05,2.62-.14v2.23c-.79-.12-1.61-.17-2.62-.17h-15.99c-1.01,0-1.85.05-2.67.17v-2.23c.62.1,1.56.14,2.67.14h6.72v-2.38h-5.18c-1.08,0-1.68.02-2.33.12v-2.14c.7.1,1.3.12,2.33.12h5.18v-1.82h-3.14Zm3.12-11.4c0-.72-.05-1.27-.12-1.85h2.4c-.1.58-.12,1.1-.12,1.85v2.06h2.62c1.03-1.46,1.32-1.99,2.09-3.65l2.09.98q-.29.41-1.2,1.8c-.14.19-.34.46-.67.86h1.9c1.13,0,1.87-.02,2.59-.1-.07.67-.1,1.32-.1,2.21v1.97c0,.58.05,1.08.12,1.58h-2.11v-3.79h-16.35v3.74h-2.09c.07-.6.1-1.08.1-1.61v-2.14c0-.77-.02-1.39-.1-1.97.67.07,1.37.1,2.5.1h2.04c-.53-.91-1.22-1.8-1.99-2.64l1.82-.89c1.37,1.68,1.63,2.06,2.47,3.53h2.11v-2.06Zm-3.19,9.65h8.95v-2.28h-8.95v2.28Z" fill="#231815"/>
    </g>
    <g>
      <path d="m452.24,55.89q-.1.34-.22.88c-.63,2.65-1.23,4.13-2.48,6-.45-.41-.76-.62-1.23-.84.97-1.29,1.67-2.72,2.12-4.33.24-.85.35-1.47.39-2.07l1.43.36Zm3.5-3.39c-.06.41-.08.9-.08,1.6v9.4c0,1.09-.41,1.41-1.82,1.41-.52,0-1.13-.03-1.85-.1-.06-.55-.15-.87-.36-1.39.88.15,1.47.21,2.03.21.48,0,.62-.07.62-.35v-9.2c0-.66-.03-1.15-.08-1.58h1.55Zm3.12,2.96c.08.77.29,1.49.73,2.63.52,1.39,1.19,2.59,2.09,3.75-.63.39-.74.48-1.16.92-1.23-1.72-1.96-3.24-2.59-5.41l-.42-1.51,1.36-.39Z" fill="#231815"/>
      <path d="m466.53,57.81q-.04.13-.24.91c-.24.91-.59,1.88-1.04,2.79-.41.84-.7,1.32-1.28,2.09-.55-.42-.74-.53-1.34-.78.91-1.04,1.46-2,2-3.59.27-.76.38-1.23.43-1.79l1.46.38Zm1.64-3.64c0-.71-.01-1.08-.08-1.44h1.61c-.06.42-.07.8-.07,1.47v.81h3.24c.88,0,1.32-.03,1.82-.1v1.48c-.67-.07-.9-.08-1.79-.08h-3.26v6.7c0,.94.01,1.19.08,1.69h-1.62c.07-.46.08-.85.08-1.69v-6.7h-3.19c-.87,0-1.19.01-1.75.07v-1.47c.53.07.97.1,1.78.1h3.17v-.84Zm4.46,3.28c.1.45.21.83.5,1.57.63,1.67,1.18,2.66,2.06,3.75-.6.32-.78.43-1.32.85-1.08-1.62-1.69-2.96-2.4-5.18-.11-.36-.14-.43-.24-.64l1.39-.35Z" fill="#231815"/>
      <path d="m477.03,57.86c.52.07,1.12.1,2.16.1h7.58c1.21,0,1.54-.01,2.09-.08v1.62c-.62-.06-1.06-.07-2.1-.07h-7.55c-1.18,0-1.6.01-2.17.07v-1.64Z" fill="#231815"/>
      <path d="m495.01,53.29q-.06.36-.14,3.11c-.1,2.69-.41,4.2-1.15,5.63-.48.92-1.01,1.61-1.95,2.52-.42-.56-.62-.74-1.18-1.12,1.11-.9,1.79-1.88,2.26-3.21.42-1.25.6-3.01.6-5.9,0-.59-.01-.78-.04-1.12l1.6.08Zm3.61-.17c-.07.48-.08.7-.08,1.69l-.08,7.77c1.06-.45,1.68-.88,2.33-1.61.7-.77,1.18-1.61,1.5-2.66.41.53.56.69,1.11,1.12-.57,1.33-1.27,2.35-2.16,3.15-.8.71-1.55,1.13-3,1.7-.27.1-.42.17-.57.25l-.76-.83c.08-.34.1-.56.11-1.28l.07-7.63v-.34c0-.73-.01-1-.07-1.36h1.61Z" fill="#231815"/>
    </g>
    <g>
      <path d="m458.24,181.26c.35,1.36,1.01,2.65,1.93,3.78,1.11,1.34,2.27,2.18,4.03,2.91-.41.46-.55.69-.87,1.34-1.6-.84-2.65-1.62-3.66-2.79-.88-1.01-1.53-2.13-2.03-3.53-.42,1.65-1.23,3.03-2.49,4.24-.9.87-1.88,1.5-3.21,2.09-.27-.57-.41-.77-.83-1.23,1.7-.69,2.84-1.46,3.77-2.55.98-1.15,1.48-2.41,1.74-4.27h-3.5c-.83,0-1.25.03-1.68.1v-1.5c.41.07.9.1,1.7.1h3.61c.03-.69.04-1.04.04-1.58,0-.67-.03-1.15-.1-1.54h1.57c-.07.49-.1.76-.1,1.58-.01.66-.01,1.01-.04,1.54h3.92c.77,0,1.26-.03,1.68-.1v1.5c-.48-.07-.92-.1-1.67-.1h-3.82Z" fill="#231815"/>
      <path d="m469.19,182.09q-.04.13-.24.91c-.24.91-.59,1.88-1.04,2.79-.41.84-.7,1.32-1.28,2.09-.55-.42-.74-.53-1.34-.78.91-1.04,1.46-2,2-3.59.27-.76.38-1.23.43-1.79l1.46.38Zm1.64-3.64c0-.71-.01-1.08-.08-1.44h1.61c-.06.42-.07.8-.07,1.47v.81h3.24c.88,0,1.32-.03,1.82-.1v1.48c-.67-.07-.9-.08-1.79-.08h-3.26v6.7c0,.94.01,1.19.08,1.69h-1.62c.07-.46.08-.85.08-1.69v-6.7h-3.19c-.87,0-1.19.01-1.75.07v-1.47c.53.07.97.1,1.78.1h3.17v-.84Zm4.46,3.28c.1.45.21.83.5,1.57.63,1.67,1.18,2.66,2.06,3.75-.6.32-.78.43-1.32.85-1.08-1.62-1.69-2.96-2.4-5.18-.11-.36-.14-.43-.24-.64l1.39-.35Z" fill="#231815"/>
      <path d="m479.69,182.13c.52.07,1.12.1,2.16.1h7.58c1.21,0,1.54-.01,2.09-.08v1.62c-.62-.06-1.06-.07-2.1-.07h-7.55c-1.18,0-1.6.01-2.17.07v-1.64Z" fill="#231815"/>
      <path d="m497.67,177.56q-.06.36-.14,3.11c-.1,2.69-.41,4.2-1.15,5.63-.48.92-1.01,1.61-1.95,2.52-.42-.56-.62-.74-1.18-1.12,1.11-.9,1.79-1.88,2.26-3.21.42-1.25.6-3.01.6-5.9,0-.59-.01-.78-.04-1.12l1.6.08Zm3.61-.17c-.07.48-.08.7-.08,1.69l-.08,7.77c1.06-.45,1.68-.88,2.33-1.61.7-.77,1.18-1.61,1.5-2.66.41.53.56.69,1.11,1.12-.57,1.33-1.27,2.35-2.16,3.15-.8.71-1.55,1.13-3,1.7-.27.1-.42.17-.57.25l-.76-.83c.08-.34.1-.56.11-1.28l.07-7.63v-.34c0-.73-.01-1-.07-1.36h1.61Z" fill="#231815"/>
    </g>
    <g>
      <path d="m37.93,380.16c-.08.1-.2.16-.38.16-.06,0-.12,0-.2-.02-1.54,1.56-3.76,3.38-5.7,4.78.16.06.4.18.48.22-.04.12-.22.24-.44.26v10.74h-1.46v-10.28c-2.12,1.5-4.88,3.12-7.62,4.46-.2-.32-.56-.82-.84-1.1,5.46-2.52,11.44-6.8,14.66-10.34l1.5,1.12Z" fill="#231815"/>
      <path d="m43.33,380.5c2.08.66,4.48,1.7,5.96,2.72l-.76,1.26c-1.44-1.02-3.8-2.08-5.84-2.78l.64-1.2Zm-.08,13.86c7.1-2.2,11.82-6.18,14.22-11.72.42.34.88.6,1.3.82-2.5,5.48-7.38,9.74-14.16,12-.02.18-.14.38-.28.46l-1.08-1.56Z" fill="#231815"/>
      <path d="m77.85,381.44c-.06.1-.14.18-.26.22-1.58,7.58-5.5,12.08-12.04,14.38-.22-.34-.66-.88-.92-1.16,6.2-2.02,10-6.48,11.2-12.54h-13.08v-1.34h13.6l.28-.18,1.22.62Z" fill="#231815"/>
      <path d="m96.73,387.11h-4.76l.08,7.42c0,1.74-1.48,1.78-3.74,1.74-.04-.28-.14-.74-.28-1.08,1.02.02,1.9,0,2.2-.04.38-.04.6-.32.62-.64l-.06-6.36c-1.56,2.28-4.22,4.5-6.72,5.9-.2-.3-.52-.68-.8-.9,2.56-1.3,5.32-3.7,6.86-6.04h-6.2v-1.16h6.84l-.04-3.56,1.6.08c-.02.16-.18.28-.4.3l.02,3.18h4.78v1.16Z" fill="#231815"/>
      <path d="m105.57,383.14c1.88.82,3.86,1.82,5.68,2.88,1.28-1.92,2.6-4.44,3.6-6.98l1.96.8c-.08.18-.36.28-.72.24-.92,2.12-2.22,4.64-3.56,6.68,1.54.96,3.14,2.04,4.36,3.08l-.96,1.26c-1.1-.96-2.6-2.06-4.26-3.12-2.06,2.94-5.06,5.92-8.46,8.18-.24-.3-.8-.78-1.14-1,3.34-2.16,6.4-5.14,8.38-7.9-1.82-1.08-3.76-2.1-5.64-2.94l.76-1.18Z" fill="#231815"/>
      <path d="m121.77,386.54h16.7v1.42h-15.94c-.12.2-.38.34-.64.38l-.12-1.8Z" fill="#231815"/>
      <path d="m142.57,384.62c1.8.4,4.04,1.16,5.38,1.8l-.6,1.26c-1.32-.64-3.62-1.44-5.38-1.84l.6-1.22Zm1.2,9.78c6.5-2.18,10.94-5.64,13.6-11.64.3.26.92.68,1.22.88-2.68,5.94-7.34,9.64-13.46,11.82.04.18-.06.42-.24.5l-1.12-1.56Zm1-14.74c1.8.48,4,1.28,5.36,1.96l-.66,1.22c-1.42-.72-3.5-1.52-5.3-2.02l.6-1.16Z" fill="#231815"/>
      <path d="m175.05,384.1v12.16h-1.2v-.88h-8.98v-1.12h8.98v-4.06h-8.18v-1.12h8.18v-3.88h-8.48v-1.1h9.68Z" fill="#231815"/>
      <path d="m183.33,380.5c2.08.66,4.48,1.7,5.96,2.72l-.76,1.26c-1.44-1.02-3.8-2.08-5.84-2.78l.64-1.2Zm-.08,13.86c7.1-2.2,11.82-6.18,14.22-11.72.42.34.88.6,1.3.82-2.5,5.48-7.38,9.74-14.16,12-.02.18-.14.38-.28.46l-1.08-1.56Z" fill="#231815"/>
      <path d="m70.89,424.91l.72,6.26-1.44.16-.68-6.24-7.5.98-.16-1.34,7.5-.96-.52-4.5-6.28.82-.18-1.34,6.32-.8-.46-4,1.96-.06c0,.18-.16.34-.46.42l.38,3.44,5.9-.76.16,1.36-5.9.76.5,4.48,7.54-.96.14,1.32-7.54.96Zm4.2-10.9c.92.78,1.98,2,2.56,2.92l-.8.56c-.54-.86-1.64-2.12-2.5-2.88l.74-.6Zm2.46-1.3c.92.78,2.04,2,2.62,2.88l-.82.58c-.54-.86-1.7-2.12-2.54-2.84l.74-.62Z" fill="#231815"/>
      <path d="m96.81,420.62c-.06.06-.14.12-.22.14-.8,2.06-2.16,4.06-3.6,5.54-.24-.22-.68-.5-1-.68,1.16-1.06,2.44-2.92,3-4.26l-5.6,1.24,1.84,8.54-1.18.26-1.84-8.54-4.56,1.04-.26-1.12,4.6-1.02-.9-4.16,1.66-.16c0,.16-.1.28-.36.4l.76,3.64,6.58-1.42.14-.1.94.66Z" fill="#231815"/>
      <path d="m117.71,420.38c-.04.08-.14.16-.26.2-1.64,6.04-4.98,8.98-10.96,10.64-.18-.36-.56-.86-.84-1.16,5.44-1.36,8.82-4.16,10.08-8.8h-13.24v-1.36h13.84l.2-.12,1.18.6Zm-1.88-4.28h-11.4v-1.32h11.4v1.32Z" fill="#231815"/>
      <path d="m124.83,424.95v-9.72l1.9.12c-.02.18-.16.32-.48.36v9.24h-1.42Zm11.14-10.5c-.02.2-.16.3-.48.34v6.36c0,4.2-1.44,8.04-7.18,10.26-.2-.3-.7-.82-1.04-1.08,5.54-2.06,6.78-5.48,6.78-9.18v-6.82l1.92.12Z" fill="#231815"/>
      <path d="m141.77,421.54h16.7v1.42h-15.94c-.12.2-.38.34-.64.38l-.12-1.8Z" fill="#231815"/>
    </g>
    <g>
      <path d="m241.22,19.95c0-.78-.04-1.24-.14-1.76h2.12c-.1.58-.14.96-.14,1.76h5.98c1.06,0,1.72-.04,2.24-.14v1.92c-.72-.08-1.36-.12-2.24-.12h-5.98v1.7h5.38c.86,0,1.3-.02,1.8-.08-.06.52-.08.98-.08,1.74v9.42c0,1.6-.52,2-2.62,2-.5,0-1.22-.02-1.96-.06-.04-.68-.16-1.12-.44-1.8.8.12,1.6.18,2.24.18.8,0,.98-.1.98-.52v-9.28h-12.06v9.54c0,1.2.02,1.62.1,2.16h-2.02c.08-.6.12-1.2.12-2.26v-9.38c0-.72-.02-1.18-.08-1.74.56.06,1.06.08,1.88.08h4.92v-1.7h-5.66c-.88,0-1.58.04-2.2.12v-1.92c.64.1,1.26.14,2.2.14h5.66Zm-1.58,7.6c-.28-.66-.56-1.18-1.06-1.92l1.5-.58c.56.98.84,1.52,1.24,2.5h1.54c.6-.86.96-1.56,1.32-2.48l1.7.42c-.46.92-.76,1.42-1.22,2.06h1.02c.84,0,1.26-.02,1.74-.08v1.66c-.58-.06-.98-.08-1.76-.08h-2.72v1.74h2.6c.86,0,1.28-.02,1.72-.08v1.66c-.54-.06-.94-.08-1.74-.08h-2.58v1.46c0,1.08.02,1.66.1,2.34h-1.92c.08-.7.1-1.28.1-2.34v-1.46h-2.08c-.8,0-1.28.02-1.82.08v-1.66c.52.06.94.08,1.86.08h2.04v-1.74h-2.48c-.74,0-1.14.02-1.6.08v-1.66c.48.06.92.08,1.76.08h.74Z" fill="#231815"/>
      <path d="m255.97,34.15c0,1.16.04,1.82.12,2.38h-2.02c.08-.62.12-1.26.12-2.38v-13.06c0-1.04-.02-1.6-.08-2.24.54.06,1.06.08,2.08.08h3.26c1.02,0,1.48-.02,2.04-.08-.04.54-.06,1.1-.06,1.88v3.66c0,.86.02,1.36.06,1.82-.52-.04-1.16-.06-1.92-.06h-3.6v8Zm0-12.3h3.82v-1.46h-3.82v1.46Zm0,2.9h3.82v-1.52h-3.82v1.52Zm14.52,9.46c0,1.66-.5,2.04-2.74,2.04-.66,0-1.16-.02-2.08-.04-.1-.78-.22-1.2-.46-1.84,1.16.14,1.88.2,2.6.2s.9-.1.9-.52v-7.9h-3.8c-.8,0-1.48.02-1.92.06.04-.48.06-1.02.06-1.82v-3.66c0-.7-.02-1.24-.06-1.88.54.06,1.02.08,2.04.08h3.46c1.02,0,1.54-.02,2.1-.08-.08.68-.1,1.26-.1,2.22v13.14Zm-5.8-12.36h4.02v-1.46h-4.02v1.46Zm0,2.9h4.02v-1.52h-4.02v1.52Z" fill="#231815"/>
      <path d="m289.3,36.77c-1.28-1.64-1.8-2.54-2.42-4.08-.68-1.76-1.02-3.46-1.02-5.3s.32-3.42,1-5.16c.62-1.54,1.16-2.44,2.42-4.08h2.36c-1.52,1.74-2.12,2.64-2.74,4.04-.72,1.62-1.06,3.32-1.06,5.2s.36,3.68,1.08,5.34c.62,1.42,1.24,2.32,2.74,4.04h-2.36Z" fill="#231815"/>
      <path d="m301.22,19.95c0-.78-.04-1.24-.14-1.76h2.12c-.1.58-.14.96-.14,1.76h5.98c1.06,0,1.72-.04,2.24-.14v1.92c-.72-.08-1.36-.12-2.24-.12h-5.98v1.7h5.38c.86,0,1.3-.02,1.8-.08-.06.52-.08.98-.08,1.74v9.42c0,1.6-.52,2-2.62,2-.5,0-1.22-.02-1.96-.06-.04-.68-.16-1.12-.44-1.8.8.12,1.6.18,2.24.18.8,0,.98-.1.98-.52v-9.28h-12.06v9.54c0,1.2.02,1.62.1,2.16h-2.02c.08-.6.12-1.2.12-2.26v-9.38c0-.72-.02-1.18-.08-1.74.56.06,1.06.08,1.88.08h4.92v-1.7h-5.66c-.88,0-1.58.04-2.2.12v-1.92c.64.1,1.26.14,2.2.14h5.66Zm-1.58,7.6c-.28-.66-.56-1.18-1.06-1.92l1.5-.58c.56.98.84,1.52,1.24,2.5h1.54c.6-.86.96-1.56,1.32-2.48l1.7.42c-.46.92-.76,1.42-1.22,2.06h1.02c.84,0,1.26-.02,1.74-.08v1.66c-.58-.06-.98-.08-1.76-.08h-2.72v1.74h2.6c.86,0,1.28-.02,1.72-.08v1.66c-.54-.06-.94-.08-1.74-.08h-2.58v1.46c0,1.08.02,1.66.1,2.34h-1.92c.08-.7.1-1.28.1-2.34v-1.46h-2.08c-.8,0-1.28.02-1.82.08v-1.66c.52.06.94.08,1.86.08h2.04v-1.74h-2.48c-.74,0-1.14.02-1.6.08v-1.66c.48.06.92.08,1.76.08h.74Z" fill="#231815"/>
      <path d="m323.22,24.97c.5,1.94,1.44,3.78,2.76,5.4,1.58,1.92,3.24,3.12,5.76,4.16-.58.66-.78.98-1.24,1.92-2.28-1.2-3.78-2.32-5.22-3.98-1.26-1.44-2.18-3.04-2.9-5.04-.6,2.36-1.76,4.32-3.56,6.06-1.28,1.24-2.68,2.14-4.58,2.98-.38-.82-.58-1.1-1.18-1.76,2.42-.98,4.06-2.08,5.38-3.64,1.4-1.64,2.12-3.44,2.48-6.1h-5c-1.18,0-1.78.04-2.4.14v-2.14c.58.1,1.28.14,2.42.14h5.16c.04-.98.06-1.48.06-2.26,0-.96-.04-1.64-.14-2.2h2.24c-.1.7-.14,1.08-.14,2.26-.02.94-.02,1.44-.06,2.2h5.6c1.1,0,1.8-.04,2.4-.14v2.14c-.68-.1-1.32-.14-2.38-.14h-5.46Z" fill="#231815"/>
      <path d="m334.41,23.39c1.38.82,2.22,1.42,3.54,2.56l-1.08,1.58c-1.24-1.22-2-1.82-3.54-2.76l1.08-1.38Zm3.52,6.68c-.48,1.44-1.2,3.04-2.2,4.98-.32.62-.48.94-.7,1.28l-1.6-1.4c.98-.98,2.12-3.22,3.04-5.94l1.46,1.08Zm-2.48-11.5c1.44.9,2.12,1.44,3.44,2.66l-1.16,1.5c-1.2-1.24-1.98-1.9-3.44-2.84l1.16-1.32Zm10.9,8.32c.24,1.38.62,2.48,1.26,3.68.88,1.7,1.98,2.92,3.74,4.14-.48.44-.88.94-1.38,1.68-1.84-1.52-3-2.9-3.96-4.8-.72-1.42-1.16-2.78-1.52-4.7h-2.7c-.18,2.64-.42,4.08-.92,5.68-.52,1.56-1.1,2.68-2.06,3.9-.46-.58-.82-.9-1.52-1.32,1-1.26,1.5-2.2,1.92-3.64.62-2.1.86-4.74.86-9.26,0-1.26-.02-2.14-.1-3.04.68.06,1.22.08,2.26.08h5.92c1,0,1.52-.02,2.14-.08-.08.66-.1,1.3-.1,2.16v3.46c0,.94.02,1.52.1,2.14-.56-.06-1.1-.08-2-.08h-1.94Zm2.04-1.64v-4.32h-6.5v1.16c0,.96-.02,1.74-.06,3.16h6.56Z" fill="#231815"/>
      <path d="m355.31,30.09c-.2,2.78-.4,3.9-1,5.6l-1.34-.64c.68-1.68.96-3.04,1.06-5.2l1.28.24Zm3.76-2.34h.9c.9,0,1.32-.02,1.72-.08q-.02.24-.06,1.36c-.18,3.46-.44,5.56-.82,6.4-.38.8-.88,1.06-2.16,1.06-.38,0-.64,0-1.12-.02.02-.06.02-.08.02-.12,0-.58-.1-1.12-.32-1.6.74.12,1.12.16,1.58.16.58,0,.78-.24.96-1.22.24-1.26.34-2.54.34-4.5h-4.22c-.78,0-1.26.02-1.82.06.06-.48.08-.98.08-2v-5.88c0-1.22-.02-1.78-.08-2.38.58.08,1.1.1,2.24.1h3.38c.94,0,1.46-.02,2.1-.1v1.7c-.54-.08-1-.1-1.74-.1h-.98v1.44h.72c.76,0,1.18-.02,1.6-.08v1.54c-.48-.06-.92-.08-1.6-.08h-.72v1.36h.72c.72,0,1.16-.02,1.6-.08v1.54c-.48-.06-.92-.08-1.6-.08h-.72v1.6Zm-2.46,2.26c.24,1.72.32,2.8.34,4.64l-1.18.14c.04-.7.04-1,.04-1.5,0-1.16-.04-1.88-.16-3.14l.96-.14Zm.96-9.42h-1.8v1.44h1.8v-1.44Zm0,2.82h-1.8v1.36h1.8v-1.36Zm-1.8,2.74v1.6h1.8v-1.6h-1.8Zm2.16,3.76c.32,1.22.52,2.4.68,3.78l-1.02.32c-.04-1.42-.22-2.58-.54-3.88l.88-.22Zm1.22-.18c.34.8.52,1.46.76,2.68l-.86.38c-.18-1.18-.32-1.82-.66-2.8l.76-.26Zm9-3.18c.26,2.2.58,3.62,1.18,4.98.64,1.46,1.44,2.66,2.42,3.54-.64.6-.9.94-1.34,1.62-1.36-1.6-2.14-2.98-2.84-4.94-.54-1.48-.72-2.4-1.04-5.2h-1.92c-.12,4.78-.68,7.6-2,10.1-.5-.48-.84-.7-1.54-1.02,1.5-2.5,1.88-5.32,1.88-13.9,0-1.36-.02-1.96-.08-2.58.62.08,1.14.1,2.26.1h3.54c1.1,0,1.6-.02,2.16-.1-.06.5-.08.92-.08,2.18v3.12c0,1.08.02,1.64.08,2.16-.38-.04-.98-.06-1.82-.06h-.86Zm.9-1.58v-4.14h-4.38v.96c0,1,0,1.04-.04,2.56v.26c0,.1,0,.2.02.36h4.4Z" fill="#231815"/>
      <path d="m381.17,20.07c0-.66-.04-1.18-.14-1.68h2.18c-.08.42-.12.94-.12,1.68v1.34h5.76c1.06,0,1.76-.04,2.42-.14v2.04c-.58-.08-1.18-.12-2.38-.12h-7.4c-.1,1.26-.1,1.34-.24,2.46h5.5c1.08,0,1.6-.02,2.08-.1l-.02.2c-.04.3-.06.48-.08,1.32-.1,2.78-.36,5.4-.72,6.9-.46,1.88-1,2.34-2.82,2.34-.72,0-1.64-.06-2.76-.16-.1-.9-.16-1.2-.48-1.96,1.14.2,2.12.3,3.02.3s1.04-.22,1.32-1.62c.3-1.38.44-2.82.52-5.48h-5.82c-.78,4.14-2.7,6.86-6.48,9.18-.4-.7-.66-1-1.36-1.6,1.7-.92,2.74-1.76,3.78-3.06,1.66-2.06,2.38-4.52,2.54-8.72h-3.66c-1.02,0-1.78.04-2.4.12v-2.04c.7.1,1.4.14,2.4.14h5.36v-1.34Z" fill="#231815"/>
      <path d="m400.09,23.03c.44-.78.68-1.34,1.02-2.38h-5.42c-.94,0-1.6.04-2.3.12v-1.88c.68.08,1.36.12,2.28.12h13.28c.9,0,1.64-.04,2.32-.12v1.88c-.68-.08-1.38-.12-2.3-.12h-5.86c-.2.66-.64,1.72-1,2.38h6.16c1.08,0,1.66-.02,2.38-.1-.1.76-.12,1.42-.12,2.56v8.7c0,1.1.04,1.92.12,2.58h-1.92v-1.04h-12.82v1.02h-1.9c.1-.76.12-1.4.12-2.58v-8.7c0-.98-.04-1.7-.12-2.54.64.08,1.34.1,2.34.1h3.74Zm-1.44,1.56h-2.74v9.54h2.74v-9.54Zm1.66,0v2.1h3.94v-2.1h-3.94Zm0,5.74h3.94v-2.14h-3.94v2.14Zm3.94,1.5h-3.94v2.3h3.94v-2.3Zm1.66,2.3h2.82v-9.54h-2.82v9.54Z" fill="#231815"/>
      <path d="m412.93,36.77c1.5-1.72,2.12-2.62,2.74-4.04.72-1.66,1.08-3.4,1.08-5.34s-.34-3.58-1.06-5.2c-.62-1.4-1.22-2.3-2.74-4.04h2.36c1.28,1.64,1.8,2.54,2.42,4.08.68,1.74,1,3.36,1,5.16s-.32,3.54-1.02,5.3c-.62,1.54-1.14,2.44-2.42,4.08h-2.36Z" fill="#231815"/>
    </g>
    <g>
      <path d="m462.79,79.21c.36.06.63.08,1.2.08h1.04c.57,0,.76-.01,1.22-.06-.08.79-.1,1.4-.1,2.16v6.46c0,.66.03,1.09.1,1.61h-1.67c.08-.49.1-.96.1-1.61v-7.31h-.65c-.44,0-.8.03-1.24.08v-1.4Z" fill="#231815"/>
      <path d="m471.73,79.21c.36.06.63.08,1.2.08h1.04c.57,0,.76-.01,1.22-.06-.08.79-.1,1.4-.1,2.16v6.46c0,.66.03,1.09.1,1.61h-1.67c.08-.49.1-.96.1-1.61v-7.31h-.65c-.44,0-.8.03-1.24.08v-1.4Z" fill="#231815"/>
      <path d="m481.14,83.82h-1.64v-1.65h1.64v1.65Zm-1.64,5.63v-1.65h1.64v1.65h-1.64Z" fill="#231815"/>
      <path d="m483.87,88.65c-.38-.38-.65-.81-.82-1.26-.34-.92-.51-1.94-.51-3,0-1.36.31-2.79.76-3.56.67-1.12,1.77-1.73,3.15-1.73,1.05,0,1.93.34,2.59,1,.38.38.66.81.82,1.26.34.91.5,1.95.5,3.02,0,1.59-.35,2.99-.93,3.81-.7.98-1.71,1.47-2.99,1.47-1.05,0-1.92-.34-2.58-1Zm1.06-7.64c-.27.3-.45.64-.56.98-.23.73-.35,1.56-.35,2.43,0,1.14.25,2.35.58,2.92.41.7,1.04,1.05,1.85,1.05.61,0,1.14-.21,1.49-.57.27-.29.48-.65.6-1.05.23-.75.35-1.53.35-2.41,0-1.05-.22-2.25-.53-2.85-.4-.78-1.02-1.17-1.92-1.17-.65,0-1.13.21-1.52.66Z" fill="#231815"/>
      <path d="m492.82,88.65c-.38-.38-.65-.81-.82-1.26-.34-.92-.51-1.94-.51-3,0-1.36.31-2.79.76-3.56.67-1.12,1.77-1.73,3.15-1.73,1.05,0,1.93.34,2.59,1,.38.38.66.81.82,1.26.34.91.51,1.95.51,3.02,0,1.59-.35,2.99-.93,3.81-.7.98-1.71,1.47-2.99,1.47-1.05,0-1.92-.34-2.58-1Zm1.06-7.64c-.27.3-.45.64-.56.98-.23.73-.35,1.56-.35,2.43,0,1.14.25,2.35.58,2.92.41.7,1.04,1.05,1.85,1.05.61,0,1.14-.21,1.49-.57.27-.29.48-.65.6-1.05.23-.75.35-1.53.35-2.41,0-1.05-.22-2.25-.53-2.85-.4-.78-1.02-1.17-1.92-1.17-.65,0-1.13.21-1.52.66Z" fill="#231815"/>
      <path d="m500.46,84.45c.5-.57.76-.79,1.36-1.14.71-.4,1.23-.56,1.93-.56.58,0,1.11.12,1.65.38q.35.17,1.19.74c1.01.68,1.72.96,2.42.96.36,0,.79-.13,1.22-.38.47-.27.71-.51,1.14-1.05l.88.84c-.53.65-.8.91-1.21,1.21-.65.47-1.36.7-2.15.7-.4,0-.83-.06-1.19-.19-.53-.18-.83-.35-1.77-.99-1.1-.73-1.53-.91-2.28-.91-.87,0-1.45.3-2.32,1.2l-.87-.81Z" fill="#231815"/>
      <path d="m531.93,79.2c0-.3-.01-.52-.06-.78h1.32c-.05.22-.07.42-.07.78v.61h3.49c.7,0,1.11-.03,1.48-.08v1.22c-.4-.05-.82-.06-1.48-.06h-8.15c0,5.71-.23,7.31-1.32,9.36-.35-.43-.57-.62-.99-.91.47-.82.67-1.38.84-2.28.21-1.05.3-2.85.3-5.58,0-.91-.01-1.31-.05-1.74.4.05.8.06,1.33.06h3.36v-.61Zm-3.47,9.37c.39-.81.52-1.16.69-1.96.21-.88.27-1.4.34-2.51l1.14.29c-.12,1.13-.18,1.65-.38,2.55-.19.95-.32,1.4-.7,2.33l-1.09-.69Zm6.11-4.45c-1.01-.98-1.74-1.5-3.23-2.27l.83-.78c1.5.82,2.01,1.16,3.21,2.13l-.82.92Zm-1.92-.95c-.05.3-.08.64-.08,1.21v4.32c0,.35.14.4,1.02.4s1.08-.06,1.18-.36c.09-.25.17-1.08.17-1.85v-.3c.47.21.79.32,1.15.4-.17,3-.35,3.24-2.49,3.24-1.8,0-2.19-.17-2.19-.95v-4.91c0-.58-.01-.88-.08-1.2h1.31Zm4.43,5.86c-.36-1.94-.67-2.91-1.49-4.54l1.05-.49c.83,1.78,1.18,2.76,1.61,4.5l-1.17.53Z" fill="#231815"/>
      <path d="m544.62,83.15c-.47,0-.85.01-1.18.05v-1.04c.27.04.58.05,1.06.05h.08c-.22-.65-.39-1-.76-1.55l.92-.31c.35.55.53.94.73,1.5l-.82.36h3.67c.6-.92.87-1.51,1.11-2.31l1.1.31c-.54,1.05-.75,1.43-1.14,2h.43c.5,0,.76-.01,1.06-.06v1.05c-.38-.04-.71-.05-1.23-.05h-3.43c-.04.4-.05.53-.1.86h3.52c.71,0,1.09-.01,1.45-.08v1.13c-.39-.05-.89-.08-1.45-.08h-3.71c-.06.29-.1.42-.19.74h2.76c.57,0,.87-.01,1.09-.05l.58.72q-.09.12-.26.34c-.38.55-1.04,1.27-1.54,1.7.91.46,1.61.65,2.98.87-.23.42-.35.65-.53,1.16-1.42-.36-2.34-.74-3.34-1.35-.91.58-1.93,1.01-3.15,1.34-.16-.42-.34-.72-.62-1.03,1.18-.23,1.94-.49,2.84-.99-.62-.51-1.01-.9-1.35-1.33-.62,1.31-1.36,2.26-2.49,3.22-.16-.31-.41-.64-.71-.87-.08.69-.4.87-1.59.87-.21,0-.36,0-.73-.03-.03-.42-.09-.7-.25-1.1.49.05.8.08,1.13.08.26,0,.32-.06.32-.31v-3.31q-.44.16-.75.27c-.05.03-.08.03-.4.14-.08.03-.14.05-.26.1l-.26-1.21c.53-.08.83-.16,1.67-.44v-2.44h-.63c-.31,0-.54.01-.88.05v-1.16c.3.05.52.06.88.06h.63v-1.14c0-.64-.01-.95-.08-1.34h1.28c-.06.36-.08.7-.08,1.33v1.16h.36c.3,0,.48-.01.74-.04v1.12c-.27-.03-.45-.04-.74-.04h-.36v2.02c.41-.16.53-.21.97-.42l.03,1.07c-.47.22-.62.3-1,.46v4.19c1.42-1.1,2.36-2.56,2.81-4.39h-.31c-.56,0-.92.01-1.27.06v-1.1c.38.05.74.06,1.29.06h.48c.04-.31.07-.6.09-.86h-.48Zm6.1-3.73q-.16.03-.62.12c-1.67.35-4.41.64-6.76.72-.08-.39-.13-.55-.36-.95h.38c2.49,0,5.6-.39,6.58-.82l.79.94Zm-3.98,2.73c-.16-.62-.36-1.1-.7-1.7l.93-.3c.34.58.49.95.7,1.66l-.93.34Zm-.69,4.54c.4.43.82.81,1.33,1.17.52-.4.79-.69,1.15-1.17h-2.49Z" fill="#231815"/>
      <path d="m552.72,90.4c.05-.39.08-.82.08-1.65v-8.19c0-.64-.03-1.08-.08-1.57.48.05.85.06,1.52.06h7.94c.66,0,1.04-.01,1.53-.06-.06.53-.08.88-.08,1.57v8.22c0,.81.03,1.25.08,1.62h-1.24v-.74h-8.5v.74h-1.24Zm1.24-1.79h8.5v-8.5h-8.5v8.5Zm5.35-7.19c0-.47-.01-.7-.06-.98h1.24c-.05.26-.06.48-.06.98v.62h.48c.47,0,.85-.03,1.09-.06v1.13c-.27-.04-.66-.06-1.11-.06h-.45v3.95c0,.91-.34,1.17-1.55,1.17-.39,0-.6-.01-1.31-.06-.05-.53-.09-.69-.27-1.12.67.1,1.17.16,1.61.16.32,0,.42-.08.42-.34v-3.76h-3.51c-.54,0-.86.01-1.21.06v-1.13c.31.05.58.06,1.21.06h3.51v-.62Zm-2.19,5.06c-.56-1.14-.89-1.66-1.62-2.5l.91-.6c.79.92,1.08,1.34,1.71,2.44l-1,.65Z" fill="#231815"/>
      <path d="m462.79,101.96c.36.06.63.08,1.2.08h1.04c.57,0,.76-.01,1.22-.06-.08.79-.1,1.4-.1,2.16v6.46c0,.66.03,1.09.1,1.61h-1.67c.08-.49.1-.96.1-1.61v-7.31h-.65c-.44,0-.8.03-1.24.08v-1.4Z" fill="#231815"/>
      <path d="m472.01,112.2c-.95,0-1.14.01-1.58.06.09-.81.18-1.22.36-1.69.34-.88.91-1.68,1.74-2.42.44-.39.84-.69,2.07-1.52,1.23-.83,1.59-1.31,1.59-2.11,0-.9-.74-1.46-1.9-1.46-.8,0-1.4.27-1.76.81-.22.34-.32.62-.42,1.25l-1.54-.21c.17-.92.4-1.46.87-2,.61-.72,1.58-1.09,2.81-1.09,2.15,0,3.49,1.05,3.49,2.74,0,.99-.38,1.68-1.31,2.39-.4.3-.58.43-1.74,1.21-1.45.98-2.1,1.72-2.44,2.73h3.86c.75,0,1.32-.03,1.76-.09v1.47c-.57-.05-1.06-.08-1.81-.08h-4.05Z" fill="#231815"/>
      <path d="m481.14,106.57h-1.64v-1.65h1.64v1.65Zm-1.64,5.63v-1.65h1.64v1.65h-1.64Z" fill="#231815"/>
      <path d="m483.87,111.4c-.38-.38-.65-.81-.82-1.26-.34-.92-.51-1.94-.51-3,0-1.36.31-2.79.76-3.56.67-1.12,1.77-1.73,3.15-1.73,1.05,0,1.93.34,2.59,1,.38.38.66.81.82,1.26.34.91.5,1.95.5,3.02,0,1.59-.35,2.99-.93,3.81-.7.98-1.71,1.47-2.99,1.47-1.05,0-1.92-.34-2.58-1Zm1.06-7.64c-.27.3-.45.64-.56.98-.23.73-.35,1.56-.35,2.43,0,1.14.25,2.35.58,2.92.41.7,1.04,1.05,1.85,1.05.61,0,1.14-.21,1.49-.57.27-.29.48-.65.6-1.05.23-.75.35-1.53.35-2.41,0-1.05-.22-2.25-.53-2.85-.4-.78-1.02-1.17-1.92-1.17-.65,0-1.13.21-1.52.66Z" fill="#231815"/>
      <path d="m492.82,111.4c-.38-.38-.65-.81-.82-1.26-.34-.92-.51-1.94-.51-3,0-1.36.31-2.79.76-3.56.67-1.12,1.77-1.73,3.15-1.73,1.05,0,1.93.34,2.59,1,.38.38.66.81.82,1.26.34.91.51,1.95.51,3.02,0,1.59-.35,2.99-.93,3.81-.7.98-1.71,1.47-2.99,1.47-1.05,0-1.92-.34-2.58-1Zm1.06-7.64c-.27.3-.45.64-.56.98-.23.73-.35,1.56-.35,2.43,0,1.14.25,2.35.58,2.92.41.7,1.04,1.05,1.85,1.05.61,0,1.14-.21,1.49-.57.27-.29.48-.65.6-1.05.23-.75.35-1.53.35-2.41,0-1.05-.22-2.25-.53-2.85-.4-.78-1.02-1.17-1.92-1.17-.65,0-1.13.21-1.52.66Z" fill="#231815"/>
      <path d="m500.46,107.2c.5-.57.76-.79,1.36-1.14.71-.4,1.23-.56,1.93-.56.58,0,1.11.12,1.65.38q.35.17,1.19.74c1.01.68,1.72.96,2.42.96.36,0,.79-.13,1.22-.38.47-.27.71-.51,1.14-1.05l.88.84c-.53.65-.8.91-1.21,1.21-.65.47-1.36.7-2.15.7-.4,0-.83-.06-1.19-.19-.53-.18-.83-.35-1.77-.99-1.1-.73-1.53-.91-2.28-.91-.87,0-1.45.3-2.32,1.2l-.87-.81Z" fill="#231815"/>
      <path d="m530.69,109.6c0,.64,0,.9.04,1.21h-1.13v-.73h-1.62v1.33h-1.19c.05-.48.08-.92.08-1.51v-6.23c0-.49-.01-.88-.05-1.26.26.03.45.04.95.04h2.05c.49,0,.62,0,.91-.04-.03.33-.03.46-.03,1.26v2.02c.66-.86,1.1-1.7,1.46-2.82.25-.78.36-1.27.38-1.65l1.3.21c-.12.29-.14.36-.25.71-.09.3-.1.33-.3.9h3.26c.54,0,.76-.01.99-.05l.6.71c-.05.09-.16.36-.34.83-.38.96-.88,1.92-1.49,2.8-.35-.29-.57-.42-1.05-.6.7-.88,1.05-1.51,1.46-2.63h-3.8c-.43,1.01-.8,1.66-1.53,2.61-.22-.25-.35-.36-.7-.6v3.48Zm-2.71-.55h1.62v-5.55h-1.62v5.55Zm6.54-4.15c-.04.21-.05.4-.05.9,0,.79.19,1.78.49,2.51.76,1.82,1.87,2.95,3.59,3.68-.25.3-.42.6-.65,1.2-.91-.48-1.61-1.03-2.27-1.77-.75-.83-1.26-1.78-1.66-3.04-.38,1.42-.86,2.34-1.67,3.21-.6.64-1.37,1.22-2.19,1.66-.26-.46-.45-.7-.78-1,1.06-.47,1.87-1.05,2.49-1.85.44-.56.84-1.33,1.13-2.15.26-.77.38-1.57.38-2.55,0-.35-.03-.6-.05-.81h1.24Z" fill="#231815"/>
      <path d="m543.61,108.52c-.4,0-.66.01-1,.06v-.77c-.8.85-1.58,1.47-2.55,2.07-.22-.4-.43-.64-.86-.98,1.28-.66,2.09-1.26,2.92-2.16h-1.24c-.61,0-1.09.03-1.5.08v-1.12c.39.06.73.08,1.49.08h2.01c.22-.33.34-.53.52-.88h-1.59c-.78,0-1.01.01-1.33.05v-1.03c.34.04.57.05,1.33.05h2.01c.13-.34.18-.47.27-.79h-2.75c-.65,0-.98.01-1.4.06v-1.12c.38.05.79.08,1.48.08h2.93c.09-.42.12-.73.12-1.08l1.28.08c-.01.06-.09.4-.22,1h3.64c.71,0,1.11-.03,1.49-.08v1.12c-.43-.05-.75-.06-1.41-.06h-3.98c-.12.4-.16.52-.26.79h3.73c.8,0,1.02-.01,1.37-.05v1.03c-.34-.04-.56-.05-1.37-.05h-1.75c.19.39.3.57.5.88h2.16c.74,0,1.09-.01,1.46-.08v1.12c-.41-.05-.88-.08-1.48-.08h-1.4c.4.42.88.79,1.5,1.2.43.29.75.44,1.63.84-.36.36-.54.61-.79,1.04-1.05-.6-1.89-1.22-2.64-1.96v.71c-.32-.05-.53-.06-1-.06h-1.21c-.04.53-.05.64-.1.9h2.57c.57,0,.83-.01,1.17-.06v1.05c-.39-.04-.61-.05-1.17-.05h-2.15c.96.94,2.25,1.39,4.73,1.64-.28.4-.44.69-.62,1.16-1.5-.27-2.27-.49-3.12-.91-.8-.4-1.4-.85-1.94-1.48-.48.71-1.13,1.23-2.1,1.69-.66.3-1.49.53-2.58.73-.14-.4-.35-.78-.6-1.09,1.15-.12,1.96-.31,2.68-.62.8-.35,1.27-.68,1.57-1.11h-1.74c-.53,0-.75.01-1.1.05v-1.04c.31.04.53.05,1.09.05h2.12c.05-.29.06-.42.09-.9h-.92Zm-.09-1.77c-.26.34-.42.52-.69.83.21.01.44.03.78.03h3.33c.35,0,.52,0,.71-.03-.31-.32-.44-.48-.71-.83h-3.42Zm1.1-1.85c-.17.36-.29.59-.45.88h2.14c-.18-.34-.22-.4-.44-.88h-1.24Z" fill="#231815"/>
      <path d="m559.49,109.52c1.1,1.04,2.67,1.79,4.71,2.29-.29.36-.48.66-.69,1.11-1.17-.36-1.83-.64-2.63-1.12-.96-.56-1.62-1.12-2.24-1.86q.01.18.03.46c.03.48.03.49.03.6v.79c0,.65.01.95.09,1.35h-1.33c.06-.4.09-.77.09-1.35v-.78c0-.14.03-.68.05-1.04-1.23,1.38-2.44,2.15-4.66,2.94-.22-.44-.39-.68-.74-1.05,1.98-.53,3.45-1.29,4.51-2.33h-2.64c-.69,0-1.13.03-1.5.08v-1.2c.35.05.82.08,1.5.08h3.47c0-.35-.01-.56-.05-.78h1.28c-.04.25-.05.39-.05.78h3.59c.75,0,1.17-.03,1.52-.08v1.2c-.39-.05-.82-.08-1.53-.08h-2.8Zm-3.9-3.44c-.75.51-1.43.88-2.33,1.34-.22.1-.25.12-.52.27l-.45-1.1c.83-.23,1.84-.74,3.02-1.51l.29,1Zm-2.19-4.11c.74.58,1.23,1.07,1.94,1.86l-.79.82c-.66-.81-1.22-1.37-1.94-1.91l.79-.77Zm3.83.55c.22-.51.34-.85.44-1.35l1.21.17c-.3.73-.31.75-.5,1.18h1.17c.49,0,.62,0,.97-.04-.04.32-.04.44-.04,1.04v2.91c0,.57.01.79.04,1.07-.27-.03-.58-.04-.95-.04h-2.76c-.38,0-.71.01-.99.04.03-.31.04-.55.04-1.05v-2.94c0-.57,0-.61-.04-1.03.32.04.49.04,1.01.04h.4Zm-.32,1.98h2.51v-1.03h-2.51v1.03Zm0,2.02h2.51v-1.09h-2.51v1.09Zm4.35-1.39c1.28.64,2,1.04,2.86,1.6l-.65.94c-.96-.7-1.76-1.18-2.81-1.7l.6-.83Zm2.51-2.42c-.89.96-1.49,1.52-2.23,2.08l-.74-.79c.97-.74,1.44-1.21,2.09-2.05l.88.77Z" fill="#231815"/>
      <path d="m570.79,106.12c.57,0,.89-.01,1.15-.06v1.21c-.29-.05-.62-.07-1.1-.07h-4.34c-.61,0-.93.01-1.27.07v-1.21c.32.05.65.06,1.28.06h2.64c.4-.86.58-1.42.79-2.31l1.11.31c-.23.77-.43,1.24-.82,2h.54Zm-.18-3.52c.57,0,.88-.01,1.19-.06v1.18c-.27-.05-.57-.06-1.13-.06h-4.04c-.5,0-.82.01-1.1.06v-1.18c.31.05.61.06,1.22.06h1.42v-.42c0-.38-.03-.69-.08-.94h1.32c-.05.26-.08.55-.08.94v.42h1.27Zm-3.43,10.52h-1.18c.04-.33.05-.64.05-1.2v-2.76c0-.56-.01-.81-.04-1.08.28.03.53.04,1.02.04h3.25c.51,0,.75-.01.93-.04-.04.27-.04.4-.04,1.01v3.03c0,.44.01.69.05.98h-1.19v-.75h-2.86v.77Zm.22-9.35c.34.65.49,1.05.75,1.95l-1.06.34c-.21-.85-.34-1.22-.7-1.94l1.01-.35Zm-.22,7.54h2.88v-2.15h-2.88v2.15Zm9.92-8.97c-.09.18-.13.27-.25.56-.4,1.03-.92,2.11-1.48,3.15.75.83,1.05,1.26,1.33,1.94.23.58.36,1.22.36,1.81,0,.71-.25,1.23-.67,1.5-.29.17-.7.25-1.37.25-.32,0-.49,0-.85-.04-.01-.53-.06-.81-.25-1.18.41.06.73.09,1.1.09.67,0,.91-.18.91-.7,0-.57-.14-1.14-.41-1.72-.31-.62-.62-1.03-1.43-1.77.79-1.43,1.15-2.25,1.54-3.5h-2.11v9.01c0,.7.03,1.1.09,1.5h-1.31c.05-.4.08-.88.08-1.47v-9.02c0-.38-.01-.73-.05-1.12.32.03.62.04,1.05.04h2.19c.49,0,.76-.01,1.01-.05l.52.74Z" fill="#231815"/>
      <path d="m462.79,124.71c.36.06.63.08,1.2.08h1.04c.57,0,.76-.01,1.22-.06-.08.79-.1,1.4-.1,2.16v6.46c0,.66.03,1.09.1,1.61h-1.67c.08-.49.1-.96.1-1.61v-7.31h-.65c-.44,0-.8.03-1.24.08v-1.4Z" fill="#231815"/>
      <path d="m471.8,132.3c.17.6.32.84.69,1.12.44.33.97.49,1.62.49,1.36,0,2.24-.7,2.24-1.81,0-1.17-.84-1.81-2.38-1.81-.49,0-.84.01-1.26.06v-1.38c.31.05.71.08,1.04.08.66,0,1.26-.13,1.58-.35.48-.31.73-.79.73-1.38,0-1-.69-1.53-1.96-1.53-.71,0-1.23.22-1.57.65-.18.23-.26.42-.38.85l-1.54-.29c.22-.73.43-1.09.84-1.5.63-.62,1.57-.95,2.73-.95,2.05,0,3.37,1.05,3.37,2.68,0,.79-.34,1.5-.91,1.91-.31.23-.58.34-1.23.49.89.12,1.39.34,1.84.83.43.47.62,1.03.62,1.79,0,.7-.29,1.4-.76,1.87-.67.66-1.71,1.01-3.01,1.01-1.42,0-2.45-.38-3.15-1.16-.31-.35-.47-.68-.7-1.38l1.54-.32Z" fill="#231815"/>
      <path d="m481.14,129.32h-1.64v-1.65h1.64v1.65Zm-1.64,5.63v-1.65h1.64v1.65h-1.64Z" fill="#231815"/>
      <path d="m484.09,132.3c.17.6.32.84.69,1.12.44.33.97.49,1.62.49,1.36,0,2.24-.7,2.24-1.81,0-1.17-.84-1.81-2.38-1.81-.49,0-.84.01-1.26.06v-1.38c.31.05.71.08,1.04.08.66,0,1.26-.13,1.58-.35.48-.31.73-.79.73-1.38,0-1-.69-1.53-1.96-1.53-.71,0-1.23.22-1.57.65-.18.23-.26.42-.38.85l-1.54-.29c.22-.73.43-1.09.84-1.5.63-.62,1.57-.95,2.73-.95,2.05,0,3.37,1.05,3.37,2.68,0,.79-.34,1.5-.91,1.91-.31.23-.58.34-1.23.49.89.12,1.39.34,1.84.83.43.47.62,1.03.62,1.79,0,.7-.29,1.4-.76,1.87-.67.66-1.71,1.01-3.01,1.01-1.42,0-2.45-.38-3.15-1.16-.31-.35-.47-.68-.7-1.38l1.54-.32Z" fill="#231815"/>
      <path d="m492.82,134.15c-.38-.38-.65-.81-.82-1.26-.34-.92-.51-1.94-.51-3,0-1.36.31-2.79.76-3.56.67-1.12,1.77-1.73,3.15-1.73,1.05,0,1.93.34,2.59,1,.38.38.66.81.82,1.26.34.91.51,1.95.51,3.02,0,1.59-.35,2.99-.93,3.81-.7.98-1.71,1.47-2.99,1.47-1.05,0-1.92-.34-2.58-1Zm1.06-7.64c-.27.3-.45.64-.56.98-.23.73-.35,1.56-.35,2.43,0,1.14.25,2.35.58,2.92.41.7,1.04,1.05,1.85,1.05.61,0,1.14-.21,1.49-.57.27-.29.48-.65.6-1.05.23-.75.35-1.53.35-2.41,0-1.05-.22-2.25-.53-2.85-.4-.78-1.02-1.17-1.92-1.17-.65,0-1.13.21-1.52.66Z" fill="#231815"/>
      <path d="m500.46,129.95c.5-.57.76-.79,1.36-1.14.71-.4,1.23-.56,1.93-.56.58,0,1.11.12,1.65.38q.35.17,1.19.74c1.01.68,1.72.96,2.42.96.36,0,.79-.13,1.22-.38.47-.27.71-.51,1.14-1.05l.88.84c-.53.65-.8.91-1.21,1.21-.65.47-1.36.7-2.15.7-.4,0-.83-.06-1.19-.19-.53-.18-.83-.35-1.77-.99-1.1-.73-1.53-.91-2.28-.91-.87,0-1.45.3-2.32,1.2l-.87-.81Z" fill="#231815"/>
      <path d="m528.46,125.85c-.42.52-.71.82-1.24,1.27-.31-.39-.36-.43-.83-.78.98-.69,1.67-1.55,2.02-2.51l1.15.26c-.19.38-.27.51-.44.79h1.93c.56,0,.83-.01,1.13-.06v1.05c.62-.6,1-1.23,1.21-2.02l1.13.21c-.14.33-.17.39-.4.83h2.8c.61,0,.85-.01,1.23-.08v1.1c-.35-.05-.63-.06-1.18-.06h-1.41c.26.4.38.62.54.96l-1.06.36c-.18-.51-.36-.87-.63-1.33h-.87c-.23.31-.4.51-.79.88,0,.18-.01.27-.01.44v.18h3.73c.7,0,.92-.01,1.36-.05-.04.26-.04.42-.04.82v.81c0,.4.01.61.05.86h-1.17v-1.5h-8.64v1.5h-1.17c.04-.26.05-.48.05-.85v-.81c0-.38-.01-.56-.05-.83.41.04.62.05,1.33.05h3.41v-.18c0-.29,0-.43-.04-.66h.95c-.31-.23-.39-.27-.62-.4.13-.1.18-.14.27-.22-.3-.04-.43-.05-.88-.05h-.92c.19.32.34.6.49.96l-1.04.38c-.16-.55-.27-.86-.53-1.34h-.82Zm.05,10.06c.05-.47.08-.82.08-1.39v-4.69c0-.42-.01-.61-.05-.9.38.04.7.05,1.18.05h5c.5,0,.82-.01,1.19-.05-.03.23-.04.52-.04.9v.92c0,.47,0,.69.04.99-.32-.03-.67-.04-1.15-.04h-5.05v.74h5.61c.51,0,.82-.01,1.11-.05-.04.33-.05.66-.05,1.12v1.21c0,.46.01.83.06,1.2h-1.18v-.58h-5.56v.58h-1.19Zm1.19-5.12h5.07v-.88h-5.07v.88Zm0,3.61h5.56v-1.04h-5.56v1.04Z" fill="#231815"/>
      <path d="m542.32,130.29c.48,0,.75-.01.96-.04-.03.21-.04.22-.05.83-.04,1.56-.22,3.11-.42,3.68-.26.74-.69.98-1.8.98-.3,0-.7-.03-1.14-.05-.05-.56-.1-.82-.25-1.23.58.08,1.1.13,1.42.13.58,0,.73-.14.87-.86.09-.52.16-1.39.18-2.41h-1.63c-.19,0-.61.01-.96.03.26-1.23.4-2.65.43-3.91.26.04.43.05,1.14.05h1.05v-1.81h-1.42c-.5,0-.83.01-1.21.05v-1.17c.23.05.61.08,1.23.08h1.66c.39,0,.58-.01.91-.04-.03.25-.04.56-.04.96v1.85c0,.43,0,.58.04,1.1-.14-.01-.44-.01-.92-.03h-1.36c-.08.82-.13,1.31-.22,1.81h1.53Zm.96,4.02q.52.01.57.01c.12,0,.19,0,.48-.01.6-.66,1.19-1.42,1.89-2.38-.95-1.07-1.53-1.61-2.75-2.6l.75-.9c.38.33.47.42.73.64.53-.73.88-1.37,1.23-2.22h-1c-.57,0-1.06.03-1.48.08v-1.21c.35.05.84.08,1.48.08h1.52v-.66c0-.44-.03-.75-.08-1.04h1.27c-.04.26-.07.56-.07,1.03v.68h1.8c.61,0,1.17-.03,1.49-.08v1.21c-.42-.05-.86-.08-1.48-.08h-2.19c-.54,1.23-.97,2-1.68,2.99.49.48.71.69,1.13,1.13.96-1.43,1.55-2.44,1.88-3.2l1.13.64c-.12.14-.26.36-.45.69-1.11,1.83-2.44,3.68-3.71,5.14,1.61-.12,2.22-.18,3.54-.38-.31-.69-.52-1.07-1.06-1.91l1.01-.46c.93,1.51,1.32,2.28,1.98,3.94l-1.11.47c-.19-.52-.22-.61-.42-1.09-1.55.27-2.09.34-4.83.61-.71.08-1.01.12-1.37.18l-.19-1.29Z" fill="#231815"/>
      <path d="m559.49,132.27c1.1,1.04,2.67,1.79,4.71,2.29-.29.36-.48.66-.69,1.11-1.17-.36-1.83-.64-2.63-1.12-.96-.56-1.62-1.12-2.24-1.86q.01.18.03.46c.03.48.03.49.03.6v.79c0,.65.01.95.09,1.35h-1.33c.06-.4.09-.77.09-1.35v-.78c0-.14.03-.68.05-1.04-1.23,1.38-2.44,2.15-4.66,2.94-.22-.44-.39-.68-.74-1.05,1.98-.53,3.45-1.29,4.51-2.33h-2.64c-.69,0-1.13.03-1.5.08v-1.2c.35.05.82.08,1.5.08h3.47c0-.35-.01-.56-.05-.78h1.28c-.04.25-.05.39-.05.78h3.59c.75,0,1.17-.03,1.52-.08v1.2c-.39-.05-.82-.08-1.53-.08h-2.8Zm-3.9-3.44c-.75.51-1.43.88-2.33,1.34-.22.1-.25.12-.52.27l-.45-1.1c.83-.23,1.84-.74,3.02-1.51l.29,1Zm-2.19-4.11c.74.58,1.23,1.07,1.94,1.86l-.79.82c-.66-.81-1.22-1.37-1.94-1.91l.79-.77Zm3.83.55c.22-.51.34-.85.44-1.35l1.21.17c-.3.73-.31.75-.5,1.18h1.17c.49,0,.62,0,.97-.04-.04.32-.04.44-.04,1.04v2.91c0,.57.01.79.04,1.07-.27-.03-.58-.04-.95-.04h-2.76c-.38,0-.71.01-.99.04.03-.31.04-.55.04-1.05v-2.94c0-.57,0-.61-.04-1.03.32.04.49.04,1.01.04h.4Zm-.32,1.98h2.51v-1.03h-2.51v1.03Zm0,2.02h2.51v-1.09h-2.51v1.09Zm4.35-1.39c1.28.64,2,1.04,2.86,1.6l-.65.94c-.96-.7-1.76-1.18-2.81-1.7l.6-.83Zm2.51-2.42c-.89.96-1.49,1.52-2.23,2.08l-.74-.79c.97-.74,1.44-1.21,2.09-2.05l.88.77Z" fill="#231815"/>
      <path d="m565.67,135.9c.05-.39.08-.82.08-1.65v-8.19c0-.64-.03-1.08-.08-1.57.48.05.85.06,1.52.06h7.94c.66,0,1.04-.01,1.53-.06-.06.53-.08.88-.08,1.57v8.22c0,.81.03,1.25.08,1.62h-1.24v-.74h-8.5v.74h-1.24Zm1.24-1.79h8.5v-8.5h-8.5v8.5Zm5.35-7.19c0-.47-.01-.7-.06-.98h1.24c-.05.26-.06.48-.06.98v.62h.48c.47,0,.85-.03,1.09-.06v1.13c-.27-.04-.66-.06-1.11-.06h-.45v3.95c0,.91-.34,1.17-1.55,1.17-.39,0-.6-.01-1.31-.06-.05-.53-.09-.69-.27-1.12.67.1,1.17.16,1.61.16.32,0,.42-.08.42-.34v-3.76h-3.51c-.54,0-.86.01-1.21.06v-1.13c.31.05.58.06,1.21.06h3.51v-.62Zm-2.19,5.06c-.56-1.14-.89-1.66-1.62-2.5l.91-.6c.79.92,1.08,1.34,1.71,2.44l-1,.65Z" fill="#231815"/>
    </g>
    <g>
      <path d="m462.49,201.68c.36.06.63.08,1.2.08h1.04c.57,0,.76-.01,1.22-.06-.08.79-.1,1.4-.1,2.16v6.46c0,.66.03,1.09.1,1.61h-1.67c.08-.49.1-.96.1-1.61v-7.31h-.65c-.44,0-.8.03-1.24.08v-1.4Z" fill="#231815"/>
      <path d="m471.43,201.68c.36.06.63.08,1.2.08h1.04c.57,0,.76-.01,1.22-.06-.08.79-.1,1.4-.1,2.16v6.46c0,.66.03,1.09.1,1.61h-1.67c.08-.49.1-.96.1-1.61v-7.31h-.65c-.44,0-.8.03-1.24.08v-1.4Z" fill="#231815"/>
      <path d="m480.83,206.29h-1.64v-1.65h1.64v1.65Zm-1.64,5.63v-1.65h1.64v1.65h-1.64Z" fill="#231815"/>
      <path d="m483.57,211.11c-.38-.38-.65-.81-.82-1.26-.34-.92-.51-1.94-.51-3,0-1.36.31-2.79.76-3.56.67-1.12,1.77-1.73,3.15-1.73,1.05,0,1.93.34,2.59,1,.38.38.66.81.82,1.26.34.91.5,1.95.5,3.02,0,1.59-.35,2.99-.93,3.81-.7.98-1.71,1.47-2.99,1.47-1.05,0-1.92-.34-2.58-1Zm1.06-7.64c-.27.3-.45.64-.56.98-.23.73-.35,1.56-.35,2.43,0,1.14.25,2.35.58,2.92.41.7,1.04,1.05,1.85,1.05.61,0,1.14-.21,1.49-.57.27-.29.48-.65.6-1.05.23-.75.35-1.53.35-2.41,0-1.05-.22-2.25-.53-2.85-.4-.78-1.02-1.17-1.92-1.17-.65,0-1.13.21-1.52.66Z" fill="#231815"/>
      <path d="m492.51,211.11c-.38-.38-.65-.81-.82-1.26-.34-.92-.51-1.94-.51-3,0-1.36.31-2.79.76-3.56.67-1.12,1.77-1.73,3.15-1.73,1.05,0,1.93.34,2.59,1,.38.38.66.81.82,1.26.34.91.51,1.95.51,3.02,0,1.59-.35,2.99-.93,3.81-.7.98-1.71,1.47-2.99,1.47-1.05,0-1.92-.34-2.58-1Zm1.06-7.64c-.27.3-.45.64-.56.98-.23.73-.35,1.56-.35,2.43,0,1.14.25,2.35.58,2.92.41.7,1.04,1.05,1.85,1.05.61,0,1.14-.21,1.49-.57.27-.29.48-.65.6-1.05.23-.75.35-1.53.35-2.41,0-1.05-.22-2.25-.53-2.85-.4-.78-1.02-1.17-1.92-1.17-.65,0-1.13.21-1.52.66Z" fill="#231815"/>
      <path d="m500.15,206.91c.5-.57.76-.79,1.36-1.14.71-.4,1.23-.56,1.93-.56.58,0,1.11.12,1.65.38q.35.17,1.19.74c1.01.68,1.72.96,2.42.96.36,0,.79-.13,1.22-.38.47-.27.71-.51,1.14-1.05l.88.84c-.53.65-.8.91-1.21,1.21-.65.47-1.36.7-2.15.7-.4,0-.83-.06-1.19-.19-.53-.18-.83-.35-1.77-.99-1.1-.73-1.53-.91-2.28-.91-.87,0-1.45.3-2.32,1.2l-.87-.81Z" fill="#231815"/>
      <path d="m527.97,210.19c0,.83.03,1.23.1,1.73h-1.65c.08-.44.1-.92.1-1.72v-6.89c0-.66-.03-1.1-.1-1.6.47.03.83.04,1.55.04h3.56c.73,0,1.13-.03,1.65-.09v1.48c-.45-.06-.88-.09-1.65-.09h-3.58v3.02h2.89c.74,0,1.18-.03,1.65-.09v1.48c-.45-.06-.91-.09-1.65-.09h-2.89v2.82Z" fill="#231815"/>
      <path d="m536.11,201.75v1.46h-1.64v-1.46h1.64Zm-.03,2.89c-.07.47-.09.87-.09,1.61v4.06c0,.68.03,1.07.09,1.61h-1.59c.06-.6.09-.99.09-1.6v-4.08c0-.68-.03-1.1-.09-1.6h1.59Z" fill="#231815"/>
      <path d="m537.81,211.92c.08-.55.1-.91.1-1.6v-4.08c0-.66-.03-1.08-.1-1.6h1.48v.65c0,.09-.01.27-.03.55.7-.92,1.5-1.33,2.64-1.33.95,0,1.7.34,2.14.96.29.4.42.92.42,1.69v3.16c0,.7.03,1.14.09,1.6h-1.58c.07-.56.09-.96.09-1.6v-2.95c0-1.14-.43-1.66-1.37-1.66-.63,0-1.15.25-1.67.81-.35.38-.53.69-.73,1.22v2.59c0,.6.03,1.07.09,1.6h-1.57Z" fill="#231815"/>
      <path d="m551.06,211.1c-.47.39-.69.53-1.09.69-.45.17-.96.26-1.48.26-1.53,0-2.45-.79-2.45-2.11,0-.96.61-1.77,1.63-2.15.82-.3,1.58-.39,3.38-.44v-.56c0-.47-.1-.77-.32-.95-.27-.22-.69-.34-1.23-.34-1.06,0-1.62.35-1.9,1.21l-1.42-.27c.26-.68.48-1.01.91-1.34.6-.47,1.39-.69,2.44-.69s1.8.22,2.31.72c.4.39.57.87.57,1.68v3.56c0,.64.03.99.1,1.55h-1.44v-.82Zm0-2.73c-1.39.04-2.08.13-2.67.35-.65.25-.96.65-.96,1.22,0,.64.48,1.03,1.27,1.03.66,0,1.41-.3,1.89-.77.31-.31.47-.66.47-1.1v-.73Z" fill="#231815"/>
      <path d="m555.74,201.75c-.06.49-.09.88-.09,1.61v6.96c0,.66.03,1.03.09,1.6h-1.58c.06-.53.09-.91.09-1.6v-6.97c0-.71-.03-1.13-.09-1.6h1.58Z" fill="#231815"/>
      <path d="m564.59,205.37h4.78l-3.83,2.89,1.46,4.62-3.91-2.85-3.93,2.85,1.48-4.62-3.85-2.89h4.78l1.52-4.68,1.5,4.68Zm-2.59.57h-3.55l2.86,2.09-1.13,3.42,2.9-2.12,2.9,2.12-1.14-3.42,2.86-2.09h-3.54l-1.09-3.48-1.09,3.48Z" fill="#231815"/>
      <path d="m572.05,210.19c0,.83.03,1.23.1,1.73h-1.65c.08-.44.1-.92.1-1.72v-6.89c0-.66-.03-1.1-.1-1.6.47.03.83.04,1.55.04h3.56c.73,0,1.13-.03,1.65-.09v1.48c-.45-.06-.88-.09-1.65-.09h-3.58v3.02h2.89c.74,0,1.18-.03,1.65-.09v1.48c-.45-.06-.91-.09-1.65-.09h-2.89v2.82Z" fill="#231815"/>
      <path d="m580.12,201.75c-.06.49-.09.88-.09,1.61v6.96c0,.66.03,1.03.09,1.6h-1.58c.06-.53.09-.91.09-1.6v-6.97c0-.71-.03-1.13-.09-1.6h1.58Z" fill="#231815"/>
      <path d="m586.66,211.1c-.47.39-.69.53-1.09.69-.45.17-.96.26-1.48.26-1.53,0-2.45-.79-2.45-2.11,0-.96.61-1.77,1.63-2.15.82-.3,1.58-.39,3.38-.44v-.56c0-.47-.1-.77-.32-.95-.27-.22-.69-.34-1.23-.34-1.06,0-1.62.35-1.9,1.21l-1.42-.27c.26-.68.48-1.01.91-1.34.6-.47,1.39-.69,2.44-.69s1.8.22,2.31.72c.4.39.57.87.57,1.68v3.56c0,.64.03.99.1,1.55h-1.44v-.82Zm0-2.73c-1.39.04-2.08.13-2.67.35-.65.25-.96.65-.96,1.22,0,.64.48,1.03,1.27,1.03.66,0,1.41-.3,1.89-.77.31-.31.47-.66.47-1.1v-.73Z" fill="#231815"/>
      <path d="m590.9,209.68c.09.44.19.65.44.87.3.29.75.43,1.36.43,1.01,0,1.67-.43,1.67-1.08,0-.31-.13-.57-.36-.73-.27-.18-.45-.23-1.43-.44-1.02-.22-1.44-.35-1.89-.61-.62-.34-.96-.9-.96-1.59,0-.51.21-.99.58-1.35.53-.49,1.27-.74,2.27-.74s1.75.25,2.24.7c.35.31.52.62.7,1.25l-1.44.19c-.05-.33-.12-.47-.27-.64-.29-.3-.7-.46-1.26-.46-.86,0-1.45.42-1.45,1.01,0,.27.16.51.42.66.3.16.6.25,1.35.4,1.39.31,1.87.48,2.28.85.43.38.62.83.62,1.47,0,.51-.23,1.04-.61,1.39-.56.53-1.42.81-2.53.81-1.27,0-2.23-.38-2.76-1.09-.22-.3-.32-.55-.47-1.12l1.49-.19Z" fill="#231815"/>
      <path d="m597.15,211.92c.08-.53.1-.91.1-1.6v-6.96c0-.73-.03-1.1-.09-1.61h1.55c-.07.49-.09.88-.09,1.61v1.88q0,.2-.04.62c.69-.95,1.52-1.36,2.68-1.36,1.59,0,2.53.94,2.53,2.54v3.28c0,.66.03,1.13.09,1.6h-1.59c.08-.46.1-.92.1-1.6v-2.96c0-.56-.1-.96-.34-1.21-.23-.27-.61-.43-1.05-.43-1.01,0-1.88.73-2.38,2.03v2.57c0,.6.03,1.07.09,1.6h-1.57Z" fill="#231815"/>
      <path d="m462.49,224.43c.36.06.63.08,1.2.08h1.04c.57,0,.76-.01,1.22-.06-.08.79-.1,1.4-.1,2.16v6.46c0,.66.03,1.09.1,1.61h-1.67c.08-.49.1-.96.1-1.61v-7.31h-.65c-.44,0-.8.03-1.24.08v-1.4Z" fill="#231815"/>
      <path d="m469.72,230.91q.31-.34.96-1.12l3.15-3.9c.52-.64.73-.92,1.02-1.39h1.45c-.08.75-.09,1.2-.09,2.2v4.26h.48c.53,0,.84-.03,1.32-.09v1.43c-.49-.06-.79-.09-1.32-.09h-.48v1c0,.65.03.99.1,1.46h-1.58c.09-.44.12-.85.12-1.47v-.99h-3.54c-.75,0-1.13.01-1.59.05v-1.35Zm5.13-2.86c0-.65.01-1.07.06-1.64-.26.38-.45.62-.89,1.2l-2.69,3.37h3.52v-2.93Z" fill="#231815"/>
      <path d="m480.83,229.04h-1.64v-1.65h1.64v1.65Zm-1.64,5.63v-1.65h1.64v1.65h-1.64Z" fill="#231815"/>
      <path d="m483.57,233.86c-.38-.38-.65-.81-.82-1.26-.34-.92-.51-1.94-.51-3,0-1.36.31-2.79.76-3.56.67-1.12,1.77-1.73,3.15-1.73,1.05,0,1.93.34,2.59,1,.38.38.66.81.82,1.26.34.91.5,1.95.5,3.02,0,1.59-.35,2.99-.93,3.81-.7.98-1.71,1.47-2.99,1.47-1.05,0-1.92-.34-2.58-1Zm1.06-7.64c-.27.3-.45.64-.56.98-.23.73-.35,1.56-.35,2.43,0,1.14.25,2.35.58,2.92.41.7,1.04,1.05,1.85,1.05.61,0,1.14-.21,1.49-.57.27-.29.48-.65.6-1.05.23-.75.35-1.53.35-2.41,0-1.05-.22-2.25-.53-2.85-.4-.78-1.02-1.17-1.92-1.17-.65,0-1.13.21-1.52.66Z" fill="#231815"/>
      <path d="m492.51,233.86c-.38-.38-.65-.81-.82-1.26-.34-.92-.51-1.94-.51-3,0-1.36.31-2.79.76-3.56.67-1.12,1.77-1.73,3.15-1.73,1.05,0,1.93.34,2.59,1,.38.38.66.81.82,1.26.34.91.51,1.95.51,3.02,0,1.59-.35,2.99-.93,3.81-.7.98-1.71,1.47-2.99,1.47-1.05,0-1.92-.34-2.58-1Zm1.06-7.64c-.27.3-.45.64-.56.98-.23.73-.35,1.56-.35,2.43,0,1.14.25,2.35.58,2.92.41.7,1.04,1.05,1.85,1.05.61,0,1.14-.21,1.49-.57.27-.29.48-.65.6-1.05.23-.75.35-1.53.35-2.41,0-1.05-.22-2.25-.53-2.85-.4-.78-1.02-1.17-1.92-1.17-.65,0-1.13.21-1.52.66Z" fill="#231815"/>
      <path d="m500.15,229.66c.5-.57.76-.79,1.36-1.14.71-.4,1.23-.56,1.93-.56.58,0,1.11.12,1.65.38q.35.17,1.19.74c1.01.68,1.72.96,2.42.96.36,0,.79-.13,1.22-.38.47-.27.71-.51,1.14-1.05l.88.84c-.53.65-.8.91-1.21,1.21-.65.47-1.36.7-2.15.7-.4,0-.83-.06-1.19-.19-.53-.18-.83-.35-1.77-.99-1.1-.73-1.53-.91-2.28-.91-.87,0-1.45.3-2.32,1.2l-.87-.81Z" fill="#231815"/>
      <path d="m531.22,224.84c0-.57-.01-.85-.08-1.17h1.45c-.07.34-.09.64-.09,1.17v1.14h3.74c.57,0,1.08-.03,1.46-.08v1.3c-.47-.05-.96-.08-1.46-.08h-3.74v2.43h2.73c.56,0,.79-.01,1.09-.05-.05.34-.06.65-.06,1.16v3.55c0,.56.03.99.08,1.34h-1.31v-.73h-6.1v.73h-1.32c.05-.39.08-.82.08-1.34v-3.55c0-.44-.03-.81-.06-1.16.31.04.56.05,1.09.05h2.51v-2.43h-3.5c-.58,0-1.05.03-1.46.08v-1.3c.39.05.89.08,1.46.08h3.5v-1.14Zm-2.29,8.87h6.09v-3.02h-6.09v3.02Z" fill="#231815"/>
      <path d="m543.75,233.29c-.79.7-1.21,1.01-1.93,1.43-.73.43-1.2.64-2.11.94-.34-.59-.45-.75-.83-1.09.96-.23,1.44-.42,2.14-.77.69-.35,1.05-.61,1.75-1.23l.98.73Zm-.76-8.33c0-.6-.01-.84-.08-1.17h1.24c-.06.34-.08.58-.08,1.18v.44h1.7v-.44c0-.65-.01-.87-.08-1.18h1.26c-.08.35-.09.61-.09,1.17v.46h1.74c.62,0,1-.01,1.26-.04-.04.27-.05.6-.05,1.08v4.81c.5,0,.78-.03,1.13-.08v1.25c-.4-.05-.83-.08-1.46-.08h-9.06c-.6,0-1.06.03-1.44.08v-1.25c.35.05.65.08,1.1.08v-4.82c0-.47-.01-.77-.05-1.07.36.03.67.04,1.23.04h1.74v-.46Zm0,1.52h-1.75v1.77h1.75v-1.77Zm0,2.8h-1.75v1.99h1.75v-1.99Zm2.79-1.03v-1.77h-1.7v1.77h1.7Zm0,3.02v-1.99h-1.7v1.99h1.7Zm.95,1.31c.71.59,1.08.82,1.77,1.17.82.42,1.33.61,2.33.84-.35.43-.44.57-.73,1.13-.96-.3-1.52-.53-2.31-.99-.7-.42-1.13-.71-1.96-1.43l.88-.73Zm1.92-4.33v-1.77h-1.77v1.77h1.77Zm0,3.02v-1.99h-1.77v1.99h1.77Z" fill="#231815"/>
      <path d="m556.36,225.74c-.13-.74-.18-.95-.32-1.31l1.44-.23c.03.43.05.66.17,1.31l.21,1.12,1.96-.3c.58-.09,1.14-.22,1.46-.33l.23,1.35c-.44.03-.61.05-1.46.18l-1.96.3.43,2.33,2.94-.48c.69-.1,1.08-.19,1.48-.34l.26,1.35q-.32,0-1.48.19l-2.98.47.45,2.4c.16.87.21,1.09.36,1.56l-1.49.26c-.01-.44-.08-.85-.21-1.57l-.44-2.44-3.16.51c-.71.12-1.06.18-1.44.3l-.22-1.35c.45,0,.8-.04,1.49-.14l3.11-.51-.42-2.34-2.36.38c-.74.12-1.15.19-1.53.31l-.22-1.37c.53-.01.93-.05,1.54-.14l2.34-.38-.19-1.09Zm5.12-1.9c.61.74.88,1.17,1.28,2l-.83.4c-.38-.83-.73-1.4-1.27-2.04l.82-.36Zm1.58-.65c.6.75.87,1.16,1.27,1.96l-.82.42c-.38-.82-.73-1.35-1.26-2l.8-.38Z" fill="#231815"/>
      <path d="m570.99,224.14q-.14.23-.41.79c-.17.35-.26.52-.35.65.08,0,.26-.01.53-.03l3.08-.04c.44,0,.7-.04.99-.13l.75.75c-.16.21-.18.29-.39.86-.44,1.2-1.13,2.68-1.7,3.59-1.31,2.09-3.08,3.58-5.83,4.85-.34-.57-.48-.77-.89-1.13,1.11-.44,1.78-.79,2.59-1.34.95-.64,1.52-1.13,2.16-1.91-.92-.81-1.76-1.42-2.76-1.96l.84-.95c1.09.62,1.7,1.04,2.71,1.86.65-1.01,1.18-2.12,1.57-3.3l-4.21.04c-.91,1.39-1.79,2.39-3.04,3.43-.36-.4-.52-.53-1.09-.87,1.4-1.04,2.46-2.24,3.28-3.72.39-.7.65-1.31.75-1.78l1.42.34Z" fill="#231815"/>
      <path d="m578.32,228.86c.48.06,1.04.09,2,.09h7.01c1.11,0,1.43-.01,1.93-.08v1.51c-.57-.05-.98-.06-1.94-.06h-6.98c-1.09,0-1.48.01-2.01.06v-1.52Z" fill="#231815"/>
      <path d="m596.4,228.59c.57,0,.89-.01,1.15-.06v1.21c-.29-.05-.62-.07-1.1-.07h-4.34c-.61,0-.93.01-1.27.07v-1.21c.32.05.65.06,1.28.06h2.64c.4-.86.58-1.42.79-2.31l1.11.31c-.23.77-.43,1.24-.82,2h.54Zm-.18-3.52c.57,0,.88-.01,1.19-.06v1.18c-.27-.05-.57-.06-1.13-.06h-4.04c-.5,0-.82.01-1.1.06v-1.18c.31.05.61.06,1.22.06h1.42v-.42c0-.38-.03-.69-.08-.94h1.32c-.05.26-.08.55-.08.94v.42h1.27Zm-3.43,10.52h-1.18c.04-.33.05-.64.05-1.2v-2.76c0-.56-.01-.81-.04-1.08.28.03.53.04,1.02.04h3.25c.51,0,.75-.01.93-.04-.04.27-.04.4-.04,1.01v3.03c0,.44.01.69.05.98h-1.19v-.75h-2.86v.77Zm.22-9.35c.34.65.49,1.05.75,1.95l-1.06.34c-.21-.85-.34-1.22-.7-1.94l1.01-.35Zm-.22,7.54h2.88v-2.15h-2.88v2.15Zm9.92-8.97c-.09.18-.13.27-.25.56-.4,1.03-.92,2.11-1.48,3.15.75.83,1.05,1.26,1.33,1.94.23.58.36,1.22.36,1.81,0,.71-.25,1.23-.67,1.5-.29.17-.7.25-1.37.25-.32,0-.49,0-.85-.04-.01-.53-.06-.81-.25-1.18.41.06.73.09,1.1.09.67,0,.91-.18.91-.7,0-.57-.14-1.14-.41-1.72-.31-.62-.62-1.03-1.43-1.77.79-1.43,1.15-2.25,1.54-3.5h-2.11v9.01c0,.7.03,1.1.09,1.5h-1.31c.05-.4.08-.88.08-1.47v-9.02c0-.38-.01-.73-.05-1.12.32.03.62.04,1.05.04h2.19c.49,0,.76-.01,1.01-.05l.52.74Z" fill="#231815"/>
    </g>
  </g>
</svg>