<?xml version="1.0" encoding="UTF-8"?>
<svg xmlns="http://www.w3.org/2000/svg" width="661.21" height="506.06" viewBox="0 0 661.21 506.06">
  <g id="_背景" data-name="背景">
    <polyline id="base" points=".5 0 660.5 0 660.5 506.06 .5 506.06" fill="#dcdddd"/>
  </g>
  <g id="MLOC-buildings">
    <rect id="hall-building1" x=".5" y="14.5" width="189.98" height="307.79" fill="#929292" stroke="#283331" stroke-miterlimit="10"/>
    <rect id="soranomado" x="369.1" y="373.9" width="291.62" height="130.62" fill="#abd8f1" stroke="#283331" stroke-miterlimit="10" stroke-width=".97"/>
    <polyline id="s-hall" points="475.29 45.75 660.5 45.75 660.5 164.11 475.29 164.11 475.29 45.75" fill="#aedef8" stroke="#283331" stroke-miterlimit="10" stroke-width=".68"/>
    <polyline id="b-hall" points="475.49 168.8 660.71 168.8 660.71 287.16 475.49 287.16 475.49 168.8" fill="#aedef8" stroke="#283331" stroke-miterlimit="10" stroke-width=".68"/>
  </g>
  <g id="MNOINT-word">
    <g>
      <path d="m74.68,166.28c.56.1.98.12,1.86.12h1.6c.88,0,1.18-.02,1.88-.1-.12,1.22-.16,2.16-.16,3.32v9.94c0,1.02.04,1.68.16,2.48h-2.58c.12-.76.16-1.48.16-2.48v-11.24h-1c-.68,0-1.24.04-1.92.12v-2.16Z" fill="#231815"/>
      <path d="m93.52,174.46c-.9,0-1.64.04-2.22.12v-1.84c.54.08,1.24.12,2.24.12h13.62c.98,0,1.7-.04,2.24-.12v1.84c-.6-.08-1.32-.12-2.24-.12h-9.12c-.3.74-.46,1.1-.78,1.72h7.46c1.08,0,1.62-.02,2.12-.08-.02.2-.1.78-.16,1.32-.16,1.42-.5,3.16-.74,3.9-.3.96-.64,1.4-1.32,1.7-.52.24-1.04.3-2.24.3-1.06,0-1.72-.04-3.14-.14-.02-.58-.14-1.12-.44-1.82,1.3.18,2.76.3,3.58.3.94,0,1.32-.12,1.54-.46.34-.5.56-1.48.82-3.48h-8.3c-.28.52-.48.82-1,1.6l-1.98-.38c1.18-1.56,1.94-2.86,2.62-4.48h-2.56Zm.38-7.1c0-.66-.02-1.08-.08-1.6.74.08,1.36.1,2.26.1h8.5c1.12,0,1.72-.02,2.26-.1-.06.48-.08.98-.08,1.6v2.6c0,.66.02,1.1.08,1.6-.58-.06-1.08-.08-2.08-.08h-8.86c-.96,0-1.5.02-2.08.08.06-.56.08-.96.08-1.6v-2.6Zm1.78.08v2.5h9.26v-2.5h-9.26Z" fill="#231815"/>
      <path d="m118.38,182.96c-.32-.76-.48-1.14-.68-1.58-1.06.4-2.36.78-5.38,1.6-.22.04-.46.12-.64.2l-.46-1.84q.54-.04,1.34-.2v-8.92c0-.88-.02-1.2-.06-1.64-.24.18-.36.28-.72.54-.24-.76-.42-1.16-.82-1.72,1.16-.76,1.6-1.12,2.52-2.02.72-.72,1.22-1.38,1.58-2.08h1.68c.54,1,1.48,2,2.78,3v-.12c0-.52-.02-.84-.06-1.18.48.04.9.06,1.74.06h2.06v-.4c0-.54-.04-.96-.12-1.42h2c-.08.42-.1.78-.1,1.42v.4h2.24c.8,0,1.5-.04,2.06-.1-.04.4-.06.82-.06,1.38v1.34c0,.56.02.98.06,1.32h-1.46v2.9c0,.74.02,1.16.06,1.5-.46-.04-.92-.06-1.58-.06h-4.2v1.68h4.94c.72,0,1.2-.02,1.62-.08-.04.48-.06.94-.06,1.64v3.16c0,.88.02,1.36.08,1.86h-1.8v-1.04h-4.76v1.08h-1.82c.06-.48.1-1,.1-1.82v-9.86c0-.52,0-.64-.02-1h-.98c.04-.4.06-.76.06-1.2v-1.18c-.42.48-.62.78-.82,1.3-1.28-1.08-1.94-1.78-2.74-2.94-1,1.4-2,2.46-3.4,3.58.28.02.74.04,1.42.04h1.08v-.7c0-.44-.02-.72-.1-1.08h1.72c-.06.32-.08.62-.08,1.1v.68h.8c.78,0,1.22-.02,1.6-.08-.04.5-.06.98-.06,1.7v3.48c0,.76.02,1.26.04,1.68-.36-.04-.72-.06-1.3-.06h-3.44v3.52c1.28-.32,1.86-.5,2.76-.8-.4-.74-.5-.92-.98-1.64l1.38-.62c.8,1.14,1.36,2.14,2.48,4.36l-1.5.86Zm-1.06-9.78v-1.26h-3.08v1.26h3.08Zm-3.08,2.72h3.08v-1.36h-3.08v1.36Zm13.36-7.26h-6.38v1.58c.3.02.44.02.76.02h4.28c.62,0,.88,0,1.34-.04v-1.56Zm-5.42,5.22h4v-2.18h-4v2.18Zm0,7.16h4.76v-2.48h-4.76v2.48Z" fill="#231815"/>
    </g>
    <g>
      <path d="m473.62,391.56c-1.02,0-1.62.04-2.16.12v-1.9c.6.1,1.08.12,2.02.12h9.98c.9,0,1.66-.04,2.24-.12v1.9c-.58-.08-1.28-.12-2.2-.12h-4.14v3.32h5.7c.98,0,1.84-.04,2.34-.12v1.92c-.66-.1-1.4-.14-2.34-.14h-12.92c-.98,0-1.74.04-2.4.14v-1.92c.44.06,1.54.12,2.4.12h5.38v-3.32h-3.9Zm3.86-11.22c0-.56-.04-.92-.12-1.36h2.08c-.08.38-.12.8-.12,1.36v.8h5.6c.88,0,1.42-.02,2.14-.1-.06.44-.08.82-.08,1.44v.9c0,.56.02.96.1,1.44h-1.86v-2.06h-4.18v3.32c0,.26.04.32.24.4.2.06.66.1,1.44.1,1,0,1.7-.06,1.9-.16.28-.12.38-.42.4-1.28.62.3,1,.42,1.7.56-.2,2.26-.56,2.46-4.22,2.46-2.7,0-3.2-.22-3.2-1.42v-3.98h-2.04c-.1,1.64-.52,2.84-1.38,3.8-1,1.12-2.24,1.8-4.92,2.68-.26-.58-.6-1.06-1.08-1.58,2.36-.52,3.58-1.1,4.58-2.12.68-.7.94-1.38,1.04-2.78h-3.56v2.7h-1.86c.08-.54.1-1,.1-1.6v-1.38c0-.6-.02-1-.08-1.44.72.08,1.26.1,2.12.1h5.26v-.8Z" fill="#231815"/>
      <path d="m497.82,390.86c-1.16,2.64-2.38,3.8-3.94,3.8-2.12,0-3.68-2.22-3.68-5.26,0-2.14.76-4.16,2.16-5.7,1.64-1.8,3.94-2.74,6.72-2.74,4.66,0,7.72,2.86,7.72,7.18,0,3.34-1.76,6.02-4.76,7.26-.94.38-1.72.6-3.08.86-.3-.92-.48-1.26-1.02-1.96,1.56-.24,2.46-.46,3.32-.82,2.14-.92,3.48-3.02,3.48-5.44,0-2.08-.98-3.74-2.74-4.68-.68-.36-1.22-.5-2.14-.56-.36,2.98-1.08,5.9-2.04,8.06Zm-2.74-7.08c-1.82,1.22-2.94,3.36-2.94,5.64,0,1.74.76,3.12,1.72,3.12.72,0,1.46-.88,2.24-2.7.78-1.84,1.46-4.64,1.72-7.02-1.1.12-1.88.38-2.74.96Z" fill="#231815"/>
      <path d="m523.24,379.98c.94,0,1.54-.02,2.12-.1-.06.68-.1,1.26-.1,1.96v13.08c0,1,.04,1.66.12,2.32h-2.02v-1.22h-9.74v1.22h-2.02c.08-.64.12-1.28.12-2.2v-13.1c0-.8-.04-1.44-.1-2.06.64.08,1.28.1,2.2.1h9.42Zm.12,4.66v-2.9h-9.74v2.9h9.74Zm-9.74,4.68h9.74v-2.94h-9.74v2.94Zm0,4.94h9.74v-3.2h-9.74v3.2Z" fill="#231815"/>
      <path d="m532.18,394.9c0,1.16.04,1.82.12,2.38h-2.02c.08-.62.12-1.26.12-2.38v-13.06c0-1.04-.02-1.6-.08-2.24.54.06,1.06.08,2.08.08h3.26c1.02,0,1.48-.02,2.04-.08-.04.54-.06,1.1-.06,1.88v3.66c0,.86.02,1.36.06,1.82-.52-.04-1.16-.06-1.92-.06h-3.6v8Zm0-12.3h3.82v-1.46h-3.82v1.46Zm0,2.9h3.82v-1.52h-3.82v1.52Zm14.52,9.46c0,1.66-.5,2.04-2.74,2.04-.66,0-1.16-.02-2.08-.04-.1-.78-.22-1.2-.46-1.84,1.16.14,1.88.2,2.6.2s.9-.1.9-.52v-7.9h-3.8c-.8,0-1.48.02-1.92.06.04-.48.06-1.02.06-1.82v-3.66c0-.7-.02-1.24-.06-1.88.54.06,1.02.08,2.04.08h3.46c1.02,0,1.54-.02,2.1-.08-.08.68-.1,1.26-.1,2.22v13.14Zm-5.8-12.36h4.02v-1.46h-4.02v1.46Zm0,2.9h4.02v-1.52h-4.02v1.52Z" fill="#231815"/>
    </g>
    <g>
      <path d="m424.13,169.44c.44.08.84.1,1.56.1h3.14c.8,0,1.08-.02,1.54-.08v1.74c-.46-.06-.66-.08-1.44-.08h-3.24c-.68,0-1.08.02-1.56.08v-1.76Zm.52,14.98c.08-.56.12-1.18.12-1.96v-2.76c0-.74-.02-1.2-.1-1.72.5.04.82.06,1.4.06h2.78c.62,0,.92-.02,1.28-.08-.06.52-.06.7-.06,1.6v3c0,.6.02,1.12.06,1.5h-1.54v-.68h-2.28v1.04h-1.66Zm.12-17.76c.5.08.8.1,1.56.1h2.12c.76,0,1.06-.02,1.56-.1v1.7c-.48-.06-.88-.08-1.56-.08h-2.12c-.64,0-1.1.02-1.56.08v-1.7Zm.08,5.72c.4.04.68.06,1.32.06h2.58c.64,0,.88-.02,1.28-.06v1.6c-.48-.04-.7-.06-1.28-.06h-2.58c-.62,0-.88.02-1.32.06v-1.6Zm0,2.74c.38.04.64.06,1.32.06h2.58c.64,0,.92-.02,1.28-.06v1.66c-.36-.06-.62-.08-1.3-.08h-2.58c-.6,0-.9.02-1.3.06v-1.64Zm1.42,6.8h2.32v-2.46h-2.32v2.46Zm6.08-8.28c-.82,0-1.18.02-1.74.1v-1.56c.54.08.94.1,1.74.1h1v-1.08h-.58c-.64,0-1.12.02-1.52.08v-1.44c.38.06.86.08,1.52.08h.58v-1.02h-.96c-.68,0-1.1.02-1.58.08v-1.52c.46.08.86.1,1.62.1h.92c0-.72-.02-1.06-.12-1.42h1.82c-.1.38-.12.7-.12,1.42h2.68c0-.86-.02-1.06-.12-1.42h1.82c-.08.4-.12.76-.12,1.42h1.28c.74,0,1.12-.02,1.56-.1v1.52c-.5-.06-.9-.08-1.54-.08h-1.3v1.02h.9c.7,0,1.02-.02,1.48-.08v1.44c-.4-.06-.88-.08-1.5-.08h-.88v1.08h1.46c.86,0,1.26-.02,1.72-.1v1.56c-.5-.08-.88-.1-1.72-.1h-3.6v1.04h2.34c.76,0,1.46-.04,1.92-.1-.06.32-.06.5-.08.68,0,.24,0,.68-.02,1.32v3.12c.66-.02.8-.02,1.2-.1v1.6c-.4-.06-.68-.08-1.2-.1v1.4c0,1.36-.44,1.68-2.4,1.68-.38,0-1.04-.02-1.74-.06-.06-.6-.1-.84-.3-1.54.86.1,1.4.14,2.12.14.58,0,.72-.1.72-.5v-1.12h-6.52v.94c0,1.34.02,1.7.08,2.36h-1.78c.08-.66.1-1.2.1-2.36v-.94c-.48.02-.68.04-.96.08v-1.56c.28.04.48.06.96.08v-3.2c0-.8-.02-1.36-.08-1.88.5.04,1.02.06,2.02.06h2.1v-1.04h-3.18Zm3.18,2.38h-2.44v1.16h2.44v-1.16Zm0,2.42h-2.44v1.26h2.44v-1.26Zm2.08-8.52v-1.02h-2.68v1.02h2.68Zm0,2.36v-1.08h-2.68v1.08h2.68Zm2,4.9v-1.16h-2.56v1.16h2.56Zm0,2.52v-1.26h-2.56v1.26h2.56Z" fill="#231815"/>
      <path d="m449.57,177.2c-.9,0-1.4.02-1.86.08.04-.44.06-.78.06-1.78v-1.66c0-.66-.02-1.12-.06-1.54.48.04.94.06,1.5.06h8.12c.66,0,1.08-.02,1.44-.06-.04.38-.06.7-.06,1.58v1.62c0,1.14,0,1.42.06,1.78-.54-.06-1.2-.08-1.98-.08h-2.82v1.52h4.66c.88,0,1.36-.02,1.92-.1v1.78c-.56-.08-1.02-.1-1.92-.1h-4.66v1.98h5.94c.94,0,1.6-.04,2.18-.12v1.86c-.66-.1-1.34-.14-2.18-.14h-13.32c-.84,0-1.54.04-2.22.14v-1.86c.52.08,1.3.12,2.22.12h5.6v-1.98h-4.32c-.9,0-1.4.02-1.94.1v-1.78c.58.08,1.08.1,1.94.1h4.32v-1.52h-2.62Zm2.6-9.5c0-.6-.04-1.06-.1-1.54h2c-.08.48-.1.92-.1,1.54v1.72h2.18c.86-1.22,1.1-1.66,1.74-3.04l1.74.82q-.24.34-1,1.5c-.12.16-.28.38-.56.72h1.58c.94,0,1.56-.02,2.16-.08-.06.56-.08,1.1-.08,1.84v1.64c0,.48.04.9.1,1.32h-1.76v-3.16h-13.62v3.12h-1.74c.06-.5.08-.9.08-1.34v-1.78c0-.64-.02-1.16-.08-1.64.56.06,1.14.08,2.08.08h1.7c-.44-.76-1.02-1.5-1.66-2.2l1.52-.74c1.14,1.4,1.36,1.72,2.06,2.94h1.76v-1.72Zm-2.66,8.04h7.46v-1.9h-7.46v1.9Z" fill="#231815"/>
    </g>
    <g>
      <path d="m482.33,52.87q-.1.36-.24.94c-.67,2.83-1.32,4.42-2.65,6.42-.48-.43-.81-.66-1.32-.9,1.04-1.38,1.79-2.91,2.26-4.63.25-.92.38-1.58.42-2.22l1.53.39Zm3.75-3.63c-.06.43-.09.96-.09,1.71v10.06c0,1.17-.44,1.51-1.95,1.51-.55,0-1.21-.03-1.98-.1-.06-.58-.17-.93-.39-1.49.95.17,1.58.23,2.17.23.51,0,.66-.08.66-.38v-9.86c0-.7-.03-1.23-.09-1.69h1.67Zm3.34,3.17c.09.82.32,1.59.78,2.82.55,1.49,1.27,2.78,2.23,4.02-.67.42-.79.51-1.25.99-1.32-1.84-2.1-3.46-2.77-5.79l-.45-1.62,1.46-.42Z" fill="#231815"/>
      <path d="m497.65,54.92q-.04.13-.25.97c-.26.98-.63,2.01-1.11,2.99-.44.9-.75,1.41-1.37,2.24-.58-.45-.79-.57-1.44-.84.97-1.11,1.56-2.14,2.14-3.84.29-.81.41-1.32.46-1.92l1.56.41Zm1.75-3.9c0-.77-.02-1.16-.09-1.54h1.72c-.06.45-.08.85-.08,1.57v.87h3.46c.95,0,1.41-.03,1.95-.1v1.59c-.72-.08-.96-.09-1.92-.09h-3.5v7.17c0,1,.01,1.28.09,1.82h-1.74c.07-.5.09-.92.09-1.82v-7.17h-3.42c-.93,0-1.28.01-1.88.07v-1.57c.57.07,1.04.1,1.9.1h3.39v-.9Zm4.77,3.51c.1.48.22.88.54,1.68.67,1.79,1.26,2.85,2.21,4.02-.65.35-.84.46-1.41.92-1.16-1.74-1.82-3.17-2.57-5.55-.12-.39-.15-.46-.25-.69l1.49-.38Z" fill="#231815"/>
      <path d="m508.9,54.96c.55.08,1.2.11,2.31.11h8.12c1.29,0,1.65-.02,2.23-.09v1.74c-.66-.06-1.14-.08-2.25-.08h-8.08c-1.26,0-1.71.02-2.32.08v-1.75Z" fill="#231815"/>
      <path d="m528.16,50.08q-.06.39-.15,3.33c-.1,2.88-.43,4.5-1.23,6.03-.51.99-1.08,1.73-2.08,2.7-.45-.6-.66-.79-1.26-1.2,1.18-.96,1.92-2.01,2.41-3.43.45-1.33.65-3.22.65-6.31,0-.63-.01-.84-.04-1.2l1.71.09Zm3.87-.18c-.08.51-.09.75-.09,1.81l-.09,8.33c1.14-.48,1.8-.95,2.49-1.73.75-.82,1.26-1.72,1.6-2.85.44.57.6.74,1.19,1.2-.62,1.42-1.37,2.52-2.31,3.38-.85.76-1.66,1.21-3.21,1.81-.28.11-.45.18-.61.27l-.81-.89c.09-.36.11-.6.12-1.36l.08-8.17v-.36c0-.78-.01-1.06-.08-1.46l1.73.02Z" fill="#231815"/>
    </g>
    <g>
      <path d="m485.19,175.09c.38,1.46,1.08,2.83,2.07,4.05,1.18,1.44,2.43,2.34,4.32,3.12-.43.5-.58.73-.93,1.44-1.71-.9-2.83-1.74-3.92-2.98-.95-1.08-1.63-2.28-2.17-3.78-.45,1.77-1.32,3.24-2.67,4.54-.96.93-2.01,1.6-3.43,2.24-.29-.62-.44-.83-.89-1.32,1.82-.74,3.04-1.56,4.04-2.73,1.05-1.23,1.59-2.58,1.86-4.57h-3.75c-.88,0-1.33.03-1.8.1v-1.6c.43.08.96.1,1.81.1h3.87c.03-.73.04-1.11.04-1.69,0-.72-.03-1.23-.11-1.65h1.68c-.08.53-.11.81-.11,1.7-.01.71-.01,1.08-.04,1.65h4.2c.82,0,1.35-.03,1.8-.1v1.6c-.51-.07-.99-.1-1.79-.1h-4.09Z" fill="#231815"/>
      <path d="m496.92,175.97q-.04.13-.25.97c-.26.98-.63,2.01-1.11,2.99-.44.9-.75,1.41-1.37,2.24-.58-.45-.79-.57-1.44-.84.97-1.11,1.56-2.14,2.14-3.84.29-.81.41-1.32.46-1.92l1.56.41Zm1.75-3.9c0-.77-.02-1.16-.09-1.54h1.72c-.06.45-.08.85-.08,1.57v.87h3.46c.95,0,1.41-.03,1.95-.1v1.59c-.72-.08-.96-.09-1.92-.09h-3.5v7.17c0,1,.01,1.28.09,1.82h-1.74c.07-.5.09-.92.09-1.82v-7.17h-3.42c-.93,0-1.28.01-1.88.07v-1.57c.57.07,1.04.1,1.9.1h3.39v-.9Zm4.77,3.51c.1.48.22.88.54,1.68.67,1.79,1.26,2.85,2.21,4.02-.65.35-.84.46-1.41.92-1.16-1.74-1.82-3.17-2.57-5.55-.12-.39-.15-.46-.25-.69l1.49-.38Z" fill="#231815"/>
      <path d="m508.17,176.02c.55.08,1.2.11,2.31.11h8.12c1.29,0,1.65-.02,2.23-.09v1.74c-.66-.06-1.14-.08-2.25-.08h-8.08c-1.26,0-1.71.02-2.32.08v-1.75Z" fill="#231815"/>
      <path d="m527.43,171.13q-.06.39-.15,3.33c-.1,2.88-.43,4.5-1.23,6.03-.51.99-1.08,1.73-2.08,2.7-.45-.6-.66-.79-1.26-1.2,1.18-.96,1.92-2.01,2.41-3.43.45-1.33.65-3.22.65-6.31,0-.63-.01-.84-.04-1.2l1.71.09Zm3.87-.18c-.08.51-.09.75-.09,1.81l-.09,8.33c1.14-.48,1.8-.95,2.49-1.73.75-.82,1.26-1.72,1.6-2.85.44.57.6.74,1.19,1.2-.62,1.42-1.37,2.52-2.31,3.38-.85.76-1.66,1.21-3.21,1.81-.28.11-.45.18-.61.27l-.81-.89c.09-.36.11-.6.12-1.36l.08-8.17v-.36c0-.78-.01-1.06-.08-1.46l1.73.02Z" fill="#231815"/>
    </g>
    <g>
      <path d="m38.04,397.76c-.08.1-.2.16-.38.16-.06,0-.12,0-.2-.02-1.54,1.56-3.76,3.38-5.7,4.78.16.06.4.18.48.22-.04.12-.22.24-.44.26v10.74h-1.46v-10.28c-2.12,1.5-4.88,3.12-7.62,4.46-.2-.32-.56-.82-.84-1.1,5.46-2.52,11.44-6.8,14.66-10.34l1.5,1.12Z" fill="#231815"/>
      <path d="m43.43,398.1c2.08.66,4.48,1.7,5.96,2.72l-.76,1.26c-1.44-1.02-3.8-2.08-5.84-2.78l.64-1.2Zm-.08,13.86c7.1-2.2,11.82-6.18,14.22-11.72.42.34.88.6,1.3.82-2.5,5.48-7.38,9.74-14.16,12-.02.18-.14.38-.28.46l-1.08-1.56Z" fill="#231815"/>
      <path d="m77.96,399.04c-.06.1-.14.18-.26.22-1.58,7.58-5.5,12.08-12.04,14.38-.22-.34-.66-.88-.92-1.16,6.2-2.02,10-6.48,11.2-12.54h-13.08v-1.34h13.6l.28-.18,1.22.62Z" fill="#231815"/>
      <path d="m96.84,404.71h-4.76l.08,7.42c0,1.74-1.48,1.78-3.74,1.74-.04-.28-.14-.74-.28-1.08,1.02.02,1.9,0,2.2-.04.38-.04.6-.32.62-.64l-.06-6.36c-1.56,2.28-4.22,4.5-6.72,5.9-.2-.3-.52-.68-.8-.9,2.56-1.3,5.32-3.7,6.86-6.04h-6.2v-1.16h6.84l-.04-3.56,1.6.08c-.02.16-.18.28-.4.3l.02,3.18h4.78v1.16Z" fill="#231815"/>
      <path d="m105.68,400.74c1.88.82,3.86,1.82,5.68,2.88,1.28-1.92,2.6-4.44,3.6-6.98l1.96.8c-.08.18-.36.28-.72.24-.92,2.12-2.22,4.64-3.56,6.68,1.54.96,3.14,2.04,4.36,3.08l-.96,1.26c-1.1-.96-2.6-2.06-4.26-3.12-2.06,2.94-5.06,5.92-8.46,8.18-.24-.3-.8-.78-1.14-1,3.34-2.16,6.4-5.14,8.38-7.9-1.82-1.08-3.76-2.1-5.64-2.94l.76-1.18Z" fill="#231815"/>
      <path d="m121.87,404.15h16.7v1.42h-15.94c-.12.2-.38.34-.64.38l-.12-1.8Z" fill="#231815"/>
      <path d="m142.67,402.23c1.8.4,4.04,1.16,5.38,1.8l-.6,1.26c-1.32-.64-3.62-1.44-5.38-1.84l.6-1.22Zm1.2,9.78c6.5-2.18,10.94-5.64,13.6-11.64.3.26.92.68,1.22.88-2.68,5.94-7.34,9.64-13.46,11.82.04.18-.06.42-.24.5l-1.12-1.56Zm1-14.74c1.8.48,4,1.28,5.36,1.96l-.66,1.22c-1.42-.72-3.5-1.52-5.3-2.02l.6-1.16Z" fill="#231815"/>
      <path d="m175.16,401.7v12.16h-1.2v-.88h-8.98v-1.12h8.98v-4.06h-8.18v-1.12h8.18v-3.88h-8.48v-1.1h9.68Z" fill="#231815"/>
      <path d="m183.43,398.1c2.08.66,4.48,1.7,5.96,2.72l-.76,1.26c-1.44-1.02-3.8-2.08-5.84-2.78l.64-1.2Zm-.08,13.86c7.1-2.2,11.82-6.18,14.22-11.72.42.34.88.6,1.3.82-2.5,5.48-7.38,9.74-14.16,12-.02.18-.14.38-.28.46l-1.08-1.56Z" fill="#231815"/>
      <path d="m71,442.51l.72,6.26-1.44.16-.68-6.24-7.5.98-.16-1.34,7.5-.96-.52-4.5-6.28.82-.18-1.34,6.32-.8-.46-4,1.96-.06c0,.18-.16.34-.46.42l.38,3.44,5.9-.76.16,1.36-5.9.76.5,4.48,7.54-.96.14,1.32-7.54.96Zm4.2-10.9c.92.78,1.98,2,2.56,2.92l-.8.56c-.54-.86-1.64-2.12-2.5-2.88l.74-.6Zm2.46-1.3c.92.78,2.04,2,2.62,2.88l-.82.58c-.54-.86-1.7-2.12-2.54-2.84l.74-.62Z" fill="#231815"/>
      <path d="m96.92,438.23c-.06.06-.14.12-.22.14-.8,2.06-2.16,4.06-3.6,5.54-.24-.22-.68-.5-1-.68,1.16-1.06,2.44-2.92,3-4.26l-5.6,1.24,1.84,8.54-1.18.26-1.84-8.54-4.56,1.04-.26-1.12,4.6-1.02-.9-4.16,1.66-.16c0,.16-.1.28-.36.4l.76,3.64,6.58-1.42.14-.1.94.66Z" fill="#231815"/>
      <path d="m117.82,437.99c-.04.08-.14.16-.26.2-1.64,6.04-4.98,8.98-10.96,10.64-.18-.36-.56-.86-.84-1.16,5.44-1.36,8.82-4.16,10.08-8.8h-13.24v-1.36h13.84l.2-.12,1.18.6Zm-1.88-4.28h-11.4v-1.32h11.4v1.32Z" fill="#231815"/>
      <path d="m124.94,442.55v-9.72l1.9.12c-.02.18-.16.32-.48.36v9.24h-1.42Zm11.14-10.5c-.02.2-.16.3-.48.34v6.36c0,4.2-1.44,8.04-7.18,10.26-.2-.3-.7-.82-1.04-1.08,5.54-2.06,6.78-5.48,6.78-9.18v-6.82l1.92.12Z" fill="#231815"/>
      <path d="m141.87,439.15h16.7v1.42h-15.94c-.12.2-.38.34-.64.38l-.12-1.8Z" fill="#231815"/>
    </g>
    <g>
      <path d="m486.82,72.49c.36.07.64.08,1.21.08h1.04c.57,0,.77-.01,1.22-.06-.08.79-.1,1.4-.1,2.16v6.46c0,.66.03,1.09.1,1.61h-1.68c.08-.49.1-.96.1-1.61v-7.31h-.65c-.44,0-.81.03-1.25.08v-1.4Z" fill="#231815"/>
      <path d="m494.08,78.97q.31-.34.96-1.12l3.16-3.9c.52-.64.73-.92,1.03-1.39h1.46c-.08.75-.09,1.2-.09,2.2v4.26h.48c.53,0,.85-.03,1.33-.09v1.43c-.49-.07-.79-.09-1.33-.09h-.48v1c0,.65.03.99.1,1.46h-1.59c.09-.44.12-.85.12-1.47v-.99h-3.55c-.75,0-1.13.01-1.6.05v-1.35Zm5.15-2.86c0-.65.01-1.07.06-1.64-.26.38-.46.62-.9,1.2l-2.7,3.37h3.54v-2.92Z" fill="#231815"/>
      <path d="m505.23,77.1h-1.65v-1.65h1.65v1.65Zm-1.65,5.63v-1.65h1.65v1.65h-1.65Z" fill="#231815"/>
      <path d="m507.97,81.92c-.38-.38-.65-.81-.82-1.26-.34-.92-.51-1.94-.51-3,0-1.37.31-2.79.77-3.56.68-1.12,1.78-1.73,3.16-1.73,1.05,0,1.94.34,2.6,1,.38.38.66.81.82,1.26.34.91.51,1.95.51,3.02,0,1.59-.35,2.99-.94,3.81-.7.97-1.72,1.47-3,1.47-1.05,0-1.92-.34-2.59-1Zm1.07-7.64c-.27.3-.46.64-.56.98-.23.73-.35,1.56-.35,2.43,0,1.14.25,2.35.58,2.93.42.7,1.04,1.05,1.86,1.05.61,0,1.14-.21,1.5-.57.27-.29.48-.65.6-1.05.23-.75.35-1.53.35-2.41,0-1.05-.22-2.25-.53-2.85-.4-.78-1.03-1.17-1.92-1.17-.65,0-1.13.21-1.52.66Z" fill="#231815"/>
      <path d="m516.94,81.92c-.38-.38-.65-.81-.82-1.26-.34-.92-.51-1.94-.51-3,0-1.37.31-2.79.77-3.56.68-1.12,1.78-1.73,3.16-1.73,1.05,0,1.94.34,2.6,1,.38.38.66.81.82,1.26.34.91.51,1.95.51,3.02,0,1.59-.35,2.99-.94,3.81-.7.97-1.72,1.47-3,1.47-1.05,0-1.92-.34-2.59-1Zm1.07-7.64c-.27.3-.46.64-.56.98-.23.73-.35,1.56-.35,2.43,0,1.14.25,2.35.58,2.93.42.7,1.04,1.05,1.86,1.05.61,0,1.14-.21,1.5-.57.27-.29.48-.65.6-1.05.23-.75.35-1.53.35-2.41,0-1.05-.22-2.25-.53-2.85-.4-.78-1.03-1.17-1.92-1.17-.65,0-1.13.21-1.52.66Z" fill="#231815"/>
      <path d="m524.61,77.72c.51-.57.77-.79,1.37-1.14.71-.4,1.23-.56,1.94-.56.58,0,1.12.12,1.65.38q.35.17,1.2.74c1.01.68,1.73.96,2.43.96.36,0,.79-.13,1.22-.38.47-.27.72-.51,1.14-1.05l.88.84c-.53.65-.81.91-1.21,1.21-.65.47-1.37.7-2.16.7-.4,0-.83-.06-1.2-.2-.53-.18-.83-.35-1.78-.99-1.11-.73-1.53-.91-2.29-.91-.87,0-1.46.3-2.33,1.2l-.87-.81Z" fill="#231815"/>
      <path d="m555.79,72.9c0-.57-.01-.84-.08-1.17h1.46c-.06.34-.09.64-.09,1.17v1.14h3.76c.57,0,1.08-.03,1.47-.08v1.3c-.47-.05-.96-.08-1.47-.08h-3.76v2.43h2.74c.56,0,.79-.01,1.09-.05-.05.34-.06.65-.06,1.16v3.55c0,.56.03.99.08,1.34h-1.31v-.73h-6.12v.73h-1.33c.05-.39.08-.82.08-1.34v-3.55c0-.44-.03-.81-.07-1.16.31.04.56.05,1.09.05h2.52v-2.43h-3.51c-.58,0-1.05.03-1.47.08v-1.3c.39.05.9.08,1.47.08h3.51v-1.14Zm-2.3,8.87h6.11v-3.02h-6.11v3.02Z" fill="#231815"/>
      <path d="m568.36,81.35c-.79.7-1.21,1.01-1.94,1.43-.73.43-1.21.64-2.12.94-.34-.58-.46-.75-.83-1.09.96-.23,1.44-.42,2.15-.77.69-.35,1.05-.61,1.75-1.24l.99.73Zm-.77-8.33c0-.6-.01-.84-.08-1.17h1.25c-.07.34-.08.58-.08,1.18v.44h1.7v-.44c0-.65-.01-.87-.08-1.18h1.26c-.08.35-.09.61-.09,1.17v.46h1.74c.62,0,1-.01,1.26-.04-.04.27-.05.6-.05,1.08v4.81c.51,0,.78-.03,1.13-.08v1.25c-.4-.05-.83-.08-1.47-.08h-9.09c-.6,0-1.07.03-1.44.08v-1.25c.35.05.65.08,1.1.08v-4.82c0-.47-.01-.77-.05-1.07.36.03.68.04,1.24.04h1.74v-.46Zm0,1.52h-1.75v1.77h1.75v-1.77Zm0,2.79h-1.75v1.99h1.75v-1.99Zm2.8-1.03v-1.77h-1.7v1.77h1.7Zm0,3.02v-1.99h-1.7v1.99h1.7Zm.95,1.31c.72.58,1.08.82,1.78,1.17.82.42,1.34.61,2.34.85-.35.43-.44.57-.73,1.13-.96-.3-1.52-.53-2.31-.99-.7-.42-1.13-.71-1.96-1.43l.88-.73Zm1.92-4.33v-1.77h-1.78v1.77h1.78Zm0,3.02v-1.99h-1.78v1.99h1.78Z" fill="#231815"/>
      <path d="m581.01,73.8c-.13-.74-.18-.95-.32-1.31l1.44-.23c.03.43.05.66.17,1.31l.21,1.12,1.96-.3c.58-.09,1.14-.22,1.47-.33l.23,1.35c-.44.03-.61.05-1.47.18l-1.96.3.43,2.33,2.95-.48c.69-.1,1.08-.2,1.48-.34l.26,1.35q-.33,0-1.48.2l-2.99.47.46,2.41c.16.87.21,1.09.36,1.56l-1.5.26c-.01-.44-.08-.84-.21-1.57l-.44-2.44-3.17.51c-.72.12-1.07.18-1.44.3l-.22-1.35c.45,0,.81-.04,1.49-.14l3.12-.51-.42-2.34-2.37.38c-.74.12-1.16.2-1.53.31l-.22-1.36c.53-.01.94-.05,1.55-.14l2.35-.38-.2-1.09Zm5.14-1.9c.61.74.88,1.17,1.29,2l-.83.4c-.38-.83-.73-1.4-1.27-2.04l.82-.36Zm1.59-.65c.6.75.87,1.16,1.27,1.96l-.82.42c-.38-.82-.73-1.35-1.26-2l.81-.38Z" fill="#231815"/>
      <path d="m595.69,72.2q-.14.23-.42.79c-.17.35-.26.52-.35.65.08,0,.26-.01.53-.03l3.09-.04c.44,0,.7-.04.99-.13l.75.75c-.16.21-.18.29-.39.86-.44,1.2-1.13,2.68-1.7,3.59-1.31,2.09-3.09,3.58-5.85,4.85-.34-.57-.48-.77-.9-1.13,1.12-.44,1.78-.79,2.6-1.34.95-.64,1.52-1.13,2.17-1.91-.92-.81-1.77-1.42-2.77-1.96l.84-.95c1.09.62,1.7,1.04,2.72,1.86.65-1.01,1.18-2.12,1.57-3.3l-4.22.04c-.91,1.39-1.79,2.39-3.06,3.43-.36-.4-.52-.53-1.09-.87,1.4-1.04,2.47-2.24,3.29-3.72.39-.7.65-1.31.75-1.78l1.43.34Z" fill="#231815"/>
      <path d="m603.04,76.92c.48.06,1.04.09,2,.09h7.03c1.12,0,1.43-.01,1.94-.08v1.51c-.57-.05-.99-.06-1.95-.06h-7.01c-1.09,0-1.48.01-2.02.06v-1.52Z" fill="#231815"/>
      <path d="m621.18,76.65c.57,0,.9-.01,1.16-.06v1.21c-.29-.05-.62-.07-1.1-.07h-4.36c-.61,0-.94.01-1.27.07v-1.21c.32.05.65.06,1.29.06h2.65c.4-.86.58-1.42.79-2.31l1.12.31c-.23.77-.43,1.24-.82,2h.55Zm-.18-3.52c.57,0,.88-.01,1.2-.07v1.18c-.27-.05-.57-.06-1.13-.06h-4.06c-.51,0-.82.01-1.1.06v-1.18c.31.05.61.07,1.22.07h1.43v-.42c0-.38-.03-.69-.08-.94h1.33c-.05.26-.08.55-.08.94v.42h1.27Zm-3.45,10.52h-1.18c.04-.32.05-.64.05-1.2v-2.76c0-.56-.01-.81-.04-1.08.29.03.53.04,1.03.04h3.26c.51,0,.75-.01.94-.04-.04.27-.04.4-.04,1.01v3.03c0,.44.01.69.05.97h-1.2v-.75h-2.87v.77Zm.22-9.35c.34.65.49,1.05.75,1.95l-1.07.34c-.21-.85-.34-1.22-.7-1.94l1.01-.35Zm-.22,7.54h2.89v-2.15h-2.89v2.15Zm9.96-8.97c-.09.18-.13.27-.25.56-.4,1.03-.92,2.11-1.48,3.15.75.83,1.05,1.26,1.34,1.94.23.58.36,1.22.36,1.81,0,.72-.25,1.24-.68,1.5-.29.17-.7.25-1.38.25-.33,0-.49,0-.86-.04-.01-.53-.06-.81-.25-1.18.42.06.73.09,1.11.09.68,0,.91-.18.91-.7,0-.57-.14-1.14-.42-1.72-.31-.62-.62-1.03-1.43-1.77.79-1.43,1.16-2.25,1.55-3.5h-2.12v9.01c0,.7.03,1.11.09,1.5h-1.31c.05-.4.08-.88.08-1.47v-9.02c0-.38-.01-.73-.05-1.12.33.03.62.04,1.05.04h2.2c.49,0,.77-.01,1.01-.05l.52.74Z" fill="#231815"/>
    </g>
    <g>
      <path d="m486.27,190.94c.36.07.64.08,1.21.08h1.04c.57,0,.77-.01,1.22-.06-.08.79-.1,1.4-.1,2.16v6.46c0,.66.03,1.09.1,1.61h-1.68c.08-.49.1-.96.1-1.61v-7.31h-.65c-.44,0-.81.03-1.25.08v-1.4Z" fill="#231815"/>
      <path d="m495.24,190.94c.36.07.64.08,1.21.08h1.04c.57,0,.77-.01,1.22-.06-.08.79-.1,1.4-.1,2.16v6.46c0,.66.03,1.09.1,1.61h-1.68c.08-.49.1-.96.1-1.61v-7.31h-.65c-.44,0-.81.03-1.25.08v-1.4Z" fill="#231815"/>
      <path d="m504.68,195.56h-1.65v-1.65h1.65v1.65Zm-1.65,5.63v-1.65h1.65v1.65h-1.65Z" fill="#231815"/>
      <path d="m507.42,200.38c-.38-.38-.65-.81-.82-1.26-.34-.92-.51-1.94-.51-3,0-1.37.31-2.79.77-3.56.68-1.12,1.78-1.73,3.16-1.73,1.05,0,1.94.34,2.6,1,.38.38.66.81.82,1.26.34.91.51,1.95.51,3.02,0,1.59-.35,2.99-.94,3.81-.7.97-1.72,1.47-3,1.47-1.05,0-1.92-.34-2.59-1Zm1.07-7.64c-.27.3-.46.64-.56.98-.23.73-.35,1.56-.35,2.43,0,1.14.25,2.35.58,2.93.42.7,1.04,1.05,1.86,1.05.61,0,1.14-.21,1.5-.57.27-.29.48-.65.6-1.05.23-.75.35-1.53.35-2.41,0-1.05-.22-2.25-.53-2.85-.4-.78-1.03-1.17-1.92-1.17-.65,0-1.13.21-1.52.66Z" fill="#231815"/>
      <path d="m516.39,200.38c-.38-.38-.65-.81-.82-1.26-.34-.92-.51-1.94-.51-3,0-1.37.31-2.79.77-3.56.68-1.12,1.78-1.73,3.16-1.73,1.05,0,1.94.34,2.6,1,.38.38.66.81.82,1.26.34.91.51,1.95.51,3.02,0,1.59-.35,2.99-.94,3.81-.7.97-1.72,1.47-3,1.47-1.05,0-1.92-.34-2.59-1Zm1.07-7.64c-.27.3-.46.64-.56.98-.23.73-.35,1.56-.35,2.43,0,1.14.25,2.35.58,2.93.42.7,1.04,1.05,1.86,1.05.61,0,1.14-.21,1.5-.57.27-.29.48-.65.6-1.05.23-.75.35-1.53.35-2.41,0-1.05-.22-2.25-.53-2.85-.4-.78-1.03-1.17-1.92-1.17-.65,0-1.13.21-1.52.66Z" fill="#231815"/>
      <path d="m524.06,196.18c.51-.57.77-.79,1.37-1.14.71-.4,1.23-.56,1.94-.56.58,0,1.12.12,1.65.38q.35.17,1.2.74c1.01.68,1.73.96,2.43.96.36,0,.79-.13,1.22-.38.47-.27.72-.51,1.14-1.05l.88.84c-.53.65-.81.91-1.21,1.21-.65.47-1.37.7-2.16.7-.4,0-.83-.06-1.2-.2-.53-.18-.83-.35-1.78-.99-1.11-.73-1.53-.91-2.29-.91-.87,0-1.46.3-2.33,1.2l-.87-.81Z" fill="#231815"/>
      <path d="m551.97,199.46c0,.83.03,1.24.1,1.73h-1.65c.08-.44.1-.92.1-1.72v-6.89c0-.66-.03-1.11-.1-1.6.47.03.83.04,1.56.04h3.58c.73,0,1.13-.03,1.65-.09v1.48c-.46-.07-.88-.09-1.65-.09h-3.59v3.02h2.9c.74,0,1.18-.03,1.65-.09v1.48c-.46-.06-.91-.09-1.65-.09h-2.9v2.82Z" fill="#231815"/>
      <path d="m560.14,191.02v1.46h-1.65v-1.46h1.65Zm-.03,2.89c-.07.47-.09.87-.09,1.61v4.06c0,.68.03,1.07.09,1.61h-1.6c.06-.6.09-.99.09-1.6v-4.08c0-.68-.03-1.11-.09-1.6h1.6Z" fill="#231815"/>
      <path d="m561.84,201.19c.08-.55.1-.91.1-1.6v-4.08c0-.66-.03-1.08-.1-1.6h1.48v.65c0,.09-.01.27-.03.55.7-.92,1.51-1.33,2.65-1.33.95,0,1.7.34,2.15.96.29.4.42.92.42,1.69v3.16c0,.7.03,1.14.09,1.6h-1.59c.06-.56.09-.96.09-1.6v-2.95c0-1.14-.43-1.66-1.38-1.66-.64,0-1.16.25-1.68.81-.35.38-.53.69-.73,1.22v2.59c0,.6.03,1.07.09,1.6h-1.57Z" fill="#231815"/>
      <path d="m575.14,200.37c-.47.39-.69.53-1.09.69-.46.17-.96.26-1.48.26-1.53,0-2.46-.79-2.46-2.11,0-.96.61-1.77,1.64-2.14.82-.3,1.59-.39,3.39-.44v-.56c0-.47-.1-.77-.33-.95-.27-.22-.69-.34-1.24-.34-1.07,0-1.62.35-1.91,1.21l-1.43-.27c.26-.68.48-1.01.91-1.34.6-.47,1.39-.69,2.44-.69s1.81.22,2.31.71c.4.39.57.87.57,1.68v3.56c0,.64.03.99.1,1.55h-1.44v-.82Zm0-2.73c-1.39.04-2.09.13-2.68.35-.65.25-.96.65-.96,1.22,0,.64.48,1.03,1.27,1.03.66,0,1.42-.3,1.9-.77.31-.31.47-.66.47-1.1v-.73Z" fill="#231815"/>
      <path d="m579.83,191.02c-.07.49-.09.88-.09,1.61v6.96c0,.66.03,1.03.09,1.6h-1.59c.06-.53.09-.91.09-1.6v-6.97c0-.72-.03-1.13-.09-1.6h1.59Z" fill="#231815"/>
      <path d="m588.71,194.64h4.8l-3.85,2.89,1.47,4.62-3.93-2.85-3.94,2.85,1.48-4.62-3.86-2.89h4.8l1.52-4.68,1.51,4.68Zm-2.6.57h-3.56l2.87,2.09-1.13,3.42,2.91-2.12,2.91,2.12-1.14-3.42,2.87-2.09h-3.55l-1.09-3.48-1.09,3.48Z" fill="#231815"/>
      <path d="m596.2,199.46c0,.83.03,1.24.1,1.73h-1.65c.08-.44.1-.92.1-1.72v-6.89c0-.66-.03-1.11-.1-1.6.47.03.83.04,1.56.04h3.58c.73,0,1.13-.03,1.65-.09v1.48c-.46-.07-.88-.09-1.65-.09h-3.59v3.02h2.9c.74,0,1.18-.03,1.65-.09v1.48c-.46-.06-.91-.09-1.65-.09h-2.9v2.82Z" fill="#231815"/>
      <path d="m604.3,191.02c-.07.49-.09.88-.09,1.61v6.96c0,.66.03,1.03.09,1.6h-1.59c.06-.53.09-.91.09-1.6v-6.97c0-.72-.03-1.13-.09-1.6h1.59Z" fill="#231815"/>
      <path d="m610.86,200.37c-.47.39-.69.53-1.09.69-.46.17-.96.26-1.48.26-1.53,0-2.46-.79-2.46-2.11,0-.96.61-1.77,1.64-2.14.82-.3,1.59-.39,3.39-.44v-.56c0-.47-.1-.77-.33-.95-.27-.22-.69-.34-1.24-.34-1.07,0-1.62.35-1.91,1.21l-1.43-.27c.26-.68.48-1.01.91-1.34.6-.47,1.39-.69,2.44-.69s1.81.22,2.31.71c.4.39.57.87.57,1.68v3.56c0,.64.03.99.1,1.55h-1.44v-.82Zm0-2.73c-1.39.04-2.09.13-2.68.35-.65.25-.96.65-.96,1.22,0,.64.48,1.03,1.27,1.03.66,0,1.42-.3,1.9-.77.31-.31.47-.66.47-1.1v-.73Z" fill="#231815"/>
      <path d="m615.11,198.95c.09.44.2.65.44.87.3.29.75.43,1.37.43,1.01,0,1.68-.43,1.68-1.08,0-.31-.13-.57-.36-.73-.27-.18-.46-.23-1.43-.44-1.03-.22-1.44-.35-1.9-.61-.62-.34-.96-.9-.96-1.59,0-.51.21-.99.58-1.35.53-.49,1.27-.74,2.28-.74s1.75.25,2.25.7c.35.31.52.62.7,1.25l-1.44.19c-.05-.32-.12-.47-.27-.64-.29-.3-.7-.46-1.26-.46-.86,0-1.46.42-1.46,1.01,0,.27.16.51.42.66.3.16.6.25,1.35.4,1.39.31,1.87.48,2.29.84.43.38.62.83.62,1.47,0,.51-.23,1.04-.61,1.39-.56.53-1.43.81-2.54.81-1.27,0-2.24-.38-2.77-1.09-.22-.3-.33-.55-.47-1.12l1.5-.2Z" fill="#231815"/>
      <path d="m621.38,201.19c.08-.53.1-.91.1-1.6v-6.96c0-.73-.03-1.11-.09-1.61h1.56c-.06.49-.09.88-.09,1.61v1.88q0,.2-.04.62c.69-.95,1.52-1.37,2.69-1.37,1.6,0,2.54.94,2.54,2.54v3.28c0,.66.03,1.13.09,1.6h-1.6c.08-.46.1-.92.1-1.6v-2.96c0-.56-.1-.96-.34-1.21-.23-.27-.61-.43-1.05-.43-1.01,0-1.89.73-2.39,2.03v2.57c0,.6.03,1.07.09,1.6h-1.57Z" fill="#231815"/>
      <path d="m486.27,213.69c.36.07.64.08,1.21.08h1.04c.57,0,.77-.01,1.22-.06-.08.79-.1,1.4-.1,2.16v6.46c0,.66.03,1.09.1,1.61h-1.68c.08-.49.1-.96.1-1.61v-7.31h-.65c-.44,0-.81.03-1.25.08v-1.4Z" fill="#231815"/>
      <path d="m493.53,220.18q.31-.34.96-1.12l3.16-3.9c.52-.64.73-.92,1.03-1.39h1.46c-.08.75-.09,1.2-.09,2.2v4.26h.48c.53,0,.85-.03,1.33-.09v1.43c-.49-.07-.79-.09-1.33-.09h-.48v1c0,.65.03.99.1,1.46h-1.59c.09-.44.12-.85.12-1.47v-.99h-3.55c-.75,0-1.13.01-1.6.05v-1.35Zm5.15-2.86c0-.65.01-1.07.06-1.64-.26.38-.46.62-.9,1.2l-2.7,3.37h3.54v-2.92Z" fill="#231815"/>
      <path d="m504.68,218.31h-1.65v-1.65h1.65v1.65Zm-1.65,5.63v-1.65h1.65v1.65h-1.65Z" fill="#231815"/>
      <path d="m507.42,223.13c-.38-.38-.65-.81-.82-1.26-.34-.92-.51-1.94-.51-3,0-1.37.31-2.79.77-3.56.68-1.12,1.78-1.73,3.16-1.73,1.05,0,1.94.34,2.6,1,.38.38.66.81.82,1.26.34.91.51,1.95.51,3.02,0,1.59-.35,2.99-.94,3.81-.7.97-1.72,1.47-3,1.47-1.05,0-1.92-.34-2.59-1Zm1.07-7.64c-.27.3-.46.64-.56.98-.23.73-.35,1.56-.35,2.43,0,1.14.25,2.35.58,2.93.42.7,1.04,1.05,1.86,1.05.61,0,1.14-.21,1.5-.57.27-.29.48-.65.6-1.05.23-.75.35-1.53.35-2.41,0-1.05-.22-2.25-.53-2.85-.4-.78-1.03-1.17-1.92-1.17-.65,0-1.13.21-1.52.66Z" fill="#231815"/>
      <path d="m516.39,223.13c-.38-.38-.65-.81-.82-1.26-.34-.92-.51-1.94-.51-3,0-1.37.31-2.79.77-3.56.68-1.12,1.78-1.73,3.16-1.73,1.05,0,1.94.34,2.6,1,.38.38.66.81.82,1.26.34.91.51,1.95.51,3.02,0,1.59-.35,2.99-.94,3.81-.7.97-1.72,1.47-3,1.47-1.05,0-1.92-.34-2.59-1Zm1.07-7.64c-.27.3-.46.64-.56.98-.23.73-.35,1.56-.35,2.43,0,1.14.25,2.35.58,2.93.42.7,1.04,1.05,1.86,1.05.61,0,1.14-.21,1.5-.57.27-.29.48-.65.6-1.05.23-.75.35-1.53.35-2.41,0-1.05-.22-2.25-.53-2.85-.4-.78-1.03-1.17-1.92-1.17-.65,0-1.13.21-1.52.66Z" fill="#231815"/>
      <path d="m524.06,218.93c.51-.57.77-.79,1.37-1.14.71-.4,1.23-.56,1.94-.56.58,0,1.12.12,1.65.38q.35.17,1.2.74c1.01.68,1.73.96,2.43.96.36,0,.79-.13,1.22-.38.47-.27.72-.51,1.14-1.05l.88.84c-.53.65-.81.91-1.21,1.21-.65.47-1.37.7-2.16.7-.4,0-.83-.06-1.2-.2-.53-.18-.83-.35-1.78-.99-1.11-.73-1.53-.91-2.29-.91-.87,0-1.46.3-2.33,1.2l-.87-.81Z" fill="#231815"/>
      <path d="m552.15,214.84c-.42.52-.71.82-1.25,1.27-.31-.39-.36-.43-.83-.78.99-.69,1.68-1.55,2.03-2.51l1.16.26c-.2.38-.27.51-.44.79h1.94c.56,0,.83-.01,1.13-.07v1.05c.62-.6,1-1.23,1.21-2.01l1.13.21c-.14.33-.17.39-.4.83h2.81c.61,0,.86-.01,1.24-.08v1.11c-.35-.05-.64-.07-1.18-.07h-1.42c.26.4.38.62.55.96l-1.07.36c-.18-.51-.36-.87-.64-1.33h-.87c-.23.31-.4.51-.79.88,0,.18-.01.27-.01.44v.18h3.74c.7,0,.92-.01,1.37-.05-.04.26-.04.42-.04.82v.81c0,.4.01.61.05.86h-1.17v-1.5h-8.67v1.5h-1.17c.04-.26.05-.48.05-.85v-.81c0-.38-.01-.56-.05-.83.42.04.62.05,1.34.05h3.42v-.18c0-.29,0-.43-.04-.66h.95c-.31-.23-.39-.27-.62-.4.13-.1.18-.14.27-.22-.3-.04-.43-.05-.88-.05h-.92c.19.33.34.6.49.96l-1.04.38c-.16-.55-.27-.86-.53-1.34h-.82Zm.05,10.06c.05-.47.08-.82.08-1.39v-4.69c0-.42-.01-.61-.05-.9.38.04.7.05,1.18.05h5.02c.51,0,.82-.01,1.2-.05-.03.23-.04.52-.04.9v.92c0,.47,0,.69.04.99-.33-.03-.68-.04-1.16-.04h-5.07v.74h5.63c.51,0,.82-.01,1.12-.05-.04.33-.05.66-.05,1.12v1.21c0,.46.01.83.07,1.2h-1.18v-.58h-5.58v.58h-1.2Zm1.2-5.12h5.08v-.88h-5.08v.88Zm0,3.61h5.58v-1.04h-5.58v1.04Z" fill="#231815"/>
      <path d="m566.07,219.27c.48,0,.75-.01.96-.04-.03.21-.04.22-.05.83-.04,1.56-.22,3.11-.42,3.68-.26.74-.69.97-1.81.97-.3,0-.7-.03-1.14-.05-.05-.56-.1-.82-.25-1.24.58.08,1.11.13,1.43.13.58,0,.73-.14.87-.86.09-.52.16-1.39.18-2.41h-1.64c-.19,0-.61.01-.96.03.26-1.24.4-2.65.43-3.91.26.04.43.05,1.14.05h1.05v-1.81h-1.43c-.51,0-.83.01-1.21.05v-1.17c.23.05.61.08,1.24.08h1.66c.39,0,.58-.01.91-.04-.03.25-.04.56-.04.96v1.85c0,.43,0,.58.04,1.11-.14-.01-.44-.01-.92-.03h-1.37c-.08.82-.13,1.31-.22,1.81h1.53Zm.96,4.02q.52.01.57.01c.12,0,.2,0,.48-.01.6-.66,1.2-1.42,1.9-2.38-.95-1.07-1.53-1.61-2.76-2.6l.75-.9c.38.33.47.42.73.64.53-.73.88-1.37,1.24-2.22h-1c-.57,0-1.07.03-1.48.08v-1.21c.35.05.85.08,1.48.08h1.52v-.66c0-.44-.03-.75-.08-1.04h1.27c-.04.26-.06.56-.06,1.03v.68h1.81c.61,0,1.17-.03,1.5-.08v1.21c-.42-.05-.86-.08-1.48-.08h-2.2c-.55,1.23-.98,2-1.69,2.99.49.48.71.69,1.13,1.13.96-1.43,1.56-2.44,1.89-3.2l1.13.64c-.12.14-.26.36-.46.69-1.12,1.83-2.44,3.68-3.72,5.13,1.61-.12,2.22-.18,3.55-.38-.31-.69-.52-1.07-1.07-1.91l1.01-.46c.94,1.51,1.33,2.28,1.99,3.94l-1.12.47c-.2-.52-.22-.61-.42-1.09-1.56.27-2.09.34-4.85.61-.71.08-1.01.12-1.38.18l-.2-1.29Z" fill="#231815"/>
      <path d="m583.29,221.26c1.1,1.04,2.68,1.79,4.73,2.29-.29.36-.48.66-.69,1.11-1.17-.36-1.83-.64-2.64-1.12-.96-.56-1.62-1.12-2.25-1.86q.01.18.03.46c.03.48.03.49.03.6v.79c0,.65.01.95.09,1.35h-1.34c.06-.4.09-.77.09-1.35v-.78c0-.14.03-.68.05-1.04-1.24,1.38-2.44,2.14-4.68,2.94-.22-.44-.39-.68-.74-1.05,1.99-.53,3.46-1.29,4.52-2.33h-2.65c-.69,0-1.13.03-1.51.08v-1.2c.35.05.82.08,1.51.08h3.48c0-.35-.01-.56-.05-.78h1.29c-.04.25-.05.39-.05.78h3.6c.75,0,1.17-.03,1.52-.08v1.2c-.39-.05-.82-.08-1.53-.08h-2.81Zm-3.91-3.45c-.75.51-1.43.88-2.34,1.34-.22.1-.25.12-.52.27l-.46-1.1c.83-.23,1.85-.74,3.03-1.51l.29,1Zm-2.2-4.11c.74.58,1.23,1.07,1.95,1.86l-.79.82c-.66-.81-1.22-1.37-1.95-1.91l.79-.77Zm3.85.55c.22-.51.34-.85.44-1.35l1.21.17c-.3.73-.31.75-.51,1.18h1.17c.49,0,.62,0,.97-.04-.04.33-.04.44-.04,1.04v2.91c0,.57.01.79.04,1.07-.27-.03-.58-.04-.95-.04h-2.77c-.38,0-.71.01-.99.04.03-.31.04-.55.04-1.05v-2.94c0-.57,0-.61-.04-1.03.33.04.49.04,1.01.04h.4Zm-.33,1.98h2.52v-1.03h-2.52v1.03Zm0,2.02h2.52v-1.09h-2.52v1.09Zm4.37-1.39c1.29.64,2,1.04,2.87,1.6l-.65.94c-.96-.7-1.77-1.18-2.82-1.7l.6-.83Zm2.52-2.42c-.9.96-1.5,1.52-2.24,2.08l-.74-.79c.98-.74,1.44-1.21,2.09-2.05l.88.77Z" fill="#231815"/>
      <path d="m589.49,224.89c.05-.39.08-.82.08-1.65v-8.19c0-.64-.03-1.08-.08-1.57.48.05.86.07,1.52.07h7.97c.66,0,1.04-.01,1.53-.07-.06.53-.08.88-.08,1.57v8.22c0,.81.03,1.25.08,1.62h-1.25v-.74h-8.53v.74h-1.25Zm1.25-1.79h8.53v-8.5h-8.53v8.5Zm5.37-7.19c0-.47-.01-.7-.06-.97h1.25c-.05.26-.07.48-.07.97v.62h.48c.47,0,.86-.03,1.09-.06v1.13c-.27-.04-.66-.07-1.12-.07h-.46v3.95c0,.91-.34,1.17-1.56,1.17-.39,0-.6-.01-1.31-.07-.05-.53-.09-.69-.27-1.12.68.1,1.17.16,1.61.16.33,0,.42-.08.42-.34v-3.76h-3.52c-.55,0-.86.01-1.21.07v-1.13c.31.05.59.06,1.21.06h3.52v-.62Zm-2.2,5.06c-.56-1.14-.9-1.66-1.62-2.5l.91-.6c.79.92,1.08,1.34,1.72,2.44l-1,.65Z" fill="#231815"/>
    </g>
    <g>
      <path d="m392.69,411.36c.36.07.64.08,1.21.08h1.04c.57,0,.77-.01,1.22-.06-.08.79-.1,1.4-.1,2.16v6.46c0,.66.03,1.09.1,1.61h-1.68c.08-.49.1-.96.1-1.61v-7.31h-.65c-.44,0-.81.03-1.25.08v-1.4Z" fill="#231815"/>
      <path d="m401.66,411.36c.36.07.64.08,1.21.08h1.04c.57,0,.77-.01,1.22-.06-.08.79-.1,1.4-.1,2.16v6.46c0,.66.03,1.09.1,1.61h-1.68c.08-.49.1-.96.1-1.61v-7.31h-.65c-.44,0-.81.03-1.25.08v-1.4Z" fill="#231815"/>
      <path d="m411.1,415.98h-1.65v-1.65h1.65v1.65Zm-1.65,5.63v-1.65h1.65v1.65h-1.65Z" fill="#231815"/>
      <path d="m413.84,420.8c-.38-.38-.65-.81-.82-1.26-.34-.92-.51-1.94-.51-3,0-1.37.31-2.79.77-3.56.68-1.12,1.78-1.73,3.16-1.73,1.05,0,1.94.34,2.6,1,.38.38.66.81.82,1.26.34.91.51,1.95.51,3.02,0,1.59-.35,2.99-.94,3.81-.7.97-1.72,1.47-3,1.47-1.05,0-1.92-.34-2.59-1Zm1.07-7.64c-.27.3-.46.64-.56.98-.23.73-.35,1.56-.35,2.43,0,1.14.25,2.35.58,2.93.42.7,1.04,1.05,1.86,1.05.61,0,1.14-.21,1.5-.57.27-.29.48-.65.6-1.05.23-.75.35-1.53.35-2.41,0-1.05-.22-2.25-.53-2.85-.4-.78-1.03-1.17-1.92-1.17-.65,0-1.13.21-1.52.66Z" fill="#231815"/>
      <path d="m422.81,420.8c-.38-.38-.65-.81-.82-1.26-.34-.92-.51-1.94-.51-3,0-1.37.31-2.79.77-3.56.68-1.12,1.78-1.73,3.16-1.73,1.05,0,1.94.34,2.6,1,.38.38.66.81.82,1.26.34.91.51,1.95.51,3.02,0,1.59-.35,2.99-.94,3.81-.7.97-1.72,1.47-3,1.47-1.05,0-1.92-.34-2.59-1Zm1.07-7.64c-.27.3-.46.64-.56.98-.23.73-.35,1.56-.35,2.43,0,1.14.25,2.35.58,2.93.42.7,1.04,1.05,1.86,1.05.61,0,1.14-.21,1.5-.57.27-.29.48-.65.6-1.05.23-.75.35-1.53.35-2.41,0-1.05-.22-2.25-.53-2.85-.4-.78-1.03-1.17-1.92-1.17-.65,0-1.13.21-1.52.66Z" fill="#231815"/>
      <path d="m430.48,416.6c.51-.57.77-.79,1.37-1.14.71-.4,1.23-.56,1.94-.56.58,0,1.12.12,1.65.38q.35.17,1.2.74c1.01.68,1.73.96,2.43.96.36,0,.79-.13,1.22-.38.47-.27.72-.51,1.14-1.05l.88.84c-.53.65-.81.91-1.21,1.21-.65.47-1.37.7-2.16.7-.4,0-.83-.06-1.2-.2-.53-.18-.83-.35-1.78-.99-1.11-.73-1.53-.91-2.29-.91-.87,0-1.46.3-2.33,1.2l-.87-.81Z" fill="#231815"/>
      <path d="m462.06,411.35c0-.3-.01-.52-.07-.78h1.33c-.05.22-.06.42-.06.78v.61h3.5c.7,0,1.12-.03,1.48-.08v1.22c-.4-.05-.82-.06-1.48-.06h-8.18c0,5.71-.23,7.31-1.33,9.36-.35-.43-.57-.62-.99-.91.47-.82.68-1.38.84-2.28.21-1.05.3-2.85.3-5.58,0-.91-.01-1.31-.05-1.74.4.05.81.07,1.34.07h3.37v-.61Zm-3.48,9.37c.39-.81.52-1.16.69-1.96.21-.88.27-1.4.34-2.51l1.14.29c-.12,1.13-.18,1.65-.38,2.55-.19.95-.33,1.4-.7,2.33l-1.09-.69Zm6.14-4.45c-1.01-.97-1.74-1.5-3.24-2.27l.83-.78c1.51.82,2.01,1.16,3.22,2.13l-.82.92Zm-1.92-.95c-.05.3-.08.64-.08,1.21v4.32c0,.35.14.4,1.03.4s1.08-.06,1.18-.36c.09-.25.17-1.08.17-1.85v-.3c.47.21.79.33,1.16.4-.17,3-.35,3.24-2.5,3.24-1.81,0-2.2-.17-2.2-.95v-4.91c0-.58-.01-.88-.08-1.2h1.31Zm4.45,5.86c-.36-1.94-.68-2.91-1.5-4.54l1.05-.49c.83,1.78,1.18,2.76,1.61,4.5l-1.17.53Z" fill="#231815"/>
      <path d="m474.79,415.3c-.47,0-.86.01-1.18.05v-1.04c.27.04.58.05,1.07.05h.08c-.22-.65-.39-1-.77-1.55l.92-.31c.35.55.53.94.73,1.5l-.82.36h3.68c.6-.92.87-1.51,1.12-2.31l1.11.31c-.55,1.05-.75,1.43-1.14,2h.43c.51,0,.77-.01,1.07-.06v1.05c-.38-.04-.71-.05-1.23-.05h-3.45c-.04.4-.05.53-.1.86h3.54c.71,0,1.09-.01,1.46-.08v1.13c-.39-.05-.9-.08-1.46-.08h-3.72c-.07.29-.1.42-.2.74h2.77c.57,0,.87-.01,1.09-.05l.58.71q-.09.12-.26.34c-.38.55-1.04,1.27-1.55,1.7.91.46,1.61.65,2.99.87-.23.42-.35.65-.53,1.16-1.43-.36-2.35-.74-3.35-1.35-.91.58-1.94,1.01-3.16,1.34-.16-.42-.34-.71-.62-1.03,1.18-.23,1.95-.49,2.85-.99-.62-.51-1.01-.9-1.35-1.33-.62,1.31-1.37,2.26-2.5,3.22-.16-.31-.42-.64-.71-.87-.08.69-.4.87-1.6.87-.21,0-.36,0-.73-.03-.03-.42-.09-.7-.25-1.11.49.05.81.08,1.13.08.26,0,.33-.06.33-.31v-3.32q-.44.16-.75.27c-.05.03-.08.03-.4.14-.08.03-.14.05-.26.1l-.26-1.21c.53-.08.83-.16,1.68-.44v-2.44h-.64c-.31,0-.55.01-.88.05v-1.16c.3.05.52.07.88.07h.64v-1.14c0-.64-.01-.95-.08-1.34h1.29c-.06.36-.08.7-.08,1.33v1.16h.36c.3,0,.48-.01.74-.04v1.12c-.27-.03-.46-.04-.74-.04h-.36v2.02c.42-.16.53-.21.98-.42l.03,1.07c-.47.22-.62.3-1,.46v4.19c1.43-1.11,2.37-2.56,2.82-4.39h-.31c-.56,0-.92.01-1.27.07v-1.11c.38.05.74.07,1.3.07h.48c.04-.31.06-.6.09-.86h-.48Zm6.12-3.73q-.16.03-.62.12c-1.68.35-4.42.64-6.79.71-.08-.39-.13-.55-.36-.95h.38c2.5,0,5.62-.39,6.6-.82l.79.94Zm-3.99,2.73c-.16-.62-.36-1.11-.7-1.7l.94-.3c.34.58.49.95.7,1.66l-.94.34Zm-.69,4.54c.4.43.82.81,1.34,1.17.52-.4.79-.69,1.16-1.17h-2.5Z" fill="#231815"/>
      <path d="m482.91,422.56c.05-.39.08-.82.08-1.65v-8.19c0-.64-.03-1.08-.08-1.57.48.05.86.07,1.52.07h7.97c.66,0,1.04-.01,1.53-.07-.06.53-.08.88-.08,1.57v8.22c0,.81.03,1.25.08,1.62h-1.25v-.74h-8.53v.74h-1.25Zm1.25-1.79h8.53v-8.5h-8.53v8.5Zm5.37-7.19c0-.47-.01-.7-.06-.97h1.25c-.05.26-.07.48-.07.97v.62h.48c.47,0,.86-.03,1.09-.06v1.13c-.27-.04-.66-.07-1.12-.07h-.46v3.95c0,.91-.34,1.17-1.56,1.17-.39,0-.6-.01-1.31-.07-.05-.53-.09-.69-.27-1.12.68.1,1.17.16,1.61.16.33,0,.42-.08.42-.34v-3.76h-3.52c-.55,0-.86.01-1.21.07v-1.13c.31.05.59.06,1.21.06h3.52v-.62Zm-2.2,5.06c-.56-1.14-.9-1.66-1.62-2.5l.91-.6c.79.92,1.08,1.34,1.72,2.44l-1,.65Z" fill="#231815"/>
      <path d="m392.69,434.11c.36.07.64.08,1.21.08h1.04c.57,0,.77-.01,1.22-.06-.08.79-.1,1.4-.1,2.16v6.46c0,.66.03,1.09.1,1.61h-1.68c.08-.49.1-.96.1-1.61v-7.31h-.65c-.44,0-.81.03-1.25.08v-1.4Z" fill="#231815"/>
      <path d="m401.94,444.36c-.95,0-1.14.01-1.59.06.09-.81.18-1.22.36-1.69.34-.88.91-1.68,1.74-2.42.44-.39.85-.69,2.08-1.52,1.24-.83,1.6-1.31,1.6-2.11,0-.9-.74-1.46-1.91-1.46-.81,0-1.4.27-1.77.81-.22.34-.32.62-.42,1.25l-1.55-.21c.17-.92.4-1.46.87-2,.61-.71,1.59-1.09,2.82-1.09,2.16,0,3.5,1.05,3.5,2.74,0,.99-.38,1.68-1.31,2.39-.4.3-.58.43-1.74,1.21-1.46.97-2.11,1.72-2.44,2.73h3.87c.75,0,1.33-.03,1.77-.09v1.47c-.57-.05-1.07-.08-1.82-.08h-4.07Z" fill="#231815"/>
      <path d="m411.1,438.73h-1.65v-1.65h1.65v1.65Zm-1.65,5.63v-1.65h1.65v1.65h-1.65Z" fill="#231815"/>
      <path d="m414.06,441.71c.17.6.33.84.69,1.12.44.33.97.49,1.62.49,1.37,0,2.25-.7,2.25-1.81,0-1.17-.84-1.81-2.39-1.81-.49,0-.85.01-1.26.06v-1.38c.31.05.71.08,1.04.08.66,0,1.26-.13,1.59-.35.48-.31.73-.79.73-1.38,0-1-.69-1.53-1.96-1.53-.71,0-1.24.22-1.57.65-.18.23-.26.42-.38.84l-1.55-.29c.22-.73.43-1.09.84-1.5.64-.62,1.57-.95,2.74-.95,2.05,0,3.38,1.05,3.38,2.68,0,.79-.34,1.5-.91,1.91-.31.23-.58.34-1.23.49.9.12,1.39.34,1.85.83.43.47.62,1.03.62,1.79,0,.7-.29,1.4-.77,1.87-.68.66-1.72,1.01-3.02,1.01-1.43,0-2.46-.38-3.16-1.16-.31-.35-.47-.68-.7-1.38l1.55-.33Z" fill="#231815"/>
      <path d="m422.81,443.55c-.38-.38-.65-.81-.82-1.26-.34-.92-.51-1.94-.51-3,0-1.37.31-2.79.77-3.56.68-1.12,1.78-1.73,3.16-1.73,1.05,0,1.94.34,2.6,1,.38.38.66.81.82,1.26.34.91.51,1.95.51,3.02,0,1.59-.35,2.99-.94,3.81-.7.97-1.72,1.47-3,1.47-1.05,0-1.92-.34-2.59-1Zm1.07-7.64c-.27.3-.46.64-.56.98-.23.73-.35,1.56-.35,2.43,0,1.14.25,2.35.58,2.93.42.7,1.04,1.05,1.86,1.05.61,0,1.14-.21,1.5-.57.27-.29.48-.65.6-1.05.23-.75.35-1.53.35-2.41,0-1.05-.22-2.25-.53-2.85-.4-.78-1.03-1.17-1.92-1.17-.65,0-1.13.21-1.52.66Z" fill="#231815"/>
      <path d="m430.48,439.35c.51-.57.77-.79,1.37-1.14.71-.4,1.23-.56,1.94-.56.58,0,1.12.12,1.65.38q.35.17,1.2.74c1.01.68,1.73.96,2.43.96.36,0,.79-.13,1.22-.38.47-.27.72-.51,1.14-1.05l.88.84c-.53.65-.81.91-1.21,1.21-.65.47-1.37.7-2.16.7-.4,0-.83-.06-1.2-.2-.53-.18-.83-.35-1.78-.99-1.11-.73-1.53-.91-2.29-.91-.87,0-1.46.3-2.33,1.2l-.87-.81Z" fill="#231815"/>
      <path d="m464.85,444.36c-.04-.27-.18-.88-.31-1.3l-1.52-5.15c-.16-.51-.25-.91-.39-1.6-.14.68-.26,1.21-.38,1.6l-1.51,5.15c-.18.62-.27.99-.32,1.3h-1.43q-.05-.3-.35-1.33l-2.07-7.32c-.22-.77-.33-1.09-.52-1.52h1.77c.03.4.1.84.23,1.38l1.35,5.24c.1.4.25,1.05.33,1.51.1-.51.29-1.24.38-1.52l1.56-5.3c.16-.51.26-.97.29-1.3h1.35c.05.34.16.82.3,1.29l1.57,5.29c.09.29.17.64.38,1.55.21-1.01.33-1.53.33-1.56l1.34-5.19c.13-.49.22-1.01.23-1.38h1.77c-.2.44-.29.75-.51,1.52l-2.08,7.31q-.29,1.08-.33,1.34h-1.46Z" fill="#231815"/>
      <path d="m471.99,434.19c-.08.48-.1.9-.1,1.59v6.99c0,.69.03,1.13.1,1.59h-1.66c.08-.49.1-.88.1-1.59v-6.99c0-.73-.03-1.09-.1-1.59h1.66Z" fill="#231815"/>
      <path d="m475.46,444.36c-.68,0-1.1.01-1.56.04.08-.48.1-.95.1-1.64v-6.79c0-.81-.03-1.3-.1-1.78h1.66c-.08.52-.1.9-.1,1.77v7.1h3.82c.78,0,1.2-.03,1.72-.09v1.48c-.46-.07-.86-.09-1.72-.09h-3.82Z" fill="#231815"/>
      <path d="m482.14,435.76c0-.65-.03-1.05-.1-1.61.47.03.81.04,1.56.04h2.3c1.52,0,2.59.36,3.41,1.14.91.88,1.38,2.2,1.38,3.85s-.51,3.09-1.47,4.03c-.82.78-1.86,1.14-3.32,1.14h-2.3c-.73,0-1.03.01-1.56.04.08-.51.1-.92.1-1.65v-6.98Zm3.68,7.31c1.07,0,1.78-.26,2.35-.86.66-.69,1.01-1.74,1.01-3s-.31-2.25-.95-2.91c-.56-.57-1.26-.82-2.39-.82h-2.26v7.59h2.24Z" fill="#231815"/>
      <path d="m498.16,444.36c-.69,0-1.03.01-1.57.04.09-.56.12-.88.12-1.7v-7.02c0-.57-.04-1-.1-1.51.44.03.71.03,1.56.03h2.94c1.98,0,3.07.88,3.07,2.48,0,.77-.23,1.34-.71,1.79-.29.25-.52.36-1.04.53.64.12.95.26,1.3.57.53.48.81,1.13.81,1.98,0,1.79-1.18,2.81-3.28,2.81h-3.08Zm2.83-5.93c1.08,0,1.72-.57,1.72-1.56s-.6-1.46-1.74-1.46h-2.83v3.02h2.86Zm-2.86,4.69h2.94c1.27,0,1.95-.61,1.95-1.74,0-.56-.14-.96-.46-1.25-.34-.33-.87-.49-1.53-.49h-2.9v3.48Z" fill="#231815"/>
      <path d="m513.82,435.26c.92.92,1.43,2.34,1.43,4,0,3.22-1.85,5.3-4.71,5.3s-4.71-2.07-4.71-5.3,1.85-5.26,4.71-5.26c1.35,0,2.43.42,3.28,1.26Zm-.08,3.99c0-1.35-.38-2.44-1.08-3.15-.55-.55-1.27-.83-2.12-.83-1.95,0-3.21,1.56-3.21,3.99s1.27,4.02,3.22,4.02,3.19-1.55,3.19-4.03Z" fill="#231815"/>
      <path d="m524.11,444.36c-.09-.44-.23-.98-.38-1.35l-.58-1.52h-4.32l-.58,1.52c-.22.56-.3.86-.39,1.35h-1.82c.22-.39.42-.82.69-1.52l2.89-7.37c.25-.64.35-.95.42-1.27h1.87c.07.29.13.48.44,1.27l2.9,7.37c.33.81.49,1.2.68,1.52h-1.81Zm-2.87-8.15q-.05-.13-.26-.78-.22.68-.26.78l-1.48,4.03h3.5l-1.5-4.03Z" fill="#231815"/>
      <path d="m533.61,444.36c-.05-.4-.23-.92-.71-2.15-.71-1.77-1.2-2.28-2.21-2.28h-2.13v2.81c0,.73.03,1.13.1,1.61h-1.64c.08-.52.1-.87.1-1.6v-7.01c0-.62-.03-1.03-.1-1.6.48.03.87.04,1.56.04h3.02c1.04,0,1.78.23,2.33.75.47.44.71,1.08.71,1.87s-.23,1.46-.71,1.92c-.38.36-.7.52-1.43.71.57.17.88.51,1.34,1.43.27.55.58,1.22,1.01,2.21.14.34.43.94.6,1.26h-1.83Zm-2.25-5.67c.66,0,1.26-.3,1.55-.78.16-.26.23-.56.23-.96,0-.45-.13-.83-.39-1.09-.3-.3-.7-.43-1.33-.43h-2.87v3.26h2.81Z" fill="#231815"/>
      <path d="m538.08,441.25c.04.6.13.88.38,1.21.4.52,1.12.82,2.01.82,1.39,0,2.24-.65,2.24-1.72,0-.57-.25-1.04-.69-1.27-.42-.22-.51-.25-2.21-.64-.9-.21-1.43-.4-1.88-.71-.73-.49-1.09-1.2-1.09-2.08,0-1.74,1.39-2.87,3.55-2.87,1.4,0,2.47.44,3.09,1.27.3.4.46.78.6,1.46l-1.55.18c-.08-.46-.18-.71-.42-.97-.36-.44-.98-.68-1.74-.68-1.22,0-2.05.64-2.05,1.57,0,.6.31,1.01.99,1.29.33.14.4.16,1.85.47.97.21,1.65.47,2.09.82.68.52.99,1.17.99,2.09,0,1.98-1.34,3.07-3.73,3.07-1.51,0-2.63-.42-3.28-1.22-.4-.51-.57-.96-.71-1.91l1.57-.17Z" fill="#231815"/>
      <path d="m392.69,456.86c.36.07.64.08,1.21.08h1.04c.57,0,.77-.01,1.22-.06-.08.79-.1,1.4-.1,2.16v6.46c0,.66.03,1.09.1,1.61h-1.68c.08-.49.1-.96.1-1.61v-7.31h-.65c-.44,0-.81.03-1.25.08v-1.4Z" fill="#231815"/>
      <path d="m401.73,464.46c.17.6.33.84.69,1.12.44.33.98.49,1.63.49,1.36,0,2.25-.7,2.25-1.81,0-1.17-.85-1.81-2.39-1.81-.49,0-.84.01-1.26.06v-1.38c.31.05.71.08,1.04.08.66,0,1.26-.13,1.59-.35.48-.31.73-.79.73-1.38,0-1-.69-1.53-1.96-1.53-.71,0-1.23.22-1.57.65-.18.23-.26.42-.38.84l-1.55-.29c.22-.73.43-1.09.84-1.5.64-.62,1.57-.95,2.74-.95,2.05,0,3.38,1.05,3.38,2.68,0,.79-.34,1.5-.91,1.91-.31.23-.58.34-1.24.49.9.12,1.39.34,1.85.83.43.47.62,1.03.62,1.79,0,.7-.29,1.4-.77,1.87-.68.66-1.72,1.01-3.02,1.01-1.43,0-2.46-.38-3.16-1.16-.31-.35-.47-.68-.7-1.38l1.55-.33Z" fill="#231815"/>
      <path d="m411.1,461.48h-1.65v-1.65h1.65v1.65Zm-1.65,5.63v-1.65h1.65v1.65h-1.65Z" fill="#231815"/>
      <path d="m414.06,464.46c.17.6.33.84.69,1.12.44.33.97.49,1.62.49,1.37,0,2.25-.7,2.25-1.81,0-1.17-.84-1.81-2.39-1.81-.49,0-.85.01-1.26.06v-1.38c.31.05.71.08,1.04.08.66,0,1.26-.13,1.59-.35.48-.31.73-.79.73-1.38,0-1-.69-1.53-1.96-1.53-.71,0-1.24.22-1.57.65-.18.23-.26.42-.38.84l-1.55-.29c.22-.73.43-1.09.84-1.5.64-.62,1.57-.95,2.74-.95,2.05,0,3.38,1.05,3.38,2.68,0,.79-.34,1.5-.91,1.91-.31.23-.58.34-1.23.49.9.12,1.39.34,1.85.83.43.47.62,1.03.62,1.79,0,.7-.29,1.4-.77,1.87-.68.66-1.72,1.01-3.02,1.01-1.43,0-2.46-.38-3.16-1.16-.31-.35-.47-.68-.7-1.38l1.55-.33Z" fill="#231815"/>
      <path d="m422.81,466.3c-.38-.38-.65-.81-.82-1.26-.34-.92-.51-1.94-.51-3,0-1.37.31-2.79.77-3.56.68-1.12,1.78-1.73,3.16-1.73,1.05,0,1.94.34,2.6,1,.38.38.66.81.82,1.26.34.91.51,1.95.51,3.02,0,1.59-.35,2.99-.94,3.81-.7.97-1.72,1.47-3,1.47-1.05,0-1.92-.34-2.59-1Zm1.07-7.64c-.27.3-.46.64-.56.98-.23.73-.35,1.56-.35,2.43,0,1.14.25,2.35.58,2.93.42.7,1.04,1.05,1.86,1.05.61,0,1.14-.21,1.5-.57.27-.29.48-.65.6-1.05.23-.75.35-1.53.35-2.41,0-1.05-.22-2.25-.53-2.85-.4-.78-1.03-1.17-1.92-1.17-.65,0-1.13.21-1.52.66Z" fill="#231815"/>
      <path d="m430.48,462.1c.51-.57.77-.79,1.37-1.14.71-.4,1.23-.56,1.94-.56.58,0,1.12.12,1.65.38q.35.17,1.2.74c1.01.68,1.73.96,2.43.96.36,0,.79-.13,1.22-.38.47-.27.72-.51,1.14-1.05l.88.84c-.53.65-.81.91-1.21,1.21-.65.47-1.37.7-2.16.7-.4,0-.83-.06-1.2-.2-.53-.18-.83-.35-1.78-.99-1.11-.73-1.53-.91-2.29-.91-.87,0-1.46.3-2.33,1.2l-.87-.81Z" fill="#231815"/>
      <path d="m464.85,467.11c-.04-.27-.18-.88-.31-1.3l-1.52-5.15c-.16-.51-.25-.91-.39-1.6-.14.68-.26,1.21-.38,1.6l-1.51,5.15c-.18.62-.27.99-.32,1.3h-1.43q-.05-.3-.35-1.33l-2.07-7.32c-.22-.77-.33-1.09-.52-1.52h1.77c.03.4.1.84.23,1.38l1.35,5.24c.1.4.25,1.05.33,1.51.1-.51.29-1.24.38-1.52l1.56-5.3c.16-.51.26-.97.29-1.3h1.35c.05.34.16.82.3,1.29l1.57,5.29c.09.29.17.64.38,1.55.21-1.01.33-1.53.33-1.56l1.34-5.19c.13-.49.22-1.01.23-1.38h1.77c-.2.44-.29.75-.51,1.52l-2.08,7.31q-.29,1.08-.33,1.34h-1.46Z" fill="#231815"/>
      <path d="m471.99,456.94c-.08.48-.1.9-.1,1.59v6.99c0,.69.03,1.13.1,1.59h-1.66c.08-.49.1-.88.1-1.59v-6.99c0-.73-.03-1.09-.1-1.59h1.66Z" fill="#231815"/>
      <path d="m475.46,467.11c-.68,0-1.1.01-1.56.04.08-.48.1-.95.1-1.64v-6.79c0-.81-.03-1.3-.1-1.78h1.66c-.08.52-.1.9-.1,1.77v7.1h3.82c.78,0,1.2-.03,1.72-.09v1.48c-.46-.07-.86-.09-1.72-.09h-3.82Z" fill="#231815"/>
      <path d="m482.14,458.51c0-.65-.03-1.05-.1-1.61.47.03.81.04,1.56.04h2.3c1.52,0,2.59.36,3.41,1.14.91.88,1.38,2.2,1.38,3.85s-.51,3.09-1.47,4.03c-.82.78-1.86,1.14-3.32,1.14h-2.3c-.73,0-1.03.01-1.56.04.08-.51.1-.92.1-1.65v-6.98Zm3.68,7.31c1.07,0,1.78-.26,2.35-.86.66-.69,1.01-1.74,1.01-3s-.31-2.25-.95-2.91c-.56-.57-1.26-.82-2.39-.82h-2.26v7.59h2.24Z" fill="#231815"/>
      <path d="m498.16,467.11c-.69,0-1.03.01-1.57.04.09-.56.12-.88.12-1.7v-7.02c0-.57-.04-1-.1-1.51.44.03.71.03,1.56.03h2.94c1.98,0,3.07.88,3.07,2.48,0,.77-.23,1.34-.71,1.79-.29.25-.52.36-1.04.53.64.12.95.26,1.3.57.53.48.81,1.13.81,1.98,0,1.79-1.18,2.81-3.28,2.81h-3.08Zm2.83-5.93c1.08,0,1.72-.57,1.72-1.56s-.6-1.46-1.74-1.46h-2.83v3.02h2.86Zm-2.86,4.69h2.94c1.27,0,1.95-.61,1.95-1.74,0-.56-.14-.96-.46-1.25-.34-.33-.87-.49-1.53-.49h-2.9v3.48Z" fill="#231815"/>
      <path d="m513.82,458.01c.92.92,1.43,2.34,1.43,4,0,3.22-1.85,5.3-4.71,5.3s-4.71-2.07-4.71-5.3,1.85-5.26,4.71-5.26c1.35,0,2.43.42,3.28,1.26Zm-.08,3.99c0-1.35-.38-2.44-1.08-3.15-.55-.55-1.27-.83-2.12-.83-1.95,0-3.21,1.56-3.21,3.99s1.27,4.02,3.22,4.02,3.19-1.55,3.19-4.03Z" fill="#231815"/>
      <path d="m524.11,467.11c-.09-.44-.23-.98-.38-1.35l-.58-1.52h-4.32l-.58,1.52c-.22.56-.3.86-.39,1.35h-1.82c.22-.39.42-.82.69-1.52l2.89-7.37c.25-.64.35-.95.42-1.27h1.87c.07.29.13.48.44,1.27l2.9,7.37c.33.81.49,1.2.68,1.52h-1.81Zm-2.87-8.15q-.05-.13-.26-.78-.22.68-.26.78l-1.48,4.03h3.5l-1.5-4.03Z" fill="#231815"/>
      <path d="m533.61,467.11c-.05-.4-.23-.92-.71-2.15-.71-1.77-1.2-2.28-2.21-2.28h-2.13v2.81c0,.73.03,1.13.1,1.61h-1.64c.08-.52.1-.87.1-1.6v-7.01c0-.62-.03-1.03-.1-1.6.48.03.87.04,1.56.04h3.02c1.04,0,1.78.23,2.33.75.47.44.71,1.08.71,1.87s-.23,1.46-.71,1.92c-.38.36-.7.52-1.43.71.57.17.88.51,1.34,1.43.27.55.58,1.22,1.01,2.21.14.34.43.94.6,1.26h-1.83Zm-2.25-5.67c.66,0,1.26-.3,1.55-.78.16-.26.23-.56.23-.96,0-.45-.13-.83-.39-1.09-.3-.3-.7-.43-1.33-.43h-2.87v3.26h2.81Z" fill="#231815"/>
      <path d="m538.08,464c.04.6.13.88.38,1.21.4.52,1.12.82,2.01.82,1.39,0,2.24-.65,2.24-1.72,0-.57-.25-1.04-.69-1.27-.42-.22-.51-.25-2.21-.64-.9-.21-1.43-.4-1.88-.71-.73-.49-1.09-1.2-1.09-2.08,0-1.74,1.39-2.87,3.55-2.87,1.4,0,2.47.44,3.09,1.27.3.4.46.78.6,1.46l-1.55.18c-.08-.46-.18-.71-.42-.97-.36-.44-.98-.68-1.74-.68-1.22,0-2.05.64-2.05,1.57,0,.6.31,1.01.99,1.29.33.14.4.16,1.85.47.97.21,1.65.47,2.09.82.68.52.99,1.17.99,2.09,0,1.98-1.34,3.07-3.73,3.07-1.51,0-2.63-.42-3.28-1.22-.4-.51-.57-.96-.71-1.91l1.57-.17Z" fill="#231815"/>
      <path d="m392.69,479.61c.36.07.64.08,1.21.08h1.04c.57,0,.77-.01,1.22-.06-.08.79-.1,1.4-.1,2.16v6.46c0,.66.03,1.09.1,1.61h-1.68c.08-.49.1-.96.1-1.61v-7.31h-.65c-.44,0-.81.03-1.25.08v-1.4Z" fill="#231815"/>
      <path d="m402.23,483.42c-.01.13-.04.33-.08.56.64-.57,1.34-.83,2.28-.83s1.82.33,2.43.94c.6.6.9,1.38.9,2.38,0,2.22-1.44,3.6-3.76,3.6-1.17,0-2.09-.34-2.77-1.03-.36-.38-.55-.68-.82-1.35l1.51-.34c.13.38.21.55.39.75.39.46.99.7,1.7.7,1.37,0,2.26-.91,2.26-2.29s-.83-2.2-2.21-2.2c-.64,0-1.26.25-1.69.68-.18.17-.25.29-.36.56l-1.37-.13c.12-.75.14-.9.18-1.34l.29-3.12c.04-.31.05-.6.05-.81v-.23c-.01-.07-.01-.17-.01-.29.39.04.68.05,1.38.05h2.99c.83,0,1.12-.01,1.69-.1v1.44c-.55-.08-1-.1-1.69-.1h-3.04l-.25,2.5Z" fill="#231815"/>
      <path d="m411.1,484.23h-1.65v-1.65h1.65v1.65Zm-1.65,5.63v-1.65h1.65v1.65h-1.65Z" fill="#231815"/>
      <path d="m413.84,489.05c-.38-.38-.65-.81-.82-1.26-.34-.92-.51-1.94-.51-3,0-1.37.31-2.79.77-3.56.68-1.12,1.78-1.73,3.16-1.73,1.05,0,1.94.34,2.6,1,.38.38.66.81.82,1.26.34.91.51,1.95.51,3.02,0,1.59-.35,2.99-.94,3.81-.7.97-1.72,1.47-3,1.47-1.05,0-1.92-.34-2.59-1Zm1.07-7.64c-.27.3-.46.64-.56.98-.23.73-.35,1.56-.35,2.43,0,1.14.25,2.35.58,2.93.42.7,1.04,1.05,1.86,1.05.61,0,1.14-.21,1.5-.57.27-.29.48-.65.6-1.05.23-.75.35-1.53.35-2.41,0-1.05-.22-2.25-.53-2.85-.4-.78-1.03-1.17-1.92-1.17-.65,0-1.13.21-1.52.66Z" fill="#231815"/>
      <path d="m422.81,489.05c-.38-.38-.65-.81-.82-1.26-.34-.92-.51-1.94-.51-3,0-1.37.31-2.79.77-3.56.68-1.12,1.78-1.73,3.16-1.73,1.05,0,1.94.34,2.6,1,.38.38.66.81.82,1.26.34.91.51,1.95.51,3.02,0,1.59-.35,2.99-.94,3.81-.7.97-1.72,1.47-3,1.47-1.05,0-1.92-.34-2.59-1Zm1.07-7.64c-.27.3-.46.64-.56.98-.23.73-.35,1.56-.35,2.43,0,1.14.25,2.35.58,2.93.42.7,1.04,1.05,1.86,1.05.61,0,1.14-.21,1.5-.57.27-.29.48-.65.6-1.05.23-.75.35-1.53.35-2.41,0-1.05-.22-2.25-.53-2.85-.4-.78-1.03-1.17-1.92-1.17-.65,0-1.13.21-1.52.66Z" fill="#231815"/>
      <path d="m430.48,484.85c.51-.57.77-.79,1.37-1.14.71-.4,1.23-.56,1.94-.56.58,0,1.12.12,1.65.38q.35.17,1.2.74c1.01.68,1.73.96,2.43.96.36,0,.79-.13,1.22-.38.47-.27.72-.51,1.14-1.05l.88.84c-.53.65-.81.91-1.21,1.21-.65.47-1.37.7-2.16.7-.4,0-.83-.06-1.2-.2-.53-.18-.83-.35-1.78-.99-1.11-.73-1.53-.91-2.29-.91-.87,0-1.46.3-2.33,1.2l-.87-.81Z" fill="#231815"/>
      <path d="m462.06,479.6c0-.3-.01-.52-.07-.78h1.33c-.05.22-.06.42-.06.78v.61h3.5c.7,0,1.12-.03,1.48-.08v1.22c-.4-.05-.82-.06-1.48-.06h-8.18c0,5.71-.23,7.31-1.33,9.36-.35-.43-.57-.62-.99-.91.47-.82.68-1.38.84-2.28.21-1.05.3-2.85.3-5.58,0-.91-.01-1.31-.05-1.74.4.05.81.07,1.34.07h3.37v-.61Zm-3.48,9.37c.39-.81.52-1.16.69-1.96.21-.88.27-1.4.34-2.51l1.14.29c-.12,1.13-.18,1.65-.38,2.55-.19.95-.33,1.4-.7,2.33l-1.09-.69Zm6.14-4.45c-1.01-.97-1.74-1.5-3.24-2.27l.83-.78c1.51.82,2.01,1.16,3.22,2.13l-.82.92Zm-1.92-.95c-.05.3-.08.64-.08,1.21v4.32c0,.35.14.4,1.03.4s1.08-.06,1.18-.36c.09-.25.17-1.08.17-1.85v-.3c.47.21.79.33,1.16.4-.17,3-.35,3.24-2.5,3.24-1.81,0-2.2-.17-2.2-.95v-4.91c0-.58-.01-.88-.08-1.2h1.31Zm4.45,5.86c-.36-1.94-.68-2.91-1.5-4.54l1.05-.49c.83,1.78,1.18,2.76,1.61,4.5l-1.17.53Z" fill="#231815"/>
      <path d="m474.79,483.55c-.47,0-.86.01-1.18.05v-1.04c.27.04.58.05,1.07.05h.08c-.22-.65-.39-1-.77-1.55l.92-.31c.35.55.53.94.73,1.5l-.82.36h3.68c.6-.92.87-1.51,1.12-2.31l1.11.31c-.55,1.05-.75,1.43-1.14,2h.43c.51,0,.77-.01,1.07-.06v1.05c-.38-.04-.71-.05-1.23-.05h-3.45c-.04.4-.05.53-.1.86h3.54c.71,0,1.09-.01,1.46-.08v1.13c-.39-.05-.9-.08-1.46-.08h-3.72c-.07.29-.1.42-.2.74h2.77c.57,0,.87-.01,1.09-.05l.58.71q-.09.12-.26.34c-.38.55-1.04,1.27-1.55,1.7.91.46,1.61.65,2.99.87-.23.42-.35.65-.53,1.16-1.43-.36-2.35-.74-3.35-1.35-.91.58-1.94,1.01-3.16,1.34-.16-.42-.34-.71-.62-1.03,1.18-.23,1.95-.49,2.85-.99-.62-.51-1.01-.9-1.35-1.33-.62,1.31-1.37,2.26-2.5,3.22-.16-.31-.42-.64-.71-.87-.08.69-.4.87-1.6.87-.21,0-.36,0-.73-.03-.03-.42-.09-.7-.25-1.11.49.05.81.08,1.13.08.26,0,.33-.06.33-.31v-3.32q-.44.16-.75.27c-.05.03-.08.03-.4.14-.08.03-.14.05-.26.1l-.26-1.21c.53-.08.83-.16,1.68-.44v-2.44h-.64c-.31,0-.55.01-.88.05v-1.16c.3.05.52.07.88.07h.64v-1.14c0-.64-.01-.95-.08-1.34h1.29c-.06.36-.08.7-.08,1.33v1.16h.36c.3,0,.48-.01.74-.04v1.12c-.27-.03-.46-.04-.74-.04h-.36v2.02c.42-.16.53-.21.98-.42l.03,1.07c-.47.22-.62.3-1,.46v4.19c1.43-1.11,2.37-2.56,2.82-4.39h-.31c-.56,0-.92.01-1.27.07v-1.11c.38.05.74.07,1.3.07h.48c.04-.31.06-.6.09-.86h-.48Zm6.12-3.73q-.16.03-.62.12c-1.68.35-4.42.64-6.79.71-.08-.39-.13-.55-.36-.95h.38c2.5,0,5.62-.39,6.6-.82l.79.94Zm-3.99,2.73c-.16-.62-.36-1.11-.7-1.7l.94-.3c.34.58.49.95.7,1.66l-.94.34Zm-.69,4.54c.4.43.82.81,1.34,1.17.52-.4.79-.69,1.16-1.17h-2.5Z" fill="#231815"/>
      <path d="m482.91,490.81c.05-.39.08-.82.08-1.65v-8.19c0-.64-.03-1.08-.08-1.57.48.05.86.07,1.52.07h7.97c.66,0,1.04-.01,1.53-.07-.06.53-.08.88-.08,1.57v8.22c0,.81.03,1.25.08,1.62h-1.25v-.74h-8.53v.74h-1.25Zm1.25-1.79h8.53v-8.5h-8.53v8.5Zm5.37-7.19c0-.47-.01-.7-.06-.97h1.25c-.05.26-.07.48-.07.97v.62h.48c.47,0,.86-.03,1.09-.06v1.13c-.27-.04-.66-.07-1.12-.07h-.46v3.95c0,.91-.34,1.17-1.56,1.17-.39,0-.6-.01-1.31-.07-.05-.53-.09-.69-.27-1.12.68.1,1.17.16,1.61.16.33,0,.42-.08.42-.34v-3.76h-3.52c-.55,0-.86.01-1.21.07v-1.13c.31.05.59.06,1.21.06h3.52v-.62Zm-2.2,5.06c-.56-1.14-.9-1.66-1.62-2.5l.91-.6c.79.92,1.08,1.34,1.72,2.44l-1,.65Z" fill="#231815"/>
    </g>
  </g>
</svg>