<?xml version="1.0" encoding="UTF-8"?>
<svg xmlns="http://www.w3.org/2000/svg" width="714.99" height="520.46" viewBox="0 0 714.99 520.46">
  <g id="base">
    <rect id="base-2" data-name="base" y=".55" width="714.46" height="519.91" fill="#dcdddd"/>
  </g>
  <g id="MLOC-unavailable">
    <rect id="building1" x="36.56" y=".55" width="507.32" height="158.87" fill="#929292" stroke="#283331" stroke-miterlimit="10" stroke-width="1.1"/>
    <rect id="building7" x="36.56" y="388.63" width="507.32" height="116.23" fill="#929292" stroke="#283331" stroke-miterlimit="10" stroke-width="1.07"/>
    <rect id="Hall" x="643.99" y=".55" width="70.47" height="92.6" fill="#929292" stroke="#283331" stroke-miterlimit="10" stroke-width="1.02"/>
  </g>
  <g id="MLOC-available">
    <rect id="no10" x="64.99" y="290.06" width="74.18" height="86.27" transform="translate(435.28 231.12) rotate(90)" fill="#aaddf7" stroke="#283331" stroke-miterlimit="10"/>
    <rect id="no9" x="173.73" y="288.64" width="74.18" height="86.27" transform="translate(542.6 120.96) rotate(90)" fill="#aaddf7" stroke="#283331" stroke-miterlimit="10"/>
    <rect id="no8" x="282.46" y="289.3" width="74.18" height="86.27" transform="translate(651.99 12.88) rotate(90)" fill="#aaddf7" stroke="#283331" stroke-miterlimit="10"/>
    <rect id="no7" x="388.09" y="288.5" width="74.18" height="86.27" transform="translate(756.81 -93.55) rotate(90)" fill="#aaddf7" stroke="#283331" stroke-miterlimit="10"/>
    <rect id="no5" x="70.22" y="172.83" width="74.18" height="86.27" transform="translate(323.27 108.65) rotate(90)" fill="#aaddf7" stroke="#283331" stroke-miterlimit="10"/>
    <rect id="no4" x="175.31" y="172.83" width="74.18" height="86.27" transform="translate(428.37 3.56) rotate(90)" fill="#aaddf7" stroke="#283331" stroke-miterlimit="10"/>
    <rect id="no3" x="282.46" y="174.8" width="74.18" height="86.27" transform="translate(537.49 -101.62) rotate(90)" fill="#aaddf7" stroke="#283331" stroke-miterlimit="10"/>
    <rect id="no2" x="388.74" y="176.2" width="74.18" height="86.27" transform="translate(645.16 -206.51) rotate(90)" fill="#aaddf7" stroke="#283331" stroke-miterlimit="10"/>
    <rect id="no1" x="496.08" y="174.45" width="74.18" height="86.27" transform="translate(750.75 -315.58) rotate(90)" fill="#aaddf7" stroke="#283331" stroke-miterlimit="10"/>
    <rect id="no6" x="496.95" y="288.02" width="74.18" height="86.27" transform="translate(865.19 -202.88) rotate(90)" fill="#aaddf7" stroke="#283331" stroke-miterlimit="10"/>
  </g>
  <g id="MNOINT-word">
    <g>
      <path d="m521.37,214.76c.74.46,1.33.89,1.97,1.43l-.76,1.08c-.7-.67-1.14-1.02-1.97-1.52l.75-.98Zm1.99,4.2c-.34,1.09-.83,2.28-1.39,3.38-.14.29-.17.32-.22.44l-1.14-.97c.24-.28.38-.52.65-.98.43-.82.66-1.38,1.06-2.64l1.04.77Zm-.37-4.63c-.58-.59-1.07-.97-1.94-1.56l.8-.94c.7.44,1.21.82,1.68,1.24v-.62c.37.05.72.07,1.29.07h.9c0-.35-.01-.52-.06-.76h1.28c-.04.23-.05.35-.05.76h1.07c0-.37-.01-.54-.05-.76h1.28c-.04.23-.06.42-.06.76h1.31c.55,0,.96-.02,1.31-.07v1.15c-.29-.04-.72-.06-1.27-.06h-1.34v.44h1.1c.58,0,.8-.01,1.12-.04-.04.32-.05.58-.05,1.09v1.79c0,.58.01.79.04,1.09-.32-.02-.64-.04-1.12-.04h-5.47c-.5,0-.82.01-1.14.05.04-.35.05-.58.05-1.07v-1.85c0-.48-.01-.72-.05-1.07.31.02.54.04,1.12.04h.98v-.44h-.94c-.49,0-.86.01-1.21.06l-.59.73Zm1.26,4.92c0-.47-.01-.61-.04-.94.32.04.5.05,1.08.05h4.37c.59,0,.77-.01,1.09-.05-.04.29-.05.55-.05,1.03v2.29c0,.59.01.9.06,1.21h-1.3v-.48h-3.99v.49h-1.28c.04-.32.06-.66.06-1.22v-2.39Zm.53-4.31v.49h.95v-.49h-.95Zm0,1.4v.52h.95v-.52h-.95Zm.71,3.54h3.97v-.49h-3.97v.49Zm0,1.45h3.97v-.5h-3.97v.5Zm2.48-7.35v-.44h-1.07v.44h1.07Zm0,1.45v-.49h-1.07v.49h1.07Zm0,1.43v-.52h-1.07v.52h1.07Zm2.23-1.43v-.49h-1.05v.49h1.05Zm0,1.43v-.52h-1.05v.52h1.05Z" fill="#231815"/>
      <path d="m534.6,217.82c-.13.01-.18.02-.32.04-.02,1.44-.05,1.8-.18,2.61-.13.85-.32,1.46-.74,2.28q-.5-.58-.92-.95c.54-.88.74-1.83.82-3.84-.3.04-.53.07-.68.1l-.12-1.25h.37c.16,0,.24-.01.44-.01.01-.42.01-.72.01-.97,0-1.79-.02-2.47-.07-2.89.23.04.49.05.86.05h.19c.19-.55.25-.82.35-1.36l1.25.19c-.05.12-.07.22-.1.26-.1.29-.13.38-.33.9h.6c.32,0,.59-.01.82-.05-.02.24-.04.6-.04,1.01v2.51l.26-.04v.25c.59-1.19.98-2.16,1.28-3.12h-.6c-.3,0-.43.01-.64.05v-1.28c.18.04.35.05.71.05h.78c.23,0,.41-.01.58-.05l.55.61-.04.06c.91-.11,1.19-.17,1.73-.32.66-.18,1.06-.36,1.51-.65l.72,1.12q-1.09.4-1.33.48v2h.43c.48,0,.67-.01,1.01-.05v1.31c-.32-.05-.56-.06-1.01-.06h-.43v2.06h.32c.4,0,.61-.01.88-.06v1.3c-.28-.04-.52-.05-.88-.05h-1.73c-.4,0-.62.01-.94.05v-1.3c.24.05.46.06.83.06h.29v-2.06h-.37c-.38,0-.59.01-.84.05-.13,1.02-.41,2.09-.8,3.12.8.88,1.82,1.22,3.57,1.22.41,0,.67-.01,1.29-.07-.22.54-.32.95-.38,1.45-.32.01-.56.01-.66.01-2.11,0-3.33-.43-4.34-1.52-.38.71-.74,1.2-1.33,1.81-.28-.5-.34-.6-.53-.84-.22.37-.44.46-1.24.46-.13,0-.28,0-.59-.02-.04-.53-.08-.8-.2-1.2.34.05.6.07.8.07.24,0,.3-.05.3-.25v-3.42q-.22.04-.34.05v2.13c0,.35.01.61.04.84h-.92c.02-.28.05-.54.05-.84v-2.04Zm1.18-3.74h-1.46v2.63c.49-.05.98-.1,1.46-.14v-2.48Zm-.65.18c.28.66.41,1.03.58,1.73l-.8.41c-.12-.64-.3-1.24-.53-1.78l.76-.36Zm1.67,7.21c.38-.41.71-.86,1.01-1.44-.28-.49-.46-.88-.71-1.55-.04-.1-.07-.18-.14-.32l.9-.7c.08.44.23.88.46,1.34.22-.68.31-1.1.46-2.03h-1.01q-.42,0-.7.01v.71c-.12.01-.16.02-.26.04v3.93Zm4.29-7.52c-.42.08-.53.11-1.01.19-.16-.5-.22-.64-.43-1.06q-.05.14-.32.95c-.1.28-.16.46-.61,1.63h.18c.1,0,.3-.02.4-.04l.59.7v-.76c.24.04.46.05.88.05h.34v-1.67Z" fill="#231815"/>
    </g>
    <g>
      <path d="m265.52,74.23c.56.1.98.12,1.86.12h1.6c.88,0,1.18-.02,1.88-.1-.12,1.22-.16,2.16-.16,3.32v9.94c0,1.02.04,1.68.16,2.48h-2.58c.12-.76.16-1.48.16-2.48v-11.24h-1c-.68,0-1.24.04-1.92.12v-2.16Z" fill="#231815"/>
      <path d="m284.36,82.41c-.9,0-1.64.04-2.22.12v-1.84c.54.08,1.24.12,2.24.12h13.62c.98,0,1.7-.04,2.24-.12v1.84c-.6-.08-1.32-.12-2.24-.12h-9.12c-.3.74-.46,1.1-.78,1.72h7.46c1.08,0,1.62-.02,2.12-.08-.02.2-.1.78-.16,1.32-.16,1.42-.5,3.16-.74,3.9-.3.96-.64,1.4-1.32,1.7-.52.24-1.04.3-2.24.3-1.06,0-1.72-.04-3.14-.14-.02-.58-.14-1.12-.44-1.82,1.3.18,2.76.3,3.58.3.94,0,1.32-.12,1.54-.46.34-.5.56-1.48.82-3.48h-8.3c-.28.52-.48.82-1,1.6l-1.98-.38c1.18-1.56,1.94-2.86,2.62-4.48h-2.56Zm.38-7.1c0-.66-.02-1.08-.08-1.6.74.08,1.36.1,2.26.1h8.5c1.12,0,1.72-.02,2.26-.1-.06.48-.08.98-.08,1.6v2.6c0,.66.02,1.1.08,1.6-.58-.06-1.08-.08-2.08-.08h-8.86c-.96,0-1.5.02-2.08.08.06-.56.08-.96.08-1.6v-2.6Zm1.78.08v2.5h9.26v-2.5h-9.26Z" fill="#231815"/>
      <path d="m309.22,90.91c-.32-.76-.48-1.14-.68-1.58-1.06.4-2.36.78-5.38,1.6-.22.04-.46.12-.64.2l-.46-1.84q.54-.04,1.34-.2v-8.92c0-.88-.02-1.2-.06-1.64-.24.18-.36.28-.72.54-.24-.76-.42-1.16-.82-1.72,1.16-.76,1.6-1.12,2.52-2.02.72-.72,1.22-1.38,1.58-2.08h1.68c.54,1,1.48,2,2.78,3v-.12c0-.52-.02-.84-.06-1.18.48.04.9.06,1.74.06h2.06v-.4c0-.54-.04-.96-.12-1.42h2c-.08.42-.1.78-.1,1.42v.4h2.24c.8,0,1.5-.04,2.06-.1-.04.4-.06.82-.06,1.38v1.34c0,.56.02.98.06,1.32h-1.46v2.9c0,.74.02,1.16.06,1.5-.46-.04-.92-.06-1.58-.06h-4.2v1.68h4.94c.72,0,1.2-.02,1.62-.08-.04.48-.06.94-.06,1.64v3.16c0,.88.02,1.36.08,1.86h-1.8v-1.04h-4.76v1.08h-1.82c.06-.48.1-1,.1-1.82v-9.86c0-.52,0-.64-.02-1h-.98c.04-.4.06-.76.06-1.2v-1.18c-.42.48-.62.78-.82,1.3-1.28-1.08-1.94-1.78-2.74-2.94-1,1.4-2,2.46-3.4,3.58.28.02.74.04,1.42.04h1.08v-.7c0-.44-.02-.72-.1-1.08h1.72c-.06.32-.08.62-.08,1.1v.68h.8c.78,0,1.22-.02,1.6-.08-.04.5-.06.98-.06,1.7v3.48c0,.76.02,1.26.04,1.68-.36-.04-.72-.06-1.3-.06h-3.44v3.52c1.28-.32,1.86-.5,2.76-.8-.4-.74-.5-.92-.98-1.64l1.38-.62c.8,1.14,1.36,2.14,2.48,4.36l-1.5.86Zm-1.06-9.78v-1.26h-3.08v1.26h3.08Zm-3.08,2.72h3.08v-1.36h-3.08v1.36Zm13.36-7.26h-6.38v1.58c.3.02.44.02.76.02h4.28c.62,0,.88,0,1.34-.04v-1.56Zm-5.42,5.22h4v-2.18h-4v2.18Zm0,7.16h4.76v-2.48h-4.76v2.48Z" fill="#231815"/>
    </g>
    <g>
      <path d="m271.49,442.12c-.52.48-.98,1.1-1.84,2.5-1.58,2.56-2.44,4.46-3.16,6.98-.4,1.44-.6,2.36-.86,4.3h-2.66c.7-3.7,1.24-5.44,2.42-7.88,1-2.06,1.86-3.46,3.54-5.76h-6.32c-1.1,0-1.66.04-2.46.14v-2.28c.86.1,1.46.14,2.56.14h6.22c1.38,0,1.86-.02,2.56-.1v1.96Z" fill="#231815"/>
      <path d="m280.93,448.32c-.9,0-1.64.04-2.22.12v-1.84c.54.08,1.24.12,2.24.12h13.62c.98,0,1.7-.04,2.24-.12v1.84c-.6-.08-1.32-.12-2.24-.12h-9.12c-.3.74-.46,1.1-.78,1.72h7.46c1.08,0,1.62-.02,2.12-.08-.02.2-.1.78-.16,1.32-.16,1.42-.5,3.16-.74,3.9-.3.96-.64,1.4-1.32,1.7-.52.24-1.04.3-2.24.3-1.06,0-1.72-.04-3.14-.14-.02-.58-.14-1.12-.44-1.82,1.3.18,2.76.3,3.58.3.94,0,1.32-.12,1.54-.46.34-.5.56-1.48.82-3.48h-8.3c-.28.52-.48.82-1,1.6l-1.98-.38c1.18-1.56,1.94-2.86,2.62-4.48h-2.56Zm.38-7.1c0-.66-.02-1.08-.08-1.6.74.08,1.36.1,2.26.1h8.5c1.12,0,1.72-.02,2.26-.1-.06.48-.08.98-.08,1.6v2.6c0,.66.02,1.1.08,1.6-.58-.06-1.08-.08-2.08-.08h-8.86c-.96,0-1.5.02-2.08.08.06-.56.08-.96.08-1.6v-2.6Zm1.78.08v2.5h9.26v-2.5h-9.26Z" fill="#231815"/>
      <path d="m305.79,456.82c-.32-.76-.48-1.14-.68-1.58-1.06.4-2.36.78-5.38,1.6-.22.04-.46.12-.64.2l-.46-1.84q.54-.04,1.34-.2v-8.92c0-.88-.02-1.2-.06-1.64-.24.18-.36.28-.72.54-.24-.76-.42-1.16-.82-1.72,1.16-.76,1.6-1.12,2.52-2.02.72-.72,1.22-1.38,1.58-2.08h1.68c.54,1,1.48,2,2.78,3v-.12c0-.52-.02-.84-.06-1.18.48.04.9.06,1.74.06h2.06v-.4c0-.54-.04-.96-.12-1.42h2c-.08.42-.1.78-.1,1.42v.4h2.24c.8,0,1.5-.04,2.06-.1-.04.4-.06.82-.06,1.38v1.34c0,.56.02.98.06,1.32h-1.46v2.9c0,.74.02,1.16.06,1.5-.46-.04-.92-.06-1.58-.06h-4.2v1.68h4.94c.72,0,1.2-.02,1.62-.08-.04.48-.06.94-.06,1.64v3.16c0,.88.02,1.36.08,1.86h-1.8v-1.04h-4.76v1.08h-1.82c.06-.48.1-1,.1-1.82v-9.86c0-.52,0-.64-.02-1h-.98c.04-.4.06-.76.06-1.2v-1.18c-.42.48-.62.78-.82,1.3-1.28-1.08-1.94-1.78-2.74-2.94-1,1.4-2,2.46-3.4,3.58.28.02.74.04,1.42.04h1.08v-.7c0-.44-.02-.72-.1-1.08h1.72c-.06.32-.08.62-.08,1.1v.68h.8c.78,0,1.22-.02,1.6-.08-.04.5-.06.98-.06,1.7v3.48c0,.76.02,1.26.04,1.68-.36-.04-.72-.06-1.3-.06h-3.44v3.52c1.28-.32,1.86-.5,2.76-.8-.4-.74-.5-.92-.98-1.64l1.38-.62c.8,1.14,1.36,2.14,2.48,4.36l-1.5.86Zm-1.06-9.78v-1.26h-3.08v1.26h3.08Zm-3.08,2.72h3.08v-1.36h-3.08v1.36Zm13.36-7.26h-6.38v1.58c.3.02.44.02.76.02h4.28c.62,0,.88,0,1.34-.04v-1.56Zm-5.42,5.22h4v-2.18h-4v2.18Zm0,7.16h4.76v-2.48h-4.76v2.48Z" fill="#231815"/>
    </g>
    <g>
      <path d="m662.05,42.63v-1.14h6.74v1.14h-6.74Zm6.3,7.18v5.88h-4.3v.94h-1.16v-6.82h5.46Zm-.08-5.52v1.1h-5.36v-1.1h5.36Zm-5.36,3.86v-1.1h5.36v1.1h-5.36Zm5.3-9.36v1.1h-5.18v-1.1h5.18Zm-1.04,12.16h-3.12v3.6h3.12v-3.6Zm13.58,1.32v1.14h-1.24v1.82c0,1.34-.58,1.42-3.44,1.42-.04-.34-.2-.8-.36-1.12.6.02,1.16.04,1.56.04.88,0,.98,0,.98-.36v-1.8h-6.72v3.24h-1.18v-3.24h-1.38v-1.14h1.38v-5.16h3.88v-1.24h-5.26v-1.1h3.02v-1.46h-2.06v-1.04h2.06v-1.36h-2.46v-1.06h2.46v-1.78l1.62.12c-.02.12-.12.22-.38.26v1.4h3.4v-1.78l1.62.12c-.02.12-.12.22-.38.26v1.4h2.54v1.06h-2.54v1.36h2.16v1.04h-2.16v1.46h2.84v1.1h-5.32v1.24h4.12v5.16h1.24Zm-6.52-4.14h-2.7v1.62h2.7v-1.62Zm-2.7,2.6v1.54h2.7v-1.54h-2.7Zm1.7-9.82v1.36h3.4v-1.36h-3.4Zm0,2.4v1.46h3.4v-1.46h-3.4Zm5.02,4.82h-2.86v1.62h2.86v-1.62Zm-2.86,4.14h2.86v-1.54h-2.86v1.54Z" fill="#231815"/>
      <path d="m692.02,54.85h8.38v1.22h-18v-1.22h8.26v-2.62h-6.34v-1.2h6.34v-1.94h-4.84v-4.84h11.28v4.84h-4.98v.02h.28c-.02.14-.12.22-.38.26v1.66h6.64v1.2h-6.64v2.62Zm-7.92-12.3v3.14h-1.24v-4.34h3.52c-.38-.74-1.08-1.78-1.7-2.56l1.18-.48c.72.82,1.5,1.92,1.84,2.66l-.84.38h3.78v-3.3l1.76.12c-.02.14-.14.24-.4.28v2.9h3.82c-.26-.12-.56-.28-.74-.34.62-.74,1.42-1.94,1.84-2.76l1.56.64c-.06.14-.2.18-.42.16-.44.68-1.16,1.62-1.78,2.3h3.78v4.34h-1.3v-3.14h-14.66Zm2.98,2.82v2.62h8.68v-2.62h-8.68Z" fill="#231815"/>
    </g>
    <g>
      <path d="m594.65,95.84v-15.66c-.8,1.06-2.1,2.42-3.36,3.36l-.66-1.08c1.76-1.36,3.5-3.34,4.64-5.12,1.14,1.78,2.88,3.76,4.64,5.12l-.66,1.08c-1.26-.94-2.56-2.3-3.36-3.36v15.66h-1.24Z" fill="#231815"/>
      <path d="m594.27,100.87h-8.36v2.2h7.28v11.26c0,.84-.22,1.24-.84,1.44-.64.2-1.8.22-3.44.2-.1-.36-.3-.86-.5-1.22.68.02,1.32.04,1.84.04,1.48,0,1.56,0,1.56-.46v-10h-12.96v11.6h-1.34v-12.86h7.02v-2.2h-8.22v-1.28h8.22v-2.24l1.8.12c-.02.14-.14.24-.42.28v1.84h8.36v1.28Zm-3.76,11.1h-4.64v3.82h-1.3v-3.82h-4.44v-1.16h4.44v-2.22h-4.1v-1.12h2.22c-.18-.66-.64-1.66-1.12-2.38l1.08-.3c.52.7,1,1.7,1.2,2.36l-1.02.32h4.52c-.26-.1-.62-.24-.8-.3.42-.68.94-1.76,1.22-2.48l1.46.44c-.06.12-.2.18-.4.18-.32.62-.82,1.52-1.26,2.16h2.72v1.12h-4.42v2.22h4.64v1.16Z" fill="#231815"/>
      <path d="m604.21,98.33v7.36h-5.84v10.24h-1.32v-17.6h7.16Zm-1.28,1.14h-4.56v1.92h4.56v-1.92Zm-4.56,5.08h4.56v-2.1h-4.56v2.1Zm15.24-6.22v15.68c0,1.82-.7,1.88-4.56,1.88-.06-.38-.3-1-.5-1.4.86.04,1.68.04,2.3.04,1.3,0,1.42,0,1.42-.52v-8.3h-6.08v-7.38h7.42Zm-1.34,1.14h-4.78v1.92h4.78v-1.92Zm-4.78,5.1h4.78v-2.12h-4.78v2.12Z" fill="#231815"/>
    </g>
    <g>
      <path d="m582.14,460.98c.68-1,1.9-1.84,3.5-1.84,2.54,0,4.24,1.9,4.24,4.78s-1.68,5.24-4.6,5.24-4.88-2.42-4.88-6.3,1.88-8.22,6.74-9.02c.56-.08,1.06-.14,1.4-.14l.02,1.38c-4.16,0-6.14,3.02-6.48,5.9h.06Zm6.06,3.06c0-2.3-1.24-3.64-3.04-3.64s-3.1,1.72-3.1,2.84c.02,2.74,1.18,4.62,3.26,4.62,1.74,0,2.88-1.56,2.88-3.82Z" fill="#231815"/>
      <path d="m614.82,461.66h-12.24c-.18.6-.42,1.26-.64,1.94h9.04l.32-.06.86.28c-.02.1-.06.24-.12.36-.54,3.68-1.06,5.26-1.82,5.92-.5.46-.96.56-2.32.56-.72,0-1.74-.04-2.8-.12-.02-.38-.2-.92-.46-1.26,1.46.12,2.94.14,3.48.14.5,0,.74-.02.98-.18.58-.44,1-1.7,1.42-4.38h-9.04c-.2.54-.38,1.04-.56,1.46-.76-.16-1.1-.22-1.44-.26.52-1.14,1.14-2.88,1.62-4.4h-4.64v-1.24h18.36v1.24Zm-2.82-8.6v5.78h-12.52v-5.78h12.52Zm-1.38,4.56v-3.34h-9.82v3.34h9.82Z" fill="#231815"/>
      <path d="m630.2,454.38h4.4v3.18h-1.24v-2.04h-7.48v2.04h-1.2v-1.74l-.88.78c-.6-.84-1.8-2.06-2.94-3.06-.7,1.22-1.66,2.6-2.84,3.88h2.3v-1.98l1.54.1c-.02.14-.12.22-.38.26v1.62h2.44v6.52h-4.86v3.8c.94-.2,1.96-.44,2.96-.68-.46-.66-.98-1.28-1.48-1.84l1.02-.56c1.32,1.38,2.7,3.26,3.24,4.54l-1.08.64c-.22-.52-.58-1.14-1-1.8-2.08.56-4.22,1.12-5.58,1.46-.02.16-.12.26-.24.3l-.6-1.46c.44-.08.96-.2,1.52-.32v-10.38c-.2.22-.4.42-.62.62-.24-.3-.66-.68-.96-.84,1.84-1.64,3.22-3.78,4-5.4l1.6.24c-.04.14-.16.24-.38.26,1.16.96,2.52,2.24,3.22,3.16v-1.3h4.22v-2.34l1.7.12c-.02.14-.14.24-.4.26v1.96Zm-7.52,4.1h-3.62v1.64h3.62v-1.64Zm-3.62,4.4h3.62v-1.72h-3.62v1.72Zm8.14-.38v1.74h6.7v6.24h-1.26v-.84h-5.44v.96h-1.24v-13.14h7.16v5.04h-5.92Zm4.66-3.9h-4.66v2.76h4.66v-2.76Zm.78,6.8h-5.44v3.06h5.44v-3.06Z" fill="#231815"/>
      <path d="m608.25,472.12v15.66c.8-1.06,2.1-2.42,3.36-3.36l.66,1.08c-1.76,1.36-3.5,3.34-4.64,5.12-1.14-1.78-2.88-3.76-4.64-5.12l.66-1.08c1.26.94,2.56,2.3,3.36,3.36v-15.66h1.24Z" fill="#231815"/>
    </g>
    <g>
      <path d="m40.12,227.44v1.51h-9.96v4.66c0,2.02-1.15,2.04-5.59,2.04-.12-.46-.43-1.13-.7-1.58,1.22.05,2.3.07,3.07.07,1.39,0,1.56,0,1.56-.53v-4.66h-9.84v-1.51h9.84v-2.09l1.13.07c1.22-.62,2.5-1.46,3.48-2.28h-10.44v-1.44h12.15l.29-.1,1.25.79c-.07.12-.22.19-.36.22-1.42,1.34-3.7,2.9-5.83,3.96v.86h9.96Zm-19.32-8.62v3.86h-1.54v-5.33h3.74c-.46-.94-1.34-2.21-2.14-3.14l1.34-.65c.96,1.06,1.99,2.47,2.42,3.43l-.7.36h5.09c-.36-1.08-1.15-2.57-1.9-3.67l1.39-.53c.86,1.2,1.73,2.81,2.04,3.84l-.84.36h4.2c.94-1.1,2.11-2.78,2.76-3.94,1.51.55,1.7.67,1.9.79-.07.14-.26.22-.5.19-.6.86-1.46,1.99-2.3,2.95h3.91v5.33h-1.58v-3.86h-17.31Z" fill="#231815"/>
      <path d="m30.16,257.2h10.08v1.58h-21.7v-1.58h9.96v-6.43h-7.32v-1.56h7.32v-5.54h-5.88c-.84,1.73-1.82,3.29-2.88,4.44-.31-.29-.94-.74-1.34-.98,1.97-2.09,3.67-5.74,4.66-9.41l2.09.58c-.07.17-.24.26-.55.26-.36,1.18-.77,2.38-1.25,3.53h5.16v-4.8l2.16.12c-.02.17-.17.29-.5.34v4.34h8.95v1.58h-8.95v5.54h8.06v1.56h-8.06v6.43Z" fill="#231815"/>
      <path d="m25.1,272.39c-1.1,2.81-2.69,5.33-4.54,7.13l-1.39-.91c1.73-1.66,3.38-3.96,4.34-6.79l1.58.58Zm5.11-3.74v11.42c0,2.69-2.11,2.66-5.69,2.62-.1-.43-.29-1.1-.53-1.58.55.02,3.24,0,3.5,0,.67,0,.98-.43.98-1.01v-11.45h-8.16v-1.61h8.16v-4.92l2.28.12c-.02.24-.19.43-.55.46v4.34h8.11v1.61h-8.11Zm4.3,3.02c1.75,1.94,3.77,4.75,5.06,6.98l-1.54.89c-1.18-2.21-3.29-5.28-4.9-7.1l1.37-.77Z" fill="#231815"/>
      <path d="m28.36,286.23l2.47.19c-.02.26-.24.43-.65.5v19.63h-1.82v-20.33Z" fill="#231815"/>
      <path d="m24.69,313.71c-.02.22-.24.36-.55.41-.14,6.46-.67,12.34-4.37,16.63-.38-.29-.96-.65-1.44-.91,3.58-3.89,4.01-9.89,4.08-16.35l2.28.22Zm6.22,13.83c4.01-1.94,6.6-5.45,7.99-9.65.36.31,1.08.72,1.49.94-1.7,4.85-4.68,8.42-9.79,10.85-.07.19-.24.38-.41.48l-1.25-1.58.26-.36v-17.62l2.23.12c-.02.22-.19.41-.53.46v16.37Z" fill="#231815"/>
    </g>
    <path d="m7.44,198.54l9.22,5.36v-4.02h34.59v-2.68s-34.59,0-34.59,0v-4.02s-9.22,5.36-9.22,5.36Z" fill="#040000"/>
    <polyline points="714.99 187.93 681.37 187.93 681.37 352.13 714.99 352.13" fill="#929292" stroke="#283331" stroke-miterlimit="10"/>
    <g>
      <path d="m693.92,223.36c-.05.17-.22.29-.5.31-.65,3.48-1.97,6.05-7.39,7.37-.17-.41-.58-1.03-.89-1.34,4.94-1.08,6.22-3.24,6.67-6.55l2.11.22Zm2.83,9.86v5.02h9.96v1.51h-21.43v-1.51h9.82v-5.02h-7.22v-1.49h16.39v1.49h-7.51Zm-9.31-10.63v3.29h-1.61v-4.78h9.26v-2.93l2.14.14c-.02.17-.17.29-.48.34v2.45h9.36v4.78h-1.66v-3.29h-17.02Zm10.44.36l2.06.12c-.02.17-.14.29-.48.34v4.39c0,.58.17.7,1.22.7h3.62c.77,0,.91-.22.98-1.63.34.24.98.46,1.44.55-.19,1.99-.67,2.5-2.23,2.5h-3.96c-2.14,0-2.66-.43-2.66-2.09v-4.87Z" fill="#231815"/>
      <path d="m697.37,246.57c-.1.22-.29.38-.6.38-.86,7.46-3.36,13.97-7.34,13.97-2.02,0-3.84-2.02-3.84-5.81,0-5.76,4.49-10.58,10.8-10.58,6.94,0,9.94,4.39,9.94,9.07,0,5.71-3.31,8.47-9.12,9.82-.22-.38-.62-1.03-1.01-1.46,5.52-1.06,8.35-3.74,8.35-8.28,0-3.96-2.54-7.56-8.16-7.56-.24,0-.5.02-.72.05l1.7.41Zm-2.3-.31c-4.85.6-7.85,4.61-7.85,8.81,0,2.57,1.1,4.18,2.26,4.18,2.9,0,4.99-6.41,5.59-12.98Z" fill="#231815"/>
      <path d="m687.82,267.85h16.27v20.64h-1.68v-1.7h-12.99v1.7h-1.61v-20.64Zm14.59,1.56h-12.99v4.2h12.99v-4.2Zm0,5.74h-12.99v4.25h12.99v-4.25Zm-12.99,10.06h12.99v-4.25h-12.99v4.25Z" fill="#231815"/>
      <path d="m694.71,291.37v8.83h-7.01v12.29h-1.58v-21.12h8.59Zm-1.54,1.37h-5.47v2.3h5.47v-2.3Zm-5.47,6.1h5.47v-2.52h-5.47v2.52Zm18.29-7.46v18.82c0,2.18-.84,2.26-5.47,2.26-.07-.46-.36-1.2-.6-1.68,1.03.05,2.02.05,2.76.05,1.56,0,1.7,0,1.7-.62v-9.96h-7.3v-8.86h8.9Zm-1.61,1.37h-5.74v2.3h5.74v-2.3Zm-5.74,6.12h5.74v-2.54h-5.74v2.54Z" fill="#231815"/>
    </g>
    <g>
      <path d="m395.36,212.65c.73,1.3,1.09,2.15,1.62,3.83l-1.56.55c-.33-1.37-.91-2.83-1.52-3.87l1.46-.5Zm7.56.36c-.11.25-.14.36-.32,1.18-.47,2.16-1.42,4.13-2.66,5.53-.95,1.08-1.98,1.86-3.45,2.61-.4-.64-.58-.84-1.1-1.3,1.4-.6,2.41-1.3,3.33-2.29.86-.94,1.46-1.97,1.95-3.41.35-1.04.56-1.98.6-2.71l1.66.38Z" fill="#231815"/>
      <path d="m415.08,213.52c-.11.2-.14.29-.2.54-.6,2.29-1.31,3.73-2.46,5.03-1.18,1.32-2.46,2.19-4.46,3.06-.34-.65-.49-.88-1.06-1.43,1.06-.34,1.74-.65,2.63-1.22,1.87-1.21,3.05-2.9,3.63-5.23h-5.71c-.8,0-1.08.01-1.51.07v-1.56c.47.07.72.08,1.54.08h5.5c.67,0,.91-.02,1.28-.12l.82.78Z" fill="#231815"/>
      <path d="m419.63,222.15c.06-.38.07-.71.07-1.34v-7.69c0-.59-.02-.9-.07-1.22h1.64c-.05.36-.05.52-.05,1.26v2.23c1.64.58,3.53,1.45,5.45,2.53l-.84,1.42c-1-.68-2.24-1.37-4.25-2.29-.28-.13-.31-.14-.41-.2.04.34.05.48.05.82v3.17c0,.62.01.94.05,1.33h-1.64Z" fill="#231815"/>
      <path d="m435.41,216.71c-.06,1.38-.32,2.38-.84,3.23-.63,1.06-1.51,1.71-3.13,2.36-.3-.61-.46-.82-.97-1.32,1.44-.44,2.34-1.08,2.84-2,.31-.55.49-1.33.53-2.27h-2.93c-.82,0-1.09.01-1.52.06v-1.43c.46.07.72.08,1.55.08h7.02c.82,0,1.09-.01,1.55-.08v1.43c-.43-.05-.71-.06-1.52-.06h-2.57Zm-4.81-4.39c.44.07.68.08,1.55.08h4.61c.86,0,1.1-.01,1.55-.08v1.46c-.4-.05-.68-.06-1.52-.06h-4.65c-.84,0-1.13.01-1.52.06v-1.46Z" fill="#231815"/>
      <path d="m441.46,219.16c.46.07.72.08,1.54.08h6.88c.82,0,1.08-.01,1.54-.08v1.61c-.42-.05-.73-.06-1.51-.06h-6.93c-.78,0-1.09.01-1.51.06v-1.61Zm1.21-5.84c.43.07.71.08,1.42.08h4.71c.71,0,.98-.01,1.42-.08v1.58c-.4-.05-.68-.06-1.4-.06h-4.74c-.72,0-1.01.01-1.4.06v-1.58Z" fill="#231815"/>
      <path d="m462.49,222c-1-1.22-2.37-2.57-3.68-3.56-1.36,1.51-2.73,2.57-4.57,3.47-.34-.62-.48-.82-.97-1.33.92-.36,1.5-.68,2.4-1.32,1.81-1.27,3.25-3.01,4.03-4.88l.13-.31q-.19.01-3.97.07c-.58.01-.9.04-1.31.1l-.05-1.54c.34.06.56.07,1.06.07h.29l4.22-.06c.67-.01.77-.02,1.07-.13l.79.82c-.16.18-.25.35-.38.65-.55,1.28-1.14,2.33-1.87,3.31.76.5,1.4,1.01,2.22,1.74q.3.26,1.75,1.67l-1.15,1.25Z" fill="#231815"/>
    </g>
    <g>
      <path d="m299.36,206.77c-.11.2-.14.29-.2.54-.6,2.29-1.31,3.73-2.46,5.03-1.18,1.32-2.46,2.19-4.46,3.06-.34-.65-.49-.88-1.06-1.43,1.06-.34,1.74-.65,2.63-1.22,1.87-1.21,3.05-2.9,3.63-5.23h-5.71c-.8,0-1.08.01-1.51.07v-1.56c.47.07.72.08,1.54.08h5.5c.67,0,.91-.02,1.28-.12l.82.78Z" fill="#231815"/>
      <path d="m311.45,209.06c-.12.22-.19.38-.34.76-.62,1.76-1.54,3.09-2.78,4.05-.85.66-1.63,1.07-3.14,1.63-.26-.6-.41-.8-.94-1.39,1.46-.37,2.41-.82,3.33-1.58.89-.74,1.4-1.48,1.93-2.81h-5.84c-.8,0-1.1.01-1.54.06v-1.46c.46.07.72.08,1.56.08h5.71c.74,0,.98-.02,1.36-.11l.68.77Zm-8.29-3.63c.4.07.65.08,1.4.08h4.19c.76,0,1.01-.01,1.4-.08v1.48c-.37-.05-.6-.06-1.38-.06h-4.23c-.78,0-1.01.01-1.38.06v-1.48Z" fill="#231815"/>
      <path d="m323.28,206.07c-.2.18-.26.23-.44.42-.9.94-1.8,1.71-2.83,2.47v5.12c0,.66.01,1.01.06,1.33h-1.68c.06-.35.07-.59.07-1.29v-4.22c-1.4.84-2.08,1.15-4.28,1.94-.25-.62-.38-.83-.8-1.37,2.38-.65,4.39-1.64,6.3-3.12,1.07-.83,1.88-1.65,2.23-2.24l1.38.96Z" fill="#231815"/>
      <path d="m326.18,213.41c1.03-.06,2.46-.41,3.55-.89,1.5-.65,2.61-1.57,3.56-2.94.53-.77.86-1.43,1.22-2.4.47.56.66.74,1.27,1.18-1.02,2.19-2.16,3.61-3.8,4.7-1.22.82-2.71,1.4-4.57,1.8-.48.1-.52.11-.79.2l-.44-1.66Zm1.02-7.45c1.43.89,2.17,1.44,3.09,2.31l-1.03,1.31c-.96-1.02-1.94-1.81-3.06-2.43l1-1.19Z" fill="#231815"/>
      <path d="m346.97,207.4c-.11.16-.17.3-.3.72-.71,2.14-1.28,3.2-2.41,4.53-1.07,1.22-2.54,2.28-4.27,3.03-.31-.56-.53-.83-1.02-1.26,3.14-1.2,5.17-3.35,6.13-6.46l-3.61.05c-.67,1.1-1.81,2.35-2.81,3.08-.36-.49-.54-.65-1.16-1.03,1.3-.86,2.25-1.94,3.11-3.48.36-.65.58-1.21.61-1.59l1.64.34c-.08.11-.1.13-.2.36-.1.22-.2.46-.32.7-.06.11-.06.12-.08.17l-.1.18c.14-.01.34-.02.58-.02l2.63-.04c.32,0,.53-.01.62-.02-.28-.6-.49-.98-.88-1.5l.89-.3c.47.62.74,1.1,1.07,1.9l-.52.19.41.47Zm.78-.86c-.29-.71-.64-1.32-1.03-1.86l.86-.3c.49.64.77,1.12,1.06,1.82l-.89.34Z" fill="#231815"/>
      <path d="m301.59,231.01c-.13,2.96-1.26,4.55-3.97,5.59-.29-.6-.49-.86-.98-1.33,2.35-.74,3.29-1.93,3.37-4.26h-2.91c-.94,0-1.12.01-1.52.06v-1.43c.42.07.66.08,1.55.08h7.02c.89,0,1.13-.01,1.55-.08v1.43c-.41-.05-.59-.06-1.52-.06h-2.57Zm1.81-2.94c-.37-.05-.54-.06-1.52-.06h-3.57c-.98,0-1.14.01-1.52.06v-1.46c.41.07.65.08,1.55.08h3.53c.91,0,1.15-.01,1.55-.08v1.46Zm.7-2.24c.46.62.73,1.1,1.07,1.9l-.9.34c-.34-.8-.61-1.29-1.05-1.92l.89-.31Zm1.72,1.7c-.28-.68-.62-1.3-1.03-1.86l.86-.31c.48.64.77,1.12,1.05,1.82l-.89.35Z" fill="#231815"/>
      <path d="m316.5,228.98q-.17.13-.41.4c-.6.65-1.47,1.43-2.23,1.97v4.08c0,.55.01.85.06,1.15h-1.55c.05-.36.06-.59.06-1.15v-3.21c-1.08.64-1.94,1.02-3.39,1.52-.25-.55-.36-.76-.74-1.25,1.13-.3,1.86-.58,2.84-1.08,1.34-.7,2.4-1.45,3.41-2.43.4-.4.54-.56.73-.86l1.22.88Z" fill="#231815"/>
      <path d="m328.78,236.25c-1-1.22-2.37-2.57-3.68-3.56-1.36,1.51-2.73,2.57-4.57,3.47-.34-.62-.48-.82-.97-1.33.92-.36,1.5-.68,2.4-1.32,1.81-1.27,3.25-3.01,4.03-4.88l.13-.31q-.19.01-3.97.07c-.58.01-.9.04-1.31.1l-.05-1.54c.34.06.56.07,1.06.07h.29l4.22-.06c.67-.01.77-.02,1.07-.13l.79.82c-.16.18-.25.35-.38.65-.55,1.28-1.14,2.33-1.87,3.31.76.5,1.4,1.01,2.22,1.74q.3.26,1.75,1.67l-1.15,1.25Z" fill="#231815"/>
      <path d="m341.23,228.18c-.12.18-.17.29-.3.72-.55,1.82-1.4,3.44-2.46,4.63-1.1,1.26-2.42,2.19-4.27,3.05-.34-.6-.49-.8-1.02-1.26,1.2-.49,1.87-.85,2.63-1.42,1.71-1.27,2.84-2.91,3.5-5.06l-3.61.06c-.73,1.16-1.67,2.19-2.81,3.07-.36-.49-.54-.65-1.16-1.03,1.37-.94,2.23-1.9,3.11-3.48.37-.68.56-1.15.61-1.58l1.64.32q-.07.11-.2.37-.04.06-.16.34-.04.07-.16.31t-.19.38c.16-.01.35-.02.58-.02l2.63-.04c.47,0,.6-.02.88-.12l.77.76Z" fill="#231815"/>
    </g>
    <g>
      <path d="m200.23,214.33c-.12.22-.19.38-.34.76-.62,1.76-1.54,3.09-2.78,4.05-.85.66-1.63,1.07-3.14,1.63-.26-.6-.41-.8-.94-1.39,1.46-.37,2.41-.82,3.33-1.58.89-.74,1.4-1.48,1.93-2.81h-5.84c-.8,0-1.1.01-1.54.06v-1.46c.46.07.72.08,1.56.08h5.71c.74,0,.98-.02,1.36-.11l.68.77Zm-8.29-3.63c.4.07.65.08,1.4.08h4.19c.76,0,1.01-.01,1.4-.08v1.48c-.37-.05-.6-.06-1.38-.06h-4.23c-.78,0-1.01.01-1.38.06v-1.48Z" fill="#231815"/>
      <path d="m211.75,212.67c-.11.16-.17.3-.3.72-.71,2.14-1.28,3.2-2.41,4.53-1.07,1.22-2.54,2.28-4.27,3.03-.31-.56-.53-.83-1.02-1.26,3.14-1.2,5.17-3.35,6.13-6.46l-3.61.05c-.67,1.1-1.81,2.35-2.81,3.08-.36-.49-.54-.65-1.16-1.03,1.3-.86,2.25-1.94,3.11-3.48.36-.65.58-1.21.61-1.59l1.64.34c-.08.11-.1.13-.2.36-.1.22-.2.46-.32.7-.06.11-.06.12-.08.17l-.1.18c.14-.01.34-.02.58-.02l2.63-.04c.32,0,.53-.01.62-.02-.28-.6-.49-.98-.88-1.5l.89-.3c.47.62.74,1.1,1.07,1.9l-.52.19.41.47Zm.78-.86c-.29-.71-.64-1.32-1.03-1.86l.86-.3c.49.64.77,1.12,1.06,1.82l-.89.34Z" fill="#231815"/>
      <path d="m217.11,214.38c1.81-.34,4.46-1.4,5.24-2.14l.96,1.36c-.08.04-.44.2-1.08.52-1.63.78-3.31,1.32-5.12,1.66v1.58c-.01.06-.01.12-.01.16,0,.7.05.97.22,1.14.2.22.89.31,2.05.31.8,0,1.91-.07,2.78-.19.58-.07.84-.13,1.37-.29l.07,1.6c-.25,0-.31.01-1.58.13-.71.07-2.22.14-2.95.14-1.51,0-2.34-.16-2.81-.52-.34-.25-.52-.64-.59-1.22-.02-.2-.04-.41-.04-1.1v-5.56c-.01-.61-.01-.8-.06-1.1h1.61c-.05.29-.06.5-.06,1.12v2.42Zm5.7-4.1c.48.54.8,1.03,1.2,1.82l-.86.4c-.37-.77-.68-1.25-1.19-1.83l.85-.38Zm1.8,1.52c-.32-.66-.7-1.24-1.15-1.79l.83-.38c.53.6.85,1.07,1.18,1.74l-.85.43Z" fill="#231815"/>
      <path d="m226.38,214.69c.53.07.76.08,1.94.08h6.39c1.19,0,1.42-.01,1.94-.08v1.67c-.48-.06-.61-.06-1.96-.06h-6.37c-1.34,0-1.48,0-1.96.06v-1.67Z" fill="#231815"/>
    </g>
    <g>
      <path d="m93.02,220.64c-.84,0-1.12,0-1.55.05v-1.49c.46.07.72.08,1.57.08h5.49v-2.39h-4.99c-.8,0-1.1.01-1.54.06v-1.48c.47.07.73.08,1.56.08h4.97v-2.21h-5.37c-.8,0-1.13.01-1.55.06v-1.5c.46.07.72.08,1.57.08h5.82c.61,0,.73,0,1.07-.04-.02.26-.02.53-.02,1.02v7.16c0,.59.01.88.05,1.19h-1.55v-.7h-5.53Z" fill="#231815"/>
      <path d="m105.11,214.1c.5.92.74,1.5,1.17,2.84l-1.35.43c-.31-1.21-.55-1.85-1.09-2.9l1.27-.37Zm6.88.08c-.07.18-.1.24-.17.61-.35,1.63-.89,2.95-1.66,3.99-.89,1.21-1.88,1.99-3.66,2.89-.31-.53-.46-.71-.96-1.19.84-.32,1.33-.59,2.04-1.1,1.4-1.02,2.21-2.24,2.72-4.16.16-.59.22-1.01.22-1.38l1.46.34Zm-4.33-.58c.64,1.19.86,1.71,1.16,2.76l-1.33.42c-.23-.91-.59-1.84-1.09-2.82l1.26-.36Z" fill="#231815"/>
      <path d="m117.1,221.53c.06-.38.07-.71.07-1.34v-7.69c0-.59-.02-.9-.07-1.22h1.64c-.05.36-.05.52-.05,1.26v2.23c1.64.58,3.53,1.45,5.45,2.53l-.84,1.42c-1-.68-2.24-1.37-4.25-2.29-.28-.13-.31-.14-.41-.2.04.34.05.48.05.82v3.17c0,.62.01.94.05,1.33h-1.64Z" fill="#231815"/>
    </g>
    <g>
      <path d="m519.29,328.81c-.01,5.22-.23,6.74-1.24,8.61-.38-.48-.62-.71-1.08-1.03.44-.78.62-1.26.78-2.09.17-.9.25-2.65.25-5.07,0-.86-.01-1.27-.05-1.68.4.05.73.06,1.25.06h3.06v-.53c0-.26-.01-.46-.06-.68h1.45c-.05.19-.06.37-.06.7v.52h3.11c.66,0,1.07-.02,1.42-.07v1.33c-.42-.05-.79-.06-1.4-.06h-3.97c1.61.9,1.85,1.06,3,1.99l-.92,1.02c-.9-.9-1.58-1.39-3.05-2.2l.92-.82h-3.41Zm-.1,7.04c.37-.82.49-1.17.65-1.97.14-.74.2-1.25.26-2.31l1.25.32c-.19,2.22-.37,3.13-.95,4.74l-1.21-.78Zm4.11-4.99c-.04.28-.06.62-.06,1.13v3.77c0,.32.1.37.82.37.95,0,.96-.05.96-2.21.48.22.86.35,1.27.42-.1,1.64-.2,2.24-.47,2.58-.26.34-.76.47-1.78.47-1.67,0-2.09-.18-2.09-.9v-4.51c0-.54-.01-.83-.07-1.12h1.42Zm3.72,5.55c-.34-1.85-.64-2.81-1.38-4.34l1.14-.56c.79,1.75,1.12,2.66,1.52,4.29l-1.28.61Z" fill="#231815"/>
      <path d="m534.15,330.86c-.4,0-.74.01-1.07.05v-1.13c.25.04.52.05.91.05h.06c-.16-.47-.33-.83-.63-1.25l1.02-.34c.29.46.47.83.6,1.28l-.7.3h1.74c-.13-.52-.31-.94-.6-1.44l1.04-.32c.28.49.42.83.6,1.44l-.88.32h1.37c.5-.82.71-1.26.92-2l1.21.31c-.43.88-.65,1.24-.95,1.69h.28c.44,0,.67-.01.94-.06v1.14c-.35-.04-.68-.05-1.15-.05h-3.07c-.04.29-.05.4-.08.65h3.09c.67,0,1.04-.01,1.38-.07v1.22c-.34-.05-.86-.07-1.38-.07h-3.3c-.06.23-.08.31-.16.54h2.43c.54,0,.8-.01,1.02-.05l.64.78q-.12.13-.42.54c-.3.42-.71.86-1.18,1.27.76.32,1.45.49,2.55.62-.23.44-.36.76-.54,1.29-1.46-.37-2.15-.62-3.04-1.17-.86.54-1.71.89-2.83,1.16-.14-.35-.32-.66-.58-1.01-.31.35-.48.52-.94.89-.25-.43-.37-.59-.65-.88-.08.71-.42.9-1.58.9-.14,0-.32-.01-.72-.04-.04-.48-.11-.78-.28-1.22.44.06.74.08,1.03.08.24,0,.3-.06.3-.32v-2.75c-.34.12-.37.13-.66.22q-.25.07-.58.19l-.25-1.33c.36-.02.74-.11,1.49-.35v-2.09h-.53c-.29,0-.49.01-.82.05v-1.27c.28.05.49.06.83.06h.52v-.98c0-.6-.01-.89-.07-1.24h1.39c-.05.34-.06.62-.06,1.22v1h.31c.24,0,.4-.01.62-.04v1.24c-.23-.02-.38-.04-.62-.04h-.31v1.69c.26-.1.41-.16.79-.31v1.17c-.37.16-.43.19-.79.34v3.53c1.14-.86,1.96-2.12,2.41-3.71h-.2c-.49,0-.82.01-1.13.06v-1.2c.32.05.67.06,1.15.06h.4c.04-.32.05-.41.07-.65h-.4Zm5.76-3.42q-.11.01-.32.06c-1.83.35-4.27.6-6.55.67-.08-.41-.16-.61-.38-1.03h.4c2.27,0,5.11-.35,6-.73l.86,1.03Zm-6.32,8.95c.79-.14,1.54-.38,2.2-.72-.48-.4-.8-.71-1.06-1.01-.35.67-.67,1.16-1.14,1.73Zm2.11-2.19c.31.3.62.56,1.04.86.4-.31.61-.52.89-.86h-1.93Z" fill="#231815"/>
      <path d="m541.55,337.5c.05-.37.07-.79.07-1.56v-7.62c0-.56-.02-1-.07-1.44.43.05.79.06,1.42.06h7.48c.61,0,.98-.01,1.4-.06-.05.48-.06.83-.06,1.44v7.63c0,.72.02,1.2.07,1.55h-1.36v-.66h-7.59v.66h-1.37Zm1.37-1.82h7.58v-7.57h-7.58v7.57Zm4.63-6.44c0-.43-.01-.62-.06-.88h1.37c-.05.24-.06.43-.06.88v.46h.34c.37,0,.77-.02.97-.06v1.24c-.23-.04-.62-.06-1-.06h-.31v3.37c0,.96-.32,1.2-1.64,1.2-.32,0-.41,0-1.13-.05-.07-.58-.11-.74-.31-1.2.66.08,1.12.12,1.45.12.29,0,.38-.07.38-.31v-3.13h-3c-.49,0-.82.01-1.12.06v-1.24c.3.05.56.06,1.12.06h3v-.46Zm-2.02,4.67c-.49-1.06-.8-1.54-1.43-2.27l1.01-.67c.7.85.96,1.24,1.51,2.23l-1.09.71Z" fill="#231815"/>
    </g>
    <g>
      <path d="m418.87,329.97c-.1.25-.1.26-.25.8-.42,1.46-.77,2.23-1.52,3.41-.56.85-1.08,1.45-1.81,2.06-.4-.46-.62-.67-1.14-1.01.7-.5,1.21-1.01,1.74-1.7.71-.95,1.12-1.78,1.43-2.94h-1.51c-.47,0-.91.02-1.2.07v-1.46c.32.05.64.06,1.28.06h1.26c.55,0,.83-.01,1.05-.05l.67.76Zm5.94-.77s-.23.25-.64.71c-.68.75-1.32,1.35-2.15,2.03.4.56.86,1.1,1.37,1.58.67.64,1.21,1.03,2.09,1.49-.41.41-.64.68-1.03,1.3-1-.71-1.44-1.1-2.05-1.79-.8-.92-1.42-1.94-1.9-3.14.05,1.2.06,1.48.06,1.87v2.87c.01.54-.07.78-.3.97-.22.19-.58.28-1.15.28-.44,0-1.09-.04-1.56-.07-.06-.56-.12-.84-.34-1.38.64.1,1.16.14,1.56.14.36,0,.43-.05.43-.3v-7.93c0-.49-.02-.9-.08-1.26h1.52c-.06.38-.08.76-.08,1.27v.84c.14.77.31,1.22.79,2.17,1.15-1.01,1.88-1.86,2.23-2.6l1.22.96Z" fill="#231815"/>
      <path d="m426.96,329.55c.83.48,1.33.83,2.14,1.48l-.76,1.09c-.84-.75-1.26-1.08-2.12-1.61l.74-.96Zm2.1,4.03c-.38,1.21-.82,2.27-1.36,3.36-.11.22-.16.31-.23.48l-1.14-.97c.2-.24.35-.48.56-.88.44-.85.7-1.49,1.06-2.77l1.1.78Zm-1.52-7.04c.83.5,1.31.88,2.06,1.54l-.83,1.04c-.71-.71-1.21-1.12-2.05-1.66l.82-.92Zm4.92,5.29c-.06.12-.1.2-.22.49-.38.97-.84,1.82-1.34,2.5-.43.59-1.03,1.2-1.6,1.63-.26-.47-.54-.83-.83-1.09.62-.41,1.07-.78,1.47-1.27.43-.53.64-.86,1.02-1.78h-.97c-.35,0-.61.01-.85.06v-1.26c.2.04.41.05.79.05h1.04c.44,0,.6-.01.8-.05l.67.72Zm4.79-1.75q-.14.16-.71.8c-.53.61-1,1.08-1.57,1.57.7,1.13,1.4,1.85,2.6,2.67-.53.6-.6.71-.89,1.19-.77-.65-1.25-1.13-1.7-1.75-.54-.73-.79-1.2-1.29-2.45.04.64.08,1.56.08,1.92v2.3c0,.5-.16.78-.52.94-.18.07-.56.12-1.12.12-.28,0-.59-.01-1.1-.05-.06-.55-.13-.88-.29-1.29.64.11.98.14,1.36.14s.43-.04.43-.29v-5.77s-1.28,0-1.28,0c-.46,0-.8.01-1.12.06v-1.31c.34.04.72.06,1.15.06h1.61c.5,0,.67-.01.94-.05-.01.07-.01.13-.01.14,0,.6.22,1.48.58,2.3.8-.72,1.22-1.24,1.74-2.16l1.12.89Zm-5.84-3.56c1.49.24,2.4.48,3.67.97l-.58,1.17c-1.24-.55-2.17-.82-3.72-1.03l.62-1.12Z" fill="#231815"/>
    </g>
    <g>
      <path d="m284.35,330.62c-.04.23-.04.24-.05.97-.05,2.05-.37,3.2-1.19,4.25-.72.92-1.59,1.54-3.09,2.16-.31-.65-.47-.86-.95-1.37.97-.29,1.51-.55,2.1-1.02,1.22-.97,1.61-2,1.61-4.27,0-.36-.01-.47-.06-.72h1.63Zm4.87-1.51c-.17.2-.17.22-.48.84-.42.89-1.12,1.79-1.85,2.41-.48.42-.88.68-1.44,1-.36-.5-.54-.68-1.08-1.09.8-.36,1.26-.64,1.75-1.1.49-.46.86-.95,1.14-1.52h-6.3c-.84,0-1.14.01-1.63.07v-1.5c.46.07.83.1,1.66.1h6.26c.72,0,.83-.01,1.16-.11l.8.91Z" fill="#231815"/>
      <path d="m300.53,328.6c-.2.18-.26.23-.44.42-.9.94-1.8,1.71-2.83,2.47v5.12c0,.66.01,1.01.06,1.33h-1.68c.06-.35.07-.59.07-1.29v-4.22c-1.4.84-2.08,1.15-4.28,1.94-.25-.62-.38-.83-.8-1.37,2.38-.65,4.39-1.64,6.3-3.12,1.07-.83,1.88-1.66,2.23-2.24l1.38.96Z" fill="#231815"/>
      <path d="m312.03,337.77c-1-1.22-2.37-2.57-3.68-3.56-1.36,1.51-2.73,2.57-4.57,3.47-.34-.62-.48-.82-.97-1.33.92-.36,1.5-.68,2.4-1.32,1.81-1.27,3.25-3.01,4.03-4.88l.13-.31q-.19.01-3.97.07c-.58.01-.9.04-1.31.1l-.05-1.54c.34.06.56.07,1.06.07h.29l4.22-.06c.67-.01.77-.02,1.07-.13l.79.82c-.16.18-.25.35-.38.65-.55,1.28-1.14,2.33-1.87,3.31.76.5,1.4,1.01,2.22,1.74q.3.26,1.75,1.67l-1.15,1.25Z" fill="#231815"/>
      <path d="m318,332.1c-.04.14-.05.16-.1.37-.42,1.85-1.07,3.35-2.02,4.65-.59-.42-.79-.53-1.39-.77.79-.95,1.22-1.78,1.68-3.15.22-.64.3-1.01.35-1.48l1.48.37Zm1.21-3.24c0-.6-.01-.9-.07-1.24h1.62c-.04.35-.05.52-.05,1.27v.64h2.75c.83,0,1.09-.01,1.55-.08v1.47c-.42-.05-.73-.06-1.52-.06h-2.77v5.82c0,.61.01.96.06,1.34h-1.63c.06-.38.07-.73.07-1.36v-5.8h-2.66c-.78,0-1.09.01-1.51.06v-1.47c.46.07.72.08,1.54.08h2.64v-.67Zm4.11,2.87c.08.41.18.72.42,1.34.54,1.45.98,2.29,1.7,3.23-.62.32-.83.44-1.38.84-.91-1.45-1.4-2.58-1.97-4.49-.1-.34-.11-.37-.19-.56l1.42-.36Z" fill="#231815"/>
      <path d="m329.18,330.48c.5.92.74,1.5,1.17,2.84l-1.35.43c-.31-1.21-.55-1.85-1.09-2.9l1.27-.37Zm6.88.08c-.07.18-.1.24-.17.61-.35,1.63-.89,2.95-1.66,3.99-.89,1.21-1.88,1.99-3.66,2.89-.31-.53-.46-.71-.96-1.19.84-.32,1.33-.59,2.04-1.1,1.4-1.02,2.21-2.24,2.72-4.16.16-.59.22-1.01.22-1.38l1.46.34Zm-4.33-.58c.64,1.19.86,1.71,1.16,2.76l-1.33.42c-.23-.91-.59-1.83-1.09-2.82l1.26-.36Z" fill="#231815"/>
      <path d="m346.14,331.06q-.01.12-.02.31c-.16,2.04-.6,3.31-1.55,4.44-.77.9-1.63,1.51-3.12,2.19-.3-.61-.48-.85-1-1.32,1.03-.36,1.73-.75,2.43-1.38,1.09-.97,1.59-2.21,1.71-4.25h-2.88c-.7,1.12-1.13,1.64-1.99,2.43-.46-.49-.65-.64-1.22-.95,1.1-.9,1.9-1.93,2.53-3.3.36-.74.5-1.19.6-1.71l1.56.37q-.1.19-.46,1.03c-.1.22-.22.48-.36.78q.35-.01,5.24-.01c.86,0,1.01-.01,1.51-.07v1.48q-.31-.04-.73-.04c-.16,0-.42,0-.79-.01h-1.48Z" fill="#231815"/>
      <path d="m350.84,331.94c.53.07.76.08,1.94.08h6.39c1.19,0,1.42-.01,1.94-.08v1.67c-.48-.06-.61-.06-1.96-.06h-6.37c-1.34,0-1.48,0-1.96.06v-1.67Z" fill="#231815"/>
    </g>
    <g>
      <path d="m190.51,332.27c.49,0,.8-.01,1.14-.05v1.16c-.3-.04-.64-.05-1.21-.05h-3.56v.74h3.45c.65,0,.96-.01,1.36-.06v1.33c-.43-.05-.82-.07-1.47-.07h-3.33v.67c0,.6.02.97.07,1.4h-1.52c.05-.48.07-.82.07-1.39v-.68h-3.18c-.66,0-1.06.02-1.48.07v-1.34c.36.05.71.07,1.29.07h3.36v-.74c-.4,0-.68.01-.98.04.02-.37.04-.59.04-1.14v-1.58c0-.36.01-.74.02-1.01-.25.35-.38.49-.72.79-.18-.31-.24-.42-.46-.68l-.71.96c-.67-.54-1.19-.88-1.98-1.26l.85-.97c.66.32,1.01.53,1.54.88,1.2-.95,1.97-1.98,2.46-3.29l1.33.35c-.05.08-.1.17-.12.2q-.2.35-.52.83h1.52c.35-.53.52-.85.67-1.33l1.24.32c-.06.1-.11.18-.13.23-.23.38-.26.43-.5.78h1.24c.43,0,.88-.02,1.21-.07v1.17c-.3-.04-.64-.05-1.04-.05h-1.59v.6h1.25c.6,0,.84-.01,1.07-.04v1.06c-.3-.02-.53-.04-1.07-.04h-1.25v.59h1.25c.58,0,.77-.01,1.07-.04v1.06c-.32-.02-.55-.04-1.07-.04h-1.25v.61h1.66Zm-6.36-.56c-.83.84-1.38,1.28-2.62,2.1l-.78-1.19c.18-.07.36-.17.6-.31.86-.5,1.31-.85,2.17-1.69l.62,1.09Zm-2.02-5.54c.86.43,1.25.68,1.93,1.25l-.79,1.07c-.71-.66-1.14-.95-1.98-1.33l.84-.98Zm5.5,2.94v-.6h-1.85v.6h1.85Zm-1.85,1.57h1.85v-.59h-1.85v.59Zm0,1.6h1.85v-.61h-1.85v.61Z" fill="#231815"/>
      <path d="m193.96,327.83c-.43,0-.7.01-1.04.06v-1.29c.34.05.66.07,1.17.07h1.76c.52,0,.83-.01,1.15-.07v1.28c-.32-.04-.61-.05-1.03-.05h-.37c-.17,1.01-.35,1.74-.67,2.59h1.19c.32,0,.52-.01.72-.04-.01.17-.02.62-.02.88v3.72c0,.19.02.71.04.95-.17-.01-.2-.01-.56-.01h-1.46v1.12h-1.21c.05-.37.07-.73.07-1.21v-2.31c0-.32.01-.64.02-.97-.23.43-.36.65-.67,1.04-.18-.65-.3-.94-.56-1.38.38-.38.59-.65.89-1.21.48-.91.82-1.97,1-3.15h-.4Zm.88,6.98h.89v-3.24h-.89v3.24Zm5.95-1.49c-.14.73-.28,1.12-.58,1.63,1,.55,2.11.8,3.89.86-.22.53-.32.89-.41,1.38-1.92-.24-3.13-.62-4.21-1.32-.71.67-1.26.97-2.54,1.39-.16-.44-.3-.68-.66-1.1,1-.23,1.63-.53,2.24-1.03-.28-.28-.47-.47-.78-.85-.24-.28-.25-.29-.35-.38l.86-.58c-.36,0-.58.01-.88.05.04-.37.05-.65.05-1.19v-2.41c0-.55-.01-.88-.05-1.21.31.05.64.06,1.13.06h1.31v-.82h-1.28c-.53,0-.85.01-1.21.06v-1.29c.4.05.8.07,1.28.07h3.93c.49,0,.94-.02,1.32-.07v1.29c-.38-.05-.73-.06-1.22-.06h-1.62v.82h1.4c.5,0,.8-.01,1.09-.06-.04.3-.05.62-.05,1.25v2.33c0,.55.01.94.05,1.24-.3-.04-.53-.05-.97-.05h-1.75Zm-2.39,0c.3.43.48.65.83.95.19-.35.28-.58.36-.95h-1.19Zm.2-3.71v.82h1.19v-.82s-1.19,0-1.19,0Zm0,1.8v.9h1.12c.02-.32.02-.35.05-.9h-1.16Zm2.38,0c-.01.41-.02.56-.05.9h1.34v-.9h-1.29Zm.01-.98h1.28v-.82h-1.27v.82Z" fill="#231815"/>
      <path d="m214.48,328.29c.56,0,.86-.01,1.16-.07v1.34c-.34-.05-.8-.07-1.4-.07h-1.75c.11,2.09.37,3.51.84,4.62.23.53.47.94.72,1.19.12.12.24.22.28.22.14,0,.29-.58.44-1.82.5.36.71.48,1.14.67-.18,1.15-.38,1.82-.68,2.25-.23.32-.52.5-.83.5-.46,0-1.07-.46-1.6-1.16-.61-.85-1.07-2.06-1.33-3.61-.17-.97-.19-1.19-.29-2.85h-4.8c-.53,0-.96.02-1.4.07v-1.34c.37.05.82.07,1.4.07h4.75q-.04-.62-.04-.98c0-.3-.04-.72-.07-.94h1.45c-.04.3-.05.62-.05.97,0,.2,0,.55.01.95h1.42c-.34-.54-.61-.88-1.14-1.42l1.04-.49c.52.52.66.67,1.19,1.36l-.97.55h.5Zm-7.86,3.84c-.46,0-.88.02-1.21.06v-1.27c.3.04.71.06,1.24.06h2.9c.53,0,.91-.02,1.21-.06v1.27c-.35-.04-.74-.06-1.2-.06h-.83v2.72c.84-.17,1.31-.26,2.46-.55v1.22c-2.03.49-3.92.88-5.53,1.12-.11.02-.24.05-.44.08l-.22-1.36c.5,0,1.07-.07,2.41-.28v-2.96h-.79Z" fill="#231815"/>
      <path d="m218.2,331.9c-.4,0-.76.01-1.01.04.02-.37.05-.78.05-1.19v-2.96c0-.47-.01-.8-.05-1.1.36.04.7.05,1.15.05h2.96c.5,0,.79-.01,1.1-.05-.02.31-.04.61-.04,1.12v3.07c0,.61,0,.83.02,1.07-.23-.02-.55-.04-.96-.04h-1.07v.98h1.07c.48,0,.77-.01,1.1-.06v1.26c-.32-.05-.61-.06-1.1-.06h-1.07v1.05c.86-.13,1.22-.19,2.18-.41l.02,1.1c-1.74.41-2.66.58-4.25.82-.82.12-.9.13-1.26.22l-.25-1.39c.72-.01,1.16-.04,2.41-.18v-1.21h-1.08c-.42,0-.76.02-1.09.06v-1.26c.32.04.66.06,1.09.06h1.08v-.98h-1.03Zm.1-4.03v.92h.94v-.92h-.94Zm0,1.99v.96h.94v-.96h-.94Zm2.08-1.07h.96v-.92h-.96v.92Zm0,2.03h.96v-.96h-.96v.96Zm5.97-.98l-.58.61h.62c.5,0,.76-.01.98-.05l.65.79c-.13.28-.14.3-.28.59-.38.85-.68,1.38-1.19,2.06-.52-.4-.61-.46-.97-.65.43-.52.7-.9.98-1.49h-1.07v4.29c0,.91-.37,1.18-1.67,1.18-.2,0-.48-.01-.9-.04-.05-.52-.08-.68-.29-1.27.48.07.96.12,1.22.12.29,0,.38-.07.38-.29v-3.99h-.56c-.49,0-.76.01-1.08.06v-1.38c.32.05.55.06,1.08.06h1.5c-.53-.44-1.16-.86-2.13-1.42l.68-.85c.6.32.79.43,1.16.67.43-.36.68-.61.92-.91h-1.9c-.42,0-.74.02-1.08.06v-1.34c.32.05.66.06,1.16.06h1.94c.5,0,.75-.01.98-.05l.7.79c-.19.23-.28.35-.47.59-.61.75-.82.97-1.32,1.44l.49.35Z" fill="#231815"/>
      <path d="m229.79,328.06c-.47,0-.67.01-1.01.06v-1.29c.31.05.63.07,1.08.07h1.81c.44,0,.74-.02,1.07-.07v1.28c-.32-.04-.59-.05-.98-.05h-.38v2.25h.26c.38,0,.49-.01.78-.05v1.22c-.28-.04-.5-.05-.78-.05h-.26v1.93c.58-.28.72-.36,1.28-.67v1.29c-.8.5-1.76,1-3.19,1.63-.12.06-.29.13-.49.24l-.35-1.39c.4-.11.84-.26,1.51-.54v-2.5h-.4c-.34,0-.56.01-.82.06v-1.25c.26.05.47.06.84.06h.37v-2.25h-.35Zm5.29,5.97c-1.02.91-1.58,1.37-2.33,1.89-.16.11-.32.24-.44.35l-.68-1.31c.74-.32,1.88-1.09,2.96-2.01l.49,1.08Zm-1.55-4.5c-.42,0-.77.02-1.1.06v-1.27c.35.04.7.06,1.16.06h1.66v-.88c0-.42-.02-.82-.08-1.22h1.39c-.05.35-.06.66-.06,1.09v1.01h2.05c.44,0,.84-.02,1.19-.07v1.29c-.35-.05-.72-.07-1.09-.07h-2.15c.11.79.56,1.97,1.16,3.01.7,1.19,1.4,1.98,2.4,2.67-.32.4-.54.77-.78,1.28-.72-.56-1.21-1.1-1.75-1.92-.56-.85-.8-1.43-1.1-2.52.06,1.13.07,1.43.07,1.92v2.24c.01.48-.1.7-.41.85-.23.11-.66.17-1.2.17-.28,0-.52-.01-1.1-.06-.06-.52-.14-.84-.35-1.26.56.07,1.05.12,1.39.12s.42-.06.42-.29v-6.22h-1.71Zm.29,3.06c-.42-.91-.73-1.44-1.32-2.19l1.03-.6c.6.77.9,1.24,1.33,2.1l-1.04.7Zm4.63-4.29c-.52-.52-.91-.83-1.62-1.29l.84-.77c.73.49,1.12.78,1.61,1.24l-.83.83Zm-1.13,3.39c.48-.53.86-1.12,1.24-1.93l1.07.71c-.46.77-.94,1.46-1.43,2.06l-.88-.84Z" fill="#231815"/>
    </g>
    <g>
      <path d="m88.9,326.06c.26-.53.43-1.03.55-1.58l1.51.14c-.22.58-.4.98-.61,1.44h2.78c.7,0,1.03-.01,1.48-.06-.05.41-.06.73-.06,1.48v6.72c0,.71.01,1.01.07,1.39h-1.38v-.61h-5.92v.61h-1.36c.05-.3.07-.83.07-1.39v-6.72c0-.72-.01-1.06-.06-1.48.43.05.77.06,1.46.06h1.46Zm-1.57,2.58h5.92v-1.35h-5.92v1.35Zm0,2.52h5.92v-1.37h-5.92v1.37Zm0,2.6h5.92v-1.45h-5.92v1.45Z" fill="#231815"/>
      <path d="m99.44,326.02c-.83.07-1.16.1-2.06.14-.1-.34-.19-.55-.42-.96,2.35-.01,4.41-.26,5.23-.65l.72.98c-.11.01-.5.07-.66.11-.44.08-1.04.18-1.64.26v.67h1.25c.56,0,.84-.01,1.12-.06v1.09c-.18-.04-.33-.05-.86-.05h-1.5v.52h1.19c.54,0,.76-.01,1.01-.04-.02.25-.04.44-.04,1.05v1.62c.01.58.02.94.04,1.09-.28-.02-.52-.02-1.08-.02h-1.12v.53h1.06c.6,0,.85-.01,1.13-.05v1.13c-.22-.05-.38-.06-.84-.06h-1.34v.59c.62-.06,1.03-.11,2.16-.26v.52c.52-.77.91-1.74,1.14-2.76.18-.88.25-1.62.31-3.17-.49,0-.68.01-1,.05v-1.29c.24.04.44.05.85.05h.18c.01-.3.01-.5.01-.88,0-1-.01-1.19-.07-1.52h1.38q-.06.32-.1,2.4h1.04c.52,0,.8-.01,1.13-.05-.05.43-.05.53-.08,2.25-.06,3.09-.22,4.79-.52,5.48-.22.53-.6.71-1.5.71-.19,0-.78-.02-.96-.04-.02-.53-.08-.78-.28-1.29-.29.61-.48.92-.96,1.57-.25-.37-.54-.66-.95-.95-1.64.24-2.52.34-4.71.5-.23.02-.41.05-.7.1l-.22-1.28c.25.02.36.02.62.02.54,0,.77-.01,2.04-.08v-.66h-1.24c-.38,0-.79.01-1.12.05v-1.13c.33.05.59.06,1.13.06h1.22v-.53h-1.04c-.54,0-.83.01-1.16.04.02-.3.04-.55.04-1.14v-1.55c0-.56-.01-.79-.04-1.09.34.02.65.04,1.17.04h1.03v-.52h-1.46c-.5,0-.78.01-1.12.06v-1.1c.32.05.62.06,1.12.06h1.46v-.56Zm-1.04,2.96v.5h1.04v-.5h-1.04Zm0,1.38v.53h1.04v-.53h-1.04Zm2.21-.88h1.04v-.5h-1.04v.5Zm0,1.4h1.04v-.53h-1.04v.53Zm4.85-2.64c-.12,2.85-.4,4.25-1.13,5.85.61.1.79.12,1.06.12.54,0,.62-.14.77-1.26.08-.64.12-1.15.17-2.48q.01-.42.02-1.39c.01-.37.01-.44.02-.84h-.91Z" fill="#231815"/>
      <path d="m113.57,325.62c0-.4-.02-.67-.08-1.03h1.47c-.06.36-.08.64-.08,1.03v.07h3.32c.67,0,1.06-.02,1.39-.08v1.28c-.4-.05-.82-.07-1.36-.07h-3.36v.71h2.42c.72,0,1-.01,1.33-.06-.04.4-.05.59-.05,1.22v2.24c0,.64.01.83.05,1.22-.36-.05-.63-.06-1.34-.06h-2.41v.74h3.42c.67,0,1.04-.02,1.38-.08v1.31c-.38-.05-.77-.07-1.4-.07h-3.39v.31c0,.61.02.96.08,1.36h-1.47c.06-.43.08-.74.08-1.36v-.31h-3.24c-.62,0-1.04.02-1.4.07v-1.31c.35.06.73.08,1.38.08h3.26v-.74h-2.24c-.7,0-1.01.01-1.36.06.04-.4.05-.64.05-1.22v-2.23c0-.59-.01-.84-.05-1.24.34.05.61.06,1.32.06h2.28v-.71h-3.23c-.53,0-.96.02-1.36.07v-1.28c.36.06.79.08,1.39.08h3.19v-.07Zm-2.27,2.97v.72h2.27v-.72h-2.27Zm0,1.7v.73h2.27v-.73h-2.27Zm6-.98v-.72h-2.42v.72h2.42Zm0,1.71v-.73h-2.42v.73h2.42Z" fill="#231815"/>
    </g>
  </g>
</svg>