<?xml version="1.0" encoding="UTF-8"?>
<svg id="_レイヤー_2" xmlns="http://www.w3.org/2000/svg" version="1.1" viewBox="0 0 460.7 120.5">
  <!-- Generator: Adobe Illustrator 30.2.1, SVG Export Plug-In . SVG Version: 2.1.1 Build 1)  -->
  <defs>
    <style>
      .st0, .st1 {
        fill: #6b8fc3;
      }

      .st2 {
        fill: #fff;
      }

      .st3, .st1, .st4 {
        stroke: #fff;
        stroke-linejoin: round;
        stroke-width: 6px;
      }

      .st3, .st5 {
        fill: #150301;
      }

      .st4, .st6 {
        fill: #4060a4;
      }
    </style>
  </defs>
  <g>
    <path class="st3" d="M49.2,3.1C34.9,12.3,19.5,19.6,3.5,24.6c-.3,0-.5.4-.5.6.9,39.6,18.4,67.9,46.1,92.1.2.2.6.2.9,0,27.7-24.2,45.2-52.6,46.1-92.1,0-.3-.2-.6-.5-.6-16-5-31.5-12.3-45.7-21.5-.2,0-.5,0-.7,0"/>
    <path class="st4" d="M64.9,35.6c7.4,3.5,17.4,6.5,29.2,9.3,1.1-6.3,1.8-12.9,1.9-19.8,0-.3-.2-.6-.5-.6-16-5-31.5-12.3-45.7-21.5h-.3v114.5c.2,0,.3,0,.4-.2,5.2-4.6,10.1-9.3,14.6-14.2V35.9c0-.2.2-.3.4-.2"/>
    <path class="st1" d="M49.1,117.3c0,0,.3.2.4.2V3h-.4C34.9,12.3,19.5,19.6,3.5,24.6c-.3,0-.5.4-.5.6.2,6.9.8,13.5,1.9,19.8,11.8-2.8,21.8-5.8,29.2-9.3.2,0,.4,0,.4.2v67.3c4.5,4.9,9.3,9.6,14.6,14.2"/>
  </g>
  <g>
    <path class="st5" d="M49.2,3.1C34.9,12.3,19.5,19.6,3.5,24.6c-.3,0-.5.4-.5.6.9,39.6,18.4,67.9,46.1,92.1.2.2.6.2.9,0,27.7-24.2,45.2-52.6,46.1-92.1,0-.3-.2-.6-.5-.6-16-5-31.5-12.3-45.7-21.5-.2,0-.5,0-.7,0"/>
    <path class="st6" d="M64.9,35.6c7.4,3.5,17.4,6.5,29.2,9.3,1.1-6.3,1.8-12.9,1.9-19.8,0-.3-.2-.6-.5-.6-16-5-31.5-12.3-45.7-21.5h-.3v114.5c.2,0,.3,0,.4-.2,5.2-4.6,10.1-9.3,14.6-14.2V35.9c0-.2.2-.3.4-.2"/>
    <path class="st0" d="M49.1,117.3c0,0,.3.2.4.2V3h-.4C34.9,12.3,19.5,19.6,3.5,24.6c-.3,0-.5.4-.5.6.2,6.9.8,13.5,1.9,19.8,11.8-2.8,21.8-5.8,29.2-9.3.2,0,.4,0,.4.2v67.3c4.5,4.9,9.3,9.6,14.6,14.2"/>
  </g>
  <g>
    <g>
      <path d="M174,87.2c-2.7-.2-5.1-.4-9.2-.4h-19.9c-4.7,0-5.7,0-7.8.3,0,0-.2,0-.2,0-.5,0-1-.2-1.4-.6-.4-.4-.6-1-.6-1.6.4-3.7.9-6,1.7-8.4,1.8-4.8,4.7-9.1,9-13,2.3-2,4.2-3.5,10.5-7.7,5.6-3.9,6.6-5.4,6.6-7.5,0-4.4-4.6-4.8-6.6-4.8-2.9,0-5,.9-6.2,2.7-.9,1.2-1.2,2.3-1.6,4.9-.1,1-1,1.7-2,1.7s-.2,0-.2,0l-8.9-1.1c-.5,0-1-.4-1.4-.8-.3-.4-.5-1-.4-1.5.9-5,2.2-7.9,4.7-10.9,3.5-4.1,8.9-6.2,15.7-6.2,12.1,0,19.5,6,19.5,15.7s-1.6,8.1-5,11.4c-1.9,1.7-2.7,2.4-10.7,7.8-2.6,1.8-5.6,4.3-7,5.9-.8.9-1.4,1.5-1.8,2.2h14.2c3.6,0,6.7-.2,8.8-.5,0,0,.2,0,.3,0,.5,0,.9.2,1.3.5.4.4.7.9.7,1.5v8.2c0,.6-.2,1.1-.6,1.5-.4.3-.9.5-1.4.5s-.1,0-.2,0Z"/>
      <path class="st2" d="M155.9,34.4c10.8,0,17.5,5.2,17.5,13.7s-1.4,7.1-4.4,9.9c-1.7,1.6-2.4,2.1-10.4,7.6-2.7,1.9-5.8,4.5-7.4,6.2-1.9,2-2.6,3.2-3.5,5.6h17.4c3.9,0,7-.2,9.1-.5v8.2c-2.9-.2-5.4-.4-9.4-.4h-19.9c-4.8,0-5.8,0-8,.3.4-3.5.8-5.7,1.6-7.9,1.7-4.5,4.5-8.5,8.5-12.2,2.2-1.9,4-3.3,10.2-7.5,5.7-3.9,7.4-6,7.4-9.1s-3.3-6.8-8.6-6.8-6.3,1.2-7.9,3.7c-1.1,1.5-1.5,2.9-1.9,5.7l-8.9-1.1c.9-4.7,2-7.3,4.3-9.9,3.1-3.6,8-5.5,14.2-5.5M155.9,30.4c-7.4,0-13.3,2.4-17.2,6.9-2.8,3.2-4.2,6.4-5.2,11.8-.2,1.1,0,2.2.7,3.1.7.9,1.7,1.5,2.7,1.6l8.9,1.1c.2,0,.3,0,.5,0,2,0,3.6-1.4,4-3.4.4-2.6.7-3.2,1.2-4,0,0,0-.1.1-.2.8-1.2,2.3-1.8,4.5-1.8s4.6.5,4.6,2.8,0,1.9-5.7,5.8c-6.3,4.2-8.3,5.7-10.6,7.8-4.6,4.2-7.7,8.6-9.6,13.8-.9,2.5-1.4,5-1.8,8.9-.1,1.2.3,2.4,1.2,3.3.8.7,1.8,1.2,2.8,1.2s.3,0,.5,0c1.9-.2,2.7-.3,7.5-.3h19.9c4,0,6.4.1,9,.4.1,0,.2,0,.3,0,1,0,2-.4,2.7-1.1.8-.8,1.3-1.8,1.3-2.9v-8.2c0-1.2-.5-2.3-1.4-3-.7-.6-1.7-1-2.6-1-.2,0-.4,0-.6,0-1.9.3-4.9.5-8.5.5h-9.7c1.5-1.4,3.7-3.1,5.6-4.5,8.1-5.5,8.9-6.2,10.9-8,3.9-3.6,5.7-7.7,5.7-12.9,0-10.8-8.5-17.7-21.5-17.7h0Z"/>
    </g>
    <g>
      <path d="M199.7,87.8c-5.8,0-10.8-1.9-14.4-5.6-2.1-2.1-3.7-4.5-4.6-7-1.7-4.6-2.5-9.6-2.5-14.9s1.6-14.1,4.1-18.2c3.7-6.2,9.9-9.6,17.5-9.6s10.8,1.9,14.5,5.6c2.1,2.1,3.7,4.5,4.6,7,1.7,4.5,2.5,9.7,2.5,15.1,0,8-1.8,15.2-5,19.5-3.8,5.3-9.6,8.1-16.7,8.1ZM199.7,43.6c-2.4,0-4,.7-5.4,2.4-2.4,2.9-3.6,7.5-3.6,13.8s1,11.1,2.8,13.6c1.5,2.2,3.5,3.2,6.3,3.2s4.1-.7,5.2-2c2.4-2.5,3.8-7.8,3.8-14.6s-1.4-11.9-3.8-14.5c-1.1-1.3-3-2-5.3-2Z"/>
      <path class="st2" d="M199.8,34.4c5.3,0,9.8,1.7,13.1,5,1.9,1.9,3.3,4,4.1,6.3,1.6,4.3,2.4,9.3,2.4,14.4,0,7.6-1.7,14.3-4.6,18.4-3.5,4.8-8.6,7.3-15.1,7.3s-9.7-1.7-13-5c-1.9-1.9-3.3-4-4.1-6.3-1.6-4.4-2.4-9.2-2.4-14.3s1.5-13.4,3.8-17.2c3.3-5.6,8.9-8.6,15.8-8.6M199.8,78.6c2.7,0,5.1-.9,6.7-2.6,2.8-2.9,4.3-8.7,4.3-15.9s-1.5-12.8-4.3-15.9c-1.5-1.7-4-2.6-6.8-2.6s-5.1,1-6.9,3.2c-2.7,3.2-4.1,8.3-4.1,15.1s1.2,11.9,3.2,14.8c1.9,2.7,4.5,4,7.9,4M199.8,30.4c-8.3,0-15.2,3.8-19.2,10.6-2.7,4.4-4.4,11.8-4.4,19.2s.9,10.8,2.7,15.6c1,2.8,2.7,5.4,5,7.7,4.1,4.1,9.5,6.2,15.8,6.2s14.1-3.1,18.3-9c3.4-4.8,5.3-12.1,5.3-20.7s-.9-11.1-2.7-15.8c-1-2.7-2.7-5.4-5-7.7-4.1-4.1-9.6-6.2-15.9-6.2h0ZM199.8,74.6c-2.1,0-3.5-.7-4.7-2.3-1.2-1.7-2.4-5.8-2.4-12.5s1.1-10,3.1-12.5c1.1-1.3,2.1-1.7,3.9-1.7s3.1.5,3.8,1.3c0,0,0,0,0,0,2.1,2.2,3.3,7.2,3.3,13.2s-1.7,11.5-3.2,13.2c0,0,0,0,0,0-.8.8-2.1,1.3-3.8,1.3h0Z"/>
    </g>
    <g>
      <path d="M262.3,87.2c-2.7-.2-5.1-.4-9.2-.4h-19.9c-4.7,0-5.7,0-7.8.3,0,0-.2,0-.2,0-.5,0-1-.2-1.4-.6-.4-.4-.6-1-.6-1.6.4-3.7.9-6,1.7-8.4,1.8-4.8,4.7-9.1,9-13,2.3-2,4.2-3.5,10.5-7.7,5.6-3.9,6.6-5.4,6.6-7.5,0-4.4-4.6-4.8-6.6-4.8-2.9,0-5,.9-6.2,2.7-.9,1.2-1.2,2.3-1.6,4.9-.2,1-1,1.7-2,1.7s-.2,0-.2,0l-8.9-1.1c-.5,0-1-.4-1.4-.8-.3-.4-.5-1-.4-1.5.9-5,2.2-7.9,4.7-10.9,3.5-4.1,8.9-6.2,15.7-6.2,12.1,0,19.5,6,19.5,15.7s-1.6,8.1-5,11.4c-1.9,1.7-2.7,2.4-10.7,7.8-2.6,1.8-5.6,4.3-7,5.9-.8.9-1.4,1.5-1.8,2.2h14.2c3.6,0,6.7-.2,8.8-.5,0,0,.2,0,.3,0,.5,0,.9.2,1.3.5.4.4.7.9.7,1.5v8.2c0,.6-.2,1.1-.6,1.5-.4.3-.9.5-1.4.5s-.1,0-.2,0Z"/>
      <path class="st2" d="M244.2,34.4c10.8,0,17.5,5.2,17.5,13.7s-1.4,7.1-4.4,9.9c-1.7,1.6-2.4,2.1-10.4,7.6-2.7,1.9-5.8,4.5-7.4,6.2-1.9,2-2.6,3.2-3.5,5.6h17.4c3.9,0,7-.2,9.1-.5v8.2c-2.9-.2-5.4-.4-9.4-.4h-19.9c-4.8,0-5.8,0-8,.3.4-3.5.8-5.7,1.6-7.9,1.7-4.5,4.5-8.5,8.5-12.2,2.2-1.9,4-3.3,10.2-7.5,5.7-3.9,7.4-6,7.4-9.1s-3.3-6.8-8.6-6.8-6.3,1.2-7.9,3.7c-1.1,1.5-1.5,2.9-1.9,5.7l-8.9-1.1c.9-4.7,2-7.3,4.3-9.9,3.1-3.6,8-5.5,14.2-5.5M244.2,30.4c-7.4,0-13.3,2.4-17.2,6.9-2.8,3.2-4.2,6.4-5.2,11.8-.2,1.1,0,2.2.7,3.1.7.9,1.7,1.5,2.7,1.6l8.9,1.1c.2,0,.3,0,.5,0,1.9,0,3.6-1.4,3.9-3.4.4-2.6.7-3.2,1.2-4,0,0,0-.1.1-.2.8-1.2,2.3-1.8,4.5-1.8s4.6.5,4.6,2.8,0,1.9-5.7,5.8c-6.3,4.2-8.3,5.7-10.6,7.8-4.6,4.1-7.7,8.6-9.6,13.8-.9,2.5-1.4,5-1.8,8.9-.1,1.2.3,2.4,1.2,3.3.8.7,1.8,1.2,2.8,1.2s.3,0,.5,0c1.9-.2,2.7-.3,7.5-.3h19.9c4,0,6.4.1,9,.4.1,0,.2,0,.3,0,1,0,2-.4,2.7-1.1.8-.8,1.3-1.8,1.3-2.9v-8.2c0-1.2-.5-2.3-1.4-3-.7-.6-1.7-1-2.6-1-.2,0-.4,0-.6,0-1.9.3-4.9.5-8.5.5h-9.7c1.5-1.4,3.7-3.1,5.6-4.5,8.1-5.5,8.9-6.2,10.9-8,3.9-3.6,5.7-7.7,5.7-12.9,0-10.8-8.5-17.7-21.5-17.7h0Z"/>
    </g>
    <g>
      <path d="M289.1,87.9c-5.4,0-10.5-1.7-13.9-4.6-5.1-4.4-7.9-12.3-7.9-22.3s2-15.8,5.5-20.4c4-5.4,9.6-8.2,16.7-8.2s10.8,1.8,14.2,5.3c1.9,1.9,2.9,3.6,4.3,6.9.2.5.2,1.2,0,1.7s-.8.9-1.3,1l-8.4,2c-.2,0-.3,0-.5,0-.8,0-1.6-.5-1.9-1.3-1.3-3.7-2.9-4.9-6.4-4.9s-6.1,1.7-7.9,5.3c-.7,1.5-1.2,2.9-1.6,4.6,2.8-1.9,6.1-2.7,10.5-2.7,7,0,13,3.1,16.1,8.4,1.6,2.7,2.5,6.2,2.5,10.3,0,10.9-8.4,18.7-20,18.7ZM289,61.2c-5,0-8.6,3.3-8.6,7.9s3.6,7.8,8.5,7.8,5.4-1.3,6.8-3.4c.7-1.1,1.1-2.8,1.1-4.6,0-5-2.8-7.7-7.8-7.7Z"/>
      <path class="st2" d="M289.5,34.5c5.3,0,9.7,1.6,12.7,4.7,1.6,1.7,2.5,3.1,3.9,6.3l-8.4,2c-1.6-4.5-3.9-6.3-8.3-6.3s-7.6,2.2-9.7,6.4c-1.6,3.2-2.2,6.2-2.5,11,3.3-4.5,7-6.2,13.3-6.2s11.7,2.7,14.4,7.4c1.5,2.4,2.2,5.6,2.2,9.3,0,9.8-7.4,16.7-18,16.7s-9.5-1.5-12.6-4.1c-4.6-4-7.2-11.4-7.2-20.8s1.9-14.9,5.1-19.2c3.7-5,8.6-7.4,15.1-7.4M288.9,79c3.6,0,6.8-1.6,8.5-4.3.9-1.4,1.4-3.5,1.4-5.6,0-6.1-3.7-9.7-9.8-9.7s-10.6,4.2-10.6,9.9,4.4,9.8,10.5,9.8M289.5,30.5c-7.8,0-13.9,3-18.3,9-3.7,4.9-5.9,12.9-5.9,21.5s3,19,8.6,23.8c3.8,3.2,9.3,5.1,15.2,5.1,12.7,0,22-8.7,22-20.7s-1-8.4-2.8-11.4c-1.7-3-4.3-5.3-7.4-6.9l6.2-1.5c1.1-.3,2.1-1,2.6-2.1.5-1.1.6-2.3.1-3.4-1.5-3.5-2.7-5.4-4.7-7.5-3.7-3.9-9.1-5.9-15.6-5.9h0ZM283.4,49.4c1.4-2.9,3.3-4.1,6.1-4.1s3.3.3,4.5,3.5c-1.1-.2-2.3-.2-3.5-.2-2.7,0-5,.3-7.1.9h0ZM288.9,75c-3.9,0-6.5-2.3-6.5-5.8s2.7-5.9,6.6-5.9,5.8,1.8,5.8,5.7-.4,2.9-.8,3.5c-1,1.6-2.9,2.5-5.1,2.5h0Z"/>
    </g>
    <g>
      <path d="M342.7,91.5c-.5,0-.9-.2-1.3-.5-2.4-2-3.4-2.6-5.8-3.9-.5-.3-.9-.8-1-1.4-.1-.6,0-1.2.4-1.7.7-.8,1.3-1.6,1.8-2.5-.4,0-.7-.2-1-.5-1-.9-1.8-1.7-2.6-2.4v5.2c0,2,0,3.3.3,4.8,0,.6,0,1.2-.4,1.6-.4.4-.9.7-1.5.7h-7.1c-.6,0-1.1-.2-1.5-.7s-.6-1-.5-1.6c.2-1.6.3-3,.3-4.6v-3.5c-1.9,2.2-4.1,4.2-6.9,6.2-.3.2-.8.4-1.2.4s-.4,0-.6,0c-.6-.2-1.1-.7-1.3-1.3-.8-2.4-1.6-3.9-2.9-5.8-.3-.5-.4-1-.3-1.5.1-.5.4-1,.9-1.3,3.3-2,5.9-4.3,8.1-7h-.2c-2.6,0-3.8,0-5.3.3,0,0-.2,0-.3,0-.5,0-.9-.2-1.3-.5-.4-.4-.7-.9-.7-1.5v-6.6c0-.6.3-1.1.7-1.5.2-.2.5-.3.7-.4-.3,0-.6-.2-.8-.4-.4-.4-.7-.9-.7-1.5v-6.6c0-.6.3-1.1.7-1.5.4-.3.8-.5,1.3-.5s.2,0,.3,0c1.2.2,2.2.3,4.3.3-.5-1.7-1-2.8-1.9-4.3,0,0,0-.1-.1-.2-.4,0-.8,0-1.2.1,0,0-.1,0-.2,0-.5,0-1-.2-1.3-.5-.4-.4-.7-.9-.7-1.5v-6.6c0-.6.3-1.1.7-1.5.4-.3.8-.5,1.3-.5s.2,0,.3,0c1.4.2,2.6.3,5.6.3h2.7c0-1.3,0-2-.3-3.1,0-.6,0-1.2.5-1.6.4-.4.9-.7,1.5-.7h7.5c.6,0,1.1.3,1.5.7.4.4.5,1,.4,1.6-.2,1.1-.3,1.7-.3,3.1h2.2c2.9,0,4,0,5.5-.3.1,0,.2,0,.3,0,.4,0,.8.1,1.1.4.3-.2.6-.3,1-.3,6.9-.2,17.2-2.9,19.8-4.9.4-.3.8-.4,1.2-.4s1.1.2,1.5.7l5.1,6c.4.5.6,1.2.4,1.9-.2.7-.7,1.2-1.4,1.3-.4,0-.6.2-.9.3-.3,0-.6.2-1,.4-4.5,1.7-8.2,2.7-15.6,4v4.5h11.9c2.4,0,4,0,5.3-.3.1,0,.2,0,.4,0,.5,0,.9.2,1.3.5.5.4.7.9.7,1.5v6.9c0,.6-.2,1.1-.7,1.5-.4.3-.8.5-1.3.5s-.2,0-.2,0c-1.3-.2-2.2-.2-4.3-.2v23c0,3.9,0,5.4.3,7,0,.6,0,1.2-.4,1.6-.4.4-.9.7-1.5.7h-7.3c-.6,0-1.1-.3-1.5-.7s-.5-1-.5-1.6c.3-1.8.3-3.6.3-7v-23h-2.7c-.2,7.2-.9,13.2-2.3,18.5-1.3,5.1-3.3,9.6-5.8,13.1-.3.5-.8.7-1.4.8,0,0-.2,0-.3,0ZM338.8,70.4c.5.4,1.1.8,1.8,1.3,0-.4.1-.8.2-1.2-.6,0-1.3-.1-2-.1ZM336,60.4c2.5,0,3.7,0,5-.2-1.4-.1-2.6-.2-4.8-.2h-3v.4h2.8ZM313.5,60.2c1.3.2,2.5.2,5,.2h4.3v-.4h-4.4c-2.2,0-3.5,0-4.9.2ZM340.3,45.4c0,0,0,.1,0,.2q-.4.8-.9,2.1c0,0,0,.2-.1.3-.3.5-.3.5-.9,2,1.5,0,2.4-.1,3.4-.3.1,0,.2,0,.3,0s0,0,0,0c0-1,0-2,0-3s0-.8,0-1.2c-.2,0-.4,0-.5,0s-.1,0-.2,0c-.3,0-.7,0-1,0ZM326.3,45.2c.5,1.3.9,2.6,1.4,4.5.8-1.6,1.4-2.9,1.9-4.5h-3.3Z"/>
      <path class="st2" d="M364.6,31.7l5.1,6c-.7.2-.9.3-2,.7-5,1.9-8.9,2.8-17,4.2v8.2h13.9c2.7,0,4.3-.1,5.6-.4v6.9c-1.5-.2-2.5-.2-5-.2h-1.5v25c0,3.7,0,5.5.4,7.3h-7.3c.3-1.9.4-3.7.4-7.3v-25h-6.6c0,7.9-.8,14.4-2.3,20-1.2,4.8-3.2,9.2-5.5,12.5-2.5-2-3.5-2.7-6.1-4.1,5.9-7.2,7.4-15.3,7.4-38.8s0-7.2-.4-9.7c7-.2,17.7-2.9,20.9-5.3M331.8,31.7c-.2,1.5-.3,2.3-.3,4.5v.9h4.2c2.9,0,4.2,0,5.8-.3v6.6c-1.7-.2-3.2-.2-5.8-.2h-2.5l5.3,1.5q-.4.8-.9,2.2t-1.1,2.3c-.4,1.1-.7,1.5-1.4,2.7h1.2c2.8,0,4.1,0,5.7-.3v6.6c-1.7-.2-3-.2-5.7-.2h-5v4.4h4.8c2.7,0,4,0,5.6-.3v6.5c-1.6-.2-3-.2-5.6-.2h-2.3c1.9,2.2,3.4,3.5,6.4,5.5-1.4,2.3-2,3.6-3,5.9-3.1-2.8-4.1-3.8-6.1-6.7q0,.8.1,2.4c0,.2,0,2.1,0,2.4v6.2c0,2.2.1,3.7.4,5.1h-7.1c.2-1.4.3-2.9.3-4.9v-6.2c0-1.2,0-2.8.2-4.2-2.5,4.8-5.4,8-10.2,11.5-.9-2.5-1.7-4.3-3.2-6.3,4.7-2.9,8.2-6.3,10.8-10.7h-4c-2.7,0-4,0-5.6.3v-6.6c1.6.2,2.9.3,5.8.3h6.3v-4.4h-6.4c-2.6,0-4,0-5.6.2v-6.6c1.5.2,2.9.3,5.8.3h1.5c-.9-3.5-1.5-5.1-2.7-7.3l5.5-1.4h-2.9c-2.7,0-4.2,0-5.8.2v-6.6c1.5.2,3,.3,6,.3h4.7v-.9c0-2.1,0-3-.3-4.5h7.5M332.3,43.3h-9.1c1.4,2.7,1.9,4,2.7,7.2l-5.5,1.5h8.5c1.7-3.2,2.5-5.2,3.5-8.7M364.6,27.7c-.8,0-1.7.3-2.4.8-2.1,1.6-11.6,4.3-18.6,4.5-.3,0-.6,0-.9.1-.4-.1-.8-.2-1.2-.2-.2,0-.4,0-.6,0-1.4.2-2.4.3-5.2.3h0c0-.2,0-.5.1-.8.2-1.2-.1-2.3-.9-3.2s-1.9-1.4-3.1-1.4h-7.5c-1.2,0-2.3.5-3,1.4-.8.9-1.1,2.1-.9,3.2,0,.3,0,.6.1.8h-.6c-2.9,0-4.1,0-5.3-.3-.2,0-.4,0-.6,0-.9,0-1.9.3-2.6,1-.9.8-1.4,1.9-1.4,3v6.6c0,1.1.5,2.2,1.3,3,.7.7,1.7,1,2.7,1s.2,0,.3,0c0,.1.1.2.2.3-.4,0-.7,0-1.1-.1-.2,0-.4,0-.6,0-.9,0-1.9.3-2.6,1-.9.8-1.4,1.9-1.4,3v6.6c0,.7.2,1.4.5,2-.3.6-.5,1.2-.5,1.9v6.6c0,1.2.5,2.3,1.4,3,.7.6,1.7,1,2.6,1s.4,0,.6,0c.1,0,.2,0,.3,0-1.3,1.1-2.6,2.1-4.2,3-.9.6-1.6,1.5-1.8,2.6-.2,1.1,0,2.2.6,3.1,1.2,1.7,1.9,3.1,2.7,5.3.4,1.2,1.4,2.1,2.6,2.5.4.1.8.2,1.2.2.8,0,1.6-.3,2.3-.8,1.3-1,2.6-1.9,3.7-2.9,0,1-.1,2-.3,3-.1,1.1.2,2.3,1,3.2.8.9,1.9,1.4,3,1.4h7.1c1.2,0,2.3-.5,3.1-1.4.6-.7.9-1.5.9-2.4,1.8,1,2.6,1.6,4.6,3.2.7.6,1.6.9,2.5.9s.3,0,.5,0c1.1-.1,2.1-.7,2.7-1.6,2.7-3.7,4.8-8.5,6.1-13.8.4-1.5.8-3.1,1.1-4.8v8.7c0,3.6,0,5.1-.3,6.7-.2,1.2.1,2.3.9,3.2.8.9,1.9,1.4,3,1.4h7.3c1.2,0,2.3-.5,3.1-1.4.8-.9,1.1-2.1.9-3.2-.2-1.5-.3-2.9-.3-6.7v-20.9c.7,0,1.3,0,2,.2.2,0,.3,0,.5,0,1,0,1.9-.4,2.7-1,.9-.8,1.3-1.8,1.3-3v-6.9c0-1.2-.5-2.3-1.4-3.1-.7-.6-1.6-.9-2.6-.9-.2,0-.5,0-.7,0-1.2.2-2.6.3-4.9.3h-9.9v-.8c6.4-1.2,10-2.2,14.3-3.8.4-.1.7-.3,1-.3.4-.1.5-.2.8-.3,1.3-.4,2.4-1.4,2.8-2.7.4-1.3.1-2.7-.8-3.8l-5.1-6c-.8-.9-1.9-1.4-3.1-1.4h0Z"/>
    </g>
    <g>
      <path d="M403.7,91.3c-.1,0-.3,0-.4,0-.6-.1-1.1-.5-1.4-1.1h0c-.5-1-.8-1.6-1.1-2.1h-13.5v.7c0,1.1-.9,2-2,2h-6.4c-.6,0-1.1-.2-1.5-.7-.4-.4-.6-1-.5-1.6.2-2,.3-3.8.3-6.3v-12.5c0,0-.1,0-.2.1-.3.2-.8.4-1.2.4s-.5,0-.7-.1c-.6-.2-1.1-.7-1.3-1.4-.6-2.4-1.2-3.9-2.3-5.8-.5-.9-.2-2.1.6-2.7,2.8-1.8,5.3-4.1,7.5-6.9-1.9,0-3.2.1-4.5.3-.1,0-.2,0-.3,0-.5,0-.9-.2-1.3-.5-.5-.4-.7-.9-.7-1.5v-6.3c0-.5.2-1,.6-1.4-.3-.3-.6-.8-.6-1.2,0-.6.2-1.3.7-1.7,4-3.6,5.9-6.3,7.8-11,.3-.8,1.1-1.3,1.9-1.3s.2,0,.4,0l6.6,1.2c.6.1,1.2.5,1.4,1.1.3.6.3,1.2,0,1.8l-.3.6h7.5c3,0,4.2,0,5.6-.3.1,0,.3,0,.4,0,.5,0,.9.2,1.3.5.5.4.7.9.7,1.5v3.8c.3-1.2.7-2.3.9-3.6.5-1.9.6-3,.6-4.3,0-.6.3-1.1.7-1.4.4-.3.8-.5,1.3-.5s.2,0,.3,0l7.1.9c.6,0,1.1.4,1.4.9.3.5.4,1.1.2,1.7-.5,1.6-.5,1.7-1.6,5.8h6.4c2.4,0,3.6,0,4.6-.3.1,0,.2,0,.4,0,.6,0,1.1.2,1.5.7l3,3.3c.5.6.6,1.4.4,2.1-.4,1-.6,1.7-1.3,4.6-1.2,4.9-3.2,10.5-5.5,14.4-.3.5-.8.9-1.4,1-.1,0-.3,0-.4,0-.5,0-.9-.2-1.3-.5-1-.8-1.9-1.5-2.9-2.1.7,3.4,1.8,6.6,3.1,9.1,2,3.9,4.5,6.6,9.7,10.1.4.3.8.8.8,1.3s0,1.1-.4,1.5c-1.3,1.8-2.5,3.9-3.3,5.9-.2.6-.7,1-1.3,1.2-.2,0-.4,0-.5,0-.4,0-.9-.1-1.2-.4-4.4-3.5-6.8-5.9-9.1-9.4-1.2-1.9-2.2-3.7-3-5.8-.6,1.7-1.3,3.2-2.2,5-2.2,4-4.2,6.3-8.7,10.2-.4.3-.8.5-1.3.5ZM405.2,71c.4.4.6.9.6,1.4v1.5c.8-1.6,1.5-3.4,2.1-5.6,1.2-4,1.7-6.9,1.8-11.2-.5.8-1,1.5-1.6,2.3-.4.5-.9.8-1.5.8,0,0,0,0-.1,0v1.8c0,.6-.2,1.1-.7,1.5,0,0-.2.1-.2.2.1.3.2.6.2.9v5c0,.5-.2,1-.6,1.4ZM390.9,54.5c.2-.3.3-.6.5-.9-.2.3-.4.6-.5.9h0ZM419.6,48.5c.1.1.3.2.4.4.4.5.5,1.1.4,1.7-.1.6-.2,1.4-.2,2.6s0,.7,0,1.1c.9-1.9,1.6-3.6,2.2-5.7h-2.7ZM399.7,43.9c2.2,0,3.3,0,4.3-.3.1,0,.3,0,.4,0,.2,0,.4,0,.6.1,0,0,0-.1,0-.2-.1,0-.3,0-.5,0s-.2,0-.2,0c-1.5-.2-2.9-.2-5.4-.2h-2.8c0,.2-.1.4-.2.6h3.6ZM385.3,43.9c0-.2.2-.4.2-.6h-.3c-.2.2-.3.4-.5.6h.5Z"/>
      <path class="st2" d="M383.1,31l6.6,1.2c-.9,1.7-1.2,2.4-1.9,3.5h10.8c3,0,4.3,0,6-.4v6.2c-1.6-.2-3-.2-5.6-.2h-4.2c-.8,2.5-1,3-1.6,4.6h6.5c2.2,0,3.5,0,4.7-.3v4c2.6-4.8,4-8.6,5.1-13.5.5-2,.6-3.3.7-4.6l7.1.9q-.6,1.7-1.8,6.3c-.2.6-.4,1.2-.6,2h9.1c2.4,0,3.7,0,5-.3l3,3.3c-.4,1.1-.6,1.9-1.4,4.9-1.1,4.8-3.2,10.2-5.3,13.9-1.7-1.4-3.3-2.4-5.4-3.5,2.5-4.3,3.8-7.7,5.1-12.5h-12.2c-2,5-3.8,8.3-6.3,11.7-1.7-2-3.2-3.3-5.1-4.3.9-1.1,1.1-1.4,1.7-2.3-1.3-.1-2.1-.1-3.6-.1h-9.1c-1,1.7-1.6,2.6-3.3,5.1h5c1.1-1.9,1.5-2.8,2.2-4.6l5.5,1.5c-.6,1.1-.7,1.4-1.8,3.1h1.9c2.5,0,3.5,0,4.5-.2v5.7c-1.6-.2-2.2-.2-4.5-.2h-2.9v3h2.4c2.5,0,3.5,0,4.4-.2v5c-1.1-.1-2.6-.2-4.4-.2h-2.4v3.2h2.4c2.5,0,3.5,0,4.4-.2v5.1c-1.2-.1-2-.2-4.4-.2h-2.4v3.1h2.7c2.2,0,2.7,0,3.9-.1,2.9-2.8,4.8-6.3,6.2-11.4,1.5-5.3,2-8.7,2-15.9s0-1.9-.2-2.9h6.9c-.2.8-.2,1.7-.2,3,0,6.5,1.6,13.8,4.2,18.8,2.2,4.3,4.9,7.1,10.3,10.8-1.3,1.7-2.6,4-3.5,6.4-4.3-3.4-6.5-5.7-8.6-8.9-2.4-3.8-3.7-7.3-4.8-12.5-.8,5-1.8,8.1-3.8,11.8-2,3.7-3.9,5.9-8.2,9.6-.8-1.6-1.1-2.1-1.7-3.2h-16.6v2.7h-6.4c.2-2,.3-3.8.3-6.5v-12.6c0-1.4,0-2.7.2-4.5-1.2,1.4-2,2.1-3.5,3.2-.7-2.6-1.4-4.3-2.5-6.3,4.1-2.7,7.5-6.2,10.3-10.5h-3.5c-2.4,0-3.8.1-5.3.4v-6.3c1.4.2,2.4.3,4.3.3-1.5-1.4-2.6-2.2-4.3-3.2,4.2-3.8,6.3-6.8,8.3-11.7M388.3,41.3h-4.1c-1.3,1.8-2,2.6-3.9,4.6h6.3c.7-1.5.9-2.1,1.7-4.6M385.3,64.8h5.8v-3h-5.8v3M385.3,72.6h5.8v-3.2h-5.8v3.2M385.3,80.4h5.8v-3.1h-5.8v3.1M383.1,27c-1.6,0-3.1,1-3.7,2.5-1.8,4.4-3.5,6.9-7.3,10.2-1,.9-1.4,2.1-1.3,3.4,0,.4.1.7.3,1.1-.2.4-.2.9-.2,1.3v6.3c0,1.2.5,2.3,1.4,3.1.7.6,1.6.9,2.5.9-1.1,1-2.4,2-3.6,2.8-1.8,1.2-2.3,3.5-1.3,5.3,1,1.8,1.6,3.1,2.1,5.3.3,1.3,1.3,2.3,2.5,2.8.2,0,.5.1.7.2v10c0,2.8,0,4.3-.3,6-.1,1.1.2,2.3,1,3.1.8.9,1.8,1.3,3,1.3h6.4c1.7,0,3.2-1.1,3.8-2.7h10.5c.1.3.3.6.5,1,.6,1.1,1.6,1.9,2.8,2.1.3,0,.5,0,.8,0,.9,0,1.9-.3,2.6-1,4.7-4,6.9-6.5,9.1-10.7,0,0,0,0,0,0,.2-.4.4-.7.5-1,.4.7.8,1.3,1.2,2,2.4,3.7,4.9,6.3,9.5,9.9.7.6,1.6.9,2.5.9s.7,0,1.1-.1c1.2-.3,2.2-1.2,2.7-2.4.7-1.9,1.8-3.8,3-5.4.7-.9.9-2,.7-3-.2-1.1-.8-2-1.7-2.6-4.9-3.4-7.1-5.7-9-9.4-.6-1.1-1.1-2.4-1.6-3.8.3,0,.6.1.9.1s.5,0,.8,0c1.2-.2,2.2-.9,2.7-2,2.3-4.1,4.5-9.9,5.7-15,.7-3,.9-3.5,1.2-4.4.5-1.4.3-3-.7-4.1l-3-3.3c-.8-.9-1.9-1.3-3-1.3-.2,0-.5,0-.7,0-1,.2-2,.2-4.3.2h-3.8c.5-1.6.6-2,.9-3.1.4-1.1.2-2.4-.4-3.4-.6-1-1.7-1.7-2.9-1.8l-7.1-.9c-.2,0-.3,0-.5,0-.9,0-1.8.3-2.6.9-.9.7-1.4,1.8-1.4,2.9,0,.2,0,.3,0,.5-.5-.2-1-.3-1.6-.3s-.5,0-.8,0c-1.2.2-2.3.3-5.2.3h-5c0-.4-.2-.8-.4-1.2-.6-1.1-1.6-1.9-2.9-2.2l-6.6-1.2c-.2,0-.5,0-.7,0h0Z"/>
    </g>
  </g>
</svg>