<?xml version="1.0" encoding="UTF-8"?>
<svg id="_レイヤー_2" data-name="レイヤー 2" xmlns="http://www.w3.org/2000/svg" viewBox="0 0 460.73 120.5">
  <defs>
    <style>
      .cls-1, .cls-2, .cls-3 {
        stroke: #fff;
        stroke-linejoin: round;
        stroke-width: 6px;
      }

      .cls-1, .cls-4 {
        fill: #6b8fc3;
      }

      .cls-5, .cls-4, .cls-6, .cls-7 {
        stroke-width: 0px;
      }

      .cls-5, .cls-3 {
        fill: #150301;
      }

      .cls-2, .cls-7 {
        fill: #4060a4;
      }

      .cls-6 {
        fill: #fff;
      }
    </style>
  </defs>
  <g id="_レイヤー_1-2" data-name="レイヤー 1">
    <g>
      <path class="cls-3" d="M49.19,3.1C34.92,12.26,19.45,19.56,3.47,24.55c-.28.09-.47.35-.47.65.87,39.58,18.35,67.91,46.1,92.14.25.22.63.22.88,0,27.75-24.23,45.23-52.55,46.1-92.14,0-.29-.18-.56-.47-.65-15.98-4.99-31.46-12.29-45.72-21.45-.22-.14-.49-.14-.71,0"/>
      <path class="cls-2" d="M64.91,35.64c7.39,3.49,17.37,6.5,29.22,9.34,1.14-6.28,1.8-12.85,1.95-19.78,0-.29-.18-.56-.47-.65-15.98-4.99-31.46-12.29-45.72-21.45-.11-.07-.23-.1-.35-.1v114.5c.16,0,.31-.05.44-.16,5.23-4.57,10.1-9.28,14.56-14.19V35.88c0-.19.2-.32.37-.24"/>
      <path class="cls-1" d="M49.1,117.34c.13.11.28.16.44.16V3c-.12,0-.25.03-.36.1C34.92,12.26,19.45,19.56,3.47,24.55c-.28.09-.47.35-.47.65.15,6.92.81,13.5,1.95,19.77,11.85-2.84,21.83-5.85,29.22-9.34.18-.08.37.05.37.24v67.27c4.46,4.91,9.33,9.62,14.56,14.19"/>
    </g>
    <g>
      <g>
        <path class="cls-5" d="M136.97,86.34c.1-2.68.66-5.03,1.67-6.97.95-1.83,2.22-3.74,3.76-5.67,1.88-2.4,3.95-4.72,6.14-6.88,2.13-2.11,4.24-4.27,6.26-6.43,1.68-1.72,3.03-3.63,4.06-5.69.99-2,1.49-4.19,1.49-6.51,0-.85-.08-1.83-.23-2.9-.15-1.02-.42-2.03-.82-3.01-.36-.88-.84-1.6-1.44-2.15-.49-.44-1.13-.66-1.97-.66-1.06,0-2,.27-2.85.84-.9.6-1.6,1.35-2.14,2.32-.52.88-.87,1.96-1.05,3.22-.2,1.39-.3,2.68-.3,3.81s-.58,2.18-1.65,2.85c-.78.49-1.66.84-2.63,1.04-.9.19-1.64.28-2.26.28-1.29,0-2.52-.57-3.67-1.69-1.16-1.13-1.75-2.36-1.75-3.66,0-2.55.69-4.79,2.04-6.66,1.29-1.78,2.95-3.25,4.96-4.38,1.94-1.09,4.05-1.91,6.28-2.43,2.2-.51,4.32-.77,6.29-.77,2.61,0,5.15.5,7.54,1.48,2.44,1,4.49,2.52,6.09,4.51,1.66,2.06,2.5,4.63,2.5,7.63,0,3.63-.9,6.91-2.68,9.75-1.71,2.74-3.92,5.22-6.55,7.37-1.76,1.43-3.6,2.78-5.48,4.01-1.81,1.19-3.6,2.44-5.33,3.7-1.67,1.23-3.24,2.61-4.67,4.1-.85.89-1.64,1.9-2.36,3.02,1.83-.02,3.66-.05,5.47-.09,2.69-.07,5.39-.13,8.1-.18,1.23-.04,2.45-.19,3.62-.45,1.08-.24,2.15-.69,3.16-1.34.71-.49,1.33-1.07,1.82-1.71.56-.73,1.11-1.54,1.64-2.38.24-.37.47-.67.71-.93.47-.53,1.14-.82,1.89-.82,1.16,0,2.34.81,2.34,2.62,0,.22-.03.5-.39,2.05l-.81,3.43c-.31,1.3-.6,2.48-.89,3.54-.29,1.1-.49,1.79-.59,2.08-.32,1.04-.87,1.73-1.62,2.01-.48.18-1.08.27-1.83.27-1.44,0-2.88-.05-4.27-.14-1.34-.09-2.68-.14-3.99-.14-1.21,0-2.43.01-3.68.03-1.27.02-2.52.04-3.74.04-2.42,0-4.86.01-7.3.04-2.43.02-4.9.08-7.34.17l-1.62.06.06-1.62Z"/>
        <path class="cls-6" d="M157.16,35.72c2.43,0,4.75.46,6.97,1.37,2.22.91,4.05,2.26,5.49,4.06,1.45,1.8,2.17,4.02,2.17,6.69,0,3.36-.82,6.35-2.45,8.96-1.63,2.61-3.71,4.95-6.23,7-1.73,1.4-3.51,2.71-5.35,3.92-1.84,1.21-3.64,2.46-5.39,3.75-1.75,1.28-3.37,2.71-4.86,4.27-1.49,1.56-2.78,3.42-3.85,5.56,2.71,0,5.4-.04,8.08-.1,2.68-.07,5.38-.13,8.08-.18,1.35-.05,2.66-.21,3.92-.49,1.26-.28,2.47-.79,3.64-1.54.89-.61,1.62-1.29,2.21-2.06.58-.77,1.15-1.6,1.71-2.49.19-.28.37-.52.56-.73.19-.21.44-.31.77-.31.56,0,.84.37.84,1.12,0,.14-.12.71-.35,1.71-.23,1-.5,2.15-.8,3.43-.3,1.28-.6,2.45-.88,3.5-.28,1.05-.47,1.71-.56,2-.19.61-.43.97-.73,1.08-.3.12-.74.17-1.3.17-1.4,0-2.79-.05-4.16-.14-1.38-.09-2.74-.14-4.1-.14-1.21,0-2.45.01-3.71.03-1.26.02-2.5.04-3.71.04-2.43,0-4.87.01-7.31.04-2.45.02-4.91.08-7.39.17.09-2.47.6-4.58,1.5-6.33.91-1.75,2.11-3.56,3.6-5.42,1.87-2.38,3.87-4.63,6.02-6.76,2.15-2.12,4.25-4.28,6.3-6.48,1.77-1.82,3.21-3.84,4.3-6.05,1.1-2.22,1.65-4.61,1.65-7.18,0-.93-.08-1.97-.24-3.11-.16-1.14-.47-2.26-.91-3.36-.44-1.1-1.05-2-1.82-2.7-.77-.7-1.76-1.05-2.98-1.05-1.35,0-2.58.36-3.68,1.08-1.1.72-1.97,1.67-2.62,2.83-.61,1.03-1.01,2.27-1.22,3.75-.21,1.47-.31,2.81-.31,4.02,0,.65-.32,1.18-.95,1.58-.63.4-1.34.68-2.13.84-.79.16-1.45.25-1.96.25-.89,0-1.76-.42-2.62-1.26-.86-.84-1.3-1.7-1.3-2.59,0-2.24.58-4.17,1.75-5.77,1.17-1.61,2.66-2.93,4.48-3.96,1.82-1.03,3.78-1.79,5.88-2.27,2.1-.49,4.08-.74,5.95-.74M157.16,32.72c-2.09,0-4.32.27-6.63.81-2.36.55-4.61,1.42-6.67,2.58-2.19,1.24-4.02,2.86-5.44,4.81-1.54,2.12-2.32,4.66-2.32,7.53,0,1.19.38,2.97,2.2,4.74,1.44,1.4,3.02,2.11,4.72,2.11.73,0,1.57-.1,2.57-.31,1.14-.23,2.2-.65,3.13-1.24,1.51-.95,2.35-2.41,2.35-4.11,0-1.07.1-2.28.28-3.6.15-1.07.43-1.96.84-2.64l.02-.03.02-.03c.42-.75.96-1.34,1.66-1.8.61-.4,1.25-.59,2.02-.59.66,0,.88.2.96.27.43.4.78.92,1.06,1.6.35.86.59,1.76.72,2.66.14,1,.21,1.9.21,2.69,0,2.12-.44,4.03-1.33,5.85-.95,1.92-2.22,3.7-3.76,5.29l-.02.02-.02.02c-2.01,2.15-4.1,4.3-6.22,6.39-2.23,2.21-4.34,4.57-6.27,7.04-1.59,1.99-2.91,3.98-3.91,5.89-1.11,2.14-1.73,4.7-1.84,7.61l-.12,3.23,3.23-.12c2.43-.09,4.88-.15,7.3-.17,2.48-.02,4.93-.04,7.29-.04,1.28,0,2.54-.01,3.77-.04,1.24-.02,2.47-.03,3.65-.03,1.27,0,2.58.04,3.89.13,1.42.1,2.89.15,4.37.15.94,0,1.71-.12,2.37-.37,1.2-.46,2.05-1.46,2.52-2.97.08-.23.22-.72.6-2.13.28-1.06.58-2.27.9-3.58.3-1.29.57-2.43.81-3.44.39-1.67.43-2.01.43-2.4,0-2.7-1.93-4.12-3.84-4.12-1.19,0-2.26.47-3.02,1.33-.28.31-.55.67-.81,1.06l-.02.03-.02.03c-.51.81-1.04,1.57-1.57,2.28-.38.5-.87.96-1.47,1.37-.86.55-1.72.91-2.63,1.11-1.08.24-2.21.38-3.37.42-2.75.05-5.48.11-8.06.17-.79.02-1.59.04-2.39.05.13-.15.27-.3.41-.44,1.36-1.43,2.87-2.75,4.47-3.92,1.7-1.25,3.48-2.48,5.27-3.66,1.91-1.26,3.8-2.64,5.59-4.1,2.77-2.26,5.08-4.86,6.88-7.74,1.93-3.09,2.91-6.64,2.91-10.55,0-3.35-.95-6.23-2.83-8.57-1.76-2.19-4.01-3.85-6.69-4.95-2.57-1.06-5.3-1.59-8.11-1.59h0Z"/>
      </g>
      <g>
        <path class="cls-5" d="M196.36,88.11c-3.48,0-6.44-.88-8.8-2.6-2.29-1.68-4.12-3.89-5.43-6.57-1.27-2.59-2.17-5.4-2.69-8.35-.5-2.89-.76-5.7-.76-8.34,0-2.3.17-4.74.5-7.27.34-2.55.91-5.07,1.71-7.48.81-2.47,1.96-4.74,3.39-6.74,1.48-2.06,3.34-3.73,5.53-4.95,2.22-1.24,4.92-1.87,8.01-1.87s5.59.59,7.72,1.76c2.11,1.16,3.87,2.73,5.23,4.69,1.32,1.89,2.36,4.03,3.1,6.35.73,2.27,1.24,4.66,1.53,7.1.29,2.41.43,4.76.43,7,0,2.93-.3,5.98-.9,9.07-.61,3.14-1.64,6.1-3.05,8.78-1.47,2.78-3.49,5.05-6.01,6.77-2.58,1.75-5.78,2.64-9.52,2.64ZM197.2,39.04c-1.1,0-1.93.43-2.6,1.35-.84,1.15-1.51,2.67-2,4.53-.51,1.96-.88,4.06-1.08,6.23-.21,2.23-.33,4.32-.38,6.23-.05,1.95-.07,3.45-.07,4.51s.01,2.44.03,4.25c.02,1.77.13,3.7.31,5.73.18,1.98.5,3.9.97,5.71.44,1.69,1.07,3.07,1.87,4.12.65.84,1.45,1.23,2.52,1.23,1.25,0,2.16-.29,2.78-.88.74-.7,1.32-1.61,1.73-2.69.45-1.21.79-2.44,1.01-3.66.5-2.38.8-4.74.89-7.07.09-2.4.14-4.83.14-7.22s-.05-4.94-.14-7.43c-.09-2.45-.34-4.9-.75-7.29-.18-1.14-.49-2.35-.95-3.63-.42-1.18-1.02-2.2-1.76-3.03-.6-.67-1.41-.98-2.53-.98Z"/>
        <path class="cls-6" d="M197.82,35.44c2.75,0,5.09.52,7,1.58,1.91,1.05,3.49,2.46,4.73,4.23,1.24,1.77,2.21,3.76,2.9,5.95.7,2.19,1.19,4.47,1.47,6.83.28,2.36.42,4.63.42,6.83,0,2.85-.29,5.77-.88,8.78-.58,3.01-1.55,5.8-2.9,8.37-1.35,2.57-3.2,4.64-5.53,6.23-2.33,1.59-5.23,2.38-8.68,2.38-3.17,0-5.81-.77-7.91-2.31s-3.76-3.55-4.97-6.02c-1.21-2.47-2.06-5.12-2.55-7.94-.49-2.82-.74-5.52-.74-8.08,0-2.24.16-4.6.49-7.07.33-2.47.88-4.88,1.65-7.21.77-2.33,1.83-4.44,3.19-6.33,1.35-1.89,3.03-3.4,5.04-4.51,2.01-1.12,4.43-1.68,7.28-1.68M196.78,84.44c1.63,0,2.9-.43,3.81-1.29.91-.86,1.61-1.95,2.1-3.25.49-1.31.85-2.61,1.08-3.92.51-2.43.82-4.85.91-7.28.09-2.43.14-4.85.14-7.28s-.05-4.97-.14-7.49c-.09-2.52-.35-5.02-.77-7.49-.19-1.21-.52-2.51-1.01-3.88-.49-1.38-1.18-2.56-2.06-3.54-.89-.98-2.1-1.47-3.64-1.47s-2.86.65-3.81,1.96c-.96,1.31-1.7,2.99-2.24,5.04-.54,2.05-.91,4.21-1.12,6.48-.21,2.26-.34,4.38-.38,6.33-.05,1.96-.07,3.48-.07,4.55s.01,2.45.03,4.27c.02,1.82.13,3.77.31,5.85.19,2.08.53,4.06,1.02,5.95.49,1.89,1.2,3.44,2.14,4.66.93,1.21,2.17,1.82,3.71,1.82M197.82,32.44c-3.35,0-6.29.69-8.74,2.06-2.38,1.33-4.41,3.14-6.02,5.39-1.52,2.13-2.73,4.53-3.59,7.14-.83,2.51-1.42,5.12-1.77,7.76-.34,2.59-.52,5.1-.52,7.46,0,2.73.26,5.62.78,8.6.54,3.09,1.48,6.04,2.82,8.75,1.42,2.9,3.4,5.29,5.89,7.12,2.62,1.92,5.87,2.89,9.68,2.89,4.05,0,7.54-.98,10.37-2.9,2.73-1.86,4.92-4.32,6.5-7.31,1.48-2.82,2.56-5.91,3.2-9.19.62-3.19.93-6.33.93-9.36,0-2.3-.15-4.71-.44-7.18-.3-2.54-.84-5.02-1.59-7.38-.79-2.47-1.9-4.74-3.3-6.75-1.5-2.15-3.43-3.88-5.74-5.15-2.35-1.29-5.19-1.95-8.44-1.95h0ZM196.78,81.44c-.61,0-.97-.18-1.33-.65-.68-.89-1.22-2.09-1.61-3.58-.45-1.73-.76-3.57-.93-5.46-.18-1.99-.28-3.88-.3-5.62-.02-1.8-.03-3.21-.03-4.23s.02-2.56.07-4.48c.04-1.87.17-3.94.37-6.13.19-2.09.54-4.11,1.04-5.99.44-1.68,1.03-3.03,1.76-4.03.39-.53.77-.73,1.39-.73.98,0,1.27.33,1.42.48.62.68,1.11,1.53,1.46,2.53.42,1.19.72,2.31.88,3.34.4,2.37.65,4.76.74,7.14.09,2.48.14,4.96.14,7.38s-.05,4.78-.14,7.17c-.09,2.25-.37,4.53-.85,6.77v.05s-.02.05-.02.05c-.2,1.13-.52,2.27-.94,3.4-.33.88-.77,1.58-1.36,2.13-.33.31-.92.47-1.75.47h0Z"/>
      </g>
      <g>
        <path class="cls-5" d="M219.57,86.34c.1-2.68.66-5.03,1.67-6.97.95-1.83,2.22-3.74,3.76-5.67,1.88-2.4,3.95-4.72,6.14-6.88,2.13-2.11,4.24-4.27,6.26-6.43,1.68-1.72,3.03-3.63,4.06-5.69.99-2,1.49-4.19,1.49-6.51,0-.85-.08-1.83-.23-2.9-.15-1.02-.42-2.03-.82-3.01-.36-.88-.84-1.6-1.44-2.15-.49-.44-1.13-.66-1.97-.66-1.06,0-2,.27-2.85.84-.9.6-1.6,1.35-2.14,2.32-.52.88-.87,1.96-1.05,3.22-.2,1.39-.3,2.68-.3,3.81s-.58,2.18-1.65,2.85c-.78.49-1.66.84-2.63,1.04-.9.19-1.64.28-2.26.28-1.29,0-2.52-.57-3.67-1.69-1.16-1.13-1.75-2.36-1.75-3.66,0-2.55.69-4.79,2.04-6.66,1.29-1.78,2.95-3.25,4.96-4.38,1.94-1.09,4.05-1.91,6.28-2.43,2.2-.51,4.32-.77,6.29-.77,2.61,0,5.15.5,7.54,1.48,2.44,1,4.49,2.52,6.09,4.51,1.66,2.06,2.5,4.63,2.5,7.63,0,3.63-.9,6.91-2.68,9.75-1.71,2.74-3.92,5.22-6.55,7.37-1.76,1.43-3.6,2.78-5.48,4.01-1.81,1.19-3.6,2.44-5.33,3.7-1.67,1.23-3.24,2.61-4.67,4.1-.85.89-1.64,1.9-2.36,3.02,1.83-.02,3.66-.05,5.47-.09,2.69-.07,5.39-.13,8.1-.18,1.23-.04,2.45-.19,3.62-.45,1.08-.24,2.15-.69,3.16-1.34.71-.49,1.33-1.07,1.82-1.71.56-.73,1.11-1.54,1.64-2.38.24-.37.47-.67.71-.93.47-.53,1.14-.82,1.89-.82,1.16,0,2.34.81,2.34,2.62,0,.22-.03.5-.39,2.05l-.81,3.43c-.31,1.3-.6,2.48-.89,3.54-.29,1.1-.49,1.79-.59,2.08-.32,1.04-.87,1.73-1.62,2.01-.48.18-1.08.27-1.83.27-1.44,0-2.88-.05-4.27-.14-1.34-.09-2.68-.14-3.99-.14-1.21,0-2.43.01-3.68.03-1.27.02-2.52.04-3.74.04-2.42,0-4.86.01-7.3.04-2.43.02-4.9.08-7.34.17l-1.62.06.06-1.62Z"/>
        <path class="cls-6" d="M239.75,35.72c2.43,0,4.75.46,6.97,1.37,2.22.91,4.05,2.26,5.49,4.06,1.45,1.8,2.17,4.02,2.17,6.69,0,3.36-.82,6.35-2.45,8.96-1.63,2.61-3.71,4.95-6.23,7-1.73,1.4-3.51,2.71-5.35,3.92-1.84,1.21-3.64,2.46-5.39,3.75-1.75,1.28-3.37,2.71-4.86,4.27-1.49,1.56-2.78,3.42-3.85,5.56,2.71,0,5.4-.04,8.08-.1,2.68-.07,5.38-.13,8.08-.18,1.35-.05,2.66-.21,3.92-.49,1.26-.28,2.47-.79,3.64-1.54.89-.61,1.62-1.29,2.21-2.06.58-.77,1.15-1.6,1.71-2.49.19-.28.37-.52.56-.73.19-.21.44-.31.77-.31.56,0,.84.37.84,1.12,0,.14-.12.71-.35,1.71-.23,1-.5,2.15-.8,3.43-.3,1.28-.6,2.45-.88,3.5-.28,1.05-.47,1.71-.56,2-.19.61-.43.97-.73,1.08-.3.12-.74.17-1.3.17-1.4,0-2.79-.05-4.16-.14-1.38-.09-2.74-.14-4.1-.14-1.21,0-2.45.01-3.71.03-1.26.02-2.5.04-3.71.04-2.43,0-4.87.01-7.31.04-2.45.02-4.91.08-7.39.17.09-2.47.6-4.58,1.5-6.33.91-1.75,2.11-3.56,3.6-5.42,1.87-2.38,3.87-4.63,6.02-6.76,2.15-2.12,4.25-4.28,6.3-6.48,1.77-1.82,3.21-3.84,4.3-6.05,1.1-2.22,1.65-4.61,1.65-7.18,0-.93-.08-1.97-.24-3.11-.16-1.14-.47-2.26-.91-3.36-.44-1.1-1.05-2-1.82-2.7-.77-.7-1.76-1.05-2.98-1.05-1.35,0-2.58.36-3.68,1.08-1.1.72-1.97,1.67-2.62,2.83-.61,1.03-1.01,2.27-1.22,3.75-.21,1.47-.31,2.81-.31,4.02,0,.65-.32,1.18-.95,1.58-.63.4-1.34.68-2.13.84-.79.16-1.45.25-1.96.25-.89,0-1.76-.42-2.62-1.26-.86-.84-1.3-1.7-1.3-2.59,0-2.24.58-4.17,1.75-5.77,1.17-1.61,2.66-2.93,4.48-3.96,1.82-1.03,3.78-1.79,5.88-2.27,2.1-.49,4.08-.74,5.95-.74M239.75,32.72c-2.09,0-4.32.27-6.63.81-2.36.55-4.61,1.42-6.67,2.58-2.19,1.24-4.02,2.86-5.44,4.81-1.54,2.12-2.32,4.66-2.32,7.53,0,1.19.38,2.97,2.2,4.74,1.44,1.4,3.02,2.11,4.72,2.11.73,0,1.57-.1,2.57-.31,1.14-.23,2.2-.65,3.13-1.24,1.51-.95,2.35-2.41,2.35-4.11,0-1.07.1-2.28.28-3.6.15-1.07.43-1.96.84-2.64l.02-.03.02-.03c.42-.75.96-1.34,1.66-1.8.61-.4,1.25-.59,2.02-.59.66,0,.88.2.96.27.43.4.78.92,1.06,1.6.35.86.59,1.76.72,2.66.14,1,.21,1.9.21,2.69,0,2.12-.44,4.03-1.33,5.85-.95,1.92-2.22,3.7-3.76,5.29l-.02.02-.02.02c-2.01,2.15-4.1,4.3-6.22,6.39-2.23,2.21-4.34,4.57-6.27,7.04-1.59,1.99-2.91,3.98-3.91,5.89-1.11,2.14-1.73,4.7-1.84,7.61l-.12,3.23,3.23-.12c2.43-.09,4.88-.15,7.3-.17,2.48-.02,4.93-.04,7.29-.04,1.28,0,2.54-.01,3.77-.04,1.24-.02,2.47-.03,3.65-.03,1.27,0,2.58.04,3.89.13,1.42.1,2.89.15,4.37.15.94,0,1.71-.12,2.37-.37,1.2-.46,2.05-1.46,2.52-2.97.08-.23.22-.72.6-2.13.28-1.06.58-2.27.9-3.58.3-1.29.57-2.43.81-3.44.39-1.67.43-2.01.43-2.4,0-2.7-1.93-4.12-3.84-4.12-1.19,0-2.26.47-3.02,1.33-.28.31-.55.67-.81,1.06l-.02.03-.02.03c-.51.81-1.04,1.57-1.57,2.28-.38.5-.87.96-1.47,1.37-.86.55-1.72.91-2.63,1.11-1.08.24-2.21.38-3.37.42-2.75.05-5.48.11-8.06.17-.79.02-1.59.04-2.39.05.13-.15.27-.3.41-.44,1.36-1.43,2.87-2.75,4.47-3.92,1.7-1.25,3.48-2.48,5.27-3.66,1.91-1.26,3.8-2.64,5.59-4.1,2.77-2.26,5.08-4.86,6.88-7.74,1.93-3.09,2.91-6.64,2.91-10.55,0-3.35-.95-6.23-2.83-8.57-1.76-2.19-4.01-3.85-6.69-4.95-2.57-1.06-5.3-1.59-8.11-1.59h0Z"/>
      </g>
      <g>
        <path class="cls-5" d="M275.1,88.11c-.65,0-1.27-.21-1.81-.62-.66-.49-1.02-1.23-1.02-2.07,0-1.82,1.07-2.42,1.53-2.59.54-.2,1.16-.31,1.86-.31.4,0,.81.01,1.24.04.37.02.72.03,1.07.03.55,0,.78-.08.83-.11,0-.02.12-.29.12-.98,0-1.49-.01-2.96-.04-4.42-.02-.97-.03-1.94-.03-2.9h-16.77c-2.04,0-2.76-1.37-2.76-2.55,0-.72.23-1.39.67-1.96,1.06-1.89,2.19-3.77,3.34-5.59,1.16-1.84,2.33-3.69,3.5-5.56,2.36-3.84,4.72-7.77,7.01-11.66,2.29-3.89,4.67-7.81,7.05-11.65.78-1.28,2-1.97,3.51-1.97.54,0,1.09-.01,1.65-.03.6-.02,1.22-.04,1.85-.04.55,0,1.11.08,1.66.23,1.09.3,1.73,1.22,1.73,2.46v31.89h1.51c.71,0,1.23-.29,1.67-.93.67-.97,1.22-1.87,1.66-2.69.11-.27.23-.51.34-.71.36-.64,1.04-1,1.86-1,1.25,0,2.13.9,2.13,2.2,0,.24-.03.71-.22,2.16-.14,1.02-.28,2.07-.42,3.14-.14,1.05-.23,1.81-.27,2.26-.15,1.02-.73,1.7-1.56,1.88-.31.07-.64.1-.99.1h-5.74c.01.95.01,1.9,0,2.83-.02,1.42-.04,2.82-.04,4.21,0,.43.06.89.19,1.37.02,0,.04,0,.06,0,.59,0,1.17-.03,1.72-.1.66-.08,1.33-.11,1.99-.11.88,0,1.62.39,2.09,1.09.35.53.53,1.12.53,1.74s-.18,1.21-.53,1.74c-.47.7-1.21,1.09-2.09,1.09-.67,0-1.35-.01-2.05-.04-.7-.02-1.38-.06-2.05-.11-.98-.04-1.99-.07-2.98-.07h-3.15c-1.06,0-2.13.01-3.19.03-1.06.02-2.12.06-3.19.1-.52.04-1.1.08-1.68.1-.58.02-1.19.04-1.81.04ZM278.92,67.75v-17.33c-.51.82-1.07,1.73-1.66,2.7l-3.39,5.56c-1.17,1.91-2.25,3.7-3.25,5.35-.89,1.47-1.63,2.7-2.22,3.71h10.53Z"/>
        <path class="cls-6" d="M287.91,34.67c.42,0,.84.06,1.26.17.42.12.63.46.63,1.02v33.39h3.01c1.21,0,2.18-.52,2.9-1.58.72-1.05,1.32-2.02,1.79-2.9.09-.23.19-.43.28-.6.09-.16.28-.25.56-.25.42,0,.63.23.63.7,0,.28-.07.93-.21,1.96-.14,1.03-.28,2.08-.42,3.15-.14,1.07-.23,1.84-.28,2.31-.05.33-.18.51-.39.56-.21.05-.43.07-.67.07h-7.28c.05,1.45.06,2.88.04,4.31-.02,1.42-.04,2.83-.04,4.23,0,.61.09,1.24.28,1.89.19.65.68.98,1.47.98.65,0,1.28-.04,1.89-.1.61-.07,1.21-.1,1.82-.1.37,0,.65.14.84.42.19.28.28.58.28.91s-.09.63-.28.91c-.19.28-.47.42-.84.42-.65,0-1.32-.01-2-.04-.68-.02-1.34-.06-1.99-.1-1.03-.05-2.05-.07-3.08-.07h-3.15c-1.07,0-2.15.01-3.22.03-1.07.02-2.15.06-3.22.1-.56.05-1.12.08-1.68.1-.56.02-1.14.04-1.75.04-.33,0-.63-.1-.91-.31s-.42-.5-.42-.88c0-.65.19-1.05.56-1.19.37-.14.82-.21,1.33-.21.37,0,.76.01,1.15.03.4.02.78.04,1.15.04.98,0,1.63-.21,1.96-.63.33-.42.49-1.07.49-1.96,0-1.49-.01-2.98-.04-4.45-.02-1.47-.03-2.93-.03-4.38h-18.27c-.84,0-1.26-.35-1.26-1.05,0-.42.14-.79.42-1.12,1.07-1.91,2.19-3.79,3.36-5.63,1.17-1.84,2.33-3.7,3.5-5.56,2.38-3.87,4.73-7.77,7.03-11.69,2.31-3.92,4.66-7.79,7.04-11.62.51-.84,1.26-1.26,2.24-1.26.56,0,1.13-.01,1.71-.03.58-.02,1.18-.04,1.79-.04M266.21,69.25h14.21v-24.08c-.23.42-.76,1.27-1.58,2.56-.82,1.28-1.77,2.82-2.87,4.62-1.1,1.8-2.23,3.65-3.4,5.56-1.17,1.91-2.25,3.7-3.25,5.36-1,1.66-1.82,3.02-2.45,4.09-.63,1.07-.94,1.63-.94,1.68,0,.14.09.21.28.21M287.91,31.67c-.63,0-1.27.01-1.9.04-.53.02-1.06.03-1.6.03-2.03,0-3.74.96-4.8,2.7-2.38,3.83-4.76,7.76-7.06,11.66-2.29,3.88-4.64,7.8-7.01,11.64-1.15,1.84-2.32,3.69-3.48,5.53-1.15,1.81-2.27,3.69-3.33,5.57-.6.81-.92,1.77-.92,2.79,0,2.38,1.75,4.05,4.26,4.05h15.29c0,.48.01.96.02,1.42.02,1.33.03,2.67.03,3.98-.14,0-.28-.01-.42-.02-.47-.03-.91-.04-1.34-.04-.87,0-1.68.14-2.39.4-.59.22-2.51,1.16-2.51,4,0,1.31.59,2.5,1.62,3.27.8.6,1.74.92,2.71.92.63,0,1.26-.01,1.87-.04.58-.02,1.16-.06,1.74-.11.98-.04,2-.08,3.1-.1,1.05-.02,2.11-.03,3.15-.03h3.15c.95,0,1.93.02,2.91.07.68.05,1.37.08,2.06.11.73.02,1.43.04,2.1.04,1.37,0,2.59-.64,3.33-1.75.52-.78.79-1.67.79-2.58s-.27-1.8-.78-2.57c-.75-1.12-1.97-1.76-3.34-1.76-.72,0-1.45.04-2.16.12-.1.01-.2.02-.3.03,0-1.37.01-2.71.03-4,0-.45.01-.9.01-1.36h4.23c.45,0,.9-.05,1.32-.14,1.12-.24,2.43-1.18,2.7-3.06v-.07s.02-.07.02-.07c.04-.41.13-1.13.27-2.22.14-1.07.28-2.11.42-3.13.21-1.53.24-2.04.24-2.36,0-2.11-1.56-3.7-3.63-3.7-1.35,0-2.54.66-3.16,1.76-.14.24-.27.51-.39.81-.4.75-.92,1.58-1.54,2.48-.19.28-.26.28-.43.28h-.01v-30.39c0-1.89-1.11-3.43-2.82-3.9-.69-.19-1.38-.29-2.07-.29h0ZM271.03,66.25c.27-.45.56-.93.86-1.43,1-1.66,2.09-3.44,3.25-5.35l2.28-3.73v10.51h-6.39Z"/>
      </g>
      <g>
        <path class="cls-5" d="M332.4,93.71v-15.37c-.77,1.3-1.62,2.5-2.54,3.57-.51.56-1.17,1.24-2.04,2.12-.86.86-1.83,1.74-2.86,2.61-1.06.89-2.12,1.64-3.14,2.24-1.2.7-2.26,1.05-3.24,1.05-1.15,0-1.99-.84-1.99-1.99,0-.38.12-.95.69-1.52.03-.03.05-.05.07-.08l.03-.06.1-.13c1.13-1.39,2.19-3.16,3.16-5.25,1-2.15,1.88-4.42,2.63-6.73.75-2.31,1.31-4.38,1.67-6.14l.12-.58h-4.21v-6.08h11.55v-2.74h-12.39v-6.08h9.11l-2.4-2.5c-1.01-1.05-2-2.19-2.96-3.39l-1.29-1.61,1.93-.73c.38-.14.99-.36,1.83-.65.53-.18,1.09-.38,1.68-.58h-6.51v-6.29h11.11c-.28-1.13-.55-2.27-.79-3.4-.37-1.75-.71-3.56-.99-5.36l-.3-1.92,1.94.19c.45.05,1.22.1,2.29.17,1.09.07,2.28.14,3.56.21,1.29.07,2.44.14,3.45.21,1.49.1,2,.22,2.29.32.46.16.8.32,1.05.53.5.41.74,1.01.74,1.81,0,.56-.16,1.27-.51,2.25-.29.81-.64,1.71-1.05,2.68-.35.83-.7,1.6-1.03,2.32h1.34c.23-.87.65-1.65,1.24-2.33.96-1.09,2.3-1.66,3.89-1.66,1.34,0,2.56.46,3.63,1.37.57.49,1.01,1.06,1.29,1.69l-.03-1.2,8.28.83c2.16-1.05,4.3-2.21,6.36-3.46,2.2-1.33,4.4-2.73,6.52-4.16l.77-.52.81.47c.34.2.94.57,1.79,1.13.83.55,1.7,1.14,2.6,1.78.94.67,1.77,1.34,2.45,2,.65.63,1.4,1.48,1.4,2.48s-.42,1.79-1.19,2.3c-.46.31-.95.54-1.46.67-.83.31-1.7.51-2.59.62l-2.38.28c-2.16.32-4.41.6-6.65.81-1.75.17-3.51.3-5.26.39v5.78c0,1.85-.01,3.74-.04,5.64h11.01c.23-1.08.68-2.08,1.35-2.97,1.05-1.4,2.62-2.14,4.52-2.14,1.42,0,2.76.5,3.99,1.49,1.3,1.05,1.99,2.44,1.99,4,0,1.69-.64,3.13-1.86,4.16-1.16.98-2.55,1.47-4.12,1.47h-4.45v35.7h-11.26v-35.7h-1.21c-.05,3.42-.27,6.68-.67,9.72-.46,3.58-1.5,7-3.09,10.14-1.6,3.18-4.12,6.21-7.49,8.99-.45.4-1.27.96-2.46,1.67-1.14.68-2.32,1.29-3.51,1.83-1.37.62-2.38.9-3.17.9-1.46,0-2.13-1.03-2.13-1.99,0-.55.24-1.08.72-1.55,1.56-1.42,2.86-2.65,3.92-3.71.83-.83,1.66-1.95,2.48-3.34-.7-.07-1.5-.35-2.45-.86-.91-.49-1.88-1.1-2.86-1.82-.68-.5-1.34-.99-1.96-1.48v17.48h-10.84ZM348.68,68.23c.09.24.3.76.83,1.89.44.96.92,2,1.44,3.12.51,1.11.96,2.07,1.35,2.87.06.12.11.22.16.32.52-1.32.93-2.67,1.23-4.05.56-2.59.92-5.27,1.05-7.95.12-2.35.19-4.69.2-6.99-.07.05-.14.11-.22.16-1.02.68-2.16,1.02-3.39,1.02h-1.03c.7.22,1.33.6,1.88,1.15.88.89,1.35,2,1.35,3.23,0,1.94-.93,2.97-1.72,3.49-.95.63-2.05.95-3.28.95h-.15l.29.77ZM343.24,69.33l3.28-1.87h-3.28v1.87ZM332.4,68.36v-.9h-3.43l3.43.9ZM344.87,61.38c.25-.52.58-1.02,1-1.49.53-.6,1.16-1.02,1.84-1.25h-4.47v2.74h1.63ZM346.93,52.56c.09-.26.2-.51.34-.75-.3.25-.6.5-.9.75h.56ZM338.05,52.56c.48-1.55.94-3.09,1.37-4.62.45-1.57.87-3.2,1.27-4.84h-4.81c.1.27.17.57.21.9.19.98.29,2.02.29,2.99v2.8c0,.81-.11,1.68-.32,2.61-.01.05-.03.11-.04.16h2.03ZM351.68,49.27c1.21,0,2.3.42,3.22,1.25-.02-1.39-.04-2.78-.07-4.16-.05-2.24-.1-4.48-.16-6.71-.29.74-.76,1.41-1.41,1.99-1.1.97-2.36,1.46-3.76,1.46h-.4c.56.22,1.12.46,1.65.71l.06.03.06.03c.79.45,1.24,1.18,1.24,2s-.46,1.71-1.49,2.81c-.31.33-.66.68-1.02,1.03.65-.29,1.33-.44,2.06-.44Z"/>
        <path class="cls-6" d="M332.22,27.81c.47.05,1.25.1,2.35.17,1.1.07,2.29.14,3.57.21,1.28.07,2.43.14,3.43.21,1,.07,1.65.15,1.92.25.28.09.48.19.6.28.12.09.17.3.17.63,0,.37-.14.96-.42,1.75-.28.79-.62,1.66-1.02,2.59-.4.93-.78,1.8-1.15,2.59-.37.79-.65,1.4-.84,1.82h4.97c.05-1.12.41-2.06,1.08-2.83.68-.77,1.6-1.16,2.77-1.16.98,0,1.87.34,2.66,1.02.79.68,1.19,1.53,1.19,2.56s-.41,1.9-1.23,2.62c-.82.72-1.74,1.08-2.77,1.08h-26.6v-3.29h11.55c-.47-1.73-.89-3.47-1.26-5.22-.37-1.75-.7-3.51-.98-5.28M376.53,29.14c.33.19.9.55,1.71,1.08.82.54,1.67,1.12,2.56,1.75.89.63,1.65,1.25,2.27,1.85.63.61.94,1.07.94,1.4,0,.47-.17.82-.52,1.05-.35.23-.71.4-1.08.49-.75.28-1.52.47-2.31.56-.79.09-1.59.19-2.38.28-2.19.33-4.4.6-6.61.81-2.22.21-4.42.36-6.62.46v7.21c0,2.38-.02,4.76-.07,7.14h13.86c.05-1.35.46-2.54,1.23-3.57.77-1.03,1.88-1.54,3.32-1.54,1.07,0,2.09.39,3.05,1.16.96.77,1.43,1.71,1.43,2.83,0,1.26-.44,2.26-1.33,3.01-.89.75-1.94,1.12-3.15,1.12h-5.95v35.7h-8.26v-35.7h-4.2c0,3.92-.22,7.59-.67,11.02-.44,3.43-1.42,6.65-2.94,9.66-1.52,3.01-3.89,5.84-7.1,8.5-.42.37-1.18.89-2.28,1.54-1.1.65-2.22,1.24-3.36,1.75-1.14.51-2,.77-2.56.77-.42,0-.63-.16-.63-.49,0-.14.09-.3.28-.49,1.54-1.4,2.85-2.64,3.92-3.71,1.07-1.07,2.12-2.54,3.15-4.41,1.35-2.43,2.32-4.98,2.9-7.67.58-2.68.95-5.41,1.09-8.19.14-2.78.21-5.52.21-8.23,0-3.31-.04-6.64-.1-9.98-.07-3.34-.15-6.66-.25-9.97l7,.7c2.33-1.12,4.62-2.36,6.86-3.71,2.24-1.35,4.43-2.75,6.58-4.2M342.37,42.51c1.31.37,2.62.77,3.96,1.19,1.33.42,2.6.91,3.81,1.47.33.19.49.42.49.7,0,.42-.36,1.01-1.08,1.78-.72.77-1.59,1.59-2.59,2.45-1,.86-1.97,1.66-2.9,2.38-.93.72-1.59,1.25-1.96,1.58h6.09c0-.93.36-1.72,1.08-2.35.72-.63,1.53-.94,2.42-.94s1.67.33,2.35.98c.68.65,1.01,1.42,1.01,2.31,0,1.03-.38,1.8-1.15,2.31-.77.51-1.62.77-2.56.77h-9.59v5.74h4.2c.14-.7.49-1.36,1.05-2,.56-.63,1.21-.94,1.96-.94.84,0,1.56.3,2.17.91.61.61.91,1.33.91,2.17,0,1.03-.35,1.77-1.05,2.24-.7.47-1.52.7-2.45.7h-6.79v5.95l5.53-3.15c.14.37.43,1.04.88,2,.44.96.92,2,1.44,3.12.51,1.12.97,2.09,1.37,2.9.4.82.59,1.27.59,1.37,0,.51-.23.77-.7.77-.51,0-1.2-.23-2.06-.7-.86-.47-1.76-1.04-2.7-1.71-.93-.68-1.8-1.34-2.59-2-.79-.65-1.38-1.17-1.75-1.54v19.25h-7.84v-20.23c-.65,1.54-1.41,3.1-2.27,4.69-.86,1.59-1.83,3.01-2.91,4.27-.47.51-1.12,1.19-1.96,2.03-.84.84-1.76,1.68-2.77,2.52-1,.84-1.98,1.54-2.94,2.1-.96.56-1.79.84-2.48.84-.33,0-.49-.16-.49-.49,0-.14.08-.29.25-.46.16-.16.27-.29.31-.38,1.21-1.49,2.33-3.35,3.36-5.57,1.03-2.22,1.92-4.51,2.69-6.89.77-2.38,1.34-4.48,1.71-6.3l7.49,1.96v-4.34h-11.55v-3.08h11.55v-5.74h-12.39v-3.08h17.64c.61-1.91,1.18-3.81,1.71-5.71.54-1.89,1.04-3.84,1.5-5.85M333.48,43c.42,0,.7.1.84.31s.23.5.28.88c.19.98.28,1.91.28,2.8v2.8c0,.7-.09,1.46-.28,2.27-.19.82-.75,1.23-1.68,1.23-.42,0-.81-.1-1.16-.31s-.67-.48-.94-.81c-1.03-1.07-2.03-2.12-3.01-3.15-.98-1.03-1.94-2.12-2.87-3.29.37-.14.97-.35,1.78-.63.82-.28,1.69-.58,2.62-.91.93-.33,1.79-.61,2.56-.84.77-.23,1.29-.35,1.58-.35M328.65,24.44l.61,3.84c.29,1.83.63,3.66,1.01,5.44.11.53.23,1.06.35,1.59h-10.71v9.29h.29l2.4,3c.97,1.22,1.99,2.38,3.01,3.46h-7.1v9.08h.84v8.82h3.85c-.34,1.42-.79,3.02-1.36,4.76-.73,2.25-1.59,4.46-2.56,6.56-.92,1.98-1.92,3.64-2.97,4.93l-.2.25h0c-.85.91-1.02,1.84-1.02,2.48,0,1.99,1.5,3.49,3.49,3.49,1.25,0,2.56-.41,4-1.25,1.1-.64,2.22-1.45,3.35-2.39,1.07-.9,2.07-1.81,2.96-2.7.87-.87,1.53-1.55,2.02-2.09v12.21h13.84v-2.8c.25.05.51.07.78.07,1.02,0,2.19-.32,3.78-1.03,1.25-.56,2.48-1.2,3.67-1.91,1.26-.75,2.11-1.33,2.69-1.84,3.51-2.91,6.14-6.08,7.84-9.44.87-1.72,1.58-3.51,2.13-5.37v22.03h14.26v-35.7h2.95c1.93,0,3.64-.61,5.08-1.83,1.57-1.32,2.4-3.16,2.4-5.3,0-2.04-.88-3.83-2.55-5.17-1.5-1.21-3.16-1.82-4.93-1.82-2.4,0-4.38.95-5.72,2.74-.55.73-.98,1.53-1.28,2.37h-8.36c.02-1.39.02-2.78.02-4.14v-4.37c1.3-.08,2.6-.19,3.9-.31,2.25-.21,4.51-.49,6.73-.82l2.34-.27c.98-.11,1.94-.34,2.87-.68.64-.18,1.26-.47,1.85-.86,1.18-.78,1.86-2.08,1.86-3.54,0-1.56-1-2.72-1.86-3.56-.74-.71-1.62-1.43-2.62-2.14-.9-.64-1.79-1.25-2.65-1.81-.87-.57-1.49-.96-1.87-1.18l-1.62-.93-1.55,1.04c-2.1,1.42-4.27,2.8-6.45,4.12-1.9,1.15-3.87,2.23-5.86,3.21l-6.15-.62-2-.2s-.08-.07-.13-.11c-1.33-1.13-2.93-1.73-4.61-1.73-1.03,0-1.99.19-2.84.57.31-.95.45-1.68.45-2.33,0-1.58-.7-2.48-1.28-2.96-.43-.34-.91-.59-1.53-.8-.48-.16-1.11-.29-2.67-.39-1.02-.07-2.18-.14-3.48-.21-1.28-.07-2.46-.14-3.54-.21-1.06-.07-1.81-.12-2.24-.17l-3.87-.39h0ZM352.93,43.71c.12-.06.23-.13.34-.2,0,.27.01.54.02.81-.1-.21-.22-.42-.36-.61h0ZM337.71,44.6h1.06c-.25.99-.52,1.98-.79,2.94-.03.12-.07.23-.1.35v-.89c0-.77-.06-1.57-.17-2.39h0ZM353.08,47.93c.1-.19.2-.4.28-.6,0,.23,0,.45.01.68-.1-.03-.19-.05-.29-.07h0ZM350.51,68.71c.76-.2,1.48-.52,2.14-.96.11-.07.22-.15.33-.23-.18,1.54-.43,3.06-.76,4.56-.02.08-.03.15-.05.23-.46-1-.89-1.94-1.3-2.81-.14-.31-.26-.56-.36-.78h0ZM344.74,84.82v-5.59c.89.63,1.77,1.17,2.61,1.63.28.15.55.28.81.4-.4.55-.8,1.02-1.19,1.42-.65.65-1.4,1.37-2.23,2.15h0Z"/>
      </g>
      <g>
        <path class="cls-5" d="M416.36,93.22c-1.51,0-2.2-1.03-2.2-1.99,0-.76.31-1.41.88-1.83.41-.31.82-.63,1.23-.94h-21.38l.19-18.25c-.96.68-1.94,1.31-2.93,1.88-1.31.76-2.32,1.11-3.17,1.11-1.19,0-2.06-.84-2.06-1.99,0-.5.19-.98.57-1.43.05-.06.09-.1.11-.14l.09-.18.1-.1c2.41-2.69,4.68-5.63,6.72-8.75,1.61-2.45,3.04-4.99,4.26-7.58h-10.31v-6.23h1.52c-.08-.2-.12-.42-.12-.66,0-.62.24-1.23.72-1.88,1.67-2.55,3.21-5.35,4.53-8.23,1.32-2.89,2.45-5.87,3.36-8.88l.38-1.26,1.3.22c.21.04.63.12,1.83.45.84.23,1.73.48,2.68.73.98.26,1.87.53,2.65.8,1.21.42,1.62.67,1.9.95.43.43.65,1.02.65,1.76s-.32,1.57-1.01,2.64c-.38.58-.78,1.17-1.21,1.74h6.51c.27-.74.72-1.38,1.35-1.9.95-.79,2.06-1.18,3.3-1.18,1.17,0,2.3.41,3.36,1.22,1.17.89,1.78,2.08,1.78,3.43,0,1.84-.82,2.93-1.5,3.52-.93.8-2.08,1.2-3.43,1.2h-3.36c-.44,1.15-.92,2.29-1.44,3.4-.31.67-.64,1.33-.99,2h2.26c.29-.68.74-1.3,1.34-1.87,1.01-.94,2.14-1.42,3.37-1.42s2.39.43,3.45,1.27c.3.24.56.5.79.78.09-.29.19-.58.27-.88.87-2.86,1.61-5.82,2.2-8.78.6-2.98,1.06-5.84,1.38-8.5l.2-1.69,12.58,3.19-.49,1.52c-.76,2.37-1.63,4.73-2.6,7.02-.65,1.53-1.36,3.05-2.12,4.53h17.72c1.53,0,2.55.97,2.55,2.41,0,.31-.07.65-.22,1.1l-.03.08-.03.08c-.54,1.18-1.35,2.61-2.41,4.25-1.05,1.62-2.18,3.2-3.38,4.7-1.22,1.54-2.35,2.75-3.35,3.61-.3.24-.62.47-1,.71-.57.37-1.17.55-1.79.55-.14,0-.27,0-.39-.03.26,1.32.6,2.8,1.01,4.42.65,2.56,1.42,5.24,2.29,7.96.87,2.72,1.82,5.3,2.82,7.68.66,1.56,1.32,2.92,1.98,4.07.76-.47,1.65-.72,2.66-.72,1.32,0,2.48.45,3.44,1.35.98.91,1.49,2.1,1.49,3.44,0,1.45-.64,2.7-1.86,3.62-1.1.83-2.3,1.24-3.56,1.24-1.17,0-2.41-.41-3.67-1.21-1.1-.7-2.02-1.39-2.74-2.06-2.48-2.43-4.78-5.34-6.87-8.67-1.27-2.03-2.35-4.06-3.22-6.08-1.14,2.8-2.61,5.47-4.4,7.97-2.65,3.71-6.09,6.61-10.22,8.63-.41.2-.99.46-1.77.78-.78.32-1.57.6-2.36.85-.9.28-1.62.42-2.2.42ZM406.81,82.45v-3.65h-1.62v3.65h1.62ZM417.16,81.62c.19-.26.41-.5.66-.72.84-.73,1.83-1.11,2.95-1.11.92,0,1.85.39,2.76,1.16.06.05.12.11.18.16,1.16-1.71,2.12-3.57,2.87-5.54,1.08-2.84,1.9-5.83,2.45-8.9.55-3.1.92-6.27,1.1-9.42.12-2.17.21-4.29.25-6.33-.47.55-.96,1.12-1.48,1.7-.92,1.04-1.81,1.95-2.65,2.69-.49.43-.93.76-1.34.99.32.17.63.39.92.65.93.82,1.42,1.88,1.42,3.05,0,1.23-.51,2.32-1.47,3.14-.9.77-1.95,1.16-3.11,1.16h-.61c.37.18.74.42,1.09.71,1.19,1.01,1.44,2.13,1.44,2.9,0,1.22-.51,2.25-1.47,2.98-.27.2-.55.38-.85.52.29.14.57.32.84.52.96.73,1.47,1.71,1.47,2.84s-.45,2.12-1.29,2.89c-.81.74-1.8,1.13-2.87,1.13h-3.26v2.82ZM406.81,72.65v-.78h-1.62v.78h1.62ZM417.16,72.31c.14-.15.31-.3.51-.44h-.51v.44ZM406.81,65.72v-1.41h-1.62v1.41h1.62ZM417.16,65.28c.22-.24.48-.46.78-.65.19-.12.38-.22.57-.31h-1.34v.97ZM418.9,58.16c.09-.18.2-.35.32-.51-.21.17-.43.34-.65.51h.33ZM408.21,58.16c.22-.84.42-1.67.6-2.48.1-.41.19-.82.28-1.22-.44.72-.89,1.42-1.37,2.11-.37.53-.75,1.06-1.12,1.59h1.61ZM421.18,55.2c-.08.42-.25.81-.51,1.15.3-.17.61-.3.93-.4-.2-.22-.34-.47-.42-.75ZM441.87,48.86c-.05,1.59-.13,3.21-.25,4.79-.06.85-.14,1.71-.22,2.58l.18-.05c.03-.26.07-.52.13-.78.08-.39.15-.78.19-1.15l.57-3.86c.1-.7.18-1.4.24-2.1h-.81l-.02.58ZM420.56,53.04c.29.28.49.63.59,1.01.04-.23.11-.47.2-.69.05-.13.1-.25.15-.36-.21.03-.43.04-.65.04h-.29ZM401.2,46.89c.41-1.05.79-2.1,1.14-3.14.25-.74.5-1.5.73-2.25h-.5c-.41.35-.95.79-1.62,1.32-.92.74-1.95,1.5-3.05,2.26-.98.68-1.93,1.28-2.82,1.78l6.13.04Z"/>
        <path class="cls-6" d="M399.91,27.6c.28.05.84.19,1.68.42.84.23,1.74.48,2.7.73.96.26,1.81.51,2.55.77.75.26,1.19.46,1.33.6.14.14.21.37.21.7,0,.42-.26,1.03-.77,1.82-.51.79-1.07,1.57-1.68,2.34-.61.77-1.05,1.34-1.33,1.71h10.78c.05-.93.41-1.68,1.08-2.24.68-.56,1.46-.84,2.34-.84.84,0,1.66.3,2.45.91.79.61,1.19,1.35,1.19,2.24,0,1.03-.33,1.82-.98,2.38-.65.56-1.47.84-2.45.84h-4.41c-.51,1.45-1.1,2.87-1.75,4.27s-1.38,2.78-2.17,4.13h5.95c.09-.84.5-1.6,1.23-2.28.72-.68,1.5-1.01,2.34-1.01.89,0,1.73.31,2.52.94.79.63,1.19,1.41,1.19,2.35s-.28,1.63-.84,2.24c-.56.61-1.31.91-2.24.91h-11.83c-.75,1.45-1.59,2.83-2.52,4.17-.93,1.33-1.87,2.65-2.8,3.95h5.67c.33-1.21.63-2.43.91-3.64.28-1.21.56-2.4.84-3.57.93.14,1.86.29,2.77.46.91.16,1.81.34,2.69.52.37.05.82.1,1.33.18.51.07.96.17,1.33.31.33.14.49.4.49.77,0,.42-.19.77-.56,1.05-.79.7-1.63,1.35-2.52,1.96-.89.61-1.73,1.26-2.52,1.96h5.81c.14-.65.48-1.21,1.01-1.68.54-.47,1.16-.7,1.86-.7.75,0,1.42.27,2.03.81.61.54.91,1.18.91,1.92,0,.79-.32,1.46-.95,2-.63.54-1.34.81-2.13.81h-7v4.41h2.17c.09-.56.4-1,.91-1.33.51-.33,1.03-.49,1.54-.49.65,0,1.28.26,1.89.77.61.51.91,1.1.91,1.75,0,.75-.29,1.34-.88,1.79-.58.44-1.25.67-2,.67h-4.55v3.78h2.17c.09-.51.42-.92.98-1.23.56-.3,1.07-.46,1.54-.46.65,0,1.27.22,1.86.67.58.44.88.99.88,1.65,0,.7-.27,1.29-.81,1.79-.54.49-1.15.73-1.85.73h-4.76v6.65h2.17c.09-.79.42-1.43.98-1.92.56-.49,1.21-.73,1.96-.73.56,0,1.16.27,1.79.8.63.54.97,1.08,1.01,1.65l-.21.35c1.96-2.38,3.5-5.04,4.62-7.98s1.96-6,2.52-9.17c.56-3.17.93-6.37,1.12-9.59.19-3.22.28-6.3.28-9.24l8.47.7c-.05,1.59-.13,3.16-.25,4.72-.12,1.56-.27,3.14-.46,4.73l2.03-.56c.28,1.82.75,4.03,1.4,6.62.65,2.59,1.42,5.27,2.31,8.05.89,2.78,1.84,5.38,2.87,7.81,1.03,2.43,2.05,4.39,3.08,5.88.65-1.07,1.63-1.61,2.94-1.61.93,0,1.74.31,2.42.94.68.63,1.01,1.41,1.01,2.35,0,.98-.42,1.79-1.26,2.42s-1.73.94-2.66.94-1.84-.33-2.87-.98c-1.03-.65-1.87-1.28-2.52-1.89-2.38-2.33-4.58-5.12-6.62-8.36-2.03-3.24-3.54-6.45-4.51-9.62h-.07c-1.17,4.11-3.01,7.92-5.53,11.44-2.52,3.52-5.74,6.24-9.66,8.16-.37.19-.93.43-1.68.73-.75.3-1.49.57-2.24.81-.75.23-1.33.35-1.75.35-.47,0-.7-.16-.7-.49,0-.28.09-.49.28-.63.79-.61,1.58-1.2,2.35-1.79.77-.58,1.53-1.2,2.27-1.85h-24.15l.21-19.74c-.42.33-1.13.85-2.13,1.58-1,.72-2.03,1.39-3.08,2-1.05.61-1.85.91-2.42.91-.37,0-.56-.16-.56-.49,0-.14.07-.29.21-.46.14-.16.23-.29.28-.38,2.47-2.75,4.76-5.73,6.86-8.93,2.1-3.2,3.87-6.5,5.32-9.9h-11.13v-3.22l12.25.07c.56-1.4,1.07-2.79,1.54-4.17.47-1.38.91-2.79,1.33-4.24h-3.08c-.42.37-1.08.92-2,1.65-.91.72-1.9,1.46-2.98,2.21-1.07.75-2.09,1.38-3.04,1.89-.96.51-1.69.77-2.21.77-.28,0-.42-.12-.42-.35,0-.28.14-.61.42-.98,1.77-2.71,3.34-5.54,4.69-8.5,1.35-2.96,2.5-5.99,3.43-9.06M403.69,67.22h4.62v-4.41h-4.62v4.41M403.69,74.15h4.62v-3.78h-4.62v3.78M403.69,83.95h4.62v-6.65h-4.62v6.65M429.8,27.67l9.38,2.38c-.75,2.33-1.6,4.63-2.55,6.9-.96,2.26-2.04,4.47-3.25,6.62h20.23c.7,0,1.05.3,1.05.91,0,.14-.05.35-.14.63-.51,1.12-1.28,2.47-2.31,4.06-1.03,1.59-2.12,3.12-3.29,4.59-1.17,1.47-2.22,2.6-3.15,3.4-.23.19-.51.38-.84.59-.33.21-.65.31-.98.31-.61,0-.91-.35-.91-1.05,0-.42.05-.85.14-1.29.09-.44.16-.88.21-1.3.19-1.26.37-2.53.56-3.81.19-1.28.3-2.55.35-3.81h-12.53c-.28.42-.79,1.08-1.54,2-.75.91-1.56,1.87-2.45,2.87-.89,1-1.73,1.85-2.52,2.55-.79.7-1.4,1.05-1.82,1.05-.19,0-.37-.06-.56-.18-.19-.12-.28-.27-.28-.45,0-.23.05-.47.14-.7.09-.23.19-.44.28-.63,1.21-2.47,2.26-5.17,3.15-8.08.89-2.92,1.63-5.89,2.24-8.93.61-3.03,1.07-5.9,1.4-8.61M427.24,23.92l-.41,3.39c-.32,2.62-.78,5.44-1.36,8.38-.02.1-.04.2-.06.3-.21-1.5-1.01-2.84-2.31-3.84-1.33-1.01-2.77-1.53-4.27-1.53s-3.05.53-4.26,1.53c-.54.45-.99.97-1.33,1.55h-2.74c.61-1.07.9-2,.9-2.88,0-1.43-.59-2.32-1.09-2.82-.52-.52-1.17-.86-2.47-1.31-.82-.28-1.74-.56-2.75-.83-.95-.25-1.84-.5-2.67-.73-1.25-.35-1.71-.44-1.99-.49l-2.6-.44-.77,2.52c-.89,2.94-2,5.86-3.29,8.69-1.28,2.79-2.76,5.5-4.43,8.04-.44.61-.73,1.23-.86,1.85h-1.49s0,3.01,0,3.01v6.22h9.39c-.93,1.79-1.97,3.55-3.09,5.26-2.01,3.05-4.22,5.94-6.58,8.57l-.27.3-.09.17c-.75.9-.9,1.78-.9,2.37,0,1.99,1.53,3.49,3.56,3.49,1.12,0,2.37-.42,3.92-1.31.22-.13.43-.25.65-.38l-.15,13.93-.03,3.03h19.49c-.13.4-.21.83-.21,1.27,0,1.69,1.3,3.49,3.7,3.49.74,0,1.58-.15,2.64-.49.83-.26,1.66-.56,2.47-.89.82-.34,1.44-.61,1.89-.83,4.34-2.12,7.97-5.18,10.77-9.1,1.21-1.7,2.29-3.47,3.22-5.31.58,1.11,1.22,2.22,1.92,3.33,2.14,3.43,4.52,6.43,7.06,8.92l.03.03.03.03c.79.74,1.76,1.46,2.95,2.22,1.51.96,3.02,1.45,4.48,1.45,1.59,0,3.09-.52,4.46-1.54,1.59-1.19,2.46-2.9,2.46-4.82,0-1.77-.68-3.34-1.97-4.54-1.23-1.15-2.77-1.75-4.46-1.75-.71,0-1.37.1-2,.29-.42-.82-.84-1.73-1.26-2.73-.99-2.34-1.92-4.88-2.77-7.55-.86-2.69-1.62-5.34-2.26-7.87-.25-.97-.46-1.89-.66-2.75.41-.13.8-.32,1.19-.57.42-.27.77-.52,1.09-.77l.04-.03.04-.03c1.09-.93,2.26-2.18,3.56-3.82,1.22-1.54,2.39-3.16,3.46-4.82,1.12-1.73,1.94-3.18,2.52-4.44l.07-.15.05-.16c.2-.6.29-1.1.29-1.57,0-2.27-1.7-3.91-4.05-3.91h-15.3c.38-.81.75-1.63,1.09-2.45.99-2.34,1.88-4.74,2.65-7.15l.97-3.04-3.09-.78-9.38-2.38-3.31-.84h0ZM422.01,42.35c.51-.24.98-.55,1.41-.92.32-.28.67-.64.98-1.09-.23.91-.48,1.82-.73,2.71-.54-.31-1.09-.55-1.66-.71h0ZM416.68,42.99h.37c-.17.1-.34.21-.5.33.05-.11.09-.22.14-.33h0ZM400.06,45.38c.05-.04.11-.08.16-.12-.01.04-.03.08-.04.12h-.12ZM427.34,56.36c.45-.41.92-.85,1.4-1.34-.03.71-.07,1.44-.11,2.16-.03.44-.06.89-.09,1.33-.22-.79-.63-1.51-1.2-2.15h0ZM425.3,65.23c.51-.24,1-.55,1.45-.94.59-.5,1.05-1.08,1.39-1.71-.16,1.29-.36,2.57-.58,3.84-.41,2.32-.99,4.6-1.72,6.79-.22-.66-.58-1.26-1.07-1.8.86-.95,1.32-2.16,1.32-3.5,0-.74-.16-1.71-.78-2.7h0Z"/>
      </g>
    </g>
    <g>
      <path class="cls-5" d="M49.19,3.1C34.92,12.26,19.45,19.56,3.47,24.55c-.28.09-.47.35-.47.65.87,39.58,18.35,67.91,46.1,92.14.25.22.63.22.88,0,27.75-24.23,45.23-52.55,46.1-92.14,0-.29-.18-.56-.47-.65-15.98-4.99-31.46-12.29-45.72-21.45-.22-.14-.49-.14-.71,0"/>
      <path class="cls-7" d="M64.91,35.64c7.39,3.49,17.37,6.5,29.22,9.34,1.14-6.28,1.8-12.85,1.95-19.78,0-.29-.18-.56-.47-.65-15.98-4.99-31.46-12.29-45.72-21.45-.11-.07-.23-.1-.35-.1v114.5c.16,0,.31-.05.44-.16,5.23-4.57,10.1-9.28,14.56-14.19V35.88c0-.19.2-.32.37-.24"/>
      <path class="cls-4" d="M49.1,117.34c.13.11.28.16.44.16V3c-.12,0-.25.03-.36.1C34.92,12.26,19.45,19.56,3.47,24.55c-.28.09-.47.35-.47.65.15,6.92.81,13.5,1.95,19.77,11.85-2.84,21.83-5.85,29.22-9.34.18-.08.37.05.37.24v67.27c4.46,4.91,9.33,9.62,14.56,14.19"/>
    </g>
  </g>
</svg>