<?xml version="1.0" encoding="UTF-8"?>
<svg id="_レイヤー_2" xmlns="http://www.w3.org/2000/svg" version="1.1" viewBox="0 0 460.7 120.5">
  <!-- Generator: Adobe Illustrator 29.1.0, SVG Export Plug-In . SVG Version: 2.1.0 Build 142)  -->
  <defs>
    <style>
      .st0, .st1 {
        fill: #6b8fc3;
      }

      .st2 {
        fill: #fff;
      }

      .st3, .st1, .st4 {
        stroke: #fff;
        stroke-linejoin: round;
        stroke-width: 6px;
      }

      .st3, .st5 {
        fill: #150301;
      }

      .st4, .st6 {
        fill: #4060a4;
      }
    </style>
  </defs>
  <g>
    <path class="st3" d="M49.2,3.1C34.9,12.3,19.5,19.6,3.5,24.6c-.3,0-.5.4-.5.6.9,39.6,18.4,67.9,46.1,92.1.2.2.6.2.9,0,27.7-24.2,45.2-52.6,46.1-92.1,0-.3-.2-.6-.5-.6-16-5-31.5-12.3-45.7-21.5-.2-.1-.5-.1-.7,0"/>
    <path class="st4" d="M64.9,35.6c7.4,3.5,17.4,6.5,29.2,9.3,1.1-6.3,1.8-12.9,1.9-19.8,0-.3-.2-.6-.5-.6-16-5-31.5-12.3-45.7-21.5-.1,0-.2,0-.3,0v114.5c.2,0,.3,0,.4-.2,5.2-4.6,10.1-9.3,14.6-14.2V35.9c0-.2.2-.3.4-.2"/>
    <path class="st1" d="M49.1,117.3c.1.1.3.2.4.2V3c-.1,0-.2,0-.4,0C34.9,12.3,19.5,19.6,3.5,24.6c-.3,0-.5.4-.5.6.2,6.9.8,13.5,1.9,19.8,11.8-2.8,21.8-5.8,29.2-9.3.2,0,.4,0,.4.2v67.3c4.5,4.9,9.3,9.6,14.6,14.2"/>
  </g>
  <g>
    <path class="st5" d="M49.2,3.1C34.9,12.3,19.5,19.6,3.5,24.6c-.3,0-.5.4-.5.6.9,39.6,18.4,67.9,46.1,92.1.2.2.6.2.9,0,27.7-24.2,45.2-52.6,46.1-92.1,0-.3-.2-.6-.5-.6-16-5-31.5-12.3-45.7-21.5-.2-.1-.5-.1-.7,0"/>
    <path class="st6" d="M64.9,35.6c7.4,3.5,17.4,6.5,29.2,9.3,1.1-6.3,1.8-12.9,1.9-19.8,0-.3-.2-.6-.5-.6-16-5-31.5-12.3-45.7-21.5-.1,0-.2,0-.3,0v114.5c.2,0,.3,0,.4-.2,5.2-4.6,10.1-9.3,14.6-14.2V35.9c0-.2.2-.3.4-.2"/>
    <path class="st0" d="M49.1,117.3c.1.1.3.2.4.2V3c-.1,0-.2,0-.4,0C34.9,12.3,19.5,19.6,3.5,24.6c-.3,0-.5.4-.5.6.2,6.9.8,13.5,1.9,19.8,11.8-2.8,21.8-5.8,29.2-9.3.2,0,.4,0,.4.2v67.3c4.5,4.9,9.3,9.6,14.6,14.2"/>
  </g>
  <g>
    <g>
      <path class="st5" d="M171.7,89.7c-2.8-.2-5.5-.4-9.8-.4h-21.2c-5,0-6.1,0-8.3.3,0,0-.1,0-.2,0-.4,0-.8-.2-1.1-.4-.3-.3-.5-.8-.4-1.2.4-3.9.9-6.3,1.8-8.8,1.9-5,4.9-9.4,9.4-13.5,2.4-2.2,4.5-3.7,11-8.1,6.2-4.3,7.2-6,7.2-8.4,0-3.6-2.8-5.8-7.6-5.8s-5.7,1.1-7.1,3.2c-1,1.4-1.4,2.6-1.8,5.5-.1.7-.8,1.3-1.5,1.3s-.1,0-.2,0l-9.4-1.1c-.4,0-.8-.3-1-.6-.2-.3-.3-.8-.3-1.2,1-5.2,2.2-8.2,4.9-11.3,3.6-4.2,9.2-6.4,16.2-6.4,12.4,0,20.2,6.2,20.2,16.1s-1.6,8.3-5.2,11.6c-2,1.8-2.8,2.5-11.3,8.3-2.8,2-6,4.7-7.6,6.4-1.2,1.3-1.9,2.2-2.5,3.4h16.1c3.9,0,7.2-.2,9.4-.5,0,0,.1,0,.2,0,.4,0,.7.1,1,.4.3.3.5.7.5,1.1v8.7c0,.4-.2.8-.5,1.1-.3.3-.6.4-1,.4s0,0-.1,0Z"/>
      <path class="st2" d="M152.4,34.3c11.5,0,18.7,5.5,18.7,14.6s-1.5,7.5-4.7,10.5c-1.8,1.7-2.5,2.2-11.1,8.1-2.9,2-6.2,4.8-7.8,6.6-2,2.1-2.8,3.4-3.8,5.9h18.5c4.2,0,7.4-.2,9.6-.5v8.7c-3.1-.3-5.7-.4-10-.4h-21.2c-5.1,0-6.2,0-8.5.3.4-3.8.9-6.1,1.7-8.4,1.8-4.8,4.7-9,9-12.9,2.3-2,4.3-3.6,10.9-8,6.1-4.2,7.9-6.3,7.9-9.7s-3.5-7.3-9.1-7.3-6.7,1.3-8.4,3.9c-1.1,1.6-1.6,3-2,6.1l-9.4-1.1c.9-5,2.1-7.7,4.5-10.5,3.3-3.8,8.5-5.9,15.1-5.9M152.4,31.3c-7.5,0-13.5,2.4-17.4,6.9-2.8,3.3-4.2,6.5-5.2,12-.2.8,0,1.7.5,2.3.5.7,1.2,1.1,2.1,1.2l9.4,1.1c.1,0,.2,0,.4,0,1.5,0,2.7-1.1,3-2.5.4-2.9.8-3.8,1.5-4.8,0,0,0,0,0-.1,1.1-1.7,3-2.5,5.8-2.5s6.1.6,6.1,4.3-.5,3-6.6,7.2c-6.6,4.4-8.7,6-11.2,8.2-4.7,4.3-7.9,8.9-9.9,14.1-.9,2.6-1.5,5.1-1.9,9.2,0,.9.2,1.8.9,2.4.6.6,1.3.9,2.1.9s.2,0,.3,0c2.1-.2,3-.3,8.2-.3h21.2c4.3,0,6.8.1,9.7.4,0,0,.2,0,.3,0,.7,0,1.5-.3,2-.8.6-.6,1-1.4,1-2.2v-8.7c0-.9-.4-1.7-1-2.3-.5-.5-1.2-.7-2-.7-.1,0-.3,0-.4,0-2.1.3-5.4.5-9.2.5h-13.3c.2-.3.5-.6.8-.9,1.5-1.6,4.7-4.3,7.4-6.2,8.5-5.8,9.4-6.5,11.4-8.4,3.9-3.7,5.6-7.6,5.6-12.7,0-10.7-8.5-17.6-21.7-17.6h0Z"/>
    </g>
    <g>
      <path class="st5" d="M199,90.4c-6,0-11.1-2-14.9-5.8-2.1-2.1-3.8-4.6-4.7-7.2-1.8-4.8-2.7-10.1-2.7-15.7s1.7-14.8,4.2-19c3.8-6.4,10.2-9.9,18.1-9.9s11.2,2,15,5.8c2.1,2.1,3.8,4.6,4.7,7.2,1.7,4.7,2.7,10.1,2.7,15.8,0,8.4-1.9,15.9-5.2,20.4-3.9,5.5-9.9,8.4-17.2,8.4ZM199,43.4c-2.7,0-4.6.8-6.2,2.8-2.7,3.1-4,8.2-4,15.1s1.2,12,3.1,14.8c1.7,2.5,4,3.6,7.2,3.6s4.7-.8,6-2.3c2.7-2.8,4.2-8.6,4.2-15.9s-1.5-12.9-4.2-15.9c-1.3-1.5-3.5-2.3-6.1-2.3Z"/>
      <path class="st2" d="M199,34.3c5.6,0,10.4,1.8,13.9,5.3,2,2,3.5,4.3,4.3,6.7,1.7,4.6,2.6,9.9,2.6,15.3,0,8.1-1.8,15.2-4.9,19.5-3.7,5.1-9.2,7.8-16,7.8s-10.3-1.8-13.8-5.3c-2-2-3.5-4.3-4.4-6.7-1.7-4.7-2.6-9.8-2.6-15.2s1.6-14.2,4-18.3c3.6-5.9,9.5-9.2,16.8-9.2M199,81.2c2.9,0,5.5-1,7.1-2.8,3-3.1,4.6-9.2,4.6-16.9s-1.6-13.6-4.6-16.9c-1.6-1.8-4.2-2.8-7.2-2.8s-5.5,1.1-7.4,3.4c-2.9,3.4-4.4,8.8-4.4,16s1.3,12.7,3.4,15.7c2,2.9,4.8,4.3,8.4,4.3M199,31.3c-8.4,0-15.3,3.8-19.4,10.6-2.7,4.5-4.4,12.2-4.4,19.8s.9,11.2,2.8,16.2c1,2.8,2.7,5.4,5,7.7,4.1,4.1,9.6,6.2,16,6.2s14.2-3.1,18.5-9c3.5-4.8,5.4-12.5,5.4-21.3s-1-11.5-2.8-16.3c-1-2.7-2.7-5.4-5-7.7-4.1-4.1-9.6-6.2-16-6.2h0ZM199,78.2c-2.7,0-4.5-.9-6-3-1.4-1.9-2.8-6.6-2.8-14s1.2-11.2,3.6-14.1c1.4-1.6,2.8-2.3,5.1-2.3s4,.7,4.9,1.8c2.5,2.7,3.9,8.1,3.9,14.9s-1.4,12.4-3.8,14.9c0,0,0,0,0,0-1.1,1.1-2.9,1.8-4.9,1.8h0Z"/>
    </g>
    <g>
      <path class="st5" d="M265.6,89.7c-2.8-.2-5.5-.4-9.8-.4h-21.2c-5,0-6.1,0-8.3.3,0,0-.1,0-.2,0-.4,0-.8-.2-1.1-.4-.3-.3-.5-.8-.4-1.2.4-3.9.9-6.3,1.8-8.8,1.9-5,4.9-9.4,9.4-13.5,2.4-2.2,4.5-3.7,11-8.1,6.2-4.3,7.2-6,7.2-8.4,0-3.6-2.8-5.8-7.6-5.8s-5.7,1.1-7.1,3.2c-1,1.4-1.4,2.6-1.8,5.5-.1.7-.8,1.3-1.5,1.3s-.1,0-.2,0l-9.4-1.1c-.4,0-.8-.3-1-.6-.2-.3-.3-.8-.3-1.2,1-5.2,2.2-8.2,4.9-11.3,3.6-4.2,9.2-6.4,16.2-6.4,12.4,0,20.2,6.2,20.2,16.1s-1.6,8.3-5.2,11.6c-2,1.8-2.8,2.5-11.3,8.3-2.8,2-6,4.7-7.6,6.4-1.2,1.3-1.9,2.2-2.5,3.4h16.1c3.9,0,7.2-.2,9.4-.5,0,0,.2,0,.2,0,.4,0,.7.1,1,.4.3.3.5.7.5,1.1v8.7c0,.4-.2.8-.5,1.1-.3.3-.6.4-1,.4s0,0-.1,0Z"/>
      <path class="st2" d="M246.3,34.3c11.5,0,18.7,5.5,18.7,14.6s-1.5,7.5-4.7,10.5c-1.8,1.7-2.5,2.2-11.1,8.1-2.9,2-6.2,4.8-7.8,6.6-2,2.1-2.8,3.4-3.8,5.9h18.5c4.2,0,7.4-.2,9.6-.5v8.7c-3.1-.3-5.7-.4-10-.4h-21.2c-5.1,0-6.2,0-8.5.3.4-3.8.9-6.1,1.7-8.4,1.8-4.8,4.7-9,9-12.9,2.3-2,4.3-3.6,10.9-8,6.1-4.2,7.9-6.3,7.9-9.7s-3.5-7.3-9.1-7.3-6.7,1.3-8.4,3.9c-1.1,1.6-1.6,3-2,6.1l-9.4-1.1c.9-5,2.1-7.7,4.5-10.5,3.3-3.8,8.5-5.9,15.1-5.9M246.3,31.3c-7.5,0-13.5,2.4-17.4,6.9-2.8,3.3-4.2,6.5-5.2,12-.2.8,0,1.7.5,2.3.5.7,1.2,1.1,2.1,1.2l9.4,1.1c.1,0,.2,0,.4,0,1.5,0,2.7-1.1,3-2.5.4-2.9.8-3.8,1.5-4.8,0,0,0,0,0-.1,1.1-1.7,3-2.5,5.8-2.5s6.1.6,6.1,4.3-.5,3-6.6,7.2c-6.6,4.4-8.7,6-11.2,8.2-4.7,4.3-7.9,8.9-9.9,14.1-.9,2.6-1.5,5.1-1.9,9.2,0,.9.2,1.8.9,2.4.6.6,1.3.9,2.1.9s.2,0,.3,0c2.1-.2,3-.3,8.2-.3h21.2c4.3,0,6.8.1,9.7.4,0,0,.2,0,.3,0,.7,0,1.5-.3,2-.8.6-.6,1-1.4,1-2.2v-8.7c0-.9-.4-1.7-1-2.3-.5-.5-1.2-.7-2-.7-.1,0-.3,0-.4,0-2.1.3-5.4.5-9.2.5h-13.3c.2-.3.5-.6.8-.9,1.5-1.6,4.7-4.3,7.4-6.2,8.5-5.8,9.4-6.5,11.4-8.4,3.9-3.7,5.6-7.6,5.6-12.7,0-10.7-8.5-17.6-21.7-17.6h0Z"/>
    </g>
    <g>
      <path class="st5" d="M292.5,90.5c-7,0-12.2-2-16.1-6.2-1.9-2.1-2.9-3.8-4.5-7.7-.2-.4-.1-.9,0-1.3s.6-.7,1-.8l9.1-1.9c.1,0,.2,0,.3,0,.6,0,1.2.4,1.4,1.1.6,1.8,1,2.5,1.7,3.3,1.6,1.9,3.9,2.8,7,2.8,5.7,0,9.3-3.7,9.3-9.4s-3.4-9.1-8.8-9.1-5.4.9-7.1,2.6c-.8.8-1.1,1.2-1.6,2.5-.2.6-.8.9-1.4.9s0,0-.1,0l-8.2-.8c-.4,0-.8-.2-1-.6-.3-.3-.4-.7-.3-1.1l.2-1.6c.4-3.2.5-3.6.6-5.1l1.5-16.4v-.2c0-1.3.2-3.4.3-6.4,0-.4.2-.8.5-1.1.3-.3.6-.4,1-.4s0,0,0,0c2,.1,3.5.2,6.9.2h16.2c4.5,0,6.1,0,8.9-.5,0,0,.2,0,.2,0,.4,0,.7.1,1,.4.3.3.5.7.5,1.1v8.3c0,.4-.2.8-.5,1.1-.3.2-.6.4-1,.4s-.1,0-.2,0c-2.7-.4-5.2-.5-8.9-.5h-14.1l-.9,9.6c2.7-1.6,5.8-2.3,9.3-2.3,5.8,0,10.5,1.8,13.9,5.4,3.5,3.4,5.1,7.7,5.1,13.4,0,12.5-8.2,20.3-21.3,20.3Z"/>
      <path class="st2" d="M309.6,34.8v8.3c-2.9-.4-5.5-.5-9.1-.5h-15.5l-1.1,11.5c0,.5-.2,1.5-.4,2.8,3.2-2.8,6.7-4,11.3-4s9.6,1.6,12.9,4.9c3.2,3.2,4.7,7.1,4.7,12.4,0,11.6-7.6,18.8-19.8,18.8s-11.4-1.8-15-5.7c-1.8-1.9-2.7-3.5-4.2-7.2l9.1-1.9c.6,1.9,1.1,2.8,2,3.8,1.8,2.2,4.6,3.4,8.1,3.4,6.5,0,10.8-4.4,10.8-10.9s-4.1-10.6-10.3-10.6-6.1,1.1-8.2,3c-.9.9-1.4,1.5-2,3l-8.2-.8c.7-4.7.7-5,.9-6.9l1.5-16.3c0-1.2.2-3.4.3-6.7,2,.1,3.5.2,7,.2h16.2c4.5,0,6.2,0,9.2-.5M309.6,31.8c-.2,0-.3,0-.5,0-2.8.4-4.3.5-8.7.5h-16.2c-3.4,0-4.8,0-6.8-.2,0,0-.1,0-.2,0-.7,0-1.5.3-2,.8-.6.6-1,1.3-1,2.2,0,3-.2,5.1-.2,6.4v.2s-1.5,16.3-1.5,16.3c0,0,0,0,0,0-.1,1.5-.2,1.9-.6,5l-.2,1.6c-.1.8.1,1.6.6,2.3.5.6,1.3,1.1,2.1,1.1l8.2.8c0,0,.2,0,.3,0,1.2,0,2.3-.7,2.8-1.9.4-1.1.7-1.3,1.3-2,1.4-1.4,3.6-2.2,6.1-2.2,4.6,0,7.3,2.8,7.3,7.6s-3,7.9-7.8,7.9-4.6-.8-5.8-2.3c0,0,0,0,0,0-.6-.6-.9-1.1-1.4-2.7-.4-1.3-1.6-2.1-2.9-2.1-.2,0-.4,0-.6,0l-9.1,1.9c-.9.2-1.6.7-2,1.5-.4.8-.5,1.7-.2,2.5,1.6,4,2.7,5.9,4.8,8.1,4.2,4.5,9.8,6.7,17.2,6.7,13.9,0,22.8-8.6,22.8-21.8s-1.8-10.8-5.5-14.5c-3.7-3.9-8.8-5.8-15-5.8s-5.3.4-7.6,1.3l.5-5.6h12.8c3.6,0,6.1.1,8.7.5.1,0,.3,0,.4,0,.7,0,1.4-.3,2-.7.7-.6,1-1.4,1-2.3v-8.3c0-.9-.4-1.7-1-2.3-.5-.5-1.2-.7-2-.7h0Z"/>
    </g>
    <g>
      <path class="st5" d="M351,94.3c-.3,0-.7-.1-1-.3-2.6-2.1-3.7-2.8-6.3-4.2-.4-.2-.7-.6-.8-1,0-.4,0-.9.3-1.2,1-1.3,2-2.6,2.7-4-.2.2-.4.3-.7.3-.1,0-.2,0-.3,0-.4,0-.7-.1-1-.4-1.7-1.5-2.8-2.5-3.8-3.6,0,.3,0,.4,0,.5v6.6c0,2.1.1,3.6.4,5.2,0,.4,0,.9-.3,1.2-.3.3-.7.5-1.1.5h-7.6c-.4,0-.8-.2-1.1-.5-.3-.3-.4-.8-.4-1.2.2-1.7.3-3.2.3-5v-5.5c-2.2,2.9-4.8,5.3-8.3,7.9-.3.2-.6.3-.9.3s-.3,0-.5,0c-.5-.1-.8-.5-1-.9-.9-2.6-1.7-4.3-3.2-6.4-.2-.3-.3-.8-.2-1.2,0-.4.3-.8.7-1,4-2.4,7-5.2,9.5-8.6h-1.5c-2.8,0-4.1,0-5.8.3,0,0-.1,0-.2,0-.4,0-.7-.1-1-.4-.3-.3-.5-.7-.5-1.1v-7c0-.4.2-.9.5-1.1.3-.2.6-.4,1-.4s.2,0,.2,0c1.6.2,2.8.3,5.9.3h5.2v-1.7h-5.4c-2.7,0-4.2,0-5.8.3,0,0-.1,0-.2,0-.4,0-.7-.1-1-.4-.3-.3-.5-.7-.5-1.1v-7.1c0-.4.2-.9.5-1.1.3-.2.6-.4,1-.4s.2,0,.2,0c1.5.2,2.7.3,5.5.3-.6-2.3-1.2-3.7-2.3-5.5-.1-.2-.2-.4-.2-.6-.6,0-1.2,0-1.8.2,0,0-.1,0-.2,0-.4,0-.7-.1-1-.4-.3-.3-.5-.7-.5-1.1v-7.1c0-.4.2-.9.5-1.1.3-.2.6-.4,1-.4s.2,0,.2,0c1.5.2,2.9.3,6.1.3h3.5c0-1.8,0-2.6-.3-4.1,0-.4,0-.9.3-1.2.3-.3.7-.5,1.1-.5h8c.4,0,.9.2,1.1.5s.4.8.3,1.2c-.2,1.3-.3,2.1-.3,4.1h3c3.1,0,4.3,0,5.9-.3,0,0,.2,0,.2,0,.4,0,.7.1,1,.4,0,0,.1.1.2.2.3-.3.7-.5,1.1-.5,7.6-.2,18.5-3.2,21.4-5.3.3-.2.6-.3.9-.3s.9.2,1.1.5l5.4,6.4c.3.4.4.9.3,1.4s-.5.9-1,1c-.4.1-.6.2-1,.3-.3,0-.6.2-1.1.4-4.9,1.8-8.9,2.9-17,4.3v5.9h13.3c2.6,0,4.3-.1,5.7-.4,0,0,.2,0,.3,0,.3,0,.7.1,1,.3.3.3.5.7.5,1.2v7.3c0,.4-.2.8-.5,1.1-.3.2-.6.4-1,.4s-.1,0-.2,0c-1.6-.2-2.6-.3-5.1-.3h-.1v25.1c0,3.7,0,5.6.4,7.5,0,.4,0,.9-.3,1.2-.3.3-.7.5-1.1.5h-7.7c-.4,0-.9-.2-1.1-.5-.3-.3-.4-.8-.3-1.2.3-2,.4-3.9.4-7.5v-25.1h-4.1c-.1,7.8-1,14.4-2.5,20.2-1.4,5.3-3.5,10.1-6.1,13.7-.2.3-.6.6-1,.6,0,0-.1,0-.2,0ZM345,71.8c1.1,1,2.3,1.9,4.1,3,0,0,0,0,0,0,.2-.9.4-1.9.5-2.9-1.4-.2-2.7-.2-4.7-.2ZM343.9,62.5c2.9,0,4.2,0,5.8-.3,0,0,.2,0,.2,0,.2,0,.5,0,.7.2,0-.4,0-.9,0-1.3-.1,0-.3,0-.4,0s-.1,0-.2,0c-1.8-.2-3.2-.3-5.9-.3h-3.8v1.7h3.6ZM335.3,51.4c1.2-2.3,1.9-4,2.6-6.2h-5.3c.8,1.8,1.3,3.2,1.9,5.8,0,.1,0,.3,0,.4h.8ZM347.9,45.2c0,.2,0,.4-.1.6q-.4.8-1,2.2c0,0,0,.1-.1.2q-.3.6-1,2.2c-.1.3-.2.6-.4.8,2.2,0,3.3,0,4.7-.3,0,0,.2,0,.2,0,.2,0,.5,0,.7.2,0-1.3,0-2.6,0-4s0-1.7,0-2.4c0,0-.1.1-.2.2-.3.2-.6.4-1,.4s-.1,0-.2,0c-.5,0-1.1-.1-1.6-.1Z"/>
      <path class="st2" d="M374.2,31.3l5.4,6.4c-.7.2-1,.3-2.2.7-5.3,2-9.4,3-18.1,4.5v8.7h14.8c2.9,0,4.5-.1,6-.4v7.3c-1.6-.2-2.7-.3-5.3-.3h-1.6v26.6c0,4,0,5.8.4,7.8h-7.7c.3-2,.4-4,.4-7.8v-26.6h-7.1c0,8.4-.9,15.3-2.4,21.3-1.3,5.1-3.4,9.8-5.9,13.2-2.6-2.2-3.8-2.9-6.5-4.4,6.3-7.6,7.9-16.3,7.9-41.3s0-7.6-.4-10.3c7.4-.2,18.9-3.1,22.2-5.6M339.4,31.4c-.3,1.6-.3,2.4-.3,4.8v1h4.5c3.1,0,4.4,0,6.1-.3v7.1c-1.8-.2-3.4-.3-6.2-.3h-2.7l5.6,1.6q-.4.9-1,2.3t-1.1,2.4c-.5,1.1-.7,1.6-1.5,2.9h1.3c3,0,4.4,0,6.1-.3v7.1c-1.8-.2-3.2-.3-6.1-.3h-5.3v4.7h5.1c2.8,0,4.3,0,6-.3v6.9c-1.7-.2-3.2-.3-6-.3h-2.4c2,2.3,3.6,3.7,6.8,5.8-1.5,2.4-2.2,3.8-3.2,6.3-3.3-3-4.4-4.1-6.5-7.1q0,.9.1,2.6c0,.2,0,2.2,0,2.6v6.6c0,2.3.1,3.9.4,5.5h-7.6c.2-1.5.3-3.1.3-5.2v-6.6c0-1.3,0-3,.2-4.5-2.7,5.1-5.7,8.5-10.9,12.2-.9-2.7-1.8-4.5-3.4-6.7,5-3.1,8.7-6.7,11.5-11.3h-4.3c-2.8,0-4.2,0-6,.3v-7c1.7.3,3,.3,6.1.3h6.7v-4.7h-6.9c-2.8,0-4.3,0-6,.3v-7.1c1.6.3,3,.3,6.1.3h1.6c-.9-3.7-1.6-5.4-2.9-7.8l5.8-1.5h-3.1c-2.9,0-4.4,0-6.2.3v-7.1c1.6.3,3.2.3,6.3.3h5v-1c0-2.2,0-3.2-.3-4.8h8M339.9,43.6h-9.7c1.5,2.8,2,4.2,2.8,7.6l-5.9,1.6h9c1.8-3.4,2.7-5.5,3.7-9.2M374.2,28.3c-.6,0-1.3.2-1.8.6-2.7,2-13.3,4.8-20.5,5-.3,0-.7,0-1,.2-.4-.2-.8-.3-1.2-.3-.2,0-.3,0-.5,0-1.5.2-2.7.3-5.7.3h-1.5c0-.9.1-1.5.3-2.3.1-.9-.1-1.8-.7-2.4s-1.4-1.1-2.3-1.1h-8c-.9,0-1.7.4-2.3,1.1-.6.7-.8,1.6-.7,2.4.1.9.2,1.5.3,2.3h-2c-3.1,0-4.4,0-5.9-.3-.2,0-.3,0-.5,0-.7,0-1.4.3-1.9.7-.7.6-1.1,1.4-1.1,2.3v7.1c0,.9.4,1.7,1,2.2.6.5,1.3.8,2,.8s.2,0,.3,0c.2,0,.5,0,.7,0,.6,1,1,2,1.4,3-1.4,0-2.3-.1-3.2-.3-.2,0-.3,0-.5,0-.7,0-1.4.3-1.9.7-.7.6-1.1,1.4-1.1,2.3v7.1c0,.8.3,1.5.8,2.1-.5.5-.8,1.3-.8,2v7c0,.9.4,1.7,1,2.3.5.5,1.2.7,2,.7s.3,0,.4,0c1.2-.2,2.2-.3,3.8-.3-2,2.2-4.3,4-7.1,5.8-.7.4-1.2,1.1-1.4,1.9-.2.8,0,1.6.5,2.3,1.3,1.9,2.2,3.6,3,6,.3.9,1,1.6,1.9,1.9.3,0,.6.1.9.1.6,0,1.2-.2,1.8-.6,2.3-1.7,4.3-3.3,5.9-5v1.5c0,1.7,0,3.2-.3,4.8-.1.9.2,1.7.7,2.4.6.6,1.4,1,2.3,1h7.6c.9,0,1.7-.4,2.3-1.1.6-.7.8-1.6.7-2.4-.1-.7-.2-1.3-.2-2,.3.5.7.8,1.2,1.1,2.5,1.3,3.5,1.9,6,4,.5.4,1.2.7,1.9.7s.3,0,.4,0c.8-.1,1.6-.6,2.1-1.2,2.7-3.8,4.9-8.7,6.3-14.3,1.4-5.5,2.3-11.7,2.5-19h1.1v23.6c0,3.9,0,5.6-.4,7.3-.1.9.1,1.8.7,2.4.6.7,1.4,1.1,2.3,1.1h7.7c.9,0,1.7-.4,2.3-1.1.6-.7.8-1.6.7-2.4-.3-1.7-.4-3.2-.4-7.3v-23.6c1.5,0,2.4,0,3.6.2.1,0,.2,0,.4,0,.7,0,1.4-.3,2-.8.6-.6,1-1.4,1-2.2v-7.3c0-.9-.4-1.7-1.1-2.3-.5-.5-1.2-.7-1.9-.7-.2,0-.4,0-.5,0-1.4.2-2.9.3-5.5.3h-11.8v-3.2c7.4-1.4,11.3-2.4,16.1-4.2.5-.2.8-.3,1.1-.4.4-.1.6-.2.9-.3,1-.3,1.8-1,2.1-2,.3-1,0-2-.6-2.8l-5.4-6.4c-.6-.7-1.4-1.1-2.3-1.1h0ZM334.8,46.6h1c-.2.5-.4.9-.6,1.4-.1-.5-.3-.9-.4-1.4h0ZM347.6,49.8c.2-.4.2-.5.4-.7,0-.1.1-.3.2-.4.5-1.1.6-1.3.8-1.8.1,0,.3,0,.4,0,0,0,0,0,0,0,0,.1,0,.2,0,.3,0,.8,0,1.6,0,2.4-.6,0-1.1.1-1.8.2h0ZM341.9,87.1s0,0,0,0v-3.5c.4.4.8.7,1.3,1.1.1.1.2.2.4.3-.4.6-.8,1.1-1.3,1.7-.1.2-.3.3-.3.5h0Z"/>
    </g>
    <g>
      <path class="st5" d="M415.8,94.1c0,0-.2,0-.3,0-.5,0-.8-.4-1-.8-.7-1.3-.9-1.9-1.4-2.6h-15.3v1.3c0,.8-.7,1.5-1.5,1.5h-6.9c-.4,0-.8-.2-1.1-.5-.3-.3-.4-.7-.4-1.2.3-2.2.3-4.1.3-6.7v-13.4c0-.4,0-.7,0-1.1-.4.3-.8.6-1.2.9-.3.2-.6.3-.9.3s-.3,0-.5,0c-.5-.2-.8-.6-.9-1-.7-2.6-1.3-4.3-2.6-6.4-.4-.7-.2-1.6.5-2,3.4-2.2,6.3-5,8.9-8.4h-.8c-2.3,0-3.8.1-5.3.4,0,0-.2,0-.3,0-.4,0-.7-.1-1-.4-.3-.3-.5-.7-.5-1.1v-6.7c0-.4.2-.9.5-1.2.2-.2.4-.3.6-.3-.1,0-.3-.2-.5-.3-.4-.2-.7-.7-.7-1.1,0-.5.1-1,.5-1.3,4.3-3.9,6.4-6.9,8.4-11.9.2-.6.8-.9,1.4-.9s.2,0,.3,0l7,1.3c.5,0,.9.4,1.1.8s.2.9,0,1.3c0,0-.6,1.2-.8,1.5h9c3,0,4.4,0,6-.4,0,0,.2,0,.3,0,.3,0,.7.1,1,.3.3.3.5.7.5,1.2v6.6c0,.4-.2.8-.5,1.1-.3.2-.6.4-1,.4s-.1,0-.2,0c-1.6-.2-3.1-.3-5.8-.3h-3.4c-.3.8-.5,1.4-.6,1.9h4.7c2.4,0,3.6,0,4.7-.3s.2,0,.3,0c.3,0,.7.1,1,.3,0,0,0,0,0,0,1.3-3,2.3-5.9,3-9.3.5-2,.6-3.3.7-4.7,0-.4.2-.8.5-1.1.3-.2.6-.4,1-.4s.1,0,.2,0l7.5,1c.4,0,.8.3,1.1.7s.3.8.2,1.3q-.6,1.8-1.9,6.7v.3c0,0,7.6,0,7.6,0,2.6,0,3.9,0,5.1-.3,0,0,.2,0,.3,0,.4,0,.8.2,1.1.5l3.2,3.6c.4.4.5,1,.3,1.5-.4,1.1-.6,1.8-1.4,5-1.2,5.2-3.4,11-5.7,15.2-.2.4-.6.7-1,.7,0,0-.2,0-.3,0-.3,0-.7-.1-.9-.3-1.4-1.2-2.8-2.1-4.4-3,.7,4.2,2,8.1,3.6,11.2,2.2,4.3,4.9,7.2,10.5,11,.3.2.6.6.6,1,0,.4,0,.8-.3,1.1-1.4,1.9-2.7,4.2-3.6,6.4-.2.4-.5.8-1,.9-.1,0-.3,0-.4,0-.3,0-.7-.1-.9-.3-4.6-3.6-7.1-6.2-9.5-9.9-1.6-2.5-2.8-4.9-3.7-7.7-.7,2.4-1.6,4.5-2.9,6.9-2.3,4.1-4.4,6.6-9.1,10.7-.3.2-.6.4-1,.4ZM411.6,81.6c1.9,0,2.6,0,3.5,0,0,0,0,0,0,0-1,0-1.8-.1-3.9-.1h-1v.3h1.3ZM401,81.6v-.3h-3.2v.3h3.2ZM416.2,73.1c.3,0,.5.2.8.4.3.3.5.7.5,1.1v3.9c1.4-2.2,2.5-4.8,3.5-8.1,1.5-5,2-8.3,2-14.4-.9,1.5-1.8,2.9-2.9,4.4-.3.4-.7.6-1.2.6,0,0,0,0,0,0-.2,0-.5,0-.7-.2v2.7c0,.4-.2.8-.5,1.1-.3.2-.6.4-.9.4,0,0,.1,0,.2.1.3.3.5.7.5,1.1v5.3c0,.4-.2.8-.5,1.1-.2.2-.5.3-.8.4ZM411.3,73.3c2.6,0,3.5,0,4.5-.2-1.1-.1-2.6-.2-4.5-.2h-1v.4h1ZM401,73.3v-.4h-3.2v.4h3.2ZM411.3,65c2,0,3,0,3.8-.1-.8,0-1.6,0-3.2,0h-1.6v.2h1ZM401,65v-.2h-3.2v.2h3.2ZM431.5,49.5c.5,0,.9.2,1.2.6.3.4.4.8.3,1.3-.2.7-.2,1.6-.2,2.9s0,2.3.1,3.5c1.6-3.1,2.7-5.7,3.6-9.1h-10c-.1.3-.2.6-.3.8h5.3ZM402.7,56.2c.5-.9.9-1.6,1.2-2.4h-1.3c-.5.8-1,1.5-1.5,2.4h1.6ZM412.5,56.2c0,0,.1,0,.2,0,0,0-.1,0-.1,0,0,0,0,0,0,0ZM396.7,44.9c.3-.6.5-1.1.7-1.9h-1.5c-.5.7-1,1.3-1.5,1.9h2.3Z"/>
      <path class="st2" d="M394,30.6l7,1.3c-.9,1.8-1.3,2.6-2,3.7h11.5c3.2,0,4.6,0,6.3-.4v6.6c-1.7-.2-3.2-.3-6-.3h-4.5c-.9,2.7-1.1,3.2-1.7,4.9h6.9c2.3,0,3.7,0,5-.3v4.2c2.8-5.1,4.3-9.2,5.5-14.4.5-2.2.7-3.5.7-4.9l7.5,1q-.6,1.8-1.9,6.7c-.2.7-.4,1.3-.7,2.2h9.7c2.6,0,4,0,5.3-.3l3.2,3.6c-.5,1.2-.7,2-1.5,5.2-1.2,5.1-3.4,10.8-5.6,14.8-1.8-1.5-3.5-2.6-5.7-3.7,2.6-4.6,4.1-8.2,5.4-13.3h-13c-2.1,5.3-4,8.8-6.7,12.4-1.8-2.1-3.4-3.5-5.5-4.6.9-1.2,1.2-1.5,1.8-2.4-1.4-.1-2.2-.1-3.8-.1h-9.7c-1.1,1.8-1.7,2.8-3.6,5.4h5.3c1.2-2,1.6-3,2.4-4.9l5.9,1.6c-.6,1.2-.8,1.5-1.9,3.3h2c2.7,0,3.8,0,4.8-.3v6.1c-1.7-.2-2.3-.2-4.8-.2h-3.1v3.2h2.5c2.7,0,3.7,0,4.7-.2v5.3c-1.2-.1-2.8-.2-4.7-.2h-2.5v3.4h2.5c2.7,0,3.7,0,4.7-.2v5.4c-1.3-.1-2.1-.2-4.7-.2h-2.5v3.3h2.8c2.3,0,2.9,0,4.2-.1,3-3,5.1-6.7,6.6-12.1,1.6-5.6,2.1-9.3,2.1-16.9s0-2-.3-3h7.3c-.2.9-.3,1.8-.3,3.2,0,6.9,1.7,14.7,4.5,20,2.3,4.5,5.2,7.6,10.9,11.5-1.4,1.8-2.8,4.2-3.8,6.8-4.6-3.6-6.9-6.1-9.2-9.5-2.6-4-4-7.7-5.1-13.2-.9,5.3-1.9,8.6-4,12.6-2.2,4-4.2,6.3-8.8,10.2-.9-1.7-1.1-2.2-1.8-3.4h-17.7v2.8h-6.9c.3-2.2.3-4,.3-6.9v-13.4c0-1.4,0-2.8.2-4.8-1.3,1.5-2.1,2.2-3.8,3.4-.7-2.8-1.5-4.5-2.7-6.7,4.4-2.8,8-6.6,10.9-11.2h-3.7c-2.5,0-4.1.1-5.6.4v-6.7c1.5.3,2.6.3,4.5.3-1.6-1.5-2.8-2.3-4.6-3.4,4.5-4,6.7-7.2,8.8-12.5M399.5,41.5h-4.4c-1.4,1.9-2.2,2.8-4.2,4.9h6.7c.7-1.6,1-2.2,1.8-4.9M396.3,66.5h6.2v-3.2h-6.2v3.2M396.3,74.8h6.2v-3.4h-6.2v3.4M396.3,83.1h6.2v-3.3h-6.2v3.3M394,27.6c-1.2,0-2.3.7-2.8,1.9-1.9,4.9-3.9,7.6-8.1,11.3-.7.6-1.1,1.6-1,2.6,0,.5.2.9.4,1.3-.2.4-.4.9-.4,1.5v6.7c0,.9.4,1.7,1.1,2.3.5.5,1.2.7,1.9.7s.3,0,.5,0c.8-.1,1.7-.2,2.7-.3-2,2.2-4.1,4.1-6.5,5.6-1.3.9-1.8,2.6-1,4,1.1,2,1.8,3.5,2.4,6,.3,1,1,1.7,1.9,2.1.3.1.7.2,1,.2s.4,0,.6,0v11.9c0,3,0,4.7-.3,6.6-.1.9.2,1.7.7,2.4.6.6,1.4,1,2.2,1h6.9c1.6,0,2.9-1.3,3-2.8h12.9c.2.4.5,1,.9,1.8.4.8,1.2,1.4,2.1,1.6.2,0,.4,0,.6,0,.7,0,1.4-.3,2-.7,4.9-4.2,7.1-6.8,9.4-11,0,0,0,0,0,0,.6-1.2,1.1-2.3,1.6-3.4.7,1.5,1.5,2.8,2.4,4.3,2.5,3.8,5.1,6.5,9.8,10.2.5.4,1.2.6,1.9.6s.5,0,.8-.1c.9-.3,1.7-.9,2-1.8.8-2.1,2-4.3,3.4-6.1.5-.7.7-1.5.6-2.3-.1-.8-.6-1.5-1.3-2-5.4-3.7-7.9-6.3-10-10.4-1.1-2.1-2-4.6-2.7-7.3.4.3.8.6,1.2.9.5.4,1.2.7,1.9.7s.4,0,.6,0c.9-.2,1.6-.7,2.1-1.5,2.4-4.3,4.7-10.3,5.9-15.6.8-3.1.9-3.8,1.3-4.8.4-1,.2-2.2-.6-3.1l-3.2-3.6c-.6-.6-1.4-1-2.2-1-.2,0-.4,0-.6,0-1.1.2-2.3.3-4.8.3h-5.7c.9-3.2.9-3.4,1.4-5,.3-.8.2-1.8-.3-2.5-.5-.8-1.3-1.3-2.1-1.4l-7.5-1c-.1,0-.3,0-.4,0-.7,0-1.4.2-1.9.7-.6.5-1,1.3-1.1,2.2,0,1-.1,1.8-.3,2.9-.2-.3-.4-.6-.7-.8-.5-.4-1.2-.7-1.9-.7-.2,0-.4,0-.6,0-1.4.3-2.6.3-5.8.3h-6.6c.2-.7,0-1.4-.2-2-.4-.9-1.2-1.5-2.1-1.6l-7-1.3c-.2,0-.4,0-.6,0h0ZM434.4,50.1h.1c0,0,0,.1,0,.2,0,0,0-.1,0-.2h0ZM419.7,62.4c.6-.2,1.1-.5,1.5-1-.3,3-.8,5.5-1.7,8.6-.2.6-.3,1.2-.5,1.7,0,0,0,0,0,0v-5.3c0-.2,0-.5,0-.7.5-.6.8-1.3.8-2.1v-1.1h0Z"/>
    </g>
  </g>
</svg>